<?xml version="1.0" encoding="UTF-8"?>
<svg id="Capa_2" data-name="Capa 2" xmlns="http://www.w3.org/2000/svg" viewBox="0 0 588.5 249.82">
  <defs>
    <style>
      .cls-1 {
        fill: #080808;
      }

      .cls-2 {
        fill: #623bf6;
      }
    </style>
  </defs>
  <g id="Capa_1-2" data-name="Capa 1">
    <g>
      <path class="cls-1" d="M38.57,113.7c-4.7,0-8.69-.72-11.96-2.17-3.28-1.45-6-3.36-8.17-5.73v6.04H.62V8.21L18.43,0v38.88c2.17-2.43,5.15-4.38,8.95-5.85s7.63-2.21,11.5-2.21c6.51,0,12.28,1.67,17.31,5,5.04,3.33,8.98,8.08,11.85,14.25,2.87,6.17,4.3,13.54,4.3,22.11,0,13.37-3.04,23.64-9.1,30.79-6.07,7.15-14.29,10.73-24.67,10.73ZM35.78,96.66c6.3,0,10.97-2.21,14.02-6.62,3.04-4.41,4.57-10.37,4.57-17.85,0-7.9-1.56-13.95-4.69-18.16-3.12-4.21-7.76-6.31-13.9-6.31-2.84,0-5.41.41-7.71,1.24-2.3.83-4.26,1.85-5.89,3.06-1.63,1.21-2.88,2.41-3.76,3.6v33.3c1.86,2.48,4.25,4.39,7.16,5.73,2.92,1.34,6.31,2.01,10.19,2.01Z"/>
      <path class="cls-1" d="M115.71,113.7c-5.53,0-10.5-.98-14.91-2.94-4.42-1.96-7.91-4.89-10.5-8.79-2.58-3.9-3.87-8.76-3.87-14.6s1.55-11.06,4.65-14.91c3.1-3.85,7.06-6.69,11.89-8.52,4.83-1.83,9.85-2.75,15.07-2.75,4.03,0,7.62.35,10.77,1.05,3.15.7,6.12,1.74,8.91,3.14v-4.65c0-3.51-.62-6.31-1.86-8.4-1.24-2.09-3.03-3.59-5.38-4.49-2.35-.9-5.15-1.36-8.4-1.36-4.39,0-8.74.72-13.05,2.17-4.31,1.45-8.33,3.41-12.04,5.89l-5.42-14.56c3.82-2.43,8.52-4.56,14.1-6.39,5.58-1.83,11.57-2.75,17.97-2.75,3.51,0,7.11.35,10.81,1.04,3.69.7,7.1,2.07,10.22,4.11,3.12,2.04,5.64,5.03,7.55,8.98,1.91,3.95,2.87,9.15,2.87,15.61v51.27h-17.35v-6.2c-2.17,2.07-5.02,3.92-8.56,5.58-3.54,1.65-8.02,2.48-13.44,2.48ZM118.97,98.06c4.34,0,8.04-.8,11.11-2.4,3.07-1.6,5.62-3.43,7.63-5.5v-10.22c-2.17-1.08-4.71-1.95-7.63-2.59-2.92-.64-6-.97-9.26-.97-4.54,0-8.55.87-12,2.59-3.46,1.73-5.19,4.53-5.19,8.4,0,3.15,1.34,5.72,4.03,7.71,2.68,1.99,6.45,2.98,11.31,2.98Z"/>
      <path class="cls-1" d="M174.12,111.84V32.69h17.81v18.74l-2.32-5.27c0-2.32,1.11-4.66,3.33-7.01,2.22-2.35,5.2-4.32,8.95-5.93,3.74-1.6,7.91-2.4,12.51-2.4,5.27,0,10.12,1.03,14.56,3.1,4.44,2.07,8,5.49,10.69,10.26,2.68,4.78,4.03,11.22,4.03,19.33v48.33h-17.81v-44.61c0-7.28-1.61-12.35-4.84-15.22-3.23-2.87-7.09-4.3-11.58-4.3-3.15,0-6.05.58-8.71,1.74-2.66,1.16-4.79,3.14-6.39,5.93s-2.4,6.64-2.4,11.54v44.92h-17.81Z"/>
      <path class="cls-1" d="M293.08,113.7c-7.18,0-13.38-1.63-18.59-4.88-5.22-3.25-9.23-7.98-12.04-14.17-2.81-6.2-4.22-13.68-4.22-22.46s1.47-15.94,4.42-22.11c2.94-6.17,7-10.92,12.16-14.25,5.16-3.33,11.1-5,17.81-5,4.44,0,8.35.74,11.73,2.21,3.38,1.47,6.03,3.27,7.94,5.38V8.21l17.81-8.21v111.84h-17.81v-6.04c-1.45,1.91-3.86,3.71-7.24,5.38-3.38,1.68-7.37,2.52-11.97,2.52ZM295.56,96.66c4.18,0,7.59-.66,10.22-1.98s4.8-3.24,6.51-5.77v-33.46c-1.24-1.7-3.2-3.42-5.89-5.15-2.69-1.73-6.4-2.59-11.15-2.59-6.09,0-10.79,2.1-14.1,6.31-3.3,4.21-4.96,10.26-4.96,18.16,0,4.85.75,9.11,2.25,12.78,1.5,3.67,3.68,6.53,6.54,8.6,2.87,2.07,6.39,3.1,10.57,3.1Z"/>
      <path class="cls-1" d="M36.25,220.54c-11.05,0-19.86-3.64-26.41-10.92-6.56-7.28-9.84-17.43-9.84-30.44,0-8.62,1.52-16.03,4.57-22.23,3.05-6.2,7.31-10.96,12.78-14.29,5.47-3.33,11.88-5,19.21-5,8.21,0,15.07,1.74,20.56,5.23,5.5,3.49,9.49,8.92,11.97,16.3l-16.88,5.73c-1.14-3.05-2.96-5.54-5.46-7.47s-5.85-2.9-10.03-2.9c-5.94,0-10.52,2.25-13.75,6.74-3.23,4.49-4.84,10.46-4.84,17.89s1.61,13.41,4.84,17.78c3.23,4.36,7.71,6.54,13.44,6.54,4.29,0,7.76-1.01,10.42-3.02,2.66-2.01,4.61-4.88,5.85-8.6l16.88,5.27c-2.32,7.64-6.25,13.45-11.77,17.43-5.53,3.98-12.7,5.96-21.53,5.96Z"/>
      <path class="cls-1" d="M115.71,220.54c-5.53,0-10.5-.98-14.91-2.94-4.42-1.96-7.91-4.89-10.5-8.79-2.58-3.9-3.87-8.76-3.87-14.6s1.55-11.06,4.65-14.91c3.1-3.85,7.06-6.69,11.89-8.52,4.83-1.83,9.85-2.75,15.07-2.75,4.03,0,7.62.35,10.77,1.05,3.15.7,6.12,1.74,8.91,3.14v-4.65c0-3.51-.62-6.31-1.86-8.4-1.24-2.09-3.03-3.59-5.38-4.49-2.35-.9-5.15-1.36-8.4-1.36-4.39,0-8.74.72-13.05,2.17-4.31,1.45-8.33,3.41-12.04,5.89l-5.42-14.56c3.82-2.43,8.52-4.56,14.1-6.39,5.58-1.83,11.57-2.75,17.97-2.75,3.51,0,7.11.35,10.81,1.04,3.69.7,7.1,2.07,10.22,4.11,3.12,2.04,5.64,5.03,7.55,8.98,1.91,3.95,2.87,9.15,2.87,15.61v51.27h-17.35v-6.2c-2.17,2.07-5.02,3.92-8.56,5.58-3.54,1.65-8.02,2.48-13.44,2.48ZM118.97,204.89c4.34,0,8.04-.8,11.11-2.4,3.07-1.6,5.62-3.43,7.63-5.5v-10.22c-2.17-1.08-4.71-1.95-7.63-2.59-2.92-.64-6-.97-9.26-.97-4.54,0-8.55.87-12,2.59-3.46,1.73-5.19,4.53-5.19,8.4,0,3.15,1.34,5.72,4.03,7.71,2.68,1.99,6.45,2.98,11.31,2.98Z"/>
      <path class="cls-1" d="M167.92,218.68v-79.16h16.26v19.52l-2.79-1.55c.77-6.2,2.65-11.05,5.62-14.56,2.97-3.51,6.73-5.27,11.27-5.27,4.03,0,7.23,1.21,9.6,3.64,2.38,2.43,4.03,5.04,4.96,7.82,1.81-2.89,4.17-5.52,7.09-7.9,2.92-2.37,6.54-3.56,10.88-3.56,6.2,0,10.89,2.22,14.1,6.66,3.2,4.44,4.8,12.24,4.8,23.39v50.96h-16.27v-48.33c0-5.42-.49-9.38-1.47-11.89-.98-2.5-2.92-3.76-5.81-3.76-1.81,0-3.37.62-4.69,1.86-1.32,1.24-2.34,3.03-3.06,5.38-.72,2.35-1.08,5.2-1.08,8.56v48.18h-16.26v-48.8c0-3.2-.26-5.94-.78-8.21-.52-2.27-1.32-4-2.4-5.19-1.08-1.19-2.51-1.78-4.26-1.78-1.91,0-3.58.62-5,1.86-1.42,1.24-2.52,3.03-3.29,5.38-.77,2.35-1.16,5.2-1.16,8.56v48.18h-16.26Z"/>
      <path class="cls-1" d="M261.79,249.82v-110.29h17.81v6.04c2.12-2.27,4.71-4.16,7.78-5.65,3.07-1.5,6.93-2.25,11.58-2.25,7.02,0,13.13,1.63,18.32,4.88s9.22,7.98,12.08,14.17c2.87,6.2,4.3,13.68,4.3,22.46s-1.5,16.1-4.49,22.27c-3,6.17-7.1,10.9-12.31,14.17-5.22,3.28-11.13,4.92-17.74,4.92-4.8,0-8.75-.79-11.85-2.36-3.1-1.57-5.65-3.52-7.67-5.85v29.28l-17.81,8.21ZM296.49,203.5c6.14,0,10.88-2.1,14.21-6.31,3.33-4.21,5-10.21,5-18.01s-1.65-13.4-4.96-17.89c-3.31-4.49-8.11-6.74-14.41-6.74-3.92,0-7.27.71-10.03,2.13-2.76,1.42-5,3.34-6.7,5.77v33.15c1.5,2.07,3.67,3.9,6.51,5.5,2.84,1.6,6.3,2.4,10.38,2.4Z"/>
    </g>
    <path class="cls-2" d="M571.9,220.93h-179.91c-9.15,0-16.6-7.44-16.6-16.6V24.42c0-9.15,7.44-16.6,16.6-16.6h179.91c9.15,0,16.6,7.45,16.6,16.6v179.92c0,9.15-7.44,16.6-16.6,16.6ZM397.84,202.93h168.21c2.46,0,4.45-1.99,4.45-4.45V30.27c0-2.46-1.99-4.45-4.45-4.45h-168.21c-2.46,0-4.45,1.99-4.45,4.45v168.21c0,2.46,1.99,4.45,4.45,4.45Z"/>
  </g>
</svg>