<svg width="271" height="627" viewBox="0 0 271 627" fill="none" xmlns="http://www.w3.org/2000/svg">
<g clip-path="url(#clip0_495_4566)">
<path d="M423.627 2.24397C426.45 1.30431 424.987 0.392695 425.324 0C420.753 2.05697 423.87 2.53381 423.627 2.24397Z" fill="#F472F0"/>
<path d="M380.25 24.9548L380.745 24.0525L375.086 28.6714L380.25 24.9548Z" fill="#F472F0"/>
<path d="M341.331 48.5071C343.78 48.2687 347.13 45.9032 350.785 43.1029C352.65 41.7659 354.598 40.3213 356.533 38.989C357.5 38.3204 358.468 37.6847 359.416 37.1003C359.893 36.8058 360.365 36.5299 360.832 36.2682C361.304 36.0157 361.776 35.7866 362.244 35.5763L363.669 35.3612L365.875 31.8971C364.828 32.5516 363.749 33.2435 362.646 33.9541C361.547 34.6693 360.417 35.3846 359.323 36.1793C357.117 37.7361 354.874 39.3256 352.706 40.8589C350.514 42.3502 348.467 43.893 346.551 45.216C344.635 46.539 342.868 47.675 341.336 48.5071H341.331Z" fill="#F472F0"/>
<path d="M318.689 58.9369C320.455 58.7265 314.96 62.7891 323.404 55.6738C322.904 55.9309 322.741 55.9823 322.442 56.1226C321.661 56.7397 320.572 57.5718 318.689 58.9369Z" fill="#F472F0"/>
<path d="M322.442 56.1226C326.255 53.1119 319.455 57.4503 322.442 56.1226Z" fill="#F472F0"/>
<path d="M305.393 70.643L307.538 68.2354C308.253 67.4313 309.006 66.6739 309.74 65.8885C309.057 66.1129 307.567 67.0713 306.482 67.8473C305.389 68.6094 304.627 69.1002 305.3 68.2541C300.627 72.9103 302.01 72.4148 305.393 70.6383V70.643Z" fill="#F472F0"/>
<path d="M301.963 75.8929L304.22 73.4713C303.636 73.6817 302.926 74.1959 301.963 75.8929Z" fill="#F472F0"/>
<path d="M309.034 68.3382C307.408 70.0305 305.823 71.7649 304.22 73.4713C305.164 73.1487 305.73 73.663 306.468 71.1665C306.492 72.0735 307.085 70.6429 309.034 68.3382Z" fill="#F472F0"/>
<path d="M312.329 66.0989C315.418 64.2243 319.17 61.5689 314.754 66.2298C317.053 64.2523 318.614 62.7376 319.558 61.7559C320.507 60.7788 320.797 60.2786 320.493 60.2506C320.194 60.2319 319.278 60.662 317.894 61.639C316.516 62.6208 314.633 64.1074 312.329 66.0989Z" fill="#F472F0"/>
<path d="M340.807 51.8123C341.504 51.4383 342.219 51.097 342.939 50.7558L345.079 49.7273L348.018 46.8101C347.28 47.5394 345.313 48.6708 343.607 49.6805C342.756 50.1854 341.966 50.6576 341.434 51.0316C340.915 51.4243 340.644 51.7095 340.807 51.817V51.8123Z" fill="#F472F0"/>
<path d="M275.723 97.1826C275.807 97.8137 278.162 96.5421 278.947 96.6449C279.901 95.3874 280.821 94.0924 281.812 92.8629C279.859 94.3355 276.489 97.4677 275.723 97.1872V97.1826Z" fill="#F472F0"/>
<path d="M278.947 96.6449L274.709 102.32C279.111 97.8511 279.616 96.7431 278.947 96.6449Z" fill="#F472F0"/>
<path d="M302.837 78.5716C305.328 75.6218 307.805 72.6345 310.338 69.6846C308.782 71.3909 307.272 73.144 305.744 74.8644C304.23 76.5988 302.688 78.3005 301.202 80.0583C301.73 79.544 302.286 79.0625 302.837 78.5716Z" fill="#F472F0"/>
<path d="M257.689 117.289L259.399 113.479L256.118 120.057L257.689 117.289Z" fill="#F472F0"/>
<path d="M246.655 131.403C247.679 128.439 242.935 133.698 244.347 130.819C242.954 132.829 241.795 134.797 240.786 136.686C240.281 137.63 239.809 138.556 239.365 139.463C238.949 140.388 238.547 141.286 238.159 142.16C238.645 141.286 239.164 140.412 239.739 139.542C240.332 138.687 240.972 137.822 241.673 136.943C243.071 135.185 244.706 133.367 246.655 131.403Z" fill="#F472F0"/>
<path d="M235.444 147.924C236.393 146.171 237.234 144.25 238.164 142.16C237.131 144.021 236.201 145.905 235.444 147.924Z" fill="#F472F0"/>
<path d="M266.493 111.025C266.199 111.128 265.731 111.245 264.97 111.675C264.213 112.105 263.208 112.89 261.801 114.288L264.647 113.087C265.189 112.442 265.844 111.745 266.493 111.025Z" fill="#F472F0"/>
<path d="M264.745 113.04L264.647 113.087C262.68 115.354 261.32 116.925 260.731 117.598C261.236 117.023 262.446 115.653 264.741 113.04H264.745Z" fill="#F472F0"/>
<path d="M266.965 110.511C266.792 110.698 266.666 110.838 266.493 111.025C266.774 110.918 266.914 110.829 266.965 110.511Z" fill="#F472F0"/>
<path d="M288.602 90.1702C286.205 93.6203 280.751 100.198 287.462 95.2425C288.878 92.5029 285.023 95.35 288.602 90.1702Z" fill="#F472F0"/>
<path d="M270.559 109.122L273.162 106.467C274.031 105.583 274.882 104.686 275.788 103.835C275.419 103.69 274.097 104.293 275.223 102.554C274.826 103.096 274.414 103.625 274.026 104.172L270.564 109.122H270.559Z" fill="#F472F0"/>
<path d="M268.461 112.124L270.559 109.122L268.629 111.095L268.461 112.124Z" fill="#F472F0"/>
<path d="M243.945 138.233C242.473 141.155 240.524 144.096 238.318 147.415C239.655 145.741 240.982 144.025 242.276 142.3C243.589 140.585 244.926 138.902 246.169 137.219C246.169 136.485 246.641 134.531 243.945 138.238V138.233Z" fill="#F472F0"/>
<path d="M253.913 125.868C253.801 126.064 253.632 126.298 253.53 126.48C253.894 126.209 254.146 125.957 253.913 125.868Z" fill="#F472F0"/>
<path d="M217.531 180.654C217.704 180.499 217.882 180.382 218.064 180.233C218.017 180.149 217.966 180.083 217.924 179.985L217.531 180.654Z" fill="#F472F0"/>
<path d="M246.805 136.798C247.87 135.597 248.618 134.559 249.197 133.605C249.772 132.651 250.174 131.782 250.581 130.94C249.88 131.913 249.207 132.955 248.473 133.998C247.744 135.045 246.978 136.115 246.169 137.214C246.169 137.546 246.244 137.663 246.805 136.798Z" fill="#F472F0"/>
<path d="M229.892 157.428C231.056 156.185 232.304 154.731 233.584 153.188C232.322 154.31 229.911 156.732 229.892 157.428Z" fill="#F472F0"/>
<path d="M252.553 127.088C252.637 126.948 252.707 126.817 252.805 126.672C251.913 127.313 252.114 127.298 252.553 127.088Z" fill="#F472F0"/>
<path d="M252.553 127.088C251.684 128.509 251.146 129.739 250.581 130.945C251.707 129.351 252.716 127.836 253.53 126.48C253.207 126.728 252.838 126.948 252.553 127.088Z" fill="#F472F0"/>
<path d="M219.863 195.253C218.985 194.197 221.705 186.212 226.537 180.738C229.168 174.146 223.242 175.941 218.064 180.228C218.256 180.462 218.466 180.644 218.256 181.612C218.153 182.098 217.943 182.776 217.573 183.758C217.218 184.749 216.742 186.053 216.05 187.764C216.508 187.278 217.298 186.189 218.204 184.917C219.125 183.655 220.204 182.248 221.139 181.07C223.018 178.723 224.396 177.367 223.387 180.331C222.34 182.509 221.546 184.015 220.901 185.104C220.251 186.193 219.803 186.895 219.354 187.423C218.471 188.489 217.728 188.928 216.326 190.845C217.971 189.456 217.055 192.453 216.125 195.679C216.008 196.081 215.896 196.492 215.779 196.894C215.681 197.306 215.587 197.708 215.494 198.1C215.321 198.881 215.181 199.615 215.12 200.232C214.994 201.466 215.162 202.238 215.924 202.032L217.391 198.077C217.901 196.768 218.447 195.473 218.971 194.169C219.373 194.201 218.475 197.161 219.863 195.258V195.253Z" fill="#F472F0"/>
<path d="M225.266 168.171L226.71 165.497C225.714 166.914 224.78 168.083 223.691 169.321C222.607 170.565 221.331 171.855 219.779 173.599C217.821 178.321 217.723 179.466 217.929 179.98L221.7 173.529C222.312 172.444 222.999 171.407 223.653 170.345L225.639 167.18L225.266 168.167V168.171Z" fill="#F472F0"/>
<path d="M234.051 154.034C233.925 156.807 230.472 163.183 234.178 160.304C238.935 152.875 236.538 154.451 239.066 149.766C238.07 151.248 237.36 152.309 236.865 153.043C236.379 153.787 236.094 154.189 235.944 154.357C235.64 154.694 235.879 154.086 236.154 153.352C236.421 152.613 236.762 151.772 236.617 151.613C236.542 151.533 236.346 151.622 235.963 151.987C235.589 152.356 235.042 153.006 234.248 154.034C235.561 151.519 237.005 149.43 238.318 147.419C236.706 149.448 235.061 151.351 233.584 153.193C233.682 153.099 233.752 153.039 233.836 152.964L233.869 152.903C233.869 152.903 233.869 152.922 233.878 152.926C234.364 152.506 234.565 152.394 234.098 152.926C234.089 152.978 233.995 153.127 233.958 153.193C234.07 153.385 234.065 153.703 234.047 154.03C231.528 157.349 233.383 154.376 233.958 153.193C233.925 153.113 233.935 152.983 233.878 152.931C233.864 152.941 233.85 152.955 233.836 152.969L230.215 159.21C229.616 160.252 229 161.281 228.415 162.332L226.705 165.507C227.144 164.885 227.593 164.212 228.079 163.459C228.317 163.08 228.565 162.688 228.831 162.276C229.102 161.865 229.383 161.435 229.682 160.977C230.869 159.149 232.271 156.91 234.056 154.039L234.051 154.034Z" fill="#F472F0"/>
<path d="M284.331 102.769C283.938 102.998 283.878 102.914 283.784 102.867C283.28 103.648 283.125 103.98 284.331 102.769Z" fill="#F472F0"/>
<path d="M279.695 106.392C280.265 105.513 280.448 104.504 282.868 102.18C285.182 100.371 283.345 102.657 283.784 102.867C284.901 101.156 287.939 97.0517 283.069 101.161L282.513 102.021C281.438 102.97 280.237 103.938 279.041 104.849C277.845 105.756 276.658 106.598 275.662 107.337C273.648 108.79 272.218 109.655 272.484 109.216C273.517 109.015 274.442 108.795 275.545 108.379C276.648 107.958 277.915 107.332 279.69 106.397L279.695 106.392Z" fill="#F472F0"/>
<path d="M256.016 129.729C254.88 131.356 253.721 132.96 252.614 134.601L249.347 139.566L253.922 135.466L253.156 135.265C257.53 130.141 255.946 130.739 256.016 129.729Z" fill="#F472F0"/>
<path d="M216.242 181.504L215.727 179.391C215.461 180.574 215.185 181.743 214.938 182.93L214.241 186.497C214.9 184.833 215.517 183.141 216.242 181.504Z" fill="#F472F0"/>
<path d="M209.115 195.394L208.208 194.29L207.096 198.348L209.115 195.394Z" fill="#F472F0"/>
<path d="M221.06 594.867L219.63 592.062C220.246 593.404 220.695 594.254 221.06 594.867Z" fill="#F472F0"/>
<path d="M225.649 617.456L226.34 617.975C225.887 616.919 225.583 616.502 225.649 617.456Z" fill="#F472F0"/>
<path d="M270.25 363.434C269.045 362.789 267.802 362.088 266.619 361.429C265.432 360.774 264.273 360.227 263.292 359.764C262.306 359.316 261.488 358.974 260.927 358.876C260.367 358.783 260.081 358.885 260.17 359.273C260.628 359.834 261.077 360.409 261.512 361.003C263.367 361.312 265.007 361.639 266.442 362.064C267.872 362.504 269.12 362.967 270.25 363.439V363.434Z" fill="#F472F0"/>
<path d="M157.045 550.039C157.106 549.543 157.167 549.034 157.227 548.519C156.564 547.383 155.942 546.318 155.386 545.364C155.886 546.771 156.419 548.375 157.041 550.039H157.045Z" fill="#F472F0"/>
<path d="M163.415 552.531C163.466 554.723 163.606 556.902 163.695 559.099C163.747 557.594 163.625 555.485 163.415 552.531Z" fill="#F472F0"/>
<path d="M134.436 592.048C134.328 592.702 134.249 593.376 134.156 594.035C134.067 594.694 133.983 595.353 133.908 596.017C135.272 593.45 135.529 592.67 135.366 592.408C135.202 592.146 134.628 592.427 134.436 592.048Z" fill="#F472F0"/>
<path d="M180.444 352.065C182.028 356.679 183.851 360.082 185.618 362.901C184.977 361.611 184.477 360.297 183.987 359.119C183.515 357.922 183.122 356.8 182.72 355.847C181.982 353.883 181.285 352.523 180.444 352.065Z" fill="#F472F0"/>
<path d="M238.22 600.112C237.449 597.957 236.883 597.106 236.608 597.246C237.019 598.34 237.379 599.191 237.65 599.701C237.907 600.215 238.098 600.383 238.22 600.107V600.112Z" fill="#F472F0"/>
<path d="M193.758 373.705C193.347 372.985 192.885 372.34 192.459 371.615C190.141 369.142 187.898 366.496 185.618 362.906C187.435 366.777 190.09 370.886 193.758 373.71V373.705Z" fill="#F472F0"/>
<path d="M125.814 675.505C125.692 675.168 125.505 674.785 125.407 674.472C125.188 674.472 125.426 674.902 125.814 675.505Z" fill="#F472F0"/>
<path d="M38.9751 561.422C39.634 561.745 40.4471 562.254 41.3491 562.815C42.2464 563.381 43.2231 563.998 44.1764 564.597C43.7418 564.26 43.1389 563.844 42.2978 563.32C41.8772 563.059 41.3958 562.769 40.849 562.451C40.3023 562.133 39.6901 561.773 38.9797 561.422H38.9751Z" fill="#F472F0"/>
<path d="M184.996 253.396C185.865 250.189 184.996 252.844 184.996 253.396Z" fill="#F472F0"/>
<path d="M195.385 239.978C195.287 240.684 195.301 241.245 195.59 241.437C195.347 241.068 195.305 240.568 195.385 239.978Z" fill="#F472F0"/>
<path d="M223.135 390.956C223.205 391.021 223.261 391.072 223.34 391.142C222.798 390.301 222.892 390.451 223.135 390.956Z" fill="#F472F0"/>
<path d="M187.122 248.833C186.842 249.394 186.552 250.006 186.258 250.656C185.973 251.31 185.706 252.012 185.431 252.741C185.734 252.119 186.216 250.918 187.122 248.833Z" fill="#F472F0"/>
<path d="M186.267 249.263C186.683 248.197 187.01 247.356 187.323 246.556C187.235 246.084 186.973 246.388 186.267 249.263Z" fill="#F472F0"/>
<path d="M183.739 257.846C184.262 256.023 184.837 254.345 185.431 252.746C185.15 253.339 184.996 253.578 185.001 253.396C184.734 254.331 184.36 255.654 183.739 257.846Z" fill="#F472F0"/>
<path d="M122.613 808.32C122.655 808.53 122.725 808.764 122.762 808.998C123.664 810.344 123.987 810.685 123.874 810.451C123.767 810.218 123.267 809.386 122.613 808.32Z" fill="#F472F0"/>
<path d="M193.81 391.4C193.899 391.287 193.927 391.213 194.011 391.114C193.894 391.194 193.758 391.306 193.66 391.381L193.814 391.395L193.81 391.4Z" fill="#F472F0"/>
<path d="M187.407 399.983C187.786 398.833 188.197 397.851 188.632 396.981C188.842 396.542 189.08 396.149 189.328 395.785C189.571 395.415 189.824 395.074 190.085 394.747C191.095 393.41 192.314 392.48 193.656 391.386C191.884 391.236 190.043 391.114 188.188 391.068C187.987 392.596 187.805 394.083 187.664 395.556C187.557 397.061 187.464 398.534 187.407 399.983Z" fill="#F472F0"/>
<path d="M185.613 559.538C187.66 560.506 189.609 561.656 191.445 562.956C187.375 562.259 184.202 561.88 182.636 561.913C181.856 561.932 181.491 562.035 181.641 562.273C181.715 562.395 181.921 562.554 182.262 562.759C182.603 562.988 183.08 563.278 183.702 563.629C184.141 562.614 185.833 562.357 188.179 562.867C189.352 563.101 190.66 563.568 192.039 564.143C193.399 564.765 194.838 565.476 196.212 566.336C199.006 567.986 201.605 570.057 203.717 571.562C205.825 573.077 207.479 574.049 208.475 573.484C209.306 574.877 210.106 576.265 210.811 577.705C210.026 576.607 209.662 576.63 208.853 575.578C209.381 576.625 209.877 577.443 210.325 578.14C210.792 578.818 211.222 579.369 211.666 579.814C212.115 580.253 212.545 580.613 212.998 580.926C213.452 581.239 213.928 581.511 214.405 581.814C215.377 582.408 216.428 583.081 217.559 584.315C218.681 585.554 219.887 587.373 220.929 590.248C221.013 590.5 221.092 590.748 221.172 590.991C221.242 591.239 221.307 591.491 221.368 591.73C221.49 592.211 221.602 592.665 221.695 593.081C221.882 593.918 222.004 594.605 222.032 595.082C222.041 596.059 221.803 596.143 221.069 594.857C221.443 595.563 221.733 596.316 222.069 597.045C222.387 597.784 222.742 598.513 223.041 599.261L223.92 601.533L224.364 602.674L224.756 603.838C225.27 606.643 224.364 606.105 223.859 603.347C225.107 608.111 225.934 613.048 226.49 618.064L226.35 617.966C226.826 618.999 227.345 620.747 227.887 622.538C228.397 624.328 228.822 626.184 229.102 627.4C228.803 629.382 228.682 628.886 228.565 628.026C228.462 627.166 228.294 625.95 228.046 626.46C228.481 629.293 228.845 632.163 229.154 635.057C228.556 636.806 227.999 635.875 227.626 633.79C227.439 632.748 227.303 631.411 227.177 629.98C227.121 629.265 227.079 628.517 227.055 627.769C227.032 627.021 226.99 626.273 226.99 625.544C225.971 627.549 225.471 628.98 225.345 630.27C225.228 631.556 225.396 632.724 225.635 634.188C226.097 637.1 226.78 641.238 224.878 649.881C224.878 647.142 224.864 644.416 224.794 641.714C223.415 644.262 222.85 647.109 222.317 650.485C222.055 652.168 221.803 653.991 221.466 655.964C221.424 656.211 221.382 656.459 221.335 656.712L221.27 657.09C221.261 657.142 221.247 657.24 221.237 657.258L221.209 657.296C221.172 657.338 221.144 657.399 221.116 657.427C221.083 657.441 221.05 657.455 221.018 657.469C220.882 657.516 220.719 657.52 220.527 657.459C220.723 657.544 221.069 657.647 221.513 657.539C221.569 657.52 221.625 657.525 221.681 657.478L221.863 657.343C221.863 657.343 221.896 657.329 221.915 657.296L221.971 657.132L222.321 656.137C222.635 655.258 222.962 654.388 223.284 653.607C224.546 650.508 225.728 648.839 225.934 653.607C225.798 654.267 225.667 654.982 225.555 655.763C225.499 656.155 225.448 656.562 225.406 656.987C225.387 657.193 225.364 657.403 225.345 657.618C225.331 657.726 225.322 657.834 225.317 657.95C225.266 658.759 225.368 659.638 225.401 661.069C224.84 660.681 224.471 660.783 224.121 661.106C223.943 661.265 223.765 661.494 223.541 661.737C223.317 661.98 223.05 662.251 222.7 662.466C222.321 662.691 221.859 662.882 221.345 662.896C221.228 662.069 221.088 661.237 220.924 660.409C220.284 660.779 219.863 661.022 219.443 661.368C219.017 661.686 218.602 662.069 217.709 662.008C217.4 661.751 217.148 661.489 216.952 661.232L216.877 661.134C216.821 661.069 216.76 661.003 216.704 660.942C216.592 660.811 216.48 660.685 216.372 660.559C216.157 660.307 215.961 660.063 215.779 659.83C215.05 658.895 214.559 658.091 214.227 657.385C213.54 655.982 213.54 654.87 213.442 653.804C209.643 649.732 210.512 651.536 211.171 653.252C211.498 654.108 211.774 654.944 211.358 654.987C211.148 655.005 210.764 654.828 210.129 654.346C209.498 653.86 208.568 653.121 207.423 651.864C206.703 650.905 205.993 650.003 205.283 649.138C205.105 648.923 204.928 648.708 204.755 648.498C204.586 648.278 204.418 648.058 204.255 647.839C203.918 647.408 203.582 646.983 203.25 646.558C202.577 645.716 201.899 644.903 201.203 644.099C200.53 643.276 199.871 642.439 199.17 641.611C198.464 640.784 197.754 639.947 197.02 639.087C196.31 638.203 195.576 637.301 194.801 636.366C194.413 635.899 194.015 635.422 193.609 634.936C193.207 634.445 192.824 633.926 192.417 633.402C191.604 632.35 190.758 631.247 189.861 630.088C188.492 626.928 188.926 627.035 189.604 627.619C190.281 628.204 191.202 629.265 190.87 628.054L188.674 625.843C187.94 625.1 187.192 624.361 186.496 623.58C185.856 622.239 186.529 622.43 186.87 622.524C185.421 620.406 184.903 620.542 184.23 620.355C183.898 620.256 183.505 620.083 182.968 619.48C182.435 618.873 181.734 617.849 180.739 616.063C179.982 615.806 179.332 614.646 178.776 612.884C178.21 611.126 177.622 608.831 177.075 606.264C175.85 601.178 174.621 595.143 171.808 590.739C171.649 588.177 173.378 591.501 173.934 590.524C171.065 584.203 170.028 581.389 168.929 578.925C168.411 577.682 167.897 576.513 167.191 574.998C166.845 574.241 166.424 573.4 165.98 572.404C165.527 571.408 165.013 570.272 164.41 568.94L164.195 566.481L164.027 564.017C163.924 562.371 163.779 560.74 163.719 559.099C163.658 560.936 163.448 561.773 163.032 561.88C162.63 561.988 162.05 561.366 161.401 560.263C160.76 559.16 160.031 557.58 159.27 555.789C158.882 554.896 158.513 553.942 158.153 552.975C157.793 552.002 157.428 551.011 157.069 550.039C156.751 552.708 156.438 555.018 156.424 556.532C155.274 552.311 154.204 548.057 153.227 543.774C153.339 542.157 154.241 543.372 155.414 545.364C155.115 544.508 154.825 543.695 154.573 543.069C154.615 540.703 155.078 540.081 155.657 540.446C155.956 540.628 156.293 541.054 156.662 541.633C157.041 542.208 157.442 542.933 157.849 543.714C157.671 545.331 157.447 546.949 157.251 548.524C159.036 551.493 160.91 554.181 162.008 553.316C161.634 552.535 161.167 550.983 160.76 549.258C161.237 550.02 161.63 550.492 161.77 550.081C161.929 549.613 161.214 548.379 160.391 546.378L162.279 543.157L161.26 542.592C161.167 541.199 161.12 539.796 161.074 538.398L160.929 534.209L160.868 530.021L160.835 527.931L160.849 525.841C160.438 524.383 160.008 522.943 159.569 521.508C159.153 520.063 158.737 518.623 158.321 517.169C158.111 516.44 157.9 515.706 157.685 514.963C157.489 514.22 157.293 513.467 157.092 512.709C156.704 511.19 156.293 509.629 155.938 508.007C154.494 501.518 153.377 494.038 153.353 484.361C154.844 489.223 156.097 485.506 158.111 485.871C156.9 488.414 157.027 492.135 157.4 496.413C157.615 498.549 157.849 500.826 158.087 503.191C158.204 504.369 158.302 505.571 158.363 506.782C158.391 507.389 158.414 507.997 158.424 508.61C158.447 509.222 158.457 509.834 158.452 510.452C158.452 507.88 158.77 506.871 159.069 506.669C159.377 506.468 159.714 507.067 159.896 507.712C159.522 504.809 159.12 501.896 158.83 498.97C158.489 496.048 158.251 493.117 157.994 490.176C159.62 490.62 159.363 486.492 160.293 481.967C158.545 483.603 158.204 480.303 158.27 475.684C158.344 471.098 159.092 465.245 159.158 461.65C159.732 461.514 160.237 461.916 160.401 463.403C160.475 464.146 160.499 465.165 160.41 466.526C160.307 467.886 160.144 469.597 159.849 471.734C160.284 470.584 160.569 469.527 160.746 468.541C160.933 467.554 161.022 466.638 161.027 465.764C161.027 464.011 160.798 462.435 160.517 460.841C160.256 459.252 160.027 457.657 160.064 455.9C160.158 454.151 160.489 452.225 161.527 450.047C161.083 452.118 160.718 453.212 161.102 454.142C161.06 451.617 161.971 447.438 162.957 444.301C163.98 441.174 165.022 439.084 165.102 440.575L164.574 442.604C165.555 439.257 166.878 435.073 168.42 430.697C169.957 426.317 171.747 421.759 173.533 417.603C175.313 413.442 177.136 409.716 178.425 406.804C179.108 405.373 179.603 404.106 179.949 403.129C180.295 402.157 180.43 401.423 180.295 401.007C180.482 401.053 180.902 401.914 181.285 402.877C181.669 403.84 182.005 404.887 182.024 405.387C182.963 401.198 184.197 396.995 185.8 392.811L187.076 389.684L188.52 386.594C188.758 386.066 189.024 385.561 189.295 385.056L190.118 383.527C190.398 383.017 190.665 382.494 190.964 381.989L191.875 380.493C191.73 382.153 194.296 382.667 195.759 383.915C196.497 384.532 196.978 385.317 196.805 386.439C196.721 387 196.464 387.636 196.011 388.398C195.576 389.184 194.936 390.081 194.034 391.114C195.324 390.198 196.707 389.118 198.436 387.814C198.866 387.487 199.292 387.103 199.768 386.743C200.245 386.383 200.74 385.995 201.254 385.57C202.264 384.691 203.441 383.831 204.699 382.746C203.722 383.181 202.133 383.181 201.049 382.873C200.516 382.732 200.114 382.508 199.993 382.19C199.871 381.872 200.025 381.456 200.647 381.003C201.698 380.703 202.582 380.456 203.339 380.245C204.086 380.04 204.727 379.909 205.269 379.759C205.811 379.619 206.269 379.488 206.689 379.357C206.9 379.292 207.101 379.226 207.297 379.161C207.498 379.105 207.699 379.048 207.904 378.992C208.708 378.759 209.563 378.506 210.835 378.132C211.479 377.987 212.232 377.828 213.129 377.646C213.578 377.557 214.059 377.454 214.587 377.365C215.12 377.3 215.699 377.225 216.326 377.15C214.751 377.445 214.419 376.435 215.162 375.117C215.536 374.462 216.176 373.714 217.055 373.046C217.952 372.433 219.083 371.882 220.373 371.54C219.732 372.312 221.733 375 220.069 375.888L221.452 375.009L222.153 374.565L222.873 374.177L225.808 372.602C226.298 372.321 226.817 372.125 227.327 371.886L228.873 371.195L230.439 370.498C230.967 370.283 231.504 370.101 232.042 369.9C230.416 370.362 230.378 371.148 231.088 371.919C231.803 372.691 233.243 373.453 234.673 373.855C234.505 373.78 234.547 373.71 234.757 373.64C234.967 373.574 235.346 373.504 235.855 373.485C236.874 373.443 238.388 373.401 240.052 373.429C240.888 373.476 241.758 373.523 242.622 373.569C243.487 373.612 244.342 373.644 245.15 373.742C246.763 373.906 248.174 373.985 249.034 374.004C248.151 373.747 247.258 373.555 246.365 373.322L245.019 372.985C244.571 372.868 244.122 372.761 243.669 372.681C244.122 372.705 244.562 372.751 244.987 372.803C245.412 372.845 245.828 372.882 246.225 372.915C247.029 372.976 247.781 373.008 248.496 373.018C249.922 373.083 251.193 373.102 252.357 373.027C253.525 372.934 254.586 372.887 255.604 372.756C256.623 372.639 257.595 372.471 258.572 372.331C259.544 372.214 260.53 372.097 261.572 372.013C262.096 371.971 262.628 371.938 263.189 371.919C263.745 371.905 264.32 371.933 264.923 371.966C266.124 372.045 267.451 372.162 268.919 372.471C270.377 372.803 272.008 373.2 273.816 373.855C272.821 373.887 271.358 374.682 271.073 375.771C270.928 376.318 271.064 376.945 271.676 377.604C272.279 378.286 273.349 379.02 275.083 379.759C277.027 379.46 281.434 378.717 287.126 378.805C289.944 378.908 293.103 379.067 296.402 379.871C299.687 380.652 303.118 381.989 306.286 384.181C306.8 385.098 307.286 386.009 307.721 386.954C309.244 388.169 310.716 389.553 312.044 391.171C313.38 392.774 314.553 394.644 315.441 396.734C314.777 395.836 313.941 394.812 312.927 393.798C311.913 392.783 310.716 391.797 309.394 390.899C306.744 389.095 303.594 387.683 300.342 386.631C297.089 385.575 293.72 384.859 290.579 384.34C287.387 383.831 284.401 383.359 281.924 382.966C283.125 383.714 283.784 384.196 284.214 384.551C284.639 384.92 284.84 385.154 285.135 385.402C285.429 385.645 285.812 385.902 286.598 386.309C286.99 386.51 287.486 386.753 288.116 387.047C288.724 387.342 289.43 387.678 290.299 388.122C291.266 389.212 290.163 389.034 288.56 388.529C287.785 388.286 286.738 387.926 285.812 387.58C284.878 387.23 284.027 386.884 283.471 386.641L287.747 388.8C289.051 389.492 290.322 390.222 291.533 390.988C293.939 392.517 296.145 394.195 297.837 395.925C298.089 395.411 298.846 395.523 299.781 396.018C300.716 396.509 301.795 397.384 302.627 398.3C303.482 399.216 304.09 400.16 304.557 400.866C305.024 401.568 305.384 402.068 305.837 401.909C305.239 399.693 303.833 397.715 301.795 395.869C299.753 394.032 297.164 392.409 294.341 391.035C294.481 390.474 295.337 390.217 296.715 390.352C298.089 390.488 299.986 391.012 302.033 392.106C304.062 393.195 306.253 394.892 307.767 397.304C308.534 398.501 309.067 399.885 309.333 401.357C309.571 402.83 309.501 404.419 309.099 405.906C308.249 407.308 307.51 406.317 306.781 405.378C306.384 404.882 306.02 404.391 305.641 404.031C305.286 403.676 304.978 403.461 304.786 403.489C304.95 403.76 305.08 404.415 305.024 405.219C304.978 406.023 304.716 406.986 304.211 407.902C303.72 408.818 302.977 409.674 302.258 410.277C302.089 410.436 301.907 410.567 301.739 410.684C301.571 410.801 301.426 410.913 301.276 410.992C300.982 411.156 300.753 411.254 300.617 411.268C301.655 410.104 302.445 408.903 302.828 407.753C301.982 408.505 301.188 409.286 300.314 410.137C299.44 410.978 298.482 411.866 297.327 412.666C296.173 413.461 294.832 414.176 293.229 414.597C291.631 415.017 289.771 415.167 287.7 414.788C286.284 414.826 284.177 414.129 282.536 413.447C282.331 413.362 282.135 413.278 281.938 413.194C281.733 413.11 281.532 413.031 281.34 412.951C280.934 412.787 280.564 412.657 280.237 412.568C279.588 412.395 279.116 412.395 278.938 412.699C280.032 413.498 280.887 414.615 281.48 415.817C282.036 416.995 282.424 418.299 282.569 419.552C282.714 420.81 282.611 422.034 282.191 423.04C281.779 424.049 281.018 424.825 279.98 425.167C279.681 425.078 278.419 424.704 276.634 424.176C276.19 424.04 275.718 423.9 275.213 423.745C274.713 423.591 274.204 423.376 273.671 423.18C272.615 422.773 271.484 422.338 270.335 421.894C269.199 421.422 268.082 420.856 266.989 420.347C266.446 420.085 265.914 419.823 265.395 419.571C264.881 419.309 264.395 419.014 263.928 418.748C262.063 417.654 260.535 416.752 259.792 416.055C257.637 414.059 260.016 413.83 262.357 413.545C264.745 413.194 267.073 412.862 265.306 411.324C265.115 411.577 264.292 411.633 263.353 411.605C262.881 411.605 262.39 411.539 261.941 411.469C261.493 411.399 261.086 411.324 260.782 411.263C259.348 410.375 259.857 410.085 259.871 409.693C259.89 409.281 259.404 408.879 256.147 407.397C255.89 407.58 255.492 407.617 255.006 407.552C254.525 407.481 253.955 407.322 253.375 407.061C252.212 406.556 250.95 405.826 250.039 405.289C249.127 404.742 248.59 404.33 248.796 404.583C248.903 404.7 249.193 404.999 249.744 405.466C250.305 405.925 251.118 406.593 252.24 407.509C251.417 407.149 250.698 406.813 250.057 406.495C249.74 406.331 249.436 406.177 249.151 406.032C248.87 405.873 248.609 405.71 248.356 405.551C247.351 404.924 246.538 404.34 245.706 403.727C244.865 403.134 244.047 402.409 242.973 401.61C242.435 401.203 241.842 400.768 241.159 400.287C240.486 399.796 239.739 399.235 238.874 398.627C239.211 399.314 238.818 399.632 237.93 399.651C237.052 399.66 235.64 399.426 234.047 398.87C230.822 397.823 226.635 395.771 223.621 393.531C224.322 393.391 223.546 391.736 223.167 390.951C217.559 385.832 213.657 381.479 209.867 377.225C206.119 372.934 202.521 368.707 198.231 363.182C198.058 362.499 197.067 360.732 196.52 359.32C195.941 357.922 195.768 356.908 196.95 357.796C196.235 357.1 195.478 356.473 194.59 355.585C193.744 354.673 192.744 353.505 191.698 351.663C191.389 350.662 191.305 350.012 191.277 349.676C191.263 349.335 191.352 349.278 191.511 349.419C191.669 349.559 191.903 349.896 192.174 350.33C192.45 350.765 192.791 351.293 193.132 351.836C193.8 352.93 194.6 354.019 195.1 354.454C195.609 354.888 195.847 354.641 195.539 353.046C195.202 353.103 194.558 352.635 193.81 351.78C193.431 351.354 193.001 350.84 192.557 350.255C192.132 349.662 191.674 349.003 191.202 348.297C189.347 345.468 187.557 341.827 186.361 339.064C185.636 340.228 186.608 343.654 188.534 347.221C189.015 348.11 189.524 349.021 190.109 349.891C190.394 350.33 190.679 350.765 190.964 351.2C191.268 351.621 191.571 352.037 191.87 352.448C192.174 352.855 192.464 353.261 192.763 353.645C193.071 354.023 193.371 354.398 193.66 354.753C193.95 355.108 194.23 355.454 194.501 355.781C194.782 356.099 195.048 356.403 195.301 356.693C194.74 357.076 193.768 356.936 192.543 356.249C191.931 355.907 191.244 355.435 190.492 354.837C189.767 354.225 188.973 353.486 188.141 352.621C187.739 352.182 187.323 351.709 186.898 351.204C186.688 350.952 186.473 350.695 186.253 350.428C186.048 350.153 185.837 349.872 185.627 349.592C185.206 349.017 184.767 348.414 184.342 347.778C183.931 347.133 183.515 346.455 183.089 345.749C181.449 342.911 179.944 339.517 178.795 335.735C178.43 334.216 178.131 332.986 177.991 331.995C177.855 330.999 177.79 330.247 177.776 329.681C177.738 328.554 177.977 328.18 178.201 328.124C178.678 328.012 179.304 329.148 179.01 328.115C178.556 322.407 178.402 318.363 178.098 315.161C177.986 313.567 177.809 312.173 177.659 310.911C177.519 309.649 177.332 308.494 177.201 307.377C177.075 306.26 176.939 305.166 176.883 304.016C176.837 302.87 176.818 301.65 176.921 300.299C177.122 297.588 177.72 294.282 179.131 289.79C180.729 286.326 181.65 286.457 182.29 287.237C182.935 288.023 183.416 289.491 184.197 288.827C183.543 293.6 182.608 297.172 181.762 300.397C181.542 301.201 181.332 301.987 181.141 302.758C180.949 303.534 180.753 304.296 180.58 305.058C180.267 306.596 179.968 308.13 179.86 309.78C180.355 307.106 180.977 304.469 181.622 301.851C181.664 302.632 181.669 303.618 181.636 304.712C181.617 305.806 181.585 307.008 181.505 308.218C181.454 309.429 181.379 310.654 181.262 311.79C181.178 312.926 181.052 313.978 180.874 314.848C181.117 314.09 181.323 312.94 181.542 311.482C181.785 310.023 182.01 308.251 182.318 306.25C182.902 302.244 183.72 297.312 184.786 292.076C185.061 290.767 185.333 289.439 185.632 288.102C185.949 286.77 186.267 285.423 186.585 284.077C187.239 281.389 187.856 278.682 188.562 276.069C189.309 273.465 190.057 270.936 190.8 268.552C191.174 267.36 191.534 266.205 191.912 265.102C192.314 264.008 192.716 262.96 193.109 261.965C193.413 258.912 194.338 253.718 192.95 255.878L191.627 261.123C188.828 265.504 192.693 250.782 190.076 257.168C190.375 255.35 190.609 253.452 190.964 251.512C191.328 249.571 191.73 247.561 192.212 245.476C192.455 244.434 192.716 243.372 193.006 242.293C193.296 241.213 193.609 240.114 194.006 239.015C194.777 236.809 195.688 234.532 196.782 232.185L199.334 231.096C198.712 231.082 195.857 236.968 195.417 239.885C195.749 237.725 197.773 234.261 199.6 230.699C200.044 229.801 200.53 228.922 200.965 228.043C201.399 227.164 201.792 226.3 202.11 225.458C202.754 223.78 203.114 222.204 202.955 220.863L198.922 227.01C199.39 225.215 199.834 223.289 200.301 221.279C200.782 219.273 201.231 217.16 201.89 215.07C202.516 212.967 203.217 210.83 204.035 208.708C204.442 207.647 204.881 206.59 205.348 205.548C205.843 204.514 206.386 203.5 206.96 202.499C205.152 203.953 204.96 204.458 204.619 205.211C204.292 205.973 203.811 206.973 201.409 209.493C202.652 208.493 202.656 209.339 202.072 211.055C201.782 211.91 201.343 212.985 200.834 214.159C200.324 215.332 199.74 216.594 199.235 217.866C197.142 222.92 195.235 227.571 198.371 223.929C197.109 225.224 196.137 226.519 195.301 227.852C194.506 229.198 193.852 230.577 193.188 232.017C192.52 233.462 191.842 234.972 191.006 236.584C190.59 237.393 190.123 238.225 189.613 239.1C189.123 239.978 188.576 240.89 187.95 241.844C188.665 241.802 190.141 239.301 187.351 246.551C187.421 246.944 187.393 247.804 187.361 248.347C187.263 248.566 187.23 248.641 187.146 248.828C187.221 248.688 187.281 248.585 187.356 248.445C187.342 248.795 187.356 248.828 187.431 248.305C188.295 246.645 189.104 245.341 189.646 244.887C189.697 245.92 189.492 247.416 189.141 249.146C188.968 250.011 188.749 250.932 188.534 251.89C188.333 252.853 188.113 253.844 187.884 254.835C187.426 256.818 186.968 258.804 186.562 260.553C186.174 262.301 185.856 263.811 185.8 264.872C184.328 269.201 185.557 262.82 184.239 265.041L183.79 271.329C183.01 271.441 181.608 274.218 180.72 275.672C180.281 276.396 179.935 276.784 179.804 276.312C179.739 276.078 179.725 275.63 179.776 274.9C179.837 274.176 180 273.18 180.239 271.843L179.598 274.199C179.383 274.984 179.215 275.784 179.024 276.574L177.902 281.328C177.379 282.684 176.86 284.18 176.36 285.741C176.103 286.517 175.888 287.326 175.668 288.135C175.453 288.948 175.238 289.757 175.061 290.58C174.304 293.843 173.827 297.097 173.752 299.621C173.481 300.776 173.383 302.132 173.322 303.417C173.271 304.708 173.322 305.965 173.364 306.924C173.467 308.85 173.621 309.658 173.224 307.513C173 312.837 173.084 318.256 173.649 323.688L173.289 323.856C173.458 327.905 174.019 332.047 175.079 336.179C176.131 340.312 177.608 344.449 179.421 348.442C183.057 356.445 187.847 363.803 192.473 371.611C194.296 373.541 196.174 375.444 198.324 377.641C200.469 379.848 202.862 382.372 205.713 385.542L205.993 387.618C207.236 388.702 208.671 390.17 210.227 391.75C211.003 392.54 211.779 393.382 212.592 394.2C213.405 395.023 214.218 395.845 215.017 396.65C215.807 397.458 216.611 398.216 217.377 398.922C218.144 399.627 218.873 400.282 219.55 400.848C220.91 401.974 222.088 402.732 222.845 402.937C223.677 404.765 225.724 406.967 228.476 409.356C229.177 409.94 229.925 410.534 230.705 411.142C231.49 411.74 232.285 412.376 233.163 412.956C234.033 413.549 234.925 414.148 235.841 414.751C236.299 415.05 236.757 415.359 237.229 415.648C237.711 415.934 238.197 416.219 238.683 416.504C239.659 417.07 240.645 417.64 241.627 418.21C242.627 418.762 243.66 419.272 244.674 419.8C245.183 420.062 245.688 420.319 246.192 420.576L246.95 420.959C247.207 421.076 247.464 421.193 247.721 421.31C248.744 421.777 249.758 422.235 250.749 422.689C251.244 422.913 251.726 423.147 252.221 423.353C252.716 423.554 253.207 423.75 253.688 423.947C254.651 424.344 255.586 424.727 256.483 425.097C257.366 425.489 258.264 425.779 259.091 426.106C259.923 426.424 260.703 426.733 261.432 427.032L262.409 425.62C262.661 425.709 262.904 425.807 263.156 425.891L263.923 426.12L265.456 426.569C266.479 426.864 267.503 427.154 268.535 427.425C269.587 427.644 270.648 427.855 271.718 428.06C272.255 428.159 272.793 428.261 273.33 428.364C273.601 428.411 273.872 428.467 274.143 428.509C274.419 428.542 274.695 428.575 274.975 428.607C276.087 428.729 277.214 428.851 278.363 428.977C278.648 429.005 278.938 429.033 279.228 429.066L279.662 429.108L280.144 429.136C280.793 429.173 281.448 429.206 282.107 429.21C284.742 429.257 287.443 429.056 290.271 428.607C289.986 428.145 289.71 427.677 289.444 427.21C291.794 426.705 294.449 426.2 297.369 425.438C300.281 424.652 303.487 423.638 306.781 421.815C308.426 420.903 310.085 419.786 311.665 418.369C313.24 416.957 314.731 415.228 315.922 413.203C317.119 411.189 317.988 408.879 318.418 406.523C318.852 404.19 318.876 401.759 318.488 399.375C318.871 399.973 319.184 401.544 319.133 403.391C319.1 405.223 318.637 407.308 317.988 408.959C319.203 406.238 319.712 403.265 319.544 400.179C319.446 398.646 319.166 397.122 318.74 395.658C318.31 394.195 317.722 392.821 317.044 391.531C315.675 388.955 313.922 386.799 312.067 384.986C310.207 383.167 308.225 381.68 306.239 380.381C302.248 377.805 298.211 375.977 294.36 374.285C292.505 373.518 290.729 372.672 288.986 371.83C288.112 371.414 287.256 370.975 286.42 370.521C286.004 370.292 285.593 370.059 285.182 369.82C284.766 369.591 284.359 369.362 283.957 369.119C280.34 368.231 277.877 367.207 275.545 365.991C275.872 366.099 276.172 366.178 276.438 366.225C276.087 366.08 275.555 365.888 274.999 365.72C273.508 364.996 271.989 364.173 270.279 363.434C271.695 364.206 273.017 364.963 274.213 365.477C273.526 365.267 272.751 365.042 271.905 364.804C271.48 364.687 271.04 364.565 270.587 364.444C270.129 364.336 269.652 364.229 269.166 364.117C268.194 363.897 267.18 363.682 266.147 363.467C265.115 363.252 264.035 363.116 262.974 362.953L261.53 361.003C261.18 360.947 260.909 360.868 260.539 360.83C256.436 359.47 257.049 360.938 259.03 362.513C257.946 362.443 256.904 362.392 255.946 362.373C254.988 362.336 254.086 362.424 253.305 362.495C252.557 361.747 251.464 361.33 250.193 361.073C248.908 360.872 247.445 360.844 245.949 360.811C245.576 360.807 245.202 360.783 244.823 360.793H243.688C242.931 360.793 242.183 360.765 241.458 360.69C240.729 360.624 240.024 360.461 239.346 360.321C238.669 360.162 238.019 359.933 237.411 359.605C236.673 359.975 234.935 360.152 232.715 360.578C231.603 360.779 230.373 360.938 229.088 361.19C227.813 361.475 226.481 361.77 225.149 362.069C224.485 362.205 223.836 362.415 223.191 362.611C222.55 362.812 221.92 363.013 221.307 363.214C220.695 363.42 220.106 363.621 219.546 363.827C218.989 364.056 218.466 364.308 217.975 364.547C216.017 365.524 214.62 366.407 214.325 367.296C214.078 367.006 212.825 367.254 215.003 366.473C210.377 367.656 205.783 369.371 202.409 372.125C201.502 371.877 200.577 371.634 199.637 371.405C199.31 371.727 198.974 372.036 198.661 372.363L197.726 373.368L195.889 375.365L194.174 377.445L193.333 378.478C193.053 378.819 192.8 379.193 192.534 379.544C189.697 380.998 187.753 382.19 186.898 382.246C186.057 382.312 186.319 381.278 188.244 378.558C183.136 384.555 181.463 387.122 179.739 389.347C179.337 389.922 178.944 390.479 178.528 391.082C178.112 391.685 177.682 392.33 177.243 393.111C176.794 393.882 176.304 394.766 175.748 395.808C175.229 396.874 174.649 398.113 173.986 399.571L173.271 398.337C172.009 400.245 170.789 402.979 169.705 405.48C169.126 406.715 168.649 407.93 168.112 408.917C167.85 409.417 167.579 409.861 167.312 410.249C167.055 410.637 166.794 410.964 166.523 411.207C165.686 412.194 164.677 413.629 163.649 415.48C163.125 416.401 162.56 417.411 162.032 418.528C161.499 419.646 160.896 420.824 160.363 422.109C158.12 427.219 155.919 433.605 154.04 440.571C152.138 447.532 150.643 455.082 149.409 462.482C148.825 466.185 148.264 469.85 147.811 473.398C147.558 475.179 147.362 476.899 147.138 478.582C146.904 480.265 146.68 481.911 146.465 483.496C148.479 481.126 147.918 484.057 147.217 487.741C146.862 489.583 146.549 491.621 146.46 493.262C146.371 494.903 146.563 496.151 147.311 496.413C146.404 497.885 145.885 501.462 145.114 497.306C145.222 498.942 145.278 500.48 145.297 501.929C145.339 503.378 145.362 504.743 145.357 506.043C145.329 508.642 145.306 510.975 145.315 513.186C145.306 515.398 145.409 517.473 145.684 519.554C145.825 520.596 145.998 521.634 146.245 522.69C146.507 523.742 146.834 524.813 147.236 525.911C146.456 527.478 145.689 523.223 145.264 524.593C145.549 525.631 146.367 528.679 145.974 530.086C145.773 530.778 145.54 530.315 145.273 529.427C145.026 528.539 144.769 527.216 144.483 526.197C144.769 529.549 145.273 532.12 145.792 534.107C146.306 536.094 146.942 537.487 147.587 538.482C148.881 540.474 150.288 540.867 151.638 541.175C151.531 542.877 151.554 544.359 151.606 545.696C151.671 547.033 151.792 548.23 152.026 549.352C152.507 551.586 153.297 553.536 154.554 555.766C154.349 556.986 154.209 558.594 153.891 558.898C153.732 559.047 153.531 558.874 153.251 558.155C152.984 557.435 152.592 556.182 152.194 554.157C152.503 556.458 153.498 563.489 154.905 569.917C155.269 571.52 155.643 573.086 156.012 574.536C156.377 575.985 156.802 577.303 157.176 578.43C157.942 580.674 158.639 582.114 159.186 582.09C159.073 583.628 160.751 588.387 161.377 589.477C162.798 594.483 163.677 597.186 164.518 599.874C164.966 601.206 165.443 602.529 166.027 604.119C166.326 604.909 166.625 605.778 167.018 606.727C167.411 607.676 167.845 608.728 168.336 609.915L167.611 607.143C168.569 607.858 169.275 608.691 169.845 609.658C170.415 610.626 170.845 611.734 171.317 612.968C171.775 614.207 172.224 615.6 172.78 617.148C173.355 618.686 174.093 620.359 175.033 622.196L174.701 622.094C174.902 622.655 175.098 623.183 175.28 623.692C175.481 624.193 175.678 624.665 175.86 625.114C176.238 626.011 176.575 626.811 176.874 627.531C177.182 628.251 177.467 628.886 177.724 629.447C177.995 630.008 178.253 630.49 178.481 630.925C179.407 632.65 179.996 633.491 180.566 634.328C181.122 635.174 181.748 635.969 182.687 637.652C183.164 638.489 183.711 639.554 184.431 640.924C185.183 642.275 186.085 643.954 187.188 646.062L187.903 644.318C188.37 644.262 188.842 644.449 189.319 644.833C189.809 645.211 190.324 645.777 190.852 646.501C191.917 647.946 193.006 650.054 194.413 652.317C197.039 656.959 200.815 662.41 205.217 665.776C204.82 665.234 204.474 664.645 204.11 664.075L203.04 662.359C204.301 663.205 205.409 664.603 206.615 666.16C207.203 666.95 207.778 667.814 208.353 668.721C208.638 669.184 208.928 669.652 209.218 670.119C209.634 670.676 210.063 671.251 210.526 671.812C212.349 674.093 214.671 676.304 217.2 677.842C219.723 679.343 222.41 680.114 224.611 680.039C225.097 680.058 225.163 680.114 224.943 680.203C224.831 680.24 224.649 680.311 224.41 680.343C224.172 680.376 223.878 680.413 223.546 680.451C222.219 680.572 220.284 680.502 218.924 680.24C220.994 680.904 222.793 681.152 224.284 681.143C224.658 681.166 225.013 681.133 225.35 681.105C225.686 681.077 226.004 681.063 226.303 681.021C226.897 680.909 227.429 680.825 227.887 680.703C228.345 680.563 228.738 680.432 229.079 680.311C229.42 680.184 229.696 680.035 229.93 679.913C230.397 679.656 230.687 679.464 230.841 679.268C231.425 678.525 230.546 678.314 230.715 677.557C230.794 677.188 231.117 676.678 231.892 675.86C232.075 675.64 232.285 675.402 232.528 675.14C232.776 674.883 233.005 674.551 233.294 674.224C233.589 673.897 233.85 673.481 234.182 673.064C234.341 672.849 234.486 672.606 234.65 672.368C234.813 672.125 234.986 671.877 235.136 671.592C236.323 670.727 236.374 672.003 236.823 672.401C237.052 672.588 237.425 672.56 238.08 671.779C238.725 670.993 239.729 669.474 240.603 666.379C240.753 666.015 240.926 665.552 241.052 664.972C241.187 664.402 241.328 663.733 241.421 662.971C241.543 662.219 241.599 661.363 241.664 660.461C241.687 660.026 241.706 659.577 241.72 659.11V658.61C241.711 658.46 241.711 658.306 241.706 658.151C241.65 655.683 241.472 652.626 241.318 649.353C241.019 642.794 240.687 635.389 241.697 629.948C241.29 631.154 240.86 632.341 240.449 632.537C240.042 632.738 239.701 631.967 239.341 629.246C239.145 625.086 239.762 619.396 239.622 613.707C239.589 612.286 239.496 610.869 239.388 609.49C239.281 608.106 239.042 606.76 238.809 605.484C238.584 604.203 238.215 602.997 237.818 601.889C237.411 600.785 236.977 599.775 236.383 598.92C236.332 597.803 236.444 597.345 236.636 597.246C236.491 596.858 236.337 596.438 236.173 595.989C236.019 595.54 235.846 595.068 235.64 594.582C235.252 593.605 234.832 592.539 234.392 591.421C233.953 590.309 233.402 589.173 232.892 588.013C232.626 587.434 232.383 586.854 232.089 586.274C231.794 585.695 231.5 585.12 231.21 584.545C229.995 582.282 228.677 580.187 227.443 578.514C226.812 577.682 226.224 576.948 225.677 576.349C225.121 575.756 224.625 575.284 224.205 574.966C224.509 572.974 223.036 569.837 220.377 566.565C219.728 565.737 218.966 564.929 218.19 564.096C217.382 563.288 216.55 562.455 215.643 561.675C214.76 560.871 213.797 560.118 212.844 559.356C211.863 558.627 210.886 557.893 209.872 557.224C205.872 554.48 201.68 552.46 198.633 550.927C197.862 550.558 197.165 550.203 196.567 549.857C195.96 549.529 195.436 549.216 195.03 548.903C194.226 548.272 193.829 547.72 194.062 547.131C187.3 544.752 179.893 543.723 172.654 544.532L173.173 543.966C169.677 544.176 166.784 544.803 164.382 545.513C163.784 545.705 163.214 545.892 162.672 546.079C162.13 546.266 161.625 546.491 161.139 546.692C160.658 546.902 160.186 547.089 159.756 547.309C159.326 547.528 158.915 547.743 158.522 547.954C157.732 548.365 157.041 548.809 156.41 549.239C156.097 549.454 155.793 549.665 155.498 549.871C155.209 550.081 154.942 550.305 154.676 550.516C154.152 550.946 153.657 551.353 153.204 551.773C152.76 552.208 152.33 552.624 151.895 553.045C149.119 554.359 150.764 552.797 150.844 552.418C146.54 554.793 143.493 557.061 141.077 559.094C138.675 561.142 136.88 562.97 135.338 564.854C134.543 565.779 133.856 566.752 133.141 567.747C132.464 568.767 131.763 569.814 131.095 570.992C129.73 573.329 128.319 576.078 126.753 579.655L124.524 580.15C123.804 582.188 119.739 587.565 115.724 595.021C114.71 596.872 113.701 598.869 112.757 600.902C111.799 602.94 110.822 605.044 109.976 607.223C109.541 608.307 109.116 609.401 108.7 610.495C108.294 611.594 107.934 612.711 107.574 613.819C107.219 614.932 106.882 616.04 106.565 617.148C106.275 618.26 106.008 619.368 105.765 620.467C105.649 620.242 105.466 619.794 105.7 618.368C105.135 620.836 104.368 623.365 103.62 625.969C103.237 627.269 102.812 628.573 102.391 629.891C101.989 631.214 101.569 632.542 101.134 633.87L100.475 635.861L99.8491 637.862C99.4238 639.195 98.9985 640.522 98.5779 641.841C98.1667 643.164 97.7835 644.482 97.3956 645.781C97.0171 647.086 96.6105 648.362 96.288 649.638C93.5215 659.783 92.1662 668.679 94.6711 672.681C94.6057 674.897 94.6524 677.118 94.6571 679.324C94.6477 681.535 94.7459 683.747 94.8019 685.949C95.0309 683.831 95.2365 682.288 95.4375 681.194C95.6571 680.105 95.8487 679.46 96.0217 679.142C96.3675 678.506 96.6339 679.165 96.8909 680.133C97.0077 680.614 97.1432 681.176 97.2694 681.69C97.4049 682.204 97.5498 682.676 97.6947 682.98C97.9891 683.588 98.3116 683.522 98.6948 681.821C98.648 683.475 98.4284 685.355 98.1293 687.122C97.8255 688.889 97.5218 690.553 97.1806 691.755C96.517 694.158 95.8721 694.733 95.9562 690.638L96.3254 689.38C95.6011 688.581 95.0964 689.488 94.7131 691.301C94.5262 692.208 94.3533 693.34 94.2225 694.597C94.1103 695.855 94.0168 697.234 93.9327 698.636C93.8906 699.338 93.8486 700.044 93.8112 700.74C93.7832 701.437 93.7598 702.129 93.7318 702.802C93.6804 704.143 93.6149 705.406 93.5261 706.486C93.3579 708.645 93.1383 710.076 92.6055 709.968C92.8719 726.798 94.2084 743.418 96.9376 759.612C99.6762 775.796 103.849 791.523 109.616 806.356C109.915 804.921 110.191 803.504 110.532 802.083C111.789 805.524 113.107 808.955 114.561 812.349C114.878 813.794 114.874 814.879 114.364 814.692C114.107 814.598 113.724 814.191 113.229 813.336C112.738 812.485 112.079 811.204 111.355 809.353C111.429 810.451 111.878 811.742 112.514 813.055C113.13 814.374 113.976 815.701 114.808 816.889C115.631 818.076 116.519 819.1 117.187 819.839C117.86 820.573 118.365 821.007 118.514 820.998C120.08 824.574 120.636 826.084 120.472 826.444C120.318 826.804 119.5 825.991 118.533 824.85C117.607 823.7 116.523 822.228 115.846 821.297C115.173 820.367 114.855 820.002 115.378 821.101C115.874 822.078 116.439 823.036 116.967 823.999L117.776 825.444L118.622 826.875L118.14 825.435C119.009 826.491 119.729 827.272 120.393 827.987C121.07 828.693 121.711 829.324 122.379 830.086C123.038 830.858 123.776 831.736 124.669 832.938C125.538 834.153 126.641 835.645 128.02 837.655C129.679 840.273 129.875 841.138 129.837 841.586C129.795 842.04 129.487 842.096 130.235 843.087C130.165 843.134 130.244 843.335 130.599 843.798C130.777 844.027 131.02 844.326 131.352 844.7C131.697 845.065 132.127 845.509 132.66 846.037C135.866 849.763 139.399 853.222 143.287 856.411C142.979 855.971 142.689 855.527 142.418 855.088L141.591 853.769L140.778 852.46C140.507 852.03 140.268 851.567 140.016 851.123C140.352 851.352 140.679 851.596 141.007 851.834C141.348 852.063 141.679 852.297 142.007 852.531C142.661 852.998 143.287 853.47 143.871 853.919C145.044 854.807 146.18 855.602 147.007 856.098C147.839 856.588 148.353 856.775 148.311 856.495C148.273 856.214 147.675 855.462 146.624 854.017C147.381 855.083 148.689 856.462 150.853 857.79C151.405 858.112 151.993 858.44 152.662 858.729C153.363 859.043 154.087 859.295 154.867 859.515C156.424 859.931 158.167 860.151 159.989 860.039C161.803 859.936 163.714 859.473 165.523 858.729C167.28 857.982 168.934 856.995 170.397 855.84C173.35 853.531 175.659 850.675 177.519 847.687C178.453 846.191 179.253 844.649 179.963 843.092C180.136 842.699 180.309 842.311 180.472 841.918C180.631 841.526 180.799 841.124 180.926 840.764C181.197 840.02 181.468 839.291 181.734 838.567C182.734 835.654 183.51 832.854 184.103 830.343C184.379 829.086 184.646 827.903 184.856 826.809C185.047 825.715 185.272 824.719 185.407 823.826C185.557 822.938 185.706 822.162 185.828 821.517C185.94 820.872 186.048 820.353 186.155 819.988C185.949 815.454 185.753 811.059 185.459 806.459C185.169 801.859 184.79 797.048 184.08 791.78C184.08 793.117 183.599 794.243 183.001 793.902C182.388 793.561 181.715 791.77 181.047 787.315C183.487 788.568 183.286 784.351 182.351 778.886C181.893 776.156 181.239 773.131 180.757 770.298C180.276 767.461 179.94 764.829 180.164 762.833C180.108 766.287 178.154 760.107 176.033 754.544C174.986 751.753 173.878 749.126 173.117 747.835C172.345 746.545 171.883 746.615 172.023 749.261C169.878 742.081 173.439 748.284 172.495 742.571C168.668 734.446 165.331 725.195 161.625 715.475C157.914 705.766 153.793 695.588 148.46 685.846C148.124 685.827 148.194 686.734 147.965 687.178C147.736 687.622 147.25 687.575 145.759 685.682L144.311 679.843C143.829 677.889 143.273 675.963 142.754 674.013C141.563 672.162 140.362 671.681 139.165 670.68C137.955 669.684 136.773 668.174 135.618 664.21C135.772 665.435 135.987 667.258 134.356 664.823C124.477 645.482 111.056 627.512 96.0076 611.033C88.479 602.782 80.5344 594.89 72.3422 587.256C64.15 579.617 55.71 572.24 47.0879 564.929C47.658 565.447 48.0786 565.896 48.3964 566.256C48.7142 566.612 48.9245 566.873 49.0413 567.056C49.2749 567.425 49.1394 567.476 48.7515 567.308C48.359 567.144 47.7234 566.752 46.929 566.261C46.1252 565.784 45.1765 565.19 44.1998 564.573C46.5785 566.42 43.3679 565.728 43.438 566.7L39.8256 563.736L38.919 562.998L37.989 562.292L32.3811 558.042C31.1193 557.117 29.8201 556.243 28.535 555.336C27.5256 555.41 25.9226 554.859 24.0346 554.017C22.1139 553.241 19.9035 552.185 17.7304 551.142C17.1883 550.88 16.6462 550.623 16.1181 550.371C15.576 550.142 15.0433 549.913 14.5198 549.693C13.4777 549.258 12.4916 548.865 11.6037 548.552C9.82789 547.921 8.4446 547.603 7.79969 547.888L13.3328 549.903C9.25775 549.45 11.2439 551.806 13.8469 554.517C16.4125 557.346 19.553 560.595 18.3473 561.745C18.8987 561.82 19.4548 561.937 20.0063 562.096C20.553 562.273 21.1045 562.488 21.6559 562.741C22.7635 563.241 23.8851 563.872 25.0254 564.597C27.334 565.999 29.6052 567.967 32.0633 569.907C32.6755 570.389 33.297 570.88 33.9279 571.38C34.5448 571.894 35.171 572.408 35.8113 572.913C37.0917 573.928 38.4189 574.914 39.8162 575.835C40.5219 576.284 41.2089 576.77 41.9286 577.219C42.6436 577.672 43.382 578.102 44.139 578.509C44.8961 578.916 45.6765 579.299 46.4803 579.655C47.2888 580.005 48.116 580.332 48.9431 580.66C50.9994 583.006 46.2747 579.916 47.1486 581.482C48.9338 581.983 50.719 582.82 52.7939 584.175C53.3127 584.512 53.8501 584.886 54.4109 585.293C54.9576 585.718 55.5231 586.181 56.1166 586.686C57.299 587.691 58.5888 588.855 60.0141 590.201L59.1169 589.902C59.6543 590.327 60.1917 590.739 60.7011 591.16C61.2058 591.59 61.7012 592.01 62.1919 592.426C63.1639 593.263 64.0986 594.072 65.0145 594.862C66.8511 596.419 68.4727 598.008 70.0476 599.518C70.8281 600.28 71.5945 601.024 72.3469 601.758C73.1086 602.487 73.8003 603.268 74.5106 604.011C75.9219 605.516 77.3052 606.998 78.6838 608.508C81.3569 611.622 84.1142 614.759 87.0256 618.452C87.764 619.363 88.5257 620.298 89.3062 621.266C90.0679 622.253 90.8484 623.272 91.6615 624.328C92.4746 625.38 93.3205 626.465 94.1944 627.596C95.0636 628.727 95.9282 629.933 96.8535 631.168L96.9189 628.765C100.083 633.052 100.41 634.211 101.588 636.441C102.975 637.297 103.111 636.983 102.62 636.062C102.125 635.146 101.027 633.613 99.8444 632.121C97.5171 629.111 95.1665 626.021 97.9097 627.381C98.9051 631.144 104.779 638.442 109.925 645.969C111.261 647.81 112.476 649.723 113.654 651.513C114.822 653.313 115.906 655.029 116.771 656.646C118.519 659.858 119.664 662.443 119.505 663.948C123.762 670.928 119.771 660.956 124.038 667.95C124.136 668.74 124.253 669.511 124.332 670.306L126.449 671.461C127.716 673.84 128.431 675.767 128.744 677.169C129.034 678.586 128.945 679.469 128.632 679.759C128.356 679.165 127.865 678.384 127.337 677.608C126.8 676.837 126.234 676.07 125.856 675.486C126.169 676.309 126.561 677.183 127.015 678.095C127.445 679.016 127.935 679.969 128.459 680.937C129.492 682.877 130.707 684.836 131.791 686.706C133.973 690.441 135.997 693.629 136.343 694.794L135.595 692.97L134.81 691.161L133.244 687.543C138.899 697.192 144.222 708.444 149.138 719.762C154.073 731.08 158.615 742.459 163.111 752.393L163.256 750.594C164.102 752.496 164.793 754.128 165.368 755.554C165.924 756.984 166.373 758.209 166.728 759.303C167.448 761.496 167.845 763.16 168.224 764.875C168.607 766.591 168.962 768.368 169.56 770.78C170.144 773.197 170.981 776.254 172.163 780.574L171.845 779.98C173.378 783.295 174.757 787.928 175.397 792.771C174.635 790.611 174.551 792.776 174.402 794.734C174.224 796.702 174.004 798.456 173.168 795.651C174.075 799.872 174.519 802.532 174.822 804.29C175.145 806.052 175.322 806.927 175.579 807.623C175.813 808.315 176.075 808.829 176.458 809.886C176.827 810.947 177.313 812.546 177.832 815.482L176.416 818.029C176.584 819.021 176.743 819.797 176.874 820.535C176.986 821.274 177.07 821.975 177.112 822.831C177.136 824.528 177.065 826.87 176.047 831.199C176.449 827.538 175.635 828.824 174.841 829.937C174.453 830.498 174.014 831.007 173.757 830.89C173.626 830.829 173.532 830.61 173.5 830.166C173.453 829.712 173.453 829.03 173.523 828.043C173.089 829.086 172.715 830.095 172.303 831.059C172.112 831.54 171.92 832.017 171.738 832.484C171.542 832.947 171.355 833.401 171.177 833.849C170.836 834.756 170.443 835.603 170.121 836.449C169.953 836.888 169.803 837.234 169.649 837.603C169.495 837.968 169.336 838.323 169.182 838.674C167.92 841.484 166.625 843.844 165.275 845.677C163.924 847.491 162.471 848.781 161.05 849.263C159.751 849.721 158.288 849.44 157.433 848.3C156.868 848.632 156.48 848.856 156.316 849.104C156.148 849.347 156.213 849.599 156.475 849.852C156.989 850.352 158.391 850.749 159.868 850.492C160.05 850.464 160.237 850.431 160.415 850.38C160.597 850.343 160.774 850.287 160.952 850.226C161.298 850.118 161.653 849.964 162.004 849.8C162.695 849.468 163.321 849.057 163.803 848.716C164.761 848.005 165.186 847.659 164.55 848.435C165.359 848.127 165.602 848.276 165.415 848.823C165.223 849.347 164.583 850.235 163.574 851.086C162.555 851.927 161.204 852.699 159.676 852.993C158.919 853.148 158.139 853.199 157.4 853.143C156.662 853.078 155.97 852.923 155.382 852.699C154.166 852.32 153.129 851.497 152.213 850.46C151.288 849.408 150.447 848.145 149.414 846.579C148.9 845.799 148.339 844.985 147.713 844.125C147.114 843.227 146.442 842.292 145.675 841.301C144.208 839.244 142.348 836.996 140.1 834.172C140.549 834.733 140.834 834.99 141.123 835.247C141.413 835.504 141.689 835.771 142.161 836.299C141.787 835.738 141.427 835.168 141.025 834.635C140.628 834.097 140.203 833.583 139.759 833.083C138.922 832.031 137.978 831.04 137.081 829.955C136.193 828.861 135.263 827.739 134.478 826.43C134.081 825.781 133.679 825.121 133.333 824.392C132.992 823.663 132.674 822.901 132.394 822.092C131.464 821.55 130.772 820.755 130.16 819.928C129.543 819.1 129.071 818.193 128.622 817.37C127.702 815.739 126.949 814.392 125.533 814.458C127.73 818.516 130.099 822.443 132.683 826.173C130.356 823.088 127.688 820.259 125.085 816.557C122.496 812.864 119.996 808.287 118.28 801.901C119.136 802.668 121.211 806.029 122.645 808.292C121.837 804.524 119.332 801.733 118.701 797.726C120.108 797.806 121.692 801.723 123.753 806.38C125.795 811.04 128.417 816.421 131.277 819.507C130.777 817.543 128.608 814.313 127.132 811.807C125.678 809.283 124.874 807.59 127.015 808.904C124.173 806.917 122.79 803.448 121.486 799.423C120.837 797.404 120.201 795.239 119.318 793.051C118.907 791.943 118.444 790.831 117.897 789.713C117.355 788.596 116.706 787.488 116.009 786.362L117.687 786.53C117.332 785.796 116.724 784.688 116.103 783.398C115.79 782.752 115.476 782.065 115.187 781.359C114.911 780.649 114.663 779.919 114.467 779.2C115.042 779.971 115.593 780.747 116.187 781.504L117.949 783.772C117.435 782.855 117 781.92 116.621 780.976C116.262 780.027 115.972 779.059 115.719 778.092C115.467 777.124 115.257 776.151 115.07 775.174C114.892 774.197 114.766 773.211 114.631 772.234C114.364 770.275 114.121 768.326 113.836 766.39C113.537 764.455 113.093 762.557 112.486 760.673C114.275 768.723 114.131 769.719 113.453 769.611C112.789 769.508 111.677 768.26 112.018 771.813C111.098 769.391 110.518 767.353 110.074 765.628C109.859 764.763 109.677 763.983 109.546 763.258C109.425 762.533 109.34 761.87 109.284 761.262C109.06 758.817 109.252 757.19 109.56 755.479C109.705 754.623 109.855 753.749 109.962 752.749C110.074 751.744 110.121 750.617 110.14 749.238C110.144 747.863 110.06 746.246 109.845 744.273C109.686 742.291 109.355 739.963 108.934 737.144C109.196 738.663 109.383 741.557 109.28 743.497C109.224 744.469 109.144 745.194 108.967 745.39C108.794 745.587 108.513 745.25 108.172 744.072C108.107 742.978 108.046 741.8 108.004 740.599C107.957 739.402 107.915 738.186 107.948 737.018C107.995 734.68 108.088 732.562 108.387 731.197C107.569 723.699 107.294 724.288 106.901 725.989C106.565 727.682 106.247 730.496 105.494 727.303C105.845 725.975 105.98 724.853 105.92 723.806C105.864 722.764 105.63 721.796 105.312 720.782C104.985 719.772 104.63 718.71 104.275 717.486C103.929 716.261 103.583 714.868 103.387 713.194L104.966 713.11C105.064 710.941 105.083 709.244 105.046 707.902C105.013 706.56 104.962 705.574 104.845 704.831C104.616 703.339 104.219 702.811 103.826 702.334C103.438 701.857 103.027 701.437 102.863 700.146C102.779 699.501 102.742 698.641 102.784 697.454C102.831 696.266 102.924 694.742 103.209 692.788C103.784 695.041 104.485 697.281 105.13 699.497L104.985 695.415C104.938 694.055 104.943 692.695 104.92 691.329L106.616 693.101C106.167 688.665 106.195 685.748 106.406 682.882C106.522 681.447 106.737 680.03 106.985 678.431C107.116 677.632 107.238 676.79 107.406 675.883C107.579 674.976 107.766 674.004 107.967 672.938C107.289 673.864 106.611 673.499 106.228 671.933C105.817 670.367 105.793 667.604 106.359 663.771C107.27 661.246 107.518 662.041 107.738 662.106C107.85 662.139 107.953 661.99 108.139 661.162C108.233 660.746 108.345 660.162 108.485 659.344C108.625 658.525 108.789 657.469 109.041 656.127C109.266 657.427 109.598 658.801 109.569 660.391C109.546 661.985 109.14 663.785 108.088 666.015C108.523 666.576 108.7 668.558 109.126 669.123C109.607 667.777 109.995 666.239 110.313 664.626C110.649 663.018 110.962 661.34 111.21 659.703C111.443 658.067 111.714 656.487 111.934 655.071C112.163 653.654 112.341 652.401 112.556 651.448C112.177 652.906 111.752 654.659 111.341 655.524L111.588 651.564L112.102 645.618L112.317 643.64L112.761 639.671C113.986 637.423 113.906 639.452 113.892 641.453C114.187 639.882 114.336 638.526 114.542 636.988C114.757 635.45 114.972 633.715 115.617 631.453C116.051 632.22 116.607 632.626 116.888 633.65C117.178 634.679 117.224 636.333 116.626 639.578L117.617 634.061L118.743 628.559C118.995 627.334 119.299 626.123 119.57 624.903C120.005 624.52 120.94 622.818 121.823 621.491C122.697 620.163 123.435 619.186 123.332 620.168C123.772 619.233 124.169 618.227 124.538 617.157C124.926 616.091 125.304 614.974 125.66 613.8C126.356 611.439 127.099 608.929 127.861 606.339C128.239 605.021 128.65 603.763 129.09 602.478C129.534 601.197 130.02 599.925 130.543 598.667C131.609 596.162 132.875 593.74 134.403 591.571C134.459 590.968 134.796 589.893 135.815 587.878C138.558 583.736 141.623 580.234 144.843 576.784C146.446 575.05 148.11 573.348 149.83 571.586C151.554 569.823 153.339 568 155.279 566.079C157.377 565.499 159.471 565.144 161.485 564.943C161.901 564.69 162.233 564.47 162.494 564.283C162.761 564.11 162.952 563.965 163.088 563.839C163.354 563.591 163.377 563.423 163.247 563.316C162.99 563.105 162.092 563.063 161.34 563.04C160.588 562.998 159.952 562.881 160.26 562.325C160.34 562.184 160.475 562.016 160.686 561.815C160.896 561.609 161.176 561.376 161.555 561.128C161.933 560.88 162.391 560.571 162.962 560.263C163.251 560.118 163.564 559.959 163.901 559.786C164.242 559.613 164.607 559.435 165.013 559.276C165.583 559.043 166.093 558.814 166.565 558.655C167.037 558.5 167.457 558.374 167.836 558.271C168.21 558.159 168.546 558.098 168.841 558.061C169.135 558.019 169.387 557.996 169.602 557.986C170.467 557.939 170.775 558.215 170.892 558.524C171.116 559.155 170.658 560.081 172.28 560.132C172.813 559.889 173.416 559.693 174.07 559.431C174.397 559.295 174.734 559.202 175.084 559.09C175.435 558.982 175.799 558.865 176.178 558.762C177.696 558.384 179.44 558.094 181.342 558.07C183.239 558.07 185.286 558.332 187.333 558.973C189.38 559.608 191.417 560.623 193.249 562.039C192.52 561.824 191.861 561.572 191.225 561.333C190.585 561.118 189.987 560.843 189.38 560.632C188.772 560.422 188.183 560.165 187.566 559.992C186.949 559.8 186.323 559.608 185.655 559.501L185.613 559.538ZM225.962 653.374C225.882 652.196 225.672 650.433 225.611 648.764C225.532 647.1 225.611 645.524 226.125 644.706C226.948 646.076 227.107 647.263 226.971 648.596C226.826 649.928 226.364 651.41 225.962 653.374ZM157.699 531.923C158.05 532.76 158.218 533.859 158.288 535.126C158.372 536.393 158.335 537.842 158.223 539.389C157.826 537.215 157.55 534.724 157.695 531.923H157.699ZM177.145 288.888C177.145 288.995 177.154 289.07 177.168 289.159C176.327 291.753 176.089 292.618 176.154 292.347C176.229 292.085 176.622 290.706 177.145 288.888ZM180.267 278.112C180.304 276.967 180.075 276.99 179.753 277.401C179.968 278.257 179.43 280.711 178.682 283.474C179.262 282.787 179.86 281.445 180.262 278.112H180.267ZM131.482 843.737L130.361 841.708C131.258 842.634 131.856 843.269 132.23 843.695C132.609 844.111 132.772 844.317 132.763 844.391C132.763 844.532 132.099 844.153 131.482 843.737Z" fill="#F472F0"/>
<path d="M162.667 552.185C162.513 552.881 162.251 553.11 161.985 553.316C162.396 554.176 162.7 554.139 162.667 552.185Z" fill="#F472F0"/>
<path d="M134.553 591.314C134.483 591.407 134.431 591.51 134.366 591.604C134.352 591.814 134.385 591.95 134.441 592.043L134.553 591.309V591.314Z" fill="#F472F0"/>
<path d="M261.792 409.104C263.624 410.174 264.647 410.763 265.278 411.329C265.4 411.165 265.259 410.927 264.722 410.581C264.451 410.408 264.086 410.212 263.596 409.982C263.11 409.753 262.521 409.435 261.792 409.104Z" fill="#F472F0"/>
<path d="M196.03 220.839C195.249 223.116 194.445 225.379 193.684 227.655C194.913 224.397 195.721 223.382 196.618 221.858C196.217 221.863 195.198 222.934 196.034 220.844L196.03 220.839Z" fill="#F472F0"/>
<path d="M232.733 170.378C233.103 169.401 233.85 168.513 234.21 167.545L233.444 167.395C231.201 171.163 230.116 174.076 232.733 170.378Z" fill="#F472F0"/>
<path d="M203.413 216.777C204.862 216.791 206.269 212.565 208.087 207.927C207.97 208.203 207.862 208.465 207.727 208.727C206.647 206.604 205.021 211.714 203.418 216.772L203.413 216.777Z" fill="#F472F0"/>
<path d="M208.517 206.861C209.133 205.459 209.788 204.038 210.503 202.719C210.087 201.873 209.545 204.327 208.517 206.861Z" fill="#F472F0"/>
<path d="M182.944 264.148C183.412 263.04 183.103 262.568 182.795 262.222C182.482 261.876 182.155 261.665 182.608 261.09C182.393 260.333 182.122 260.946 181.884 262.091C181.655 263.241 181.514 264.933 181.463 266.308C181.365 269.057 181.701 270.567 182.944 264.148Z" fill="#F472F0"/>
<path d="M209.059 214.888L206.834 215.837L206.914 218.885L209.059 214.888Z" fill="#F472F0"/>
<path d="M193.927 250.726L196.875 243.405C196.581 243.429 196.735 242.423 197.034 241.222C195.408 245.799 193.408 250.754 193.927 250.726Z" fill="#F472F0"/>
<path d="M197.039 241.222C197.955 238.861 198.768 236.594 199.011 235.182C198.549 236.472 197.562 239.254 197.039 241.222Z" fill="#F472F0"/>
<path d="M205.273 224.949L204.072 226.968L202.96 229.511L202.409 230.783L201.895 232.073C202.409 230.867 202.993 229.684 203.563 228.501L205.273 224.953V224.949Z" fill="#F472F0"/>
<path d="M181.07 334.16L181.332 335.226C181.426 335.581 181.538 335.927 181.641 336.282L182.272 338.381C182.491 339.078 182.758 339.76 183.001 340.447C183.253 341.135 183.477 341.827 183.776 342.49C184.192 342.818 184.276 342.392 184.108 341.523C184.043 341.083 183.917 340.527 183.739 339.891C183.571 339.255 183.295 338.554 183.071 337.783C182.65 336.824 182.155 335.581 181.828 334.73C181.496 333.879 181.22 333.444 181.075 334.16H181.07Z" fill="#F472F0"/>
<path d="M184.753 308.335C184.202 310.556 183.837 310.682 183.183 311.926L185.197 312.323C185.038 311.005 184.884 309.672 184.753 308.34V308.335Z" fill="#F472F0"/>
<path d="M185.776 332.346C185.954 332.519 186.277 333.314 186.627 334.234C187.029 335.141 187.464 336.179 187.8 336.881C188.146 337.577 188.422 337.937 188.384 337.535C188.365 337.334 188.281 336.946 188.15 336.287C188.024 335.632 187.772 334.739 187.51 333.51C187.178 333.169 186.463 331.065 186.099 329.901C185.898 329.326 185.73 329.003 185.65 329.288C185.613 329.433 185.594 329.728 185.604 330.223C185.608 330.471 185.622 330.77 185.641 331.121C185.669 331.472 185.72 331.874 185.776 332.341V332.346Z" fill="#F472F0"/>
<path d="M272.096 418.365L271.04 418.14C270.69 418.061 270.349 417.949 269.998 417.86L269.433 421.165C270.335 420.281 271.232 419.314 272.096 418.365Z" fill="#F472F0"/>
<path d="M258.507 377.954C259.628 378.319 260.511 378.567 261.208 378.726C261.909 378.88 262.423 379.006 262.82 379.039C263.614 379.114 263.923 378.936 264.208 378.763C264.488 378.586 264.745 378.408 265.432 378.478C266.124 378.53 267.236 378.894 269.227 379.787C270.423 379.75 268.797 379.025 267.157 378.31C265.516 377.618 263.853 377.01 265.068 376.977C262.156 376.566 259.983 376.206 258.81 376.192C257.633 376.187 257.469 376.589 258.502 377.954H258.507Z" fill="#F472F0"/>
<path d="M265.073 376.977C266.007 377.099 267.012 377.197 268.082 377.328C267.241 377.164 266.619 377.071 266.138 377.038C265.661 376.991 265.33 376.982 265.073 376.982V376.977Z" fill="#F472F0"/>
<path d="M18.0388 548.146L17.3145 547.697L12.1084 544.752L15.6741 547.533C16.4639 547.729 17.2631 547.907 18.0388 548.141V548.146Z" fill="#F472F0"/>
<path d="M5.15929 545.317L4.45363 542.765L0 543.097C1.44404 543.555 4.26202 544.457 5.15929 545.317Z" fill="#F472F0"/>
<path d="M220.891 658.539C220.985 658.731 221.069 658.927 221.148 659.124C221.583 659.647 221.891 659.512 222.2 659.058C221.733 659.058 221.27 658.876 220.891 658.539Z" fill="#F472F0"/>
<path d="M216.414 588.958L216.919 590.154L217.279 588.64C217.391 588.13 217.485 587.621 217.583 587.102C217.2 587.733 216.812 588.35 216.414 588.958Z" fill="#F472F0"/>
<path d="M168.598 563.76C169.13 563.629 169.672 563.451 170.233 563.316C170.514 563.241 170.794 563.157 171.079 563.068C171.364 562.979 171.654 562.928 171.944 562.853C172.233 562.783 172.523 562.713 172.813 562.638C173.103 562.577 173.397 562.535 173.687 562.488C173.976 562.446 174.266 562.404 174.547 562.362C174.827 562.334 175.103 562.329 175.374 562.325C173.046 562.647 171.084 562.469 169.803 562.507C169.158 562.488 168.705 562.586 168.485 562.75C168.266 562.928 168.289 563.227 168.598 563.76Z" fill="#F472F0"/>
</g>
<defs>
<clipPath id="clip0_495_4566">
<rect width="271" height="627" fill="white"/>
</clipPath>
</defs>
</svg>
