<?xml version="1.0" encoding="UTF-8"?>
<svg id="Capa_2" xmlns="http://www.w3.org/2000/svg" version="1.1" viewBox="0 0 339.8 409.3">
  <!-- Generator: Adobe Illustrator 30.4.0, SVG Export Plug-In . SVG Version: 2.1.4 Build 226)  -->
  <defs>
    <style>
      .st0 {
        fill: #623bf6;
      }
    </style>
  </defs>
  <g id="Capa_1-2">
    <g>
      <path class="st0" d="M79.3,4.5c3.8-1.9,1.1-3.7,1.4-4.5-3.1,2.1-3.2,3.4-2.8,4.1.5.7,1.6.7,1.3.5Z"/>
      <path class="st0" d="M43.3,56.8l-.6-1.5c-.2,1.5-.4,3.1-.5,4.6-.1,1.5-.3,3-.4,4.5.4-2.5,1-5.1,1.5-7.7Z"/>
      <path class="st0" d="M26.1,108.1c3.1-1.8,4-6.5,4.9-11.9,1-5.3,1.6-11.3,4-15.6l1.6-1.1-2.4-5.4c-.4,1.4-.8,2.9-1.2,4.4-.3,1.5-.7,3.1-1,4.7-.6,3.2-1.2,6.3-1.8,9.4-.3,1.5-.6,3-.9,4.5-.3,1.5-.6,2.9-.9,4.2-.6,2.7-1.3,5-2.2,6.9h0Z"/>
      <path class="st0" d="M9.6,134.1c1.1-.7,1.3.9,1.3,1.1,0,.2-.2-1.1.6-7.7-.3.6-.5.8-.7,1.1-.2,1.2-.6,2.8-1.1,5.5h0Z"/>
      <path class="st0" d="M10.7,128.6c1-5.7-2.3,3.4,0,0h0Z"/>
      <path class="st0" d="M7.7,155.1l-.7-7.8c-1.3,1.4-2.5,8.1-3,5.5,0,7.9,1.3,6.4,3.7,2.2h0Z"/>
      <path class="st0" d="M10.5,162.6c-.1-1.3-.2-2.6-.3-4-.6.6-.8,1.6.3,4Z"/>
      <path class="st0" d="M9.7,150.2l.5,8.4c.9-1,2.6-.9,0-3.8,1.4.9.2-.9-.4-4.6h0Z"/>
      <path class="st0" d="M11.1,145.7c1.8-4,3.3-9.3,3.8-1.6,1.6-14.2-2.2-12.8-3.8,1.6Z"/>
      <path class="st0" d="M30.5,111.9c.9-1.7,1.8-3.3,2.8-5l-.4-5c.2,2.5-4,9.9-2.3,10h0Z"/>
      <path class="st0" d="M2,202.1c1.1.5,2.8-2.5,4.2-3.1-.4-1.9-.7-3.7-1-5.6-.4,1.4-.8,3.5-1.3,5.3-.5,1.8-1,3.2-1.8,3.4h0Z"/>
      <path class="st0" d="M6.2,199.1l1.8,8.3c.2-7.4-.6-8.8-1.8-8.3Z"/>
      <path class="st0" d="M15.9,164.5c-.9-4.6-1.5-9.2-2.2-13.9l.9,8.3c.3,2.8.8,5.5,1.1,8.2l.2-2.6Z"/>
      <polygon class="st0" points="2.7 234.3 0 229.7 4.2 238 2.7 234.3"/>
      <path class="st0" d="M5.1,255.6c-2.5-3.3-2.8,5.2-4.5,1.7.5,2.9,1.4,5.5,2.4,8,1.1,2.4,2.2,4.6,3.4,6.7-.8-2.3-1.3-4.7-1.6-7.4-.2-2.7,0-5.6.4-9h0Z"/>
      <path class="st0" d="M9.8,278.9c-.9-2.2-2.1-4.5-3.5-7,.9,2.4,1.9,4.8,3.5,7Z"/>
      <path class="st0" d="M7.7,221.6c-.6.7-2.3,2-2.7,6.7l2.8-3.4c0-1,0-2.1,0-3.3h0Z"/>
      <path class="st0" d="M7.9,224.8h0c.1,3.7.2,6.1.2,7.2,0-.9,0-3.1-.1-7.2Z"/>
      <path class="st0" d="M7.7,220.8v.8c.3-.3.4-.5,0-.8Z"/>
      <path class="st0" d="M11.5,185.8c1.5,5,2.9,15,5.8,5.4-1.9-3.5-3.6,2-5.8-5.4Z"/>
      <path class="st0" d="M11.3,216.6l.2-4.4c0-1.5.2-2.9.3-4.4-.8.2-1.9,1.8-2.8-.6.4,1.6.7,3.1,1,4.7l1.2,4.7h0Z"/>
      <polygon class="st0" points="12.4 220.9 11.3 216.6 11.2 219.9 12.4 220.9"/>
      <path class="st0" d="M10.2,263.4c1.8,3.6,2.6,7.7,3.5,12.3-.1-2.5-.3-5.1-.5-7.7-.2-2.5-.6-5.1-.8-7.5-1-.6-2.9-2.5-2.2,2.9h0Z"/>
      <path class="st0" d="M8.9,244.6c0,.3.2.6.2.8.2-.5.2-1-.2-.8Z"/>
      <path class="st0" d="M28.6,323.8c0-.4,0-.7,0-1-.2,0-.4,0-.5,0,.2.3.4.7.5,1h0Z"/>
      <path class="st0" d="M12.8,259.7c.1-3.8-.9-6-2.1-8,.6,2.8,1.2,5.7,1.6,8.9.5.3.7.3.5-.9Z"/>
      <path class="st0" d="M13.6,291.6c0-1.1.1-2.2.2-3.4,0-1.1.1-2.3.1-3.5-.6,2.1-1.3,6.2-.3,6.9h0Z"/>
      <path class="st0" d="M8.4,246.8c0-.2-.1-.4-.2-.6-.5,1.3-.2,1.1.2.6Z"/>
      <path class="st0" d="M8.4,246.8c.6,1.9,1.4,3.4,2.3,4.8-.5-2.3-1-4.4-1.6-6.2-.2.5-.4,1-.7,1.4Z"/>
      <path class="st0" d="M52.9,324.1c-1.1.8-4,0-6.7-2.4-1.3-1.2-2.6-2.8-3.6-4.7-1-1.9-1.7-4-1.9-6.2-2.7-3.2-5.5-2.9-7.9-.5-2.4,2.4-4.2,7.1-4.2,12.3.6-.2,1.1-.4,2.4.5.6.4,1.4,1.1,2.5,2.1,1.1,1,2.5,2.4,4.5,4.2-.3-1-1.1-2.7-2-4.7-.8-2-1.7-4.3-2.2-6.2-.5-2-.7-3.6-.4-4.3.3-.8.9-.7,2.4.8,1.7,2.5,2.9,4.3,3.7,5.6.8,1.4,1.3,2.4,1.5,3.2.6,1.8.3,3.2,2,6-.5-3.2,3.1-.7,7.3.8,1,.4,2.2.7,3.2,1,1.1.2,2,.4,2.9.3,1.7,0,2.8-.8,2.8-2.1-3-.9-6-2.3-8.7-4.2.2-.3,1.2-.1,1.9-.2.7,0,1.2-.3.5-1.4h0Z"/>
      <path class="st0" d="M21.2,305.1c-.5-1.2-1-2.4-1.5-3.7.9,4.5.8,7.8,1.3,14.6,2,3,3.6,4.7,4.7,5.6,1.1.9,1.8,1.1,2.3,1.1-3.4-6.3-5.8-12.6-7.6-18.8l.8,1.2h0Z"/>
      <path class="st0" d="M15.8,284.9c.9.5,1.7,1.5,2.5,2.5.4.5.8,1,1.1,1.5.4.5.8,1,1.1,1.4,1.5,1.7,2.8,2.2,3.8-.8-2.2-10.2-3.8-6.7-6.3-12.6,3.8,16.4-2.6-4.5-2,7.9-1.1-3.2-1.9-6.1-2.4-8.9.1,3.1.3,6.1.2,8.9,0-.2,0-.3.1-.4h0c0,0,0,0,0,0,.2-.8.4-1.1.4-.2,0,0,.1.2.1.3.4,0,.9.3,1.3.5.3,5-.6.9-1.3-.5-.1,0-.3-.1-.5-.1,0,0,0,0,0,0,.8,2.8,1.5,5.4,2.5,8.4,1,2.9,2,5.9,3.1,8.8-.4-2-.9-4.1-1.5-6.8-.3-1.4-.7-2.8-1.1-4.5-.4-1.6-.8-3.3-1.2-5.3h0Z"/>
      <path class="st0" d="M23.6,200.2c-.3.5-.5.5-.7.5.4,1.1.6,1.5.7-.5Z"/>
      <path class="st0" d="M21.7,206.9c-.4-1.2-1.6-2.2-1.3-6.1.9-3.4,1.5,0,2.4-.1-.4-1.2-.9-3.2-1.5-4.1-.6-.9-1.4-.5-2.1,3.2l.4,1.2c-.5,3.3-1.8,7.1-2.9,10-1.1,2.9-2.1,4.8-2.3,4.2,2.7-2,4.5-3.8,7.2-8.2h0Z"/>
      <path class="st0" d="M17.7,245.8c.8,4.6,2,9.1,3,13.6l1.7-7.3-1.5.5c-.2-3.9-.6-5.4-1.2-6.1-.6-.6-1.4-.4-2-.8h0Z"/>
      <path class="st0" d="M28.3,326.3c-1.3-.1-2.6-.2-4-.4,3.1,2.3,6.3,4.4,9.7,6.3-2-1.9-4-3.9-5.7-5.9h0Z"/>
      <path class="st0" d="M45.9,344.4c-.8.6-1.6,1.2-2.4,1.7,2.4,1,4.9,1.8,7.5,2.4-.9-.6-1.8-1.3-2.6-2-.9-.7-1.6-1.4-2.4-2.1h0Z"/>
      <path class="st0" d="M301.8,163.6l-1.9-3c.8,1.5,1.4,2.4,1.9,3Z"/>
      <path class="st0" d="M306.5,188.1l1.4.5c-.8-1.1-1.4-1.5-1.4-.5Z"/>
      <path class="st0" d="M71,213.3c-1.4,1-2.9,2-4.2,3s-2.7,1.9-3.7,2.8c-2.1,1.7-3,3.1-1.5,3.4l3.6-.3c.9-2.1,1.8-3.8,2.8-5.2s2-2.7,3.1-3.7h0Z"/>
      <path class="st0" d="M192.2,367.7c-.6,0-1.3,0-1.9,0l-2.2,4.4c1.2-1.3,2.6-2.8,4.1-4.3h0Z"/>
      <path class="st0" d="M189.9,354.7c2.5-.6,5-1.2,7.5-1.8-1.8.2-4.2.8-7.5,1.8Z"/>
      <path class="st0" d="M198.7,76.6l-4.7,2c6.1,1.6,3.9-.6,4.7-2Z"/>
      <path class="st0" d="M208.4,240c1.9-2,3.5-3.8,4.9-5.6,1.3-1.8,2.4-3.5,3.4-5.1-4.5,4.9-9.5,7.9-8.2,10.7Z"/>
      <path class="st0" d="M335.9,165.9c-1.2-2.6-2-3.6-2.7-3.3,1.1,2.6,2.1,4,2.7,3.3Z"/>
      <path class="st0" d="M223.6,215.4c-.7.7-1.2,1.5-1.9,2.2-.6,1.9-1.3,3.8-2.1,5.7-.8,1.9-1.8,3.9-3.1,5.9,1.7-1.8,3.4-3.8,4.7-6.1,1.2-2.3,2.1-4.9,2.3-7.7h0Z"/>
      <path class="st0" d="M222.4,110.5c-.1-.3-.4-.7-.5-1-.4.2,0,.6.5,1Z"/>
      <path class="st0" d="M113.4,145c0-.9,0-2.1.2-3.3.1-1.3.3-2.7.4-4-.4,1.3-.7,3.5-.6,7.3Z"/>
      <path class="st0" d="M131.1,327.3c-3.2,2.5-.3.7,0,0h0Z"/>
      <path class="st0" d="M108.5,327.8c.5-.7.8-1.4.5-2.1.1.8,0,1.5-.5,2.1Z"/>
      <path class="st0" d="M219.4,172.5c0-.1,0-.2,0-.3-.8,1-.6.8,0,.3Z"/>
      <path class="st0" d="M125.4,329.6c1.5-.5,3.1-1.3,4.8-2.1-.8.3-2.3.9-4.8,2.1Z"/>
      <path class="st0" d="M126.8,330.3c-1.2.7-2.2,1.2-3.1,1.7-.1.7.4.7,3.1-1.7Z"/>
      <path class="st0" d="M135.5,323.8c-1.8,1.4-3.6,2.6-5.4,3.6.8-.3,1.1-.4,1-.1.9-.7,2.2-1.8,4.4-3.5h0Z"/>
      <path class="st0" d="M53.1,188.8c0,.2.1.5.1.7,2.8,2.1,1.9,1-.1-.7Z"/>
      <path class="st0" d="M70.6,315.2c0-.2,0-.2-.1-.4,0,.2,0,.4-.1.5h.3Z"/>
      <path class="st0" d="M72.8,327.5c-1.9-2.5-2.9-4.6-3.1-6.5s.2-3.7.6-5.7c-2.9,1.2-5.9,2.5-8.9,3.9,3.6,3,7.5,5.7,11.3,8.3h0Z"/>
      <path class="st0" d="M268.4,113.2c1.5,2.6,2.6,5.3,3.9,7.9-2.6-1-4.6-2.2-6.4-3.1-1.8-.9-3.1-1.8-4.1-2.2-1-.4-1.5-.5-1.7,0,0,.3,0,.7.1,1.2.1.6.4,1.4.7,2.4,3.6-3.1,9.7,2.2,14.9,8.2,1.3,1.5,2.6,3,3.8,4.4,1.2,1.4,2.4,2.7,3.5,3.7,2.2,2.1,4.5,3.2,6.6,2.2l1.1,5.7c-.7-1.4-1.3-1.3-2-2.7.2,1.4.5,2.5.9,3.4.4.9.8,1.6,1.3,2.1,1,1.1,2.4,1.5,3.9,2.1,2.9,1.2,6.5,2.6,8.4,9.4.5,2.4.6,4.5.4,5.7-.3,1.2-.8,1.3-1.9,0,1.8,3.1,3.5,6.3,5,9.6.5,3.1-1.3,2.6-1.8-.4.8,2.6,1.3,5.2,1.9,7.8.3,1.3.4,2.6.7,4l.3,2c.1.7.1,1.4.2,2h-.3c.8,1,1.9,2.8,2.9,4.8.5,1,.9,2,1.3,2.9.4.9.7,1.8.9,2.4-1.4,4.3-1-2.2-2.2-1.1.4,1.5.8,3.1,1.1,4.7l.8,4.8c-1.4,1.8-2.5.7-3.2-1.6-.4-1.1-.5-2.6-.7-4.1-.2-1.5-.3-3.2-.2-4.7-2.4,2.1-3.5,3.5-3.8,4.9-.4,1.3,0,2.6.4,4.1.2.8.5,1.6.6,2.6.2,1,.2,2.1.1,3.4,0,1.3-.3,2.8-.8,4.4-.5,1.7-1.4,3.5-2.5,5.6.1-2.9.4-5.7.3-8.5-2.9,2.3-4.5,4.9-5.7,8.1-.6,1.6-1.4,3.3-2.2,5.1-.8,1.8-2,3.7-3.5,5.6.6-.4,1.7-1.5,3.1-2.9,1.4-1.4,2.8-3,4.3-4.3,1.5-1.3,2.9-2.3,3.9-2.3,1,0,1.8.9,1.7,3.5-.7,1.3-1.4,2.8-1.8,4.7-.5,1.9-.8,4.1-.8,7.1-.8-.3-1.5-.1-2,.3-.6.4-1.1,1.2-1.6,2.1-1,1.9-1.7,4.8-3,7.9l-3.9-2.2c-.4,1.7-.5,3-.6,4.1,0,1.1,0,1.9.2,2.7.3,1.6.9,2.9.8,5.2-4.2,6.9-8.1,6.6-11.5,6.6-3.6,5.1-1.3,4,1.1,3.3,2.3-.8,4.8-1.2,1,5.5-1.9,2-3.4,3.9-4.9,5.9-1.5,1.9-2.8,3.9-4,6-1.3,2-2.6,4.2-3.9,6.7-1.4,2.4-2.9,5-4.6,7.8-6.5,4.5-1-2.9-3.9-1.8-.7,2.4-1.4,4.9-2.2,7.4-1.3,1.1-1.6,0-1.8-.6-1.6,2.5-.9,3.4-.5,4.5.4,1.2.5,2.6-2.6,6.2.4,1.3-.7,2.5-2.5,3.6-1.9,1.1-4.5,2.1-7.3,3.3-2.9,1.1-5.9,2.5-8.6,4.2-1.4.8-2.6,1.8-3.8,2.9-.6.5-1.1,1.1-1.6,1.8-.5.6-.9,1.3-1.3,2-3.1.6-.4-3-2.2-4-5.3,6-7.9,8.3-10,10.7-1.1,1.2-2.1,2.3-3.3,3.8-1.2,1.5-2.8,3.5-5,6.2-3.7,1.1-7.5,2-11.2,3,4.4-.5,4.8,1.3,3.3,4.3-.8,1.5-2,3.2-3.6,5-1.5,1.8-3.2,3.8-5,5.5,3.4,0,6.3,0,8.2-.1-4.1,3.1-8.2,6.1-12.4,9.1-2,.1-1.3-1.9.1-4.7-.8.8-1.5,1.6-2,2.2-5.6.9-4.2-2.7-1.9-6.6,2,0,4.1,0,6.1,0,2.1-4.1,3.7-8.4,1.8-10.4-.6.9-2,2.2-3.7,3.3.5-1.1.8-2,.1-2.1-.7-.2-1.6,1.4-3.2,3.5l-5.2-2.9.2,2.1c-6.2,1.9-12.5,3.8-18.8,5.5-1.3,1.3-2.6,2.6-3.8,3.9-1.2,1.3-2.4,2.6-3.6,3.9-2.5,2.6-5.1,5.2-8.1,7.7-3,2.5-6.4,4.9-10.4,7.1s-8.7,4-14.1,5.3c2.5-2.2,2.5-3.8,1.9-5.2-.6-1.5-1.8-3-1.9-5.2,3.1,1.9,7,.6,11.3-1.4,4.3-2,8.9-5,14.1-6.4-5.5,1.5-5-1-3.9-2.1-5.5,3.4-11.2,6.5-17.1,9-.3-3.6-4.4-1.8-9.1-2.8,2.1,3.3-1.1,4.9-5.9,5.6-2.4.3-5.1.4-7.6.3-2.5,0-4.9-.2-6.7-.1,0-1.2.7-2.2,2.2-2.8,1.5-.5,3.9-.5,8.1,0-2.3-1.4-4-1.8-5.7-1.6-1.7.2-3.2.9-4.9,1.6-1.7.7-3.4,1.3-5.2,1.2-.9,0-1.8-.3-2.6-.8-.4-.2-.8-.6-1.2-.9-.4-.4-.8-.8-1.1-1.3,1.7.9,2.6,1.8,3.8,1-.6,0-1.3,0-2.1-.3-.7-.2-1.5-.5-2.2-.9-.4-.2-.7-.4-1.1-.6-.3-.2-.7-.5-1-.8-.7-.5-1.3-1.1-1.8-1.7-.5-.5-.9-1.1-1.3-1.7-.3-.5-.6-1-.7-1.4-.2-.8,0-1.3.8-1.2.4.5.9.9,1.3,1.3-.3-.3-.5-.6-.8-.9-.3-.3-.5-.6-.8-1-.3-.3-.6-.7-.8-1-.3-.4-.5-.7-.8-1.1-1.1-1.5-2.1-3.2-3.1-5.1-2-3.8-3.7-8.5-5.2-13.1-.7-2.4-1.4-4.7-2.1-6.8-.7-2.2-1.2-4.2-1.9-5.9-1.4-3.5-2.6-5.9-4.1-6.4.8-.2,7.3,1.6,8.6,2.3-7.5-8.5-14.2-18.2-20-29,2.5,1.5,6.9,0,11,0,4.1,0,7.7,1.2,8.7,7.6.5-1.8,1-3.8,1.3-6.3,0-1.3.3-2.6.3-4.2,0-1.6-.1-3.3-.2-5.3-.6,1.2-2.6,2.5-4.5,3.1-1.9.6-3.7.5-3.7-1.3.8-1.1,1.6-2.1,2.2-2.9.6-.8,1.1-1.5,1.5-2,.8-1.1,1.3-2,1.8-2.9.4-.9,1-1.9,1.8-3.3.4-.7.9-1.5,1.5-2.5.6-1,1.3-2,2.3-3.3-1,1.7-3.2,1.1-4.9-.7-1.7-1.8-3-4.9-2.1-7.8.9,1.2,7.7,1.6,8,4-.7-2.7-1.1-5.5-1.7-8.3-.5-2.8-.9-5.6-1.3-8.5,0,2.1,1.6,2.8,3.5,2.6,1.9-.1,4.2-1,5.8-2.1-1,.5.2-2.5,1.7-6.1.8-1.8,1.8-3.7,2.5-5.4.8-1.7,1.5-3.2,1.7-4.2l-2.2,2.4c-.7.8-1.4,1.7-2.1,2.5.5-.9.9-1.9,1.3-2.7.4-.9.7-1.7,1-2.4.5-1.6.8-3.1.9-4.5.4-2.8.1-5.3-.1-7.9-.2-2.6-.4-5.1,0-8.1.2-1.5.7-3,1.3-4.6.7-1.6,1.6-3.4,2.9-5.1,0,1.3,1.4,3.8,3.5,5.1,1,.6,2.2,1,3.5.8,1.3-.2,2.7-1,4.1-2.6-.6-2.8-1.9-9.1-1.9-16.8,0-3.8.4-8,1.5-12.1.5-2,1.1-4.1,2-6,.9-1.9,1.9-3.8,3-5.6,1.3-.2,2.6-.4,3.9-.6,1.2-1.8,2.4-3.6,3.7-5.3l3.9-5.2c-.5,2.5-1.4,5.8-2.4,9.6-1,3.8-2.1,8.1-3.1,12.4-1.1,4.3-1.9,8.7-2.8,12.7-.4,2-.8,3.9-1.1,5.7-.4,1.7-.7,3.4-1,4.9,1.3-1,2.2-1.4,2.8-1.7s1.1-.3,1.5-.5.9-.5,1.6-1.2c.7-.7,1.6-1.9,3.1-3.6,1.9-.5,1.7,1,.8,2.8-.8,1.9-2.3,4.2-3.1,5.3,4.8-5.2,9.9-10.1,15.2-14.7-1-.7-1-1.9-.4-3.5.3-.8.7-1.6,1.2-2.5.5-.9,1.1-1.8,1.7-2.7,1.2-1.8,2.4-3.5,3.2-5,.8-1.4,1.1-2.6.3-3.2-5.1,6.3-9.8,12.9-13.9,19.6-1-.6-1.6-2.1-1.6-4.2,0-1,.1-2.2.4-3.5.2-1.3.6-2.7,1.2-4.1,2.2-5.8,6.9-12.6,13.6-17.3,2.2-.5,2.9,1.7,3.1,4,.3,2.4.3,5,.9,5.5.1-.6.8-1.7,1.8-2.9s2.3-2.5,3.6-3.7c1.3-1.3,2.8-2.3,3.9-3.1,1.2-.8,2.1-1.3,2.6-1.2-1.4,1.9-2.7,3.8-4,5.7,4-1.6,6-4.9,8.6-7.8,1.3-1.5,2.6-3,4.5-4,.9-.5,1.9-1,3-1.4.6-.2,1.1-.4,1.8-.5.6-.1,1.3-.2,2-.2.8-.3,2-.4,3.3-.4,1.3,0,2.6,0,3.9.1,2.5.1,4.5.1,4.2-1.3-7.2-2.8-15.6-17.2-13.2-22.6.4,0,1.9-.3,4.1-.7,2.2-.3,5-.6,7.9-.9,1.4-.1,3-.2,4.4-.3.7,0,1.5,0,2.2,0,.8,0,1.5,0,2.2,0,2.9.1,5.1.5,6.2,1,1.7.8,1.8,2,1.3,3.3-.5,1.3-1.6,2.7-2.4,4.1-.9,1.4-1.6,2.8-1.8,4-.2,1.2.1,2.2,1,2.9,0-.6.4-1.5,1-2.2.6-.8,1.4-1.4,1.9-1.8,1.3.4,1,1.5,1,2.3,0,.8.4,1.3,2.9,1,.5-1.2,1.5-1.8,2.6-1.9.5,0,1.1,0,1.6.1.5.1.9.3,1.3.5.7.3,1.1.7,1,.4,0-.1-.2-.5-.6-.9-.2-.2-.4-.5-.7-.9-.3-.3-.7-.7-1.1-1.1,1.6,0,2.8.2,3.7.7.4.2.9.5,1.2.8.3.3.7.6.9,1,1.1,1.4,2.1,3,3.5,6.1.5-.9,1.5-1.5,2.9-1.6.3,0,.7,0,1.1,0,.4,0,.7.1,1.1.3.8.3,1.6.7,2.4,1.2,1.6,1.1,3,3,3.9,5.2.9,2.2,1.4,4.8,1.4,7.2-.6-.3-1.3,0-2,.6-.7.5-1.4,1.1-1.9,1.5-1.9,8.5-5.5,14.4-8.2,20.4-1.5,2.9-3.1,5.8-4.7,8.8-.8,1.6-1.6,3.1-2.5,4.7-.9,1.6-1.7,3.3-2.6,5.2-1.6.9-6.6,7-6.8,3.2-.4,2.4.1,5.1-2.2,9.5-4.2,3.1-3,.6-1.6-2.1,1.2-2.8,2.4-5.9-1.4-3.9.5.5.6,1.5.4,2.9-.2,1.4-.8,3.1-1.4,5.1-.7,1.9-1.5,4-2.2,6-.8,2-1.7,3.9-2.3,5.7,1.2.1,2.4-.6,3.6-2,.6-.7,1.2-1.5,1.7-2.4s1-2,1.5-3.1c1-2.2,1.9-4.6,2.6-6.8.7-2.3,1.3-4.5,1.7-6.3,1.3.7,2.3,2.1,2.9,4,.6,1.9.9,4.5.6,7.5-.2,2.9-.9,6.4-1.8,10.1-1.1,3.6-2.6,7.6-4.5,11.6-7.1,12.3-6.6,2.7-7.4,5.2-2,2.6-3.7,4.8-5.1,6.9s-2.4,3.9-3.2,5.6c-1.7,3.4-2.6,6.1-3.4,8.8-.4,1.3-.9,2.6-1.4,3.9-.6,1.3-1.3,2.5-2.2,3.8-1.9,2.6-4.5,5.5-9.3,8.6-4.5,1.7-5.8.4-6.5-1.4-.7-1.8-.7-4-2.3-4.3,1.7-2.2,3.5-3.9,5.2-5.4,1.6-1.5,3.3-2.8,4.9-3.9,1.6-1.1,3.2-2.2,4.6-3.3,1.4-1.2,2.8-2.4,4-3.9-2.5,2-4.9,4-7.6,5.8.4-.9.9-1.9,1.6-3,.6-1.1,1.4-2.3,2.2-3.5,1.6-2.3,3.5-4.4,5.3-5.6-1.8.8-4.5,3.2-7.8,6.6-.4.4-.8.9-1.2,1.3-.4.4-.9.9-1.4,1.3-.9.9-1.9,1.9-2.9,2.9-2,2-4,4.2-6.3,6.3-2.2,2.1-4.5,4.4-6.9,6.5-2.4,2.1-4.9,4.2-7.3,6.2-2.4,2-4.9,3.7-7.3,5.4-1.2.8-2.3,1.6-3.5,2.3-1.2.7-2.3,1.3-3.4,1.9-2,3.1-6.1,7.8-2.9,7.3l4.7-4.2c3.2-.5,1.5,2.1-.2,4.4-1.7,2.3-3.3,4.3.4,2.5-.7.9-1.4,1.7-2.1,2.6-.8.9-1.5,1.7-2.3,2.6-1.6,1.8-3.3,3.6-5.1,5.4s-4,3.4-6.3,5c-2.3,1.5-4.8,3-7.8,4.2-1.4-.9-2.8-1.7-4.1-2.6.4.5,2.5.1,4.8-.8,2.2-.9,4.6-2.4,5.7-3.9-1.7,2.1-6.3,3.4-11.1,4.8-4.8,1.4-9.4,2.8-11.4,6.4,3.3,0,6.6-.3,9.8-.8-1.9,1.5-4,3.2-6.4,4.8-2.4,1.6-5.1,3.2-8.3,4.5-3.2,1.2-6.8,2.1-10.7,2.3-1.9,0-4,0-5.9-.4-2-.3-3.9-.9-5.8-1.6,1.4,1.5,2.5,2.3,3.3,2.7.8.4,1.4.5,2.2.6.7.1,1.6.2,3,.7.7.3,1.5.5,2.6.9.5.2,1.1.4,1.7.7.6.2,1.3.5,2.1.8-2.6-1.5-1.2-2.2,1.9-2.8,3.1-.5,7.7-1.3,11.7-2.5,4-1.2,7.5-2.6,9.1-3.8,1.6-1.2,1.3-1.9-2.1-2.2,5.3.8,9.2-.5,12.9-2,1.9-.8,3.7-1.6,5.8-2.4,2.1-.7,4.5-1.4,7.5-1.8-.5-.5-1.7-.6-1.7-1.1,0-.2.3-.6,1.1-1.2s2.1-1.4,4.2-2.6c.1-.6.7-1.6,1-2.2.3-.1.3-.2.6-.3-.2,0-.3,0-.5.1.2-.4.2-.5-.2,0-2.2.7-4.1,1.1-5.1.9,1-2.7,4.6-6,8.2-9.3,3.5-3.4,7.2-6.6,8.6-8.8,4.6-2.9-.8,2.7,2.5,2l4.1-6.6c.6.5,1.9.4,3.2.2,1.4-.2,2.8-.7,3.9-1,2.2-.5,3.1.2-1.3,5.1,3-2.5,6-5.1,8.9-7.7,6.3-3.4,13.7-9.7,16.7-15,1.1-.9,2.1-2.1,2.9-3.4.8-1.3,1.5-2.6,1.9-3.7,1-2.1,1.2-3.1.6-.4,1.8-2.6,3.6-5.1,5.2-7.7l4.9-7.8.7.3c1.5-1.7,2.7-3.7,4-5.6,1.3-1.9,2.5-3.9,3.7-5.9,1.2-2,2.3-4.1,3.4-6.2,1.1-2.1,2.3-4.2,3.4-6.3,1.1-2.1,2.2-4.3,3.5-6.4.6-1.1,1.2-2.1,1.9-3.2.6-1.1,1.2-2.1,1.9-3.2,1.3-2.1,2.7-4.2,4.3-6.3,1.6-2.1,3.1-4.2,4.9-6.2,1-2.9,2-5.9,3.2-9.4.6-1.7,1.3-3.5,2.2-5.5.4-1,.9-2,1.4-3,.5-1.1,1-2.2,1.5-3.3l3.2-.9c.2-1,.6-2,1-3.2.2-.6.4-1.1.7-1.7.1-.3.2-.6.4-.9.1-.3.3-.7.4-1,1.1-2.8,2.3-5.9,3.3-9,1.3-4.3,1.9-8.4,2.2-11.8,0-1.7,0-3.2-.1-4.4-.2-1.2-.5-2.2-.9-2.8,1.6-3.6,2.1-9.7,0-16.3-.3-.8-.5-1.7-.9-2.5-.4-.8-.8-1.6-1.2-2.5-.4-.9-.9-1.6-1.4-2.5-.5-.8-1-1.7-1.6-2.4-.6-.8-1.2-1.6-1.9-2.3-.6-.8-1.4-1.5-2.1-2.2-.7-.7-1.4-1.4-2.3-2.1-.8-.6-1.6-1.3-2.5-1.9-3.4-2.5-7.3-4.3-11.3-5.5-4-1.2-8.2-1.9-12.2-2-2,0-4,0-6,0-1.9,0-3.8.3-5.6.5-1.8.3-3.5.5-5.2.8-1.7.3-3.2.6-4.7.9,0,1.2,0,2.5,0,3.7l-1.1.3-1,.3-2,.6c-1.3.4-2.6.9-3.7,1.4-2.3,1-4.6,2-6.9,3.1-2.3,1.2-4.6,2.5-7.1,3.9-2.4,1.4-4.8,3-7.4,4.7l2.1,2.5c-1,.8-2.1,1.7-3.4,2.5s-2.6,1.6-4,2.3c-1.4.7-2.9,1.5-4.5,2.3-1.6.8-3.2,1.5-4.9,2.3-3.3,1.7-6.9,3.4-10.2,5.5-1.7,1.1-3.5,2.1-5.1,3.3-1.7,1.2-3.3,2.4-4.8,3.8.1-1.6,3.6-4,6.3-5.2-4.9,1.6-9.3,4.4-13.1,7.8-.9.9-1.9,1.7-2.8,2.7-.9.9-1.7,1.9-2.6,2.9s-1.6,2-2.4,3c-.8,1-1.5,2.1-2.3,3.1-6,8.3-10.9,16.8-18.1,22.4-.9,2.1-1.8,3.8-2.8,5.1-1,1.4-2.2,2.5-3.4,3.6.2-.3.4-.7.5-1-.3.4-.7.9-1,1.5-1.5,1.3-3.1,2.7-4.7,4.3,1.7-1.2,3.1-2.3,4.2-3.4-.9,1.4-1.9,3.3-3,5.4-1.1,2.1-2.1,4.5-3,6.8-1.3,0-2.7.1-4,.2-.2.4-.3.7-.5,1.1-3.5,3.9-.5,4.3,3,3.2-.7,2.5-1.2,4.8-1.3,6.8-3.3.6-4.4,3.7-5.4,7.1-1,3.4-2.2,6.8-5.8,8.3.3,1.1,0,3.1-.5,5.6-.5,2.5-1.1,5.6-1.7,8.7-.5,3.1-.8,6.2-.7,8.8.2,2.6.8,4.6,2.1,5.6-.8,0-1.5,1.3-.9-1.3-.5,1.3-1,2.6-1.5,3.9-.5,1.3-.8,2.6-1.1,3.9-.6,2.6-.9,5.2-.4,7.8-1.5.5-3.1,1.1-4.6,1.6l.9,3.2,1.1,3.2c.7,2.1,1.4,4.2,2.2,6.2-3.1,6.9-4.9,10.1-7.6,2.5.5,2.3.8,4.2,1.2,5.9.4,1.7.6,3.1.8,4.3.2,1.2.4,2.2.5,3.2.2.9.3,1.8.4,2.6.3,1.6.5,3.2,1.1,5.2.6,2,1.5,4.6,3,8.2l-2.8-.5c0,1.3.5,2.9,1,4.4.5,1.5,1.1,3.2,1.6,4.7,1.1,3.1,1.9,5.9,1.1,7.7-.3,1.6-.4,3.8-.2,6.5.3,2.6.9,5.8,2,9.3,1.1,3.5,2.7,7.4,5.1,11.3,1.2,2,2.6,4,4.1,5.9.8,1,1.6,1.9,2.5,2.8.8.9,1.8,1.8,2.7,2.7,3.8,3.5,8.3,6.6,13.1,9,4.8,2.4,9.9,4,14.9,5.2,10,2.2,19.6,2.5,27.9,2.6-1.8-1.8-1.8-2.6-.7-2.9,1.1-.3,3.2,0,5.7.1,4.8.4,10.6.3,10.4-2.9,2.2,1.4,6.9,1.3,2.3,4.3,7.7-3,13.6-4.3,18.8-6,2.6-.8,5-1.7,7.2-3,1.1-.6,2.2-1.4,3.2-2.3,1-.9,1.9-1.9,2.8-3,2.4,1-1.8,3.9.1,4.3.9-.9,3.7-3.5,5.6-3.1,1.9.4-1.3,2.4-3.2,4.2,14-6.8,12.8-13,11.4-18.5,4.1-.5,6.9-1.4,9.2-2.8,2.3-1.4,3.9-3.4,5.5-6.4,3.2.3,8.2-.1,0,5,1.2-.6,3.8-1.7,6.8-3.1,3-1.5,6.6-3.2,10-5.2,1.7-1,3.3-1.9,4.8-2.9,1.5-1,2.8-2,3.9-2.9,2.2-1.8,3.4-3.4,2.9-4.4,2,0,6.6-3.9,7.4-5.1,2.6-1.7,4.5-3,6.2-4,1.7-1.1,3-2.1,4.4-3,2.7-1.9,5.3-3.9,9.9-7.8-1,.5-2.1,1-3.1,1.5.2-3.5,1.9-5.4,4.5-7.1,2.6-1.7,5.9-3.5,9.3-7l.2.6c9.5-6.2,10.7-8.4,12.1-10.4.7-1,1.4-1.9,3-3.5,1.6-1.6,4.3-3.7,8.6-7.3l-3.4-1.2c-1.1-1.5-.6-3.1.7-4.7,1.4-1.6,3.5-3.4,6-5.4.6-.5,1.3-1,1.9-1.5.6-.5,1.3-1.1,1.9-1.7,1.3-1.1,2.6-2.4,3.8-3.6,2.4-2.6,4.4-5.5,5.5-8.6-1.3,1-2.7,2-4.1,3,.9-3.6,5.3-6.5,10.2-9.5,2.4-1.6,4.9-3.1,7.1-4.7,1.1-.8,2.1-1.6,2.9-2.4.8-.8,1.5-1.6,2-2.5,1.2-1.2-.1,2.8-.6,5,2.9-4,4.2-6.4,4.6-7.8.3-1.4-.3-1.8-1.1-2.1-1.6-.7-4.1-1-2-7.9,1.6-.8,2.7.5,3.9.9s1.2.2,1.9-.5c.7-.7,1.4-2,2.3-4.3.4-.5.8-1.4,1-2.5.1-.6.3-1.2.4-1.9,0-.7.2-1.4.2-2.3.2-3.2.5-7.2.4-11.4,0-2.1.1-4.2.1-6.4,0-2.2,0-4.3.2-6.4.2-2.1.3-4.1.6-6.1.3-1.9.8-3.8,1.5-5.4-1,1.5-2,2.9-2.9,3.1-.4.1-.8-.1-1.2-.8-.4-.6-.6-1.7-.9-3.4-.1-2.6.3-5.5.8-8.8.2-1.6.4-3.3.6-5,.2-1.7.5-3.5.5-5.2,0-1.8.1-3.5,0-5.2,0-1.7-.3-3.4-.6-4.9-.6-3.1-1.9-5.8-3.8-7.8.2-1.4.5-2,1-2.2-.9-1.8-2-4.2-3.1-6.9-.6-1.3-1.3-2.6-1.9-4-.7-1.4-1.3-2.8-2.1-4.1-2.9-5.3-6.3-9.8-8.7-11.1.9-1.4,1.1-3.1.8-5.1-.1-.9-.4-2-.8-3-.4-1-.9-2.1-1.5-3.1s-1.2-2.2-2-3.3c-.8-1.1-1.6-2.2-2.5-3.2-1.7-2.2-3.7-4.2-5.7-6.2-7.8-8-16-13.8-12.2-17.5-5.7-5.6-11.7-10.8-18.1-15.5l1.2-.5c-1.4-1.3-2.8-2.3-4.1-3.3-1.3-.9-2.5-1.8-3.7-2.5-2.4-1.4-4.4-2.4-6.3-3.1-3.8-1.3-6.6-1.7-9.6-1.9-2.6-2.3,0-2,.6-2.3-1.1-.8-2.2-1.6-3.2-2.3-1-.7-2-1.3-2.9-1.9-1.9-1.2-3.5-2.3-5.1-3.1-3.2-1.7-5.8-3-8.5-3.8-1.3-.4-2.7-.8-4.1-1.2-1.4-.3-2.9-.5-4.5-.7-1.6-.2-3.3-.4-5.2-.5s-4-.3-6.4-.3l-.8-3.9c-1.4.1-3.8-.8-7.1-2-3.3-1.3-7.6-2.9-12.4-4.4-4.9-1.5-10.4-2.8-16.1-3.4-1.4-.2-2.9-.3-4.3-.4-1.4,0-2.9,0-4.3,0-1.4,0-2.8,0-4.2.2-1.4.2-2.8.4-4.1.6.2-.4.7-1.1,2.4-1.5-1.6.2-3.1.4-4.7.5-1.6,0-3.2.2-4.9.3-1.6,0-3.3.1-5,.1-1.7,0-3.4,0-5.1.1-1.7,0-3.4,0-5.2,0-1.7,0-3.4,0-5.2.2-.9,0-1.7,0-2.6,0-.9,0-1.7.1-2.5.2-1.7.1-3.3.3-5,.4-3.3.3-6.4.9-9.3,1.4-2.9.7-5.6,1.5-7.9,2.5-2.3,1-4.2,2.3-5.8,3.7-.8.7-1.4,1.5-1.9,2.3-.5.8-.9,1.7-1.1,2.7l-3.4,2.3c-1.1.8-2.3,1.5-3.4,2.4l-3.3,2.5c-1.1.8-2.2,1.6-3.2,2.5,1.1-.6,2.2-1,3.1-1.4.9-.3,1.7-.6,2.3-.8,1.3-.4,2.1-.5,2.6-.4,1,.2.6,1.2,0,2.3-1.4,2.4-3.8,5.4.2,4.6-3.3,1.9-8,3.7-11.1,4.1-1.5.3-2.6.3-2.8-.2-.1-.2,0-.6.4-1.1.4-.5,1-1.1,2.1-1.8l1.7-.2c0-1.9-1.5-2.2-3.8-1.5-2.2.7-5.1,2.4-8.1,4.2-1.4,1-2.8,2-4.2,3-1.4.9-2.7,1.8-3.8,2.6-2.2,1.5-3.9,2.3-4.6,1.4-2,1.7-3.8,3.7-5.6,5.6-.9,1-1.9,1.8-2.7,2.9-.9,1-1.8,2-2.6,3.1-3.5,4.1-6.5,8.5-9.3,13.1-5.5,9.1-9.8,18.8-12.6,29-2.8,10.2-4.1,20.8-3.8,31.4.4,10.6,2.6,21.3,7,31.3.9-2.2,1.9-4.4,2.9-6.4,1.6,4.4,3.6,8.8,6,12.9.5,1.9.3,3.6-.6,3.6-.5,0-1.2-.4-2.1-1.4-.9-1-2-2.6-3.2-5,0,3.2,2.8,6.9,6,9.4,1.5,1.3,3.2,2.2,4.4,2.8,1.2.6,2.2.9,2.5.8,2.9,4.2,4,5.9,3.8,6.6-.2.7-1.8.2-3.6-.8-1.8-1-3.8-2.4-5.1-3.4-1.3-.9-1.9-1.3-.9,0,1,1.2,2,2.2,3.1,3.3,1,1.1,2.2,2.1,3.3,3.1l-1-1.8c3.3,1.8,5.4,2.4,7.9,3.4,1.3.5,2.5,1.3,4.2,2.3.8.5,1.7,1.1,2.8,1.7.5.4,1,.7,1.6,1.1.6.4,1.2.8,1.8,1.2,1.5,1.2,2.4,2.2,2.9,2.9.5.7.7,1.2.7,1.6,0,.8-.4,1.2.9,2.1,0,.2,0,.4.7.8.6.4,1.7,1,3.5,1.5l4.2,2,4.3,1.7c1.4.6,2.9,1.1,4.3,1.6,1.5.5,2.9,1,4.4,1.4-2-1.9-3.9-4-5.7-5.9,2,.1,4,.5,5.8.9,1.8.3,3.3.6,4.3.7,2.2.2,2.3-.3-.9-3.5,1.2,1.2,3,2.4,5.4,3.4,1.2.5,2.5,1.1,4,1.4,1.5.4,3,.8,4.7,1.2,6.6,1.3,14.6,1.7,22.4,1.1,7.8-.6,15.2-2.2,21.1-3.6,1.5-.4,2.8-.7,4.1-1,1.2-.3,2.4-.6,3.4-.9,2.1-.5,3.6-.8,4.5-.9,9-6.1,18.2-9.9,29.4-15.3-1.6.4-3.3-.3-3.4-1.6,0-1.3,1.4-3.1,6.1-5.4.5,5,5.3,3.6,11.2,1,2.9-1.3,6.2-3,9.3-4.2,3.2-1.3,6.2-2.1,9-1.9-4.5.3,1.9-4.1,7.4-8.8,1.4-1.1,2.7-2.4,3.9-3.5,1.1-1.1,2-2.1,2.5-3,1-1.7.4-2.5-3-1.7,3.8-2.6,4.4-2.1,5-1.2.6.9,1.1,2.1,4.5.5,3.6-4.6,7.7-9.1,11.6-14.4,4-5.2,7.9-11.2,10.8-18.4,2.8-7.1,4.4-15.4,3.7-23.7,0-1.1-.2-2.1-.3-3.1-.2-1-.3-2.1-.5-3.1-.5-2-.9-4-1.5-5.9-1.2-3.9-2.9-7.5-4.9-10.9-.6,0-.8,1.5-1.4,2.2-.6.8-1.5.8-3.9-1.5-.7-5.5-2.1-10.9-3.8-16.2-1.1-1-2.1-1.5-3.2-1.8-1.1-.3-2.2-.4-3.2-.7-1.1-.3-2.1-.8-3.1-1.8-1-1.1-2.1-2.6-3.2-5.1.3,1.8.7,4.3-2.1,2.1-2.2-2.5-4.6-5.1-7.2-7.4-2.6-2.3-5.3-4.5-8.2-6.5-5.7-4-12-7.3-18.8-9.9-6.8-2.5-14-4.3-21.6-4.8-7.6-.5-15.8.4-23.5,3.3-3.9,1.5-7.6,3.5-10.9,5.9-1.7,1.2-3.3,2.5-4.8,4-1.5,1.4-2.9,2.9-4.2,4.5-5.2,6.2-8.6,13.1-11.5,19.5-.7,1.6-1.4,3.2-2,4.8l-1.9,4.7c-.7,1.6-1.2,3.2-1.9,4.7-.7,1.6-1.2,3.2-1.9,4.8-2.5,6.4-4.9,12.8-7.3,19.4,1.8-3.5,2.5-3.9,2.7-2.9.2,1.1-.2,3.6-.5,6.4,1-3.5,3,.5,4.8,0-2.5,7.1-4.7,14.4-6.4,21.9,1.1,1.1,1.7,3.1,2,5.6.1,1.2.3,2.6.4,4,0,1.4.1,2.9.2,4.3.2,2.9.4,5.7.9,7.9.5,2.2,1.2,3.8,2.4,4.3-.6-2.3-1-4.6-1.5-6.9,1.5,2.2,2.9,2.4,4.3,1.6,1.4-.9,2.7-2.8,4.1-4.9.7-1.1,1.4-2.2,2.2-3.2.8-1.1,1.5-2.1,2.3-2.9,1.6-1.7,3.2-2.8,4.9-2.5-3-4.7-.7-11.1,1.8-17.9,1.2-3.4,2.5-6.9,3.2-10.5.7-3.7.7-7.5-.6-11.7,2.1-3,1.5,3.3,3.4,1.8-1-2.2-1.4-4.5-1-7.2.3-2.8,1.4-6,3.3-9.9l.4,1.2c1.7-5.9,3.5-10.7,5.6-14.4,2.1-3.7,4.4-6.5,6.9-8.4.6-.5,1.3-.9,2-1.4.7-.4,1.4-.8,2.1-1.1.7-.4,1.5-.6,2.3-.9.8-.2,1.6-.5,2.5-.7,3.4-.7,7.4-.9,12.7,0-.4-1.1-.9-2.2-1.4-3.4.6,0,1.1.2,1.6.3.5.1.9.2,1.3.4.8.2,1.4.6,2,.8,1.1.6,1.8,1.2,2.9,1.8,1.7-.9,1.7-1.6.8-2.1-.9-.6-2.7-.9-4.5-1.3-.9-.1-1.8-.3-2.6-.4-.8-.1-1.5-.3-2-.5-1-.4-1.3-1.2,0-2.5,1.7,1.7,4.6,2.8,8.3,4,3.6,1.2,8,2.6,12.3,4.5,4.2,1.9,8.3,4.2,11.1,6.7,2.9,2.5,4.5,5,4.3,7.2,3.1,2.5,3.3,1.4,3.4.3.1-1.1.3-2.3,3.4.5l.3,3.1c1.1-.2,2.3-.3,3.4-.4,1,1.1,1.6,2.1,2.1,3.1.5,1,.8,1.9.9,2.8.3,1.7,0,2.9-.7,3.6-.7-1.1-2.8-2.4-3.9-3.3,1.6,3.3,4.7,6.7,7.3,9.7,2.6,3,4.6,5.6,4.6,6.6l-.4-1.6-.6-1.7c-.3-1.1-.9-2.2-1.3-3.3,1.6,2,3,4.2,4.2,6.4,1.1,2.2,2,4.5,2.6,6.8.5,2.3.8,4.6.7,6.9,0,.6-.1,1.1-.2,1.7,0,.6,0,1.1-.2,1.7-.2,1.1-.4,2.3-.8,3.4-.6,2.3-1.7,4.6-2.8,6.9l-1,1.7c-.3.6-.6,1.2-1,1.7-.8,1.1-1.4,2.3-2.3,3.4-3.3,4.6-7.2,9.1-11,13.5h2.3c-2.9,3.5-5.4,5.6-7.5,7.1-2.1,1.5-3.8,2.3-5.6,3.2-.9.4-1.8.8-2.8,1.3-1,.5-2.1,1-3.4,1.7-2.5,1.4-5.6,3.3-9.9,6.2l.4-.7c-2.8,3.4-7.2,6.9-12.2,9.3,1.9-2-.7-1.7-3.1-1.5-2.4.2-4.6.2-2.1-2.2-8.1,5.8-10.2,7.1-11.3,8.7-.6.7-.9,1.5-1.7,2.7-.4.6-.9,1.3-1.7,2.2-.8.9-1.8,1.9-3.1,3.2-1.2-.4-2.5-.9-3.7-1.4-1.7,1.8-2.6,3.1-4.3,4.2-1.7,1.2-4.1,2.4-9,3.9,1.9-1,2.4-1.7,2.2-2.2-.2-.5-1.1-.8-1.9-1.2-1.7-.8-3.2-1.6.9-4-5.3-.2-9.6.2-13.3.8-.9.1-1.8.3-2.7.5-.9.1-1.7.3-2.6.5-1.7.4-3.2.7-4.7,1-.8.1-1.5.3-2.2.4-.7.1-1.4.2-2.1.2-1.4.1-2.7.2-3.9,0-1.2-.2-2.4-.5-3.5-1.1-1.1-.6-2.1-1.5-3.1-2.7-1.2.8-1.9,1.4-2.2,1.9-.3.6,0,1.1.4,1.5,1,.8,3.2,1.5,5.7,1.9,1.2.2,2.5.3,3.6.4,1.2,0,2.2,0,3,.1,1.6,0,2.3.2,1,.5,2.2,1.2.3,2.5-3.2,3.4-1.7.4-3.8.6-5.9.6-2.1,0-4.1-.2-5.8-.7-1.7-.4-3.1-1.2-4.6-2.4-1.4-1.3-2.8-2.7-4.4-4.4-1.6-1.7-3.4-3.3-5.6-5.1-.6-.4-1.1-.8-1.8-1.3-.6-.4-1.2-.9-1.9-1.3-.7-.4-1.4-.8-2.1-1.3-.7-.5-1.5-.9-2.3-1.3,1.3.7,1.6.3,2.9,1-1-1.1-2.2-1.8-3.4-2.3-1.2-.6-2.5-1.1-3.9-1.7-1.3-.6-2.6-1.3-3.8-2.2-1.2-1-2.2-2.3-2.9-3.8-1.4.2-2.5-.2-3.4-.7-.5-.3-.9-.6-1.2-.9-.3-.3-.7-.7-1-1-1.3-1.3-2.4-2.4-4.9-1.1.8.9,1.6,1.7,2.5,2.5.9.8,1.7,1.6,2.6,2.4.9.7,1.8,1.5,2.8,2.2l2.9,2c-1.7-1-3.7-1.7-5.7-2.7-2-.9-4.1-1.9-6.2-3.3-2-1.4-4.1-3.2-5.7-5.6-1.7-2.3-3-5.3-3.7-8.9.7.3,1.9,1.2,3.1,2.3.6.6,1.2,1.1,1.8,1.7.6.6,1.2,1.1,1.7,1.6-.3-2.1-1.4-3.6-2.4-5.2-.3-.4-.5-.8-.8-1.2-.2-.4-.4-.9-.6-1.3-.4-.9-.6-1.9-.5-3,.7-.1,1.3,0,1.9.4.6.4,1.2.9,1.7,1.6.5.7,1.1,1.6,1.6,2.5.5,1,1.2,2,1.8,3,2.4,4.3,6.1,8.9,10.4,10.1-.1-.5-.4-1-.8-1.6-.4-.5-.9-1-1.4-1.5-.6-.5-1.1-1-1.7-1.5-.6-.5-1.2-1-1.7-1.4-1-1-1.8-1.8-1.8-2.4,0-.6.6-.9,2.4-.9-4.7-.2-6.3-3.7-7.4-7.6-.1-.5-.3-1-.4-1.5-.1-.5-.2-1-.4-1.6-.3-1-.6-2.1-1-3.2-.8-2.1-1.8-4.3-3.7-6.6h3.4c-.4-.6-1.1-1.8-1.7-3.1-.3-.6-.6-1.4-.8-2.1-.2-.7-.4-1.5-.4-2.2.7.9,1.6,1.7,2.4,2.5s1.6,1.6,2.5,2.3c-2.4-3.6-1.8-7.7-.7-11.4,1.1-3.8,2.7-7.2,2.3-11.1-.2,1-.3,1.8-.5,2.6-.1.8-.2,1.4-.4,2-.3,1.2-.5,2-.7,2.6-.5,1.1-1.1,1.3-1.7,1.1s-1.3-.6-2.1-.7c-.7,0-1.5.4-2.2,2.2-.9-5.3-.3-8.8.7-11.2,1-2.4,2.5-3.7,4.2-5,.8-.6,1.6-1.3,2.5-2,.8-.8,1.7-1.6,2.6-2.7,1.7-2.2,3.4-5.3,5.4-10.3-.5,1.4-2.1,3.7-3.5,5.1-1.4,1.4-2.6,1.9-2.5-.6.6-.9,1.2-1.9,1.9-2.9.7-.9,1.5-1.9,2.3-2.8,1.6-1.7,3.3-3.1,4.6-3.7,1.7-3.1,2.5-4.5,2.5-5.2s-.7-.5-1.5-.2c-1.8.7-4.3,2.3-3.3-.9,3.1-.9,3.8-2.5,4.3-4.8.1-.6.2-1.2.3-1.8s.2-1.3.4-2c.4-1.4,1-2.8,2-4.3l2.4,2.4c.4-.3.8-.7,1.2-1,.4-.3.8-.6,1.1-.8.7-.5,1.3-1.1,1.8-1.5,1-.9,1.6-1.8,2.1-2.4.9-1.3.8-2.3.7-3.3s-.3-1.9.5-3.1c.8-1.3,2.7-2.6,6.6-4.4l-1.6,3.9-.8,1.9c-.3.6-.5,1.3-.7,1.9.5-.5,1-1,1.5-1.4l1.6-1.4,1.6-1.4c.5-.5,1.1-1,1.6-1.4.2,1.4.3,2.8.6,4.2,3.1-3.5,5.4-5.5,8.1-6.8.7-.3,1.3-.7,2.1-1,.7-.3,1.4-.6,2.3-.8,1.6-.5,3.4-1,5.6-1.6-1.4-.7-1.7-2.3-.7-4,.5-.8,1.4-1.8,2.7-2.6.6-.4,1.3-.9,2.2-1.3.8-.4,1.7-.7,2.8-1,3.1.1,2.5,1.2,2.6,1.6,0,.2.3.3,1.2.2.4,0,1.1-.3,1.9-.5.9-.2,2-.5,3.4-.9-1.1,1.3-2.1,2.8-3.6,3.7-1.5,1-3.3,1.4-6.2.7-.2,1.2-1.7,2.9-1.9,4.1.8,0,1.6,0,2.4-.1.8,0,1.7-.2,2.5-.4,1.7-.3,3.4-.9,5-1.4,3.3-.9,6.4-2.2,8.4-2.5-.8,0-1.7.2-2.5.2-.8,0-1.5,0-2.1,0,.6-.3,1.3-.7,1.9-1.1l1.9-.9,3.9-1.9c1.3-.6,2.7-1.2,4-1.8,1.4-.6,2.7-1.2,4.1-1.7,2.8,1,.8,2.2-1.2,3.4,1.7-.4,3.1-.9,4.7-1.6.8-.3,1.7-.6,2.6-.9,1-.3,2.1-.4,3.4-.6-1.2,2.8-.8,5.5-7.6,7.4,2.6-.7,5.1-1.5,7.7-2.1l3.9-.9,4-.8c.5.6,2.6,1.4,4.2,2.3,1.6.9,2.8,1.7,1.8,2.2,1.1.2,2.2.4,3.4.4,1.2,0,2.4,0,3.7,0,2.6-.2,5.4-.4,8.3-.7,5.8-.3,12.1-.3,17.5,2.3.4-.2.9-.3,1.6-.4.7,0,1.7,0,2.9.2,5.2,1.9,9.8,4.7,14.7,7.1,4.9,2.6,10,4.8,16.7,6.3,1.4,2.7,2.7,5.3,3.9,8,4.5,2.2,3.3-.4,2.8-2.7-.3-1.1-.4-2.2.6-2.5.5-.1,1.2,0,2.3.2,1.1.3,2.6.9,4.6,2,2.8,1.4,4.3,2.5,4.9,3.5.7.9.6,1.6.2,2.2-.7,1.2-2.5,2.2-1.2,4,1.6.4,3.4.9,5.4,1.6,1,.3,2.1.7,3.1,1.2,1,.5,2.1,1,3.2,1.6,2.2,1.2,4.2,2.8,6.1,4.6,1,.9,1.8,2,2.5,3.2.8,1.2,1.5,2.4,2,3.8-.8-.5-1.5-1.1-2.1-1.6-.6-.6-1.2-1.1-1.7-1.7-.5-.6-1.1-1.2-1.6-1.8-.6-.6-1.2-1.1-1.9-1.6h0ZM304.7,225.9c0-.6,0-1.4-.1-2.3-.1-.9-.2-1.8-.2-2.7,0-1.8.2-3.4,1.4-4.1,1.6,1.7,1.9,3,1.5,4.4-.4,1.4-1.4,2.8-2.5,4.7h0ZM170.8,371c1.3-1.9,4.4-2.7,8.1-3.1-2.2,1.4-4.8,2.5-8.1,3.1ZM162.9,297c0-.1,0-.2.1-.3,5.6-3.6,3.6-2.4-.1.3ZM152.1,305.1c-.7,1.2-.3,1.5.4,1.5.1-1.3,2.4-3.3,5.1-5.4-1.3,0-3,.7-5.5,3.9h0ZM68.1,232.4l-2.1-2.1c6.1,2.1,4.2,2.1,2.1,2.1Z"/>
      <path class="st0" d="M190.1,356.2c.9.1,1.4.6,1.9,1.1.7-1,.4-1.6-1.9-1.1Z"/>
      <path class="st0" d="M199.6,76.3c-.1,0-.2,0-.4-.1-.3.1-.4.3-.5.5l.9-.4Z"/>
      <path class="st0" d="M193.2,155.3c-1.3-.3-2.1-.8-2.7-1.3,0,.9.8,1.3,2.7,1.3Z"/>
      <path class="st0" d="M94.1,350.6c3.3-1.6,6.3-3.3,9-5.1-4.2,2.3-6.2,2.4-8.8,2.8.5.6,2.9.9-.3,2.2h0Z"/>
      <path class="st0" d="M35.8,297.9c-.7-1-.8-2.4-1.5-3.4l-1.4.7c.7,2.5,1.7,4.4,2.4,5.1.7.7,1,.1.5-2.5Z"/>
      <path class="st0" d="M81.5,342.8c-.7-1.3-2.4-1.4-4.9-1.1-2.5.2-5.8.8-9.5.5.4,0,.8,0,1.3.1-1.3,1.8,0,2.7,2.9,2.8,2.8,0,6.8-.9,10.2-2.4h0Z"/>
      <path class="st0" d="M65.4,342.1c-2.2-.2-4.5-.8-6.5-1.7-1.4,1.2,2.5,1.4,6.5,1.7Z"/>
      <path class="st0" d="M140.3,317.5c-2.7,1.2.8,4-1.2,4.1-.1,1.2.6.9,1.7-.1,1-1,2.2-2.8,3-4.3,1.7-3.1,2-5.3-3.5.4h0Z"/>
      <path class="st0" d="M74.9,334.4c.8,1.1,1.6,2.2,2.6,3.2,1-1.1,1.9-2.3,2.8-3.4-1.8.2-3.6.3-5.3.2Z"/>
      <path class="st0" d="M116.6,317.3c-2.7,1.4-5.4,3-8.2,4.2.4.4-.4,1.3-1.5,2.3,4.9-2.8,10.4-5.8,9.7-6.5h0Z"/>
      <path class="st0" d="M106.9,323.8c-2.6,1.5-4.9,3-6,4.4,1.4-.8,4.2-2.8,6-4.4Z"/>
      <path class="st0" d="M86.5,330.4c.9,0,1.8-.2,2.7-.4,2-.8,3.9-1.6,5.9-2.6-2.8,1.1-5.7,2.1-8.6,2.9Z"/>
      <path class="st0" d="M186.9,248.5c1.7-2.9,3.2-5.9,4.7-8.9-.4-1.5-2.6.4-4.2,3.7-.3,1.2-.9,2.7-1.2,3.8s-.3,1.7.6,1.4h0Z"/>
      <path class="st0" d="M160.9,266.1c2.3-1.5,3-1.1,4.8-1.5l-3.1-3-1.7,4.5h0Z"/>
      <path class="st0" d="M177.6,243.3c-.1-.4.2-1.4.6-2.6.3-1.2.7-2.5,1-3.5.4-1.9.2-2.3-3.1,2.8.4,1.4-4.4,9.9,1.6,3.3h0Z"/>
      <path class="st0" d="M179.2,147l2.3-.9-2.7-6.6c.1,2.5.2,5,.4,7.5h0Z"/>
      <path class="st0" d="M97.6,239.5c6.9-8.3-2.6-4.5,4.4-11.6,0-3.1-5.8,5.8-5.6,2.9-.9,3.3-2,5.6-2.2,7-.2,1.4.6,1.9,3.4,1.8h0Z"/>
      <path class="st0" d="M96.4,230.7c.3-1,.7-2.2.9-3.4-.7,1.9-.9,2.8-.9,3.4Z"/>
      <path class="st0" d="M109,174.9l-.5,4.2-.4,4.2c.7-1.9,1.2-3.7,1.9-5.5l-1.1-2.9h0Z"/>
      <path class="st0" d="M115.7,190.1c-1.4.8-2.8,1.7-4.2,2.5,1.6,1.4,3.2,2.8,4.8,4.2-.5-1.8-1.4-5.2-.6-6.7Z"/>
      <path class="st0" d="M290.5,240.6l.8.9c1.5-.5,2.1-1.9,3.3-4.7l-4.2,3.9h0Z"/>
      <path class="st0" d="M294.8,157.5l.5,1.4c.9-1.4,1.8-2.7,2.7-4.2-1.1.9-2.1,1.9-3.2,2.8h0Z"/>
      <path class="st0" d="M245.1,105.4c1.2.9,2.6,1.7,4,2.6.7.4,1.4.8,2.1,1.3.7.4,1.3.9,1.8,1.4-.7-.4-1.3-.9-1.8-1.4-.5-.5-1-1-1.4-1.5-.8-1-1.4-2-1.9-2.7-1-1.5-1.6-1.9-2.8.4h0Z"/>
    </g>
  </g>
</svg>