<svg width="805" height="252" viewBox="0 0 805 252" fill="none" xmlns="http://www.w3.org/2000/svg">
<path d="M0 24C0 10.7452 10.7452 0 24 0H228C241.255 0 252 10.7452 252 24V228C252 241.255 241.255 252 228 252H24C10.7452 252 0 241.255 0 228V24Z" fill="#F9F9F9"/>
<path d="M228 250V252H24L24 250H228ZM250 228V24C250 11.8497 240.15 2 228 2H24C11.8497 2 2 11.8497 2 24V228C2 240.15 11.8497 250 24 250L24 252L23.3809 251.992C10.4122 251.664 0 241.048 0 228V24C0 10.7452 10.7452 0 24 0H228C241.255 0 252 10.7452 252 24V228C252 241.255 241.255 252 228 252V250C240.15 250 250 240.15 250 228Z" fill="#A189FA"/>
<path d="M278 24C278 10.7452 288.745 0 302 0H506C519.255 0 530 10.7452 530 24V228C530 241.255 519.255 252 506 252H302C288.745 252 278 241.255 278 228V24Z" fill="#623BF6"/>
<path d="M553 24C553 10.7452 563.745 0 577 0H781C794.255 0 805 10.7452 805 24V228C805 241.255 794.255 252 781 252H577C563.745 252 553 241.255 553 228V24Z" fill="#0A0A0A"/>
<path d="M53.1236 122.791C51.7681 122.791 50.6174 122.583 49.6744 122.165C48.7284 121.747 47.944 121.196 47.3182 120.512V122.254H42.1789V92.3677L47.3153 90V101.213C47.9411 100.512 48.8005 99.9497 49.8964 99.5258C50.9924 99.1018 52.0969 98.8884 53.213 98.8884C55.0905 98.8884 56.7545 99.37 58.2052 100.33C59.6587 101.291 60.795 102.661 61.6227 104.44C62.4504 106.219 62.8628 108.345 62.8628 110.817C62.8628 114.672 61.9861 117.634 60.2384 119.696C58.4878 121.758 56.1172 122.791 53.1236 122.791ZM52.319 117.877C54.1359 117.877 55.4827 117.239 56.3623 115.967C57.239 114.695 57.6803 112.977 57.6803 110.819C57.6803 108.541 57.2304 106.796 56.3277 105.582C55.4279 104.368 54.0897 103.762 52.319 103.762C51.4999 103.762 50.7588 103.881 50.0954 104.12C49.4321 104.359 48.8669 104.653 48.3968 105.002C47.9267 105.351 47.5662 105.697 47.3124 106.041V115.644C47.8488 116.36 48.5381 116.91 49.3773 117.297C50.2195 117.683 51.1971 117.877 52.3161 117.877H52.319Z" fill="#0A0A0A"/>
<path d="M75.3705 122.79C73.7756 122.79 72.3423 122.507 71.0705 121.942C69.7958 121.377 68.7893 120.532 68.0423 119.407C67.2982 118.282 66.9262 116.881 66.9262 115.196C66.9262 113.512 67.3732 112.007 68.2673 110.896C69.1613 109.786 70.3033 108.967 71.6963 108.439C73.0893 107.912 74.537 107.646 76.0425 107.646C77.2047 107.646 78.24 107.747 79.1485 107.949C80.057 108.151 80.9135 108.451 81.7181 108.855V107.514C81.7181 106.501 81.5393 105.694 81.1817 105.091C80.8241 104.488 80.3079 104.056 79.6301 103.796C78.9524 103.537 78.1449 103.404 77.2076 103.404C75.9415 103.404 74.687 103.612 73.444 104.03C72.201 104.448 71.0416 105.013 69.9717 105.728L68.4086 101.529C69.5102 100.828 70.8657 100.214 72.475 99.6864C74.0842 99.1586 75.8117 98.8933 77.6575 98.8933C78.6698 98.8933 79.708 98.9943 80.7751 99.1932C81.8392 99.3951 82.8227 99.7902 83.7225 100.379C84.6223 100.967 85.349 101.829 85.8999 102.968C86.4507 104.108 86.7276 105.607 86.7276 107.47V122.256H81.7239V120.468C81.0981 121.065 80.2761 121.599 79.2552 122.078C78.2343 122.553 76.9423 122.793 75.3791 122.793L75.3705 122.79ZM76.3107 118.279C77.5623 118.279 78.6294 118.049 79.5148 117.587C80.4001 117.126 81.1356 116.598 81.7152 116.001V113.054C81.0894 112.742 80.3569 112.491 79.5148 112.307C78.6726 112.122 77.7844 112.027 76.8442 112.027C75.5349 112.027 74.3784 112.278 73.3834 112.774C72.3856 113.273 71.8866 114.08 71.8866 115.196C71.8866 116.105 72.2731 116.846 73.0489 117.42C73.8218 117.994 74.909 118.279 76.3107 118.279Z" fill="#0A0A0A"/>
<path d="M92.2157 122.253V99.4264H97.3521V104.831L96.683 103.311C96.683 102.642 97.0031 101.967 97.6434 101.289C98.2836 100.612 99.1431 100.044 100.225 99.5792C101.303 99.1178 102.506 98.8871 103.832 98.8871C105.352 98.8871 106.751 99.1841 108.031 99.7811C109.312 100.378 110.339 101.364 111.114 102.74C111.887 104.119 112.277 105.976 112.277 108.315V122.253H107.14V109.388C107.14 107.288 106.676 105.826 105.744 104.998C104.813 104.171 103.7 103.758 102.405 103.758C101.496 103.758 100.66 103.925 99.8929 104.26C99.1258 104.594 98.5115 105.165 98.05 105.97C97.5886 106.775 97.3579 107.885 97.3579 109.298V122.253H92.2157Z" fill="#0A0A0A"/>
<path d="M126.524 122.791C124.453 122.791 122.665 122.321 121.162 121.383C119.657 120.446 118.501 119.082 117.69 117.297C116.88 115.509 116.473 113.352 116.473 110.819C116.473 108.287 116.897 106.222 117.748 104.443C118.596 102.664 119.767 101.294 121.255 100.333C122.743 99.3729 124.456 98.8913 126.391 98.8913C127.672 98.8913 128.799 99.1047 129.774 99.5287C130.749 99.9526 131.513 100.472 132.064 101.08V92.3677L137.2 90V122.254H132.064V120.512C131.646 121.063 130.951 121.582 129.976 122.064C129.001 122.549 127.85 122.791 126.524 122.791ZM127.239 117.877C128.444 117.877 129.428 117.686 130.186 117.305C130.945 116.925 131.571 116.371 132.064 115.641V105.992C131.706 105.501 131.141 105.005 130.365 104.506C129.589 104.007 128.519 103.759 127.15 103.759C125.393 103.759 124.038 104.365 123.083 105.579C122.131 106.793 121.653 108.538 121.653 110.817C121.653 112.215 121.869 113.444 122.302 114.502C122.734 115.561 123.363 116.385 124.188 116.982C125.015 117.579 126.031 117.877 127.236 117.877H127.239Z" fill="#0A0A0A"/>
<path d="M52.4544 153.603C49.2676 153.603 46.7268 152.553 44.8378 150.453C42.9459 148.354 42 145.427 42 141.675C42 139.189 42.4384 137.052 43.318 135.264C44.1976 133.475 45.4262 132.103 47.0037 131.142C48.5812 130.182 50.4299 129.7 52.5438 129.7C54.9116 129.7 56.89 130.202 58.4733 131.209C60.0595 132.215 61.2102 133.781 61.9254 135.91L57.0572 137.562C56.7285 136.682 56.2036 135.964 55.4826 135.408C54.7616 134.851 53.7955 134.571 52.59 134.571C50.8769 134.571 49.556 135.22 48.6245 136.515C47.693 137.81 47.2286 139.532 47.2286 141.675C47.2286 143.817 47.693 145.542 48.6245 146.802C49.556 148.06 50.848 148.688 52.5006 148.688C53.7378 148.688 54.7385 148.397 55.5057 147.817C56.2728 147.238 56.8352 146.41 57.1928 145.337L62.0609 146.857C61.3919 149.06 60.2585 150.736 58.6665 151.884C57.0717 153.032 55.0038 153.603 52.4573 153.603H52.4544Z" fill="#0A0A0A"/>
<path d="M75.3705 153.602C73.7756 153.602 72.3423 153.319 71.0705 152.754C69.7958 152.189 68.7893 151.344 68.0423 150.219C67.2982 149.094 66.9262 147.692 66.9262 146.008C66.9262 144.324 67.3732 142.818 68.2673 141.708C69.1613 140.598 70.3033 139.779 71.6963 139.251C73.0893 138.723 74.537 138.458 76.0425 138.458C77.2047 138.458 78.24 138.559 79.1485 138.761C80.057 138.963 80.9135 139.263 81.7181 139.666V138.325C81.7181 137.313 81.5393 136.505 81.1817 135.903C80.8241 135.3 80.3079 134.867 79.6301 134.608C78.9524 134.348 78.1449 134.216 77.2076 134.216C75.9415 134.216 74.687 134.423 73.444 134.841C72.201 135.26 71.0416 135.825 69.9717 136.54L68.4086 132.341C69.5102 131.64 70.8657 131.026 72.475 130.498C74.0842 129.97 75.8117 129.705 77.6575 129.705C78.6698 129.705 79.708 129.806 80.7751 130.005C81.8392 130.207 82.8227 130.602 83.7225 131.19C84.6223 131.779 85.349 132.641 85.8999 133.78C86.4507 134.919 86.7276 136.419 86.7276 138.282V153.068H81.7239V151.28C81.0981 151.877 80.2761 152.411 79.2552 152.889C78.2343 153.365 76.9423 153.605 75.3791 153.605L75.3705 153.602ZM76.3107 149.088C77.5623 149.088 78.6294 148.858 79.5148 148.396C80.4001 147.935 81.1356 147.407 81.7152 146.81V143.862C81.0894 143.551 80.3569 143.3 79.5148 143.116C78.6726 142.931 77.7844 142.836 76.8442 142.836C75.5349 142.836 74.3784 143.087 73.3834 143.583C72.3856 144.082 71.8866 144.889 71.8866 146.005C71.8866 146.914 72.2731 147.655 73.0489 148.229C73.8218 148.803 74.909 149.088 76.3107 149.088Z" fill="#0A0A0A"/>
<path d="M90.4276 153.066V130.237H95.117V135.866L94.3123 135.419C94.5344 133.631 95.0766 132.232 95.9331 131.22C96.7897 130.208 97.874 129.7 99.1834 129.7C100.346 129.7 101.268 130.049 101.952 130.75C102.638 131.451 103.114 132.204 103.382 133.005C103.904 132.172 104.585 131.413 105.427 130.727C106.269 130.044 107.313 129.7 108.565 129.7C110.353 129.7 111.706 130.341 112.631 131.621C113.554 132.902 114.016 135.151 114.016 138.367V153.063H109.323V139.125C109.323 137.562 109.182 136.42 108.899 135.696C108.617 134.975 108.057 134.612 107.224 134.612C106.702 134.612 106.252 134.791 105.871 135.148C105.491 135.506 105.196 136.022 104.989 136.7C104.781 137.377 104.677 138.199 104.677 139.168V153.063H99.988V138.99C99.988 138.067 99.913 137.277 99.7631 136.622C99.6131 135.967 99.3824 135.468 99.0709 135.125C98.7594 134.782 98.347 134.612 97.8423 134.612C97.2915 134.612 96.8099 134.791 96.4003 135.148C95.9908 135.506 95.6736 136.022 95.4515 136.7C95.2294 137.377 95.117 138.199 95.117 139.168V153.063H90.4276V153.066Z" fill="#0A0A0A"/>
<path d="M117.499 162.046V130.238H122.636V131.98C123.247 131.326 123.994 130.781 124.88 130.351C125.765 129.918 126.878 129.702 128.219 129.702C130.244 129.702 132.006 130.172 133.503 131.109C134.999 132.047 136.162 133.411 136.986 135.196C137.814 136.984 138.227 139.141 138.227 141.673C138.227 144.205 137.794 146.316 136.932 148.096C136.066 149.875 134.884 151.239 133.381 152.182C131.876 153.128 130.172 153.601 128.265 153.601C126.881 153.601 125.742 153.374 124.848 152.921C123.954 152.468 123.218 151.906 122.636 151.234V159.678L117.499 162.046ZM127.507 148.687C129.278 148.687 130.645 148.081 131.605 146.867C132.565 145.653 133.047 143.923 133.047 141.673C133.047 139.424 132.571 137.809 131.616 136.514C130.662 135.219 129.278 134.57 127.461 134.57C126.33 134.57 125.364 134.775 124.568 135.184C123.772 135.594 123.126 136.148 122.636 136.848V146.409C123.068 147.006 123.694 147.534 124.513 147.995C125.332 148.456 126.33 148.687 127.507 148.687Z" fill="#0A0A0A"/>
<path d="M206.87 153.384H155.369C152.75 153.384 150.617 151.255 150.617 148.633V97.1348C150.617 94.5156 152.747 92.3831 155.369 92.3831H206.87C209.489 92.3831 211.622 94.5156 211.622 97.1348V148.636C211.622 151.255 209.492 153.387 206.87 153.387V153.384ZM157.044 148.232H205.195C205.899 148.232 206.469 147.662 206.469 146.958V98.8093C206.469 98.1051 205.899 97.5355 205.195 97.5355H157.044C156.34 97.5355 155.77 98.1051 155.77 98.8093V146.958C155.77 147.662 156.34 148.232 157.044 148.232Z" fill="#0A0A0A"/>
<path d="M331.124 122.791C329.768 122.791 328.617 122.583 327.674 122.165C326.728 121.747 325.944 121.196 325.318 120.512V122.254H320.179V92.3677L325.315 90V101.213C325.941 100.512 326.801 99.9497 327.896 99.5258C328.992 99.1018 330.097 98.8884 331.213 98.8884C333.09 98.8884 334.755 99.37 336.205 100.33C337.659 101.291 338.795 102.661 339.623 104.44C340.45 106.219 340.863 108.345 340.863 110.817C340.863 114.672 339.986 117.634 338.238 119.696C336.488 121.758 334.117 122.791 331.124 122.791ZM330.319 117.877C332.136 117.877 333.483 117.239 334.362 115.967C335.239 114.695 335.68 112.977 335.68 110.819C335.68 108.541 335.23 106.796 334.328 105.582C333.428 104.368 332.09 103.762 330.319 103.762C329.5 103.762 328.759 103.881 328.095 104.12C327.432 104.359 326.867 104.653 326.397 105.002C325.927 105.351 325.566 105.697 325.312 106.041V115.644C325.849 116.36 326.538 116.91 327.377 117.297C328.219 117.683 329.197 117.877 330.316 117.877H330.319Z" fill="#F9F9F9"/>
<path d="M353.37 122.79C351.776 122.79 350.342 122.507 349.07 121.942C347.796 121.377 346.789 120.532 346.042 119.407C345.298 118.282 344.926 116.881 344.926 115.196C344.926 113.512 345.373 112.007 346.267 110.896C347.161 109.786 348.303 108.967 349.696 108.439C351.089 107.912 352.537 107.646 354.042 107.646C355.205 107.646 356.24 107.747 357.148 107.949C358.057 108.151 358.913 108.451 359.718 108.855V107.514C359.718 106.501 359.539 105.694 359.182 105.091C358.824 104.488 358.308 104.056 357.63 103.796C356.952 103.537 356.145 103.404 355.208 103.404C353.942 103.404 352.687 103.612 351.444 104.03C350.201 104.448 349.042 105.013 347.972 105.728L346.409 101.529C347.51 100.828 348.866 100.214 350.475 99.6864C352.084 99.1586 353.812 98.8933 355.657 98.8933C356.67 98.8933 357.708 98.9943 358.775 99.1932C359.839 99.3951 360.823 99.7902 361.722 100.379C362.622 100.967 363.349 101.829 363.9 102.968C364.451 104.108 364.728 105.607 364.728 107.47V122.256H359.724V120.468C359.098 121.065 358.276 121.599 357.255 122.078C356.234 122.553 354.942 122.793 353.379 122.793L353.37 122.79ZM354.311 118.279C355.562 118.279 356.629 118.049 357.515 117.587C358.4 117.126 359.136 116.598 359.715 116.001V113.054C359.089 112.742 358.357 112.491 357.515 112.307C356.673 112.122 355.784 112.027 354.844 112.027C353.535 112.027 352.378 112.278 351.383 112.774C350.386 113.273 349.887 114.08 349.887 115.196C349.887 116.105 350.273 116.846 351.049 117.42C351.822 117.994 352.909 118.279 354.311 118.279Z" fill="#F9F9F9"/>
<path d="M370.216 122.253V99.4264H375.352V104.831L374.683 103.311C374.683 102.642 375.003 101.967 375.643 101.289C376.284 100.612 377.143 100.044 378.225 99.5792C379.303 99.1178 380.506 98.8871 381.832 98.8871C383.352 98.8871 384.751 99.1841 386.031 99.7811C387.312 100.378 388.339 101.364 389.114 102.74C389.887 104.119 390.277 105.976 390.277 108.315V122.253H385.14V109.388C385.14 107.288 384.676 105.826 383.744 104.998C382.813 104.171 381.7 103.758 380.405 103.758C379.496 103.758 378.66 103.925 377.893 104.26C377.126 104.594 376.511 105.165 376.05 105.97C375.589 106.775 375.358 107.885 375.358 109.298V122.253H370.216Z" fill="#F9F9F9"/>
<path d="M404.524 122.791C402.453 122.791 400.665 122.321 399.162 121.383C397.657 120.446 396.501 119.082 395.69 117.297C394.88 115.509 394.473 113.352 394.473 110.819C394.473 108.287 394.897 106.222 395.748 104.443C396.596 102.664 397.767 101.294 399.255 100.333C400.743 99.3729 402.456 98.8913 404.391 98.8913C405.672 98.8913 406.799 99.1047 407.774 99.5287C408.749 99.9526 409.513 100.472 410.064 101.08V92.3677L415.2 90V122.254H410.064V120.512C409.646 121.063 408.951 121.582 407.976 122.064C407.001 122.549 405.85 122.791 404.524 122.791ZM405.239 117.877C406.444 117.877 407.428 117.686 408.186 117.305C408.945 116.925 409.571 116.371 410.064 115.641V105.992C409.706 105.501 409.141 105.005 408.365 104.506C407.589 104.007 406.519 103.759 405.15 103.759C403.393 103.759 402.038 104.365 401.083 105.579C400.131 106.793 399.653 108.538 399.653 110.817C399.653 112.215 399.869 113.444 400.302 114.502C400.734 115.561 401.363 116.385 402.188 116.982C403.015 117.579 404.031 117.877 405.236 117.877H405.239Z" fill="#F9F9F9"/>
<path d="M330.454 153.603C327.268 153.603 324.727 152.553 322.838 150.453C320.946 148.354 320 145.427 320 141.675C320 139.189 320.438 137.052 321.318 135.264C322.198 133.475 323.426 132.103 325.004 131.142C326.581 130.182 328.43 129.7 330.544 129.7C332.912 129.7 334.89 130.202 336.473 131.209C338.059 132.215 339.21 133.781 339.925 135.91L335.057 137.562C334.728 136.682 334.204 135.964 333.483 135.408C332.762 134.851 331.795 134.571 330.59 134.571C328.877 134.571 327.556 135.22 326.624 136.515C325.693 137.81 325.229 139.532 325.229 141.675C325.229 143.817 325.693 145.542 326.624 146.802C327.556 148.06 328.848 148.688 330.501 148.688C331.738 148.688 332.739 148.397 333.506 147.817C334.273 147.238 334.835 146.41 335.193 145.337L340.061 146.857C339.392 149.06 338.258 150.736 336.667 151.884C335.072 153.032 333.004 153.603 330.457 153.603H330.454Z" fill="#F9F9F9"/>
<path d="M353.37 153.602C351.776 153.602 350.342 153.319 349.07 152.754C347.796 152.189 346.789 151.344 346.042 150.219C345.298 149.094 344.926 147.692 344.926 146.008C344.926 144.324 345.373 142.818 346.267 141.708C347.161 140.598 348.303 139.779 349.696 139.251C351.089 138.723 352.537 138.458 354.042 138.458C355.205 138.458 356.24 138.559 357.148 138.761C358.057 138.963 358.913 139.263 359.718 139.666V138.325C359.718 137.313 359.539 136.505 359.182 135.903C358.824 135.3 358.308 134.867 357.63 134.608C356.952 134.348 356.145 134.216 355.208 134.216C353.942 134.216 352.687 134.423 351.444 134.841C350.201 135.26 349.042 135.825 347.972 136.54L346.409 132.341C347.51 131.64 348.866 131.026 350.475 130.498C352.084 129.97 353.812 129.705 355.657 129.705C356.67 129.705 357.708 129.806 358.775 130.005C359.839 130.207 360.823 130.602 361.722 131.19C362.622 131.779 363.349 132.641 363.9 133.78C364.451 134.919 364.728 136.419 364.728 138.282V153.068H359.724V151.28C359.098 151.877 358.276 152.411 357.255 152.889C356.234 153.365 354.942 153.605 353.379 153.605L353.37 153.602ZM354.311 149.088C355.562 149.088 356.629 148.858 357.515 148.396C358.4 147.935 359.136 147.407 359.715 146.81V143.862C359.089 143.551 358.357 143.3 357.515 143.116C356.673 142.931 355.784 142.836 354.844 142.836C353.535 142.836 352.378 143.087 351.383 143.583C350.386 144.082 349.887 144.889 349.887 146.005C349.887 146.914 350.273 147.655 351.049 148.229C351.822 148.803 352.909 149.088 354.311 149.088Z" fill="#F9F9F9"/>
<path d="M368.428 153.066V130.237H373.117V135.866L372.312 135.419C372.534 133.631 373.077 132.232 373.933 131.22C374.79 130.208 375.874 129.7 377.183 129.7C378.346 129.7 379.268 130.049 379.952 130.75C380.638 131.451 381.114 132.204 381.382 133.005C381.904 132.172 382.585 131.413 383.427 130.727C384.269 130.044 385.313 129.7 386.565 129.7C388.353 129.7 389.706 130.341 390.631 131.621C391.554 132.902 392.016 135.151 392.016 138.367V153.063H387.323V139.125C387.323 137.562 387.182 136.42 386.899 135.696C386.617 134.975 386.057 134.612 385.224 134.612C384.702 134.612 384.252 134.791 383.871 135.148C383.491 135.506 383.196 136.022 382.989 136.7C382.781 137.377 382.677 138.199 382.677 139.168V153.063H377.988V138.99C377.988 138.067 377.913 137.277 377.763 136.622C377.613 135.967 377.382 135.468 377.071 135.125C376.759 134.782 376.347 134.612 375.842 134.612C375.291 134.612 374.81 134.791 374.4 135.148C373.991 135.506 373.674 136.022 373.452 136.7C373.229 137.377 373.117 138.199 373.117 139.168V153.063H368.428V153.066Z" fill="#F9F9F9"/>
<path d="M395.499 162.046V130.238H400.636V131.98C401.247 131.326 401.994 130.781 402.88 130.351C403.765 129.918 404.878 129.702 406.219 129.702C408.244 129.702 410.006 130.172 411.503 131.109C412.999 132.047 414.162 133.411 414.986 135.196C415.814 136.984 416.227 139.141 416.227 141.673C416.227 144.205 415.794 146.316 414.932 148.096C414.066 149.875 412.884 151.239 411.381 152.182C409.876 153.128 408.172 153.601 406.265 153.601C404.881 153.601 403.742 153.374 402.848 152.921C401.954 152.468 401.218 151.906 400.636 151.234V159.678L395.499 162.046ZM405.507 148.687C407.278 148.687 408.645 148.081 409.605 146.867C410.565 145.653 411.047 143.923 411.047 141.673C411.047 139.424 410.571 137.809 409.616 136.514C408.662 135.219 407.278 134.57 405.461 134.57C404.33 134.57 403.364 134.775 402.568 135.184C401.772 135.594 401.126 136.148 400.636 136.848V146.409C401.068 147.006 401.694 147.534 402.513 147.995C403.332 148.456 404.33 148.687 405.507 148.687Z" fill="#F9F9F9"/>
<path d="M484.87 153.384H433.369C430.75 153.384 428.617 151.255 428.617 148.633V97.1348C428.617 94.5156 430.747 92.3831 433.369 92.3831H484.87C487.489 92.3831 489.622 94.5156 489.622 97.1348V148.636C489.622 151.255 487.492 153.387 484.87 153.387V153.384ZM435.044 148.232H483.195C483.899 148.232 484.469 147.662 484.469 146.958V98.8093C484.469 98.1051 483.899 97.5355 483.195 97.5355H435.044C434.34 97.5355 433.77 98.1051 433.77 98.8093V146.958C433.77 147.662 434.34 148.232 435.044 148.232Z" fill="#F9F9F9"/>
<path d="M606.124 122.791C604.768 122.791 603.617 122.583 602.674 122.165C601.728 121.747 600.944 121.196 600.318 120.512V122.254H595.179V92.3677L600.315 90V101.213C600.941 100.512 601.801 99.9497 602.896 99.5258C603.992 99.1018 605.097 98.8884 606.213 98.8884C608.09 98.8884 609.755 99.37 611.205 100.33C612.659 101.291 613.795 102.661 614.623 104.44C615.45 106.219 615.863 108.345 615.863 110.817C615.863 114.672 614.986 117.634 613.238 119.696C611.488 121.758 609.117 122.791 606.124 122.791ZM605.319 117.877C607.136 117.877 608.483 117.239 609.362 115.967C610.239 114.695 610.68 112.977 610.68 110.819C610.68 108.541 610.23 106.796 609.328 105.582C608.428 104.368 607.09 103.762 605.319 103.762C604.5 103.762 603.759 103.881 603.095 104.12C602.432 104.359 601.867 104.653 601.397 105.002C600.927 105.351 600.566 105.697 600.312 106.041V115.644C600.849 116.36 601.538 116.91 602.377 117.297C603.219 117.683 604.197 117.877 605.316 117.877H605.319Z" fill="#F9F9F9"/>
<path d="M628.37 122.79C626.776 122.79 625.342 122.507 624.07 121.942C622.796 121.377 621.789 120.532 621.042 119.407C620.298 118.282 619.926 116.881 619.926 115.196C619.926 113.512 620.373 112.007 621.267 110.896C622.161 109.786 623.303 108.967 624.696 108.439C626.089 107.912 627.537 107.646 629.042 107.646C630.205 107.646 631.24 107.747 632.148 107.949C633.057 108.151 633.914 108.451 634.718 108.855V107.514C634.718 106.501 634.539 105.694 634.182 105.091C633.824 104.488 633.308 104.056 632.63 103.796C631.952 103.537 631.145 103.404 630.208 103.404C628.942 103.404 627.687 103.612 626.444 104.03C625.201 104.448 624.042 105.013 622.972 105.728L621.409 101.529C622.51 100.828 623.866 100.214 625.475 99.6864C627.084 99.1586 628.812 98.8933 630.657 98.8933C631.67 98.8933 632.708 98.9943 633.775 99.1932C634.839 99.3951 635.823 99.7902 636.722 100.379C637.622 100.967 638.349 101.829 638.9 102.968C639.451 104.108 639.728 105.607 639.728 107.47V122.256H634.724V120.468C634.098 121.065 633.276 121.599 632.255 122.078C631.234 122.553 629.942 122.793 628.379 122.793L628.37 122.79ZM629.311 118.279C630.562 118.279 631.629 118.049 632.515 117.587C633.4 117.126 634.136 116.598 634.715 116.001V113.054C634.089 112.742 633.357 112.491 632.515 112.307C631.673 112.122 630.784 112.027 629.844 112.027C628.535 112.027 627.378 112.278 626.383 112.774C625.386 113.273 624.887 114.08 624.887 115.196C624.887 116.105 625.273 116.846 626.049 117.42C626.822 117.994 627.909 118.279 629.311 118.279Z" fill="#F9F9F9"/>
<path d="M645.216 122.253V99.4264H650.352V104.831L649.683 103.311C649.683 102.642 650.003 101.967 650.643 101.289C651.284 100.612 652.143 100.044 653.225 99.5792C654.303 99.1178 655.506 98.8871 656.832 98.8871C658.352 98.8871 659.751 99.1841 661.031 99.7811C662.312 100.378 663.339 101.364 664.114 102.74C664.887 104.119 665.277 105.976 665.277 108.315V122.253H660.14V109.388C660.14 107.288 659.676 105.826 658.744 104.998C657.813 104.171 656.7 103.758 655.405 103.758C654.496 103.758 653.66 103.925 652.893 104.26C652.126 104.594 651.511 105.165 651.05 105.97C650.589 106.775 650.358 107.885 650.358 109.298V122.253H645.216Z" fill="#F9F9F9"/>
<path d="M679.524 122.791C677.453 122.791 675.665 122.321 674.162 121.383C672.657 120.446 671.501 119.082 670.69 117.297C669.88 115.509 669.473 113.352 669.473 110.819C669.473 108.287 669.897 106.222 670.748 104.443C671.596 102.664 672.767 101.294 674.255 100.333C675.743 99.3729 677.456 98.8913 679.391 98.8913C680.672 98.8913 681.799 99.1047 682.774 99.5287C683.749 99.9526 684.513 100.472 685.064 101.08V92.3677L690.2 90V122.254H685.064V120.512C684.646 121.063 683.951 121.582 682.976 122.064C682.001 122.549 680.85 122.791 679.524 122.791ZM680.239 117.877C681.445 117.877 682.428 117.686 683.186 117.305C683.945 116.925 684.571 116.371 685.064 115.641V105.992C684.706 105.501 684.141 105.005 683.365 104.506C682.589 104.007 681.519 103.759 680.15 103.759C678.393 103.759 677.038 104.365 676.083 105.579C675.131 106.793 674.653 108.538 674.653 110.817C674.653 112.215 674.869 113.444 675.302 114.502C675.734 115.561 676.363 116.385 677.188 116.982C678.015 117.579 679.031 117.877 680.236 117.877H680.239Z" fill="#F9F9F9"/>
<path d="M605.454 153.603C602.268 153.603 599.727 152.553 597.838 150.453C595.946 148.354 595 145.427 595 141.675C595 139.189 595.438 137.052 596.318 135.264C597.198 133.475 598.426 132.103 600.004 131.142C601.581 130.182 603.43 129.7 605.544 129.7C607.912 129.7 609.89 130.202 611.473 131.209C613.059 132.215 614.21 133.781 614.925 135.91L610.057 137.562C609.728 136.682 609.204 135.964 608.483 135.408C607.762 134.851 606.795 134.571 605.59 134.571C603.877 134.571 602.556 135.22 601.625 136.515C600.693 137.81 600.229 139.532 600.229 141.675C600.229 143.817 600.693 145.542 601.625 146.802C602.556 148.06 603.848 148.688 605.501 148.688C606.738 148.688 607.739 148.397 608.506 147.817C609.273 147.238 609.835 146.41 610.193 145.337L615.061 146.857C614.392 149.06 613.258 150.736 611.667 151.884C610.072 153.032 608.004 153.603 605.457 153.603H605.454Z" fill="#F9F9F9"/>
<path d="M628.37 153.602C626.776 153.602 625.342 153.319 624.07 152.754C622.796 152.189 621.789 151.344 621.042 150.219C620.298 149.094 619.926 147.692 619.926 146.008C619.926 144.324 620.373 142.818 621.267 141.708C622.161 140.598 623.303 139.779 624.696 139.251C626.089 138.723 627.537 138.458 629.042 138.458C630.205 138.458 631.24 138.559 632.148 138.761C633.057 138.963 633.914 139.263 634.718 139.666V138.325C634.718 137.313 634.539 136.505 634.182 135.903C633.824 135.3 633.308 134.867 632.63 134.608C631.952 134.348 631.145 134.216 630.208 134.216C628.942 134.216 627.687 134.423 626.444 134.841C625.201 135.26 624.042 135.825 622.972 136.54L621.409 132.341C622.51 131.64 623.866 131.026 625.475 130.498C627.084 129.97 628.812 129.705 630.657 129.705C631.67 129.705 632.708 129.806 633.775 130.005C634.839 130.207 635.823 130.602 636.722 131.19C637.622 131.779 638.349 132.641 638.9 133.78C639.451 134.919 639.728 136.419 639.728 138.282V153.068H634.724V151.28C634.098 151.877 633.276 152.411 632.255 152.889C631.234 153.365 629.942 153.605 628.379 153.605L628.37 153.602ZM629.311 149.088C630.562 149.088 631.629 148.858 632.515 148.396C633.4 147.935 634.136 147.407 634.715 146.81V143.862C634.089 143.551 633.357 143.3 632.515 143.116C631.673 142.931 630.784 142.836 629.844 142.836C628.535 142.836 627.378 143.087 626.383 143.583C625.386 144.082 624.887 144.889 624.887 146.005C624.887 146.914 625.273 147.655 626.049 148.229C626.822 148.803 627.909 149.088 629.311 149.088Z" fill="#F9F9F9"/>
<path d="M643.428 153.066V130.237H648.117V135.866L647.312 135.419C647.534 133.631 648.077 132.232 648.933 131.22C649.79 130.208 650.874 129.7 652.183 129.7C653.346 129.7 654.268 130.049 654.952 130.75C655.638 131.451 656.114 132.204 656.382 133.005C656.904 132.172 657.585 131.413 658.427 130.727C659.269 130.044 660.313 129.7 661.565 129.7C663.353 129.7 664.706 130.341 665.631 131.621C666.554 132.902 667.016 135.151 667.016 138.367V153.063H662.323V139.125C662.323 137.562 662.182 136.42 661.899 135.696C661.617 134.975 661.057 134.612 660.224 134.612C659.702 134.612 659.252 134.791 658.871 135.148C658.491 135.506 658.196 136.022 657.989 136.7C657.781 137.377 657.677 138.199 657.677 139.168V153.063H652.988V138.99C652.988 138.067 652.913 137.277 652.763 136.622C652.613 135.967 652.382 135.468 652.071 135.125C651.759 134.782 651.347 134.612 650.842 134.612C650.292 134.612 649.81 134.791 649.4 135.148C648.991 135.506 648.674 136.022 648.452 136.7C648.229 137.377 648.117 138.199 648.117 139.168V153.063H643.428V153.066Z" fill="#F9F9F9"/>
<path d="M670.499 162.046V130.238H675.636V131.98C676.247 131.326 676.994 130.781 677.88 130.351C678.765 129.918 679.878 129.702 681.219 129.702C683.244 129.702 685.006 130.172 686.503 131.109C687.999 132.047 689.162 133.411 689.986 135.196C690.814 136.984 691.227 139.141 691.227 141.673C691.227 144.205 690.794 146.316 689.932 148.096C689.066 149.875 687.884 151.239 686.381 152.182C684.876 153.128 683.172 153.601 681.265 153.601C679.881 153.601 678.742 153.374 677.848 152.921C676.954 152.468 676.218 151.906 675.636 151.234V159.678L670.499 162.046ZM680.507 148.687C682.278 148.687 683.645 148.081 684.605 146.867C685.565 145.653 686.047 143.923 686.047 141.673C686.047 139.424 685.571 137.809 684.616 136.514C683.662 135.219 682.278 134.57 680.461 134.57C679.33 134.57 678.364 134.775 677.568 135.184C676.772 135.594 676.126 136.148 675.636 136.848V146.409C676.068 147.006 676.694 147.534 677.513 147.995C678.332 148.456 679.33 148.687 680.507 148.687Z" fill="#F9F9F9"/>
<path d="M759.87 153.384H708.369C705.75 153.384 703.617 151.255 703.617 148.633V97.1348C703.617 94.5156 705.747 92.3831 708.369 92.3831H759.87C762.489 92.3831 764.622 94.5156 764.622 97.1348V148.636C764.622 151.255 762.492 153.387 759.87 153.387V153.384ZM710.044 148.232H758.195C758.899 148.232 759.469 147.662 759.469 146.958V98.8093C759.469 98.1051 758.899 97.5355 758.195 97.5355H710.044C709.34 97.5355 708.77 98.1051 708.77 98.8093V146.958C708.77 147.662 709.34 148.232 710.044 148.232Z" fill="#F9F9F9"/>
</svg>
