<?xml version="1.0" encoding="UTF-8"?>
<svg id="Capa_2" xmlns="http://www.w3.org/2000/svg" version="1.1" viewBox="0 0 1526.7 1329.5">
  <!-- Generator: Adobe Illustrator 30.4.0, SVG Export Plug-In . SVG Version: 2.1.4 Build 226)  -->
  <defs>
    <style>
      .st0 {
        fill: #f472f0;
      }
    </style>
  </defs>
  <g id="Capa_1-2">
    <g>
      <path class="st0" d="M655.6,1227.2c-9.7,11.9-4,9.4-5,11.5,15.4-20.6,4-11.5,5-11.5Z"/>
      <polygon class="st0" points="808 1024.8 806.2 1029 827.3 998.1 808 1024.8"/>
      <path class="st0" d="M957.4,840.9c-9,7.1-22.5,23.8-37.2,42.7-14.7,19-30.6,40-44.6,55.9l-5.3,4.7-8.8,17.3c15.9-20.2,33.8-43.5,50.8-65.3,17-21.8,33-41.8,45-55.3h0Z"/>
      <path class="st0" d="M1046.1,750.4c-6.5,4.8,16.1-22.1-19.3,22.3,2-2.1,2.6-2.6,3.8-3.8,3.2-4,7.7-9.4,15.5-18.5h0Z"/>
      <path class="st0" d="M1030.7,768.8c-15.8,19.3,11.7-11.5,0,0h0Z"/>
      <path class="st0" d="M1103.5,679.6l-19.7,26.3c5.3-4.5,24.2-26.8,17.9-17.9,20.9-26.5,15.6-21.9,1.8-8.4Z"/>
      <path class="st0" d="M1120.7,653.4l-10.4,13.5c2.3-2,5.3-5.3,10.4-13.5Z"/>
      <path class="st0" d="M1088.3,695.6l22-28.7c-3.7,3.1-5.2,2.5-10.2,13.1.8-3.2-2.7,3.2-11.8,15.6h0Z"/>
      <path class="st0" d="M1074.7,710.8c-12.6,13.5-28.4,31.3-8.6,4.9-39.7,48.8-31,43.9,8.6-4.9Z"/>
      <path class="st0" d="M961.1,828.3l-16.8,18.1-12.2,17.5c6.1-8.8,31.2-35.9,29-35.7Z"/>
      <path class="st0" d="M1237.4,524.9c.5-2.2-9.3,6.6-11.9,7.5l-14.8,19.3c8.6-9,24.4-26.6,26.7-26.8Z"/>
      <path class="st0" d="M1225.5,532.5l22.2-28.8c-21.2,24.5-24.4,29.6-22.2,28.8Z"/>
      <polygon class="st0" points="1120.2 645.3 1084.8 693.5 1127.6 636.5 1120.2 645.3"/>
      <polygon class="st0" points="1327.7 419.7 1316.2 436.9 1337.3 406.7 1327.7 419.7"/>
      <path class="st0" d="M1387.6,349.9c-8.5,12.8,16.3-13.5,6.7-.5,13.7-16.2,24.9-31,34.9-44.6l93.2-126.2-123.6,89.7c-2.6,1.9-5.1,3.7-7.5,5.5,2.5-1.7,5.1-3.4,7.8-5.1l127.8-82.9-97.9,118.7c-11.3,13.7-24.4,28.1-41.3,45.4h0Z"/>
      <path class="st0" d="M1364.5,293.8c4.2-3.2,8.5-6.4,12.9-9.7,2.2-1.7,4.4-3.4,6.7-5.1,2.3-1.7,4.7-3.4,7.1-5.2-2.3,1.6-4.7,3.1-6.9,4.8-2.3,1.6-4.5,3.3-6.7,4.9-4.5,3.3-8.8,6.8-13,10.3h0Z"/>
      <path class="st0" d="M1288.3,457c2.3-1.7,7.1-4.7,20.9-19.7l-11.6,8.9c-2.8,3.3-6.1,7-9.3,10.8h0Z"/>
      <path class="st0" d="M1297.2,446.5l.4-.3c10.2-11.7,17.2-19.8,20.2-23.3-2.6,3-8.8,10.1-20.6,23.6Z"/>
      <path class="st0" d="M1285.9,459.7c.9-1,1.5-1.7,2.4-2.7-1.1.9-1.7,1.4-2.4,2.7Z"/>
      <path class="st0" d="M1183.6,574.3c12.5-17.3,39.9-52.5,10.1-21.3-8.3,13,8.7-4.9-10.1,21.3Z"/>
      <path class="st0" d="M1271.5,470.7l-25.6,28.9c1.1,0,6.5-4.6.3,4l25.3-32.9h0Z"/>
      <polygon class="st0" points="1283.1 455.8 1271.5 470.7 1281 460 1283.1 455.8"/>
      <path class="st0" d="M1408.5,319.7c4.7-6.4,9.9-12.8,15.4-19.5l71.1-85.9-92.6,60c-4.1,2.7-8.4,5.4-12.8,8.2-4.4,2.9-8.9,5.8-13.5,8.9,4.4-2.7,8.9-5.4,13.3-8.1,4.5-2.7,9-5.3,13.6-8l89.2-52.6-68.9,76.9c-8.1,9-16.1,18-23.8,26.9-1.3,2.9-6.3,11.2,9.2-6.7h0Z"/>
      <path class="st0" d="M1354.1,381c.7-.9,1.6-2.1,2.3-2.9-1.7,1.6-2.9,2.9-2.3,2.9Z"/>
      <path class="st0" d="M1216,419.8c1-.6,1.8-1.1,2.8-1.8,0-.3,0-.5.2-.9l-3,2.7h0Z"/>
      <path class="st0" d="M1396.5,328.8c-11.3,12.1-17.3,20.1-22.8,27.8,7.9-9.5,16.4-19.6,25.6-30.2.6-1.3.5-1.7-2.8,2.4h0Z"/>
      <path class="st0" d="M1318.5,328.9c3.7-2.5,7.6-5.1,11.7-7.8,4.1-2.8,8.4-5.6,12.8-8.5-3.8,2.1-9.4,5.5-14.3,8.8-4.9,3.2-9.1,6.2-10.1,7.5h0Z"/>
      <path class="st0" d="M1360.7,374.4c-.5.7-1,1.3-1.5,2,4-3.7,3.4-3.4,1.5-2Z"/>
      <path class="st0" d="M1360.7,374.4c5.3-6.7,9.1-12.3,13-17.8-6.4,7.8-12.3,15.1-17.3,21.5,1.5-1.4,3.1-2.8,4.3-3.7Z"/>
      <path class="st0" d="M1183.3,475.3c.2-2,7.9-10.8,19.3-22,11.4-11.2,26.6-24.7,41.7-36.1,13.2-13.1,13.8-17.3,7.6-16-6.2,1.2-19.2,8-33,16.9,0,1.7.6,2.5-26.6,29.3,5.5-3.9,21.7-17.5,34-27.1,12.2-9.6,20.3-15.2,9.1-3.6-18.4,17.4-26.2,24.2-31.9,28.5-5.7,4.3-9.2,6.2-18.8,13.9,8.9-5.7-2.2,6-14,18.7-11.8,12.7-24.4,26.5-18.6,24.6l15.8-15.6,15.8-15.5c1.2,0-9.9,11.8-.3,4h0Z"/>
      <path class="st0" d="M1274,370l11.9-10.5c-14.2,11.2-24.7,18.8-44,32.8-18.8,18.4-22.1,22.9-22.8,24.7,19.3-17.2,38.8-34.3,58.8-50.9l-3.9,3.8h0Z"/>
      <path class="st0" d="M1342.2,315.5c-2.1,2.5-5.5,5.7-9.1,9.2-3.6,3.5-7.4,7-10.3,10-5.8,5.9-7.9,9,2.2,3.2,4.5-3.6,8.4-6.5,11.7-9.1,3.2-2.6,5.9-4.7,8.1-6.4,4.4-3.5,7-5.9,9.2-7.9,2.2-2,3.8-3.7,6.3-5.9s2.7-2.4,4.6-3.9c1.9-1.5,4.1-3.2,6.9-5.3-7.8,5.3-13.2,9.3-17.1,12-3.8,2.7-5.9,4.2-6.9,4.8-2,1.3.6-1,3.6-3.6,3.1-2.6,6.7-5.7,6.6-6.2,0-.3-.9.1-3.3,1.5-1.2.7-2.7,1.6-4.7,2.9-1.9,1.3-4.3,2.8-7.1,4.8,5.8-4.6,11.5-8.8,17-12.8,2.7-2,5.5-3.9,8.2-5.8,2.7-1.9,5.3-3.7,7.9-5.5-11.6,7.3-22.7,14.4-33,21.2.6-.4,1-.6,1.5-.9l.3-.2s0,0,0,0c2.9-1.6,3.9-2.1.8,0-.2.2-.9.7-1.2,1-.2.6-1.1,1.8-2.1,2.9-18,12.5-3.3,1.4,2.1-2.9.1-.3.5-.7.5-.9,0,0-.2,0-.2.1-20.2,15.3-39.6,31.3-58.6,47.8,6.3-4.9,13.2-10.6,22.2-17.7,4.4-3.6,9.5-7.5,15-11.9,2.8-2.2,5.8-4.5,9-6.9,1.6-1.2,3.2-2.5,4.9-3.7,1.7-1.3,3.4-2.5,5.2-3.9h0Z"/>
      <path class="st0" d="M1214.5,518.5c1.7-1.6,1.8-1.4,2.1-1.4,2.8-3.9,3.8-5.5-2.1,1.4Z"/>
      <path class="st0" d="M1235.8,496.4c-3.2,4.4-5.2,8.6-16.9,21.8-10.6,11-1.1-1-2.3-1-6.3,8.6-22.4,29.7.3,5.3l3.1-4.3c20.2-22.1,48.1-49,45-44.7-7.7,4.9-14.2,9.5-29.2,22.9h0Z"/>
      <path class="st0" d="M1353.4,368.6l39.5-47.8-22.7,22.1,2.2-.2c-23.6,26.2-17.1,21.8-19.1,25.9Z"/>
      <polygon class="st0" points="1209.7 423.4 1213.7 415.5 1190.1 442.9 1209.7 423.4"/>
      <polygon class="st0" points="1150.2 477.9 1150.5 473.8 1135.9 489.4 1150.2 477.9"/>
      <path class="st0" d="M669.7,608.8l12.3-13.5c-5.9,6.3-9.7,10.4-12.3,13.5Z"/>
      <path class="st0" d="M577.4,703.7l-1.2,3.3c3.7-5,5-7.2,1.2-3.3Z"/>
      <path class="st0" d="M1186.3,426.7c20.1-17.5,43.4-36.3,38.9-36.1l-7.8,3.8c-12.3,13.8-22.4,23.9-31.1,32.2h0Z"/>
      <path class="st0" d="M446.9,1021.8c2.1-1.5,4.2-3,6.4-4.5,4.1-5.1,8-9.9,11.4-14.1-5.4,5.6-11.4,12-17.8,18.6h0Z"/>
      <path class="st0" d="M441.3,1043.7l-27.3,21.9c6.3-4.7,15.1-11.8,27.3-21.9Z"/>
      <path class="st0" d="M613.1,623.6l-14.4,15.8c25.6-21,13.4-13,14.4-15.8Z"/>
      <path class="st0" d="M553.9,1049.3c-17,15.4-30.2,28-41.6,39.3,20.7-18.4,38.2-32.4,41.6-39.3Z"/>
      <path class="st0" d="M656.2,668.5c7.4-8.3,10.2-12.2,9.5-12.4-7.6,8.6-11.7,13.6-9.5,12.4Z"/>
      <path class="st0" d="M465.8,1135.8c3-2.7,5.9-5.4,9-8.1,11.4-12.3,22.9-24.6,37.5-39-15.3,13.6-32.2,29.7-46.5,47.2Z"/>
      <path class="st0" d="M851.8,199.8c-1.6,1.1-3.4,2.5-4.8,3.4-.2.7,1.9-.9,4.8-3.4Z"/>
      <path class="st0" d="M266.3,686.1c2.6-2.7,6-6.3,9.8-10.2,3.8-3.9,8.1-8,12.2-12.1-4.1,3.8-10.9,10.4-22,22.3h0Z"/>
      <path class="st0" d="M911.4,697.6c12.3-11.9,1.7-2.1,0,0h0Z"/>
      <path class="st0" d="M980.2,649.4c-2.4,2.7-4.1,4.9-4,5.7.5-1.5,2-3.5,4-5.7Z"/>
      <path class="st0" d="M582,1038.9c.3-.4.6-.7,1-1.1-3.9,3.3-3.2,2.7-1,1.1Z"/>
      <path class="st0" d="M931.1,681c-4.9,4.1-10.5,9-16.5,14.3,2.7-2.3,7.8-6.6,16.5-14.3Z"/>
      <path class="st0" d="M927.6,682.3c4.4-4,7.8-7.1,11.1-10,1.2-1.8-.4-.8-11.1,10Z"/>
      <path class="st0" d="M894.2,714.2c7.1-6.8,13.8-12.9,20.3-18.8-2.6,2.2-3.7,3-3.1,2.3-3.6,3.5-8.7,8.4-17.2,16.5Z"/>
      <path class="st0" d="M283.2,804.5c.8-.8,1.7-1.7,2.6-2.6,10.3-13.9,5.5-8-2.6,2.6Z"/>
      <path class="st0" d="M1136.5,427.6c.6-.5.8-.9,1.4-1.4-.6.5-1.4,1.1-2,1.6l.6-.2Z"/>
      <path class="st0" d="M1091.9,469.6c17.1-20,28.6-29.5,44.1-41.8l-21.1,6.7-23,35.1h0Z"/>
      <path class="st0" d="M896.4,388.2l-33.2,27.6c17.3-19.5,33.1-35.4,40.6-43.3l25.2,39.5c-7.4,3.7-8.4,4.6.8,1.9l-27.5-43c-1.8,1.3-4.6,3.4-8,6.1,1,5.6-29.3,34.5-59.5,63.5-30.2,29.1-60.2,58.4-59.1,63.9l-21.8,18.4c5.9-5.6,6.5-6.9,12.3-12.5-21.5,17.6-27.6,26.1-34.9,36.2s-7.6,10.5-13.8,17.8c-6.2,7.3-14.8,16.4-27.7,28.8-18.1,17-31.3,28.5-20.2,15.6-12.4,13.7-24.9,27.4-37.2,41.2-11.4,11.4-9.8,7.4,1.5-3.9l-14.6,15.3-14.5,15.4c-9.7,10.2-19.3,20.6-28.9,30.9l.2-.7c-3.6,4.9-9.7,12.7-15.8,20.7-6.2,7.9-12.5,15.9-16.7,21.2-15.5,14.9,6.5-8.6,2-5.4l-15,18-7.5,9-7.4,9.1c-7.3,6.3-4.9,1.8,2.1-7.2,3.5-4.5,8.2-10.1,13.3-16.1,5.2-6,10.8-12.3,16.4-18.2-9.2,6.4-15.3,11.6-20.3,16.6-5.1,5.1-9.2,10.1-14.1,16.5-5,6.3-10.9,13.9-19.8,24.1-8.8,10.3-20.6,23-37.1,40.1l14.1-17.1,14.2-17c-5.7,4.5-11.4,9.5-17.2,15.1-5.8,5.7-11.6,11.9-17.9,18.7-3.1,3.4-6.4,6.9-9.7,10.6-3.3,3.7-6.8,7.5-10.4,11.5-3.6,4-7.4,8.1-11.4,12.4-4,4.3-8,8.7-12.4,13.3,2.2-2,7.8-7.5,14.4-14,6.6-6.4,14.3-13.8,20.7-19.7s11.6-10.1,13.2-10.5c1.6-.3-.4,3.2-8.2,13.3-4.9,5.2-10.5,11.4-16.9,19-1.6,1.9-3.2,3.9-4.9,6-1.7,2.1-3.4,4.3-5.2,6.7-3.6,4.7-7.3,9.8-11.4,15.3-1.4-1-6.2,3.8-13.2,12.2-7,8.4-16.4,20.2-26.7,33.5l-2.1-4.6c-5.4,7.3-9.2,12.8-12.1,17.1s-4.7,7.6-6.3,10.5c-3.2,5.8-5.1,10.1-10.9,19.2-3.1,4-6,7.5-8.5,10.8-2.6,3.2-4.9,6.1-7.1,8.6-4.3,5-7.9,8.8-10.9,11.8-6,6-9.9,8.7-13.9,11.7-9.7,13.1-12.6,17.5-12.2,17.8.4.3,4-3.5,7.5-7s6.8-6.6,6.5-5c-.2.8-1.2,2.8-3.7,6.6-1.2,1.9-2.8,4.2-4.7,7-1.9,2.8-4.2,6.2-6.9,10.2-8.1,10.8-15.5,20.8-22.3,30.9-6.9,10-13.5,19.8-19.9,30.2-3.2,5.2-6.4,10.4-9.8,15.8-.8,1.3-1.7,2.7-2.5,4.1-.8,1.4-1.6,2.8-2.5,4.2-1.6,2.8-3.3,5.7-5,8.6-3.4,5.8-6.9,11.9-10.6,18.2-3.6,6.4-7.3,13.1-11.3,20.1-21.1,31.4,1.1-7.1-7.1,3.8l-3.6,7.6-3.5,7.7-7,15.3c-4.2,7-3.9,4.2-3.6,2.7-3.2,6-4.6,9.5-5.3,11.7-.7,2.2-.7,3.2-.8,4.6-.3,2.7-1.4,6.7-10.5,24l-31.7,60.4,47.2-48.1c.5-.5,1.4-1.4,2.5-2.4,5.5-11.6,71.9-55.3,108.7-95.9,10.8-8-3,6.4,1.2,4.9,53.1-52.8,45.9-44.9,88.2-89.6l40.9-32.8c-30.9,23.2,3-12.6,32.9-43.8-11.2,7.9-20.9,14.6-27.1,19.3l49.5-47.6c6.7-5,2.5.8-4.6,9.7,3.2-3.4,6.3-6.6,8.7-9.2,19.4-15.2,11.6-4.7.2,8.9-6.8,4.9-13.6,9.8-20.3,14.5-10.8,13.3-20.6,26.2-16.2,25.8,3-3.4,9.1-9.4,16-15.9-2.8,3.5-4.5,5.9-2.6,4.8,2-1.2,6.7-6.7,14.3-15.1l15-6.7,1.5-4,69-57.6c44.6-46.6,81.3-89.3,156.2-158.7-16.5,19.6,0,8.1,1.8,12.2-23.8,15.1-57.7,54-97.8,88.5,20.9-18,17.8-12.4,13-7.2l67.6-65.9c.8,4.1,16.7-11.3,36.1-26.6-18.6,7.1,49.4-50.2,76.7-77.3,3.3.2-2,8.1-37.3,38.8,42.1-30.4,44.4-50.5,85.3-80.8-8.5,7.6-13.4,11.4-16,15.3,18.6-19.3,68.5-61.3,58.4-49.6l-8.5,7.6c28.7-24.8,71.9-63.1,108.6-96.6,36.7-33.5,66.8-62.3,69.1-68.3,1.1,0-2.7,12-5.4,15.9,29.4-34.9,58.8-69.6,88.9-104.1-2.9,5.8,6.4,3.6,10.6,5.3,4.2,1.7,3.4,7.3-19.5,28.9,14.1-11.2,31.5-25.2,59.5-50.9-9.9,7.3-28.2,14.1-15.7,2.9,9.8-6.3,16.3-10.6,21.4-14,5.1-3.4,8.6-5.8,12.5-8.6,3.8-2.7,7.9-5.6,13.9-9.9,6.1-4.3,14.1-9.8,26-17.6-15.1,10.6-4.2-8.5,19.1-26.1-2.9,3.7,6.7,4.8-1.2,11.9,14.8-14.3,29.8-28.3,44.9-42.2l-9.2-10.5-6.8,8.9c11.4-14.1-2.6-6.9-15.4,3.4,6.3-4.4-43.3,45.5-56.1,60.1l22.5-21.1c-57.3,58.8-47.7,66.5-103.9,125.3,5.6-8.3,9.5-24.5-19.7,4.8-10.1,16.5-43.7,74.3-90.9,128.8l-11.2,8.5-36.1,41.9c19.2-29.2,76.4-108,109-149.8-22.4,21-7.8,4.3-39.3,37.9-12.7,10.3,14.8-20.5,24.1-30.4l-74.6,76.8c6.7-.2-52.9,62.7-47.2,62.4l76.4-87.8c6.7-.2-36.5,58-89.3,112.5-14.6,12.7,3.8-16.2,1.6-16.2-5.6,8.3-47.2,54.4-52.9,58.7l20.3-25.1c-30.3,29.5-42.8,54.3-81,88.1-12.3,12.5-40.4,33.8-40.4,37.9,23.5-17,39.4-9.7,29.3,6.9-4.5,4.2-67,63.3-82.6,76-22.9,18,22.5-38.3,3-23,.2,1.7-9.6,14.3-13.8,19.5-13.4,12.6,2.3-8.3-24.7,21.2-1.1,8.1-56.2,58.8-10.1,16.5-25.9,29.3-29.3,29.5-60.7,63,12.3-8.5-20.7,37.2-46.7,66.5.7-2.5-6.5,2.8-9.9,5.4-45.3,47.3-74.3,75.8-112,114.8l4.1,4c7.9-7.9,16.9-16.8,26.5-26.6,5.6-4.1,32-28.8,22.6-16.4,7-8.2,12.8-16.4,28.9-32.8,34.3-28.8-35.7,36.9-8.3,16.3,0-2,9.8-13.2,22.4-27.1,12.6-13.8,27.9-30.1,38.9-42.3-5.1,2.1-18.6,15.3-33.7,31.1-15,15.8-31.4,34.3-42.4,46.5-4.3-4,31.5-49.1,85-106.2,43-44.8,21.8-16.3,28.9-24.5,20.9-20.3,35.4-35.2,46.4-47.3,11-12,18.7-21.1,25.9-29.7,7.2-8.6,14.1-16.7,23.7-26.7,9.6-10,21.9-21.8,40.1-37.9,30.3-24,6.5,4.2,14.5.2-17.7,18.1-32,31.2-45,42.8-13,11.6-24.6,21.7-36.8,33.7l31.4-28.2c-10.6,12.2-34.1,36.4-48,48.5,12.7-10.1,48-44.4,88.6-83.6,10.1-9.8,20.7-19.9,31.2-30,10.6-10.1,21.2-20.2,31.6-30,20.8-19.6,40.7-38.1,57.6-53,10.7-11.9,29.8-31.8,19.3-24l-20.3,20c-21.1,15.8,36-39.9,8.9-16.2,13.1-13.9,26.9-28.8,42.5-44.7,15.5-15.9,32.9-32.7,53.2-50.4l10.3-3.8c-1.7-.1-27.4,22.1-37.6,33.4,7.5-8.3,23.6-21.4,39.5-34.9,16-13.5,31.8-27.5,38.9-37.9l-29.7,23.5c26.6-27.7,58.4-63.2,94.5-94.4-18.9,11.5-7.8,7.7-36.1,27,12.9-7.7-9.6,12.9-30.4,32.1-20.8,19.2-39.8,36.9-20.3,23.2-14.7,9.7-26.2,19.5-38.5,30.3-12.3,10.8-25.6,22.6-43.8,36.4,2,0,13.6-9.1-16,17.9-1,1.5-3.8,4.8-5.5,6.9-.9.8-1.2,1.1-2,1.8.6-.5,1.1-.9,1.7-1.4-1.1,1.3-1.2,1.5.6-.5,7.4-6.1,13.5-10.8,16.3-12.4-6.1,8-20.8,22.8-35.7,37.8s-30.1,29.9-37.3,37.9c-17.6,15.9,6.1-8-4.3-.2l-21.5,24c-4.5,0-49.2,39.8-10-.2l-18.2,17.4-18.2,17.4c-22.6,19.3-52.4,47.2-69.5,65.7-17.5,16.1-40.5,44.4-27.4,28.2-18.4,18.8-36.7,37.8-55,56.8h-1.1c-55.7,54.4-110.1,116.7-176.6,176.3-4.8,5.2-9.7,10.5-14.9,16.1l24.6,23.7c13.5-15.1,29.1-32,51.5-54.8l7.8-4.3c22.4-25.1,71.5-71.5,79.3-84,30.3-21.3,113.5-117.5,155.1-159.6l-1-4.1c28.2-29.5,54.3-58.5,88-96.2h-4.4c28.1-33.3,78.7-79.8,125.9-130.1-2.3,4.2-14.6,16.7-23.6,25.2,61.8-55,115.8-129.8,170.9-180.5,12-14.3,21.5-23.8,31.1-32.8-1.2,1.3-2.2,2.4-3.1,3.5,1.3-1.4,3.3-3.4,5.3-5.5,6-5.6,12.3-11.3,19-17.6-5.9,5.1-11.5,10.1-16.2,14.6,9.8-10.5,24.5-26.6,38.6-42.6l8.7-4.3c1.2-1.3,2.1-2.3,3.3-3.6,15.3-14.4,10.4-13.3.9-7,7-8.2,13.3-15.8,17.9-21.9,15.7-8.6,37.2-41.9,57.4-54.8,3-4.7,14.1-17.3,26.9-31.7l-17.5-20c-25.2,19.5-55,44.1-58.2,51.5-1.1-.2-6.2,3.5,2.8-3.7-19.2,14.2-38.2,28.7-53.7,43.6l-10.6,3.1c-12.1,12.6-24.2,25.2-36.1,38-25.7,18.6-36.6,26-15,3-27.1,26.7-38.3,37.2-48.5,46.7-10.2,9.5-19.3,18.2-41.8,41.4l.5-4.2c-17.2,15.3-42.3,42.4-54.2,49.9-21,15.1-68.9,57.1-124.2,105.9-55.3,48.8-118.1,104.4-169,146.5,24.6-11-48.3,38.1-48,46.3-7,3.7-21.5,15.1-6.6-.4-49.1,46.3-77.7,65.2-108.8,100.2-7,3.7,8.9-11.7,3-8-3.8,3.9-14.8,15.5-20.8,19.4-5.9,3.7,6.3-7.8,13.7-15.5-51.1,46.2-52.4,55.3-52.4,62.8-27.8,21.3-40.5,33.2-56.8,52.8-10.3,6.8-26.6,18.9,4.8-10.2-18.1,15.9-111.2,96.3-110.1,101.3-6.4,4.2-25.2,22.3-29.6,26.9-40.3,36-44.1,38.8-83.2,74.7l11.4-9.3c-10.6,16.1-27.7,27.7-53.6,50.8l10.5,8.4c2-3.5,4.2-7.3,6.4-11.3v1.3c3.1-5.2,6-9.9,8.6-14.1,1.3-2.1,2.5-4.1,3.7-6.1,1.2-1.9,2.3-3.7,3.4-5.4,4.3-6.8,7.5-12.1,10.1-16.4,2.6-4.3,4.5-7.6,6.1-10.4,1.6-2.8,2.9-5.1,4.2-7.3,5.2-9,9.9-18.1,37.9-57.4l-5.7,2.6c-.3-2.9,2.8-8.6,7.9-16.4,2.6-3.9,5.7-8.3,9.2-13.1,3.5-4.8,7.5-9.9,11.6-15.3,4.2-5.4,8.6-11.1,13.1-16.9,4.6-5.8,9.2-11.8,13.9-17.8,2.3-3,4.6-6.1,6.8-9.1,2.3-3,4.6-6,6.8-9,4.4-6,8.6-12,12.5-17.9l-13.4,15.2c4-6.5,9.6-13.8,16.2-21.3,6.6-7.5,14.1-15.2,21.6-22.9,7.6-7.6,15.4-15.1,22.4-22.3,1.8-1.8,3.5-3.5,5.1-5.2,1.7-1.7,3.3-3.4,4.9-5,3.1-3.3,5.9-6.4,8.4-9.3,4.6-4.8-5.7,8.9-11.1,16.5,13.2-15.1,20-23.3,23.4-27.9,3.4-4.5,3.2-5.5,2.6-6.1-1.3-1.1-4.8-.7,13.6-24.3,8.8-7-4.4,14.7,21.6-15.9,1.8-1.8,4.2-4.6,7.1-8.2,2.9-3.6,6.4-8,10.3-13.1,3.9-5.1,8.2-10.7,12.8-16.7,4.7-6,9.7-12.4,14.9-19,2.6-3.3,5.2-6.6,7.9-10,2.7-3.3,5.5-6.7,8.2-10.1,5.5-6.7,11.1-13.5,16.8-19.9,11.3-12.9,22.4-24.9,32.5-34.2-9.5,7.7-19,15.3-1.2-6.1,3.5-4,7.5-8.2,11.8-12.7,4.3-4.4,8.9-9,13.6-13.7,4.8-4.7,9.7-9.6,14.8-14.5,5-4.9,10.2-9.8,15.2-14.8,20.3-19.8,40-39.4,51.4-55.2,4.2-3.5,5.9-4.7,6.4-4.5,10.9-12.2,29.1-31.4,46.2-49.6s32.9-35.2,38.9-43.2c14.8-6.5,50.2-42.8,83-76.4,32.8-33.5,63.1-64.3,66.5-60.1l28.7-27.3,49.9-47.6-63.7,26.1c-19.3,7.9-38,16.9-56.2,26.8l1.9-2.2c-1.8.9-3.6,1.9-5.4,2.8-1.7,1-3.4,1.9-5.1,2.8-3.3,1.8-6.5,3.6-9.5,5.3-3,1.8-5.8,3.5-8.6,5.1-2.7,1.6-5.4,3.2-7.8,4.8-4.9,3.2-9.5,6-13.5,8.9-4.1,2.8-7.8,5.4-11.2,7.9-6.7,5-12.3,9.3-17.2,13.5-2.5,2.1-4.8,4-7,6s-4.3,3.9-6.5,5.8c-12.6,8.1-4.3.9-3.6-.2-19.6,13.4-34.4,24.1-46.8,33.3-12.3,9.2-22.2,16.9-31.4,24.5-9.3,7.6-18,15.1-28.1,24-2.5,2.2-5.1,4.5-7.8,7-2.7,2.5-5.5,5-8.5,7.7-5.9,5.4-12.4,11.4-19.7,18.1l-8.6,2.4c-1.9,1.9-5.1,4.5-9.3,7.9-4.2,3.4-9.3,7.5-15.3,12.2-12,9.4-27.3,21-44.1,34.3-8.4,6.7-17.2,13.7-26.3,20.9-9,7.3-18.2,14.9-27.4,22.7-4.6,3.9-9.2,7.8-13.8,11.7-2.3,2-4.6,3.9-6.9,5.9-2.3,2-4.5,4-6.8,6-9,8-17.8,16-26.2,23.9.4-.9,1.4-2.6,6.7-7.8-4.8,4.4-9.7,8.9-14.7,13.4s-10.2,9.1-15.4,13.7c-10.5,9.2-21.4,18.5-32.4,27.8-21.9,18.7-44.2,37.2-64.7,54.8-41,35-74.9,65.8-84.6,83.3-16.1,16.2-32.1,32.5-48.1,48.8,65.5-59.6-5.9,13,22.2-10.3-25,24.2-68.3,58.8-37.6,29l5.3-4.1c3.5-7.8-17,10.6-38.5,30.4-21.4,19.8-43.8,41-44.5,38.6-28.6,27.3-57,54.4-85.1,81.3l17,15.9c86.3-101.4,171.7-199.5,254-295.1l-16.1,10.9,9.3-10.8,9.3-10.7,18.7-21.4c10.6-10.5,16.1-12.5-10.5,18,16.1-14.3,42.6-53.1,42.5-54.7,26.9-29.3,22.9-22.4,14.2-10.6-2.2,3-4.6,6.2-7,9.3-2.3,3.1-4.5,6.1-6.2,8.4-3.4,4.6-4.7,6.5-.7,1.9,7.1-8.5,14.2-16.8,21.4-25.2l-5.4,5.2c16-21.6,16-24.8,48.2-61.4,21.2-22.5,12.9-9.8,21-18.7.1.2.9-.5,2.8-2.6s5-5.6,9.7-11.2l23.9-26.7,12-13.3,12.1-13.2c-7.4,6.2-14.8,12.4-22.1,18.6,2.5-3.1,5-6.3,7.5-9.3,2.5-3,5.1-6,7.4-8.7,4.8-5.5,9-10.3,11.8-13.6,5.6-6.7,5.6-7.5-7.1,3.2,9.4-7.8,25.5-24,44.5-44.3,9.5-10.1,19.9-21.2,30.7-32.6,10.7-11.5,21.8-23.4,32.7-35.3,43.9-47.1,86.2-92.6,97.5-102.4,14.4-17,29.2-33.4,45.2-50.4,16.2-16.8,33.6-34.1,52.8-53.3-5,4.5-9.8,7.4-9.1,5,.3-1.2,2-3.7,5.8-7.9,1.8-2.1,4.2-4.7,7.1-7.8,1.5-1.5,3.1-3.2,4.8-5,1.8-1.8,3.7-3.6,5.9-5.7-2.8,9.3,13.2-5,34-24.3,10.4-9.7,21.9-20.6,32.8-30.4,11-9.7,21.5-18.3,29.6-23.6-13.8,10,10.2-13.1,32.2-34.7,2.8-2.7,5.5-5.4,8.1-8,2.6-2.6,5.2-5,7.6-7.3,4.7-4.6,8.7-8.6,11.3-11.4,5.2-5.7,4.9-6.7-6,1.1,29.4-25.8,4.1,1,27.5-17.4,30.5-30.7,66.6-61.4,104.6-93.9l-16.1-20c-11.6,8.4-23.4,17-35.3,25.7-6,4.3-12,8.7-18,13.1-6,4.4-12.1,8.8-18.1,13.4-12,9-24.2,18.2-36.3,27.5-6.1,4.7-12.1,9.3-18.2,14-6,4.8-12,9.6-18.1,14.4-.7,2.1,15.7-8.4-2.6,8.4l-25.8,16.5c-8.6,5.5-17.3,10.9-25.8,16.6-17.4,14.8-11.9,18.7-47,41.6,5.2-2.9,13-7.2,1.4,2.7-89.6,69-176.6,145.2-262.4,223.1-85.9,77.9-170.5,157.7-256.1,234.5,23.8-20.2,9.2-5.4-7.6,11.3,11.4-10.4,1.9,2.4,5.2,1.5-12,10.7-23.8,21.5-35.6,32.3l-35.5,32.5c-4.5,7.9-22.3,26.5-39.6,44.3-4.3,4.5-8.6,8.9-12.6,13.1-4,4.2-7.7,8.3-10.9,11.9-6.5,7.2-11,12.9-12,15.5l20.4-22.6c-6,8.2-6.1,10.3-2.7,8.9,3.3-1.4,10-6.3,17.6-11.8,15.1-11.1,33.3-25.2,33.6-20.7,3.4-4.6,7.4-9.2,11.7-14s9.2-9.7,14.5-14.7c10.5-10,22.3-20.5,34.8-31.7,6.2-5.6,12.6-11.4,19-17.3,6.5-5.9,13-12,19.5-18.3,12.9-12.6,25.6-26.1,37.4-40.6,6.4-5.2,4.2-2.4,1.4,1.1-2.8,3.5-6.2,7.7-2.6,5.2,11.5-15.1,27.4-31.3,58.6-59.6l-3,3.8c21.3-20.4,39.8-37.8,57-53.7,17.3-15.8,33.4-30.1,49.9-44.8,4.1-3.6,8.2-7.3,12.5-11,4.2-3.7,8.5-7.4,12.9-11.1,8.7-7.5,17.7-15.4,27.3-23.6,4.8-4.1,9.7-8.4,14.7-12.8,5-4.4,10.4-8.8,15.8-13.5,10.9-9.3,22.5-19.2,35.1-30l-9.5,4c10.8-9.3,17.5-14.7,22.9-18.8,5.4-4,9.3-6.9,14.7-10.9,10.7-12.6-4.5.4-20,13.7-15.4,13.4-31.1,27-21.7,15,16.3-10.1,54.3-43,91.5-74.6,18.7-15.7,37.1-31.1,52.3-43.2,15.4-12,27.6-20.7,33.8-23.3,33.8-27.9-12.4,5.2,21.5-22.7,3.4-1.9,6.8-3.9,10.3-5.8l6.9-9c22.7-17.7,35.6-24.8,37.5-24.1-5.6,4.2-15.1,12.8-20.8,17.6,7.6-5.4,16.5-12.2,25.7-19.6,9.2-7.4,18.8-15.2,27.8-22.5,18-14.7,33.4-27.7,38.7-31.3l-33.9,25.1c12.6-10.2,25.5-20.7,38.8-31.4,13.4-10.5,27.2-21.1,41-31.9,7-5.4,13.9-10.8,21-16.2,7.1-5.3,14.2-10.7,21.3-16.1,14.2-10.8,28.5-21.5,42.7-32.3L1056,0c-22.7,20.1-45.2,40.1-66.9,59.7-5.5,4.9-10.7,9.9-15.9,14.8-5.2,4.9-10.3,9.8-15.4,14.7-10.1,9.7-20,19.3-29.5,28.6l7.6-4.8c-7.9,7.8-14.7,14.3-20.7,19.9-5.8,5.8-10.8,10.6-15.3,14.8-9,8.5-15.8,14.6-22.8,20.8s-14.3,12.7-24.2,21.7c-2.5,2.3-5.1,4.7-7.9,7.4-2.8,2.7-5.8,5.6-9,8.8-6.4,6.3-13.8,13.6-22.4,22.2l2.3-2.7c-6.4,7.4-14.1,15.7-22.6,24.6-4.2,4.4-8.7,9-13.3,13.5-4.6,4.6-9.2,9.4-13.9,14,16-18.8-35.1,30.3-13.8,6-65.5,70.5-31.9,35.4-71.8,85l-12,8.7c-6.7,8.6-10.1,13.4-16,20.5-6,7.1-14.2,16.6-30.6,34.5,25.7-30.5-24.1,19.9,4.3-14.7-18.5,17.6-34,33.5-47.4,48-1.7,1.8-3.3,3.6-4.9,5.4-1.6,1.8-3.2,3.5-4.7,5.3-3,3.5-6,6.9-8.9,10.1-5.7,6.6-11,12.8-16.1,18.7-10.1,11.8-19,22.2-27.8,31.5-2.2,2.3-4.4,4.6-6.6,6.8-2.2,2.2-4.4,4.3-6.6,6.4-4.4,4.1-8.9,8-13.6,11.7-13,19.8,2.5,4.1,19.2-14,16.8-18,35-38.2,26.7-28.1,16.6-14.5-22.3,31.9-44.1,55.3-11,12-21.9,20.8-37,34.1-7.6,6.6-16,14.6-26,24.6-10,10-21.5,22.2-35.1,37.6,5.4-6.1,5.4-6.8,10.8-12.9-5.4,5.4-10.5,11.1-15.5,16.9-5,5.8-9.9,11.8-15,17.9-10.1,12.3-20.9,25.1-34.3,38.3-5.3,9.4-13.4,18.5-20.1,26.3-6.7,7.9-12,14.4-11.9,18.5l12-14.4,12.1-14.4,24.2-28.7c-6.7,8.3-13.1,16.6-19.7,25.2-6.5,8.7-13.3,17.6-20.6,27.2-14.6,19.2-32,40.5-56.1,66,2.7-4.9,15.2-21.6,24-33-14.6,14.5-25,30.6-40,45.7,0-2,3.5-7.5,9.4-15,5.9-7.5,14.1-17.2,23.1-27.7,9-10.6,18.9-22,28.1-33.2,4.6-5.6,9.1-11.1,13.3-16.4,4.2-5.2,8-10.3,11.4-14.9-4.1,3.8-9.5,9.9-15.1,16.6-5.6,6.8-11.4,14.1-16.4,20.3-10,12.4-16.7,20.3-11.5,9.7-7.9,15-21.2,30.1-36.6,47.2-15.3,17.2-32.6,36.3-48.3,59.3l-.2-4.9c-2.6,3.5-6.7,8.9-11.2,15.1-4.6,6.1-9.9,12.9-15.1,19l15.6-25.1c-13.1,18.3-27.7,34.3-42.3,50-7.3,7.8-14.6,15.6-21.7,23.5-7.1,8-14,16.1-20.6,24.6,29-34.5,33.1-37.7,33.1-35.7,0,2-3.8,9.1,9.4-4.7-17.1,21.9-28.6,35.6-37.6,45.3-8.9,9.7-15.2,15.3-21.9,21.3-13.3,11.9-28,24.8-67.4,72.9,10.5-13.2,42.2-47.1,26.5-26-15.6,17.6-36.5,40.5-47.2,50.5l29.2,27.2c.1-.1.2-.2.3-.3,58.8-57.6-11.5,6.3,12.3-19.5,11.5-8.3,18.5-15.6,25.8-24.1,7.3-8.5,14.8-18.1,27.4-31.1l2.5,2.3c8.7-7.9,15.4-14.2,20.6-19.2,5.2-5,9-8.8,11.7-11.8,5.5-5.9,6.9-8.5,8.2-10.8,2.5-4.7,4.1-8.6,35.9-36.6l-22.8,27.9,31.3-31-4,9c16.4-17.5,27.6-28.5,39-39.2,5.7-5.3,11.4-10.5,18-16.3,6.6-5.8,13.9-12.2,22.7-19.9-4.8,2.8-4.7.7.4-5.7,5.1-6.4,15.2-17,30.6-31,22.3-17.6-9.6,13,33.7-26.9-8.5,10.5-17.4,22.3-38.5,37.2-1.2,2.6-8.3,10.4-9.5,13,12-9.5,26.3-22.2,39.5-34.5,13.2-12.2,25.5-23.8,33.4-30.9-6.2,5.4-13.6,11.8-17.7,14.8l30.2-30.3,30.4-30.1c10.9-8,3.6-.1-3.6,7.6,6.3-5.9,11.5-11.1,17.4-17,6-5.8,12.7-12.3,22.2-20.8-1.6,3.2-1.6,5.1-4.5,9.2-1.5,2.1-3.6,4.7-7.1,8.4-3.5,3.7-8.2,8.3-14.7,14.6l7.4-7,7.4-7,14.8-13.9c9.9-9.3,19.7-18.6,29.6-27.8,4.9-2.6,33.7-24.7,26.4-17.1,35.2-28,80.7-75.6,128.4-111.6,1-1.2,2.7-2.9,5.2-5.3,2.6-2.4,6.1-5.6,10.9-9.7,11-8.7,21.9-16.9,32.7-25.2,5.4-4.1,10.8-8.2,16.3-12.3,5.4-4.1,10.9-8.2,16.5-12.4,22-16.9,44.8-34.8,70.2-55.9,11-6,22-12,33.2-17.6,5.2-3.8,8.4-6.2,10.1-7.6,1.8-1.5,2.1-2,1.5-2-1.2,0-6,2.2-9.8,3.9-3.9,1.7-6.9,2.8-4.6.3,2.3-2.5,9.8-8.7,27.5-20.6,12.5-8.5,20.3-13,25-15.3,4.7-2.4,6.4-2.6,7.1-2.2,1.3.9-1.4,4.4,8.1,0,14.5-9.8,35.6-23.5,62-35.1l-16.7-26.1c-14.7,14.7-31.4,30.3-49.5,45.2,13-13.6,24.2-23.1,36.6-35.4h0ZM446.5,851.1c3.8-5,9.4-12.5,15-19.6,2.8-3.5,5.6-6.9,8.1-9.8s4.9-5.1,6.8-6.5c-3.3,6.6-7,11.7-11.9,17.1-4.8,5.4-10.7,11-18.1,18.8h0ZM521.8,963.4c-6.2,7-17.2,16.2-30.1,26,8.6-8,18.6-16.8,30.1-26ZM777.8,829.2c-.3.4-.6.7-.8,1-20.9,18.5-13.5,12,.8-1ZM820.5,790.1c3.9-4.4,3.2-4.4,1.2-3.1-2.3,3.4-11.6,12.5-22.5,22.6,3.6-2.2,9.4-7,21.3-19.5ZM420.3,681.9l-8.1,7.8c16.1-19.6,12-13.7,8.1-7.8Z"/>
      <path class="st0" d="M442.2,1040.9c-3,1.9-4.1,2.1-5.2,2.2-3.3,3.7-2.9,4.3,5.2-2.2Z"/>
      <path class="st0" d="M615.7,620.7c-.5.4-1,.8-1.5,1.2-.7.8-1,1.4-1.1,1.7l2.7-2.9h0Z"/>
      <path class="st0" d="M730.8,862.4c8.5-8.3,13.5-12.7,17-15.5-.2-1-4.4,2.4-17,15.5Z"/>
      <path class="st0" d="M1039.7,575.5l-26.6,25.8c13-12.3,18.2-16.1,25.2-21.9-1.1,0-7.1,4,1.4-4h0Z"/>
      <path class="st0" d="M1292.4,375.5c3.9-3.8,8.8-7.4,12.7-11.1l-2.1-.3c-8.9,7.3-16.2,14-18.9,16.8-2.7,2.9-1,2,8.4-5.4Z"/>
      <path class="st0" d="M1072.5,560.5c4.1,0,20.5-16.3,39.3-34.3-1.1,1.1-2.2,2.1-3.4,3.1,2.9-8.1-16.5,11.6-35.9,31.2Z"/>
      <path class="st0" d="M1116.1,522c5.8-5.5,11.8-11,17.7-16.2,1.2-3.2-7.4,6.3-17.7,16.2Z"/>
      <path class="st0" d="M872.2,738c9.4-7.9,3.1-8,9-11.9,3.8-6-10.4,8.8-19.5,19.4-9.1,10.5-13.2,16.5,10.5-7.5h0Z"/>
      <polygon class="st0" points="1094.3 553.1 1085.1 556.8 1076.3 568.8 1094.3 553.1"/>
      <path class="st0" d="M942.6,690.8l30.8-27.7c-.9,0,2.7-3.9,7.3-8.5-18.7,17.4-39.5,36.1-38.1,36.2h0Z"/>
      <path class="st0" d="M980.8,654.7c9.8-9,19-17.7,24-23.2-5.2,4.9-16.5,15.6-24,23.2Z"/>
      <polygon class="st0" points="1053.4 592.3 1043.9 600.1 1022.2 619.8 1053.4 592.3"/>
      <path class="st0" d="M622,1000.3l-15.7,16.3-15.6,16.3c-2.4,4.1,6.8-4.1,18.4-16.3,7.1-8.2,18.7-20.4,12.9-16.3h0Z"/>
      <path class="st0" d="M726.1,911.1c-9.2,8-10.4,8-16.1,12l2.1,4.1,14.1-16.1Z"/>
      <path class="st0" d="M632.9,1004.4c-2.4,4-44.1,48.7-3.7,8.1,2.4-4.1,33.8-36.7,3.7-8.1Z"/>
      <polygon class="st0" points="787.6 819.8 779.7 828.2 786 831.9 787.6 819.8"/>
      <path class="st0" d="M1188.2,371.8c-38.1,37.8-5.6,12.3-40.4,46-7.4,10.3,28.5-27.5,20.7-17.2,20.9-24.7,33.4-36.4,19.7-28.8h0Z"/>
      <path class="st0" d="M1168.5,400.6c-3.4,4-6.9,8.2-10.6,12.7,6.1-7.1,8.9-10.5,10.6-12.7Z"/>
      <path class="st0" d="M175,773.8l-12.6,11.9-12.4,12c5.7-4.8,11.4-9.7,17.1-14.5l7.9-9.4Z"/>
      <path class="st0" d="M133,825.4l-8.9,2.8-11.3,17.9c5.2-5.8,15.3-17.1,20.2-20.7Z"/>
      <path class="st0" d="M377.9,919.4l-.8,2.7c4.3-3.4,9.5-9.7,19.9-22.2l-19.1,19.5Z"/>
      <polygon class="st0" points="697.3 574.9 691.5 580.5 705.2 572.8 697.3 574.9"/>
      <path class="st0" d="M841.5,459.7c13.3-8,28.5-17.9,42.3-24.7-3.7,2-7.2,3.8-10.5,5.6-3.3,1.8-6.4,3.4-9.3,4.8-5.8,2.9-10.8,5.4-14.6,7.3-1.9,1-3.6,1.8-4.9,2.6-1.3.8-2.4,1.4-3.1,2-1.4,1.1-1.4,1.9.1,2.5h0Z"/>
    </g>
  </g>
</svg>