<svg width="687" height="380" viewBox="0 0 687 380" fill="none" xmlns="http://www.w3.org/2000/svg">
<path d="M128.979 186.45C124.835 186.45 121.318 185.815 118.435 184.536C115.544 183.257 113.146 181.573 111.233 179.482V184.809H95.532V93.4162L111.233 86.1757V120.465C113.146 118.322 115.773 116.602 119.123 115.305C122.473 114.009 125.849 113.356 129.261 113.356C135 113.356 140.086 114.829 144.521 117.766C148.964 120.703 152.437 124.892 154.967 130.333C157.497 135.775 158.758 142.274 158.758 149.832C158.758 161.624 156.078 170.681 150.736 176.987C145.385 183.292 138.138 186.45 128.988 186.45H128.979ZM126.528 171.422C132.082 171.422 136.199 169.473 138.888 165.583C141.568 161.694 142.916 156.438 142.916 149.841C142.916 142.874 141.541 137.538 138.782 133.826C136.031 130.113 131.941 128.261 126.528 128.261C124.024 128.261 121.759 128.622 119.731 129.354C117.703 130.086 115.976 130.986 114.539 132.053C113.102 133.12 112 134.178 111.224 135.228V164.596C112.864 166.783 114.971 168.467 117.536 169.649C120.11 170.831 123.099 171.422 126.519 171.422H126.528Z" fill="#0A0A0A"/>
<path d="M196.992 186.45C192.117 186.45 187.735 185.585 183.848 183.857C179.951 182.128 176.874 179.544 174.591 176.105C172.317 172.665 171.179 168.379 171.179 163.229C171.179 158.078 172.546 153.475 175.279 150.079C178.012 146.684 181.503 144.179 185.761 142.565C190.019 140.951 194.444 140.14 199.046 140.14C202.598 140.14 205.763 140.449 208.54 141.066C211.317 141.683 213.935 142.601 216.395 143.835V139.734C216.395 136.639 215.848 134.17 214.755 132.326C213.662 130.483 212.084 129.16 210.012 128.367C207.941 127.573 205.472 127.167 202.607 127.167C198.737 127.167 194.902 127.802 191.103 129.081C187.303 130.36 183.759 132.088 180.489 134.275L175.711 121.435C179.078 119.292 183.222 117.413 188.141 115.799C193.06 114.185 198.341 113.374 203.983 113.374C207.077 113.374 210.251 113.683 213.512 114.291C216.765 114.909 219.771 116.117 222.522 117.916C225.272 119.715 227.494 122.352 229.178 125.835C230.862 129.319 231.708 133.905 231.708 139.602V184.818H216.413V179.35C214.5 181.176 211.987 182.807 208.866 184.271C205.746 185.726 201.796 186.458 197.018 186.458L196.992 186.45ZM199.857 172.656C203.683 172.656 206.945 171.951 209.651 170.54C212.357 169.129 214.605 167.515 216.377 165.689V156.676C214.464 155.724 212.225 154.956 209.651 154.392C207.077 153.827 204.362 153.536 201.488 153.536C197.485 153.536 193.95 154.304 190.909 155.821C187.859 157.346 186.334 159.816 186.334 163.229C186.334 166.007 187.515 168.273 189.886 170.028C192.249 171.783 195.572 172.656 199.857 172.656Z" fill="#0A0A0A"/>
<path d="M248.475 184.809V114.997H264.176V131.524L262.131 126.876C262.131 124.83 263.109 122.766 265.066 120.694C267.024 118.621 269.651 116.884 272.956 115.464C276.254 114.053 279.93 113.348 283.985 113.348C288.631 113.348 292.906 114.256 296.82 116.081C300.735 117.907 303.873 120.923 306.244 125.13C308.607 129.345 309.797 135.025 309.797 142.177V184.8H294.096V145.458C294.096 139.038 292.677 134.566 289.83 132.035C286.982 129.504 283.579 128.243 279.621 128.243C276.844 128.243 274.288 128.755 271.943 129.778C269.598 130.801 267.72 132.547 266.309 135.007C264.899 137.468 264.194 140.863 264.194 145.185V184.8H248.493L248.475 184.809Z" fill="#0A0A0A"/>
<path d="M353.355 186.45C347.026 186.45 341.56 185.012 336.967 182.146C332.365 179.28 328.83 175.108 326.353 169.649C323.876 164.181 322.633 157.584 322.633 149.841C322.633 142.098 323.929 135.783 326.529 130.342C329.121 124.901 332.7 120.712 337.249 117.775C341.798 114.838 347.035 113.365 352.95 113.365C356.864 113.365 360.311 114.018 363.291 115.314C366.27 116.611 368.607 118.198 370.29 120.059V93.4162L385.991 86.1757V184.809H370.29V179.482C369.012 181.167 366.888 182.754 363.908 184.227C360.928 185.709 357.411 186.45 353.355 186.45ZM355.542 171.422C359.227 171.422 362.233 170.84 364.551 169.675C366.87 168.511 368.783 166.818 370.29 164.587V135.078C369.197 133.579 367.469 132.062 365.098 130.536C362.727 129.01 359.456 128.252 355.268 128.252C349.9 128.252 345.756 130.104 342.838 133.817C339.929 137.53 338.466 142.865 338.466 149.832C338.466 154.11 339.127 157.867 340.449 161.103C341.772 164.34 343.693 166.862 346.215 168.688C348.745 170.513 351.848 171.422 355.533 171.422H355.542Z" fill="#0A0A0A"/>
<path d="M126.933 280.673C117.192 280.673 109.426 277.463 103.651 271.043C97.8682 264.623 94.9766 255.671 94.9766 244.197C94.9766 236.595 96.3166 230.06 99.0054 224.592C101.694 219.125 105.45 214.927 110.272 211.99C115.094 209.053 120.745 207.58 127.207 207.58C134.444 207.58 140.492 209.115 145.332 212.193C150.18 215.271 153.698 220.059 155.884 226.568L141.003 231.621C139.998 228.931 138.394 226.735 136.19 225.033C133.986 223.331 131.033 222.476 127.348 222.476C122.111 222.476 118.074 224.46 115.226 228.42C112.379 232.38 110.959 237.645 110.959 244.197C110.959 250.75 112.379 256.024 115.226 259.878C118.074 263.723 122.023 265.646 127.075 265.646C130.856 265.646 133.916 264.755 136.26 262.982C138.605 261.21 140.325 258.678 141.418 255.398L156.299 260.045C154.253 266.783 150.789 271.907 145.922 275.417C141.047 278.927 134.727 280.673 126.942 280.673H126.933Z" fill="#0A0A0A"/>
<path d="M196.992 280.673C192.117 280.673 187.735 279.809 183.848 278.081C179.951 276.352 176.874 273.768 174.591 270.329C172.317 266.889 171.179 262.603 171.179 257.453C171.179 252.302 172.546 247.699 175.279 244.303C178.012 240.908 181.503 238.403 185.761 236.789C190.019 235.175 194.444 234.364 199.046 234.364C202.598 234.364 205.763 234.673 208.54 235.29C211.317 235.907 213.935 236.825 216.395 238.059V233.958C216.395 230.863 215.848 228.393 214.755 226.55C213.662 224.707 212.084 223.384 210.012 222.59C207.941 221.797 205.472 221.391 202.607 221.391C198.737 221.391 194.902 222.026 191.103 223.305C187.303 224.584 183.759 226.312 180.489 228.499L175.711 215.659C179.078 213.516 183.222 211.637 188.141 210.023C193.06 208.409 198.341 207.598 203.983 207.598C207.077 207.598 210.251 207.907 213.512 208.515C216.765 209.132 219.771 210.341 222.522 212.14C225.272 213.939 227.494 216.576 229.178 220.059C230.862 223.543 231.708 228.129 231.708 233.826V279.042H216.413V273.574C214.5 275.4 211.987 277.031 208.866 278.495C205.746 279.95 201.796 280.682 197.018 280.682L196.992 280.673ZM199.857 266.871C203.683 266.871 206.945 266.166 209.651 264.755C212.357 263.344 214.605 261.73 216.377 259.904V250.891C214.464 249.939 212.225 249.171 209.651 248.607C207.077 248.043 204.362 247.752 201.488 247.752C197.485 247.752 193.95 248.519 190.909 250.036C187.859 251.561 186.334 254.031 186.334 257.444C186.334 260.222 187.515 262.488 189.886 264.243C192.249 265.998 195.572 266.871 199.857 266.871Z" fill="#0A0A0A"/>
<path d="M243.01 279.033V209.221H257.344V226.436L254.884 225.069C255.563 219.601 257.22 215.323 259.839 212.228C262.457 209.132 265.772 207.58 269.774 207.58C273.327 207.58 276.148 208.647 278.237 210.79C280.335 212.933 281.79 215.235 282.61 217.687C284.205 215.138 286.286 212.819 288.86 210.72C291.434 208.63 294.625 207.58 298.451 207.58C303.917 207.58 308.052 209.538 310.882 213.454C313.703 217.37 315.113 224.248 315.113 234.082V279.024H300.77V236.401C300.77 231.621 300.338 228.129 299.474 225.915C298.61 223.71 296.9 222.599 294.352 222.599C292.757 222.599 291.381 223.146 290.218 224.24C289.054 225.333 288.155 226.912 287.52 228.984C286.885 231.057 286.568 233.57 286.568 236.534V279.024H272.234V235.987C272.234 233.165 272.004 230.748 271.546 228.746C271.088 226.744 270.382 225.219 269.43 224.169C268.478 223.12 267.217 222.599 265.675 222.599C263.991 222.599 262.519 223.146 261.267 224.24C260.015 225.333 259.045 226.912 258.367 228.984C257.688 231.057 257.344 233.57 257.344 236.534V279.024H243.01V279.033Z" fill="#FBC7F9"/>
<path d="M325.771 306.496V209.229H341.472V214.556C343.341 212.554 345.624 210.887 348.331 209.573C351.037 208.25 354.44 207.589 358.539 207.589C364.728 207.589 370.114 209.027 374.689 211.893C379.265 214.759 382.817 218.93 385.339 224.39C387.869 229.857 389.13 236.454 389.13 244.197C389.13 251.941 387.807 258.396 385.171 263.838C382.527 269.279 378.912 273.451 374.319 276.334C369.717 279.227 364.507 280.673 358.68 280.673C354.449 280.673 350.966 279.977 348.234 278.592C345.501 277.207 343.253 275.488 341.472 273.433V299.255L325.771 306.496ZM356.362 265.646C361.774 265.646 365.953 263.794 368.889 260.081C371.824 256.368 373.297 251.076 373.297 244.197C373.297 237.318 371.842 232.38 368.924 228.42C366.006 224.46 361.774 222.476 356.221 222.476C352.765 222.476 349.812 223.102 347.378 224.354C344.945 225.607 342.971 227.3 341.472 229.443V258.678C342.794 260.504 344.707 262.118 347.211 263.529C349.715 264.94 352.765 265.646 356.362 265.646Z" fill="#0A0A0A"/>
<path d="M599.154 281.017H440.551C432.485 281.017 425.917 274.456 425.917 266.378V107.712C425.917 99.6425 432.476 93.0723 440.551 93.0723H599.154C607.221 93.0723 613.788 99.6425 613.788 107.712V266.386C613.788 274.456 607.229 281.026 599.154 281.026V281.017ZM445.7 265.143H593.988C596.157 265.143 597.911 263.388 597.911 261.218V112.871C597.911 110.702 596.157 108.947 593.988 108.947H445.7C443.531 108.947 441.777 110.702 441.777 112.871V261.218C441.777 263.388 443.531 265.143 445.7 265.143Z" fill="#0A0A0A"/>
<path d="M425.8 93.448H389.8V281.448H425.8V93.448Z" fill="#FBC7F9"/>
<path d="M389.562 85.9376L389.588 306.831L94.7651 306.866L94.7386 85.9728L389.562 85.9376ZM390.443 85.0556L94.7386 85.0909H93.8571L93.8835 307.748H94.7651L390.47 307.713L390.443 85.0556Z" fill="#F472F0"/>
<path d="M613.594 85.9111V92.4902L94.7386 92.5519V85.9728L613.594 85.9111ZM614.476 85.0292L94.7386 85.0909H93.8571V93.4338L614.476 93.3721V85.9111V85.0292Z" fill="#F472F0"/>
<path d="M613.612 281.696V306.831H94.7563V281.696H613.612ZM614.494 280.815H93.8747V307.713H614.494V280.815Z" fill="#F472F0"/>
<path d="M613.594 85.9111L613.621 306.805L94.7651 306.866L94.7386 85.9728L613.594 85.9111ZM614.476 85.0292L94.7386 85.0909H93.8571L93.8835 307.748H94.7651L614.502 307.687L614.476 85.9111V85.0292Z" fill="#F472F0"/>
<path d="M425.406 85.9287L425.432 306.822L94.7739 306.858L94.7474 85.964L425.406 85.9287ZM426.288 85.0468L93.8659 85.0821L93.8923 307.739L426.314 307.704L426.288 85.0468Z" fill="#F472F0"/>
<path d="M685.874 14.5994L685.918 378.496L22.8379 378.575L22.7938 14.6787L685.874 14.5994ZM686.756 13.7174L21.9123 13.7968L21.9563 379.457L686.8 379.378L686.756 13.7174Z" fill="#F472F0"/>
<path d="M94.959 14.5994H22.7586V86.1757H94.959V14.5994Z" fill="#FBC7F9"/>
<path d="M685.874 14.5994H613.674V86.1757H685.874L685.874 14.5994Z" fill="#FBC7F9"/>
<path d="M685.874 306.866H613.674V378.443H685.874V306.866Z" fill="#FBC7F9"/>
<path d="M94.8092 306.866H22.6087V378.443H94.8092V306.866Z" fill="#FBC7F9"/>
<path d="M23.0319 9.84584H22.5911V12.7121H23.0319V9.84584Z" fill="#F472F0"/>
<path d="M94.9502 9.84584H94.5094V12.7121H94.9502V9.84584Z" fill="#F472F0"/>
<path d="M54.0879 8.448V1.2L52.2399 1.872V1.044L54.9279 0V8.448H54.0879ZM51.9999 8.448V7.644H56.9919V8.448H51.9999Z" fill="#F472F0"/>
<path d="M59.1544 8.448L61.4344 5.28L59.2984 2.316H60.2104L61.6024 4.248C61.6504 4.312 61.6984 4.38 61.7464 4.452C61.7944 4.524 61.8424 4.596 61.8904 4.668C61.9384 4.596 61.9864 4.524 62.0344 4.452C62.0824 4.38 62.1304 4.312 62.1784 4.248L63.5704 2.316H64.4824L62.3464 5.28L64.6264 8.448H63.7144L62.1784 6.312C62.1304 6.244 62.0824 6.176 62.0344 6.108C61.9864 6.036 61.9384 5.964 61.8904 5.892C61.8424 5.964 61.7944 6.036 61.7464 6.108C61.6984 6.176 61.6504 6.244 61.6024 6.312L60.0664 8.448H59.1544Z" fill="#F472F0"/>
<path d="M390.364 79.3496H389.923V82.2159H390.364V79.3496Z" fill="#F472F0"/>
<path d="M425.829 79.3496H425.388V82.2159H425.829V79.3496Z" fill="#F472F0"/>
<path d="M399.496 78.616C399.28 78.616 399.1 78.538 398.956 78.382C398.812 78.226 398.74 78.052 398.74 77.86C398.74 77.668 398.812 77.494 398.956 77.338C399.1 77.182 399.28 77.104 399.496 77.104C399.712 77.104 399.892 77.182 400.036 77.338C400.18 77.494 400.252 77.668 400.252 77.86C400.252 78.052 400.18 78.226 400.036 78.382C399.892 78.538 399.712 78.616 399.496 78.616Z" fill="#F472F0"/>
<path d="M406.71 78.592C406.314 78.592 405.954 78.538 405.63 78.43C405.306 78.322 405.028 78.186 404.796 78.022C404.564 77.858 404.386 77.692 404.262 77.524L404.754 76.912C404.99 77.168 405.258 77.386 405.558 77.566C405.858 77.746 406.238 77.836 406.698 77.836C407.074 77.836 407.406 77.744 407.694 77.56C407.986 77.372 408.214 77.124 408.378 76.816C408.546 76.504 408.63 76.164 408.63 75.796C408.63 75.432 408.564 75.1 408.432 74.8C408.304 74.5 408.116 74.262 407.868 74.086C407.624 73.906 407.33 73.816 406.986 73.816C406.586 73.816 406.244 73.906 405.96 74.086C405.68 74.262 405.462 74.44 405.306 74.62L404.598 74.404L405.282 70.048H409.074V70.804H405.954L405.474 73.732C405.686 73.504 405.936 73.33 406.224 73.21C406.512 73.086 406.826 73.024 407.166 73.024C407.618 73.024 408.02 73.138 408.372 73.366C408.728 73.594 409.008 73.912 409.212 74.32C409.416 74.724 409.518 75.192 409.518 75.724C409.518 76.076 409.454 76.422 409.326 76.762C409.202 77.102 409.02 77.41 408.78 77.686C408.54 77.962 408.246 78.182 407.898 78.346C407.55 78.51 407.154 78.592 406.71 78.592Z" fill="#F472F0"/>
<path d="M411.549 78.448L413.829 75.28L411.693 72.316H412.605L413.997 74.248C414.045 74.312 414.093 74.38 414.141 74.452C414.189 74.524 414.237 74.596 414.285 74.668C414.333 74.596 414.381 74.524 414.429 74.452C414.477 74.38 414.525 74.312 414.573 74.248L415.965 72.316H416.877L414.741 75.28L417.021 78.448H416.109L414.573 76.312C414.525 76.244 414.477 76.176 414.429 76.108C414.381 76.036 414.333 75.964 414.285 75.892C414.237 75.964 414.189 76.036 414.141 76.108C414.093 76.176 414.045 76.244 413.997 76.312L412.461 78.448H411.549Z" fill="#F472F0"/>
<path d="M20.9073 85.9464H18.0422V86.3873H20.9073V85.9464Z" fill="#F472F0"/>
<path d="M20.9073 13.9997H18.0422V14.4406H20.9073V13.9997Z" fill="#F472F0"/>
<path d="M2.088 50.448V43.2L0.24 43.872V43.044L2.928 42V50.448H2.088ZM0 50.448V49.644H4.992V50.448H0Z" fill="#F472F0"/>
<path d="M7.15453 50.448L9.43453 47.28L7.29853 44.316H8.21053L9.60253 46.248C9.65053 46.312 9.69853 46.38 9.74653 46.452C9.79453 46.524 9.84253 46.596 9.89053 46.668C9.93853 46.596 9.98653 46.524 10.0345 46.452C10.0825 46.38 10.1305 46.312 10.1785 46.248L11.5705 44.316H12.4825L10.3465 47.28L12.6265 50.448H11.7145L10.1785 48.312C10.1305 48.244 10.0825 48.176 10.0345 48.108C9.98653 48.036 9.93853 47.964 9.89053 47.892C9.84253 47.964 9.79453 48.036 9.74653 48.108C9.69853 48.176 9.65053 48.244 9.60253 48.312L8.06653 50.448H7.15453Z" fill="#F472F0"/>
</svg>
