<?xml version="1.0" encoding="UTF-8"?>
<svg id="Capa_2" data-name="Capa 2" xmlns="http://www.w3.org/2000/svg" viewBox="0 0 3048.61 141.61">
  <defs>
    <style>
      .cls-1 {
        fill: #e3f35e;
      }
    </style>
  </defs>
  <g id="Capa_1-2" data-name="Capa 1">
    <g>
      <path class="cls-1" d="M3044.4,43.74c4.57.87,3.42-4.29,4.21-5.12-7.85.39-4.14,6.44-4.21,5.12Z"/>
      <polygon class="cls-1" points="2967.41 48.71 2968.89 46.76 2957.37 50.95 2967.41 48.71"/>
      <path class="cls-1" d="M2896.34,44.77c3.19,4.41,9.63,4.29,16.86,3.54,7.22-.63,15.24-1.92,21.48-.04l1.98,2.06,6.11-6.56c-7.74.11-16.67,1.04-24.99,1.55-4.16.23-8.18.48-11.82.45-3.65-.03-6.92-.31-9.61-1.01Z"/>
      <path class="cls-1" d="M2858.85,25.01c2.28,3.38-8.34,2.71,8.89,1.22-.85-.38-1.1-.6-1.59-.88-1.55.02-3.68-.03-7.3-.34Z"/>
      <path class="cls-1" d="M2866.15,25.35c7.56-.09-4.87-2.9,0,0h0Z"/>
      <path class="cls-1" d="M2831.25,26.59l9.99-2.79c-2.04-2.01-10.91-2.62-7.59-3.99-10.25,1.43-8.15,3.43-2.4,6.77Z"/>
      <path class="cls-1" d="M2821.77,32.7c1.72-.43,3.43-.81,5.15-1.19-.89-.83-2.25-1.19-5.15,1.19Z"/>
      <path class="cls-1" d="M2837.86,29.05l-10.94,2.45c1.42,1.41,1.53,4.19,5.02-.86-.92,2.52,1.26.12,5.92-1.59Z"/>
      <path class="cls-1" d="M2844.02,30.48c5.54,1.97,12.68,3.28,2.68,6.05,18.96-.81,16.34-6.89-2.68-6.05Z"/>
      <path class="cls-1" d="M2892.37,53.49l7.27,2.78,6.5-2.63c-3.24,1.3-14.12-2.85-13.77-.15Z"/>
      <path class="cls-1" d="M2769.28,22.13c-.6,1.83,3.4,4.8,4.17,7.12,2.44-.73,4.88-1.5,7.32-2.18-3.78-1.26-10.95-2.23-11.48-4.94Z"/>
      <path class="cls-1" d="M2773.44,29.25l-10.93,3.32c9.79.2,11.57-1.32,10.93-3.32Z"/>
      <path class="cls-1" d="M2819.92,42.21c3-1.11,6-2.14,9-3.18l9.03-3.12c-7.18,2.1-14.34,4.11-21.49,6.38l3.46-.08Z"/>
      <polygon class="cls-1" points="2727.25 22.75 2733.37 18.31 2722.44 25.08 2727.25 22.75"/>
      <path class="cls-1" d="M2699.41,24.48c4.48-3.65-6.58-5.68-1.78-8-3.78.45-7.26,1.46-10.51,2.78-3.24,1.34-6.25,2.93-9.09,4.43,3.05-.92,6.24-1.37,9.73-1.29,3.5.13,7.32.81,11.64,2.09Z"/>
      <path class="cls-1" d="M2668.48,28.14c3.04-1,6.16-2.67,9.56-4.45-3.24.98-6.41,2.32-9.56,4.45Z"/>
      <path class="cls-1" d="M2743.83,32c-.87-1.09-2.57-3.94-8.76-5.05l4.44,5.05c1.32,0,2.81,0,4.32,0Z"/>
      <path class="cls-1" d="M2739.67,32.16l-.16-.16c-2.34-.02-4.32-.04-5.9-.06-1.57,0-2.73,0-3.43,0,.6,0,1.61.01,3.15.03,1.54.05,3.61.11,6.33.2Z"/>
      <path class="cls-1" d="M2744.92,32c-.4,0-.69,0-1.09,0,.43.5.68.66,1.09,0Z"/>
      <path class="cls-1" d="M2791.29,37.54c-6.43,2.86-19.75,5.93-6.8,10.31,4.58-3.51-2.85-6,6.8-10.31Z"/>
      <path class="cls-1" d="M2750.4,38.31l11.63.97c-.25-1.35-2.38-3.29.79-4.77l-12.42,3.8Z"/>
      <polygon class="cls-1" points="2744.75 40.04 2750.4 38.31 2746.08 37.96 2744.75 40.04"/>
      <path class="cls-1" d="M2688.67,31.86c-4.93,2.5-10.41,2.98-16.59,3.67,3.35.32,6.75.53,10.13.61,3.38.08,6.73,0,10-.09.85-1.64,3.6-4.63-3.53-4.2Z"/>
      <path class="cls-1" d="M2713.48,32.4c-.34.13-.79.2-1.11.33.7.41,1.26.53,1.11-.33Z"/>
      <path class="cls-1" d="M2611.03,39.39c.36.26.68.58,1.05.86.05-.3.09-.59.16-.9l-1.21.04Z"/>
      <path class="cls-1" d="M2693.35,36.97c5.04.81,7.97-.55,10.76-2.23-3.72.65-7.67,1.12-11.92,1.32-.38.74-.44,1.22,1.16.91Z"/>
      <path class="cls-1" d="M2651.53,31.45c2.67.93,5.68,1.68,8.83,2.35-2.64-1.48-7.99-3.73-8.83-2.35Z"/>
      <path class="cls-1" d="M2710.63,31.37c.25-.09.47-.19.74-.25-1.68-1.04-1.46-.51-.74.25Z"/>
      <path class="cls-1" d="M2710.63,31.37c-2.55.83-4.53,2.17-6.52,3.36,3.03-.51,5.83-1.16,8.25-2.01-.63-.34-1.27-.87-1.74-1.36Z"/>
      <path class="cls-1" d="M2595.31,73.65c.24-2.39,3.49-5.04,8.16-6.44,4.67-1.4,10.74-1.66,16.53.48,10.76-4.35,2.49-19.43-7.92-27.44-.19,2.09-.05,4-11.27,7.63,4.23,2.3,25.81,4.22,16.5,9.2-14.9,3.55-12.49-.83-20.04-2.71,6.7,5.34-18.44,10.33-14.37,18.7l12.88-4.24c.36,1.33-4.22,3.91-.47,4.81Z"/>
      <path class="cls-1" d="M2633.96,39.15l4.68-.93c-5.44-.44-9.41-2.05-16.79-5.25-7.71,2.88-9.2,4.76-9.62,6.38l23.29-1.02-1.57.82Z"/>
      <path class="cls-1" d="M2659.85,36.97c-3.41,5.36-14.57,8.17-7.31,13.38,13.77-1.1,9.42-4.83,17.56-7.52-22.26,2.48,6.27-3.22-10.04-5.28,4.35-1.11,8.29-1.6,12.01-2.02-4.06-.41-7.99-.98-11.71-1.73.21.1.36.19.53.29l.1-.02s-.02.05-.02.08c1,.59,1.34.97.23.65-.07.07-.34.11-.46.13-.11.73-.49,1.38-.9,2-6.54-.72-1.1-1.29.9-2,.06-.26.22-.51.23-.78-.02-.03-.06-.04-.09-.06l-11.13,2.02-5.56,1.01-5.55,1.1c4.78.33,10.71-.09,21.21-1.26Z"/>
      <path class="cls-1" d="M2772.71,59.07c-.69-.45-.67-.81-.72-1.19-1.43.66-1.97,1.1.72,1.19Z"/>
      <path class="cls-1" d="M2763.53,56.11c1.61-.75,2.93-2.84,8.19-2.4,4.58,1.47,0,2.48.26,4.17,3.14-1.43,11.06-3.9,1.09-6.24l-1.57.73c-8.97-1.62-20.64-7.87-19.09-8.61,2.71,4.61,5.09,7.88,11.11,12.34Z"/>
      <path class="cls-1" d="M2711.32,47.34l-18.48,3.2,9.63,4.13-.59-2.67c10.59.68,8.19-2.55,9.43-4.66Z"/>
      <polygon class="cls-1" points="2608.69 36.98 2610.75 31.35 2600.57 39.82 2608.69 36.98"/>
      <polygon class="cls-1" points="2584.51 39.65 2584.99 34.83 2578.84 38.27 2584.51 39.65"/>
      <path class="cls-1" d="M1259.97,114.77l-5.56.99c2.62-.25,4.31-.59,5.56-.99Z"/>
      <path class="cls-1" d="M1299.54,117.51l1.1-2.29c-1.9,1.2-2.71,2.11-1.1,2.29Z"/>
      <path class="cls-1" d="M2016.08,3.92c-10.11-2.66-21.9-6.42-19.38-1.58l4.02,4.29c2.95-1.23,5.66-2.01,8.22-2.41,2.6-.37,4.92-.46,7.14-.3Z"/>
      <path class="cls-1" d="M1623.22,91.36c.78.48,1.58.99,2.38,1.49,1.84-1.85,3.57-3.57,5.11-5.18-2.25,1.15-4.81,2.39-7.49,3.69Z"/>
      <path class="cls-1" d="M1618.56,113.1l-10.63-2.95c2.4,1.08,5.82,2.07,10.63,2.95Z"/>
      <path class="cls-1" d="M1043.72,98.97l-7.05,4.4c9.95,1.31,5.92-1.93,7.05-4.4Z"/>
      <path class="cls-1" d="M2338.23,75.67c-7.2-.77-12.69-.53-17.37.1,4.26.71,8.3,1.82,11.37,2.2,3.12.39,5.32.03,5.99-2.3Z"/>
      <path class="cls-1" d="M1278.91,60.64c-3.35.73-4.82,1.69-4.79,2.86,3.45-.67,5.42-1.54,4.79-2.86Z"/>
      <path class="cls-1" d="M2302.05,79.26c1.22.31,2.38.38,3.61.61,4.58-1.71,9.22-3.29,15.2-4.1-3.14-.53-6.48-.8-9.66-.39-1.6.21-3.19.61-4.73,1.24-1.52.62-3,1.48-4.42,2.64Z"/>
      <path class="cls-1" d="M292.42,93.68c-.52-.3-1.16-.5-1.62-.84-.26.67.49.81,1.62.84Z"/>
      <path class="cls-1" d="M66.37,41.4c1.12-.38,2.62-.76,4.28-1.14,1.66-.38,3.48-.77,5.26-1.06-1.8-.13-4.69.52-9.54,2.19Z"/>
      <path class="cls-1" d="M2486.93,47.85c5.08-.99.74-.67,0,0h0Z"/>
      <path class="cls-1" d="M2514.24,65.17c-1.01.7-1.75,1.53-1.74,2.74.27-1.29.89-2.16,1.74-2.74Z"/>
      <path class="cls-1" d="M2257.07,116.69c-.15,0-.27,0-.44,0,1.54.98,1.28.79.44,0Z"/>
      <path class="cls-1" d="M2494.93,49.21c-2-.39-4.28-.64-6.74-.7,1.11.27,3.16.51,6.74.7Z"/>
      <path class="cls-1" d="M2493.59,46.9c1.79,0,3.2-.04,4.54-.07.54-.94-.1-1.41-4.54.07Z"/>
      <path class="cls-1" d="M2479.83,49.04c2.92-.46,5.68-.56,8.36-.52-1.05-.22-1.51-.46-1.26-.67-1.49.27-3.6.65-7.1,1.19Z"/>
      <path class="cls-1" d="M703.44,83.97c-.35.03-.7.14-1.1.13-1.36,2.15-1.55,2.96-1.26,2.74.3-.23,1.22-1.34,2.36-2.87Z"/>
      <path class="cls-1" d="M1897.04,90.5c.24-.09.34-.24.56-.34-.25-.02-.57-.05-.8-.07l.24.4Z"/>
      <path class="cls-1" d="M1878.92,96.91c7.09-7.45,11.64-7.28,17.88-6.81-2.79-4.65-5.55-9.3-8.26-13.97-3.13,6.94-6.35,13.87-9.62,20.79Z"/>
      <path class="cls-1" d="M1165.17,108.72c4.16,1.97,8.31,4,12.48,5.91-16.31,6.17-27.4,2.35-15.85,10.13,1.7-8.03,14.29-7.1,26.92-6.57,12.62.63,25.23,1.25,26.77-6.79l8.25,4.12c-2.43-.36-2.9.57-5.3.2,7.99,4.57,11.3,1.9,15.24-1.44,3.95-3.38,8.52-7.41,19.1-5.56,7.35,1.73,12.39,4.43,7.19,6.03l16.83-2.94c4.8.63,3.46,3.38-1.33,2.75l12.69.17c4.23.06,8.46,0,12.69,0l-.21.47c3.75-2.38,12.12-5.94,16.19-7.43,6.3,2.64-3.3,1.57-1.76,3.68l14.18-3.28c5.52,4.49-6.27,8.03-15.93,6.96,6.15,8.44,9.13,7.55,14.02,5.92,2.45-.82,5.37-1.83,9.43-1.95,4.06-.15,9.24.7,16.23,3.24l-6.67.82-6.67.72c2.04,2.41,4.23,4.04,6.6,5.23,2.37,1.17,4.92,1.86,7.67,2.47,5.51,1.21,11.84,2.01,19.28,5.12-3.51-3.12-29.57-15.44-14.18-19.03,4.24,1.36,9.89,2.12,18.2-.91-.1,5.79,7.97,4.62,18.02,4.59l-.88,7.65c5.47-.94,8.01-2.39,9.99-4.02,1.98-1.66,3.4-3.48,6.63-5.17,12.08.92,14.5,6.9,17.28,11.94,19.41,1.48-13.26-9.71,9.71-10.85,8.04,1.57,14.91,1.62,22.17.72,7.26-.97,14.91-2.97,24.53-5.3,11.28,2.6-1.96,4.7,2.09,6.88l9.97-6.16c2.45.14,1.67,2.02,1.27,2.97,8.4-2.41.65-7.67,13.83-9.81.87-2.12,3-2.41,5.97-1.81,2.97.57,6.77,1.98,10.99,3.37,8.42,2.77,18.48,5.36,26.55.38,4.08,2.09-1.83,4.74-.53,7.69,11.17-3.39,15.94-4.63,20.21-6.14,4.26-1.57,8.02-3.41,17.06-8l15.86,4.43c-11.74-5.32,2.72-12.7,15.28-18.79-4.19-2.62-7.76-4.92-10.13-5.99,6.75-1.65,13.5-3.23,20.23-4.94,2.52,1.12.6,3.88-2.6,7.25,1.36-.69,2.65-1.41,3.66-2.04,7.44,2.42,3.88,7.06-1.16,11.64-2.57-1.36-5.12-2.92-7.6-4.42-4.84,4.85-9.37,10.2-8.12,14.65,1.3-.94,3.84-1.8,6.65-2.33-1.27,1.31-2.07,2.48-1.42,3.22.73.78,2.81-1,6.08-3.08l5.08,8.34.97-3.46,27.21,3.84c9.4-4.85,18.08-10.63,28.16-15.94,10.07-5.44,21.54-10.34,36.57-13.22-7.06,6.81-.85,10.34-.69,17.78-8.9-7.26-23.38,5.11-39.33,4.59,8.31.3,6.73,3.91,4.71,5.32l27.74-9.21c-.19,6.11,6.33,4.11,13.91,6.07-3.25-5.79,1.85-8.17,9.15-9.67,3.65-.72,7.85-1.37,11.83-2.05,3.98-.69,7.75-1.48,10.53-2.65,1.07,3.96-1.32,8.31-15.4,8.61,16.23,7.61,18.7-15.87,34.5-9.59-3.4.41-5.3-.04-6.46,2.12,7.63-4.29,27.36-3.24,23.14.68l-3.4.39c5.71-.11,12.85-.77,20.42-1.66,7.56-.9,15.54-2.12,22.86-3.64,7.33-1.52,14-3.32,18.98-5.42,4.98-2.13,8.26-4.55,8.8-7.18.39,1.28-1.48,12.58-2.62,14.79,12.15-12.98,24.25-26.1,35.46-39.53-1.03,4.61,2.61,11.52,4.38,18.26,1.76,6.72,1.55,13.36-7.69,17.28,5.67.39,12.81.81,23.96-4.45-4.07-.48-11.59-10.77-6.68-12.45,7.81,3.51,10.54,4.26,13.6,4.79,3.09.47,6.49.78,16.23,2.68-3.08-.2-3.8-4.06-2.71-8.04,1.1-4.01,3.95-8.13,8.29-9.12-.82,2.35,4.36,12.88,1.46,15.15,3.14-3.16,6.21-6.4,9.2-9.64l4.37-4.9c1.43-1.64,2.82-3.29,4.22-4.93-2.23,2.01-1.59,4.81.38,7.36,1.96,2.55,5.29,4.83,8.23,5.84-1.52-.88,3.09-2.37,8.52-4,5.42-1.62,11.67-3.31,14.03-4.75-1.53-.07-3.08-.1-4.66-.12l-4.72-.07c5.82-1.43,9.65-3.64,12.59-6.29,1.46-1.31,2.71-2.76,3.85-4.26,1.14-1.47,2.18-3.02,3.23-4.59,1.06-1.59,2.13-3.09,3.34-4.59,1.21-1.5,2.55-2.95,4.14-4.2,1.59-1.28,3.42-2.46,5.61-3.31,1.09-.44,2.27-.85,3.55-1.16,1.28-.27,2.66-.49,4.14-.63-1.29,1.57-2.43,6.03-1.75,10.13.33,2.05,1.08,4.02,2.37,5.5.65.74,1.43,1.36,2.37,1.8.93.47,2.01.83,3.27.94.51-.9,1.2-2.14,2.06-3.58.86-1.4,1.91-3.04,3.18-4.83.63-.88,1.33-1.85,2.07-2.76.74-.91,1.55-1.85,2.41-2.8.86-.95,1.79-1.92,2.78-2.89.99-.96,2.03-1.84,3.14-2.76,1.11-.9,2.28-1.83,3.51-2.66,1.22-.82,2.5-1.62,3.84-2.38.67-.38,1.35-.76,2.04-1.12.69-.33,1.39-.66,2.1-.97,1.42-.62,2.89-1.22,4.4-1.73,5.97-1.95,12.5-2.74,18.65-1.81.97,1.79,1.88,3.6,2.77,5.38,6.09.95,12.21,2.19,18.15,3.73-1.86.49-4.04.99-6.49,1.55-2.48.59-5.15,1.16-8.02,1.86-5.71,1.36-12.04,3.07-18.09,5.11-6.08,2.11-11.85,4.55-16.75,7.1-4.92,2.61-8.94,5.08-12.03,7.14,1.71.81,2.61,1.62,3.21,2.27.6.64.88,1.15,1.28,1.55.4.4.9.69,1.92,1.02,1.02.33,2.56.51,5.05.99,1.34,2.17-.35,3.26-2.54,3.78-2.21.59-4.96.71-6.29.74.86.21,1.72.32,2.58.59l2.57.7c.86.25,1.72.57,2.57.84.43.14.85.27,1.28.42l1.29.5c3.42,1.25,6.88,2.87,10.38,4.72.51-1.97,2.01-3,4.09-3.49,2.09-.4,4.75-.33,7.47.03.68.08,1.36.15,2.03.23.68.09,1.35.18,2,.27,1.31.17,2.56.25,3.68.27,2.24.03,3.95-.45,4.55-2.04-5.25-1.42-10.4-2.49-15.38-3.21-4.98-.71-9.78-1.1-14.31-.97.33-2.01,1.78-4.1,4.24-5.96,1.23-.96,2.71-1.73,4.4-2.44.85-.35,1.75-.68,2.71-.96.95-.26,1.95-.48,2.99-.67,4.17-.78,9.02-.68,13.99.38,4.97,1.07,10.01,3.22,14.52,6.38,1.54,2.85-1.27,5.33-4.5,7.47-3.25,2.12-6.89,4.02-7.39,5.28,1.84-.53,6.74.86,11.33,2.98,2.28,1.02,4.49,2.26,6.15,3.34,1.67,1.12,2.79,2.14,2.93,2.83-3.38-.56-6.72-1.05-10.03-1.51,8.23,9.03,22.35,2.29,30.75,17.36,2.06,1.72,3.96,6.13,5.87,9.7.96,1.79,1.91,3.36,2.83,4.27.94.91,1.84,1.15,2.69.27-2.83-12.76,11.95-37.17,20.24-40,.58.75,4.86,6.18,9.59,12.07,4.7,5.89,10.04,12.2,11.78,15.45,2.31,5.09-2.26,7.68-7.34,9.89-5.01,2.2-10.38,3.93-8.21,8.55.66-.91,2.44-1.35,4.37-1.6,1.93-.26,3.97-.29,5.13-.22,2.34,2.09,1.11,3.38.8,4.73-.15.67-.06,1.35.88,2.14.47.4,1.15.82,2.11,1.28.98.44,2.26.9,3.89,1.41,1.26-1.7,3.45-1.88,5.83-1.56,1.18.17,2.39.51,3.55.88,1.17.33,2.27.7,3.2,1.03,1.86.66,3.02,1.14,2.57.63-.22-.25-.85-.75-1.97-1.6-.56-.42-1.24-.92-2.06-1.53-.82-.59-1.75-1.33-2.81-2.21,1.61.27,3.03.48,4.29.72,1.26.24,2.37.52,3.38.84,1.01.31,1.92.65,2.8,1.02.88.35,1.73.67,2.59,1.04,1.72.72,3.51,1.53,5.81,2.32,2.3.71,5.12,1.33,8.86,1.84-1.01-1.5-.49-3.22.96-4.99,1.46-1.82,3.85-3.74,6.63-5.51,5.6-3.54,12.66-7.06,18.32-8.21-.33,1.04.14,2.24.87,3.34.73,1.07,1.72,2.03,2.36,2.63,11.99.1,21.29.26,30.41.14,9.11-.17,18.03-.65,29.06-2.64,2.39,1.59,13.46,1.92,9.6,6.24,2.9-2.03,5.28-5.31,11.98-6.81,7.18,2.27,3.49,3.21-.57,4.46-4.06,1.25-8.48,2.75-2.7,5.96-.03-4.88,16.15-9.71,25.21-14.38-4.3-6.66-22.42,2.64-31.5,7.48-.97-4.96,2.22-10.86,8.41-16.64,6.21-5.72,15.47-11.31,26.58-15.74,17.88-5.85,9.08,4.98,12.01,2.98,4.32-.6,8-1.26,11.15-2.15,3.15-.87,5.79-1.9,8.08-3.02,4.57-2.24,7.73-4.82,10.75-7.21,3.01-2.39,5.88-4.57,9.86-6.01,1.99-.71,4.26-1.27,6.97-1.5,2.71-.22,5.86-.18,9.6.19,12.37,4.71,2.42,12.62,5.64,16.85-14.57,4.52-23.53-.49-33.62,1.41l12.93.96c-4.41,2.9-14.07,6.15-19.79,5.2,2.61,1.04,7.54,1.03,13.9.44,6.36-.57,14.14-1.8,22.49-2.85,8.34-1.11,17.21-2.31,25.7-3.14,4.25-.4,8.38-.78,12.33-.88,3.95-.1,7.68-.07,11.09.17,4.43-2.75,12.31-6.01,8.12-8.09l-8.31,1.97c-8.44-4.17,14.96-9.16,3.96-10.21,10.87-5.04,22.94-12.54,39.34-11.26l3.83,6.99c-.57-2.1-10.96-3.21-15.2-.5,6.33-3.97,25.62,7.22,31.9-3.15l-11.77-3.84c5.52-2.46,11.62-6.02,18.17-8.87,6.55-2.8,13.57-4.76,20.82-4.27-7.19-6.64-3.21,1.13-14.2-6.41,4.93,4.89-4.25,5.5-12.72,6.45-8.48.88-16.27,1.75-8.61,6.51-5.72-4.34-10.35-4.89-15.36-5.21-2.5-.16-5.1-.27-7.99-.76-2.89-.49-6.06-1.39-9.72-3.02.71,2.35,5.37,3.99-6.75,4.33-.46.77-1.62,1.83-2.37,2.46-.37-.02-.51-.04-.83-.08.25.06.44.14.7.2-.47.43-.51.51.26.07,2.98.69,5.45,1.66,6.54,2.89-5.26,6.29-24.25,8.53-30.27,12.21-7.23-.24,2.59-3.14-1.62-5.21l-4.5,2.75-4.48,2.83c-1.67-5.2-20.05-6.12-3.8-11.68l-15.07,1.96c-4.64-.85-10.06-1.12-15.22-.77-2.58.18-5.09.51-7.4,1.01-2.31.52-4.42,1.24-6.21,2.1-7.27.02-16.91,8.84-11.43,3.66l-22.95,7.17-.45-1.29c-11.64,1.67-23.12,6.14-35.21,9.46-12.12,3.27-24.76,5.87-38.16,3.3-1.78.66-3.58,1.34-5.47,2-1.88.65-3.83,1.24-5.97,1.79-2.14.56-4.41.98-6.92,1.3-2.53.35-5.25.48-8.26.45l-2.82-4.36c-2.17.62-4.96.79-7.93.77-1.47-.06-2.98-.15-4.49-.26-.76-.06-1.51-.11-2.27-.17-.74-.08-1.47-.16-2.19-.24-1.44-.15-2.84-.28-4.16-.34-1.32-.06-2.5-.17-3.59-.11-2.16.07-3.89.63-4.8,1.75-2.05-3.28-5.43-5.12-9.28-6.5-3.92-1.28-8.33-2.12-12.89-2.86-.58-.06-1.14-.19-1.69-.31l-1.69-.33c-1.13-.23-2.28-.38-3.41-.62-1.13-.26-2.25-.51-3.35-.76-1.13-.32-2.24-.63-3.33-.94-4.39-1.37-8.5-3.13-11.4-5.28l-3.32,5.14c-8.86-5.13-18.54-9.19-32.02-15.47l-2.29,4.94c-6.5-1.75-12.74-7.3-19.83-13.88-7.11-6.55-15.17-14.22-25.39-19.63,2.39-1.04,7.2,2.37,9.93,5.54-8.17-12.18-23.07-17.81-38.57-20.44-7.75-1.35-15.59-1.97-23.09-2.75-7.51-.84-14.76-1.61-21.77-3.84-1.74.52-3.34.88-4.84,1.1-1.51.23-2.87.43-4.22.47-1.33.05-2.61,0-3.87-.12-1.23-.08-2.43-.23-3.64-.42.62-.09,1.16-.26,1.62-.49-.69.02-1.71.14-2.75.28-3.1-.59-6.19-1.08-9.62-1.38,3.02.82,5.75,1.38,8.15,1.59-1.3.17-2.68.5-4.2.85-1.5.37-3.16.76-4.8,1.27-1.64.52-3.34,1.1-5.05,1.72-1.72.62-3.36,1.37-5.03,2.12-1.45-1.62-2.95-3.25-4.42-4.84-.54.23-1,.34-1.55.6-7.38-.17-4.62,4.12.07,7.33-3.17,1.83-5.77,3.88-7.7,5.89-3.92-3.65-7.95-1.55-12.01.56-4.08,2.11-8.29,4.23-13.14.63-1.25,2.98-8.37,6.42-14.94,10.11-6.57,3.69-13.06,7.73-13.42,13.06-.53-1.24-2.43-1.41.74-2.3-6.88.59-13.71.92-19.16,4.96l-4.27-6.63c-4.21,4.16-8.54,8.31-13,12.38-9.85-2.93-13.88-4.99-5.84-11.94-10.07,5.98-14.49,7.35-18.4,8.7-3.95,1.33-7.46,2.61-16.41,8.03l.36-4.83c-6.72,1.03-16.87,8.47-21.41,5.03-4.05-1.83-10.77-2.32-19.2-2.08-4.21.12-8.85.42-13.8.82-2.47.22-5.02.44-7.63.67-2.61.21-5.29.43-8.02.65-10.89.87-22.53,1.83-33.92,2.27-5.7.21-11.33.33-16.78.17-5.46-.21-10.72-.62-15.68-1.31,8.63,13.39-18.6-4.92-19.35,6-2.51-3.13-8.07-4.6-1.96-7.93-19.68,4.8-30.19-3.27-43.4,6.65-2.47-3.19,3.98-5.08,1.84-6.93-1.55.8-6.16,3.23-8.34,1.37-2.13-1.85,2.76-2.94,5.82-4.55-20.25,1.69-21.8,11.99-22.82,21.63-2.64-.99-4.94-1.66-7.02-2.04-2.08-.4-3.93-.48-5.68-.22-3.5.51-6.58,2.36-10.19,5.64-3.74-2.99-9.87-6.03,2.76-7.64-7.17-.19-43.7-2.88-44.21,4.77-2.29-1.9-10-.36-11.86.57-16.04-.12-17.46-.78-33.18.28l4.38,1.16c-6.07,9.36-13.07,2.43-25.75,3.53l.35-.95c-29.15-6.56-12.58,3.25-41.3-4.25l1.55,5.75c-.68,3.1-2.61,4.2-5.39,4.18-2.78-.06-6.4-1.26-10.45-2.71-8.1-2.89-17.91-6.76-26.28-4.5l5.97,3.37c-4.59,2.06-10.9-2.23-17.16-7.25-3.13-2.51-6.26-5.18-9.16-7.37-2.9-2.22-5.59-3.91-7.85-4.36-1.96-1.14,3.17-1.63,5.96-2.34-23.62-8.03-3.26,7.44-21.09,8.65-3.16-4.17,4.51-10.21-7.39-11.33-2.92-1.74-11.67,1.3-21.73,3.73-10.05,2.37-21.42,3.92-29.39-.34,3.44,3.3,6.88,6.6-1.49,8.56-6.36.26-14.78-3.11-23.07-5.38-2.07-.57-4.14-1.05-6.17-1.43-2.03-.39-4.01-.64-5.93-.67-3.83-.06-7.38.75-10.38,3.03-1.56-.96-2.11-1.82-2.13-2.6-9.82,1.91-31.68,2.18-37.92,7.14-3.74-10.28-18.89-9.11-32.99-7.65-14.09,1.47-27.11,3.2-26.14-5.99l-29.73-1.99.96-1.78c-9.41-1.55-15.89-1.4-20.93-.4-5.04,1-8.61,2.73-12.18,4.55-4.24-1.75-.85-3.08-.38-3.99-13.62-3.46-21.12-5.08-28.26-5.04-3.57.02-7.05.46-11.16,1.28-2.06.41-4.27.92-6.73,1.53-2.46.59-5.16,1.24-8.2,1.96l-1.65-6.22c-3.36,1.29-13.04-2.37-25.34-5.95-6.15-1.79-12.96-3.55-19.98-4.68-7-1.24-14.22-1.84-21.22-1.16.36-.62,1.1-1.68,3.36-2.18-7.84.57-16.15-.87-24.42-3.02-4.13-1.08-8.25-2.34-12.3-3.62-4.09-1.31-8.11-2.67-12.03-3.86-15.62-4.82-29.44-7.25-36.61,2.7-7.1.83-14.18,1.71-21.26,2.7,13.22,2.42,11.89,4.67,8.65,6.86-3.26,2.2-8.43,4.41-3.25,6.87-2.62-.02-5.54-.61-8.27-1.48-2.73-.89-5.25-2.07-7.06-3.21-3.62-2.31-4.35-4.62,2.13-4.53l1.89,1.29c2.98-5.34-5.19-7.28-14.01-8.6-8.81-1.36-18.25-1.99-17.67-5.79-26.86-1.24-53.86-2.33-81.17.35-13.63,1.33-27.31,3.67-40.72,7.49-13.4,3.8-26.51,9.08-38.69,16.02,3.33,1.45,6.55,2.9,9.77,4.57-5.54,2.8-10.98,5.87-16.25,9.24-2.64.48-4.97.09-5.26-1.44-.33-1.58,1.59-4.13,7.48-7.79-4.35-.09-8.85,3.93-11.62,8.48-1.41,2.25-2.54,4.45-3.14,6.32-.61,1.86-.83,3.24-.6,3.67-5.67,3.46-8.32,4.45-9.37,3.87-1.05-.57-.47-2.69.71-5.12,2.44-4.81,7.23-10.94,3.87-8.33l-4.25,3.92-2.11,1.96-2.02,2,2.59-.92c-2.3,4.4-2.66,7.29-4.04,10.39-.32.76-.71,1.54-1.19,2.34-.47.8-1.01,1.61-1.69,2.48-1.33,1.69-3.16,3.62-5.63,5.6-3.6,1.92-5.11,1.29-6.13.63-1.01-.7-1.49-1.6-2.63-.96-.18-.25-.49-.31-1,0-.25.13-.55.34-.92.66-.18.16-.38.35-.59.56-.21.19-.43.41-.67.66-3.98,2.15-6.58,2.92-10.8,3.44,2.03,1.99,4.19,3.81,6.63,5.44-2.25,2.61-5.97,3.16-7.84,3.84-.96.33-1.46.76-1.2,1.54.13.39.46.87,1.04,1.46.58.61,1.41,1.31,2.55,2.12-3.4-2.53-8.69-3.83-15.9-5.29-3.59-.71-7.68-1.44-12.14-2.15-4.5-.74-9.27-1.43-13.95-2.02-4.7-.59-9.36-1.18-13.77-1.74-4.41-.57-8.58-1.05-12.29-1.62-7.42-1.12-13-2.2-15.02-3.46-6.87,1.45-13.53,1.61-20.43,1.02-6.9-.67-14.05-2.04-21.94-3.77,3.69,2.13,4.72,10.23-8.86,6.82,7.87-14.89-23.86-11.43-32.82-24.94,8.51,9.43-39.39-5.55-25.86,8.11-11.23-3.46.43-6.04-7.58-11.42-14.25.47-29.14-3.39-44.85-7.8-7.83-2.23-15.92-4.52-24.16-6.57-8.29-1.96-16.73-3.72-25.44-4.53-.86,2,4.36,6.1-3.49,8.03l-8.24-6.65-8.33-6.57c-3.49.01-5.5,2.79-8.06,4.44-2.55,1.63-5.65,2.18-11.41-2.28,1.53,2,3.79,5-.87,5.06-16.54-4.87-33.73-7.5-51.14-9.04-4.36-.35-8.74-.64-13.12-.91-4.38-.27-8.8-.34-13.2-.49l-6.61-.18c-2.2-.06-4.42-.03-6.63-.04-4.42-.01-8.85-.03-13.28-.04-4.44.06-8.87.13-13.31.19-2.22.03-4.44,0-6.66.06l-6.67.15-6.67.08c-2.22.02-4.45-.02-6.68.06-4.46.1-8.92.13-13.38.08l-3.35-.05-3.36.02c-2.24,0-4.48-.02-6.73-.06-4.49-.08-9-.32-13.53-.4-4.53-.15-9.08-.4-13.67-.79-4.58-.27-9.19-.59-13.85-1.09,10.29,2.53,3.9,3.94-3.37,5.23,4.91.22.76,5.16,2.18,7.83-2.55-.31-5.08-.46-7.63-.64l-7.67-.52c-2.57-.16-5.15-.36-7.73-.48l-7.74-.2c-1.75,4.54-9.52,6.33-16.89,8.65-3.7,1.09-7.33,2.16-10.09,3.46-2.74,1.33-4.57,3.01-4.73,5.04l4.26-2.12,4.32-1.94c-4.73,6,.99,9.55,7.74,13.14,6.79,3.58,14.58,7.2,15.18,13.05,2.54-3.22,6.18-4.43,10.41-4.71,2.12-.12,4.37-.09,6.75.18,2.38.28,4.85.65,7.36.98,5.03.66,10.2,1.07,15.35.51,2.57-.32,5.11-.97,7.61-2.09,1.25-.56,2.49-1.25,3.72-2.06,1.24-.77,2.47-1.68,3.68-2.74,4.98,1.77-3.52,4.15-.66,6.49,2.34-2.76,5.13-4.59,8.87-5.64,1.87-.51,3.97-.88,6.38-.96,2.42-.06,5.13.06,8.2.36l-1.26,1.33c2.11-.25,4.15-.48,6.13-.67,1.98-.2,3.89-.38,5.76-.44,3.74-.17,7.26-.24,10.64-.25,1.69,0,3.35,0,4.98.05,1.64.1,3.26.19,4.86.29,3.21.22,6.36.48,9.53.78,3.17.26,6.39.74,9.72,1.18,3.32.44,6.75.9,10.39,1.38,3.63.54,7.46,1.1,11.58,1.71,2.05.28,4.18.56,6.39.86,2.21.33,4.5.66,6.88,1.02l-2.55-5.84c8.25,1.24,9.87,3.11,13.64,4.76,10.09-8.03-23.2-1.83-14.03-10.81,2.63,3.05,7.58,4.79,13.64,5.91,6.07,1.23,13.26,1.85,20.34,2.59,7.08.85,14.05,1.63,19.61,3.26,5.56,1.62,9.71,3.87,11.16,7.35,6.34.78,5.62-.9,4.9-2.68-.73-1.76-1.46-3.51,4.92-2.62l2.92,3.98,3.83-4.11c2.07.47,3.85,1.13,5.35,1.9,1.5.79,2.72,1.7,3.68,2.64,1.92,1.88,2.78,3.89,2.72,5.41-1.97-.65-5.87-.02-8.07-.06,5.11,2.86,12.75,3.62,19.58,3.92,6.84.37,12.86.25,14.61,1.22l-11.89-4.11c17.63,1.03,36.94,4.72,56.2,8.05,19.26,3.33,38.53,6.38,56.17,6.04l-2.08-3.13c26.86.04,20.2,6.88,49.22,9.94l-1.16.44c6.2-1.55,14.11-1.51,21.89.2-3.89.89-.76,3.01,2.09,5.12,2.85,2.1,5.44,4.17.36,5.06,29.38-.33,14.83-1.66,35.23-8.39l3.63,5.1c7.05-3,7.91-4.98,22.47-3.97-6.19,1.04-4.14,3.04-2.28,5.19,1.86,2.12,3.54,4.41-3.49,5.93,7.26,3.52,13.86,5.02,19.8,5.61,5.97.52,11.29.07,16.05-.28,4.72-.35,9.09-.68,13.21.02,4.14.69,7.99,2.38,12.2,6,4.34-3.06,4.33-5.06,2.33-6.3-2.03-1.23-6-1.88-10.02-2.4-8.08-1.06-16.25-1.44-12.14-2.26-6.16-4.85,12.57-7.44,22.84-6.48,2.61.05,5.08.94,7.92,2.19,2.84,1.21,6.04,2.79,10.14,3.9,4.07,1.08,9.16,1.72,15.23.63,3.04-.52,6.16-1.5,9.37-2.9,3.13-1.43,6.39-3.3,9.38-5.64-2.47,1.78-2.14,2.66-4.8,4.43,5.97-2.1,9.72-6.53,13.21-10.66,3.51-4.16,6.88-8.18,12.5-9.89-.35-4.74,2.11-6.81,4.1-8.58,1.99-1.8,3.36-3.56,1.15-7.77-1.24,1.15-2.38,2.41-3.57,3.61-1.17,1.23-2.37,2.36-3.51,3.65-2.3,2.52-4.66,5.23-7.17,8.07,1.92-2.64,3.33-5.55,4.7-8.54,1.33-2.99,2.78-5.96,4.6-9.06.89-1.57,1.99-3,3.2-4.43,1.23-1.41,2.54-2.87,4.13-4.12,1.59-1.24,3.36-2.4,5.33-3.46,1.98-1.04,4.26-1.8,6.7-2.48-.19,1.22-1.22,3.11-2.5,5.07-.64.97-1.32,2-1.99,3.02-.67,1-1.34,1.94-1.95,2.77,3.09-.34,4.98-2.22,7.11-3.92,1.04-.87,2.1-1.75,3.29-2.44,1.18-.7,2.58-1.07,4.18-1.11,1.45,4.58-3.55,7.75-9.4,11.87-.73.51-1.48,1.04-2.24,1.57-.76.53-1.54,1.06-2.25,1.67-1.46,1.19-2.92,2.42-4.28,3.71-1.35,1.29-2.49,2.78-3.5,4.23-.99,1.48-1.8,2.98-2.28,4.65,1.72-.22,3.33-1.41,4.83-3.03.75-.81,1.47-1.72,2.16-2.64.73-.88,1.45-1.73,2.11-2.52,1.34-1.56,2.52-2.79,3.44-2.85.96-.02,1.55,1.01,1.9,3.96-.24-3.84.91-6.35,2.68-8.29.87-.99,2.02-1.68,3.22-2.34,1.21-.65,2.53-1.22,3.89-1.79,1.38-.53,2.85-1,4.29-1.6,1.45-.57,2.86-1.3,4.32-2.05,1.44-.78,2.84-1.75,4.18-3,1.34-1.25,2.68-2.65,3.91-4.51l1.24,5.64c.88-.81,2.12-2.35,3.73-3.74,1.61-1.37,3.53-2.72,5.55-3.36-1.64,3.2-3.19,6.32-4.61,9.46,2.09-2.41,4.6-3.79,7.28-4.5,1.36-.32,2.76-.5,4.17-.58s2.82-.11,4.27,0c1.43.08,2.86.16,4.28.24l2.1.06c.71.03,1.41.04,2.1.02,2.78-.06,5.42-.59,8.03-1.88-2.88.5-5.07.93-6.81,1.11-1.74.19-3.01.17-3.93.03-1.82-.25-2.29-1.15-2.38-2.29-.21-2.28,1.23-5.54-4.23-6.27,1.69-.92,3.24-1.72,4.71-2.33,1.48-.58,2.84-1.03,4.1-1.37,1.26-.33,2.42-.57,3.5-.67,1.09-.08,2.09-.08,3.02.01,1.86.17,3.43.65,4.86,1.31,1.45.69,2.76,1.56,4.1,2.46,1.33.9,2.68,1.84,4.2,2.68,1.52.85,3.24,1.67,5.28,2.24,1.02.29,2.12.52,3.32.69,1.21.18,2.54.33,3.98.38,1.45.06,3.02,0,4.75-.1,1.74-.08,3.64-.26,5.71-.54-2.23.53-6.52-.14-9.38-1.14-2.87-1.05-4.4-2.65-.95-4.26,6.49.57,15.14,2.48,19.13,5.37,11.19-.72,10.39-2.13,7.88-3.89-2.49-1.74-6.71-3.76-1.82-5.54,3.92,3.41,6.71,2.8,9.87.99,3.15-1.83,6.7-4.64,11.92-5.57l-.2,5.79c3.3.65,5.89.95,7.95,1,2.06.07,3.6-.1,4.78-.47,2.35-.72,3.27-2.14,4.11-3.55.84-1.41,1.6-2.77,3.65-3.39,2.05-.6,5.41-.5,11.41,1.26l-5.54,3.47-5.47,3.55c4.24-.35,8.52-.6,12.8-.86l-3.27,6.29c3.52-.89,6.46-1.39,9.06-1.64,2.6-.25,4.87-.24,7.12.02,4.48.48,8.84,1.83,15.48,3.67-2.59-4.47,3.2-10.2,15.37-8.57,7.75,4.65-5.45,4.71,11.85,6.54-4.44,2.98-9.35,6.8-16,.44-1.04,1.75-4.33,3.03-5.37,4.77,8.22,5.17,22.06,4.24,28.31,5.19-2.36-.59-5.17-1.35-6.51-2.4l26.38-3.97c3.65,2.76.21,4-3.2,5.21,5.25.17,9.22-1.91,16.85-1.25-2.68,4.35-2.95,9.22-14.03,9.77l25.05-1.45c1.31,2.27,11.62,7.46,8.22,8.69,3.27,1.2,7.05,1.55,11.15,1.5,4.11-.09,8.54-.63,13.1-1.11,9.12-.96,18.75-1.74,27.44,1.28,1.05-.78,3.02-1.39,6.91-1.55,4.16.82,8.16,1.96,12.16,3.05,4,1.06,7.99,2.16,12.1,3.03,8.23,1.74,16.98,2.6,27.31.57l10.38,9.71c7.93-.03,4.38-3.13,2.15-6.22-1.11-1.55-1.89-3.1-.75-4.27,1.14-1.18,4.2-1.92,10.79-2.08,18.69-.83,6.12,7.84,12.35,10.83,4.81-1.66,11.41-4.24,18.83-5.34,3.71-.55,7.63-.73,11.63-.25,4.01.48,8.1,1.68,12.19,3.71-5.76,1.16-10.03-.62-15.33-.49ZM1358.65,117.57c-3.79,1.08-11.42,4.66-14.02,1.07,4.53-6.4,7.7-3.2,14.02-1.07ZM1652.05,101.03c-2.67,2.07-7.01,1.36-11.96-.56,3.49-.67,7.47-.68,11.96.56ZM2431.58,60.28c-.15.12-.25.2-.36.34-8.65-1.01-5.57-.57.36-.34ZM2449.19,60.25c1.62-1.05,1.38-1.83.54-2.52-1,1.63-4.85,2.29-9.32,2.53,1.45,1.32,3.82,2.03,8.78,0ZM639.46,86.53c.93,0,1.91-.16,2.89-.24-3.62,4.69-3.13,2.41-2.89.24Z"/>
      <path class="cls-1" d="M1619.21,110.58c-1.1-.94-1.44-2-1.73-3.08-1.43,1.03-1.41,2.15,1.73,3.08Z"/>
      <path class="cls-1" d="M1045.02,98.16c-.19-.07-.39-.08-.58-.14-.37.3-.58.63-.73.96l1.3-.81Z"/>
      <path class="cls-1" d="M2180.32,124.33c-1.65-1.24-2.86-2.34-3.76-3.33-.89-1-1.45-1.91-1.86-2.73-.82,1.15.17,3.09,5.62,6.06Z"/>
      <path class="cls-1" d="M2539.74,39.05l-10.97,2.71c5.35-.87,7.41.18,10.22.79-.39-1.32-2.72-3.03.75-3.51Z"/>
      <path class="cls-1" d="M2638.94,66.47c1.56-.82,3.41-.32,4.95-1.16l-.61-2.65c-6.86.67-11.5,3.18-4.34,3.81Z"/>
      <path class="cls-1" d="M2551.98,57.07c.68,2.39,2.71,2.93,5.53,2.77,2.82-.17,6.42-1.14,10.26-1.94-.46.06-.9.14-1.37.12.82-3.5-.78-4.49-3.59-4.25-2.81.27-6.83,1.69-10.82,3.29Z"/>
      <path class="cls-1" d="M2569.55,57.57c2.37-.44,4.79-.79,7.15-.77.66-2.8-2.96-.3-7.15.77Z"/>
      <path class="cls-1" d="M2470.63,53.96c3.85.77,1.49-6.47,3.83-4.77,1.65-3.34-4.26-.69-8.09,2.06-1.92,1.36-3.31,2.81-3,3.5.31.68,2.32.65,7.25-.79Z"/>
      <path class="cls-1" d="M2559.83,72.4l-3.36-5.73-3.83,5.29c2.39.13,4.79.25,7.19.44Z"/>
      <path class="cls-1" d="M2498.6,74.84l12.48.09c-.3-.97,1.18-1.78,3.05-2.42-7.6.7-16.04.62-15.53,2.34Z"/>
      <path class="cls-1" d="M2514.13,72.5c3.96-.31,7.71-.85,9.79-2.07-2.13.3-6.71,1-9.79,2.07Z"/>
      <polygon class="cls-1" points="2543.22 75.98 2539.46 75.12 2530.74 75.63 2543.22 75.98"/>
      <path class="cls-1" d="M2366.85,93.69l-12.98,4.14c-.97,2.28,2.87,2.85,7.66,1.13,2.92-2,7.71-3.69,5.32-5.27Z"/>
      <path class="cls-1" d="M2409.79,103.05c-3.78-.64-4.24-1.92-6.59-3.54l.81,7.42,5.78-3.88Z"/>
      <path class="cls-1" d="M2371.5,111.35c-.96,2.28-18.06,9.36-1.45,5.83.96-2.26,13.88-6.39,1.45-5.83Z"/>
      <path class="cls-1" d="M2170.17,95.86l3.05,1.66,5.67-10.84c-2.87,3.08-5.77,6.14-8.72,9.18Z"/>
      <path class="cls-1" d="M2017.76,67.36c1.72-.04,3.01-.2,4.01-.45,1-.26,1.64-.51,2.12-.88.94-.72,1.1-1.7,1.22-2.64.12-.94.22-1.86,1.07-2.47.82-.56,2.42-.82,5.39-.37.62-.8.35-1.32-.4-1.69-.75-.36-2.01-.48-3.26-.63-2.48-.33-5.11-.36-3.73-1.95-7.48,4.66-12.18,4.34-6.41,11.08Z"/>
      <path class="cls-1" d="M2024.17,56.28c1.22-.78,2.46-1.53,3.8-2.58-2.22,1.15-3.2,1.91-3.8,2.58Z"/>
      <path class="cls-1" d="M26.1,44.17c-3.75.19-7.53.34-11.31.58,2.68.62,5.35,1.31,7.99,1.98l3.31-2.56Z"/>
      <path class="cls-1" d="M8.8,58.95l-4.91-6.58c-1.33,2.91-2.63,5.82-3.89,8.71,2.19-1.09,6.48-3.22,8.8-2.13Z"/>
      <path class="cls-1" d="M1386.99,134.14l.84-1.85c-1.56-2.08-3.98-2.3-8.85-2.77l8,4.62Z"/>
      <polygon class="cls-1" points="1246.41 121.52 1248.82 121.84 1244.79 114.52 1246.41 121.52"/>
      <path class="cls-1" d="M1127.66,120.15c4.79.77,10.61-.22,15.41.56-10.63.21-15.79-9.42-15.41-.56Z"/>
    </g>
  </g>
</svg>