<?xml version="1.0" encoding="UTF-8"?>
<svg id="Capa_2" data-name="Capa 2" xmlns="http://www.w3.org/2000/svg" viewBox="0 0 910.3 1839.77">
  <defs>
    <style>
      .cls-1 {
        fill: #f582f2;
      }
    </style>
  </defs>
  <g id="Capa_1-2" data-name="Capa 1">
    <g>
      <path class="cls-1" d="M906.49,4.8c6.04-2.01,2.91-3.96,3.63-4.8-9.78,4.4-3.11,5.42-3.63,4.8Z"/>
      <polygon class="cls-1" points="813.67 53.38 814.73 51.45 802.62 61.33 813.67 53.38"/>
      <path class="cls-1" d="M730.39,103.76c5.24-.51,12.41-5.57,20.23-11.56,3.99-2.86,8.16-5.95,12.3-8.8,2.07-1.43,4.14-2.79,6.17-4.04,1.02-.63,2.03-1.22,3.03-1.78,1.01-.54,2.02-1.03,3.02-1.48l3.05-.46,4.72-7.41c-2.24,1.4-4.55,2.88-6.91,4.4-2.35,1.53-4.77,3.06-7.11,4.76-4.72,3.33-9.52,6.73-14.16,10.01-4.69,3.19-9.07,6.49-13.17,9.32-4.1,2.83-7.88,5.26-11.16,7.04Z"/>
      <path class="cls-1" d="M681.94,126.07c3.78-.45-7.98,8.24,10.09-6.98-1.07.55-1.42.66-2.06.96-1.67,1.32-4,3.1-8.03,6.02Z"/>
      <path class="cls-1" d="M689.97,120.05c8.16-6.44-6.39,2.84,0,0h0Z"/>
      <path class="cls-1" d="M653.49,151.11l4.59-5.15c1.53-1.72,3.14-3.34,4.71-5.02-1.46.48-4.65,2.53-6.97,4.19-2.34,1.63-3.97,2.68-2.53.87-10,9.96-7.04,8.9.2,5.1Z"/>
      <path class="cls-1" d="M646.15,162.34l4.83-5.18c-1.25.45-2.77,1.55-4.83,5.18Z"/>
      <path class="cls-1" d="M661.28,146.18c-3.48,3.62-6.87,7.33-10.3,10.98,2.02-.69,3.23.41,4.81-4.93.05,1.94,1.32-1.12,5.49-6.05Z"/>
      <path class="cls-1" d="M668.33,141.39c6.61-4.01,14.64-9.69,5.19.28,4.92-4.23,8.26-7.47,10.28-9.57,2.03-2.09,2.65-3.16,2-3.22-.64-.04-2.6.88-5.56,2.97-2.95,2.1-6.98,5.28-11.91,9.54Z"/>
      <path class="cls-1" d="M729.27,110.83c1.49-.8,3.02-1.53,4.56-2.26l4.58-2.2,6.29-6.24c-1.58,1.56-5.79,3.98-9.44,6.14-1.82,1.08-3.51,2.09-4.65,2.89-1.11.84-1.69,1.45-1.34,1.68Z"/>
      <path class="cls-1" d="M590,207.88c.18,1.35,5.22-1.37,6.9-1.15,2.04-2.69,4.01-5.46,6.13-8.09-4.18,3.15-11.39,9.85-13.03,9.25Z"/>
      <path class="cls-1" d="M596.9,206.73l-9.07,12.14c9.42-9.56,10.5-11.93,9.07-12.14Z"/>
      <path class="cls-1" d="M648.02,168.07c5.33-6.31,10.63-12.7,16.05-19.01-3.33,3.65-6.56,7.4-9.83,11.08-3.24,3.71-6.54,7.35-9.72,11.11,1.13-1.1,2.32-2.13,3.5-3.18Z"/>
      <polygon class="cls-1" points="551.41 250.89 555.07 242.74 548.05 256.81 551.41 250.89"/>
      <path class="cls-1" d="M527.8,281.08c2.19-6.34-7.96,4.91-4.94-1.25-2.98,4.3-5.46,8.51-7.62,12.55-1.08,2.02-2.09,4-3.04,5.94-.89,1.98-1.75,3.9-2.58,5.77,1.04-1.87,2.15-3.74,3.38-5.6,1.27-1.83,2.64-3.68,4.14-5.56,2.99-3.76,6.49-7.65,10.66-11.85Z"/>
      <path class="cls-1" d="M503.81,316.42c2.03-3.75,3.83-7.86,5.82-12.33-2.21,3.98-4.2,8.01-5.82,12.33Z"/>
      <path class="cls-1" d="M570.25,237.49c-.63.22-1.63.47-3.26,1.39-1.62.92-3.77,2.6-6.78,5.59l6.09-2.57c1.16-1.38,2.56-2.87,3.95-4.41Z"/>
      <path class="cls-1" d="M566.51,241.8l-.21.1c-4.21,4.85-7.12,8.21-8.38,9.65,1.08-1.23,3.67-4.16,8.58-9.75Z"/>
      <path class="cls-1" d="M571.26,236.39c-.37.4-.64.7-1.01,1.1.6-.23.9-.42,1.01-1.1Z"/>
      <path class="cls-1" d="M617.56,192.88c-5.13,7.38-16.8,21.45-2.44,10.85,3.03-5.86-5.22.23,2.44-10.85Z"/>
      <path class="cls-1" d="M578.95,233.42l5.57-5.68c1.86-1.89,3.68-3.81,5.62-5.63-.79-.31-3.62.98-1.21-2.74-.85,1.16-1.73,2.29-2.56,3.46l-2.47,3.53-4.94,7.06Z"/>
      <polygon class="cls-1" points="574.46 239.84 578.95 233.42 574.82 237.64 574.46 239.84"/>
      <path class="cls-1" d="M522,295.69c-3.15,6.25-7.32,12.54-12.04,19.64,2.86-3.58,5.7-7.25,8.47-10.94,2.81-3.67,5.67-7.27,8.33-10.87,0-1.57,1.01-5.75-4.76,2.18Z"/>
      <path class="cls-1" d="M543.33,269.24c-.24.42-.6.92-.82,1.31.78-.58,1.32-1.12.82-1.31Z"/>
      <path class="cls-1" d="M465.48,386.43c.37-.33.75-.58,1.14-.9-.1-.18-.21-.32-.3-.53l-.84,1.43Z"/>
      <path class="cls-1" d="M528.12,292.62c2.28-2.57,3.88-4.79,5.12-6.83,1.23-2.04,2.09-3.9,2.96-5.7-1.5,2.08-2.94,4.31-4.51,6.54-1.56,2.24-3.2,4.53-4.93,6.88,0,.71.16.96,1.36-.89Z"/>
      <path class="cls-1" d="M491.93,336.75c2.49-2.66,5.16-5.77,7.9-9.07-2.7,2.4-7.86,7.58-7.9,9.07Z"/>
      <path class="cls-1" d="M540.42,271.85c.18-.3.33-.58.54-.89-1.91,1.37-1.48,1.34-.54.89Z"/>
      <path class="cls-1" d="M540.42,271.85c-1.86,3.04-3.01,5.67-4.22,8.25,2.41-3.41,4.57-6.65,6.31-9.55-.69.53-1.48,1-2.09,1.3Z"/>
      <path class="cls-1" d="M470.47,417.66c-1.88-2.26,3.94-19.34,14.28-31.05,5.63-14.1-7.05-10.26-18.13-1.09.41.5.86.89.41,2.96-.22,1.04-.67,2.49-1.46,4.59-.76,2.12-1.78,4.91-3.26,8.57.98-1.04,2.67-3.37,4.61-6.09,1.97-2.7,4.28-5.71,6.28-8.23,4.02-5.02,6.97-7.92,4.81-1.58-2.24,4.66-3.94,7.88-5.32,10.21-1.39,2.33-2.35,3.83-3.31,4.96-1.89,2.28-3.48,3.22-6.48,7.32,3.52-2.97,1.56,3.44-.43,10.34-.25.86-.49,1.74-.74,2.6-.21.88-.41,1.74-.61,2.58-.37,1.67-.67,3.24-.8,4.56-.27,2.64.09,4.29,1.72,3.85l3.14-8.46c1.09-2.8,2.26-5.57,3.38-8.36.86.07-1.06,6.4,1.91,2.33Z"/>
      <path class="cls-1" d="M482.03,359.73l3.09-5.72c-2.13,3.03-4.13,5.53-6.46,8.18-2.32,2.66-5.05,5.42-8.37,9.15-4.19,10.1-4.4,12.55-3.96,13.65l8.07-13.8c1.31-2.32,2.78-4.54,4.18-6.81l4.25-6.77-.8,2.11Z"/>
      <path class="cls-1" d="M500.83,329.49c-.27,5.93-7.66,19.57.27,13.41,10.18-15.89,5.05-12.52,10.46-22.54-2.13,3.17-3.65,5.44-4.71,7.01-1.04,1.59-1.65,2.45-1.97,2.81-.65.72-.14-.58.45-2.15.57-1.58,1.3-3.38.99-3.72-.16-.17-.58.02-1.4.8-.8.79-1.97,2.18-3.67,4.38,2.81-5.38,5.9-9.85,8.71-14.15-3.45,4.34-6.97,8.41-10.13,12.35.21-.2.36-.33.54-.49l.07-.13s0,.04.02.05c1.04-.9,1.47-1.14.47,0-.02.11-.22.43-.3.57.24.41.23,1.09.19,1.79-5.39,7.1-1.42.74-.19-1.79-.07-.17-.05-.45-.17-.56-.03.02-.06.05-.09.08l-7.75,13.35c-1.28,2.23-2.6,4.43-3.85,6.68l-3.66,6.79c.94-1.33,1.9-2.77,2.94-4.38.51-.81,1.04-1.65,1.61-2.53.58-.88,1.18-1.8,1.82-2.78,2.54-3.91,5.54-8.7,9.36-14.84Z"/>
      <path class="cls-1" d="M608.42,219.83c-.84.49-.97.31-1.17.21-1.08,1.67-1.41,2.38,1.17-.21Z"/>
      <path class="cls-1" d="M598.5,227.58c1.22-1.88,1.61-4.04,6.79-9.01,4.95-3.87,1.02,1.02,1.96,1.47,2.39-3.66,8.89-12.44-1.53-3.65l-1.19,1.84c-2.3,2.03-4.87,4.1-7.43,6.05-2.56,1.94-5.1,3.74-7.23,5.32-4.31,3.11-7.37,4.96-6.8,4.02,2.21-.43,4.19-.9,6.55-1.79,2.36-.9,5.07-2.24,8.87-4.24Z"/>
      <path class="cls-1" d="M547.83,277.5c-2.43,3.48-4.91,6.91-7.28,10.42l-6.99,10.62,9.79-8.77-1.64-.43c9.36-10.96,5.97-9.68,6.12-11.84Z"/>
      <path class="cls-1" d="M462.72,388.25l-1.1-4.52c-.57,2.53-1.16,5.03-1.69,7.57l-1.49,7.63c1.41-3.56,2.73-7.18,4.28-10.68Z"/>
      <polygon class="cls-1" points="447.47 417.96 445.53 415.6 443.15 424.28 447.47 417.96"/>
      <path class="cls-1" d="M473.03,1272.46l-3.06-6c1.32,2.87,2.28,4.69,3.06,6Z"/>
      <path class="cls-1" d="M482.85,1320.78l1.48,1.11c-.97-2.26-1.62-3.15-1.48-1.11Z"/>
      <path class="cls-1" d="M578.29,777.41c-2.58-1.38-5.24-2.88-7.77-4.29-2.54-1.4-5.02-2.57-7.12-3.56-2.11-.96-3.86-1.69-5.06-1.9-1.2-.2-1.81.02-1.62.85.98,1.2,1.94,2.43,2.87,3.7,3.97.66,7.48,1.36,10.55,2.27,3.06.94,5.73,1.93,8.15,2.94Z"/>
      <path class="cls-1" d="M336.05,1176.57c.13-1.06.26-2.15.39-3.25-1.42-2.43-2.75-4.71-3.94-6.75,1.07,3.01,2.21,6.44,3.54,10Z"/>
      <path class="cls-1" d="M349.68,1181.9c.11,4.69.41,9.35.6,14.05.11-3.22-.15-7.73-.6-14.05Z"/>
      <path class="cls-1" d="M287.67,1266.43c-.23,1.4-.4,2.84-.6,4.25-.19,1.41-.37,2.82-.53,4.24,2.92-5.49,3.47-7.16,3.12-7.72-.35-.56-1.58.04-1.99-.77Z"/>
      <path class="cls-1" d="M386.12,753.09c3.39,9.87,7.29,17.15,11.07,23.18-1.37-2.76-2.44-5.57-3.49-8.09-1.01-2.56-1.85-4.96-2.71-7-1.58-4.2-3.07-7.11-4.87-8.09Z"/>
      <path class="cls-1" d="M509.75,1283.68c-1.65-4.61-2.86-6.43-3.45-6.13.88,2.34,1.65,4.16,2.23,5.25.55,1.1.96,1.46,1.22.87Z"/>
      <path class="cls-1" d="M414.61,799.38c-.88-1.54-1.87-2.92-2.78-4.47-4.96-5.29-9.76-10.95-14.64-18.63,3.89,8.28,9.57,17.07,17.42,23.11Z"/>
      <path class="cls-1" d="M269.22,1444.95c-.26-.72-.66-1.54-.87-2.21-.47,0,.04.92.87,2.21Z"/>
      <path class="cls-1" d="M83.4,1200.92c1.41.69,3.15,1.78,5.08,2.98,1.92,1.21,4.01,2.53,6.05,3.81-.93-.72-2.22-1.61-4.02-2.73-.9-.56-1.93-1.18-3.1-1.86-1.17-.68-2.48-1.45-4-2.2Z"/>
      <path class="cls-1" d="M395.86,542.03c1.86-6.86,0-1.18,0,0h0Z"/>
      <path class="cls-1" d="M418.09,513.33c-.21,1.51-.18,2.71.44,3.12-.52-.79-.61-1.86-.44-3.12Z"/>
      <path class="cls-1" d="M477.47,836.28c.15.14.27.25.44.4-1.16-1.8-.96-1.48-.44-.4Z"/>
      <path class="cls-1" d="M400.41,532.27c-.6,1.2-1.22,2.51-1.85,3.9-.61,1.4-1.18,2.9-1.77,4.46.65-1.33,1.68-3.9,3.62-8.36Z"/>
      <path class="cls-1" d="M398.58,533.19c.89-2.28,1.59-4.08,2.26-5.79-.19-1.01-.75-.36-2.26,5.79Z"/>
      <path class="cls-1" d="M393.17,551.55c1.12-3.9,2.35-7.49,3.62-10.91-.6,1.27-.93,1.78-.92,1.39-.57,2-1.37,4.83-2.7,9.52Z"/>
      <path class="cls-1" d="M262.37,1729.05c.09.45.24.95.32,1.45,1.93,2.88,2.62,3.61,2.38,3.11-.23-.5-1.3-2.28-2.7-4.56Z"/>
      <path class="cls-1" d="M414.72,837.23c.19-.24.25-.4.43-.61-.25.17-.54.41-.75.57l.33.03Z"/>
      <path class="cls-1" d="M401.02,855.59c.81-2.46,1.69-4.56,2.62-6.42.45-.94.96-1.78,1.49-2.56.52-.79,1.06-1.52,1.62-2.22,2.16-2.86,4.77-4.85,7.64-7.19-3.79-.32-7.73-.58-11.7-.68-.43,3.27-.82,6.45-1.12,9.6-.23,3.22-.43,6.37-.55,9.47Z"/>
      <path class="cls-1" d="M397.18,1196.89c4.38,2.07,8.55,4.53,12.48,7.31-8.71-1.49-15.5-2.3-18.85-2.23-1.67.04-2.45.26-2.13.77.16.26.6.6,1.33,1.04.73.49,1.75,1.11,3.08,1.86.94-2.17,4.56-2.72,9.58-1.63,2.51.5,5.31,1.5,8.26,2.73,2.91,1.33,5.99,2.85,8.93,4.69,5.98,3.53,11.54,7.96,16.06,11.18,4.51,3.24,8.05,5.32,10.18,4.11,1.78,2.98,3.49,5.95,5,9.03-1.68-2.35-2.46-2.3-4.19-4.55,1.13,2.24,2.19,3.99,3.15,5.48,1,1.45,1.92,2.63,2.87,3.58.96.94,1.88,1.71,2.85,2.38.97.67,1.99,1.25,3.01,1.9,2.08,1.27,4.33,2.71,6.75,5.35,2.4,2.65,4.98,6.54,7.21,12.69.18.54.35,1.07.52,1.59.15.53.29,1.07.42,1.58.26,1.03.5,2,.7,2.89.4,1.79.66,3.26.72,4.28.02,2.09-.49,2.27-2.06-.48.8,1.51,1.42,3.12,2.14,4.68.68,1.58,1.44,3.14,2.08,4.74l1.88,4.86.95,2.44.84,2.49c1.1,6-.84,4.85-1.92-1.05,2.67,10.19,4.44,20.75,5.63,31.48l-.3-.21c1.02,2.21,2.13,5.95,3.29,9.78,1.09,3.83,2,7.8,2.6,10.4-.64,4.24-.9,3.18-1.15,1.34-.22-1.84-.58-4.44-1.11-3.35.93,6.06,1.71,12.2,2.37,18.39-1.28,3.74-2.47,1.75-3.27-2.71-.4-2.23-.69-5.09-.96-8.15-.12-1.53-.21-3.13-.26-4.73-.05-1.6-.14-3.2-.14-4.76-2.18,4.29-3.25,7.35-3.52,10.11-.25,2.75.11,5.25.62,8.38.99,6.23,2.45,15.08-1.62,33.57,0-5.86-.03-11.69-.18-17.47-2.95,5.45-4.16,11.54-5.3,18.76-.56,3.6-1.1,7.5-1.82,11.72-.09.53-.18,1.06-.28,1.6l-.14.81c-.02.11-.05.32-.07.36l-.06.08c-.08.09-.14.22-.2.28-.07.03-.14.06-.21.09-.29.1-.64.11-1.05-.02.42.18,1.16.4,2.11.17.12-.04.24-.03.36-.13l.39-.29s.07-.03.11-.1l.12-.35.25-.71.5-1.42c.67-1.88,1.37-3.74,2.06-5.41,2.7-6.63,5.23-10.2,5.67,0-.29,1.41-.57,2.94-.81,4.61-.12.84-.23,1.71-.32,2.62-.04.44-.09.89-.13,1.35-.03.23-.05.46-.06.71-.11,1.73.11,3.61.18,6.67-1.2-.83-1.99-.61-2.74.08-.38.34-.76.83-1.24,1.35-.48.52-1.05,1.1-1.8,1.56-.81.48-1.8.89-2.9.92-.25-1.77-.55-3.55-.9-5.32-1.37.79-2.27,1.31-3.17,2.05-.91.68-1.8,1.5-3.71,1.37-.66-.55-1.2-1.11-1.62-1.66l-.16-.21c-.12-.14-.25-.28-.37-.41-.24-.28-.48-.55-.71-.82-.46-.54-.88-1.06-1.27-1.56-1.56-2-2.61-3.72-3.32-5.23-1.47-3-1.47-5.38-1.68-7.66-8.13-8.71-6.27-4.85-4.86-1.18.7,1.83,1.29,3.62.4,3.71-.45.04-1.27-.34-2.63-1.37-1.35-1.04-3.34-2.62-5.79-5.31-1.54-2.05-3.06-3.98-4.58-5.83-.38-.46-.76-.92-1.13-1.37-.36-.47-.72-.94-1.07-1.41-.72-.92-1.44-1.83-2.15-2.74-1.44-1.8-2.89-3.54-4.38-5.26-1.44-1.76-2.85-3.55-4.35-5.32-1.51-1.77-3.03-3.56-4.6-5.4-1.52-1.89-3.09-3.82-4.75-5.82-.83-1-1.68-2.02-2.55-3.06-.86-1.05-1.68-2.16-2.55-3.28-1.74-2.25-3.55-4.61-5.47-7.09-2.93-6.76-2-6.53-.55-5.28,1.45,1.25,3.42,3.52,2.71.93l-4.7-4.73c-1.57-1.59-3.17-3.17-4.66-4.84-1.37-2.87.07-2.46.8-2.26-3.1-4.53-4.21-4.24-5.65-4.64-.71-.21-1.55-.58-2.7-1.87-1.14-1.3-2.64-3.49-4.77-7.31-1.62-.55-3.01-3.03-4.2-6.8-1.21-3.76-2.47-8.67-3.64-14.16-2.62-10.88-5.25-23.79-11.27-33.21-.34-5.48,3.36,1.63,4.55-.46-6.14-13.52-8.36-19.54-10.71-24.81-1.11-2.66-2.21-5.16-3.72-8.4-.74-1.62-1.64-3.42-2.59-5.55-.97-2.13-2.07-4.56-3.36-7.41l-.46-5.26-.36-5.27c-.22-3.52-.53-7.01-.66-10.52-.13,3.93-.58,5.72-1.47,5.95-.86.23-2.1-1.1-3.49-3.46-1.37-2.36-2.93-5.74-4.56-9.57-.83-1.91-1.62-3.95-2.39-6.02-.77-2.08-1.55-4.2-2.32-6.28-.68,5.71-1.35,10.65-1.38,13.89-2.46-9.03-4.75-18.13-6.84-27.29.24-3.46,2.17-.86,4.68,3.4-.64-1.83-1.26-3.57-1.8-4.91.09-5.06,1.08-6.39,2.32-5.61.64.39,1.36,1.3,2.15,2.54.81,1.23,1.67,2.78,2.54,4.45-.38,3.46-.86,6.92-1.28,10.29,3.82,6.35,7.83,12.1,10.18,10.25-.8-1.67-1.8-4.99-2.67-8.68,1.02,1.63,1.86,2.64,2.16,1.76.34-1-1.19-3.64-2.95-7.92l4.04-6.89-2.18-1.21c-.2-2.98-.3-5.98-.4-8.97l-.31-8.96-.13-8.96-.07-4.47.03-4.47c-.88-3.12-1.8-6.2-2.74-9.27-.89-3.09-1.78-6.17-2.67-9.28-.45-1.56-.9-3.13-1.36-4.72-.42-1.59-.84-3.2-1.27-4.82-.83-3.25-1.71-6.59-2.47-10.06-3.09-13.88-5.48-29.88-5.53-50.58,3.19,10.4,5.87,2.45,10.18,3.23-2.59,5.44-2.32,13.4-1.52,22.55.46,4.57.96,9.44,1.47,14.5.25,2.52.46,5.09.59,7.68.06,1.3.11,2.6.13,3.91.05,1.31.07,2.62.06,3.94,0-5.5.68-7.66,1.32-8.09.66-.43,1.38.85,1.77,2.23-.8-6.21-1.66-12.44-2.28-18.7-.73-6.25-1.24-12.52-1.79-18.81,3.48.95,2.93-7.88,4.92-17.56-3.74,3.5-4.47-3.56-4.33-13.44.16-9.81,1.76-22.33,1.9-30.02,1.23-.29,2.31.57,2.66,3.75.16,1.59.21,3.77.02,6.68-.22,2.91-.57,6.57-1.2,11.14.93-2.46,1.54-4.72,1.92-6.83.4-2.11.59-4.07.6-5.94,0-3.75-.49-7.12-1.09-10.53-.56-3.4-1.05-6.81-.97-10.57.2-3.74.91-7.86,3.13-12.52-.95,4.43-1.73,6.77-.91,8.76-.09-5.4,1.86-14.34,3.97-21.05,2.19-6.69,4.42-11.16,4.59-7.97l-1.13,4.34c2.1-7.16,4.93-16.11,8.23-25.47,3.29-9.37,7.12-19.12,10.94-28.01,3.81-8.9,7.71-16.87,10.47-23.1,1.46-3.06,2.52-5.77,3.26-7.86.74-2.08,1.03-3.65.74-4.54.4.1,1.3,1.94,2.12,4,.82,2.06,1.54,4.3,1.58,5.37,2.01-8.96,4.65-17.95,8.08-26.9l2.73-6.69,3.09-6.61c.51-1.13,1.08-2.21,1.66-3.29l1.76-3.27c.6-1.09,1.17-2.21,1.81-3.29l1.95-3.2c-.31,3.55,5.18,4.65,8.31,7.32,1.58,1.32,2.61,3,2.24,5.4-.18,1.2-.73,2.56-1.7,4.19-.93,1.68-2.3,3.6-4.23,5.81,2.76-1.96,5.72-4.27,9.42-7.06.92-.7,1.83-1.52,2.85-2.29,1.02-.77,2.08-1.6,3.18-2.51,2.16-1.88,4.68-3.72,7.37-6.04-2.09.93-5.49.93-7.81.27-1.14-.3-2-.78-2.26-1.46-.26-.68.07-1.57,1.4-2.54,2.25-.64,4.14-1.17,5.76-1.62,1.6-.44,2.97-.72,4.13-1.04,1.16-.3,2.14-.58,3.04-.86.45-.14.88-.28,1.3-.42.43-.12.86-.24,1.3-.36,1.72-.5,3.55-1.04,6.27-1.84,1.38-.31,2.99-.65,4.91-1.04.96-.19,1.99-.41,3.12-.6,1.14-.14,2.38-.3,3.72-.46-3.37.63-4.08-1.53-2.49-4.35.8-1.4,2.17-3,4.05-4.43,1.92-1.31,4.34-2.49,7.1-3.22-1.37,1.65,2.91,7.4-.65,9.3l2.96-1.88,1.5-.95,1.54-.83,6.28-3.37c1.05-.6,2.16-1.02,3.25-1.53l3.31-1.48,3.35-1.49c1.13-.46,2.28-.85,3.43-1.28-3.48.99-3.56,2.67-2.04,4.32,1.53,1.65,4.61,3.28,7.67,4.14-.36-.16-.27-.31.18-.46.45-.14,1.26-.29,2.35-.33,2.18-.09,5.42-.18,8.98-.12,1.79.1,3.65.2,5.5.3,1.85.09,3.68.16,5.41.37,3.45.35,6.47.52,8.31.56-1.89-.55-3.8-.96-5.71-1.46l-2.88-.72c-.96-.25-1.92-.48-2.89-.65.97.05,1.91.15,2.82.26.91.09,1.8.17,2.65.24,1.72.13,3.33.2,4.86.22,3.05.14,5.77.18,8.26.02,2.5-.2,4.77-.3,6.95-.58,2.18-.25,4.26-.61,6.35-.91,2.08-.25,4.19-.5,6.42-.68,1.12-.09,2.26-.16,3.46-.2,1.19-.03,2.42.03,3.71.1,2.57.17,5.41.42,8.55,1.08,3.12.71,6.61,1.56,10.48,2.96-2.13.07-5.26,1.77-5.87,4.1-.31,1.17-.02,2.51,1.29,3.92,1.29,1.46,3.58,3.03,7.29,4.61,4.16-.64,13.59-2.23,25.77-2.04,6.03.22,12.79.56,19.85,2.28,7.03,1.67,14.37,4.53,21.15,9.22,1.1,1.96,2.14,3.91,3.07,5.93,3.26,2.6,6.41,5.56,9.25,9.02,2.86,3.43,5.37,7.43,7.27,11.9-1.42-1.92-3.21-4.11-5.38-6.28-2.17-2.17-4.73-4.28-7.56-6.2-5.67-3.86-12.41-6.88-19.37-9.13-6.96-2.26-14.17-3.79-20.89-4.9-6.83-1.09-13.22-2.1-18.52-2.94,2.57,1.6,3.98,2.63,4.9,3.39.91.79,1.34,1.29,1.97,1.82.63.52,1.45,1.07,3.13,1.94.84.43,1.9.95,3.25,1.58,1.3.63,2.81,1.35,4.67,2.3,2.07,2.33-.29,1.95-3.72.87-1.66-.52-3.9-1.29-5.88-2.03-2-.75-3.82-1.49-5.01-2.01l9.15,4.62c2.79,1.48,5.51,3.04,8.1,4.68,5.15,3.27,9.87,6.86,13.49,10.56.54-1.1,2.16-.86,4.16.2,2,1.05,4.31,2.92,6.09,4.88,1.83,1.96,3.13,3.98,4.13,5.49,1,1.5,1.77,2.57,2.74,2.23-1.28-4.74-4.29-8.97-8.65-12.92-4.37-3.93-9.91-7.4-15.95-10.34.3-1.2,2.13-1.75,5.08-1.46,2.94.29,7,1.41,11.38,3.75,4.34,2.33,9.03,5.96,12.27,11.12,1.64,2.56,2.78,5.52,3.35,8.67.51,3.15.36,6.55-.5,9.73-1.82,3-3.4.88-4.96-1.13-.85-1.06-1.63-2.11-2.44-2.88-.76-.76-1.42-1.22-1.83-1.16.35.58.63,1.98.51,3.7-.1,1.72-.66,3.78-1.74,5.74-1.05,1.96-2.64,3.79-4.18,5.08-.36.34-.75.62-1.11.87-.36.25-.67.49-.99.66-.63.35-1.12.56-1.41.59,2.22-2.49,3.91-5.06,4.73-7.52-1.81,1.61-3.51,3.28-5.38,5.1-1.87,1.8-3.92,3.7-6.39,5.41-2.47,1.7-5.34,3.23-8.77,4.13-3.42.9-7.4,1.22-11.83.41-3.03.08-7.54-1.41-11.05-2.87-.44-.18-.86-.36-1.28-.54-.44-.18-.87-.35-1.28-.52-.87-.35-1.66-.63-2.36-.82-1.39-.37-2.4-.37-2.78.28,2.34,1.71,4.17,4.1,5.44,6.67,1.19,2.52,2.02,5.31,2.33,7.99.31,2.69.09,5.31-.81,7.46-.88,2.16-2.51,3.82-4.73,4.55-.64-.19-3.34-.99-7.16-2.12-.95-.29-1.96-.59-3.04-.92-1.07-.33-2.16-.79-3.3-1.21-2.26-.87-4.68-1.8-7.14-2.75-2.43-1.01-4.82-2.22-7.16-3.31-1.16-.56-2.3-1.12-3.41-1.66-1.1-.56-2.14-1.19-3.14-1.76-3.99-2.34-7.26-4.27-8.85-5.76-4.61-4.27.48-4.76,5.49-5.37,5.11-.75,10.09-1.46,6.31-4.75-.41.54-2.17.66-4.18.6-1.01,0-2.06-.14-3.02-.29-.96-.15-1.83-.31-2.48-.44-3.07-1.9-1.98-2.52-1.95-3.36.04-.88-1-1.74-7.97-4.91-.55.39-1.4.47-2.44.33-1.03-.15-2.25-.49-3.49-1.05-2.49-1.08-5.19-2.64-7.14-3.79-1.95-1.17-3.1-2.05-2.66-1.51.23.25.85.89,2.03,1.89,1.2.98,2.94,2.41,5.34,4.37-1.76-.77-3.3-1.49-4.67-2.17-.68-.35-1.33-.68-1.94-.99-.6-.34-1.16-.69-1.7-1.03-2.15-1.34-3.89-2.59-5.67-3.9-1.8-1.27-3.55-2.82-5.85-4.53-1.15-.87-2.42-1.8-3.88-2.83-1.44-1.05-3.04-2.25-4.89-3.55.72,1.47-.12,2.15-2.02,2.19-1.88.02-4.9-.48-8.31-1.67-6.9-2.24-15.86-6.63-22.31-11.42,1.5-.3-.16-3.84-.97-5.52-12-10.95-20.35-20.26-28.46-29.36-8.02-9.18-15.72-18.22-24.9-30.04-.37-1.46-2.49-5.24-3.66-8.26-1.24-2.99-1.61-5.16.92-3.26-1.53-1.49-3.15-2.83-5.05-4.73-1.81-1.95-3.95-4.45-6.19-8.39-.66-2.14-.84-3.53-.9-4.25-.03-.73.16-.85.5-.55.34.3.84,1.02,1.42,1.95.59.93,1.32,2.06,2.05,3.22,1.43,2.34,3.14,4.67,4.21,5.6,1.09.93,1.6.4.94-3.01-.72.12-2.1-.88-3.7-2.71-.81-.91-1.73-2.01-2.68-3.26-.91-1.27-1.89-2.68-2.9-4.19-3.97-6.05-7.8-13.84-10.36-19.75-1.55,2.49.53,9.82,4.65,17.45,1.03,1.9,2.12,3.85,3.37,5.71.61.94,1.22,1.87,1.83,2.8.65.9,1.3,1.79,1.94,2.67.65.87,1.27,1.74,1.91,2.56.66.81,1.3,1.61,1.92,2.37.62.76,1.22,1.5,1.8,2.2.6.68,1.17,1.33,1.71,1.95-1.2.82-3.28.52-5.9-.95-1.31-.73-2.78-1.74-4.39-3.02-1.55-1.31-3.25-2.89-5.03-4.74-.86-.94-1.75-1.95-2.66-3.03-.45-.54-.91-1.09-1.38-1.66-.44-.59-.89-1.19-1.34-1.79-.9-1.23-1.84-2.52-2.75-3.88-.88-1.38-1.77-2.83-2.68-4.34-3.51-6.07-6.73-13.33-9.19-21.42-.78-3.25-1.42-5.88-1.72-8-.29-2.13-.43-3.74-.46-4.95-.08-2.41.43-3.21.91-3.33,1.02-.24,2.36,2.19,1.73-.02-.97-12.21-1.3-20.86-1.95-27.71-.24-3.41-.62-6.39-.94-9.09-.3-2.7-.7-5.17-.98-7.56-.27-2.39-.56-4.73-.68-7.19-.1-2.45-.14-5.06.08-7.95.43-5.8,1.71-12.87,4.73-22.48,3.42-7.41,5.39-7.13,6.76-5.46,1.38,1.68,2.41,4.82,4.08,3.4-1.4,10.21-3.4,17.85-5.21,24.75-.47,1.72-.92,3.4-1.33,5.05-.41,1.66-.83,3.29-1.2,4.92-.67,3.29-1.31,6.57-1.54,10.1,1.06-5.72,2.39-11.36,3.77-16.96.09,1.67.1,3.78.03,6.12-.04,2.34-.11,4.91-.28,7.5-.11,2.59-.27,5.21-.52,7.64-.18,2.43-.45,4.68-.83,6.54.52-1.62.96-4.08,1.43-7.2.52-3.12,1-6.91,1.66-11.19,1.25-8.57,3-19.12,5.28-30.32.59-2.8,1.17-5.64,1.81-8.5.68-2.85,1.36-5.73,2.04-8.61,1.4-5.75,2.72-11.54,4.23-17.13,1.6-5.57,3.2-10.98,4.79-16.08.8-2.55,1.57-5.02,2.38-7.38.86-2.34,1.72-4.58,2.56-6.71.65-6.53,2.63-17.64-.34-13.02l-2.83,11.22c-5.99,9.37,2.28-22.12-3.32-8.46.64-3.89,1.14-7.95,1.9-12.1.78-4.15,1.64-8.45,2.67-12.91.52-2.23,1.08-4.5,1.7-6.81.62-2.31,1.29-4.66,2.14-7.01,1.65-4.72,3.6-9.59,5.94-14.61l5.46-2.33c-1.33-.03-7.44,12.56-8.38,18.8.71-4.62,5.04-12.03,8.95-19.65.95-1.92,1.99-3.8,2.92-5.68.93-1.88,1.77-3.73,2.45-5.53,1.38-3.59,2.15-6.96,1.81-9.83l-8.63,13.15c1-3.84,1.95-7.96,2.95-12.26,1.03-4.29,1.99-8.81,3.4-13.28,1.34-4.5,2.84-9.07,4.59-13.61.87-2.27,1.81-4.53,2.81-6.76,1.06-2.21,2.22-4.38,3.45-6.52-3.87,3.11-4.28,4.19-5.01,5.8-.7,1.63-1.73,3.77-6.87,9.16,2.66-2.14,2.67-.33,1.42,3.34-.62,1.83-1.56,4.13-2.65,6.64-1.09,2.51-2.34,5.21-3.42,7.93-4.48,10.81-8.56,20.76-1.85,12.97-2.7,2.77-4.78,5.54-6.57,8.39-1.7,2.88-3.1,5.83-4.52,8.91-1.43,3.09-2.88,6.32-4.67,9.77-.89,1.73-1.89,3.51-2.98,5.38-1.05,1.88-2.22,3.83-3.56,5.87,1.53-.09,4.69-5.44-1.28,10.07.15.84.09,2.68.02,3.84-.21.47-.28.63-.46,1.03.16-.3.29-.52.45-.82-.03.75,0,.82.16-.3,1.85-3.55,3.58-6.34,4.74-7.31.11,2.21-.33,5.41-1.08,9.11-.37,1.85-.84,3.82-1.3,5.87-.43,2.06-.9,4.18-1.39,6.3-.98,4.24-1.96,8.49-2.83,12.23-.83,3.74-1.51,6.97-1.63,9.24-3.15,9.26-.52-4.39-3.34.36l-.96,13.45c-1.67.24-4.67,6.18-6.57,9.29-.94,1.55-1.68,2.38-1.96,1.37-.14-.5-.17-1.46-.06-3.02.13-1.55.48-3.68.99-6.54l-1.37,5.04c-.46,1.68-.82,3.39-1.23,5.08l-2.4,10.17c-1.12,2.9-2.23,6.1-3.3,9.44-.55,1.66-1.01,3.39-1.48,5.12-.46,1.74-.92,3.47-1.3,5.23-1.62,6.98-2.64,13.94-2.8,19.34-.58,2.47-.79,5.37-.92,8.12-.11,2.76,0,5.45.09,7.5.22,4.12.55,5.85-.3,1.26-.48,11.39-.3,22.98.91,34.6l-.77.36c.36,8.66,1.56,17.52,3.83,26.36,2.25,8.84,5.41,17.69,9.29,26.23,7.78,17.12,18.03,32.86,27.93,49.56,3.9,4.13,7.92,8.2,12.52,12.9,4.59,4.72,9.71,10.12,15.81,16.9l.6,4.44c2.66,2.32,5.73,5.46,9.06,8.84,1.66,1.69,3.32,3.49,5.06,5.24,1.74,1.76,3.48,3.52,5.19,5.24,1.69,1.73,3.41,3.35,5.05,4.86,1.64,1.51,3.2,2.91,4.65,4.12,2.91,2.41,5.43,4.03,7.05,4.47,1.78,3.91,6.16,8.62,12.05,13.73,1.5,1.25,3.1,2.52,4.77,3.82,1.68,1.28,3.38,2.64,5.26,3.88,1.86,1.27,3.77,2.55,5.73,3.84.98.64,1.96,1.3,2.97,1.92,1.03.61,2.07,1.22,3.11,1.83,2.09,1.21,4.2,2.43,6.3,3.65,2.14,1.18,4.35,2.27,6.52,3.4,1.09.56,2.17,1.11,3.25,1.66l1.62.82c.55.25,1.1.5,1.65.75,2.19,1,4.36,1.98,6.48,2.95,1.06.48,2.09.98,3.15,1.42,1.06.43,2.11.85,3.14,1.27,2.06.85,4.06,1.67,5.98,2.46,1.89.84,3.81,1.46,5.58,2.16,1.78.68,3.45,1.34,5.01,1.98l2.09-3.02c.54.19,1.06.4,1.6.58l1.64.49,3.28.96c2.19.63,4.38,1.25,6.59,1.83,2.25.47,4.52.92,6.81,1.36,1.15.21,2.3.43,3.45.65.58.1,1.16.22,1.74.31.59.07,1.18.14,1.78.21,2.38.26,4.79.52,7.25.79.61.06,1.23.12,1.85.19l.93.09,1.03.06c1.39.08,2.79.15,4.2.16,5.64.1,11.42-.33,17.47-1.29-.61-.99-1.2-1.99-1.77-2.99,5.03-1.08,10.71-2.16,16.96-3.79,6.23-1.68,13.09-3.85,20.14-7.75,3.52-1.95,7.07-4.34,10.45-7.37,3.37-3.02,6.56-6.72,9.11-11.05,2.56-4.31,4.42-9.25,5.34-14.29.93-4.99.98-10.19.15-15.29.82,1.28,1.49,4.64,1.38,8.59-.07,3.92-1.06,8.38-2.45,11.91,2.6-5.82,3.69-12.18,3.33-18.78-.21-3.28-.81-6.54-1.72-9.67-.92-3.13-2.18-6.07-3.63-8.83-2.93-5.51-6.68-10.12-10.65-14-3.98-3.89-8.22-7.07-12.47-9.85-8.54-5.51-17.18-9.42-25.42-13.04-3.97-1.64-7.77-3.45-11.5-5.25-1.87-.89-3.7-1.83-5.49-2.8-.89-.49-1.77-.99-2.65-1.5-.89-.49-1.76-.98-2.62-1.5-7.74-1.9-13.01-4.09-18-6.69.7.23,1.34.4,1.91.5-.75-.31-1.89-.72-3.08-1.08-3.19-1.55-6.44-3.31-10.1-4.89,3.03,1.65,5.86,3.27,8.42,4.37-1.47-.45-3.13-.93-4.94-1.44-.91-.25-1.85-.51-2.82-.77-.98-.23-2-.46-3.04-.7-2.08-.47-4.25-.93-6.46-1.39-2.21-.46-4.52-.75-6.79-1.1l-3.09-4.17c-.75-.12-1.33-.29-2.12-.37-8.78-2.91-7.47.23-3.23,3.6-2.32-.15-4.55-.26-6.6-.3-2.05-.08-3.98.11-5.65.26-1.6-1.6-3.94-2.49-6.66-3.04-2.75-.43-5.88-.49-9.08-.56-.8-.01-1.6-.06-2.41-.04h-2.43c-1.62,0-3.22-.06-4.77-.22-1.56-.14-3.07-.49-4.52-.79-1.45-.34-2.84-.83-4.14-1.53-1.58.79-5.3,1.17-10.05,2.08-2.38.43-5.01.77-7.76,1.31-2.73.61-5.58,1.24-8.43,1.88-1.42.29-2.81.74-4.19,1.16-1.37.43-2.72.86-4.03,1.29-1.31.44-2.57.87-3.77,1.31-1.19.49-2.31,1.03-3.36,1.54-4.19,2.09-7.18,3.98-7.81,5.88-.53-.62-3.21-.09,1.45-1.76-9.9,2.53-19.73,6.2-26.95,12.09-1.94-.53-3.92-1.05-5.93-1.54-.7.69-1.42,1.35-2.09,2.05l-2,2.15-3.93,4.27-3.67,4.45-1.8,2.21c-.6.73-1.14,1.53-1.71,2.28-6.07,3.11-10.23,5.66-12.06,5.78-1.8.14-1.24-2.07,2.88-7.89-10.93,12.83-14.51,18.32-18.2,23.08-.86,1.23-1.7,2.42-2.59,3.71-.89,1.29-1.81,2.67-2.75,4.34-.96,1.65-2.01,3.54-3.2,5.77-1.11,2.28-2.35,4.93-3.77,8.05l-1.53-2.64c-2.7,4.08-5.31,9.93-7.63,15.28-1.24,2.64-2.26,5.24-3.41,7.35-.56,1.07-1.14,2.02-1.71,2.85-.55.83-1.11,1.53-1.69,2.05-1.79,2.11-3.95,5.18-6.15,9.14-1.12,1.97-2.33,4.13-3.46,6.52-1.14,2.39-2.43,4.91-3.57,7.66-4.8,10.93-9.51,24.59-13.53,39.49-4.07,14.89-7.27,31.04-9.91,46.87-1.25,7.92-2.45,15.76-3.42,23.35-.54,3.81-.96,7.49-1.44,11.09-.5,3.6-.98,7.12-1.44,10.51,4.31-5.07,3.11,1.2,1.61,9.08-.76,3.94-1.43,8.3-1.62,11.81-.19,3.51.22,6.18,1.82,6.74-1.94,3.15-3.05,10.8-4.7,1.91.23,3.5.35,6.79.39,9.89.09,3.1.14,6.02.13,8.8-.06,5.56-.11,10.55-.09,15.28-.02,4.73.2,9.17.79,13.62.3,2.23.67,4.45,1.2,6.71.56,2.25,1.26,4.54,2.12,6.89-1.67,3.35-3.31-5.75-4.22-2.82.61,2.22,2.36,8.74,1.52,11.75-.43,1.48-.93.49-1.5-1.41-.53-1.9-1.08-4.73-1.69-6.91.61,7.17,1.69,12.67,2.8,16.92,1.1,4.25,2.46,7.23,3.84,9.36,2.77,4.26,5.78,5.1,8.67,5.76-.23,3.64-.18,6.81-.07,9.67.14,2.86.4,5.42.9,7.82,1.03,4.78,2.72,8.95,5.41,13.72-.44,2.61-.74,6.05-1.42,6.7-.34.32-.77-.05-1.37-1.59-.57-1.54-1.41-4.22-2.26-8.55.66,4.92,2.79,19.96,5.8,33.71.78,3.43,1.58,6.78,2.37,9.88.78,3.1,1.69,5.92,2.49,8.33,1.64,4.8,3.13,7.88,4.3,7.83-.24,3.29,3.35,13.47,4.69,15.8,3.04,10.71,4.92,16.49,6.72,22.24.96,2.85,1.98,5.68,3.23,9.08.64,1.69,1.28,3.55,2.12,5.58.84,2.03,1.77,4.28,2.82,6.82l-1.55-5.93c2.05,1.53,3.56,3.31,4.78,5.38,1.22,2.07,2.14,4.44,3.15,7.08.98,2.65,1.94,5.63,3.13,8.94,1.23,3.29,2.81,6.87,4.82,10.8l-.71-.22c.43,1.2.85,2.33,1.24,3.42.43,1.07.85,2.08,1.24,3.04.81,1.92,1.53,3.63,2.17,5.17.66,1.54,1.27,2.9,1.82,4.1.58,1.2,1.13,2.23,1.62,3.16,1.98,3.69,3.24,5.49,4.46,7.28,1.19,1.81,2.53,3.51,4.54,7.11,1.02,1.79,2.19,4.07,3.73,7,1.61,2.89,3.54,6.48,5.9,10.99l1.53-3.73c1-.12,2.01.28,3.03,1.1,1.05.81,2.15,2.02,3.28,3.57,2.28,3.09,4.61,7.6,7.62,12.44,5.62,9.93,13.7,21.59,23.12,28.79-.85-1.16-1.59-2.42-2.37-3.64l-2.29-3.67c2.7,1.81,5.07,4.8,7.65,8.13,1.26,1.69,2.49,3.54,3.72,5.48.61.99,1.23,1.99,1.85,2.99.89,1.19,1.81,2.42,2.8,3.62,3.9,4.88,8.87,9.61,14.28,12.9,5.4,3.21,11.15,4.86,15.86,4.7,1.04.04,1.18.16.71.35-.24.08-.63.23-1.14.3-.51.07-1.14.15-1.85.23-2.84.26-6.98.11-9.89-.45,4.43,1.42,8.28,1.95,11.47,1.93.8.05,1.56-.02,2.28-.08.72-.06,1.4-.09,2.04-.18,1.27-.24,2.41-.42,3.39-.68.98-.3,1.82-.58,2.55-.84.73-.27,1.32-.59,1.82-.85,1-.55,1.62-.96,1.95-1.38,1.25-1.59-.63-2.04-.27-3.66.17-.79.86-1.88,2.52-3.63.39-.47.84-.98,1.36-1.54.53-.55,1.02-1.26,1.64-1.96.63-.7,1.19-1.59,1.9-2.48.34-.46.65-.98,1-1.49.35-.52.72-1.05,1.04-1.66,2.54-1.85,2.65.88,3.61,1.73.49.4,1.29.34,2.69-1.33,1.38-1.68,3.53-4.93,5.4-11.55.32-.78.69-1.77.96-3.01.29-1.22.59-2.65.79-4.28.26-1.61.38-3.44.52-5.37.05-.93.09-1.89.12-2.89v-.35s0-.24,0-.24v-.48c-.02-.32-.02-.65-.03-.98-.12-5.28-.5-11.82-.83-18.82-.64-14.03-1.35-29.87.81-41.51-.87,2.58-1.79,5.12-2.67,5.54-.87.43-1.6-1.22-2.37-7.04-.42-8.9.9-21.07.6-33.24-.07-3.04-.27-6.07-.5-9.02-.23-2.96-.74-5.84-1.24-8.57-.48-2.74-1.27-5.32-2.12-7.69-.87-2.36-1.8-4.52-3.07-6.35-.11-2.39.13-3.37.54-3.58-.31-.83-.64-1.73-.99-2.69-.33-.96-.7-1.97-1.14-3.01-.83-2.09-1.73-4.37-2.67-6.76-.94-2.38-2.12-4.81-3.21-7.29-.57-1.24-1.09-2.48-1.72-3.72-.63-1.24-1.26-2.47-1.88-3.7-2.6-4.84-5.42-9.32-8.06-12.9-1.35-1.78-2.61-3.35-3.78-4.63-1.19-1.27-2.25-2.28-3.15-2.96.65-4.26-2.5-10.97-8.19-17.97-1.39-1.77-3.02-3.5-4.68-5.28-1.73-1.73-3.51-3.51-5.45-5.18-1.89-1.72-3.95-3.33-5.99-4.96-2.1-1.56-4.19-3.13-6.36-4.56-8.56-5.87-17.53-10.19-24.05-13.47-1.65-.79-3.14-1.55-4.42-2.29-1.3-.7-2.42-1.37-3.29-2.04-1.72-1.35-2.57-2.53-2.07-3.79-14.47-5.09-30.32-7.29-45.81-5.56l1.11-1.21c-7.48.45-13.67,1.79-18.81,3.31-1.28.41-2.5.81-3.66,1.21-1.16.4-2.24.88-3.28,1.31-1.03.45-2.04.85-2.96,1.32-.92.47-1.8.93-2.64,1.38-1.69.88-3.17,1.83-4.52,2.75-.67.46-1.32.91-1.95,1.35-.62.45-1.19.93-1.76,1.38-1.12.92-2.18,1.79-3.15,2.69-.95.93-1.87,1.82-2.8,2.72-5.94,2.81-2.42-.53-2.25-1.34-9.21,5.08-15.73,9.93-20.9,14.28-5.14,4.38-8.98,8.29-12.28,12.32-1.7,1.98-3.17,4.06-4.7,6.19-1.45,2.18-2.95,4.42-4.38,6.94-2.92,5-5.94,10.88-9.29,18.53l-4.77,1.06c-1.54,4.36-10.24,15.86-18.83,31.81-2.17,3.96-4.33,8.23-6.35,12.58-2.05,4.36-4.14,8.86-5.95,13.52-.93,2.32-1.84,4.66-2.73,7-.87,2.35-1.64,4.74-2.41,7.11-.76,2.38-1.48,4.75-2.16,7.12-.62,2.38-1.19,4.75-1.71,7.1-.25-.48-.64-1.44-.14-4.49-1.21,5.28-2.85,10.69-4.45,16.26-.82,2.78-1.73,5.57-2.63,8.39-.86,2.83-1.76,5.67-2.69,8.51l-1.41,4.26-1.34,4.28c-.91,2.85-1.82,5.69-2.72,8.51-.88,2.83-1.7,5.65-2.53,8.43-.81,2.79-1.68,5.52-2.37,8.25-5.92,21.7-8.82,40.73-3.46,49.29-.14,4.74-.04,9.49-.03,14.21-.02,4.73.19,9.46.31,14.17.49-4.53.93-7.83,1.36-10.17.47-2.33.88-3.71,1.25-4.39.74-1.36,1.31.05,1.86,2.12.25,1.03.54,2.23.81,3.33.29,1.1.6,2.11.91,2.76.63,1.3,1.32,1.16,2.14-2.48-.1,3.54-.57,7.56-1.21,11.34-.65,3.78-1.3,7.34-2.03,9.91-1.42,5.14-2.8,6.37-2.62-2.39l.79-2.69c-1.55-1.71-2.63.23-3.45,4.11-.4,1.94-.77,4.36-1.05,7.05-.24,2.69-.44,5.64-.62,8.64-.09,1.5-.18,3.01-.26,4.5-.06,1.49-.11,2.97-.17,4.41-.11,2.87-.25,5.57-.44,7.88-.36,4.62-.83,7.68-1.97,7.45.57,36,3.43,71.55,9.27,106.19,5.86,34.62,14.79,68.26,27.13,99.99.64-3.07,1.23-6.1,1.96-9.14,2.69,7.36,5.51,14.7,8.62,21.96.68,3.09.67,5.41-.42,5.01-.55-.2-1.37-1.07-2.43-2.9-1.05-1.82-2.46-4.56-4.01-8.52.16,2.35,1.12,5.11,2.48,7.92,1.32,2.82,3.13,5.66,4.91,8.2,1.76,2.54,3.66,4.73,5.09,6.31,1.44,1.57,2.52,2.5,2.84,2.48,3.35,7.65,4.54,10.88,4.19,11.65-.33.77-2.08-.97-4.15-3.41-1.98-2.46-4.3-5.61-5.75-7.6-1.44-1.99-2.12-2.77-1-.42,1.06,2.09,2.27,4.14,3.4,6.2l1.73,3.09,1.81,3.06-1.03-3.08c1.86,2.26,3.4,3.93,4.82,5.46,1.45,1.51,2.82,2.86,4.25,4.49,1.41,1.65,2.99,3.53,4.9,6.1,1.86,2.6,4.22,5.79,7.17,10.09,3.55,5.6,3.97,7.45,3.89,8.41-.09.97-.75,1.09.85,3.21-.15.1.02.53.78,1.52.38.49.9,1.13,1.61,1.93.74.78,1.66,1.73,2.8,2.86,6.86,7.97,14.42,15.37,22.74,22.19-.66-.94-1.28-1.89-1.86-2.83l-1.77-2.82-1.74-2.8c-.58-.92-1.09-1.91-1.63-2.86.72.49,1.42,1.01,2.12,1.52.73.49,1.44.99,2.14,1.49,1.4,1,2.74,2.01,3.99,2.97,2.51,1.9,4.94,3.6,6.71,4.66,1.78,1.05,2.88,1.45,2.79.85-.08-.6-1.36-2.21-3.61-5.3,1.62,2.28,4.42,5.23,9.05,8.07,1.18.69,2.44,1.39,3.87,2.01,1.5.67,3.05,1.21,4.72,1.68,3.33.89,7.06,1.36,10.96,1.12,3.88-.22,7.97-1.21,11.84-2.8,3.76-1.6,7.3-3.71,10.43-6.18,6.32-4.94,11.26-11.05,15.24-17.44,2-3.2,3.71-6.5,5.23-9.83.37-.84.74-1.67,1.09-2.51.34-.84.7-1.7.97-2.47.58-1.59,1.16-3.15,1.73-4.7,2.14-6.23,3.8-12.22,5.07-17.59.59-2.69,1.16-5.22,1.61-7.56.41-2.34.89-4.47,1.18-6.38.32-1.9.64-3.56.9-4.94.24-1.38.47-2.49.7-3.27-.44-9.7-.86-19.1-1.49-28.94-.62-9.84-1.43-20.13-2.95-31.4,0,2.86-1.03,5.27-2.31,4.54-1.31-.73-2.75-4.56-4.18-14.09,5.22,2.68,4.79-6.34,2.79-18.03-.98-5.84-2.38-12.31-3.41-18.37-1.03-6.07-1.75-11.7-1.27-15.97-.12,7.39-4.3-5.83-8.84-17.73-2.24-5.97-4.61-11.59-6.24-14.35-1.65-2.76-2.64-2.61-2.34,3.05-4.59-15.36,3.03-2.09,1.01-14.31-8.19-17.38-15.33-37.17-23.26-57.96-7.94-20.77-16.76-42.54-28.17-63.38-.72-.04-.57,1.9-1.06,2.85-.49.95-1.53.85-4.72-3.2l-3.1-12.49c-1.03-4.18-2.22-8.3-3.33-12.47-2.55-3.96-5.12-4.99-7.68-7.13-2.59-2.13-5.12-5.36-7.59-13.84.33,2.62.79,6.52-2.7,1.31-21.14-41.37-49.86-79.81-82.06-115.06-16.11-17.65-33.11-34.53-50.64-50.86-17.53-16.34-35.59-32.12-54.04-47.76,1.22,1.11,2.12,2.07,2.8,2.84.68.76,1.13,1.32,1.38,1.71.5.79.21.9-.62.54-.84-.35-2.2-1.19-3.9-2.24-1.72-1.02-3.75-2.29-5.84-3.61,5.09,3.95-1.78,2.47-1.63,4.55l-7.73-6.34-1.94-1.58-1.99-1.51-3.99-3.02-8.01-6.07c-2.7-1.98-5.48-3.85-8.23-5.79-2.16.16-5.59-1.02-9.63-2.82-4.11-1.66-8.84-3.92-13.49-6.15-1.16-.56-2.32-1.11-3.45-1.65-1.16-.49-2.3-.98-3.42-1.45-2.23-.93-4.34-1.77-6.24-2.44-3.8-1.35-6.76-2.03-8.14-1.42l11.84,4.31c-8.72-.97-4.47,4.07,1.1,9.87,5.49,6.05,12.21,13,9.63,15.46,1.18.16,2.37.41,3.55.75,1.17.38,2.35.84,3.53,1.38,2.37,1.07,4.77,2.42,7.21,3.97,4.94,3,9.8,7.21,15.06,11.36,1.31,1.03,2.64,2.08,3.99,3.15,1.32,1.1,2.66,2.2,4.03,3.28,2.74,2.17,5.58,4.28,8.57,6.25,1.51.96,2.98,2,4.52,2.96,1.53.97,3.11,1.89,4.73,2.76s3.29,1.69,5.01,2.45c1.73.75,3.5,1.45,5.27,2.15,4.4,5.02-5.71-1.59-3.84,1.76,3.82,1.07,7.64,2.86,12.08,5.76,1.11.72,2.26,1.52,3.46,2.39,1.17.91,2.38,1.9,3.65,2.98,2.53,2.15,5.29,4.64,8.34,7.52l-1.92-.64c1.15.91,2.3,1.79,3.39,2.69,1.08.92,2.14,1.82,3.19,2.71,2.08,1.79,4.08,3.52,6.04,5.21,3.93,3.33,7.4,6.73,10.77,9.96,1.67,1.63,3.31,3.22,4.92,4.79,1.63,1.56,3.11,3.23,4.63,4.82,3.02,3.22,5.98,6.39,8.93,9.62,5.72,6.66,11.62,13.37,17.85,21.27,1.58,1.95,3.21,3.95,4.88,6.02,1.63,2.11,3.3,4.29,5.04,6.55,1.74,2.25,3.55,4.57,5.42,6.99,1.86,2.42,3.71,5,5.69,7.64l.14-5.14c6.77,9.17,7.47,11.65,9.99,16.42,2.97,1.83,3.26,1.16,2.21-.81-1.06-1.96-3.41-5.24-5.94-8.43-4.98-6.44-10.01-13.05-4.14-10.14,2.13,8.05,14.7,23.66,25.71,39.76,2.86,3.94,5.46,8.03,7.98,11.86,2.5,3.85,4.82,7.52,6.67,10.98,3.74,6.87,6.19,12.4,5.85,15.62,9.11,14.93.57-6.4,9.7,8.56.21,1.69.46,3.34.63,5.04l4.53,2.47c2.71,5.09,4.24,9.21,4.91,12.21.62,3.03.43,4.92-.24,5.54-.59-1.27-1.64-2.94-2.77-4.6-1.15-1.65-2.36-3.29-3.17-4.54.67,1.76,1.51,3.63,2.48,5.58.92,1.97,1.97,4.01,3.09,6.08,2.21,4.15,4.81,8.34,7.13,12.34,4.67,7.99,9,14.81,9.74,17.3l-1.6-3.9-1.68-3.87-3.35-7.74c12.1,20.64,23.49,44.71,34.01,68.92,10.56,24.21,20.28,48.55,29.9,69.8l.31-3.85c1.81,4.07,3.29,7.56,4.52,10.61,1.19,3.06,2.15,5.68,2.91,8.02,1.54,4.69,2.39,8.25,3.2,11.92.82,3.67,1.58,7.47,2.86,12.63,1.25,5.17,3.04,11.71,5.57,20.95l-.68-1.27c3.28,7.09,6.23,17,7.6,27.36-1.63-4.62-1.81.01-2.13,4.2-.38,4.21-.85,7.96-2.64,1.96,1.94,9.03,2.89,14.72,3.54,18.48.69,3.77,1.07,5.64,1.62,7.13.5,1.48,1.06,2.58,1.88,4.84.79,2.27,1.83,5.69,2.94,11.97l-3.03,5.45c.36,2.12.7,3.78.98,5.36.24,1.58.42,3.08.51,4.91.05,3.63-.1,8.64-2.28,17.9.86-7.83-.88-5.08-2.58-2.7-.83,1.2-1.77,2.29-2.32,2.04-.28-.13-.48-.6-.55-1.55-.1-.97-.1-2.43.05-4.54-.93,2.23-1.73,4.39-2.61,6.45-.41,1.03-.82,2.05-1.21,3.05-.42.99-.82,1.96-1.2,2.92-.73,1.94-1.57,3.75-2.26,5.56-.36.94-.68,1.68-1.01,2.47-.33.78-.67,1.54-1,2.29-2.7,6.01-5.47,11.06-8.36,14.98-2.89,3.88-6,6.64-9.04,7.67-2.78.98-5.91.38-7.74-2.06-1.21.71-2.04,1.19-2.39,1.72-.36.52-.22,1.06.34,1.6,1.1,1.07,4.1,1.92,7.26,1.37.39-.06.79-.13,1.17-.24.39-.08.77-.2,1.15-.33.74-.23,1.5-.56,2.25-.91,1.48-.71,2.82-1.59,3.85-2.32,2.05-1.52,2.96-2.26,1.6-.6,1.73-.66,2.25-.34,1.85.83-.41,1.12-1.78,3.02-3.94,4.84-2.18,1.8-5.07,3.45-8.34,4.08-1.62.33-3.29.44-4.87.32-1.58-.14-3.06-.47-4.32-.95-2.6-.81-4.82-2.57-6.78-4.79-1.98-2.25-3.78-4.95-5.99-8.3-1.1-1.67-2.3-3.41-3.64-5.25-1.28-1.92-2.72-3.92-4.36-6.04-3.14-4.4-7.12-9.21-11.93-15.25.96,1.2,1.57,1.75,2.19,2.3.62.55,1.21,1.12,2.22,2.25-.8-1.2-1.57-2.42-2.43-3.56-.85-1.15-1.76-2.25-2.71-3.32-1.79-2.25-3.81-4.37-5.73-6.69-1.9-2.34-3.89-4.74-5.57-7.54-.85-1.39-1.71-2.8-2.45-4.36-.73-1.56-1.41-3.19-2.01-4.92-1.99-1.16-3.47-2.86-4.78-4.63-1.32-1.77-2.33-3.71-3.29-5.47-1.97-3.49-3.58-6.37-6.61-6.23,4.7,8.68,9.77,17.08,15.3,25.06-4.98-6.6-10.69-12.65-16.26-20.57-5.54-7.9-10.89-17.69-14.56-31.35,1.83,1.64,6.27,8.83,9.34,13.67-1.73-8.06-7.09-14.03-8.44-22.6,3.01.17,6.4,8.55,10.81,18.51,4.37,9.97,9.98,21.48,16.1,28.08-1.07-4.2-5.71-11.11-8.87-16.47-3.11-5.4-4.83-9.02-.25-6.21-6.08-4.25-9.04-11.67-11.83-20.28-1.39-4.32-2.75-8.95-4.64-13.63-.88-2.37-1.87-4.75-3.04-7.14-1.16-2.39-2.55-4.76-4.04-7.17l3.59.36c-.76-1.57-2.06-3.94-3.39-6.7-.67-1.38-1.34-2.85-1.96-4.36-.59-1.52-1.12-3.08-1.54-4.62,1.23,1.65,2.41,3.31,3.68,4.93l3.77,4.85c-1.1-1.96-2.03-3.96-2.84-5.98-.77-2.03-1.39-4.1-1.93-6.17-.54-2.07-.99-4.15-1.39-6.24-.38-2.09-.65-4.2-.94-6.29-.57-4.19-1.09-8.36-1.7-12.5-.64-4.14-1.59-8.2-2.89-12.23,3.83,17.22,3.52,19.35,2.07,19.12-1.42-.22-3.8-2.89-3.07,4.71-1.97-5.18-3.21-9.54-4.16-13.23-.46-1.85-.85-3.52-1.13-5.07-.26-1.55-.44-2.97-.56-4.27-.48-5.23-.07-8.71.59-12.37.31-1.83.63-3.7.86-5.84.24-2.15.34-4.56.38-7.51.01-2.94-.17-6.4-.63-10.62-.34-4.24-1.05-9.22-1.95-15.25.56,3.25.96,9.44.74,13.59-.12,2.08-.29,3.63-.67,4.05-.37.42-.97-.3-1.7-2.82-.14-2.34-.27-4.86-.36-7.43-.1-2.56-.19-5.16-.12-7.66.1-5,.3-9.53.94-12.45-1.75-16.04-2.34-14.78-3.18-11.14-.72,3.62-1.4,9.64-3.01,2.81.75-2.84,1.04-5.24.91-7.48-.12-2.23-.62-4.3-1.3-6.47-.7-2.16-1.46-4.43-2.22-7.05-.74-2.62-1.48-5.6-1.9-9.18l3.38-.18c.21-4.64.25-8.27.17-11.14-.07-2.87-.18-4.98-.43-6.57-.49-3.19-1.34-4.32-2.18-5.34-.83-1.02-1.71-1.92-2.06-4.68-.18-1.38-.26-3.22-.17-5.76.1-2.54.3-5.8.91-9.98,1.23,4.82,2.73,9.61,4.11,14.35l-.31-8.73c-.1-2.91-.09-5.82-.14-8.74l3.63,3.79c-.96-9.49-.9-15.73-.45-21.86.25-3.07.71-6.1,1.24-9.52.28-1.71.54-3.51.9-5.45.37-1.94.77-4.02,1.2-6.3-1.45,1.98-2.9,1.2-3.72-2.15-.88-3.35-.93-9.26.28-17.46,1.95-5.4,2.48-3.7,2.95-3.56.24.07.46-.25.86-2.02.2-.89.44-2.14.74-3.89.3-1.75.65-4.01,1.19-6.88.48,2.78,1.19,5.72,1.13,9.12-.05,3.41-.92,7.26-3.17,12.03.93,1.2,1.31,5.44,2.22,6.65,1.03-2.88,1.86-6.17,2.54-9.62.72-3.44,1.39-7.03,1.92-10.53.5-3.5,1.08-6.88,1.55-9.91.49-3.03.87-5.71,1.33-7.75-.81,3.12-1.72,6.87-2.6,8.72l.53-8.47.73-8.47.37-4.25.46-4.23.95-8.49c2.62-4.81,2.45-.47,2.42,3.81.63-3.36.95-6.26,1.39-9.55.46-3.29.92-7,2.3-11.84.93,1.64,2.12,2.51,2.72,4.7.62,2.2.72,5.74-.56,12.68l1.41-7.86.71-3.94.8-3.92,1.61-7.85c.54-2.62,1.19-5.21,1.77-7.82.93-.82,2.93-4.46,4.82-7.3,1.87-2.84,3.45-4.93,3.23-2.83.94-2,1.79-4.15,2.58-6.44.83-2.28,1.64-4.67,2.4-7.18,1.49-5.05,3.08-10.42,4.71-15.96.81-2.82,1.69-5.51,2.63-8.26.95-2.74,1.99-5.46,3.11-8.15,2.28-5.36,4.99-10.54,8.26-15.18.12-1.29.84-3.59,3.02-7.9,5.87-8.86,12.43-16.35,19.32-23.73,3.43-3.71,6.99-7.35,10.67-11.12,3.69-3.77,7.51-7.67,11.66-11.78,4.49-1.24,8.97-2,13.28-2.43.89-.54,1.6-1.01,2.16-1.41.57-.37.98-.68,1.27-.95.57-.53.62-.89.34-1.12-.55-.45-2.47-.54-4.08-.59-1.61-.09-2.97-.34-2.31-1.53.17-.3.46-.66.91-1.09.45-.44,1.05-.94,1.86-1.47.81-.53,1.79-1.19,3.01-1.85.62-.31,1.29-.65,2.01-1.02.73-.37,1.51-.75,2.38-1.09,1.22-.5,2.31-.99,3.32-1.33,1.01-.33,1.91-.6,2.72-.82.8-.24,1.52-.37,2.15-.45.63-.09,1.17-.14,1.63-.16,1.85-.1,2.51.49,2.76,1.15.48,1.35-.5,3.33,2.97,3.44,1.14-.52,2.43-.94,3.83-1.5.7-.29,1.42-.49,2.17-.73.75-.23,1.53-.48,2.34-.7,3.25-.81,6.98-1.43,11.05-1.48,4.06,0,8.44.56,12.82,1.93,4.38,1.36,8.74,3.53,12.66,6.56-1.56-.46-2.97-1-4.33-1.51-1.37-.46-2.65-1.05-3.95-1.5-1.3-.45-2.56-1-3.88-1.37-1.32-.41-2.66-.82-4.09-1.05ZM483.52,1397.61c-.17-2.52-.62-6.29-.75-9.86-.17-3.56,0-6.93,1.1-8.68,1.76,2.93,2.1,5.47,1.81,8.32-.31,2.85-1.3,6.02-2.16,10.22ZM337.45,1137.82c.75,1.79,1.11,4.14,1.26,6.85.18,2.71.1,5.81-.14,9.12-.85-4.65-1.44-9.98-1.13-15.97ZM379.06,617.95c0,.23.02.39.05.58-1.8,5.55-2.31,7.4-2.17,6.82.16-.56,1-3.51,2.12-7.4ZM385.74,594.9c.08-2.45-.41-2.4-1.1-1.52.46,1.83-.69,7.08-2.29,12.99,1.24-1.47,2.52-4.34,3.38-11.47ZM281.35,1804.81l-2.4-4.34c1.92,1.98,3.2,3.34,4,4.25.81.89,1.16,1.33,1.14,1.49,0,.3-1.42-.51-2.74-1.4Z"/>
      <path class="cls-1" d="M348.08,1181.16c-.33,1.49-.89,1.98-1.46,2.42.88,1.84,1.53,1.76,1.46-2.42Z"/>
      <path class="cls-1" d="M287.92,1264.86c-.15.2-.26.42-.4.62-.03.45.04.74.16.94l.24-1.57Z"/>
      <path class="cls-1" d="M560.19,875.1c3.92,2.29,6.11,3.55,7.46,4.76.26-.35-.04-.86-1.19-1.6-.58-.37-1.36-.79-2.41-1.28-1.04-.49-2.3-1.17-3.86-1.88Z"/>
      <path class="cls-1" d="M419.47,472.39c-1.67,4.87-3.39,9.71-5.02,14.58,2.63-6.97,4.36-9.14,6.28-12.4-.86.01-3.04,2.3-1.25-2.17Z"/>
      <path class="cls-1" d="M498.01,364.45c.79-2.09,2.39-3.99,3.16-6.06l-1.64-.32c-4.8,8.06-7.12,14.29-1.52,6.38Z"/>
      <path class="cls-1" d="M435.27,463.7c3.1.03,6.11-9.01,10-18.93-.25.59-.48,1.15-.77,1.71-2.31-4.54-5.79,6.39-9.22,17.21Z"/>
      <path class="cls-1" d="M446.19,442.49c1.32-3,2.72-6.04,4.25-8.86-.89-1.81-2.05,3.44-4.25,8.86Z"/>
      <path class="cls-1" d="M391.47,565.03c1-2.37.34-3.38-.32-4.12-.67-.74-1.37-1.19-.4-2.42-.46-1.62-1.04-.31-1.55,2.14-.49,2.46-.79,6.08-.9,9.02-.21,5.88.51,9.11,3.17-4.62Z"/>
      <polygon class="cls-1" points="447.35 459.66 442.59 461.69 442.76 468.21 447.35 459.66"/>
      <path class="cls-1" d="M414.97,536.32l6.31-15.66c-.63.05-.3-2.1.34-4.67-3.48,9.79-7.76,20.39-6.65,20.33Z"/>
      <path class="cls-1" d="M421.63,515.99c1.96-5.05,3.7-9.9,4.22-12.92-.99,2.76-3.1,8.71-4.22,12.92Z"/>
      <path class="cls-1" d="M439.25,481.18l-2.57,4.32-2.38,5.44-1.18,2.72-1.1,2.76c1.1-2.58,2.35-5.11,3.57-7.64l3.66-7.59Z"/>
      <path class="cls-1" d="M387.46,714.79l.56,2.28c.2.76.44,1.5.66,2.26l1.35,4.49c.47,1.49,1.04,2.95,1.56,4.42.54,1.47,1.02,2.95,1.66,4.37.89.7,1.07-.21.71-2.07-.14-.94-.41-2.13-.79-3.49-.36-1.36-.95-2.86-1.43-4.51-.9-2.05-1.96-4.71-2.66-6.53-.71-1.82-1.3-2.75-1.61-1.22Z"/>
      <path class="cls-1" d="M395.34,659.55c-1.18,4.75-1.96,5.02-3.36,7.68l4.31.85c-.34-2.82-.67-5.67-.95-8.52Z"/>
      <path class="cls-1" d="M397.53,710.91c.38.37,1.07,2.07,1.82,4.04.86,1.94,1.79,4.16,2.51,5.66.74,1.49,1.33,2.26,1.25,1.4-.04-.43-.22-1.26-.5-2.67-.27-1.4-.81-3.31-1.37-5.94-.71-.73-2.24-5.23-3.02-7.72-.43-1.23-.79-1.92-.96-1.31-.08.31-.12.94-.1,2,.01.53.04,1.17.08,1.92.06.75.17,1.61.29,2.61Z"/>
      <path class="cls-1" d="M582.24,894.91l-2.26-.48c-.75-.17-1.48-.41-2.23-.6l-1.21,7.07c1.93-1.89,3.85-3.96,5.7-5.99Z"/>
      <path class="cls-1" d="M553.16,808.47c2.4.78,4.29,1.31,5.78,1.65,1.5.33,2.6.6,3.45.67,1.7.16,2.36-.22,2.97-.59.6-.38,1.15-.76,2.62-.61,1.48.11,3.86.89,8.12,2.8,2.56-.08-.92-1.63-4.43-3.16-3.51-1.48-7.07-2.78-4.47-2.85-6.23-.88-10.88-1.65-13.39-1.68-2.52-.01-2.87.85-.66,3.77Z"/>
      <path class="cls-1" d="M567.21,806.38c2,.26,4.15.47,6.44.75-1.8-.35-3.13-.55-4.16-.62-1.02-.1-1.73-.12-2.28-.12Z"/>
      <path class="cls-1" d="M38.6,1172.52l-1.55-.96-1.59-.9-3.18-1.8-6.37-3.6,7.63,5.95c1.69.42,3.4.8,5.06,1.3Z"/>
      <path class="cls-1" d="M11.04,1166.47l-1.51-5.46-9.53.71c3.09.98,9.12,2.91,11.04,4.75Z"/>
      <path class="cls-1" d="M472.67,1408.66c.2.41.38.83.55,1.25.93,1.12,1.59.83,2.25-.14-1,0-1.99-.39-2.8-1.11Z"/>
      <path class="cls-1" d="M463.09,1259.82l1.08,2.56.77-3.24c.24-1.09.44-2.18.65-3.29-.82,1.35-1.65,2.67-2.5,3.97Z"/>
      <path class="cls-1" d="M360.77,1205.92c1.14-.28,2.3-.66,3.5-.95.6-.16,1.2-.34,1.81-.53.61-.19,1.23-.3,1.85-.46.62-.15,1.24-.3,1.86-.46.62-.13,1.25-.22,1.87-.32.62-.09,1.24-.18,1.84-.27.6-.06,1.19-.07,1.77-.08-4.98.69-9.18.31-11.92.39-1.38-.04-2.35.17-2.82.52-.47.38-.42,1.02.24,2.16Z"/>
    </g>
  </g>
</svg>