<?xml version="1.0" encoding="UTF-8"?>
<svg id="Capa_2" data-name="Capa 2" xmlns="http://www.w3.org/2000/svg" viewBox="0 0 1264.86 100.02">
  <defs>
    <style>
      .cls-1 {
        fill: #f582f2;
      }
    </style>
  </defs>
  <g id="Capa_1-2" data-name="Capa 1">
    <g>
      <path class="cls-1" d="M1263.13,29.72c1.88.39,1.4-2.59,1.73-3.09-3.23.43-1.7,3.86-1.73,3.09Z"/>
      <polygon class="cls-1" points="1231.29 34.2 1231.93 33.05 1227.1 35.65 1231.29 34.2"/>
      <path class="cls-1" d="M1201.95,32.12c2.43,5.18,10.69-.07,15.8,2.06l.78,1.2,2.64-3.85c-6.4.2-14.84,2.29-19.22.59Z"/>
      <path class="cls-1" d="M1187.04,20.26c.83,2.01-3.5,1.44,3.61.86-.34-.24-.43-.37-.63-.54-.64-.02-1.51-.08-2.98-.32Z"/>
      <path class="cls-1" d="M1190.02,20.58c3.1.07-1.91-1.77,0,0h0Z"/>
      <path class="cls-1" d="M1175.67,20.71l4.19-1.45c-.77-1.2-4.38-1.71-2.97-2.45-4.24.66-3.46,1.86-1.22,3.9Z"/>
      <path class="cls-1" d="M1171.56,24.08l2.16-.59c-.34-.51-.88-.71-2.16.59Z"/>
      <path class="cls-1" d="M1178.3,22.26l-4.58,1.24c.53.85.49,2.47,2.09-.42-.47,1.45.51.09,2.49-.82Z"/>
      <path class="cls-1" d="M1180.78,23.19c2.21,1.24,5.11,2.13.91,3.57,7.84-.15,6.93-3.73-.91-3.57Z"/>
      <path class="cls-1" d="M1200.09,37.18l2.95,1.67,2.76-1.49c-1.38.74-5.79-1.76-5.71-.18Z"/>
      <path class="cls-1" d="M1150.49,16.38c-.33,1.04,1.17,2.92,1.38,4.3l3.09-1.01c-1.5-.83-4.38-1.7-4.48-3.29Z"/>
      <path class="cls-1" d="M1151.87,20.68l-4.62,1.51c4,.49,4.8-.32,4.62-1.51Z"/>
      <polygon class="cls-1" points="1170.45 29.57 1178.11 26.25 1169.03 29.52 1170.45 29.57"/>
      <polygon class="cls-1" points="1133.31 15.06 1136.03 12.78 1131.23 16.18 1133.31 15.06"/>
      <path class="cls-1" d="M1121.89,14.71c2.03-1.9-2.35-3.62-.27-4.73-3.12.15-5.89,1.71-8.37,3.12,2.59-.7,5.27-.29,8.64,1.61Z"/>
      <path class="cls-1" d="M1109.09,15.11c1.3-.4,2.67-1.18,4.16-2.01-1.38.38-2.74.96-4.16,2.01Z"/>
      <path class="cls-1" d="M1139.62,21.14c-.3-.67-.86-2.39-3.33-3.27l1.56,3.11c.54.05,1.15.11,1.77.17Z"/>
      <path class="cls-1" d="M1137.91,21.07l-.06-.1c-1.92-.2-3.24-.36-3.81-.43.49.07,1.65.23,3.87.53Z"/>
      <path class="cls-1" d="M1140.07,21.18c-.16-.02-.28-.03-.45-.04.15.31.25.41.45.04Z"/>
      <path class="cls-1" d="M1158.84,26.05c-2.76,1.49-8.39,2.9-3.24,5.81,2.04-1.91-.92-3.57,3.24-5.81Z"/>
      <path class="cls-1" d="M1142.01,25.06l4.73,1.01c-.04-.79-.82-2,.54-2.74l-5.28,1.73Z"/>
      <polygon class="cls-1" points="1139.6 25.85 1142.01 25.06 1140.25 24.69 1139.6 25.85"/>
      <path class="cls-1" d="M1117.08,18.46c-2.15,1.16-4.42,1.11-6.98,1.14,2.69.78,5.5,1.29,8.18,1.47.44-.91,1.74-2.51-1.2-2.61Z"/>
      <path class="cls-1" d="M1127.18,19.99c-.15.06-.33.08-.47.14.26.27.49.37.47-.14Z"/>
      <path class="cls-1" d="M1084.99,17.85c.13.17.24.39.37.57.04-.17.08-.34.13-.51l-.49-.06Z"/>
      <path class="cls-1" d="M1118.7,21.66c2.02.72,3.29.07,4.53-.77-1.56.19-3.2.28-4.95.18-.2.41-.25.69.42.59Z"/>
      <path class="cls-1" d="M1101.99,16.02c1.03.7,2.2,1.31,3.45,1.89-.98-1.02-3.01-2.64-3.45-1.89Z"/>
      <path class="cls-1" d="M1126.08,19.26c.11-.04.2-.09.32-.11-.63-.69-.57-.37-.32.11Z"/>
      <path class="cls-1" d="M1126.08,19.26c-1.09.36-1.97,1.04-2.85,1.63,1.27-.15,2.45-.39,3.49-.76-.24-.23-.47-.57-.64-.87Z"/>
      <path class="cls-1" d="M1076.06,36.49c.55-2.74,6.13-4.93,10.59-1.64,4.73-1.76,2.36-11.06-1.3-16.42-.23,1.2-.3,2.31-5.14,3.62,1.55,1.62,10.24,4.25,6.08,6.48-6.35.99-5.06-1.33-8-3,2.35,3.63-8.3,4.47-7.29,9.63l5.61-1.41c.05.79-2.03,1.92-.55,2.74Z"/>
      <path class="cls-1" d="M1094.33,19.33l1.97-.21c-2.18-.63-3.69-1.85-6.46-4.21-3.33,1.13-4.07,2.11-4.35,3.01l9.54,1.05-.69.37Z"/>
      <path class="cls-1" d="M1105.02,19.71c-1.73,2.91-6.48,3.86-3.85,7.32,5.72.19,4.17-2.24,7.67-3.31-9.25.11,2.76-1.5-3.77-3.66,1.84-.39,3.48-.43,5.03-.45-1.63-.48-3.2-1.04-4.67-1.7.08.07.13.13.2.2h.04s-.01.02-.01.04c.37.4.49.64.05.39-.03.03-.15.04-.2.05-.09.41-.29.77-.49,1.11-2.62-.8-.37-.81.49-1.11.04-.14.12-.28.14-.44,0-.02-.02-.03-.03-.04l-9.33,1.01c1.92.55,4.37.64,8.73.59Z"/>
      <path class="cls-1" d="M1150.25,37.99c-.27-.29-.24-.5-.25-.72-.62.33-.87.56.25.72Z"/>
      <path class="cls-1" d="M1146.58,35.92c.7-.37,1.34-1.54,3.5-1.08,1.83,1.03-.11,1.44-.08,2.44,1.37-.71,4.74-1.84.73-3.59l-.68.36c-3.64-1.29-8.15-5.37-7.47-5.74.9,2.78,1.72,4.78,4.01,7.6Z"/>
      <path class="cls-1" d="M1125.48,28.56l-7.78.95,3.73,2.87-.09-1.58c4.32.91,3.51-1.08,4.14-2.24Z"/>
      <polygon class="cls-1" points="1084.21 16.3 1085.45 13.19 1080.71 17.37 1084.21 16.3"/>
      <polygon class="cls-1" points="1074.21 15.99 1074.77 13.25 1072.02 14.74 1074.21 15.99"/>
      <path class="cls-1" d="M517.82,88.47l-2.24.85c1.06-.27,1.74-.56,2.24-.85Z"/>
      <path class="cls-1" d="M534.18,88.18l.36-1.38c-.74.77-1.03,1.34-.36,1.38Z"/>
      <path class="cls-1" d="M823.81,12.97c-2.09-.77-4.43-1.84-6.09-2.36-1.66-.44-2.62-.36-1.93,1.05l1.98,2.54c2.28-1.29,4.28-1.41,6.04-1.24Z"/>
      <path class="cls-1" d="M667.79,68.14c.32.29.66.59.99.89.77-1.07,1.49-2.07,2.14-2.97-.94.65-2.01,1.34-3.13,2.07Z"/>
      <path class="cls-1" d="M665.84,80.77l-4.4-1.83c1,.66,2.41,1.27,4.4,1.83Z"/>
      <path class="cls-1" d="M427.9,93.86l-2.75,3.08c4.28.01,2.4-1.56,2.75-3.08Z"/>
      <path class="cls-1" d="M971.96,10.06c-2.75-1.38-4.98-2.03-6.95-2.32,3.3,1.97,5.87,4.77,6.95,2.32Z"/>
      <path class="cls-1" d="M523.31,56.07c-1.37.59-1.94,1.23-1.88,1.9,1.41-.56,2.2-1.17,1.88-1.9Z"/>
      <path class="cls-1" d="M956.82,7.19c.48.34.96.52,1.45.82,2.11-.36,4.22-.63,6.74-.26-2.43-1.47-5.27-2.47-8.19-.55Z"/>
      <path class="cls-1" d="M104.97,56.96c-.23-.21-.54-.4-.73-.63-.21.36.16.52.73.63Z"/>
      <path class="cls-1" d="M18.54,43.91c.53-.78,1.58-1.79,2.58-2.83-.65.34-1.46,1.16-2.58,2.83Z"/>
      <path class="cls-1" d="M1034.16,11.9c2.13-.05.36-.31,0,0h0Z"/>
      <path class="cls-1" d="M1043.62,24.59c-.47.31-.85.72-.95,1.42.22-.72.55-1.16.95-1.42Z"/>
      <path class="cls-1" d="M934.45,24.61c-.06,0-.11-.01-.18-.02.59.63.49.52.18.02Z"/>
      <path class="cls-1" d="M1037.25,13.5c-.77-.43-1.66-.8-2.64-1.09.42.26,1.22.61,2.64,1.09Z"/>
      <path class="cls-1" d="M1036.92,12.04c.72.19,1.29.3,1.83.42.3-.49.09-.82-1.83-.42Z"/>
      <path class="cls-1" d="M1031.2,11.86c1.21.04,2.33.26,3.4.55-.4-.23-.56-.42-.45-.51-.62,0-1.5,0-2.96-.04Z"/>
      <path class="cls-1" d="M279.09,51.65c-.1-.13-.23-.24-.33-.41-2.35.59-1.43.65.33.41Z"/>
      <path class="cls-1" d="M785.33,64.97c.08-.08.09-.17.15-.25-.11.02-.25.05-.34.07l.19.18Z"/>
      <path class="cls-1" d="M779.05,70.91c.78-2.52,1.61-3.89,2.6-4.72,1.01-.83,2.14-1.11,3.48-1.4-2.22-2.11-4.4-4.23-6.56-6.37.29,4.12.48,8.28.47,12.49Z"/>
      <path class="cls-1" d="M478.66,90.49l5.43,2.57c-6.32,4.68-11.04,3.27-5.91,6.96.48-9.53,20.76-1.58,21.22-11.1l3.58,1.9c-1.01-.06-1.16.5-2.16.44,6.99,4.35,4.89-7.02,13.76-5.93,3.1.64,5.29,1.95,3.22,3.14l6.79-2.55c2,.13,1.56,1.79-.43,1.67l10.44-1.07-.07.28c1.45-1.54,4.76-3.94,6.39-4.97,2.7,1.28-1.3,1.05-.59,2.21l5.73-2.47c2.43,2.39-2.3,4.92-6.31,4.69,5.69,9.33,4.74-2.53,16.57,2.67l-5.43,1.37c3.68,5.29,7.9,3.21,14.18,6.39-1.52-1.71-12.63-8.11-6.41-10.66,1.79.67,4.14.94,7.47-1.07.13,3.38,3.42,2.45,7.56,2.14l-.15,4.48c4.44-1.42,4.02-3.69,6.6-5.78,5.01.29,6.14,3.73,7.4,6.62,8.02.48-5.68-5.4,3.75-6.52,6.7,1.52,11.32-.45,19.19-3.36,4.7,1.41-.73,2.76.97,3.99l4.02-3.69c1.01.06.72,1.16.57,1.72,3.44-1.49.16-4.48,5.59-5.86,1.33-4.97,11.43,6.88,18.03,1.08,1.7,1.22-.72,2.77-.16,4.48,9.17-3.95,7.88-2.9,15.35-8.07l6.58,2.75c-4.87-3.22,1.11-7.38,6.35-10.8-1.74-1.57-3.23-2.95-4.22-3.6l8.45-2.65c1.05.7.24,2.27-1.1,4.18.57-.39,1.11-.77,1.53-1.12,3.09,1.56,1.59,4.19-.52,6.76-1.06-.85-2.12-1.76-3.15-2.67-2.02,2.78-3.9,5.85-3.39,8.46.54-.53,1.59-1.01,2.76-1.29-.53.75-.86,1.42-.59,1.86.3.46,1.16-.55,2.52-1.74l2.08,4.93.41-2,11.24,2.8c7.83-5.26,14.55-12.85,27.14-15.28-3.03,3.75-.5,6-.54,10.34-3.59-4.49-9.75,2.24-16.33,1.5,3.44.38,2.75,2.47,1.9,3.22l11.58-4.52c-.16,3.55,2.56,2.59,5.66,3.96-2.51-6.94,8.58-4.92,13.29-7.21.37,2.35-.72,4.78-6.54,4.39,6.57,5.07,8-8.43,14.64-4.25-1.47.14-2.26-.2-2.8,1.02,1.66-1.11,4.6-1.36,6.95-1.12,2.34.25,4.1.99,3.17,2.12l-1.52.18c2.54,0,5.8-.21,9.29-.8,3.5-.59,7.23-1.59,10.57-2.98,3.34-1.41,6.19-3.11,8.02-4.87,1.87-1.73,2.78-3.48,2.5-4.97.44.65,1.78,7.07,1.64,8.45,3.2-8.73,4.74-17.28,6.17-25.82.65,2.58,3.72,5.8,5.99,9.16,2.25,3.37,3.74,6.88.89,10.17,2.4-.53,5.38-1.27,8.5-5.21-1.66.13-7.04-4.44-5.46-5.91,3.91,1,5.14,1.17,6.45,1.17,1.3,0,2.73-.2,6.79.33-1.19.03-2.26-1.98-2.61-4.2-.35-2.22.04-4.64,1.66-5.34.07,1.3,3.88,6.9,3.19,8.2,1.21-3.55,2.6-7.07,4.13-10.72-1.35,2.24,2.44,6.19,4.96,7.53-.7-.55.96-1.17,2.99-1.85,2.04-.67,4.43-1.44,5.36-2.09-.65-.1-1.31-.22-1.96-.3l-1.94-.2c2.24-.65,3.76-1.61,4.83-3.02,1.08-1.39,1.76-3.1,2.48-4.85.7-1.78,1.47-3.45,2.66-4.89,1.19-1.44,2.82-2.59,5.27-3.15-.4.95-.49,3.57.14,5.91.64,2.36,1.94,4.34,4.4,4.35.61-2.19,1.93-7.44,4.38-12.82,1.23-2.61,2.74-5.23,4.51-7.5.88-1.13,1.83-2.17,2.83-3.08,1-.89,2.06-1.58,3.17-2.12l2.06,2.06c2.23-1.15,4.5-2.36,6.78-3.4-1.93,3.15-5.58,8.43-9.2,13.47-1.75,2.49-3.56,5.05-5.26,7.47-.83,1.15-1.62,2.22-2.36,3.2-.74.97-1.41,1.91-2.03,2.67,3.8,1.04,1.47,2.44,6.62,1.34,2.17,1.83-2.25,3.7-3.71,4.08l6.04-.31c1.01-.04,1.99-.13,3.01-.13l3.05-.03c-.57-2.3,1.59-3.76,3.83-5.13,2.25-1.31,4.59-2.48,4.18-4.42-2.21,1-4.41,1.99-6.54,3.12-2.13,1.1-4.27,2.14-6.33,3.28-.3-1.13-.12-2.63.51-4.18.64-1.55,1.71-3.19,3.14-4.7,1.43-1.5,3.2-2.93,5.22-3.89,2.02-.95,4.27-1.53,6.59-1.52,2.45,1.67-1.1,8.5-.75,10.05.51-.84,2.55-1.86,4.63-2.36,2.07-.54,4.12-.73,4.56-.18l-3.67,2.71c2.53.76,4.46-.92,6.6-2.24,2.13-1.27,4.46-2.2,7.52-.03,2.12.25,6.27,6.05,6.62,3.25-3.36-5.37-4.26-21.99-1.83-26.02.39.19,3.31,1.45,6.4,3.06,3.09,1.64,6.35,3.57,7.55,4.92,1.73,2.14.3,4.62-1.16,7.02-1.46,2.4-2.95,4.73-1.51,6.57.16-1.28,2.14-2.83,2.96-3.32,2.21,1.17-1.05,3.94,3.83,3.55.99-4.74,9.9.79,2.46-3.94,4.85-1.19,5.05,1.21,10.68,1.29-1.64-3.19,5.67-10.2,10.64-11.24-.36,1.19.63,2.84,1.11,3.59,9.89,1.09,15.07,3.63,24.32,4.31.77,1.21,5.14,2.91,3.1,4.83,1.39-.75,2.72-2.28,5.59-2.2,5.24,4.5-6.41.2-2.54,5.44.55-2.74,7.65-3.31,11.83-4.76-.96-4.36-9.34-1.47-13.53-.02.39-5.89,7.9-11.58,17.76-13.63,7.79-.93,3.07,4.04,4.46,3.29,14.37,2.03,13.01-9.44,24.71-4.36,4.5,4.08-.3,7.49.57,10.27-6.36.99-9.45-3.05-13.7-3.19l5.1,2.14c-2.08,1.11-6.32,1.77-8.53.52,3.75,3.65,24.35,2.33,35.27,6.21,2.07-1.12,5.57-2.19,4.06-3.81l-3.56.28c-3.03-3.25,6.92-3.73,2.56-5.45,4.87-1.8,10.41-4.78,16.94-2.61l.96,4.37c-.06-1.26-4.17-2.85-6.14-1.68,2.91-1.7,9.81,6.5,13.23,1.1l-4.46-3.29c4.9-1.82,11.08-5.97,16.88-4.21-2.39-4.41-1.39.39-5.24-4.85,3.21,6.41-15.07-1.3-9.68,5.57-3.91-6.04-7.28-2.95-12.56-8.23.08,1.42,1.81,2.84-3.1,1.8-.25.4-.82.89-1.17,1.17-.15-.05-.2-.08-.33-.13.1.06.16.13.26.19-.23.2-.25.24.1.06,1.14.7,2.04,1.51,2.37,2.32-2.68,3.07-10.55,2.43-13.33,3.92-2.89-.87,1.34-1.53-.16-3.15l-4.15,2.24c-.18-3.16-7.45-5.75-.4-7.11l-6.22-.57c-3.55-2.01-8.54-3.06-11.75-1.95-2.89-.88-7.66,2.96-4.93.68l-9.91,1.27-.04-.79c-9.61-1.06-20.2,3.83-30.84-2.6-3.3.57-6.72,1.3-12.09.04l-.87-2.79c-4.25.66-12.45-3.56-14.46-.83-1.03-1.89-2.82-3.03-5.07-3.67-2.26-.63-4.95-.78-7.74-.75-5.62.11-11.63.97-15.47.27l-.37,3.54c-2.62-.16-5.19-.03-7.95.39-2.76.42-5.64.96-8.92,1.77l.45,3.13c-1.4.68-2.99.9-4.75.86-1.76-.05-3.67-.35-5.71-.64-2.04-.31-4.2-.69-6.41-.94-2.21-.24-4.49-.24-6.74.02.51-1.25,2.84-1.14,4.51-.55-2.83-1.54-5.69-1.85-8.5-1.53-2.82.4-5.59,1.47-8.29,2.58-1.35.53-2.68,1.17-4,1.74-1.32.57-2.63,1.08-3.94,1.45-2.62.71-5.21,1.09-7.94.36-2.2,1.67-4.04,1.61-5.94,1.3.23-.07.41-.18.57-.32-.26.03-.63.12-1.01.23-1.21-.23-2.48-.54-3.82-.7,1.23.46,2.37.8,3.29.85-1.86.57-4.62,1.72-7.17,3.24-.72-.98-1.43-1.9-2.16-2.85-.21.12-.4.17-.62.31-3.14-.27-1.7,2.24.5,4.19-1.21.98-2.26,2.04-2.96,3.13-.98-1.11-1.89-1.4-2.76-1.29-.88.1-1.73.62-2.58,1.21-1.72,1.13-3.5,2.24-6.09.16-.19.84-1.08,1.71-2.28,2.67-1.17,1.03-2.66,2.14-4.08,3.32-1.42,1.19-2.77,2.45-3.65,3.79-.86,1.38-1.28,2.82-.9,4.3-.45-.64-1.36-.57-.05-1.33-3.06.88-6.08,1.82-7.55,4.63l-3.26-3.06c-.91,2.76-1.78,5.51-2.64,8.23-4.66-.32-6.69-.92-5.12-5.61-2.63,4.45-3.96,5.67-5.16,6.85-.6.57-1.16,1.12-1.85,2.03-.69.86-1.49,2.12-2.66,4l-.81-2.67c-1.14.58-2.27,2.08-3.46,3.24-1.19,1.16-2.43,1.94-3.48,1.07-1.73-.83-4.12-.87-7.18-.67-3.05.21-6.78.63-11.01.88-4.22.26-8.92.35-13.69.15-4.78-.21-9.45-.7-13.58-1.81,3.42,8.06-7.73-3.43-8.19,2.91-1.01-1.9-3.33-2.92-.72-4.68-8.31,2.14-12.66-2.69-18.28,2.81-1.01-1.91,1.71-2.88.82-4-.66.44-2.61,1.76-3.51.63-.89-1.12,1.18-1.66,2.48-2.53-8.54.58-9.23,6.55-9.68,12.14-4.41-2.51-6.56-2.08-9.58,1.67-1.56-1.78-4.13-3.62,1.16-4.43-3-.18-18.33-2.14-18.5,2.34-.97-1.11-4.19-.21-4.96.33-6.71-.07-7.31-.46-13.88.16l1.85.68c-2.44,5.47-5.44,1.36-10.72,2.17l.14-.56c-12.28-3.53-5.2,2.02-17.33-2.07l.75,3.34c-.91,7.25-10.76-3.95-17.65-.98l2.57,1.84c-3.73,2.58-10.92-9.5-14.77-10.29-.85-.6,1.29-1.05,2.44-1.54-10.13-3.96-1.17,4.44-8.59,5.68-1.44-2.33,1.59-6.08-3.44-6.38-2.56-1.85-14.33,8.12-21.31,3.78,1.56,1.78,3.11,3.56-.31,5.04-5.29.81-14.55-6.49-19.18-.59-.69-.48-.96-.95-1-1.4-4.01,1.6-13.11,2.86-15.46,6.05-4.09-11.48-25.06,6.38-25.28-4.32l-12.46.94.29-1.1c-7.98-.47-10.71,2.16-13.43,4.8-1.85-.68-.54-1.71-.4-2.28-11.63-1.9-12.69-1.41-22.33,3.98l-1.01-3.46c-1.31,1.03-5.46-.36-10.63-1.52-5.18-1.2-11.33-2.21-16.95-.5.13-.39.39-1.05,1.29-1.49-6.32,1.74-13.59-1.23-19.72-3.24-3.08-1.01-5.89-1.8-8.35-1.54-2.44.19-4.52,1.4-6.15,4.34-2.85.65-5.68,1.09-8.58,1.64,5.12,1.45,4.52,2.73,3.08,4-1.43,1.27-3.73,2.52-1.71,3.96-2.19-.02-4.75-1.47-6.04-2.93-1.3-1.44-1.38-2.79,1.22-2.55l.67.79c1.58-3.02-1.52-4.3-4.85-5.36-3.31-1.12-6.84-2.13-6.12-4.24-9.94-2.45-19.42-6.75-28.82-11.17-9.41-4.44-18.81-9.14-28.8-12.64.23,1.87.45,3.74.64,5.62-2.25-.88-4.54-1.72-6.81-2.58-.72-.87-1.06-2-.57-2.72.49-.72,1.79-.99,4.25-.06-.86-1.81-3.15-1.94-5.31-1.42-2.14.51-4.08,1.6-4.31,2.11-4.67-2.42-3.36-3.56-1.13-4.26,2.22-.7,5.21-.79,3.69-1.33-1.42-.31-2.87-.59-4.34-.85l.8.84c-4.04,1.1-4.81,3.05-11.04,1.36-3.75-1.94-1.38-3.55-2.94-4.09.08-.35-.44-.63-2.46-.63-3.14-.82-6.41-1.38-9.66-2.01,1.14,1.53,2.24,3.05,3.31,4.57-2.27.69-4.46.26-5.67.45-1.21.16-1.32.74.58,3.22-1.37-1.88-4.3-3.28-8-4.12-3.71-.83-8.14-1.05-12.42-.95-8.6.2-16.52,1.73-18.56.85-5.36,3.59-10.84,4.33-17.65,5.05,1.81.57,3.5,4.89-2.36,5.27.61-9.61-11.26-2.27-16.83-8.23,2.39,1.89-1.59,2.8-5.22,3.85-3.61,1.04-6.93,2.21-3.32,4.94-4.79-.15-.76-3.44-4.55-5.18-5.25,2.47-11.39,2.47-17.53,1.74-6.18-.74-12.22-2.2-18.26-2.5-.41,1.17,1.43,3.36-1.56,4.75-.94-1.22-1.83-2.42-2.68-3.63-.83-1.25-1.62-2.49-2.36-3.72-1.18,0-2.16,1.54-3.26,2.45-.55.45-1.13.73-1.75.57-.61-.2-1.26-.85-1.92-2.21.21,1.17.61,2.97-1.08,2.79-2.65-1.77-5.08-3.34-7.92-5.13-2.84-1.75-6.02-3.6-9.72-5.3-3.68-1.69-7.93-3.25-12.72-4.08-1.17-.22-2.43-.36-3.64-.47-1.21-.06-2.42-.17-3.64-.15-2.44.02-4.89.2-7.29.62-4.81.81-9.33,2.41-13.41,4.34-4.09,1.93-7.78,4.15-11.28,6.35-6.98,4.41-13.43,8.76-20.56,11.74,4.48-1.03,2.74.99.71,3.09,1.76-.92,2.09,2.21,3.52,3.14-3.92,1.66-7.77,3.25-11.52,4.56.82,2.4-1.35,4.44-3.45,6.2-1.05.9-2.09,1.69-2.75,2.56-.67.84-.98,1.73-.58,2.81.76-.86,1.51-1.7,2.23-2.6-.22,3.44,2.68,4.9,6.41,5.93,3.68,1.04,8.06,1.58,9.97,4.37.31-4.19,4.59-5.12,8.98-6.73,4.4-1.61,8.72-3.72,9-9.83,2.36-.35.28,2.71,2.11,3.12-.18-1.81.12-3.29,1.03-4.6.91-1.31,2.44-2.44,4.66-3.47l.05.89c4.8-4.5,8.81-6.33,12.61-7.07,3.83-.61,7.16-.11,11.25,1.55,0-1.14-.03-2.24-.11-3.38,1.03.38,1.63.93,2.04,1.47.41.53.66,1.12,1.05,1.67,2.18-1.89.48-2.63-1.16-3.17-.41-.14-.8-.24-1.15-.41-.35-.15-.63-.31-.84-.55-.39-.48-.47-1.25.38-2.51.6,1.78,1.78,2.88,3.45,3.89,1.66.99,3.9,1.98,6.33,3.25,2.41,1.25,4.99,2.73,7.05,4.39,2.03,1.66,3.6,3.51,3.69,5.65,3.04,1.29,2.95.21,2.88-.86-.07-1.07-.12-2.12,2.8-.9.26.87.56,1.69.85,2.53.82-.66,1.63-1.32,2.42-1.98,1.86.92,3.12,2.06,3.89,3.24.77,1.18,1.04,2.39.88,3.26-.94-.49-2.99-.35-4.12-.53,1.16.98,2.74,1.7,4.45,2.24,1.72.48,3.58.75,5.32.94,1.74.12,3.38.16,4.68.23,1.3.07,2.26.11,2.7.38-1.98-.67-3.95-1.49-5.88-2.28,4.4.39,8.93.77,13.52,1.07,4.57.22,9.21.41,13.72.23,9.06-.28,17.69-1.62,24.79-4.7l-1.33-1.4c5.42-2.19,7.66-2.12,10.11-1.86,2.43.25,5.06.67,10.9-.97l-.37.44c2.13-1.93,5.18-3.23,8.43-3.56-2.67,2.28,6.13,2.64,2.56,5.25,5.51-2.43,6.83-3.21,7.63-4.28.8-1.07,1.05-2.42,4.5-5.78l2.06,2.36c2.3-2.61,2.39-3.92,8.19-5.1-2.31,1.31-1.28,2.23-.34,3.22.94,1.02,1.78,2.1-.7,3.8,6.15,2.31,10.24.78,13.78-.36,3.47-1.08,6.34-1.76,8.6,2.59,1.41-1.67,1.57-2.81.99-3.6-.29-.4-.76-.71-1.33-.95-.57-.24-1.25-.37-1.95-.48-2.78-.47-5.95-.01-4.42-.79-1.26-1.19-.14-2.52,1.84-3.45,1.96-.87,4.78-1.36,6.65-.78.96.13,1.81.81,2.65,1.76.42.47.85,1.02,1.29,1.6.44.59.9,1.21,1.4,1.88,1,1.29,2.13,2.59,3.58,3.64,1.45,1.08,3.2,2.01,5.48,2.4-.9-.21-1.07.31-1.96.11.76.61,1.57.85,2.44.91.87.1,1.78.04,2.72.01,1.87-.05,3.84.05,5.55,2.09,1.74-1.77,3.11-1.34,4.29-1.1,1.19.27,2.21.33,3.35-2.21-2.98-.51-5.95-.8-8.9-1.18,2.59-.02,5.48-1.36,8.66-1.85,1.59-.25,3.26-.33,4.97,0,1.71.37,3.47,1.14,5.25,2.56-.99.85-3.86,1.45-5.75,1.69,1.83,2.34,4.86.43,6.76,2.89-1.26,2.48-3.94,1.9-7.12,1-1.59-.47-3.3-.94-5.01-1.18-1.71-.24-3.41-.21-4.96.48.9,1.43,3.56,1.2,5.51,1.22,1.95.02,3.12.29.94,2.76,2.98-3.07,5.21-2.05,7.64-.77,2.46,1.37,5.11,2.99,9.28,1.43l-1.55,2.97c1.18-.12,3.78-.86,5.61-.08-1.63.92-3.22,1.88-4.82,2.82,6.37-1.59,8.8,6.69,14.53,6.7-10.55-3.83-.96-4.63-4.55-8.56,7.23.33,8.36,3.07,9.57,6.21,1.21,3.13,2.49,6.72,10.41,8.62-2.28-.26-7.03-4.6-3.34-4.91,2.61,1.67,6.07,4.17,7.32,6.44,5.32,1.34,5.16.39,4.33-.95-.83-1.34-2.33-3.07.17-3.34,2.26,4.99,5.58.02,10.42.08l-.88,3.26c5.74,2.65,7,1.11,8.04-.37.52-.75,1-1.48,1.98-1.72.98-.26,2.45-.02,4.99,1.21-1.84,1.2-3.71,2.38-5.6,3.56l5.95.07-1.98,3.5c3.43-.68,5.56-.86,7.59-.51,2.03.34,3.96,1.19,6.94,2.16-1.04-2.58,1.76-5.9,7.06-5.25,3.37,2.45-2.47,2.93,5.18,3.4-1.95,1.88-4.22,4.28-7.13.76-.49,1.04-2.01,1.84-2.52,2.86,1.84,1.48,4.35,1.91,6.74,2.05,2.39.15,4.66-.04,6.05.07-1.06-.24-2.32-.53-2.93-1.11,1.95-.55,3.88-1.17,5.8-1.75,1.92-.59,3.83-1.18,5.72-1.83,1.63,1.4.18,2.31-1.28,3.2,2.28-.19,3.94-1.62,7.23-1.66-1.03,2.67-1,5.52-5.83,6.45l5.44-1.11,5.38-1.23c.32.61,1.64,1.51,2.7,2.36,1.06.84,1.87,1.64,1.16,2.12,2.9.9,6.58-.25,10.41-1.46,3.85-1.17,7.86-2.34,11.68-1.26.4-.53,1.2-1.03,2.82-1.43,7.14.6,13.54,3.88,21.84-.08l4.87,4.8c6.51-1.29-6.57-6.03,4.25-8.17,7.61-1.79,2.98,4.11,5.71,5.41,3.74-2.59,10.19-7.83,17.32-4.03-2.3.99-4.14.32-6.3.75ZM558.51,85.97c-1.53.75-4.55,3.03-5.74,1.07,1.65-3.92,3.07-2.11,5.74-1.07ZM679.75,74.28c-1.12,1.15-2.92.65-4.96-.57,1.45-.32,3.11-.24,4.96.57ZM1010.78,13.04c-.07.05-.12.09-.18.15-3.36-1.55-2.17-.95.18-.15ZM1017.84,15c.75-.42.73-.89.46-1.38-.56.82-2.17.77-3.98.4.45.92,1.33,1.59,3.52.98ZM262.7,23.81l1.31,1.15c-3.54.3-2.43-.38-1.31-1.15Z"/>
      <path class="cls-1" d="M666.11,79.3c-.45-.56-.59-1.18-.72-1.82-.59.59-.59,1.24.72,1.82Z"/>
      <path class="cls-1" d="M428.4,93.29c-.08-.03-.17-.02-.25-.04-.14.2-.21.41-.25.61l.5-.57Z"/>
      <path class="cls-1" d="M905.48,36.49c-1.42-.52-2.21-1.15-2.73-1.8-.1.82.54,1.54,2.73,1.8Z"/>
      <path class="cls-1" d="M1056.17,11.89l-4.65.56c2.23-.01,2.97.78,4.05,1.39-.05-.79-.84-1.99.59-1.95Z"/>
      <path class="cls-1" d="M1094.53,35.48c.7-.37,1.42.05,2.11-.32l-.08-1.58c-2.86-.09-4.94,1.03-2.04,1.9Z"/>
      <path class="cls-1" d="M1059.64,23.38c.17,2.86,3.11,2.1,6.36,1.79-.19,0-.38,0-.57-.04,1.22-3.9-2.29-2.82-5.79-1.75Z"/>
      <path class="cls-1" d="M1066.75,25.12c1-.06,2.01-.07,2.97.13.49-1.56-1.18-.41-2.97-.13Z"/>
      <path class="cls-1" d="M1027.05,13.75c1.47.83,1.21-3.56,1.99-2.34,1.95-3.49-10.46,3.66-1.99,2.34Z"/>
      <polygon class="cls-1" points="1061.6 32.89 1060.69 29.31 1058.69 32.01 1061.6 32.89"/>
      <path class="cls-1" d="M1036.41,28.58l5.07,1.32c-.04-.59.64-.89,1.46-1.1-3.15-.33-6.57-1.27-6.52-.22Z"/>
      <path class="cls-1" d="M1042.93,28.8c1.64.18,3.21.21,4.17-.29-.89-.02-2.82-.04-4.17.29Z"/>
      <polygon class="cls-1" points="1054.51 33.46 1053.04 32.62 1049.43 32.12 1054.51 33.46"/>
      <path class="cls-1" d="M981.29,24.1l-5.67.62c-.65,1.16.82,2,2.94,1.67,1.4-.74,3.51-1.06,2.73-2.28Z"/>
      <path class="cls-1" d="M997.57,34.85c-1.46-.83-1.51-1.62-2.29-2.83l-.47,4.33,2.76-1.5Z"/>
      <path class="cls-1" d="M981.16,34.73c-.64,1.17-8.37,2.89-1.25,3.11.65-1.15,6.33-1.77,1.25-3.11Z"/>
      <polygon class="cls-1" points="897.2 24.38 898.62 24.36 898.52 17.22 897.2 24.38"/>
      <path class="cls-1" d="M828.96,49.25c6.15.07.15-4.6,5.94-3.98.96-2.01-4.75-.51-3.73-2.29-1.54,1.35-2.85,1.86-3.37,2.63-.52.76-.29,1.66,1.16,3.64Z"/>
      <path class="cls-1" d="M831.16,42.97c.5-.43,1.01-.92,1.54-1.54-.93.71-1.32,1.17-1.54,1.54Z"/>
      <path class="cls-1" d="M5.43,50.56c-.62.19-1.23.35-1.82.48-.6.13-1.2.31-1.78.4,1.03.26,2.1.42,3.19.61l.42-1.49Z"/>
      <path class="cls-1" d="M3.08,58.77c-1.05-1.13-2.07-2.26-3.08-3.42.19,1.47.33,2.99.41,4.53.56-.58,1.61-1.62,2.67-1.11Z"/>
      <path class="cls-1" d="M570.66,94.77l.29-1.1c-.7-1.16-1.7-1.22-3.71-1.35l3.42,2.45Z"/>
      <polygon class="cls-1" points="512.56 93.07 513.56 93.13 511.57 89.08 512.56 93.07"/>
      <path class="cls-1" d="M464.01,99.73c2,.11,4.32-.87,6.33-.75-4.32.87-7.01-4.35-6.33.75Z"/>
    </g>
  </g>
</svg>