<?xml version="1.0" encoding="UTF-8"?>
<svg id="Capa_2" data-name="Capa 2" xmlns="http://www.w3.org/2000/svg" viewBox="0 0 1712.21 123.8">
  <defs>
    <style>
      .cls-1 {
        fill: #e3f35e;
      }
    </style>
  </defs>
  <g id="Capa_1-2" data-name="Capa 1">
    <g>
      <path class="cls-1" d="M1706.42,18.19c2.64,2.59,4.77-2.11,5.79-2.46-2.93-1.58-4.52-.64-5.31.51-.79,1.15-.81,2.52-.47,1.95Z"/>
      <path class="cls-1" d="M1650.5,9.5l1.05-1.98-1.97,1.11-1.91,1.18c-1.26.8-2.5,1.57-3.69,2.41,2.11-.95,4.28-1.89,6.52-2.73Z"/>
      <path class="cls-1" d="M1605.94,13.86c1.49,1.86,3.14,2.5,4.92,2.43,1.79-.05,3.72-.8,5.77-1.7,4.08-1.81,8.79-4.2,12.9-3.09l1.48,1.82c.97-2.38,2-4.77,3.09-7.16-5.01.87-10.45,2.97-15.35,4.77-4.93,1.79-9.32,3.36-12.82,2.92Z"/>
      <path class="cls-1" d="M1578.38,2.46c2.44,2.73-3.98,4.28,5.58-.68-.62-.19-.83-.34-1.21-.51-.92.33-2.16.73-4.37,1.19Z"/>
      <path class="cls-1" d="M1582.75,1.27c4.44-1.62-3.79-1.76,0,0h0Z"/>
      <path class="cls-1" d="M1563.34,10c1.51-1.61,3.02-3.24,4.58-4.85-1.86-1.44-7.02,0-5.66-2.02-5.19,3.68-3.25,5.06,1.08,6.87Z"/>
      <path class="cls-1" d="M1560.38,17.81l2.36-2.25c-.78-.58-1.66-.57-2.36,2.25Z"/>
      <path class="cls-1" d="M1567.86,10.81c-1.73,1.58-3.45,3.16-5.12,4.75,1.29.99,2.33,3.56,2.42-1.94.39,2.56.73-.16,2.7-2.81Z"/>
      <path class="cls-1" d="M1571.78,10.79c3.77.63,8.2.38,3.56,5.1,5.11-2.4,6.9-4.84,6.03-6.14-.86-1.3-4.43-1.43-9.59,1.04Z"/>
      <path class="cls-1" d="M1605.92,22.98c1.59.46,3.17.95,4.74,1.46.99-1.2,1.99-2.42,3.03-3.59-1.53,1.72-8.67-.44-7.77,2.13Z"/>
      <path class="cls-1" d="M1529.4,18.66c.36,1.82,3.43,3.87,4.66,5.9l2.89-3.39c-2.35-.39-6.32-.09-7.55-2.51Z"/>
      <path class="cls-1" d="M1534.06,24.56l-4.35,5.06c5.05-1.58,5.4-3.31,4.35-5.06Z"/>
      <path class="cls-1" d="M1562.87,27.05c2.41-3.29,4.89-6.57,7.45-9.84-3.2,3.53-6.27,7.08-9.27,10.64l1.82-.8Z"/>
      <polygon class="cls-1" points="1508.63 26.24 1510.24 21.19 1506.96 29.13 1508.63 26.24"/>
      <path class="cls-1" d="M1495.23,31.67c1.14-4.07-4.93-4.58-3.24-7.42-.86.45-1.65,1.04-2.37,1.72-.72.65-1.38,1.4-1.99,2.2-1.23,1.6-2.29,3.43-3.3,5.16,2.56-2.41,5.83-2.93,10.9-1.66Z"/>
      <path class="cls-1" d="M1480.7,38.55c1.27-1.21,2.4-3.17,3.62-5.21-1.36,1.26-2.59,2.9-3.62,5.21Z"/>
      <path class="cls-1" d="M1520.04,32.33c-.81-.87-2.64-3.26-6.11-3.27l3.92,4.01c.67-.23,1.42-.48,2.19-.74Z"/>
      <path class="cls-1" d="M1517.99,33.2l-.13-.13c-2.38.79-4.04,1.23-4.75,1.43.62-.16,2.09-.56,4.88-1.3Z"/>
      <path class="cls-1" d="M1520.59,32.15c-.2.06-.35.11-.55.18.38.39.57.51.55-.18Z"/>
      <path class="cls-1" d="M1546.12,28.75c-2.17,3.96-7.86,9.57.36,10.97,1.04-4.2-3.65-5-.36-10.97Z"/>
      <path class="cls-1" d="M1525.54,37.14c2.09-.37,4.19-.74,6.29-1.15-.61-1.22-2.37-2.65-1.28-4.6-1.66,1.94-3.33,3.85-5.01,5.75Z"/>
      <polygon class="cls-1" points="1523.24 39.74 1525.54 37.14 1523.21 37.55 1523.24 39.74"/>
      <path class="cls-1" d="M1491.96,40.1c-1.82,2.91-4.52,3.95-7.51,5.26,3.61-.08,7.23-.63,10.5-1.67-.03-1.68.5-4.87-2.99-3.59Z"/>
      <path class="cls-1" d="M1504.72,37.35c-.13.17-.34.3-.46.46.48.29.81.33.46-.46Z"/>
      <path class="cls-1" d="M1453.95,53.12c.23.24.45.55.68.8-.02-.3-.06-.59-.07-.89l-.61.09Z"/>
      <path class="cls-1" d="M1495.8,44.42c2.82.09,3.93-1.6,4.85-3.58-1.71,1.11-3.59,2.12-5.71,2.85.02.75.12,1.23.86.73Z"/>
      <path class="cls-1" d="M1472.97,43.24c1.57.67,3.27,1.12,5.04,1.49-1.71-1.2-4.94-2.91-5.04-1.49Z"/>
      <path class="cls-1" d="M1502.96,36.76c.1-.12.18-.25.3-.34-1.17-.77-.9-.29-.3.34Z"/>
      <path class="cls-1" d="M1502.96,36.76c-1.04,1.13-1.64,2.67-2.3,4.07,1.4-.9,2.63-1.89,3.6-3.02-.43-.24-.92-.66-1.3-1.06Z"/>
      <path class="cls-1" d="M1450.46,87.3c-.16-2.39,1.36-4.99,3.77-6.51,1.21-.77,2.65-1.23,4.23-1.33,1.58-.11,3.31.2,5.12,1.1,5.29-4.82-2.34-19.14-8.95-26.63.24,2.03.69,4.04-4.64,7.84,1.26,1.08,4.83,2.01,7.6,3.12,2.76,1.16,4.75,2.71,2.66,5.38-1.87,1.04-3.25,1.56-4.32,1.7-1.07.11-1.84-.11-2.5-.52-1.33-.81-2.25-2.33-4.41-3.21,2.18,2.61.05,5.2-2.32,8.18-2.35,2.97-4.99,6.16-3.43,10.36l3.45-2.05,3.39-2.18c.38,1.31-1.91,3.93.34,4.77Z"/>
      <path class="cls-1" d="M1465.69,51.89l2.22-1.18c-2.89-.12-5.29-1.42-9.6-4.32-3.34,3.12-3.81,5.03-3.75,6.63l5.87-.96,2.94-.49,2.95-.58-.64.9Z"/>
      <path class="cls-1" d="M1478.53,47.85c-.41,5.52-5.67,9.26-.64,13.67,7.06-2.39,3.84-5.59,7.43-8.94-5.51,2.24-4.89,1.31-4.03-.23.87-1.54,1.95-3.7-2.51-3.95,1.96-1.48,3.86-2.29,5.67-3.04-2.19-.01-4.35-.22-6.43-.62.13.08.23.15.34.24l.05-.03s0,.05.01.08c.66.48.92.81.28.61-.02.07-.15.13-.2.17.12.71.09,1.38.03,2.02-3.53-.1-.87-1.15-.03-2.02-.03-.25-.01-.51-.07-.78-.02-.02-.04-.04-.06-.05l-5.2,2.95-5.24,2.79c2.55.08,5.5-.74,10.61-2.87Z"/>
      <path class="cls-1" d="M1544.45,52.49c-.53-.28-.65-.63-.81-.97-.52.88-.64,1.4.81.97Z"/>
      <path class="cls-1" d="M1538.56,51.44c.58-1,.53-3.2,3.44-3.77,2.93.52.9,2.31,1.64,3.84,1.15-1.92,4.38-5.69-1.68-6.02l-.56.97c-2.64.08-6.02-.81-8.67-1.84-2.65-1.05-4.56-2.25-4.28-2.73,3,3.85,5.37,6.5,10.11,9.54Z"/>
      <path class="cls-1" d="M1508.21,51.85l-8.79,5.63c2.1.89,4.2,1.74,6.32,2.61l-1.1-2.47c5.83-.85,3.57-3.58,3.57-5.77Z"/>
      <path class="cls-1" d="M1452.37,50.84l.1-5.62c-1.22,2.94-2.47,5.73-3.78,8.6,1.24-1,2.46-1.96,3.68-2.98Z"/>
      <polygon class="cls-1" points="1440.52 53.67 1440.19 48.92 1437.53 52.2 1440.52 53.67"/>
      <path class="cls-1" d="M713.44,68.53l-2.92.65c1.32-.09,2.22-.33,2.92-.65Z"/>
      <path class="cls-1" d="M731.8,74.41l1.24-2.04c-1.28.91-1.94,1.7-1.24,2.04Z"/>
      <path class="cls-1" d="M1120.48,49.69c-1.77-2.14-3.45-4.81-4.67-6.47-1.2-1.61-1.92-1.99-1.77.68.3,1.73.62,3.47.95,5.2,2.3-.87,3.94-.46,5.48.58Z"/>
      <path class="cls-1" d="M904.33,67.6c.62.24,1.26.5,1.9.75.07-2.09.14-4.05.2-5.81-.63,1.52-1.35,3.25-2.1,5.06Z"/>
      <path class="cls-1" d="M912.3,87.85c-2.18-.05-4.42-.04-6.64-.05,1.7.38,3.9.39,6.64.05Z"/>
      <path class="cls-1" d="M602.68,66.91l-3.08,5.49c5.29-.34,2.81-2.86,3.08-5.49Z"/>
      <path class="cls-1" d="M1317.55,42.27c-3.12-3.02-5.86-4.71-8.43-5.7,3.71,4.17,6.05,9.52,8.43,5.7Z"/>
      <path class="cls-1" d="M736.32,17.51c-2.26.32-3.39,1.09-3.64,2.23,2.27-.26,3.71-.88,3.64-2.23Z"/>
      <path class="cls-1" d="M1298.1,33.5c.55.69,1.14,1.13,1.71,1.74,3.05-.07,6.05.04,9.32,1.33-2.73-3.1-6.29-5.52-11.03-3.07Z"/>
      <path class="cls-1" d="M165.15,81.48c-.32-.23-.71-.33-1-.6-.08.71.36.73,1,.6Z"/>
      <path class="cls-1" d="M36.96,31.31c1.25-.35,3.29-.39,5.22-.5-.95-.34-2.52-.28-5.22.5Z"/>
      <path class="cls-1" d="M1393.22,54.18c2.44-.24.42-.56,0,0h0Z"/>
      <path class="cls-1" d="M1405.19,75.04c-.57.59-1.01,1.34-1.08,2.54.22-1.26.6-2.06,1.08-2.54Z"/>
      <path class="cls-1" d="M1261.97,58.17c-.08-.02-.15-.04-.24-.07.63,1.17.53.95.24.07Z"/>
      <path class="cls-1" d="M1396.78,56.7c-.9-.68-1.93-1.26-3.06-1.68.48.42,1.41.96,3.06,1.68Z"/>
      <path class="cls-1" d="M1396.38,54.22c.83.27,1.48.43,2.11.6.33-.85.08-1.41-2.11-.6Z"/>
      <path class="cls-1" d="M1389.83,54.27c.34.01.68.05,1.01.1.34.03.67.08.99.14.65.12,1.28.3,1.89.52-.46-.37-.64-.67-.5-.84-.36.02-.79.05-1.34.08-.55.04-1.22.06-2.05,0Z"/>
      <path class="cls-1" d="M399.04,62.91c-.19-.16-.42-.26-.63-.47-2.83,2.25-1.57,1.87.63.47Z"/>
      <path class="cls-1" d="M1042.46,90c.15,0,.26-.12.4-.14-.12-.09-.26-.21-.36-.3l-.04.44Z"/>
      <path class="cls-1" d="M1031.38,90.54c6.13-4.84,8.32-3.31,11.12-.99l1.25-15.35-12.36,16.34Z"/>
      <path class="cls-1" d="M666.22,62.79l3.12,2.56,3.05,2.63c-1.06.87-2.07,1.58-3,2.17-.94.6-1.83,1.11-2.62,1.52-1.6.83-2.88,1.34-3.72,1.84-1.69,1.01-1.61,2,1.13,5.48.5-4.05,2.31-6.07,4.82-7.08,2.47-.94,5.62-.87,8.74-.76,3.09.19,6.2.3,8.71-.51,2.5-.81,4.47-2.67,5.33-6.66,1.24,1.34,2.47,2.67,3.64,4.07-1.16-.37-1.5.52-2.66.19,3.38,4.53,5.29,1.93,7.8-1.32,1.25-1.63,2.61-3.38,4.3-4.42,1.69-1.05,3.73-1.42,6.25-.28,3.37,2.15,5.24,5.06,2.34,6.32l4.49-.94,4.49-.78c2.22.98.82,3.52-1.35,2.56,4.13.69,8.14,1.66,12.21,2.58l-.25.42c2.48-1.78,7.72-4.01,10.27-4.81,2.08,3.45-2.15.96-2.16,3.19,2.64-.34,5.29-.58,8.01-.85.46,2.5-1.12,4.08-3.24,4.77-1.07.34-2.28.46-3.47.34-1.2-.12-2.37-.5-3.43-1.04,0,4.32.27,6.45,1,7.32.71.89,1.82.58,3.24.17.71-.2,1.5-.43,2.35-.55.84-.09,1.72-.06,2.65.22.93.28,1.9.81,2.87,1.71.48.46.98.98,1.45,1.66.46.69.92,1.48,1.35,2.4-1.07-.18-2.1-.4-3.18-.54l-3.22-.42c-.13,2.51.09,4.31.57,5.74.47,1.43,1.14,2.56,1.96,3.59.81,1.04,1.75,2.02,2.65,3.23.86,1.27,1.68,2.81,2.28,4.86.08-.84-.09-2.44-.3-4.41-.1-1.01-.21-2.1-.32-3.17-.12-1.08-.22-2.2-.27-3.29-.19-4.39.41-8.5,4.6-8.52,1.26,2.01,3.12,3.94,8.25,3.2-3.01,4.87.81,5.77,4.92,8.15l-4.71,6.08c2.63.48,4.57.05,6.37-.73,1.84-.73,3.5-1.79,5.98-2.09,2.53,2.36,3.37,5.06,3.41,7.8,0,2.73-.74,5.53-1.36,8.15,2.73,2.24,4.08,2.55,4.55,1.83.48-.72.12-2.45.03-4.15-.12-1.71-.08-3.43.85-4.24.97-.8,2.68-.72,6.41,1.19,2.12,2.18,4.54,3.93,7.15,5.31,2.68,1.36,5.51,2.38,8.7,3,1.58.35,3.18.49,4.82.62.82.06,1.65.11,2.49.15.85.02,1.72-.01,2.6-.04,1.76-.07,3.56-.13,5.45-.41,1.88-.26,3.81-.49,5.8-.96,4.46,1.64,4.12,2.73,2.88,3.81-1.21,1.05-3.32,1.97-1.61,3.18.76-.47,1.52-.92,2.25-1.41l2.15-1.52c1.4-1.04,2.77-2.01,4.03-3.13,1.94.02,1.45,1.94,1.17,2.91,3.38-1.41,3.28-3.36,3.66-5.3.19-.97.48-1.95,1.3-2.89.81-.95,2.16-1.82,4.32-2.79.21-2.21,1.59-2.71,3.65-2.62,1.03.05,2.3.32,3.65.58,1.35.26,2.87.59,4.46.87,6.28,1.09,13.78.97,16.35-5.6,3.26.88.9,4.78,2.86,7.13,2.64-3,4.39-5.09,5.7-6.75,1.34-1.65,2.24-2.87,3.04-4.11.81-1.24,1.49-2.5,2.28-4.24.81-1.74,1.72-3.96,2.95-7.1l10.16-.05c-8.44-1.76-4.79-11.8-1.33-20.2-3.35-1.3-6.27-2.44-7.98-2.79,2.66-3.1,5.33-6.22,8.15-9.31,1.86.42,2.05,3.32,1.93,7.04.39-.93.75-1.84.98-2.63,5.01.54,5.12,5.48,4.67,10.61-1.92-.68-3.91-1.43-5.86-2.17-.18,5.44.14,11.23,2.87,14.83.19-1.12,1.04-2.5,2.16-3.61,0,1.45.16,2.66.82,3.16.73.52.88-1.51,1.51-4.11,2.12,2.08,4.21,4.2,6.28,6.31l-1.11-3.27c4.95-.66,9.75-1.09,14.25-1.16,2.28-5.73,4.14-12.23,7.74-18.12.91-1.44,1.92-2.88,3.06-4.29,1.14-1.39,2.45-2.59,3.89-3.81,1.43-1.25,3.04-2.24,4.8-3.16.88-.46,1.8-.91,2.75-1.3.96-.35,1.96-.67,3-.95-1.89,3.26-1.83,5.82-1.37,8.5.47,2.68,1.34,5.49,1.5,9.2-.55-.95-1.14-1.61-1.76-2.02-.62-.4-1.26-.51-1.93-.47-.67.04-1.36.26-2.05.59-.7.33-1.41.76-2.11,1.33-.7.55-1.4,1.15-2.12,1.73-.71.6-1.45,1.11-2.16,1.7-.72.56-1.46,1.04-2.24,1.38-.78.35-1.61.52-2.49.63,3.72-.21,3.8,3.51,3.35,4.87,1.5-1.6,3.06-3.34,4.83-4.81.87-.76,1.75-1.59,2.69-2.31l2.89-2.15c.2,3.05.96,4.07,2.08,4.66,1.13.63,2.66.79,4.25,1.94-.7-2.96-.55-4.99.27-6.4.83-1.37,2.31-2.11,4.07-2.6.87-.27,1.84-.38,2.83-.49.99-.11,2-.21,2.98-.32,1.99-.2,3.92-.41,5.45-1.21-.04,2.02-.54,4.03-1.8,5.32-1.27,1.31-3.3,1.83-6.49,1.25,1.68,2.35,3.04,2.63,4.44,2.02,1.38-.65,2.72-2.34,4.13-4.06,1.42-1.68,2.9-3.37,4.45-4.12,1.54-.77,3.17-.49,4.75,1.75-1.74-.2-2.58-1-3.57.93,1.13-.73,2.59-.96,4.08-.89.74.04,1.5.16,2.22.34.73.21,1.43.48,2.07.79,2.56,1.25,4.07,3.2,2.53,4.67l-1.71-.28c5.49,1.88,14.14,4.17,22.23,5.13,8.07.92,15.56.32,18.01-4.26-.28,1.29-5.31,11.22-6.65,12.96,10.55-8.66,21.42-17.16,31.88-25.92-2.23,3.89-3.07,11.4-4.76,18.13-1.69,6.73-4.27,12.7-10.18,13.45,1.3,1.06,2.76,2.22,4.8,3,2.08.76,4.71,1.15,8.37.59-1.78-1.8-1.5-13.67,1.48-13.61,2.41,5.8,3.45,7.42,4.71,8.96,1.28,1.53,2.83,2.92,6.77,8.24-1.41-1.32-.32-5.08,1.67-8.3,2.01-3.24,4.87-5.97,7.27-5.17-1.24,1.82-2.6,13.33-4.81,14.27,2.64-1.65,5.32-3.42,7.91-5.16,2.58-1.73,5.15-3.57,7.63-5.41-3.58,1.83-2.66,11.15-.18,15.46-.51-1.4,2.45-.89,6.05-.18,1.78.39,3.8.72,5.59.94,1.79.2,3.35.32,4.34.02-1.95-1.18-3.82-2.44-5.67-3.66,1.93.45,3.66.51,5.21.27,1.57-.29,2.97-.87,4.23-1.65,1.26-.78,2.38-1.74,3.41-2.82,1.05-1.12,2.01-2.33,2.95-3.56,1.87-2.48,3.63-4.9,5.76-6.91,1.07-.98,2.22-1.8,3.55-2.39,1.33-.56,2.8-1.06,4.55-1.15-.65,1.48-1.27,5.87-.79,10,.48,4.12,2.21,7.99,6.53,8.29.69-1.88,1.74-5.06,2.93-8.86.59-1.91,1.22-3.94,1.86-6.1.59-2.06,1.23-4.3,1.91-6.66,2.59-9.03,4.85-18.11,9.11-22.59l3.45,2.91,6.67-7.53c-.73,5.9-2.48,15.39-5.37,24.79-1.44,4.71-3.23,9.39-5.29,13.57-2.04,4.19-4.38,7.86-6.59,10.54,3.43.79,4.21,1.81,5.19,2.29.5.24,1.06.35,2.08.22.51-.07,1.13-.19,1.9-.4.75-.22,1.65-.51,2.75-.9,2.13,1.28,1.36,2.99-.35,4.53-.83.78-1.97,1.48-3.05,2.05-1.09.57-2.1,1.03-2.82,1.26,7.85-1.17,15.04-2.89,21.63-4.56-1.85-3.61.99-6.88,3.59-9.93,2.64-3.07,5.11-5.91,3.53-8.89-4.85,4.99-10.1,10.19-16.29,15.34-1.78-3.66-.55-10.12,2.19-16.05,2.77-5.93,7.2-11.42,13.26-13.09,2.07.9,2.83,4.46,3.27,8.08.45,3.62.55,7.31,1.16,8.51.12-.8.7-1.76,1.56-2.75.87-1,1.97-1.98,3.1-2.81,2.28-1.66,4.65-2.67,5.45-1.89-.99,1.85-2.01,3.79-2.98,5.68,3.46.33,4.83-3.02,6.63-5.78.91-1.41,1.9-2.63,3.22-3.17,1.32-.55,3-.3,5.08,1.15,1.2-.06,3.47,2.23,5.21,3.84,1.75,1.6,3.1,2.78,2.95.37-2.46-4.33-5.29-13.36-7.35-22.26-2.06-8.9-3.15-17.71-1.92-21.46.31.11,1.64.55,3.48,1.22.92.34,1.97.73,3.08,1.17,1.11.46,2.29,1.01,3.47,1.56,1.18.56,2.37,1.15,3.51,1.77,1.14.65,2.23,1.32,3.23,1.97s1.9,1.31,2.66,1.93c.76.64,1.38,1.27,1.82,1.83,2.51,3.58.66,7.9-.97,12.09-1.67,4.25-3.11,8.39-1.22,11.39.03-1.1.58-2.37,1.27-3.47.69-1.07,1.52-1.98,2.01-2.42,1.39.93,1.1,2.64,1.23,3.98.06.67.22,1.25.71,1.6.49.33,1.33.46,2.78.27,1.17-8.26,12.08,1.34,3.03-6.83,3.05-1,4.64-.48,6.31.33.84.42,1.69.9,2.78,1.3,1.08.38,2.4.72,4.17.87-.79-2.76,1.31-7.04,4.67-10.75,1.67-1.83,3.65-3.52,5.67-4.82,2.01-1.29,4.04-2.16,5.79-2.44-.77,1.98.2,4.89.65,6.25,12.99,3.39,18.93,8.83,30.86,12.18.57,2.2,5.67,6.16,2.26,8.84,2.1-.91,4.44-3.13,8.19-2.25,5.16,8.85-8.52-1.31-5.43,8.42,1.77-4.44,11.33-3.54,17.47-4.86.41-7.52-11.82-4.9-17.87-3.54,1.38-4.88,5.09-9.2,10.21-12.41,5.12-3.21,11.64-5.28,18.49-5.76,10.53.37,2.5,7.51,4.6,6.6,9.05,3.43,14.13.15,18.49-2.63,2.19-1.37,4.21-2.63,6.49-2.9,2.3-.24,4.83.45,8.16,3.01,2.3,3.72,1.82,6.89.73,9.73-1.07,2.83-2.74,5.33-2.49,7.74-2.17.23-4-.13-5.6-.74-1.6-.6-2.96-1.5-4.22-2.46-2.52-1.89-4.59-4.02-7.36-4.58,2,1.54,4.01,3.1,6.05,4.6-3.07,1.51-8.97,1.73-11.46-.87,1.86,3.49,9.8,5.83,19.06,7.96,4.65,1.01,9.61,2.08,14.32,3.11,1.18.27,2.35.55,3.49.86,1.15.27,2.27.54,3.36.85,2.18.61,4.24,1.32,6.1,2.17.72-.47,1.57-.94,2.39-1.42.82-.51,1.62-1.05,2.27-1.59,1.29-1.1,1.95-2.28.94-3.62l-2.38.35c-.8.11-1.59.16-2.39.24-1.94-2.8.42-4.38,2.46-5.64,2.07-1.37,3.85-2.4,1.06-3.73,3.15-1.7,6.42-3.92,9.87-5.29,3.47-1.52,7.13-2.29,11.33-.85l1.88,7.26c-.14-1.09-1.58-2.03-3.26-2.6-1.68-.53-3.6-.51-4.79.62.88-.82,2.13-.62,3.6,0,.73.31,1.52.72,2.34,1.16.82.43,1.67.83,2.52,1.21,3.41,1.5,6.96,2.19,8.53-2.73-2.13-1.58-4.22-3.16-6.27-4.74,2.89-2.03,5.96-5.02,9.18-7.56,3.23-2.49,6.57-4.12,10.32-3.57-2.13-3.36-2.49-3.1-3.12-2.95-.62.16-1.53.16-4.48-3.82,2.76,5.03-1.76,5.38-5.97,5.78-2.1.17-4.09.22-5.1.99-1,.75-1.04,2.15.92,4.82-2.93-4.79-5.16-5.65-7.59-6.44-2.4-.85-5.02-1.51-8.21-5.67.09,1.21.65,2.36.48,3.07-.16.69-1.1,1.05-3.93.28-.28.7-.91,1.57-1.32,2.08-.17-.07-.23-.12-.38-.2.11.1.19.21.31.3-.26.35-.29.43.11.1,1.34,1.12,2.43,2.45,2.87,3.82-1.51,2.72-4.68,3.93-7.92,4.82-.81.21-1.63.44-2.41.6-.79.15-1.55.3-2.27.47-1.44.34-2.7.75-3.59,1.38-3.47-1.49,1.78-2.62.09-5.39-1.73,1.26-3.5,2.58-5.3,3.8.1-2.71-1.94-5.26-2.87-7.36-.94-2.11-.77-3.78,3.41-4.79l-3.55-.62-3.59-.72c-3.75-3.71-9.29-6.06-13.53-4.74-3.18-1.89-10.39,3.61-6.25.3-4.21.12-8.52.12-12.88.09l.24-1.33c-5.92-1.98-12.82-1.64-19.77-2.51-6.95-.87-13.89-2.93-20.06-9.67-4.78.1-9.74.46-17.01-2.88l-.42-4.9c-1.57.03-3.44-.47-5.41-1.21-1.95-.74-4.05-1.67-6.08-2.47-2.01-.81-3.99-1.47-5.68-1.64-1.69-.18-3.07.09-3.95,1.17-2.39-6.72-10.34-8.73-19.36-8.84-2.27,0-4.58.08-6.86.19-2.3.17-4.58.35-6.76.51-4.4.4-8.41.64-11.63.3l-.14,6.1c-8.46.16-16.64,2.85-26.32,7.63l1.85,5.09c-3.73,3.11-9.32,3.68-15.4,4.29-6.08.58-12.64,1.15-17.93,3.61-.02-2.21,2.92-2.84,5.46-2.51-4.55-1.46-8.24-.97-11.38.43-3.17,1.43-5.7,3.72-8.16,6.04-2.43,2.31-4.73,4.55-7.21,5.86-1.2.59-2.49,1.05-3.75,1.02-.63,0-1.28-.09-1.93-.27-.66-.22-1.32-.55-1.98-.99-.93,1.16-1.86,1.67-2.77,1.75-.93,0-1.82-.4-2.7-.98.21-.04.39-.16.53-.35-.24-.04-.59,0-.94.05-.55-.4-1.11-.83-1.66-1.26-.56-.44-1.14-.91-1.73-1.31.52.63,1.03,1.2,1.52,1.67.48.44.94.78,1.37.98-.44.07-.92.23-1.46.36-.54.13-1.13.29-1.74.5-1.23.4-2.55,1.06-3.97,1.69-.43-1.93-.83-3.85-1.21-5.78-.21.08-.39.07-.61.17-2.52-2.12-2.22,2.74-.8,7.09-.36.24-.72.49-1.07.76-.36.25-.71.5-1.05.77-.68.54-1.32,1.15-1.89,1.81-.48-2.36-1.18-3.36-2.04-3.7-.86-.37-1.89-.11-2.96.15-1.07.24-2.16.51-3.14-.01-.98-.52-1.8-1.73-2.25-4.3-1.32,2.3-5.29,2.57-9.47,3.35-2.1.35-4.24.92-6.14,1.89-1.9.98-3.54,2.48-4.59,4.85.2-1.32-.61-2.16,1.18-1.82-1.68-.99-3.36-2.02-5.12-2.58-1.76-.54-3.59-.58-5.64.32l.46-7.51c-3.53,2.44-7.18,4.75-10.85,7.09-3.66-5.82-4.86-8.93,1.67-12.81-7.13,2.34-9.87,2.3-12.29,2.39-2.47.06-4.68.18-11.16,2.64l1.95-4.37c-3.76-1.01-11.62,3.2-12.74-1.24-.73-1.4-1.93-2.66-3.52-3.84-1.6-1.17-3.61-2.22-5.91-3.22-2.31-.99-4.96-1.89-7.82-2.77-2.91-.82-5.97-1.68-9.29-2.4-3.26-.79-6.75-1.44-10.25-2.17-3.57-.62-7.15-1.37-10.82-1.96-3.62-.71-7.32-1.24-10.9-2.02-3.65-.58-7.16-1.48-10.64-2.24,1.5,3.41,1.4,4.78.51,5.07-.9.29-2.66-.48-4.67-1.33-4.02-1.51-9.26-3.23-8.86,2.29-2.04-2.98-6.36-4.06-2.35-7.75-1.73.74-3.35,1.28-4.91,1.68-1.55.45-3.03.83-4.46,1.1-1.43.28-2.81.46-4.14.65-1.3.23-2.56.43-3.77.67-4.76,1.01-8.76,2.74-11.07,8.78-2.76-2.42.68-5.6-1.35-6.85-.74,1.11-2.8,4.36-4.84,3.18-2.06-1.2.54-3.36,2.03-5.56-6.39,3.16-8.37,7.28-8.46,11.6-.05,4.33,1.8,8.95,3.65,13.38-7.56-1.09-9.94,1.03-10.53,8.59-3.32-1.69-7.98-2.8-2.2-7.41-1.94.83-7.92,2.99-12.8,5.64-4.89,2.67-8.71,5.74-7.07,9.21-1.98-1.12-4.89,1.94-5.37,3.16-.95.4-1.8.75-2.56,1.07-.76.28-1.44.53-2.07.76-1.25.47-2.27.78-3.28,1.13-1.01.37-1.98.72-3.12,1.19-1.15.51-2.45,1.02-4.13,1.81l2.34.51c.07,2.42-.27,3.92-.89,4.79-.61.85-1.5,1.12-2.53,1.17-1.03.02-2.21-.23-3.46-.29-.62-.06-1.26-.1-1.92-.05-.66.05-1.34.21-2.03.42l.02-.96c-.87-.31-1.62-.56-2.3-.77-.67-.24-1.24-.46-1.75-.61-1.03-.28-1.77-.49-2.38-.56-.6-.07-1.06,0-1.45.12-.38.09-.7.24-1.03.39-.64.27-1.32.63-2.46.17-1.13-.41-2.82-1.46-4.88-4.09-.37,1.89-.7,3.8-1.01,5.71-1.11,2.89-2.34,3.66-3.63,3.24-1.25-.5-2.48-2.18-3.58-4.28-2.29-4.16-3.96-9.68-8.83-10.24.21,1.48.43,2.99.67,4.46-6.49.79-.7-21.42-4.86-26.26-.44-1.63,2.7-.22,4.54.17-1.94-3.71-3.57-5.29-4.69-5.6-1.15-.31-1.95.63-2.8,1.87-1.7,2.49-3.68,6.16-8.8,3.75.23-2.28,2.19-4.09,3.36-5.93,1.16-1.83,1.49-3.7-1.71-6.1-.41-1.22-2.3-1.89-4.93-2.36-2.67-.41-6.1-.55-9.59-.9-1.73-.2-3.53-.34-5.26-.6-1.73-.26-3.4-.62-4.95-1.16-1.54-.56-2.98-1.19-4.24-2.06-1.26-.88-2.33-1.99-3.15-3.41.92,3.81,1.63,7.54-3.98,7.67-1.89-.56-3.81-1.91-5.79-3.64-1.98-1.72-4.02-3.85-6.22-5.54-2.18-1.72-4.46-3.21-6.81-3.76-2.35-.5-4.76-.12-7.13,1.76-.72-1.1-.86-2-.69-2.76-1.61.16-3.67.27-5.9.32-2.23.07-4.64.04-6.99.25-4.71.43-9.12,1.22-11.33,3.59-.36-5.11-2.95-7.52-6.53-8.46-1.79-.43-3.81-.5-5.93-.37-1.06.06-2.14.17-3.22.31-1.08.17-2.17.36-3.24.56-2.14.4-4.24.81-6.15,1.07-1.91.29-3.64.45-5.08.25-2.88-.39-4.61-2.15-4.21-6.71l-8.92-.13c-2.96,0-5.92.04-8.87.07l.54-1.85c-5.65-.83-9.5-.08-12.41,1.35-2.91,1.48-4.89,3.67-6.84,5.86-2.57-1.26-.7-2.96-.48-3.92-8.15-1.82-12.67-2.45-16.78-1.44-4.11.97-7.83,3.62-14.31,8.48l-1.69-5.86c-1.74,1.82-7.66-.21-15.09-1.61-7.42-1.4-16.35-2.17-23.83,1.97.09-.68.32-1.86,1.48-2.81-16.91,8.45-43.19-12.51-47.39,9.63l-10.83,6.37c14.82.32-1.32,9.56,5.05,12.59-5.69,1.82-15.53-5.17-8.54-6.9l1.21.98c1.57-11.44-18.51-2.43-18.73-10.17-28.64,2.76-56.98-2.19-83.98-1.8l3.41,8.67-9.47-.2c-2.54-1.97-3.53-6.76,3.21-6.6-3.69-4.86-11.17,4.51-11.32,6.41-13.31-3.2,4.88-10.37.82-10.47l-5.47.8,1.27.99c-4.36,3.7-4.66,7.52-12.79,7.28-5.18-1.63-2.76-5.35-4.79-5.64,0-.62-.69-.9-3.11-.18l-11.95-.49,4.92,6.83c-5.23,3.52-11.25-.13-5.57,7.6-8.33-11.93-44.75-3.5-49.82-7.16-7.35,5.19-14.69,5.24-23.8,4.8,2.29,1.4,3.79,9.17-4.08,8.36,2.57-16.13-14.5-6.71-21.05-18.16,5.81,7.56-22.27,2.31-13.18,13.03-6.57-1.18-.51-6.01-5.55-9.7-15.47,6.52-34.42-3.41-53.64-.95-.26,2.11,3.02,5.28-1.05,8.5l-10.36-10.36c-3.78,1.11-3.28,12.25-10.36,5.05,1.01,1.76,2.53,4.41,0,5.13-37.92-9.58-76.95,9.85-115.63-8.76,5.27,3.99,1.81,4.46-2.15,4.69,2.6.93.04,5.21.6,8.06l-16.19-7.65c-2.78,7.99-17.19.86-18.72,8.47l5.06-1.46c-6.59,9.08,9.82,19.73,9.05,31.24,7.38-10.32,20.23,14.71,32.37-.1,2.78,2.29-2.27,3.74-.75,6.38,3.06-4.98,6.84-6.08,13.92-4l-.77,1.23c19.76-1.57,28.33,3.13,50.61,5.95l-1.75-5.65c4.79.67,5.83,2.44,8.09,3.82,5.32-8.72-13.42-.24-8.6-9.83,6.55,11.45,33.68-.45,38.2,12.61,7.35-.07-2.28-6.54,5.07-6.6l2.01,3.52,1.77-4.62c4.83.67,7.34,5.07,7.58,8.08-1.18-.34-3.31.91-4.55,1.19,6.32,4.07,17.58-1.76,19.75-.43l-7.1-2.06c19.99-3.7,44.55.52,63.79-7.07l-1.52-2.66c14.7-5.24,11.9,2.73,28.1.13l-.58.65c3.2-2.73,7.52-4.16,11.97-3.94-4.04,3.22,7.83,5.96,2.51,9.53,15.94-5.62,7.86-4.33,18.26-14.49l2.53,4.4c3.54-4.09,3.8-6.22,11.89-7.52-6.58,3.94,5.3,6.68-2.06,11.87,17.2,9.42,25.09-10.29,33.19,3.78,7.59-12.46-14.88-6.55-10.55-9.27-3.74-3.95,6.28-9.33,11.65-8.19,5.45.16,9.57,15.57,23.3,15.03-1.37-.03-1.44.91-2.8.88,5.22,3.02,9.97-4.49,16.41.45,3.34-7.54,8.22.21,8.97-9.32l-12.54,2.53c7.09-2.67,13.45-13.95,25.36-8.94-.85,1.95-4.27,4.57-6.64,6.05,3.53,2.7,6.57-2.06,10.23.69-.7,9.55-15.27,2.57-22.73,10.01,3.81,3.92,14.32-7.3,10.76,3.11,5.14-13.25,13.66,1.24,22.65-9.11l-.4,5.71c1.45-.95,4.41-3.76,7.14-3.72l-4.64,7.57c7.32-6.58,14.88,4.91,22.04,1.12-15.28.9-3.75-6.69-10.38-10.55,18.38-8.5,11.49,14.43,32.54,10.49-2.83,1-10.95-2.8-6.63-5.68,4.08.95,9.53,2.78,12.2,5.62,13.96-2.12-2.54-5.69,3.2-9.58,5.23,6.58,6.68-3.27,12.61-5.95l.48,5.77c16.24,2.47,3.26-12.34,17.92-9.06l-5.36,8.51,7.3-2.71-.96,6.69c7.68-5.59,10.28-4.57,18.34-3.48-2.22-3.89.04-10.55,6.94-11.41,5.05,2.97-2.1,5.73,7.62,3.96-1.86,3.82-3.84,8.58-8.64,3.68-.26,1.92-1.84,3.83-2.12,5.73,5.49,3.44,12.87-.34,16.41-.73-1.38-.08-3.05-.24-3.96-.98l13.39-9.33c2.42,1.96.82,3.86-.76,5.72,2.79-.89,4.52-3.72,8.67-4.6-.66,4.79.03,9.6-5.68,12.35l12.88-6.4c1.08,1.95,7.29,5.02,5.71,6.9,3.77,1.07,8.06-1.56,12.67-4.07,2.31-1.27,4.69-2.48,7.11-3.2,2.42-.72,4.9-.95,7.34-.15.45-.94,1.4-1.86,3.41-2.65,2.28.13,4.49.6,6.69,1.11,2.2.51,4.4,1.01,6.6,1.34,2.21.32,4.47.41,6.82,0,2.35-.39,4.78-1.26,7.4-2.91,2.02,2.77,3.97,5.62,5.91,8.44,4.03-.94,2.1-3.6.79-6.43-1.3-2.81-1.97-5.82,4.95-7.33,9.79-2.45,3.43,7.28,6.71,9.71,2.42-2.04,5.79-5.11,9.67-6.76,3.83-1.56,8.22-1.77,12.21,2.1-1.5.66-2.78.62-4.02.47-1.25-.14-2.48-.36-3.85-.15ZM758.59,83.78c-1.09.1-2.86.54-4.27.52-.71-.01-1.33-.15-1.76-.5-.44-.33-.67-.9-.58-1.8,1.21-1.26,2.13-1.97,2.84-2.29.71-.3,1.22-.21,1.63.14.83.69,1.26,2.37,2.13,3.94ZM923.15,70.19c-.46,2.38-2.84,2.48-6.16,1.77,1.44-1.31,3.44-2.07,6.16-1.77ZM1365.78,55.4c-.1.08-.16.14-.25.24-3.68-3.07-2.39-1.88.25-.24ZM1373.86,59.4c.98-.65,1.04-1.46.81-2.32-.81,1.35-2.74,1.13-4.84.36.33,1.6,1.28,2.81,4.03,1.96ZM367.53,24.76l1.91,1.47c-4.19,1.76-3.04.23-1.91-1.47Z"/>
      <path class="cls-1" d="M911.42,85.48c-.98-.57-1.65-1.42-2.31-2.3-.21,1.24.34,2.22,2.31,2.3Z"/>
      <path class="cls-1" d="M603.25,65.9c-.11-.04-.21-.02-.32-.05-.15.36-.23.71-.26,1.06l.57-1.01Z"/>
      <path class="cls-1" d="M1224.19,77.21c-1.68-.84-2.64-1.84-3.31-2.9-.02,1.44.76,2.52,3.31,2.9Z"/>
      <path class="cls-1" d="M1418.42,51.34l-5.23,1.81c2.56-.44,3.56.77,4.94,1.61-.22-1.34-1.36-3.24.29-3.43Z"/>
      <path class="cls-1" d="M1473.99,78.26c.7-.91,1.84-.55,2.53-1.47l-.91-2.54c-3.65,1.11-5.76,3.89-1.62,4.01Z"/>
      <path class="cls-1" d="M1425.14,70.08c.91,4.8,4.47,2.78,8.43,1.45-.24.06-.47.11-.72.08.34-6.88-3.62-4.21-7.71-1.53Z"/>
      <path class="cls-1" d="M1434.5,71.23c1.23-.41,2.5-.73,3.76-.67.09-2.77-1.6-.34-3.76.67Z"/>
      <path class="cls-1" d="M1384.91,57.51c1.65,1.42,1.69-6.09,2.48-4.02,1.22-2.99-1.76-1.41-3.96.64-2.2,2.05-3.56,4.54,1.48,3.38Z"/>
      <polygon class="cls-1" points="1430.12 85.69 1427.98 79.87 1426.05 84.94 1430.12 85.69"/>
      <path class="cls-1" d="M1396.1,82.58c2.24.65,4.5,1.34,6.78,1.82-.1-1.01.77-1.61,1.83-2.07-4.2-.06-8.7-1.55-8.61.25Z"/>
      <path class="cls-1" d="M1404.71,82.33c2.18.09,4.25-.05,5.43-1.05-1.17.07-3.69.3-5.43,1.05Z"/>
      <polygon class="cls-1" points="1420.82 88.35 1418.68 87.21 1413.77 87.06 1420.82 88.35"/>
      <path class="cls-1" d="M1324.44,68.1l-7.72-.43c-1.31,1.77.32,3.55,3.25,3.54,2.14-.88,5.04-.88,4.48-3.11Z"/>
      <path class="cls-1" d="M1342.4,89.97c-1.74-1.72-1.55-3.04-2.19-5.25l-2.07,7.16,4.26-1.91Z"/>
      <path class="cls-1" d="M1320.24,85.83c-1.29,1.78-12.31,2.65-2.85,4.87,1.31-1.75,9.17-1.32,2.85-4.87Z"/>
      <path class="cls-1" d="M1212.49,57.43l1.86-.27-1.37-12.15c-.22,4.15-.38,8.29-.49,12.42Z"/>
      <path class="cls-1" d="M1115.89,112.17c1.44.36,2.56.52,3.44.5.89-.04,1.54-.23,2.01-.52.95-.56,1.2-1.5,1.43-2.41.22-.91.41-1.8,1.18-2.27.39-.23.92-.36,1.69-.34.38,0,.82.06,1.33.15.51.07,1.1.18,1.76.33,1.19-1.61-1-2.03-3.08-2.61-2.09-.57-4.12-1.1-2.88-2.42-1.59.85-3.04,1.41-4.23,1.83-1.19.4-2.14.72-2.79,1.2-1.3.96-1.46,2.54.14,6.55Z"/>
      <path class="cls-1" d="M1122.77,102.58c1.02-.54,2.09-1.19,3.19-2.05-1.81.87-2.67,1.51-3.19,2.05Z"/>
      <polygon class="cls-1" points="15.73 25.14 9.91 22.7 13.71 26.74 15.73 25.14"/>
      <path class="cls-1" d="M4.83,34.41l-1.5-7.76-3.33,7.11c1.3-.37,3.81-1.09,4.83.65Z"/>
      <path class="cls-1" d="M761.5,104l1.34-1.36c.56-2.07-.24-2.81-1.86-4.28.21,1.89.37,3.78.52,5.64Z"/>
      <path class="cls-1" d="M705.53,74.48l1.1.4c-.18-2.44-.39-4.89-.61-7.34l-.48,6.94Z"/>
      <path class="cls-1" d="M647.29,77.05c2.4.36,5.3-1.17,7.68-.74-5.22,1.03-8.15-8.03-7.68.74Z"/>
    </g>
  </g>
</svg>