<?xml version="1.0" encoding="UTF-8"?>
<svg id="Capa_2" data-name="Capa 2" xmlns="http://www.w3.org/2000/svg" viewBox="0 0 1852.22 206.81">
  <defs>
    <style>
      .cls-1 {
        fill: #e3f35e;
      }
    </style>
  </defs>
  <g id="Capa_1-2" data-name="Capa 1">
    <g>
      <path class="cls-1" d="M1850.57,5.88c3.06-.24.87-4.9,1.11-5.88-4.69,2.19-.69,7.12-1.11,5.88Z"/>
      <polygon class="cls-1" points="1803.86 27.58 1804.33 25.39 1798.02 31.79 1803.86 27.58"/>
      <path class="cls-1" d="M1757.48,36.32c5.92,7.61,16.6-4.39,25.4-3.02l1.73,1.66,2.42-7.48c-4.91,1.49-10.4,4.02-15.62,5.97-5.23,1.95-10.17,3.41-13.93,2.88Z"/>
      <path class="cls-1" d="M1729.57,22.4c2.08,3.02-4.85,3.76,5.93.03-.62-.26-.81-.44-1.18-.65-.99.22-2.36.46-4.74.62Z"/>
      <path class="cls-1" d="M1734.31,21.78c4.83-1.08-3.66-2.21,0,0h0Z"/>
      <path class="cls-1" d="M1712.09,27.45l5.95-4.01c-1.67-1.72-7.45-1.21-5.56-2.97-6.32,2.7-4.66,4.41-.39,6.98Z"/>
      <path class="cls-1" d="M1706.98,34.61l3.15-1.78c-.72-.72-1.65-.86-3.15,1.78Z"/>
      <path class="cls-1" d="M1716.77,29.03l-6.65,3.8c1.16,1.22,1.7,3.94,3.1-1.48-.17,2.6.84-.04,3.55-2.31Z"/>
      <path class="cls-1" d="M1720.99,29.65c3.92,1.24,8.79,1.62,2.81,5.62,12.15-3.22,9.31-8.85-2.81-5.62Z"/>
      <path class="cls-1" d="M1756.67,45.47l5.3,1.58,3.68-3.59c-1.84,1.78-9.75-.58-8.98,2.01Z"/>
      <path class="cls-1" d="M1671.22,29.38c-.13,1.86,2.9,4.47,3.73,6.7l4.46-2.8c-2.64-.86-7.46-1.28-8.19-3.9Z"/>
      <path class="cls-1" d="M1674.96,36.08l-6.69,4.18c6.45-.6,7.39-2.26,6.69-4.18Z"/>
      <path class="cls-1" d="M1707.34,44.18c3.57-2.78,7.13-5.59,10.68-8.41-4.29,2.98-8.61,5.92-12.93,8.85l2.25-.45Z"/>
      <polygon class="cls-1" points="1643.89 33.19 1647.34 28.43 1641.02 35.78 1643.89 33.19"/>
      <path class="cls-1" d="M1625.84,36.52c2.52-3.88-4.95-5.28-2.07-7.85-4.85,1.3-8.64,4.87-12.07,8.07,3.83-2.05,8.18-2.27,14.14-.22Z"/>
      <path class="cls-1" d="M1605.86,41.52c1.9-1.11,3.79-2.89,5.84-4.78-2.03,1.1-3.98,2.54-5.84,4.78Z"/>
      <path class="cls-1" d="M1655.93,41.18c-.71-1.01-2.2-3.7-6.39-4.31l3.56,4.66c.86-.1,1.84-.22,2.83-.34Z"/>
      <path class="cls-1" d="M1653.22,41.67l-.12-.15c-3.07.34-5.21.54-6.13.61.79-.06,2.67-.2,6.26-.46Z"/>
      <path class="cls-1" d="M1656.65,41.09c-.26.03-.46.04-.71.08.34.46.53.6.71-.08Z"/>
      <path class="cls-1" d="M1687.85,42.57c-3.76,3.48-12.1,7.86-2.92,10.88,2.49-3.93-2.75-5.65,2.92-10.88Z"/>
      <path class="cls-1" d="M1661.09,46.92l7.8.03c-.35-1.32-2.02-3.07-.14-4.78l-7.65,4.75Z"/>
      <polygon class="cls-1" points="1657.59 49.08 1661.09 46.92 1658.2 46.91 1657.59 49.08"/>
      <path class="cls-1" d="M1619.59,44.45c-2.99,2.67-6.57,3.36-10.6,4.28,4.51.39,9.1.3,13.39-.31.38-1.68,1.86-4.8-2.79-3.97Z"/>
      <path class="cls-1" d="M1636.01,43.57c-.21.15-.49.25-.69.39.51.36.89.45.69-.39Z"/>
      <path class="cls-1" d="M1568.79,54.15c.26.25.5.57.77.84.01-.3,0-.59.03-.9l-.8.06Z"/>
      <path class="cls-1" d="M1623.25,49.27c3.42.52,5.21-.99,6.86-2.83-2.38.87-4.94,1.55-7.72,1.98-.17.76-.16,1.24.87.84Z"/>
      <path class="cls-1" d="M1594.99,45.42c1.86.83,3.92,1.46,6.07,2.02-1.89-1.38-5.65-3.42-6.07-2.02Z"/>
      <path class="cls-1" d="M1634.01,42.72c.15-.1.29-.22.46-.3-1.23-.94-1.02-.42-.46.3Z"/>
      <path class="cls-1" d="M1634.01,42.72c-1.58.97-2.73,2.42-3.9,3.72,1.94-.69,3.71-1.5,5.21-2.47-.46-.3-.94-.79-1.31-1.25Z"/>
      <path class="cls-1" d="M1560.92,88.41c-.04-4.79,8.06-10.29,16.22-6.25,6.9-4.52,0-19.37-7.58-27.17.04,2.08.31,3.99-6.9,7.78,3,2.23,17.61,3.77,11.79,8.89-9.71,3.78-8.45-.57-13.66-2.41,4.93,5.32-11.65,10.24-8.32,18.58l8.41-4.21c.34,1.32-2.57,3.89.04,4.79Z"/>
      <path class="cls-1" d="M1584.04,53.54l3.03-1c-3.66-.34-6.46-1.88-11.63-4.94-4.87,2.99-5.71,4.89-5.86,6.5l15.42-1.4-.97.85Z"/>
      <path class="cls-1" d="M1601.03,50.61c-1.72,5.46-8.91,8.66-3.57,13.57,9.09-1.6,5.82-5.15,10.97-8.12-14.56,3.28,3.84-3.43-7.21-4.88,2.77-1.27,5.34-1.88,7.77-2.44-2.73-.25-5.4-.68-7.94-1.29.15.1.26.17.38.27l.07-.03s0,.05,0,.08c.72.55.98.91.22.64-.04.07-.22.12-.29.15,0,.73-.19,1.39-.4,2.02-4.41-.47-.85-1.24.4-2.02.01-.26.1-.52.07-.79-.02-.03-.04-.04-.06-.06l-14.37,4.82c3.22.29,7.11-.39,13.96-1.92Z"/>
      <path class="cls-1" d="M1678.75,65.65c-.53-.38-.56-.75-.65-1.12-.86.77-1.16,1.26.65,1.12Z"/>
      <path class="cls-1" d="M1672.21,63.49c.97-.87,1.55-3.06,5.11-3.06,3.26,1.07.36,2.45.77,4.11,1.9-1.68,6.79-4.79-.17-6.27l-.94.85c-6.2-.83-14.78-6.12-13.84-6.96,2.41,4.35,4.43,7.4,9.06,11.33Z"/>
      <path class="cls-1" d="M1636.34,58.53l-11.93,4.25,6.89,3.56-.69-2.62c7.14.04,5.16-3.02,5.74-5.19Z"/>
      <polygon class="cls-1" points="1567.04 51.79 1567.95 46.16 1561.86 54.75 1567.04 51.79"/>
      <polygon class="cls-1" points="1551.12 54.57 1551.09 49.78 1547.24 53.18 1551.12 54.57"/>
      <path class="cls-1" d="M782.12,109.26c-.61.19-1.2.42-1.75.66.71-.14,1.26-.37,1.75-.66Z"/>
      <path class="cls-1" d="M815.51,118.81l.13-.64.4-1.9c-.1.25-.19.49-.26.7-.44,1.18-.57,1.89-.28,1.84Z"/>
      <path class="cls-1" d="M1152.79,87.23c-6.58-2.84-14.76-7.77-12.64-2.81l3.1,4.56c3.62-1.93,6.75-2.17,9.53-1.75Z"/>
      <path class="cls-1" d="M934.38,132.43c-.09,1.29-.18,2.65-.31,3.98.57-.83,1.13-1.6,1.67-2.31.15-.21.25-.27.36-.39l.33-.32c.23-.22.45-.44.66-.65-.4-.08-.81-.2-1.25-.35-.4-.25-.93-.06-1.47.03Z"/>
      <path class="cls-1" d="M923.99,165.73c.04-3.01,0-6.19-.33-9.4.06,2.94.2,6.07.33,9.4Z"/>
      <path class="cls-1" d="M666.48,139.57c-.52,2.12-1.02,4.23-1.5,6.33,5.33-2.19,2.02-3.73,1.5-6.33Z"/>
      <path class="cls-1" d="M1388.41,75.57c-4.65-1.66-8.26-2.24-11.4-2.29,5.58,2.64,10.32,6.71,11.4,2.29Z"/>
      <path class="cls-1" d="M814.43,63.67c-.36.09-.7.21-1,.35-.34.12-.68.23-.95.39-.56.31-.95.74-1.19,1.27.48-.01.91-.05,1.3-.13.35-.1.63-.25.88-.42.49-.35.82-.82.96-1.46Z"/>
      <path class="cls-1" d="M1364.11,74.14c.82.48,1.6.7,2.43,1.09,3.21-1.07,6.45-2.02,10.46-1.95-4.13-1.96-8.75-2.97-12.89.86Z"/>
      <path class="cls-1" d="M154.86,107.21c.03-.26,0-.33,0-.61-.04.71,0,.72,0,.61Z"/>
      <path class="cls-1" d="M30.18,95.78c1.06-.4,2.81-.33,4.43-.67-.42-.14-.95-.13-1.66-.02-.72.07-1.61.28-2.77.69Z"/>
      <path class="cls-1" d="M1486.48,60.75c3.34-.77.46-.64,0,0h0Z"/>
      <path class="cls-1" d="M1505.59,79.04c-.65.67-1.1,1.49-1.03,2.69.12-1.28.49-2.13,1.03-2.69Z"/>
      <path class="cls-1" d="M1331.89,107.96c-.1,0-.18,0-.3,0,1.05.99.87.8.3,0Z"/>
      <path class="cls-1" d="M1491.86,62.44c-1.35-.47-2.88-.81-4.52-.98.75.31,2.13.64,4.52.98Z"/>
      <path class="cls-1" d="M1490.87,60.09c1.2.08,2.13.09,3.02.12.32-.92-.13-1.41-3.02-.12Z"/>
      <path class="cls-1" d="M1481.8,61.63c1.92-.33,3.76-.32,5.54-.17-.71-.26-1.02-.52-.87-.72-.98.21-2.37.49-4.67.88Z"/>
      <path class="cls-1" d="M421.06,166.42c-.17-.23-.4-.41-.57-.71-4.1.93-2.49,1.1.57.71Z"/>
      <path class="cls-1" d="M1084.5,167.43c.13-.11.16-.26.27-.38-.17,0-.38.02-.54.01l.27.36Z"/>
      <path class="cls-1" d="M1074.5,175.53c2.48-7.94,5.55-8.29,9.73-8.46l-9.27-12.49-.46,20.95Z"/>
      <path class="cls-1" d="M738.44,115.65l9.23,2.89c-8.52,9.57-16.04,8.48-7.09,13.31-1.09-8.1,6.82-10.16,14.89-12.18,2.03-.51,4.05-1.01,5.94-1.61,1.9-.6,3.58-1.29,4.81-2.11,1.26-.83,2.17-1.83,2.72-3.13.57-1.31.77-2.9.59-4.93.8.45,1.53.94,2.22,1.43.7.49,1.36,1.01,1.66,1.55-.26-.06-.49.17-.76.4-.24.22-.52.46-1.05.44,2.26,1.69,2.19,1.97,2.68,1.24.39-.73.75-2.37,1.31-4.18.56-1.8,1.31-3.77,2.43-5.02,1.09-1.26,2.64-1.8,4.15-.58.02.03.05.05.06.07,1.91,2.17,1.94,4.92-.12,6,.23-.08.47-.14.73-.2.14-.02.4.02.6.02.22.02.41.02.67.06.99.14,1.89.23,3.04.44,2.09.33,4.71.87,7.49,1.34,1.18.57,1.93,1.12,2.32,1.6.38.48.5.9.19,1.17-.32.27-.88.4-1.71.32-.41-.04-.89-.14-1.41-.3-.26-.08-.55-.18-.81-.29-.25-.11-.5-.23-.77-.37.88.35,2.05.76,3.12,1.13,1.01.37,2.38.76,3.61,1.11l.94.26,1.07.25,2.18.47c.37.07.71.15,1.11.21l1.25.18c.84.11,1.67.21,2.51.29,1.67.15,3.29.11,4.92.1.28,0,.22-.01.28-.02l.11-.03.22-.06c.15-.04.29-.07.44-.13.58-.22,1.15-.52,1.69-.89l.24-.18-.11.52c.62-1.57,1.62-3.85,2.74-6.24,1.11-2.38,2.39-4.81,3.32-6.27.35.32.41.69.32,1.05-.1.36-.35.71-.63,1.09-.58.75-1.24,1.63-1.3,2.63.83-1.28,1.77-2.54,2.87-3.62,1.09-1.08,2.32-1.95,3.56-2.55.06,1.42-.38,2.76-1.01,3.88-.64,1.15-1.48,2.07-2.37,2.96-.88.87-1.81,1.67-2.59,2.4-.79.73-1.43,1.33-1.93,1.62-.41,4.08-.66,6.02-.44,6.48.2.48.85-.47,1.82-1.56.94-1.09,2.25-2.26,3.2-1.92.95.28,1.51,2.18.44,5.94-.87-.21-1.77-.27-2.73-.12-2.34,5.85-3.21,7.71-3.75,9.16-.28.71-.51,1.29-.93,2.02-.42.72-1.03,1.58-2.18,2.65.61-.54,1.62-1.5,2.78-2.9,1.16-1.39,2.46-3.24,3.72-5.27,2.54-4,4.87-8.93,7.15-8.7-.24,1.13-.36,2.14,0,2.81.37.69,1.21,1.02,3,1.15-4.76,3.86-2.98,4.59-1.8,6.88-2.37.97-4.73,1.97-7.08,2.99.32.06.66.11,1.01.14.2.01.38.02.55.03.24.14.52.4.77.56,1.04.72,2.05,1.14,3.06,1.46,2.03.64,4.07.88,6.43,2.29,2.05,7.85-2.97,11.45-7.03,14.95,3.27,12.57,5.91-11.65,12.5,2.24.11,1.39.3,2.7.56,3.95.13.62.27,1.23.44,1.83l.26.89.14.44.24.68c1.45,3.98,3.37,7.39,5.94,10.78,2.62,3.37,5.76,6.7,10.62,10.25,2.45,1.76,5.42,3.63,9.38,5.31,3.93,1.64,9.23,3.19,15.49,2.89,3.58.48,6.36.35,8.22.26.94-.05,1.71-.09,2.3-.1.57-.01.99,0,1.28.07,1.15.22.28,1.19-1.43,2.23-.87.51-1.9,1.05-2.95,1.5-1.05.45-2.06.85-2.78,1.19-.72.33-1.14.62-.98.88.16.26.91.52,2.51.58,1.27-.42,2.49-.89,3.62-1.43.58-.27,1.14-.54,1.7-.82.54-.29,1.05-.59,1.56-.89.51-.31,1.01-.62,1.5-.94.47-.32.9-.65,1.34-.98.87-.66,1.7-1.34,2.58-2.12,1.02-.85,1.29-1.36,1.77-1.96.16-.18.09-.22.09-.29l-.03-.22-.05-.44-.21-1.86c.6-.47,1.32,1.41,1.72,2.34.16-2-.7-3.93-1.39-5.93-.69-2.03-1.26-4.21-.28-7.75-1.26-5.12,1.64-4.86,4.03-3.94,1.22.41,2.33.95,3.19.25.87-.72,1.5-2.69,2.1-7.9.46,1.08.42,3.19.37,5.49-.06,2.31-.12,4.79.09,7.01.64-3.86,1.26-6.81,1.77-9.19.57-2.58.98-4.45,1.36-6.22.48-2.26.92-4.4,1.51-7.17.34-1.61.73-3.42,1.18-5.52.25-1.11.51-2.3.79-3.58.43-.76.95-1.46,1.51-2.26,1.69,4.69,2.66,9.68,3.11,14.51-.21-7.2.73-13.22,3.02-17.37.54-1.03,1.13-1.92,1.79-2.71.63-.78,1.29-1.41,1.98-1.95,1.31-1.04,2.71-1.61,3.92-1.87.06-.89.12-1.77.17-2.63.04-.47.03-.78.04-1.13,0-.34,0-.68,0-1.02-.02-1.34-.05-2.59-.09-3.75-.12-2.3-.31-4.18-.51-5.53,2.47,2.45,4.52,4.92,6.55,7.4,0,3.1-1.61,5.17-3.44,6.97.49.12.97.19,1.39.12.02,2.06-.17,3.82-.49,5.33-.16.75-.34,1.44-.56,2.07-.21.62-.48,1.31-.75,1.89-1.09,2.37-2.47,4.1-3.82,5.86.43-3.63.86-7.57,1.2-11.6-1.52,2.18-3.04,4.9-4.41,8.19-1.35,3.27-2.52,7.09-3.39,11.16.57-1,1.31-1.22,1.86-.67-.75,1.48-1.35,3.03-1.63,4.53-.28,1.61.74-.42,2.03-2.01-1.18,5.13-2.42,10.07-3.7,14.83l1.75-4.67c-.19,5.92-.7,11.19-1.16,15.74,1.51-.97,3.29-1.82,5.42-2.23,2.14-.43,4.62-.39,7.81.1l.6.11.7.16c.47.12.94.24,1.41.36.19.03.61.23.92.35.33.13.67.26,1,.4.68.25,1.3.53,2,.73,1.4.39,2.71.84,4.12,1.04.67.12,1.36.24,2.05.36.68.05,1.36.11,2.05.17,2.71.23,5.46.04,8.05-.38,2.61-.43,5.12-1.13,7.66-1.89-1.09,1.72-1.77,3.19-2.07,4.59-.3,1.4-.23,2.71.06,4.05.55,2.67,2.1,5.41,2.28,9.13-2.27-1.77-4.77-2.41-7.84-2.69-3.05-.29-6.79-.26-11.11-.99-1.06-.18-2.09-.43-3.18-.68-.54-.14-1.09-.27-1.64-.41-.55-.19-1.11-.38-1.66-.57-1.11-.42-2.28-.81-3.36-1.39-1.1-.56-2.21-1.17-3.3-1.83-1.03-.7-2.05-1.46-3.04-2.27l-.94-.76c-.21-.17-.42-.35-.62-.53-.46-.42-.62-.63-.83-.95-.21-.3-.37-.65-.48-1.05.22.84.31,1.52.15,2.14-.1.28-.12.64-.23.93-.1.3-.25.56-.43.79-.36.46-.84.79-1.33,1.02-.49.22-1.02.3-1.29.43.16,0,.53.19.82.31l.93.41c.08.04.15.06.24.11l.54.39,1.08.76c.72.5,1.45.98,2.18,1.44,1.5.91,3.08,1.72,4.63,2.48,1.58.7,3.2,1.3,4.79,1.85,1.59.48,3.18.85,4.75,1.19,1.6.3,3.28.56,4.85.65,3.19.23,6.22.06,8.93-.41-.57,3.01,1.25,4.31,4.23,4.92,2.99.62,6.83.44,10.58.99-1.92-2.71-1.57-4.79-.22-6.46,1.38-1.67,3.76-2.99,6.26-4.18,1.28-.59,2.49-1.15,3.81-1.7,1.3-.54,2.63-1.1,3.92-1.64,2.58-1.11,4.99-2.28,6.61-3.73,1.68,3.71,1.06,8.2-8.65,10.06,6.46,2.8,8.88-1.59,11.06-6.11,2.17-4.6,4.13-9.32,10.3-7.3-2.21.83-3.6.63-3.85,2.87,4.15-5.03,17.61-6.84,15.84-2.48l-2.19.86c7.63-1.89,18.77-5.98,27.66-10.95,8.92-4.95,15.62-10.72,14.82-15.88.63,1.17,2.64,12.19,2.53,14.44l12.78-41.91c.97,9.03,17.03,25.18,7.17,34.33,3.82-.16,8.45-.38,14.38-6-2.72-.28-10.25-9.62-7.41-11.58,6.06,2.87,8,3.57,10.13,3.96,2.13.4,4.45.54,11.14,2.47-4.05-.48-5.05-14.83.59-16.35-.15,2.24,5.04,12.61,3.57,14.65l4.42-8.75,2.26-4.39,2.3-4.32c-2.61,3.43,3.13,11.01,7.29,13.65-1.11-1.02,1.78-1.92,5.34-2.87,1.78-.5,3.72-.93,5.41-1.39,1.69-.47,3.14-.98,3.92-1.57l-6.57-1.28c3.92-.65,6.46-2.39,8.33-4.71.94-1.16,1.71-2.46,2.4-3.84.7-1.34,1.31-2.77,1.93-4.2,1.24-2.87,2.5-5.79,4.46-8.22.98-1.21,2.13-2.3,3.53-3.2,1.4-.89,3.08-1.48,5.08-1.86-1.34,3.16-.55,17.71,7.42,17.66,1-3.73,3.08-12.88,7.04-21.74,1.97-4.47,4.39-8.98,7.24-12.86,2.87-3.78,6.22-6.83,9.86-8.65l3.34,3.56c1.83-1.02,3.7-1.93,5.57-2.85,1.88-.94,3.76-1.82,5.66-2.7-.82,1.36-1.82,2.92-2.95,4.61-1.14,1.72-2.4,3.58-3.74,5.53-2.57,3.79-5.53,8.16-8.58,12.67-1.44,2.11-2.9,4.26-4.35,6.39l-1.06,1.54c-.35.53-.69,1.05-1.04,1.58-.68,1.03-1.36,2.04-2.02,3.04-2.64,3.94-5.03,7.38-7.03,9.89,6.19,2.07,2.43,4.3,10.66,2.46,3.47,3.14-3.55,6.35-5.88,6.98,3.22-.15,6.43-.38,9.62-.48h9.48c-.88-3.96,2.5-6.48,6.06-8.61,3.55-2.16,7.28-4.07,6.71-7.4-3.55,1.61-7.02,3.28-10.4,5-3.38,1.8-6.7,3.67-9.96,5.47-.99-3.93,1.22-9.98,5.8-15.15,4.54-5.18,11.55-9.07,19.04-8.68,1.96,1.53,1.38,5.15.42,8.71-.97,3.56-2.29,7.11-2.08,8.44.83-1.45,4.16-2.91,7.49-3.75,3.34-.82,6.65-1.01,7.34-.02-2.05,1.45-4.05,2.94-6.04,4.42,4,1.42,7.22-1.29,10.74-3.38,3.52-2.09,7.33-3.58,12.23.36,3.42.56,10.03,10.6,10.76,5.85-5.39-9.34-5.95-37.83-1.92-44.66,1.27.64,18.28,9.3,22.15,13.94,5.63,7.36-9.15,16.97-4.38,23.3.27-2.2,3.57-4.83,4.93-5.67,3.7,1.96-1.72,6.79,6.46,5.97,1.51-8.11,16.63.85,3.98-6.85,7.99-2.28,8.46,1.76,17.85,1.39-1.51-2.62.58-7.15,3.97-11.32,3.39-4.18,8.07-7.95,11.95-9.25-.41,2.09,1.41,4.75,2.3,5.96,16.1.31,24.93,3.53,39.99,2.7,1.5,1.88,8.95,3.77,6.09,7.5,2.08-1.6,3.87-4.48,8.5-5.03,4.76,3.17,2.2,3.65-.63,4.33-2.83.67-5.93,1.5-2.17,5.5.26-4.76,11.57-7.47,17.92-11-1.33-3.55-5.16-3.59-9.47-2.31-4.3,1.29-9.1,3.9-12.32,5.59-.71-10.1,9.96-21.44,24.96-27.51,12.05-3.62,5.95,6.03,7.94,4.4,5.83-.14,9.87-1.43,12.95-3.2,3.08-1.79,5.2-4.08,7.22-6.16,4.03-4.17,7.6-7.62,17.58-5.09,8.35,5.54,1.83,12.71,4.05,17.14-9.8,3.59-15.92-2.3-22.7-1.33l8.73,2.13c-2.97,2.47-9.53,4.82-13.4,3.35,3.51,2.53,13.38,1.8,24.67.7,11.29-1.07,24-2.48,33.3-.95,2.92-2.55,8.12-5.48,5.19-7.72l-5.55,1.62c-5.85-4.5,9.74-8.5,2.28-10,7.12-4.59,14.87-11.39,25.93-9.88l2.97,7.03c-.51-2.1-7.55-3.43-10.27-.82,4.02-3.81,17.69,7.73,21.31-2.47l-8.16-4.07c7.14-4.67,15.54-13.66,25.32-12.6-5.26-6.63-2.08,1.11-9.92-6.43,7.22,9.72-24.29,2.75-13.46,12.54-8.19-8.87-12.5-2.58-22.58-9.75.59,2.37,3.78,4.19-4.29,4.03-.27.75-.99,1.75-1.46,2.34-.25-.03-.34-.06-.56-.11.17.07.3.16.47.23-.3.4-.32.48.18.08,2.02.81,3.71,1.88,4.51,3.14-3.22,6.03-15.85,7.48-19.75,10.86-4.84-.56,1.62-3.01-1.27-5.26l-5.83,5.07c-1.3-5.26-13.53-7.39-2.89-11.84l-9.95.95c-6.2-2.28-14.32-2.6-19.01.23-4.78-.66-11.13,7.2-7.52,2.56-5.05,1.68-10.1,3.3-15.15,4.92l-.27-1.33c-3.84.22-7.66,1.05-11.54,2.05-3.88,1-7.81,2.21-11.82,3.07-8.04,1.78-16.49,2.34-25.48-1.95-2.51.82-5.07,1.72-8.08,2.29-1.51.28-3.12.48-4.91.54-1.78.04-3.72-.06-5.87-.35l-1.86-4.59c-1.61.48-3.66.48-5.86.28-2.2-.21-4.54-.64-6.76-.95-4.44-.64-8.4-.87-9.75,1.55-3.62-6.25-11.43-6.75-19.77-6.25-2.09.14-4.21.37-6.31.6-2.12.21-4.19.44-6.22.6-4.04.33-7.8.42-10.72-.21l-.61,6.07c-8.1-.56-16.09.91-26.6,3.18l.56,5.39c-4.52,2.14-10.28,1.11-16.85-.26-6.56-1.38-13.98-3.1-21.45-2.37.88-2.1,4.74-1.79,7.45-.65-9.11-5.71-18.92-2.82-27.82,1.13-2.24.95-4.45,1.92-6.64,2.79-1.1.42-2.17.88-3.23,1.31-1.07.42-2.13.8-3.19,1.13-2.13.65-4.25,1.08-6.4,1.16-2.14.09-4.33-.2-6.51-.81-3.51,2.79-6.46,2.77-9.52,2.08.36-.09.67-.26.91-.49-.42.03-1.02.15-1.63.3-1.95-.51-4-1.16-6.11-1.47.97.42,1.9.78,2.79,1.07.89.31,1.72.52,2.46.61-.75.2-1.59.45-2.49.77-.88.34-1.83.73-2.81,1.17-1.96.88-4.06,1.96-6.08,3.2l-3.41-5.07c-.34.17-.64.24-.98.43-2.47-.44-3.17.45-2.79,1.91.37,1.44,1.79,3.44,3.53,5.23-1.96,1.48-3.58,3.24-4.73,5.02-3.02-3.96-5.64-2.35-8.4-.77-2.79,1.55-5.62,3.19-9.48-.77-.66,2.8-5.74,5.37-10.36,8.7-4.62,3.33-8.9,7.25-8.23,12.43-.6-1.2-2.03-1.36.16-2.23-4.96.57-9.89,1.22-12.94,5.43l-4.55-6.14-6.26,13.02c-7.57-1.87-11-3.32-7.14-10.89-11.05,13.66-10.35,7.59-19.19,20.32l-1.15-4.65c-4.22,1.87-8.75,10.45-12.74,7.77-3.2-1.2-7.78-.67-13.25.62-2.74.66-5.7,1.55-8.83,2.58-3.13.99-6.43,2.07-9.85,3.22-1.71.57-3.44,1.17-5.2,1.73-1.76.53-3.54,1.07-5.33,1.61-3.58,1.03-7.21,2.14-10.84,2.85-3.62.77-7.23,1.4-10.76,1.81-3.4.34-6.09.14-7.73-.7,1.13,3.36,1.37,4.7.84,5.02-.5.32-1.59-.44-2.22-1.42-.32-.48-.53-1.01-.6-1.43-.05-.2-.02-.41-.03-.53v-.05s0,0-.01.05v.09s-.06.33-.06.33c-.04.22-.08.44-.13.65-.12.49-.14.65-.22.94-.06.22-.12.41-.17.58-.07.23-.14.4-.16.45.07-.21.16-.43.24-.67.07-.17.14-.36.21-.55.07-.17.14-.34.22-.51l-.1.23c-.07.16-.15.32-.23.46-.08.14-.17.29-.16.29-.03.06-.04.09-.02.04-.05.05.25-.4.53-1.08-.11.27-.24.54-.39.82l-.11.2-.03.07-.07.14c-.05.1-.11.2-.19.3l-.05.07.03-.04.06-.08c.14-.16.28-.32.41-.48.14-.15.28-.29.42-.41l.1-.09.05-.04.03-.02h0c8.29-7.72,2.3-2.15,4.15-3.88v-.03s0-.06,0-.06c.02-.31.05-.62.07-.93.05-.62.11-1.24.16-1.84.03-.31.06-.61.09-.91.01-.15.04-.3.04-.45l-.1-.46c-.25-1.24-.5-2.45-.74-3.63-.48-2.4-.9-4.81-1.4-7.01-.48-2.27-1.02-4.31-1.63-6.22-.3-.99-.64-1.8-1-2.64-.36-.81-.74-1.64-1.16-2.3-.84-1.31-1.79-2.54-2.89-3.21-.55-.36-1.13-.67-1.76-.88-.62-.16-1.28-.25-1.97-.25.69-3.05,1.87-3.69,3.02-4.04,1.14-.36,2.23-.43,2.48-2.54-.59-.25-1.74-.8-2.66-1.67-.91-.81-1.62-2.17-1.43-4.16.19-2.01.89-2.38,1.87-2.15.49.15,1.05.47,1.64.79.29.16.59.33.89.48.3.17.61.35.91.48-.61-1.16-1.18-1.99-1.76-2.8-.29-.39-.58-.77-.86-1.1-.28-.31-.55-.59-.82-.85-.54-.51-1.08-.99-1.59-1.27-.51-.29-1.01-.5-1.49-.64-1.93-.5-3.61.25-5.14,1.75-3.04,2.95-5.51,8.75-7.87,14.34-.26-6.03-1.08-9.38-2.29-10.89-1.24-1.5-2.84-1.12-5,.38-.15-2.81-.78-5.87-.59-7.58.09-.85.36-1.36.99-1.34.64.02,1.57.59,2.85,1.9-.63-1.06-1.91-3.32-3.94-5.93-2.01-2.6-4.92-5.55-8.37-7.91-.82-.61-1.76-1.14-2.63-1.65l-.66-.38-.16-.09c-.06-.06-.08.06-.12.08l-.22.27c-.29.37-.57.74-.85,1.1-1.11,1.47-2.14,2.93-3.02,4.37-1.76,2.86-2.87,5.58-2.91,7.83-1.05-.88-4.58,5.15-5.29,7.23-7.19,8.78-8.09,8.81-14.95,18.75l2.34-1.1c.05,7.07-.98,9.58-2.85,11.38-1.83,1.8-4.54,2.9-6.95,7.24l-.31-1.3c-.25.16-.48.24-.72.47-.24.23-.48.45-.7.67-.47.46-.91.89-1.33,1.3-.89.89-1.69,1.68-2.41,2.39-.77.76-1.46,1.44-2.07,2.04-.32.31-.61.6-.9.87l-.21.2-.1.1s-.11.05-.04.13c.15.27.29.53.43.78.07.13.14.25.21.38,1.05,1.76,2.08,3.5,3.1,5.22l.09.16.02.04h0c-1.38-2.75-.38-.75-.69-1.36h0s0,.01,0,.01l.02.04.08.15c.05.1.09.2.14.3.18.46.25.6.33.89.06.22.09.3.12.47.01.07.02.11.03.19,0,0,0-.03,0-.03,0-.11,0-.15.02-.3.04-.31.11-.86.55-1.96.22-.57.55-1.26,1.07-2.18.13-.23.27-.47.43-.7.15-.24.31-.48.47-.73.06-.06.09-.18.13-.29.15-.48.17-1.37.28-2.82-1.44,1.28-2.85,2.59-4.21,3.96-2.57,1.75-4.09,1.6-4.88.3-.78-1.29-.77-3.68-.27-6.14.06-.31.13-.61.21-.92.04-.16.08-.29.11-.47l.07-.6c.1-.8.19-1.61.27-2.43.16-1.64.25-3.29.19-4.9-.12-3.21-.85-6.22-2.92-8.46l-1.7,4.95c-3.04-2.17-.56-7.65,2.61-13.38,1.58-2.86,3.33-5.79,4.65-8.4.33-.65.63-1.28.9-1.89.12-.3.25-.6.37-.89.11-.31.24-.51.26-.97.18-1.6.17-3.09-.08-4.34.12-1.24.81-.61,1.71.69.45.65.95,1.47,1.45,2.29.12.19.27.46.36.57.09.12.19.23.28.34.18.22.36.43.54.62.02-.28.04-.54.05-.8,0-.13.01-.26.02-.38v-.19s-.02-.29-.02-.29c-.08-.78-.17-1.51-.27-2.19-.19-1.37-.39-2.56-.61-3.57-.43-2.04-.91-3.38-1.42-4.22-1.02-1.67-2.18-1.27-3.52-.53-2.66,1.51-6.14,4.08-9.91-3.73,1.15-2.79,3.68-3.4,5.51-4.73.91-.68,1.63-1.58,1.86-3.16.22-1.57-.03-3.87-1.26-7.1-.02-2.11-1.77-4.89-4.5-7.59-.67-.71-1.42-1.33-2.2-2.01-.77-.69-1.59-1.33-2.44-1.97-1.69-1.28-3.53-2.5-5.44-3.7-3.84-2.37-7.98-4.64-12.32-6.74-2.17-1.05-4.42-1.99-6.47-2.84-2.05-.85-3.87-1.6-5.22-2.58.99,1.58,2.06,3.23,1.85,4.7-.1.74-.54,1.35-1.4,1.97-.85.62-2.17,1.18-3.84,2-2.02.56-3.81.86-5.69.93-1.91.07-3.98-.12-7.08-.3-1.14-.02-2.28-.04-3.42-.05-1.25,0-2.49,0-3.8.12l-.97.09-.49.05c-.15.03-.4-.02-.29.21.12.7.24,1.39.36,2.08l.09.53.05.27.02.13v.03c.74-7.4-1,10.1-.82,8.29h0s0-.03,0-.03v-.08c.03-.4.07-.8.11-1.19.1-.78.24-1.54.43-2.26.1-.53.21-1.05.31-1.58.11-.54.24-1.07.38-1.6.13-.5.3-1.08.44-1.5.02.04.02.07-.03.07-.07.03-.15.09-.24.17-.09.08-.18.2-.38.26-.37.15-.69.47-1.23.75-.53.29-1.1.69-1.74,1.18-.38-1.14-.28-2.01.03-2.72-.29.02-.66,0-1.06-.06-.39-.04-.8-.1-1.22-.16-.45-.08-.96-.19-1.45-.3-.25-.06-.51-.11-.77-.17-.28-.07-.57-.14-.86-.22-.26-.06-.65-.18-1.03-.3-.38-.11-.76-.23-1.15-.35-.78-.22-1.57-.45-2.36-.68-1.6-.42-3.22-.81-4.85-1.12-3.96-.7-7.92-.85-11.24-.32-3.32.48-5.98,1.59-7.46,2.99-.85-2.49-2.46-4.26-4.65-5.3-2.13-1.07-5.13-1.37-7.55-1.24-5.15.3-10.35,2.6-14.65,4.78-8.76,4.38-16.76,8.86-18.52-.13-6.63,1.69-13.27,3.4-19.95,5.24l.12-1.94c-13.25,1.72-16.88,7.26-20.28,12.64-3.29-.42-1.55-2.65-1.54-3.65-9.94.72-15.43,1.58-20.01,3.9-2.29,1.18-4.37,2.68-6.65,4.81-2.28,2.17-4.8,4.81-7.89,8.38l-3.66-4.99c-.77,1.22-3.05,1.86-6.29,2.48-1.62.33-3.48.63-5.53.96-2.05.31-4.26.72-6.58,1.24-2.31.53-4.76,1.04-7.19,1.85-2.44.79-4.91,1.7-7.33,2.78-4.78,2.31-9.4,5.28-12.82,9.31-.16-.68-.41-1.89.58-3.41-8.09,8.62-20.91,12.08-30.77,15.36-4.93,1.65-9.08,3.22-11.74,5.73-.66.62-1.24,1.31-1.72,2.09-.47.76-.85,1.59-1.12,2.54-.54,1.91-.66,4.16-.26,6.96-2.85,3.31-5.83,6.46-9.12,9.48,1.96-.42,3.4-.71,4.51-.72,1.11-.03,1.86.17,2.35.52.98.7.91,2.07.53,3.6-.72,3.06-2.77,6.9,1.24,7.26-.75.46-1.61.83-2.53,1.07-.93.22-1.91.34-2.88.38-1.94.1-3.87-.26-5.35-.83-2.94-1.13-4.04-3.13-.38-4.81l1.53.67c-.16-2.9-1.56-4.21-3.51-4.7-.98-.25-2.09-.25-3.3-.2-1.21.05-2.5.21-3.79.41-2.61.32-5.27.76-7.35.52-1.04-.1-1.92-.34-2.56-.78-.65-.47-1.06-1.14-1.16-2.1-7.49,1.3-15.19,1.59-22.85,1.05-7.67-.55-15.3-1.85-22.8-3.59-15.04-3.55-29.54-8.75-44.06-13.49.26,3.16.55,6.28.86,9.43-3.44-1.19-6.86-2.45-10.27-3.75-2.09-2.84-1.44-7.69,5.73-4.98-1.16-2.99-4.51-2.97-7.73-2.07-3.22.92-6.31,2.75-6.74,3.61-6.63-4.26-4.29-6.18-.95-7.21,3.36-1.07,7.75-1.34,5.62-2.21-2.03-.5-4.07-.97-6.11-1.5l.98,1.45c-6.01,1.59-7.82,5.04-16.48,1.18-4.98-3.9-.88-6.19-2.96-7.39.24-.57-.39-1.14-3.29-1.6l-12.82-6.1,2.61,8.58c-7.14.75-12.29-5.52-9.2,4.29-2.15-7.44-14.07-13.66-26.25-18.67-3.06-1.24-6.09-2.42-9.01-3.5-2.93-1.07-5.69-2.08-8.14-3.03-4.93-1.85-8.62-3.42-9.75-4.85-10.46,1.66-18.94-1.39-29.82-5.06,2.36,2.17,1.74,10.08-7.25,6.56,3.81-7.34-.12-10.11-5.75-12.71-.7-.32-1.43-.65-2.17-.97-.75-.3-1.52-.61-2.29-.92-1.54-.64-3.08-1.33-4.55-2.16-1.47-.81-2.84-1.8-4.07-2.91-1.24-1.1-2.3-2.41-3.11-4.01,1.55,2.19.45,3.11-1.85,3.45-2.31.37-5.81.05-9.27.17-3.44.05-6.74.23-8.5,1.15-.89.49-1.39,1.17-1.33,2.07.05.91.66,2.01,1.95,3.54-4.1-1.02-4.15-2.44-3.89-4.27.25-1.8.83-3.9-2.37-5.99-10.69,2.29-21.57,1.84-30.82-.16-4.62-.98-8.77-2.33-12.21-3.69-1.74-.7-3.49-1.4-5.25-2.1-2-.77-4.39-1.64-7.2-2.47-1.12,1.82,1.33,6.27-4.5,7.34-2.62-4.8-5.79-9.84-10.64-14.79-.85-.09-1.63.01-2.35.24-.73.23-1.44.58-2.09.99-1.29.81-2.49,1.88-3.77,2.69-1.19.79-2.81,1.35-4.81,1.19-1-.05-2.11-.25-3.43-.68-1.31-.37-2.82-1-4.67-1.75,1.08.77,2.34,1.87,2.7,2.83.36.99-.16,1.76-2.47,2.3-3.3-.23-6.68,0-10.15.67-3.45.65-7.01,1.85-10.56,3.73-3.53,1.87-7.1,4.46-10.18,8.06-3.09,3.55-5.58,8.02-7,12.75l39.56,5.65c.08-3.02-.28-6.22-1.14-9.31-.85-3.09-2.2-6.06-3.86-8.61-3.33-5.14-7.61-8.71-11.78-11.14-4.21-2.44-8.44-3.89-12.68-4.72-4.24-.81-8.5-1.02-12.88-.54-2.19.24-4.39.64-6.63,1.27-1.11.3-2.24.68-3.36,1.1-.55.21-1.16.45-1.64.66l-1.29.61c-3.44,1.62-6.56,3.56-9.25,5.58-2.71,2.01-5.08,4.09-7.22,6.09-2.1,2-3.99,3.92-5.74,5.72-1.76,1.8-3.35,3.43-4.89,4.89-1.54,1.44-2.96,2.77-4.37,3.67-1.42.96-2.76,1.98-4.36,2.68l-2.3,1.12c-.82.29-1.65.56-2.47.83-6.57,2.09-14.02,1.96-20.6-1.2,1.16.95,1.88,1.54,2.26,2.11.38.55.4.99.16,1.36-.24.35-.73.72-1.39.88-.66.19-1.46.33-2.3.47,1.14.36,1.3,1.66,1.23,3.21-.06,1.56-.38,3.38.01,4.77-5.45-2.1-10.36-4.75-14.46-8.07-.44.94-1.02,1.66-1.7,2.13-.67.44-1.44.68-2.27.79-.83.09-1.74.13-2.63-.02-.89-.17-1.79-.41-2.69-.63-.45-.11-.9-.22-1.34-.33-.43-.15-.84-.28-1.26-.4-.83-.24-1.64-.39-2.41-.41-.79,0-1.49.04-2.16.32-.67.27-1.31.76-1.9,1.53.82.13,1.62.29,2.43.4l2.48.19c-2.25,1.55-3.46,3.62-3.83,6.12-.38,2.49.09,5.41.96,8.56.88,3.05,2.2,6.23,3.12,9.39.46,1.59.82,3.1.96,4.57.13,1.47.04,2.91-.45,4.28,3.22-1.96,6.16-1.63,9.45-.61,3.26,1.19,6.87,3.03,10.96,4.75,2.03.74,4.18,1.44,6.4,1.94,2.21.46,4.49.55,6.76.39.57-.05,1.13-.11,1.7-.21.56-.13,1.12-.28,1.67-.45,1.11-.35,2.2-.81,3.25-1.38,2.12-1.08,4.07-2.92,5.73-5.25,2.23.6,1.7,1.71.89,2.93-.8,1.22-1.88,2.55-.46,3.55.85-1.51,1.78-2.79,2.86-3.87,1.08-1.1,2.28-2.13,3.73-2.95,1.44-.85,3.13-1.46,5.05-2.23.97-.36,2.01-.7,3.15-1.02,1.13-.32,2.36-.62,3.64-1.04l-.5,1.66c3.23-1.97,6.3-3.6,9.02-5.52,1.38-.92,2.75-1.78,4.05-2.67,1.28-.94,2.52-1.86,3.74-2.76,2.54-1.78,4.68-3.52,6.71-5.09,2.01-1.57,3.85-2.97,5.64-4.25,3.5-2.5,6.82-4.5,9.47-5.33,1.32-.43,2.42-.55,3.18-.41l.27.06h.07s.03.01.03.01c-5.32-13.24-1.47-3.66-2.66-6.61h0s.01.04.01.04l.02.05c.06.14.11.28.16.42.2.56.38,1.17.51,1.76.28,1.19.38,2.35.38,3.05,0-.15,0-.31-.01-.47l-.07-1.07c-.04-.47-.09-.94-.15-1.41.3.34.54,1.03.51,1.75,0,.35-.05.75-.13,1.11l-.03.14s0-.04.01-.05l.05-.19c.04-.16.09-.33.15-.52.16-.51.28-.79.28-.79.03-.08.09-.24.24-.67.07-.21.12-.38.15-.53.11-.59-.2-.79-.55-.93-.37-.16-.67-.28-.92-.97-.12-.33-.27-.83-.39-1.52-.12-.7-.23-1.59-.12-2.81.59,1.65,1.07,2.83,1.49,3.73.41.9.79,1.53.83,1.91.01.04.01.08,0,.12,0,0-.02.06,0,.01l.22-.43c.31-.57.67-1.18,1.06-1.76.79-1.17,1.76-2.24,2.61-2.95.85-.72,1.56-1.05,1.75-1.1.2-.07-.18.09-1.12.08l27.96,4.39c-.05,0-.12-.02-.21-.06-.02,0-.15-.06-.09-.04l.09.04.06.04s0,0,.12.07c.17.09.31.19.43.29l.08.07.17.12c.11.08.22.17.32.25.1.08.19.17.27.25.08.08.15.16.3.29.25.23.47.46.66.69l.28.35c.12.14.24.27.35.41.45.55.73,1.04,1.14,1.62.38.56.58,1.04.89,1.54.54.97.81,1.73,1.05,2.21.22.5.35.94.47,1.28.06.16.11.31.16.44-.01-.04-.02-.08-.03-.11-.04-.17-.12-.44-.18-.73-.12-.58-.38-1.4-.64-2.16-.47-1.53-1.35-3.08-.04-3.31.44,1.13.79,2.26,1.07,3.44,0-.77.03-1.54.08-2.32.05-.76.14-1.52.24-2.29.26.07.49.23.68.45.2.2.37.44.47.76.13.31.17.62.29.99.17.39.3.79.4,1.21.41,1.67.38,3.6.07,5.06-.24-.22-.73-.14-1.1.11l-.29.18-.07.04-.03.02h0c.04-.31-.1.7.1-.69h0s0,0,0,0h0s0,.02,0,.02v.04s-.05.28-.05.28c-.02.18-.04.36-.07.52,0,.08-.01.16-.02.24v.07c-.02.14,0-.04,0-.11l.03-.27c.03-.19.05-.38.08-.58l.03-.15v-.04s0,0,0,0h0c.25-1.72-.33,2.33-.27,1.91h0s.02.05.02.05l.1.15c.07.09.14.18.21.25.13.14.31.28.5.39.19.11.38.18.64.28.96.32,2.35.46,4.07.7,3.38.46,7.71,1.09,8.8,2.24-2.57-1.8-4.73-3.46-6.58-4.92,2.39.44,5.19,1.27,8.49,2.34,3.3,1.07,7.09,2.37,11.47,3.57,8.85,2.4,17.62,3.5,25.38,3.83,7.79.33,14.79.03,20.82-.54,3.04-.28,5.81-.69,8.53-1.04,2.73-.38,5.42-1.03,8.1-1.66-.44-.95-.89-1.91-1.35-2.82,4.12-.84,7.04-.91,9.29-.67,2.26.26,3.87,1.06,5.5,1.84,1.63.82,3.29,1.66,5.65,2.46,2.37.86,5.44,1.49,9.98,1.93l-.78.46c2.06-.87,4.37-1.33,6.77-1.39,1.2-.02,2.42.02,3.64.23,1.22.22,2.44.54,3.64.96-2.67.87-.95,2.95.52,5,1.48,2.05,2.73,4.08-.62,4.93,1.16-.02,2.22-.04,3.18-.06.97,0,1.84,0,2.62-.01,1.58-.02,2.82-.08,3.84-.18,2.03-.19,3.13-.55,4.09-1.1,1.94-1.08,3.26-2.93,10.75-5.63l1.2,5.13c2.66-1.16,4.26-2.21,6.37-2.69,2.11-.47,4.73-.42,9.41.8-4.36.36-3.53,2.5-2.88,4.73.65,2.24,1.1,4.56-3.85,5.34,7.48,8.09,15.2,8.58,21.61,9.17,6.37.57,11.33,1.21,12.9,9.57,13.37-7.77-13.61-13.09-7.76-13.49-1.25-2.69,1.4-4.09,5.06-4.36,3.66-.26,8.31.62,11.03,2.42,5.95,2.76,4.09,18.85,19.75,24.94-1.53-.68-1.98.14-3.51-.53,4.66,5.26,12.98.67,18.57,8.2,3.38-2.73,5.71-1.73,7.81-1.16,2.09.58,3.89.8,6.05-3.49-5.14-1.03-10.29-2.1-15.39-3.28,4.57.42,9.76-1.3,15.21-1.93,5.48-.65,11.18-.2,17.28,4.48-1.62,1.49-6.52,2.63-9.79,3.02,1.59,2.01,3.71,2.19,5.83,2.37,2.12.2,4.26.36,5.99,2.38-1.94,4.39-6.76,3.52-12.42,1.92-5.68-1.57-12.11-3.9-17.88-2.15,1.49,2.69,6.39,2.62,9.9,2.82,3.49.22,5.65.75,1.69,4.87,2.72-2.55,5.04-3.4,7.24-3.33,2.22.04,4.3,1.04,6.54,2.12,4.44,2.18,9.56,4.85,16.55,1.49l-2.17,5.32c2.09-.41,6.52-2.04,9.9-1.15-2.61,1.95-5.24,3.84-7.92,5.71,5.53-1.85,9.82.48,14.17,3.14,2.17,1.33,4.36,2.68,6.63,3.64,2.3.9,4.68,1.43,7.24.92-5.08-.73-7.81-1.63-9.16-2.6-1.36-.96-1.37-1.98-1-3.06.75-2.16,2.94-4.59-.74-7.39,6.28-.74,10.07-.16,12.77,1.25,2.7,1.39,4.25,3.66,5.96,6.02,1.7,2.39,3.52,4.95,6.79,6.85,3.25,1.93,7.99,3.18,15.37,2.72-2,.35-5.72-.64-8.06-2.08-2.34-1.45-3.34-3.23-.26-4.35,1.33.4,2.78.81,4.26,1.29,1.48.47,2.98,1.04,4.44,1.58,2.92,1.11,5.61,2.45,7.38,3.89,4.93-.34,7.21-1.04,7.94-1.72.74-.7-.04-1.46-1.15-2.29-2.25-1.64-5.74-3.58-1.76-5.47,1.68,1.66,3.13,2.28,4.46,2.24,1.33-.05,2.53-.8,3.75-1.82,2.44-2.02,4.91-5.31,8.81-6.92l.83,5.73c5.59.17,8.68-.76,10.37-1.96,1.7-1.23,2.03-2.86,2.29-4.4.26-1.55.45-3.06,1.79-4.17.67-.54,1.62-1.03,3.02-1.39,1.4-.37,3.25-.54,5.7-.73l-1.4,2.52-1.47,2.46c-1,1.64-2.03,3.3-3.09,4.94,3.24-1.53,6.43-3.07,9.54-4.78-.04,2.31-.1,4.62-.2,6.94,1.24-1.01,2.37-1.89,3.43-2.66,1.05-.79,2.02-1.5,2.95-2.1.93-.61,1.82-1.12,2.7-1.57.87-.46,1.73-.88,2.6-1.23,1.75-.72,3.58-1.22,5.63-1.8,1.04-.27,2.13-.56,3.31-.87,1.17-.32,2.42-.67,3.79-1.05-2.07-1.28-2.82-3.82-2.08-6.55.35-1.37,1.08-2.79,2.22-4.14,1.12-1.35,2.64-2.65,4.61-3.77,3.52.01,3.45,1.63,3.82,2.38.37.75,1.31.64,6.58-2.93-.29,2.29-.62,4.81-1.78,6.56-1.2,1.73-3.27,2.69-7.11,1.71.36,1.94-.94,4.62-.69,6.57,2.05.06,4.09-.4,6.06-1.16,1.92-.76,3.82-1.81,5.48-2.94.84-.57,1.66-1.15,2.43-1.73.74-.59,1.46-1.15,2.14-1.68,1.37-1.08,2.5-2.01,3.47-2.62-1.6.73-3.59,1.56-4.96,1.41,3.97-5.47,7.53-10.87,10.93-16.14,3.43.42,2.55,3.03,1.66,5.6,2.59-2.35,3.21-5.9,7.11-8.86.69,2.34,1.73,4.5,2.02,6.77.3,2.25-.17,4.62-2.58,7.43l10.35-12.4c.95.62,3.24.94,5.17,1.42,1.93.46,3.53,1.17,3.16,2.33,2.01-.27,3.75-1.44,5.44-3.1,1.74-1.6,3.46-3.65,5.28-5.75,1.87-2.05,3.9-4.07,6.14-5.68,2.29-1.54,4.82-2.62,7.62-2.76.2-1.05.94-2.25,2.87-3.68,1.24-.32,2.49-.56,3.74-.76,1.27-.17,2.54-.3,3.81-.42,1.26-.12,2.53-.25,3.8-.37,1.27-.13,2.56-.25,3.83-.45,2.54-.4,5.06-1.04,7.63-2.12,1.28-.55,2.55-1.23,3.82-2.08,1.28-.84,2.59-1.81,3.89-3,3.02,2.1,5.99,4.2,8.98,6.37,4.49-2.11,1.55-4.12-.69-6.46-2.23-2.33-3.78-5.04,3.95-8.58,10.96-5.34,5.93,5.98,10.5,7.35,4.73-5.44,13.16-16.1,25.52-11.57-3.34,2.28-6.39,1.64-9.63,2.95ZM828.14,118.82c-.63.02-1.8.47-2.55.53-.75.04-1.09-.35-.17-2.51,2.48-3.09,3.4-3.36,3.56-2.54.16.84-.44,2.8-.84,4.52ZM932.21,164.22c-1.28,1-1.08-1.99-.42-7.48.58,1.09.83,3.51.42,7.48ZM1450.08,69.95c-.09.1-.16.18-.23.31-5.74-1.61-3.69-.95.23-.31ZM1461.78,71.1c1.05-.94.88-1.73.29-2.47-.62,1.55-3.17,1.96-6.14,1.9.99,1.41,2.59,2.27,5.84.57ZM400.34,117.19l1.48,2.23c-5.26-.32-3.39-1.19-1.48-2.23Z"/>
      <path class="cls-1" d="M925.15,161.74c.29-2.04.71-4,1.13-5.97-.66,1.1-1.08,3.09-1.13,5.97Z"/>
      <path class="cls-1" d="M666.78,138.41c-.13,0-.23.05-.35.06-.06.39-.02.76.05,1.1l.3-1.16Z"/>
      <path class="cls-1" d="M1285.03,130.83c-2.39-.9-3.71-1.99-4.58-3.11-.17,1.41.9,2.64,4.58,3.11Z"/>
      <path class="cls-1" d="M1521.2,53.59l-7.16,2.46c3.52-.75,4.96.34,6.87,1.01-.34-1.32-2-3.08.29-3.47Z"/>
      <path class="cls-1" d="M1589.83,80.61c.98-.85,2.27-.39,3.24-1.24l-.66-2.63c-4.56.8-7.48,3.37-2.58,3.87Z"/>
      <path class="cls-1" d="M1530.53,71.76c1.22,4.75,5.63,2.5,10.67.93-.31.06-.6.14-.91.12.63-6.96-4.57-3.99-9.75-1.05Z"/>
      <path class="cls-1" d="M1542.38,72.37c1.56-.44,3.17-.78,4.75-.75.25-2.79-2.01-.31-4.75.75Z"/>
      <path class="cls-1" d="M1475.88,66.11c2.59.94.75-6.37,2.37-4.57,1.95-6.49-15.27,9.46-2.37,4.57Z"/>
      <polygon class="cls-1" points="1536.81 87.12 1534.17 81.4 1531.92 86.59 1536.81 87.12"/>
      <path class="cls-1" d="M1495.49,88.08l8.46.58c-.25-.98.72-1.71,1.94-2.32-5.11.47-10.82,0-10.4,1.74Z"/>
      <path class="cls-1" d="M1505.89,86.34c2.66-.23,5.16-.69,6.51-1.85-1.42.25-4.48.85-6.51,1.85Z"/>
      <polygon class="cls-1" points="1525.77 90.39 1523.17 89.47 1517.29 89.8 1525.77 90.39"/>
      <path class="cls-1" d="M1406.71,96.99l-8.86,2.53c-.75,2.13,1.82,3.18,5.12,2.05,2.04-1.63,5.31-2.72,3.74-4.58Z"/>
      <path class="cls-1" d="M1435.7,110.65c-2.59-.98-2.89-2.29-4.48-4.12l.5,7.44,3.98-3.33Z"/>
      <path class="cls-1" d="M1409.35,115.03c-.71,2.14-12.73,7.11-1.18,5.6.75-2.13,9.72-4.66,1.18-5.6Z"/>
      <polygon class="cls-1" points="1271.49 110.02 1273.8 109.99 1273.81 97.76 1271.49 110.02"/>
      <path class="cls-1" d="M1160.7,149.59c5.16.14,5.24-1.83,5.25-3.69,0-.93-.01-1.83.57-2.42.58-.57,1.78-.93,4.17-.5.8-1.64-1.16-2.02-3.12-2.23-1.96-.2-3.91-.34-3.05-1.87-5.15,4.53-8.64,3.67-3.83,10.71Z"/>
      <path class="cls-1" d="M1164.54,138.88c.83-.72,1.69-1.56,2.57-2.61-1.54,1.2-2.2,1.98-2.57,2.61Z"/>
      <path class="cls-1" d="M14.55,87.09l-.41-.43-.37-.49-.72-.96-1.37-1.85c.25,1.53.57,3.1.97,4.73.64-.31,1.25-.59,1.9-.99Z"/>
      <path class="cls-1" d="M3.09,92.08c.9-2.49,1.86-4.94,2.87-7.36-1.85,1.62-3.84,3.19-5.96,4.69,1.15.24,3.22.69,3.09,2.67Z"/>
      <path class="cls-1" d="M817.18,134.61l1.67-.89c1.74-1.15,1.76-1.53,1.82-2.29-1.11,1.22-2.27,2.28-3.5,3.18Z"/>
      <path class="cls-1" d="M777.09,115.45c.1.07.2.15.29.25.47-2.36.78-4.68.95-7.09-.34,2.29-.76,4.58-1.24,6.84Z"/>
      <path class="cls-1" d="M719.2,135.35c1.5-.2,2.99-.89,4.53-1.57,1.54-.67,3.09-1.34,4.61-1.53-6.19,2.66-11.93-5.26-9.14,3.09Z"/>
    </g>
  </g>
</svg>