<svg width="340" height="25" viewBox="0 0 340 25" fill="none" xmlns="http://www.w3.org/2000/svg">
<path d="M338.85 3.67204C339.374 4.19494 339.797 3.24604 340 3.17538C339.418 2.85639 339.102 3.04617 338.946 3.27835C338.789 3.51052 338.785 3.78712 338.852 3.67204H338.85Z" fill="#DFF249"/>
<path d="M327.746 1.91759L327.955 1.51784L327.563 1.74194L327.184 1.98017C326.934 2.14169 326.688 2.29715 326.451 2.46674C326.87 2.27494 327.301 2.08516 327.746 1.91557V1.91759Z" fill="#DFF249"/>
<path d="M318.898 2.79784C319.193 3.17336 319.521 3.30257 319.875 3.28844C320.23 3.27835 320.613 3.12693 321.02 2.94522C321.831 2.5798 322.766 2.09727 323.582 2.32137L323.876 2.68882C324.068 2.20831 324.273 1.72579 324.489 1.24327C323.495 1.41891 322.414 1.84289 321.441 2.20629C320.462 2.56768 319.591 2.88465 318.896 2.79582L318.898 2.79784Z" fill="#DFF249"/>
<path d="M313.425 0.496261C313.909 1.04743 312.635 1.36036 314.533 0.358974C314.41 0.320615 314.368 0.290331 314.293 0.256009C314.11 0.322634 313.864 0.403391 313.425 0.496261Z" fill="#DFF249"/>
<path d="M314.293 0.256009C315.174 -0.0710576 313.54 -0.0993226 314.293 0.256009Z" fill="#DFF249"/>
<path d="M310.438 2.01853C310.738 1.69349 311.038 1.3644 311.348 1.03935C310.978 0.748628 309.954 1.03935 310.224 0.63153C309.193 1.3745 309.578 1.65311 310.438 2.01853Z" fill="#DFF249"/>
<path d="M309.851 3.59532L310.319 3.14106C310.164 3.02396 309.99 3.02598 309.851 3.59532Z" fill="#DFF249"/>
<path d="M311.336 2.18207C310.992 2.50106 310.651 2.82005 310.319 3.14106C310.575 3.34093 310.782 3.8598 310.8 2.74939C310.877 3.26623 310.945 2.71708 311.336 2.18207Z" fill="#DFF249"/>
<path d="M312.114 2.17803C312.863 2.30522 313.743 2.25475 312.821 3.20768C313.836 2.72314 314.191 2.23052 314.019 1.96806C313.848 1.7056 313.139 1.67935 312.114 2.17803Z" fill="#DFF249"/>
<path d="M318.894 4.6391C319.209 4.73197 319.523 4.8309 319.835 4.93387C320.031 4.6916 320.23 4.44529 320.436 4.20907C320.133 4.55633 318.715 4.12024 318.894 4.6391Z" fill="#DFF249"/>
<path d="M303.699 3.76693C303.77 4.13437 304.38 4.54825 304.624 4.95809L305.198 4.27368C304.731 4.19494 303.943 4.25551 303.699 3.76693Z" fill="#DFF249"/>
<path d="M304.624 4.95809L303.76 5.97967C304.763 5.66068 304.833 5.31141 304.624 4.95809Z" fill="#DFF249"/>
<path d="M310.345 5.46081C310.824 4.79658 311.316 4.13437 311.824 3.47418C311.189 4.18686 310.579 4.90358 309.984 5.62232L310.345 5.46081Z" fill="#DFF249"/>
<path d="M299.574 5.29727L299.894 4.27772L299.243 5.88074L299.574 5.29727Z" fill="#DFF249"/>
<path d="M296.913 6.39355C297.14 5.57185 295.934 5.46888 296.27 4.89551C296.099 4.98636 295.942 5.10548 295.799 5.24276C295.656 5.37399 295.525 5.52541 295.404 5.68693C295.16 6.00996 294.95 6.37942 294.749 6.72869C295.257 6.24213 295.907 6.13715 296.913 6.39355Z" fill="#DFF249"/>
<path d="M294.028 7.78258C294.28 7.53828 294.505 7.14257 294.747 6.73071C294.477 6.9851 294.233 7.3162 294.028 7.78258Z" fill="#DFF249"/>
<path d="M301.84 6.5268C301.679 6.35116 301.316 5.86863 300.627 5.86661L301.405 6.6762C301.538 6.62977 301.687 6.57929 301.84 6.5268Z" fill="#DFF249"/>
<path d="M301.433 6.70245L301.407 6.6762C300.935 6.8357 300.605 6.92453 300.464 6.96491C300.587 6.93261 300.879 6.85185 301.433 6.70245Z" fill="#DFF249"/>
<path d="M301.949 6.49046C301.91 6.50257 301.88 6.51267 301.84 6.5268C301.916 6.60554 301.953 6.62977 301.949 6.49046Z" fill="#DFF249"/>
<path d="M307.019 5.80403C306.588 6.60352 305.458 7.73614 307.09 8.01879C307.297 7.17084 306.366 7.00933 307.019 5.80403Z" fill="#DFF249"/>
<path d="M302.932 7.49791C303.347 7.42321 303.764 7.34851 304.181 7.26573C304.06 7.01942 303.711 6.73071 303.927 6.33702C303.597 6.72869 303.266 7.11431 302.932 7.49791Z" fill="#DFF249"/>
<path d="M302.475 8.02283L302.932 7.49791L302.47 7.58068L302.475 8.02283Z" fill="#DFF249"/>
<path d="M296.264 8.09551C295.903 8.68302 295.367 8.89299 294.773 9.15747C295.49 9.14131 296.209 9.03027 296.858 8.8203C296.852 8.48112 296.957 7.83709 296.264 8.09551Z" fill="#DFF249"/>
<path d="M298.798 7.5403C298.772 7.57463 298.73 7.60087 298.707 7.63317C298.802 7.69172 298.867 7.6998 298.798 7.5403Z" fill="#DFF249"/>
<path d="M288.716 10.7242C288.762 10.7726 288.806 10.8352 288.851 10.8857C288.847 10.8251 288.839 10.7666 288.837 10.706L288.716 10.7242Z" fill="#DFF249"/>
<path d="M297.027 8.96769C297.587 8.98586 297.807 8.64466 297.99 8.24491C297.65 8.46901 297.277 8.67292 296.856 8.8203C296.86 8.97172 296.88 9.06863 297.027 8.96769Z" fill="#DFF249"/>
<path d="M292.493 8.72945C292.805 8.86472 293.143 8.95557 293.494 9.03027C293.154 8.788 292.513 8.44277 292.493 8.72945Z" fill="#DFF249"/>
<path d="M298.448 7.42119C298.468 7.39696 298.484 7.37071 298.508 7.35254C298.276 7.19709 298.329 7.29399 298.448 7.42119Z" fill="#DFF249"/>
<path d="M298.448 7.42119C298.242 7.64933 298.123 7.96024 297.992 8.24289C298.27 8.06119 298.514 7.86131 298.707 7.63317C298.621 7.58472 298.524 7.49993 298.448 7.41917V7.42119Z" fill="#DFF249"/>
<path d="M288.023 17.6249C287.992 17.1423 288.293 16.6174 288.772 16.3105C289.012 16.1551 289.298 16.0622 289.612 16.042C289.926 16.0198 290.269 16.0824 290.629 16.2641C291.679 15.291 290.164 12.3999 288.851 10.8877C288.899 11.2975 288.988 11.7033 287.93 12.4705C288.18 12.6886 288.889 12.8763 289.439 13.1004C289.987 13.3346 290.382 13.6476 289.967 14.1866C289.596 14.3966 289.322 14.5016 289.11 14.5298C288.897 14.552 288.744 14.5076 288.613 14.4249C288.349 14.2613 288.166 13.9544 287.737 13.7768C288.17 14.3037 287.747 14.8266 287.277 15.4283C286.81 16.0279 286.286 16.6719 286.596 17.5199L287.281 17.106L287.954 16.6659C288.029 16.9303 287.575 17.4593 288.021 17.6289L288.023 17.6249Z" fill="#DFF249"/>
<path d="M291.048 10.4758L291.488 10.2376C290.915 10.2134 290.438 9.9509 289.582 9.36542C288.919 9.99532 288.826 10.3809 288.837 10.704L290.003 10.5101L290.587 10.4112L291.173 10.2941L291.046 10.4758H291.048Z" fill="#DFF249"/>
<path d="M293.597 9.66018C293.516 10.7746 292.471 11.5297 293.47 12.4201C294.872 11.9375 294.233 11.2915 294.946 10.6151C293.851 11.0674 293.975 10.8796 294.145 10.5687C294.318 10.2578 294.533 9.82169 293.647 9.77122C294.036 9.47242 294.413 9.30889 294.773 9.15747C294.338 9.15545 293.909 9.11305 293.496 9.03229C293.522 9.04844 293.542 9.06258 293.564 9.08075L293.573 9.07469C293.573 9.07469 293.573 9.08478 293.575 9.09084C293.706 9.18775 293.758 9.25437 293.631 9.214C293.627 9.22813 293.601 9.24024 293.591 9.24832C293.615 9.39166 293.609 9.52693 293.597 9.65614C292.896 9.63595 293.425 9.42396 293.591 9.24832C293.585 9.19784 293.589 9.14535 293.577 9.09084C293.573 9.0868 293.569 9.08277 293.565 9.08075L292.533 9.67633L291.492 10.2396C291.999 10.2558 292.585 10.0902 293.599 9.66018H293.597Z" fill="#DFF249"/>
<path d="M306.687 10.597C306.582 10.5404 306.558 10.4698 306.526 10.4011C306.423 10.5788 306.399 10.6838 306.687 10.597Z" fill="#DFF249"/>
<path d="M305.518 10.385C305.633 10.1831 305.623 9.73892 306.201 9.62384C306.783 9.72882 306.379 10.0902 306.526 10.3991C306.755 10.0115 307.396 9.25034 306.193 9.18371L306.082 9.37955C305.557 9.3957 304.886 9.21601 304.36 9.00807C303.834 8.79608 303.454 8.55381 303.51 8.4569C304.106 9.23419 304.576 9.7692 305.518 10.383V10.385Z" fill="#DFF249"/>
<path d="M299.491 10.4678L297.746 11.6044C298.163 11.7841 298.58 11.9557 299 12.1313L298.782 11.6327C299.94 11.4611 299.491 10.9099 299.491 10.4678Z" fill="#DFF249"/>
<path d="M288.403 10.2638L288.422 9.1292C288.18 9.72277 287.932 10.286 287.672 10.8655C287.918 10.6636 288.16 10.4698 288.403 10.2638Z" fill="#DFF249"/>
<path d="M286.049 10.8352L285.984 9.8762L285.456 10.5384L286.049 10.8352Z" fill="#DFF249"/>
<path d="M141.67 13.8353L141.091 13.9666C141.353 13.9484 141.531 13.8999 141.67 13.8353Z" fill="#DFF249"/>
<path d="M145.316 15.0225L145.563 14.6106C145.308 14.7943 145.177 14.9538 145.316 15.0225Z" fill="#DFF249"/>
<path d="M222.498 10.0317C222.146 9.59961 221.813 9.06056 221.571 8.72542C221.332 8.40037 221.189 8.32365 221.219 8.8627C221.279 9.21198 221.342 9.56327 221.408 9.91254C221.864 9.7369 222.19 9.81967 222.496 10.0296L222.498 10.0317Z" fill="#DFF249"/>
<path d="M179.576 13.6476C179.699 13.696 179.826 13.7485 179.954 13.799C179.967 13.377 179.981 12.9813 179.993 12.626C179.868 12.9329 179.725 13.2821 179.576 13.6476Z" fill="#DFF249"/>
<path d="M181.159 17.7359C180.726 17.7258 180.281 17.7278 179.84 17.7258C180.178 17.8025 180.615 17.8045 181.159 17.7359Z" fill="#DFF249"/>
<path d="M119.676 13.5083L119.065 14.6167C120.115 14.548 119.623 14.0392 119.676 13.5083Z" fill="#DFF249"/>
<path d="M261.631 8.53362C261.011 7.9239 260.467 7.5827 259.957 7.38283C260.694 8.22472 261.158 9.30485 261.631 8.53362Z" fill="#DFF249"/>
<path d="M146.214 3.53475C145.765 3.59935 145.541 3.75481 145.491 3.98497C145.942 3.93248 146.228 3.8073 146.214 3.53475Z" fill="#DFF249"/>
<path d="M257.769 6.76302C257.878 6.90232 257.995 6.99116 258.108 7.11431C258.714 7.10018 259.31 7.12239 259.959 7.38283C259.417 6.75696 258.71 6.26838 257.769 6.76302Z" fill="#DFF249"/>
<path d="M32.7945 16.4498C32.7309 16.4034 32.6535 16.3832 32.5959 16.3287C32.58 16.472 32.6674 16.4761 32.7945 16.4498Z" fill="#DFF249"/>
<path d="M7.33929 6.32087C7.5875 6.25021 7.99259 6.24213 8.37584 6.21992C8.1872 6.15128 7.87544 6.16339 7.33929 6.32087Z" fill="#DFF249"/>
<path d="M276.657 10.9382C277.141 10.8897 276.74 10.8251 276.657 10.9382Z" fill="#DFF249"/>
<path d="M279.034 15.1496C278.921 15.2688 278.833 15.4202 278.819 15.6625C278.863 15.4081 278.939 15.2466 279.034 15.1496Z" fill="#DFF249"/>
<path d="M250.594 11.7437C250.578 11.7397 250.564 11.7356 250.546 11.7296C250.672 11.9658 250.652 11.9214 250.594 11.7437Z" fill="#DFF249"/>
<path d="M277.364 11.4469C277.185 11.3096 276.981 11.1925 276.756 11.1078C276.852 11.1925 277.036 11.3016 277.364 11.4469Z" fill="#DFF249"/>
<path d="M277.284 10.9462C277.449 11.0007 277.578 11.0331 277.703 11.0674C277.769 10.8958 277.719 10.7827 277.284 10.9462Z" fill="#DFF249"/>
<path d="M275.984 10.9563C276.051 10.9584 276.119 10.9664 276.184 10.9765C276.252 10.9826 276.317 10.9927 276.381 11.0048C276.51 11.029 276.635 11.0654 276.756 11.1098C276.665 11.0351 276.629 10.9745 276.657 10.9402C276.585 10.9442 276.5 10.9503 276.391 10.9563C276.282 10.9644 276.149 10.9684 275.984 10.9563Z" fill="#DFF249"/>
<path d="M79.2389 12.7007C79.2012 12.6684 79.1555 12.6482 79.1138 12.6058C78.5518 13.0601 78.802 12.9833 79.2389 12.7007Z" fill="#DFF249"/>
<path d="M207.005 18.17C207.035 18.17 207.057 18.1457 207.085 18.1417C207.061 18.1235 207.033 18.0993 207.013 18.0811L207.005 18.17Z" fill="#DFF249"/>
<path d="M204.805 18.279C206.022 17.3018 206.457 17.6107 207.013 18.0791L207.261 14.9801L204.807 18.279H204.805Z" fill="#DFF249"/>
<path d="M132.294 12.6765L132.913 13.1933L133.519 13.7243C133.309 13.8999 133.108 14.0433 132.923 14.1624C132.737 14.2835 132.56 14.3865 132.403 14.4693C132.085 14.6368 131.831 14.7398 131.664 14.8407C131.329 15.0447 131.345 15.2445 131.889 15.9471C131.988 15.1295 132.347 14.7216 132.846 14.5177C133.336 14.3279 133.962 14.3421 134.581 14.3643C135.195 14.4026 135.813 14.4249 136.311 14.2613C136.807 14.0978 137.199 13.7223 137.369 12.9167C137.616 13.1872 137.86 13.4558 138.092 13.7384C137.862 13.6637 137.794 13.8434 137.564 13.7768C138.235 14.6913 138.614 14.1664 139.113 13.5103C139.361 13.1812 139.631 12.8279 139.967 12.6179C140.302 12.4059 140.707 12.3312 141.208 12.5614C141.877 12.9955 142.248 13.583 141.672 13.8373L142.564 13.6476L143.456 13.4901C143.896 13.6879 143.618 14.2007 143.188 14.0069C144.008 14.1462 144.804 14.3421 145.612 14.5278L145.563 14.6126C146.055 14.2532 147.096 13.803 147.602 13.6415C148.015 14.338 147.175 13.8353 147.173 14.2855C147.697 14.2169 148.223 14.1684 148.764 14.1139C148.855 14.6187 148.541 14.9377 148.12 15.077C147.908 15.1456 147.667 15.1698 147.431 15.1456C147.193 15.1214 146.96 15.0447 146.75 14.9356C146.75 15.8078 146.804 16.2378 146.949 16.4135C147.09 16.5932 147.31 16.5306 147.592 16.4478C147.733 16.4074 147.89 16.361 148.059 16.3368C148.225 16.3186 148.4 16.3247 148.585 16.3812C148.77 16.4377 148.962 16.5447 149.155 16.7264C149.25 16.8193 149.349 16.9243 149.443 17.0616C149.534 17.2009 149.625 17.3604 149.711 17.5461C149.498 17.5098 149.294 17.4654 149.079 17.4371L148.44 17.3523C148.414 17.859 148.458 18.2225 148.553 18.5112C148.646 18.7999 148.779 19.028 148.942 19.236C149.103 19.4459 149.29 19.6438 149.468 19.8881C149.639 20.1445 149.802 20.4554 149.921 20.8693C149.937 20.6997 149.903 20.3767 149.862 19.9789C149.842 19.775 149.82 19.5549 149.798 19.3389C149.774 19.1209 149.754 18.8948 149.744 18.6747C149.707 17.7884 149.826 16.9586 150.658 16.9546C150.908 17.3604 151.277 17.75 152.296 17.6006C151.698 18.5838 152.457 18.7655 153.273 19.2461L152.338 20.4736C152.86 20.5705 153.245 20.4837 153.603 20.3262C153.968 20.1788 154.298 19.9648 154.79 19.9042C155.293 20.3807 155.459 20.9258 155.467 21.479C155.467 22.0302 155.32 22.5955 155.197 23.1244C155.739 23.5767 156.008 23.6392 156.101 23.4939C156.196 23.3485 156.125 22.9992 156.107 22.656C156.083 22.3108 156.091 21.9635 156.276 21.8C156.468 21.6385 156.808 21.6546 157.548 22.0402C157.969 22.4804 158.45 22.8337 158.968 23.1123C159.5 23.3869 160.062 23.5928 160.696 23.718C161.01 23.7886 161.327 23.8169 161.653 23.8432C161.816 23.8553 161.981 23.8654 162.147 23.8734C162.316 23.8775 162.489 23.8714 162.664 23.8654C163.013 23.8512 163.371 23.8391 163.746 23.7826C164.119 23.7301 164.502 23.6837 164.898 23.5888C165.783 23.9199 165.716 24.1399 165.47 24.358C165.229 24.57 164.81 24.7557 165.15 25C165.301 24.9051 165.452 24.8143 165.597 24.7153L166.024 24.4085C166.302 24.1985 166.574 24.0026 166.824 23.7765C167.209 23.7806 167.112 24.1682 167.056 24.364C167.727 24.0794 167.707 23.6857 167.783 23.294C167.821 23.0982 167.878 22.9003 168.041 22.7105C168.202 22.5187 168.47 22.3431 168.899 22.1473C168.941 21.7011 169.215 21.6001 169.624 21.6183C169.828 21.6284 170.08 21.6829 170.349 21.7354C170.617 21.7879 170.918 21.8545 171.234 21.911C172.481 22.1311 173.97 22.1069 174.481 20.7804C175.128 20.9581 174.66 21.7455 175.049 22.2199C175.573 21.6143 175.92 21.1923 176.181 20.8572C176.447 20.524 176.625 20.2777 176.784 20.0274C176.945 19.777 177.08 19.5226 177.237 19.1714C177.398 18.8201 177.579 18.3719 177.823 17.7379L179.84 17.7278C178.164 17.3725 178.889 15.3455 179.576 13.6496C178.911 13.3871 178.331 13.157 177.992 13.0863C178.52 12.4604 179.05 11.8305 179.61 11.2067C179.979 11.2915 180.017 11.877 179.993 12.628C180.071 12.4402 180.142 12.2565 180.188 12.097C181.183 12.206 181.205 13.2034 181.115 14.2391C180.734 14.1018 180.339 13.9504 179.952 13.801C179.916 14.8993 179.979 16.0683 180.521 16.7951C180.559 16.569 180.728 16.2903 180.95 16.0662C180.95 16.359 180.982 16.6033 181.113 16.7042C181.258 16.8092 181.288 16.3994 181.413 15.8744C181.834 16.2944 182.249 16.7224 182.66 17.1484L182.44 16.4882C183.423 16.3549 184.376 16.2681 185.269 16.254C185.722 15.0972 186.091 13.7849 186.806 12.5957C186.987 12.305 187.188 12.0142 187.414 11.7296C187.64 11.4489 187.9 11.2067 188.186 10.9604C188.47 10.708 188.79 10.5081 189.14 10.3224C189.314 10.2295 189.497 10.1387 189.686 10.0599C189.876 9.98927 190.075 9.92466 190.281 9.86813C189.906 10.5263 189.918 11.0431 190.009 11.5842C190.103 12.1253 190.275 12.6926 190.307 13.4416C190.198 13.2498 190.081 13.1166 189.958 13.0338C189.835 12.9531 189.707 12.9308 189.574 12.9389C189.441 12.947 189.304 12.9914 189.167 13.058C189.028 13.1247 188.887 13.2115 188.748 13.3266C188.609 13.4376 188.47 13.5587 188.327 13.6758C188.186 13.797 188.039 13.8999 187.898 14.019C187.755 14.1321 187.609 14.229 187.454 14.2977C187.299 14.3683 187.134 14.4026 186.959 14.4249C187.698 14.3825 187.714 15.1335 187.624 15.4081C187.922 15.085 188.232 14.7337 188.584 14.437C188.756 14.2835 188.931 14.116 189.118 13.9706L189.692 13.5365C189.731 14.1523 189.882 14.3582 190.105 14.4773C190.329 14.6045 190.633 14.6368 190.949 14.869C190.81 14.2714 190.839 13.8616 191.002 13.5769C191.167 13.3003 191.461 13.1509 191.81 13.052C191.983 12.9975 192.176 12.9753 192.372 12.9531C192.569 12.9308 192.769 12.9107 192.964 12.8884C193.359 12.8481 193.742 12.8057 194.046 12.6442C194.038 13.052 193.939 13.4578 193.689 13.7182C193.437 13.9827 193.034 14.0877 192.4 13.9706C192.734 14.445 193.004 14.5016 193.282 14.3784C193.556 14.2472 193.822 13.906 194.102 13.5587C194.384 13.2196 194.678 12.8784 194.986 12.7269C195.291 12.5715 195.615 12.628 195.929 13.0802C195.583 13.0399 195.416 12.8784 195.22 13.268C195.444 13.1206 195.734 13.0742 196.03 13.0883C196.177 13.0964 196.328 13.1206 196.471 13.157C196.616 13.1994 196.755 13.2539 196.882 13.3165C197.39 13.5688 197.69 13.9625 197.384 14.2593L197.045 14.2028C198.135 14.5823 199.853 15.0447 201.459 15.2385C203.062 15.4242 204.549 15.3031 205.035 14.3784C204.98 14.6389 203.981 16.6437 203.715 16.9949C205.81 15.2466 207.968 13.5305 210.045 11.7619C209.603 12.5472 209.436 14.0635 209.1 15.4222C208.765 16.7809 208.252 17.9862 207.079 18.1377C207.337 18.3517 207.627 18.5859 208.032 18.7433C208.445 18.8968 208.967 18.9755 209.694 18.8625C209.34 18.499 209.396 16.1026 209.988 16.1147C210.466 17.2857 210.673 17.6127 210.923 17.9237C211.177 18.2325 211.485 18.5132 212.267 19.5872C211.987 19.3208 212.204 18.5616 212.599 17.9115C212.998 17.2574 213.566 16.7062 214.043 16.8678C213.796 17.2352 213.526 19.559 213.088 19.7488C213.612 19.4156 214.144 19.0583 214.658 18.707C215.171 18.3577 215.681 17.9862 216.173 17.6148C215.462 17.9842 215.645 19.8659 216.138 20.736C216.036 20.4534 216.624 20.5563 217.339 20.6997C217.692 20.7784 218.094 20.845 218.449 20.8895C218.804 20.9298 219.114 20.9541 219.311 20.8935C218.924 20.6553 218.552 20.4009 218.185 20.1546C218.568 20.2454 218.912 20.2575 219.219 20.2091C219.531 20.1505 219.809 20.0334 220.059 19.876C220.31 19.7185 220.532 19.5247 220.737 19.3066C220.945 19.0805 221.136 18.8362 221.322 18.5879C221.694 18.0872 222.043 17.5986 222.466 17.1928C222.679 16.9949 222.907 16.8294 223.171 16.7103C223.435 16.5972 223.727 16.4963 224.075 16.4781C223.946 16.7769 223.822 17.6632 223.918 18.497C224.013 19.3288 224.357 20.1102 225.214 20.1707C225.351 19.7912 225.56 19.1491 225.796 18.382C225.913 17.9963 226.039 17.5865 226.166 17.1504C226.283 16.7345 226.41 16.2823 226.545 15.8058C227.059 13.9827 227.508 12.1495 228.354 11.245L229.039 11.8325L230.363 10.3123C230.219 11.5035 229.871 13.4194 229.297 15.3172C229.011 16.2681 228.656 17.213 228.247 18.0569C227.842 18.9028 227.377 19.6438 226.938 20.1849C227.619 20.3444 227.774 20.5503 227.969 20.6472C228.068 20.6956 228.179 20.7178 228.382 20.6916C228.483 20.6775 228.606 20.6532 228.759 20.6108C228.908 20.5664 229.087 20.5079 229.305 20.4291C229.728 20.6876 229.575 21.0328 229.236 21.3437C229.071 21.5012 228.844 21.6425 228.63 21.7576C228.413 21.8727 228.213 21.9655 228.07 22.012C229.629 21.7758 231.056 21.4285 232.365 21.0914C231.998 20.3625 232.562 19.7023 233.078 19.0866C233.602 18.4667 234.093 17.8934 233.779 17.2917C232.816 18.2992 231.773 19.349 230.544 20.3888C230.191 19.6498 230.435 18.3456 230.979 17.1484C231.529 15.9512 232.409 14.8428 233.612 14.5056C234.023 14.6873 234.174 15.406 234.261 16.1369C234.351 16.8678 234.371 17.6127 234.492 17.855C234.516 17.6935 234.631 17.4997 234.802 17.2998C234.974 17.0979 235.193 16.9001 235.417 16.7325C235.87 16.3973 236.341 16.1934 236.499 16.3509C236.303 16.7244 236.1 17.1161 235.908 17.4977C236.595 17.5643 236.867 16.8879 237.224 16.3307C237.405 16.0461 237.601 15.7997 237.864 15.6907C238.126 15.5797 238.459 15.6302 238.872 15.9229C239.111 15.9108 239.561 16.3731 239.907 16.6982C240.254 17.0212 240.522 17.2594 240.493 16.7729C240.004 15.8987 239.442 14.0756 239.033 12.2787C238.624 10.4819 238.408 8.70321 238.652 7.94611C238.713 7.96832 238.978 8.05715 239.343 8.19242C239.526 8.26106 239.734 8.3398 239.955 8.42863C240.175 8.5215 240.409 8.63254 240.644 8.74359C240.878 8.85665 241.114 8.97576 241.341 9.10094C241.567 9.23217 241.783 9.36743 241.982 9.49866C242.181 9.6299 242.359 9.76314 242.51 9.88832C242.661 10.0175 242.784 10.1447 242.872 10.2578C243.37 10.9806 243.003 11.8527 242.679 12.6987C242.347 13.5567 242.061 14.3925 242.437 14.9982C242.443 14.7761 242.552 14.5197 242.689 14.2977C242.826 14.0816 242.991 13.8979 243.088 13.8091C243.364 13.9968 243.307 14.3421 243.332 14.6126C243.344 14.7479 243.376 14.865 243.473 14.9356C243.571 15.0023 243.737 15.0285 244.025 14.9902C244.258 13.3225 246.424 15.2607 244.627 13.6112C245.233 13.4093 245.548 13.5143 245.88 13.6778C246.047 13.7626 246.216 13.8596 246.432 13.9403C246.647 14.017 246.909 14.0857 247.26 14.116C247.103 13.5587 247.52 12.6946 248.187 11.9456C248.519 11.5761 248.912 11.2349 249.313 10.9725C249.712 10.712 250.116 10.5364 250.463 10.4799C250.31 10.8796 250.503 11.4671 250.592 11.7417C253.172 12.4261 254.351 13.5244 256.72 14.2007C256.833 14.6449 257.846 15.4444 257.169 15.9855C257.586 15.8018 258.051 15.3536 258.795 15.5312C259.82 17.318 257.103 15.2667 257.717 17.2312C258.068 16.3348 259.967 16.5165 261.186 16.25C261.268 14.7317 258.839 15.2607 257.638 15.5353C257.912 14.55 258.648 13.6778 259.665 13.0298C260.682 12.3817 261.976 11.9638 263.337 11.8669C265.428 11.9416 263.833 13.3831 264.25 13.1994C266.047 13.8919 267.056 13.2296 267.922 12.6684C268.357 12.3918 268.758 12.1374 269.21 12.0829C269.667 12.0344 270.17 12.1737 270.831 12.6906C271.288 13.4416 271.192 14.0816 270.976 14.655C270.763 15.2264 270.432 15.7311 270.481 16.2177C270.05 16.2641 269.687 16.1914 269.369 16.0683C269.052 15.9471 268.782 15.7654 268.531 15.5716C268.031 15.19 267.62 14.76 267.07 14.6469C267.467 14.9578 267.866 15.2728 268.271 15.5756C267.662 15.8805 266.49 15.9249 265.996 15.4C266.365 16.1046 267.942 16.577 269.78 17.0071C270.704 17.211 271.689 17.427 272.624 17.6349C272.858 17.6895 273.091 17.746 273.317 17.8086C273.545 17.8631 273.768 17.9176 273.984 17.9802C274.417 18.1033 274.826 18.2467 275.195 18.4183C275.338 18.3234 275.507 18.2285 275.67 18.1316C275.833 18.0286 275.992 17.9196 276.121 17.8106C276.377 17.5885 276.508 17.3503 276.307 17.0797L275.835 17.1504C275.676 17.1726 275.519 17.1827 275.36 17.1989C274.975 16.6336 275.444 16.3146 275.849 16.0602C276.26 15.7836 276.613 15.5756 276.059 15.3071C276.685 14.9639 277.334 14.5157 278.019 14.2391C278.708 13.9322 279.435 13.7768 280.269 14.0675L280.642 15.5332C280.615 15.3132 280.329 15.1234 279.995 15.0083C279.661 14.9013 279.28 14.9054 279.044 15.1335C279.219 14.9679 279.467 15.0083 279.759 15.1335C279.904 15.1961 280.061 15.2789 280.223 15.3677C280.386 15.4545 280.555 15.5353 280.724 15.612C281.401 15.9148 282.106 16.0541 282.418 15.0608C281.995 14.7418 281.58 14.4228 281.173 14.1038C281.746 13.694 282.356 13.0903 282.995 12.5775C283.637 12.0748 284.3 11.7457 285.045 11.8568C284.622 11.1784 284.55 11.2309 284.425 11.2612C284.302 11.2935 284.121 11.2935 283.536 10.49C284.084 11.5055 283.186 11.5761 282.35 11.6569C281.933 11.6912 281.538 11.7013 281.337 11.8568C281.139 12.0082 281.131 12.2908 281.52 12.8299C280.938 11.8628 280.495 11.6892 280.013 11.5297C279.536 11.3581 279.016 11.2248 278.383 10.385C278.4 10.6293 278.512 10.8614 278.478 11.0048C278.446 11.1441 278.259 11.2168 277.697 11.0613C277.642 11.2026 277.517 11.3783 277.435 11.4813C277.402 11.4671 277.39 11.457 277.36 11.4409C277.382 11.4611 277.398 11.4833 277.421 11.5014C277.37 11.5721 277.364 11.5883 277.443 11.5216C277.709 11.7478 277.926 12.0163 278.013 12.2929C277.713 12.842 277.084 13.0863 276.441 13.266C276.28 13.3084 276.117 13.3548 275.962 13.3871C275.805 13.4174 275.654 13.4477 275.511 13.482C275.225 13.5507 274.975 13.6334 274.798 13.7606C274.109 13.4598 275.152 13.2317 274.816 12.6724C274.473 12.9268 274.121 13.1933 273.764 13.4396C273.784 12.8925 273.379 12.3777 273.194 11.9537C273.007 11.5277 273.041 11.1905 273.871 10.9866L273.166 10.8614L272.453 10.7161C271.709 9.96706 270.608 9.49261 269.766 9.75911C269.135 9.37753 267.703 10.4879 268.525 9.81967C267.689 9.8439 266.834 9.8439 265.968 9.83784L266.015 9.56933C264.84 9.16958 263.47 9.23822 262.09 9.06258C260.71 8.88693 259.331 8.47103 258.106 7.11027C257.157 7.13046 256.172 7.20314 254.728 6.52882L254.645 5.53955C254.333 5.5456 253.962 5.44466 253.571 5.29525C253.184 5.14585 252.767 4.95809 252.363 4.79658C251.964 4.63305 251.571 4.4998 251.236 4.46548C250.9 4.42913 250.626 4.48365 250.451 4.70169C249.977 3.34497 248.398 2.93917 246.607 2.91696C246.156 2.91696 245.697 2.93311 245.245 2.95532C244.788 2.98964 244.335 3.02598 243.902 3.05828C243.029 3.13904 242.232 3.18749 241.593 3.11885L241.565 4.3504C239.885 4.3827 238.261 4.92579 236.339 5.89084L236.706 6.91847C235.965 7.54636 234.855 7.66144 233.648 7.78459C232.441 7.90169 231.138 8.01677 230.087 8.51343C230.083 8.06724 230.667 7.94005 231.172 8.00668C230.268 7.71191 229.535 7.81084 228.912 8.09349C228.282 8.3822 227.78 8.84453 227.292 9.31292C226.809 9.7793 226.352 10.2315 225.86 10.496C225.622 10.6151 225.365 10.708 225.115 10.7019C224.99 10.7019 224.861 10.6838 224.732 10.6474C224.601 10.603 224.47 10.5364 224.339 10.4476C224.154 10.6818 223.969 10.7847 223.789 10.8009C223.604 10.8009 223.427 10.7201 223.253 10.603C223.294 10.5949 223.33 10.5707 223.358 10.5324C223.31 10.5243 223.241 10.5324 223.171 10.5425C223.062 10.4617 222.951 10.3749 222.841 10.2881C222.73 10.1992 222.615 10.1043 222.498 10.0236C222.601 10.1508 222.702 10.2659 222.8 10.3607C222.895 10.4496 222.986 10.5182 223.072 10.5586C222.984 10.5727 222.889 10.605 222.782 10.6313C222.675 10.6575 222.558 10.6898 222.436 10.7322C222.192 10.813 221.93 10.9462 221.648 11.0734C221.563 10.6838 221.483 10.2961 221.408 9.90649C221.366 9.92264 221.33 9.92062 221.287 9.94081C220.786 9.5128 220.846 10.494 221.128 11.3722C221.056 11.4207 220.985 11.4712 220.915 11.5257C220.844 11.5761 220.774 11.6266 220.707 11.6811C220.572 11.7901 220.445 11.9133 220.332 12.0466C220.236 11.5701 220.097 11.3682 219.926 11.2996C219.756 11.2248 219.551 11.2773 219.339 11.3298C219.126 11.3783 218.91 11.4328 218.715 11.3278C218.521 11.2228 218.358 10.9785 218.268 10.4597C218.006 10.924 217.218 10.9785 216.388 11.136C215.971 11.2067 215.546 11.3218 215.169 11.5176C214.791 11.7154 214.466 12.0183 214.257 12.4968C214.297 12.2303 214.136 12.0607 214.491 12.1293C214.158 11.9295 213.824 11.7215 213.475 11.6084C213.125 11.4994 212.762 11.4913 212.355 11.6731L212.446 10.1568C211.745 10.6495 211.02 11.1158 210.292 11.5883C209.565 10.4132 209.327 9.78535 210.623 9.00201C209.207 9.47444 208.663 9.46636 208.183 9.48453C207.692 9.49665 207.253 9.52087 205.967 10.0175L206.354 9.13526C205.607 8.93135 204.046 9.78131 203.824 8.88491C203.679 8.60226 203.441 8.34787 203.125 8.10964C202.807 7.87343 202.408 7.66144 201.952 7.45955C201.493 7.25967 200.967 7.07797 200.399 6.9003C199.821 6.73475 199.213 6.56112 198.554 6.41576C197.907 6.25627 197.214 6.12503 196.519 5.97765C195.81 5.85248 195.099 5.70106 194.37 5.58194C193.651 5.4386 192.916 5.3316 192.206 5.17412C191.481 5.05702 190.784 4.87532 190.093 4.72188C190.391 5.41033 190.371 5.68693 190.194 5.74548C190.015 5.80402 189.666 5.64857 189.267 5.47696C188.468 5.1721 187.428 4.82484 187.507 5.93929C187.102 5.33765 186.244 5.11961 187.041 4.37462C186.697 4.52402 186.375 4.63305 186.066 4.7138C185.758 4.80466 185.464 4.88137 185.18 4.93589C184.896 4.99242 184.622 5.02876 184.358 5.06712C184.1 5.11355 183.85 5.15393 183.609 5.20238C182.664 5.4063 181.87 5.75557 181.411 6.975C180.863 6.48642 181.546 5.8444 181.143 5.59204C180.996 5.81614 180.587 6.47229 180.182 6.23406C179.773 5.99179 180.289 5.5557 180.585 5.11153C179.316 5.74951 178.923 6.58131 178.905 7.45349C178.895 8.32769 179.262 9.26043 179.63 10.1548C178.129 9.93475 177.656 10.3628 177.539 11.8891C176.88 11.5479 175.954 11.3238 177.102 10.3931C176.717 10.5606 175.529 10.9967 174.56 11.5317C173.589 12.0708 172.831 12.6906 173.156 13.3912C172.763 13.165 172.185 13.7828 172.09 14.0291C171.901 14.1099 171.733 14.1806 171.582 14.2452C171.431 14.3017 171.296 14.3522 171.171 14.3986C170.922 14.4935 170.72 14.5561 170.519 14.6267C170.319 14.7014 170.126 14.7721 169.9 14.867C169.671 14.97 169.413 15.0729 169.08 15.2324L169.544 15.3354C169.558 15.824 169.491 16.1268 169.368 16.3025C169.246 16.4741 169.07 16.5286 168.865 16.5387C168.661 16.5427 168.426 16.4922 168.178 16.4801C168.055 16.468 167.928 16.4599 167.797 16.47C167.666 16.4801 167.531 16.5124 167.394 16.5548L167.398 16.361C167.225 16.2984 167.076 16.2479 166.941 16.2055C166.808 16.1571 166.695 16.1127 166.593 16.0824C166.389 16.0259 166.242 15.9835 166.121 15.9693C166.002 15.9552 165.91 15.9693 165.833 15.9936C165.757 16.0117 165.694 16.042 165.628 16.0723C165.501 16.1268 165.366 16.1995 165.14 16.1066C164.916 16.0238 164.58 15.8119 164.171 15.2809C164.097 15.6625 164.032 16.0481 163.97 16.4337C163.75 17.0172 163.506 17.1726 163.249 17.0878C163.001 16.9869 162.757 16.6477 162.539 16.2237C162.084 15.3838 161.752 14.2694 160.785 14.1563C160.827 14.4551 160.871 14.76 160.918 15.0568C159.63 15.2163 160.779 10.7322 159.953 9.75507C159.866 9.42598 160.489 9.71065 160.855 9.78939C160.469 9.04037 160.146 8.72138 159.923 8.65879C159.695 8.5962 159.536 8.78598 159.367 9.03633C159.03 9.53904 158.637 10.28 157.62 9.79343C157.666 9.33311 158.055 8.96769 158.287 8.5962C158.517 8.22674 158.583 7.8492 157.948 7.36466C157.866 7.11835 157.491 6.98308 156.969 6.88819C156.438 6.80541 155.757 6.77715 155.064 6.70649C154.721 6.66611 154.363 6.63784 154.02 6.58535C153.676 6.53286 153.345 6.46018 153.037 6.35115C152.731 6.23809 152.445 6.1109 152.195 5.93526C151.945 5.75759 151.732 5.53349 151.569 5.2468C151.752 6.01601 151.893 6.76907 150.779 6.79532C150.404 6.68226 150.023 6.4097 149.629 6.06043C149.236 5.71317 148.831 5.28314 148.394 4.94194C147.961 4.59469 147.509 4.29387 147.042 4.18283C146.575 4.08188 146.097 4.1586 145.626 4.53816C145.483 4.31607 145.455 4.13437 145.489 3.98093C145.169 4.01323 144.76 4.03544 144.317 4.04554C143.875 4.05967 143.396 4.05361 142.929 4.09601C141.994 4.18283 141.118 4.34232 140.68 4.82081C140.608 3.78913 140.094 3.30257 139.383 3.11279C139.027 3.02598 138.626 3.01185 138.205 3.03809C137.995 3.05021 137.78 3.07241 137.566 3.10068C137.352 3.135 137.135 3.17336 136.923 3.21374C136.498 3.2945 136.081 3.37727 135.701 3.42976C135.322 3.48831 134.979 3.52062 134.693 3.48024C134.121 3.4015 133.777 3.04617 133.857 2.12554L132.085 2.09929C131.498 2.09929 130.91 2.10737 130.324 2.11342L130.431 1.73992C129.309 1.57235 128.545 1.72377 127.967 2.01248C127.389 2.31128 126.996 2.75342 126.609 3.19557C126.098 2.94118 126.47 2.59797 126.513 2.40415C124.895 2.0367 123.997 1.90951 123.181 2.11342C122.365 2.30926 121.626 2.84428 120.34 3.82547L120.004 2.64238C119.659 3.00983 118.483 2.59999 117.008 2.31734C115.534 2.03469 113.761 1.87923 112.276 2.71506C112.293 2.57778 112.339 2.33954 112.569 2.14775C109.212 3.85374 103.993 -0.377934 103.159 4.09197L101.009 5.37803C103.951 5.44264 100.746 7.30813 102.011 7.91986C100.881 8.28731 98.9275 6.87608 100.316 6.5268L100.556 6.72466C100.868 4.415 96.8802 6.23406 96.8365 4.67141C91.1493 5.22863 85.5218 4.22926 80.1603 4.308L80.8374 6.05841L78.9569 6.01803C78.4525 5.6203 78.2559 4.65324 79.5943 4.68554C78.8616 3.70434 77.3763 5.59608 77.3465 5.97967C74.7035 5.33361 78.3155 3.88604 77.5093 3.86585L76.4231 4.02737L76.6753 4.22724C75.8095 4.97425 75.7499 5.74548 74.1355 5.69702C73.1069 5.36794 73.5875 4.61689 73.1844 4.55835C73.1844 4.43317 73.0474 4.37664 72.5668 4.52201L70.1938 4.42308L71.1708 5.80201C70.1323 6.51267 68.9369 5.77576 70.0648 7.33639C68.4107 4.92781 61.1786 6.62977 60.1718 5.89084C58.7123 6.93866 57.2548 6.94876 55.4458 6.85992C55.9005 7.14257 56.1984 8.71128 54.6356 8.54775C55.1459 5.29122 51.7563 7.19305 50.4556 4.88137C51.6093 6.40769 46.0334 5.34775 47.8384 7.51204C46.5338 7.2738 47.7371 6.29866 46.7363 5.55368C43.6644 6.87002 39.9014 4.86522 36.0848 5.36188C36.0332 5.78787 36.6845 6.42787 35.8763 7.07797L33.8191 4.98636C33.0685 5.21046 33.1678 7.45955 31.7619 6.00592C31.9624 6.36125 32.2643 6.89627 31.7619 7.04163C24.232 5.10749 16.4816 9.03027 8.80079 5.27305C9.84727 6.0786 9.16021 6.17349 8.37386 6.21992C8.89015 6.40768 8.3818 7.27179 8.493 7.84718L5.27809 6.3027C4.72606 7.91582 1.86461 6.47633 1.56079 8.01273L2.56557 7.71797C1.25697 9.55116 4.51557 11.7013 4.36267 14.0251C5.82814 11.9416 8.37981 16.9949 10.7905 14.0049C11.3425 14.4672 10.3397 14.76 10.6416 15.293C11.2492 14.2876 11.9998 14.0655 13.4057 14.4854L13.2528 14.7337C17.1766 14.4168 18.8784 15.3657 23.3026 15.935L22.9551 14.7943C23.9063 14.9296 24.1128 15.2869 24.5616 15.5655C25.618 13.805 21.8967 15.5171 22.8539 13.5809C24.1545 15.8926 29.5418 13.4901 30.4394 16.1268C31.8989 16.1127 29.9866 14.8064 31.4461 14.7943L31.8453 15.505L32.1968 14.5722C33.1559 14.7075 33.6543 15.5958 33.7019 16.2035C33.4676 16.1349 33.0447 16.3872 32.7984 16.4438C34.0534 17.2655 36.2894 16.0884 36.7203 16.357L35.3104 15.9411C39.2799 15.1941 44.1569 16.0461 47.9774 14.5137L47.6756 13.9766C50.5946 12.9187 50.0386 14.5278 53.2555 14.0029L53.1403 14.1341C53.7758 13.583 54.6336 13.2943 55.5173 13.3387C54.715 13.9888 57.0721 14.5419 56.0157 15.2627C59.1809 14.1281 57.5765 14.3885 59.6416 12.3373L60.144 13.2256C60.847 12.3999 60.8986 11.9698 62.5051 11.7074C61.1985 12.5028 63.5575 13.056 62.096 14.1038C65.5115 16.0057 67.0782 12.0264 68.6867 14.867C70.1938 12.3514 65.7319 13.5446 66.5917 12.9955C65.8491 12.198 67.8388 11.1118 68.9051 11.3419C69.9873 11.3743 70.8055 14.4854 73.5319 14.3764C73.2598 14.3703 73.2459 14.5601 72.9759 14.5541C74.0124 15.1638 74.9557 13.6476 76.2345 14.6449C76.8977 13.1226 77.8667 14.6873 78.0157 12.7633L75.5256 13.2741C76.9334 12.735 78.1964 10.4577 80.5614 11.4691C80.3926 11.8628 79.7135 12.3918 79.2429 12.6906C79.9438 13.2357 80.5475 12.2747 81.2743 12.8299C81.1353 14.758 78.242 13.3488 76.7607 14.8508C77.5173 15.6423 79.6043 13.377 78.8973 15.4787C79.918 12.8036 81.6099 15.7291 83.395 13.6395L83.3156 14.7923C83.6035 14.6005 84.1913 14.0332 84.7334 14.0413L83.812 15.5696C85.2656 14.2411 86.7668 16.5609 88.1886 15.7957C85.1544 15.9774 87.444 14.445 86.1274 13.6657C89.7772 11.9496 88.409 16.579 92.589 15.7836C92.027 15.9855 90.4146 15.2183 91.2725 14.6368C92.0826 14.8286 93.1649 15.1981 93.6951 15.7715C96.4671 15.3435 93.1907 14.6227 94.3305 13.8373C95.369 15.1658 95.657 13.1772 96.8345 12.6361L96.9298 13.801C100.155 14.2997 97.5772 11.3096 100.488 11.9719L99.4239 13.69L100.873 13.1428L100.683 14.4935C102.208 13.3649 102.724 13.5708 104.325 13.7909C103.884 13.0055 104.333 11.6609 105.703 11.4873C106.706 12.0869 105.286 12.6442 107.216 12.2868C106.847 13.058 106.453 14.019 105.5 13.0298C105.449 13.4174 105.135 13.803 105.079 14.1866C106.169 14.8811 107.635 14.118 108.338 14.0392C108.064 14.0231 107.732 13.9908 107.552 13.8414L110.21 11.9577C110.691 12.3534 110.373 12.737 110.06 13.1125C110.614 12.9329 110.957 12.3615 111.781 12.1838C111.65 13.1509 111.787 14.122 110.653 14.6772L113.211 13.3851C113.425 13.7788 114.658 14.3986 114.345 14.7782C115.093 14.9942 115.945 14.4632 116.861 13.9565C117.319 13.7001 117.792 13.4558 118.273 13.3104C118.753 13.165 119.246 13.1186 119.73 13.2801C119.819 13.0903 120.008 12.9046 120.407 12.7451C120.86 12.7713 121.299 12.8662 121.736 12.9692C122.173 13.0722 122.609 13.1731 123.046 13.2397C123.485 13.3043 123.934 13.3225 124.401 13.2397C124.867 13.161 125.35 12.9854 125.87 12.6522C126.271 13.2115 126.658 13.7869 127.044 14.3562C127.844 14.1664 127.461 13.6294 127.2 13.058C126.942 12.4907 126.809 11.883 128.183 11.5782C130.127 11.0835 128.864 13.0479 129.516 13.5385C129.996 13.1267 130.666 12.5069 131.436 12.1737C132.197 11.8588 133.068 11.8164 133.861 12.5977C133.563 12.731 133.309 12.7229 133.062 12.6926C132.814 12.6643 132.57 12.6199 132.298 12.6623L132.294 12.6765ZM150.636 16.9142C150.42 16.9344 150.068 17.0232 149.788 17.0192C149.647 17.0172 149.524 16.9889 149.439 16.9182C149.351 16.8516 149.306 16.7365 149.324 16.5548C149.564 16.3004 149.746 16.1571 149.887 16.0925C150.028 16.0319 150.13 16.0501 150.211 16.1208C150.376 16.2601 150.461 16.5992 150.634 16.9162L150.636 16.9142ZM183.313 14.1705C183.222 14.651 182.749 14.6712 182.09 14.5278C182.376 14.2633 182.773 14.1099 183.313 14.1705ZM271.208 11.1845C271.188 11.2006 271.176 11.2127 271.158 11.2329C270.428 10.6131 270.684 10.8534 271.208 11.1845ZM272.813 11.992C273.007 11.8608 273.019 11.6973 272.973 11.5237C272.813 11.7962 272.429 11.7518 272.012 11.5963C272.078 11.9194 272.267 12.1637 272.813 11.992ZM72.9818 4.99847L73.3611 5.29525C72.5291 5.65059 72.7574 5.34169 72.9818 4.99847Z" fill="#DFF249"/>
<path d="M180.984 17.2574C180.789 17.1423 180.656 16.9707 180.525 16.7931C180.484 17.0434 180.593 17.2413 180.984 17.2574Z" fill="#DFF249"/>
<path d="M119.79 13.3043C119.768 13.2963 119.748 13.3003 119.726 13.2943C119.696 13.3669 119.68 13.4376 119.674 13.5083L119.788 13.3043H119.79Z" fill="#DFF249"/>
<path d="M243.092 15.5878C242.758 15.4182 242.568 15.2163 242.435 15.0023C242.431 15.293 242.586 15.511 243.092 15.5878Z" fill="#DFF249"/>
<path d="M281.661 10.3648L280.622 10.7302C281.131 10.6414 281.329 10.8857 281.603 11.0553C281.56 10.7847 281.333 10.4011 281.661 10.3628V10.3648Z" fill="#DFF249"/>
<path d="M292.696 15.7997C292.835 15.616 293.061 15.6887 293.198 15.503L293.017 14.9902C292.293 15.2143 291.874 15.7755 292.696 15.7997Z" fill="#DFF249"/>
<path d="M282.995 14.1483C283.176 15.1173 283.883 14.7095 284.669 14.441C284.622 14.4531 284.576 14.4632 284.526 14.4572C284.594 13.0681 283.808 13.6072 282.995 14.1483Z" fill="#DFF249"/>
<path d="M284.854 14.3804C285.098 14.2977 285.351 14.2331 285.601 14.2452C285.619 13.6859 285.283 14.1765 284.854 14.3804Z" fill="#DFF249"/>
<path d="M275.007 11.6105C275.334 11.8972 275.342 10.3809 275.499 10.7989C275.742 10.1952 275.15 10.5142 274.713 10.9281C274.276 11.3419 274.006 11.8447 275.007 11.6105Z" fill="#DFF249"/>
<path d="M283.984 17.2998L283.559 16.1248L283.176 17.1484L283.984 17.2998Z" fill="#DFF249"/>
<path d="M277.229 16.6719C277.674 16.8031 278.122 16.9425 278.575 17.0394C278.555 16.8355 278.728 16.7143 278.939 16.6214C278.105 16.6093 277.211 16.3085 277.229 16.6719Z" fill="#DFF249"/>
<path d="M278.939 16.6214C279.371 16.6396 279.783 16.6114 280.017 16.4095C279.785 16.4236 279.284 16.47 278.939 16.6214Z" fill="#DFF249"/>
<path d="M282.138 17.8368L281.713 17.6067L280.738 17.5764L282.138 17.8368Z" fill="#DFF249"/>
<path d="M262.999 13.7485L261.466 13.6617C261.206 14.019 261.53 14.3784 262.111 14.3764C262.536 14.1987 263.112 14.1987 263.001 13.7485H262.999Z" fill="#DFF249"/>
<path d="M266.565 18.1639C266.22 17.8167 266.258 17.5502 266.131 17.104L265.72 18.5495L266.565 18.1639Z" fill="#DFF249"/>
<path d="M262.165 17.3281C261.909 17.6874 259.721 17.8631 261.599 18.3113C261.859 17.958 263.42 18.0448 262.165 17.3281Z" fill="#DFF249"/>
<path d="M240.769 11.5943L241.138 11.5398L240.866 9.0868C240.822 9.92466 240.791 10.7605 240.769 11.5943Z" fill="#DFF249"/>
<path d="M221.587 22.6459C221.872 22.7186 222.095 22.7509 222.27 22.7469C222.446 22.7388 222.575 22.7004 222.669 22.6419C222.857 22.5288 222.907 22.3391 222.953 22.1553C222.996 21.9716 223.034 21.7919 223.187 21.697C223.264 21.6506 223.37 21.6244 223.523 21.6284C223.598 21.6284 223.685 21.6405 223.787 21.6587C223.888 21.6728 224.005 21.695 224.136 21.7253C224.373 21.4003 223.938 21.3155 223.525 21.1984C223.11 21.0833 222.706 20.9763 222.953 20.7098C222.637 20.8814 222.349 20.9944 222.113 21.0792C221.876 21.16 221.688 21.2246 221.559 21.3215C221.301 21.5153 221.269 21.8343 221.587 22.6439V22.6459Z" fill="#DFF249"/>
<path d="M222.953 20.7098C223.155 20.6008 223.368 20.4695 223.586 20.2959C223.227 20.4715 223.056 20.6008 222.953 20.7098Z" fill="#DFF249"/>
<path d="M3.12357 5.07519L1.96787 4.58257L2.72245 5.39822L3.12357 5.07519Z" fill="#DFF249"/>
<path d="M0.959111 6.94674L0.661251 5.38005L0 6.81551C0.258146 6.74081 0.756566 6.59545 0.959111 6.94674Z" fill="#DFF249"/>
<path d="M151.214 20.9965L151.48 20.7219C151.591 20.304 151.432 20.1546 151.111 19.8578C151.152 20.2394 151.184 20.6209 151.214 20.9965Z" fill="#DFF249"/>
<path d="M140.1 15.0366L140.318 15.1173C140.282 14.6247 140.241 14.1301 140.197 13.6355L140.102 15.0366H140.1Z" fill="#DFF249"/>
<path d="M128.535 15.5555C129.011 15.6281 129.587 15.3192 130.06 15.4061C129.023 15.614 128.441 13.7849 128.535 15.5555Z" fill="#DFF249"/>
</svg>
