<?xml version="1.0" encoding="UTF-8"?>
<svg id="Capa_2" data-name="Capa 2" xmlns="http://www.w3.org/2000/svg" viewBox="0 0 1594.72 193.69">
  <defs>
    <style>
      .cls-1 {
        fill: #e3f35e;
      }
    </style>
  </defs>
  <g id="Capa_1-2" data-name="Capa 1">
    <g>
      <path class="cls-1" d="M1592.79,85.96c2.45.25,1.56-2.68,1.93-3.21-4.1.66-1.83,3.97-1.93,3.21Z"/>
      <polygon class="cls-1" points="1552.36 92.73 1553.08 91.53 1547.12 94.48 1552.36 92.73"/>
      <path class="cls-1" d="M1514.54,92.77c3.59,4.99,13.7-.84,20.44.92l1.11,1.14,3.03-4.03c-8.19.66-18.82,3.35-24.59,1.97Z"/>
      <path class="cls-1" d="M1494.35,82.01c1.25,1.94-4.36,1.69,4.7.6-.46-.21-.59-.33-.85-.49-.82.03-1.94.03-3.85-.11Z"/>
      <path class="cls-1" d="M1498.2,82.12c3.98-.15-2.61-1.63,0,0h0Z"/>
      <path class="cls-1" d="M1479.81,83.28l5.24-1.75c-1.1-1.15-5.77-1.39-4.04-2.23-5.38.96-4.27,2.1-1.21,3.98Z"/>
      <path class="cls-1" d="M1474.85,86.94l2.72-.74c-.48-.48-1.2-.65-2.72.74Z"/>
      <path class="cls-1" d="M1483.33,84.63l-5.76,1.57c.76.81.85,2.42,2.65-.57-.47,1.48.67.06,3.12-1Z"/>
      <path class="cls-1" d="M1486.59,85.39c2.95,1.08,6.75,1.75,1.49,3.5,10.04-.71,8.55-4.22-1.49-3.5Z"/>
      <path class="cls-1" d="M1512.63,97.94l3.94,1.45,3.4-1.68c-1.7.84-7.59-1.33-7.34.23Z"/>
      <path class="cls-1" d="M1447.12,80.78c-.32,1.06,1.77,2.83,2.17,4.19l3.87-1.23c-1.99-.72-5.77-1.38-6.04-2.96Z"/>
      <path class="cls-1" d="M1449.29,84.97l-5.79,1.84c5.18.2,6.12-.67,5.79-1.84Z"/>
      <polygon class="cls-1" points="1473.93 92.49 1483.44 88.63 1472.09 92.55 1473.93 92.49"/>
      <polygon class="cls-1" points="1424.98 80.7 1428.26 78.23 1422.41 81.97 1424.98 80.7"/>
      <path class="cls-1" d="M1410.29,81.17c2.43-2.04-3.34-3.44-.78-4.7-3.99.37-7.39,2.13-10.45,3.72,3.26-.89,6.73-.67,11.23.99Z"/>
      <path class="cls-1" d="M1393.92,82.49c1.63-.49,3.31-1.37,5.15-2.31-1.73.48-3.43,1.16-5.15,2.31Z"/>
      <path class="cls-1" d="M1433.62,86.31c-.45-.64-1.32-2.32-4.57-3.02l2.29,2.98c.7.01,1.48.03,2.28.04Z"/>
      <path class="cls-1" d="M1431.42,86.36l-.08-.1c-2.48-.08-4.19-.13-4.93-.15.63.03,2.14.11,5.01.25Z"/>
      <path class="cls-1" d="M1434.19,86.32c-.21,0-.37,0-.57-.01.22.29.35.39.57.01Z"/>
      <path class="cls-1" d="M1458.72,89.82c-3.4,1.68-10.5,3.49-3.62,6.03,2.44-2.05-1.5-3.5,3.62-6.03Z"/>
      <path class="cls-1" d="M1437.03,90.05l6.16.67c-.12-.79-1.24-1.94.45-2.77l-6.61,2.11Z"/>
      <polygon class="cls-1" points="1434.02 91.01 1437.03 90.05 1434.75 89.8 1434.02 91.01"/>
      <path class="cls-1" d="M1404.47,85.26c-2.66,1.31-5.57,1.43-8.85,1.64,3.52.58,7.17.89,10.63.87.49-.94,2-2.63-1.77-2.51Z"/>
      <path class="cls-1" d="M1417.57,86.06c-.18.07-.42.1-.59.17.36.25.66.33.59-.17Z"/>
      <path class="cls-1" d="M1363.26,86.97c.18.16.34.37.52.54.04-.18.07-.34.12-.52l-.64-.03Z"/>
      <path class="cls-1" d="M1406.84,88.33c2.65.57,4.23-.17,5.74-1.09-1.98.31-4.08.51-6.33.54-.22.42-.26.7.59.56Z"/>
      <path class="cls-1" d="M1384.89,83.91c1.38.62,2.95,1.15,4.59,1.63-1.35-.94-4.1-2.41-4.59-1.63Z"/>
      <path class="cls-1" d="M1416.08,85.41c.13-.05.25-.1.4-.13-.87-.64-.76-.33-.4.13Z"/>
      <path class="cls-1" d="M1416.08,85.41c-1.36.43-2.43,1.18-3.51,1.83,1.61-.24,3.11-.56,4.4-1.01-.33-.21-.66-.53-.89-.83Z"/>
      <path class="cls-1" d="M1353.5,106.2c.46-2.77,7.42-5.35,13.43-2.4,5.91-2.09,2.02-11.2-3.16-16.29-.18,1.21-.18,2.33-6.26,3.98,2.13,1.51,13.51,3.51,8.39,6.03-8.06,1.45-6.61-.96-10.53-2.42,3.34,3.45-10.24,5.05-8.47,10.13l7.06-1.81c.13.79-2.43,2.06-.46,2.77Z"/>
      <path class="cls-1" d="M1375.38,87.77l2.5-.35c-2.86-.47-4.9-1.58-8.67-3.74-4.16,1.36-5.03,2.4-5.31,3.32l12.33.35-.86.42Z"/>
      <path class="cls-1" d="M1389.12,87.38c-1.95,3.02-7.96,4.32-4.27,7.58,7.35-.23,5.14-2.53,9.53-3.85-11.86.78,3.4-1.69-5.17-3.38,2.33-.52,4.43-.68,6.4-.81-2.14-.36-4.2-.81-6.14-1.36.11.07.18.12.27.19h.06s-.01.02-.01.04c.51.37.68.6.1.39-.04.04-.18.05-.25.06-.08.42-.3.79-.53,1.14-3.44-.61-.54-.78.53-1.14.04-.15.13-.29.14-.45-.01-.02-.03-.03-.04-.04l-11.88,1.68c2.52.41,5.66.32,11.24-.04Z"/>
      <path class="cls-1" d="M1448.78,102.35c-.37-.27-.35-.48-.38-.7-.77.37-1.06.62.38.7Z"/>
      <path class="cls-1" d="M1443.89,100.54c.86-.42,1.58-1.63,4.39-1.33,2.44.9,0,1.45.12,2.44,1.69-.8,5.92-2.18.61-3.63l-.84.41c-4.79-1.02-10.94-4.77-10.11-5.19,1.4,2.71,2.64,4.64,5.83,7.3Z"/>
      <path class="cls-1" d="M1416.17,94.73l-9.89,1.51,5.04,2.6-.26-1.57c5.63.6,4.41-1.33,5.1-2.54Z"/>
      <polygon class="cls-1" points="1362.12 85.47 1363.43 82.28 1357.72 86.8 1362.12 85.47"/>
      <polygon class="cls-1" points="1349.27 85.89 1349.74 83.12 1346.35 84.8 1349.27 85.89"/>
      <path class="cls-1" d="M677.2,128.23l-3.01.15c1.4.05,2.32-.01,3.01-.15Z"/>
      <path class="cls-1" d="M697.72,132.88l.79-1.22c-1.11.53-1.62.98-.79,1.22Z"/>
      <path class="cls-1" d="M1057.4,131.22c-2.16.8-4.67,1.27-6.26,1.8-1.6.46-2.32.98-.99,1.82l3.04,1.09c1.19-2.32,2.66-3.68,4.21-4.7Z"/>
      <path class="cls-1" d="M869.66,153.74c.33.38.67.77,1.01,1.16,1.23-.8,2.38-1.56,3.41-2.23-1.34.35-2.84.7-4.43,1.07Z"/>
      <path class="cls-1" d="M864.07,165.39l-5.04-3.1c1.08.93,2.7,1.95,5.04,3.1Z"/>
      <path class="cls-1" d="M564.19,106.97l-3.97,2.3c5.19,1.11,3.24-.91,3.97-2.3Z"/>
      <path class="cls-1" d="M1225.5,75c-2.8-2.39-5.22-3.94-7.49-5.04,3.32,3.27,5.52,6.98,7.49,5.04Z"/>
      <path class="cls-1" d="M692.13,98.49c-1.85.16-2.73.6-2.82,1.28,1.9-.12,3.03-.47,2.82-1.28Z"/>
      <path class="cls-1" d="M1208.24,65.88c.49.53,1.02.92,1.54,1.41,2.71.58,5.34,1.24,8.24,2.66-2.45-2.43-5.59-4.62-9.78-4.08Z"/>
      <path class="cls-1" d="M158.09,32.89c-.29-.14-.65-.22-.91-.39-.1.41.31.44.91.39Z"/>
      <path class="cls-1" d="M34.97,13.04c1.16-.45,3.12-.91,4.98-1.28-.95-.04-2.47.28-4.98,1.28Z"/>
      <path class="cls-1" d="M1297.72,84.65c2.66-.18.42-.33,0,0h0Z"/>
      <path class="cls-1" d="M1310.83,96.67c-.58.34-1.02.78-1.08,1.48.22-.73.6-1.2,1.08-1.48Z"/>
      <path class="cls-1" d="M1175.54,74.07c-.08-.03-.14-.05-.22-.08.61.8.51.65.22.08Z"/>
      <path class="cls-1" d="M1301.73,86.05c-1-.38-2.15-.69-3.41-.92.55.24,1.58.54,3.41.92Z"/>
      <path class="cls-1" d="M1301.19,84.62c.92.14,1.65.21,2.35.3.34-.51.04-.82-2.35-.3Z"/>
      <path class="cls-1" d="M1294.04,84.78c1.51-.03,2.91.14,4.28.36-.52-.21-.74-.38-.6-.48-.79.05-1.87.09-3.68.13Z"/>
      <path class="cls-1" d="M377.4,55.55c-.16-.13-.35-.23-.51-.4-2.95.66-1.73.72.51.4Z"/>
      <path class="cls-1" d="M1014.01,190.87c.14-.05.21-.14.34-.19-.15-.02-.33-.04-.47-.05l.13.24Z"/>
      <path class="cls-1" d="M1003.07,193.69c1.16-.96,2.18-1.65,3.12-2.14.94-.5,1.81-.85,2.65-1.03,1.67-.37,3.23-.14,5.05.11-1.5-2.79-2.9-5.65-4.23-8.48-1,1.95-2.05,3.9-3.16,5.85-1.1,1.9-2.24,3.79-3.43,5.69Z"/>
      <path class="cls-1" d="M627.77,118.38l6.14,4.13c-9.06,2.63-14.61-.16-9.11,4.96,2.97-9.09,26.33,4.72,29.28-4.36l4.01,2.92c-1.25-.37-1.57.14-2.81-.23,7.65,6.32,7.86-5.33,18.67-1.59,3.71,1.55,6.12,3.49,3.24,4.02l9.12-.42c2.47.72,1.51,2.21-.95,1.49l13.31,2.12-.16.25c2.19-1.05,6.93-2.38,9.22-2.89,3.05,2.06-1.89.62-1.29,1.97l7.77-.67c2.44,3.05-4.1,4.08-9.05,2.64,4.78,10.75,6.55-1.03,20.04,7.58l-7.13-.31c3.29,6.23,9.07,5.49,16.12,10.46-1.47-2.12-13.76-11.66-5.36-12.26,2.07,1.18,4.94,2.16,9.61,1.21-.68,3.31,3.66,3.4,8.91,4.35l-1.31,4.3c5.9-.04,5.94-2.36,9.69-3.61,6.18,1.79,6.75,5.47,7.6,8.64,9.9,2.88-5.76-6.94,6.31-5.18,7.99,3.49,14.25,2.98,24.82,2.53,5.52,2.78-1.6,2.45.22,4.16l5.94-2.36c1.25.36.61,1.34.28,1.84,4.66-.4,1.31-4.29,8.44-3.99,2.9-4.42,12.57,10.11,22.26,6.48,1.83,1.7-1.59,2.46-1.32,4.29,12.44-1.06,10.57-.44,21.19-3.19l7.54,4.65c-5.28-4.59,3.22-6.81,10.63-8.55-1.78-2.05-3.3-3.83-4.37-4.76l11.22-.02c1.14,1-.27,2.27-2.42,3.71.81-.2,1.58-.41,2.19-.62,3.48,2.45.94,4.54-2.33,6.39-1.12-1.15-2.21-2.35-3.27-3.54-3.22,2.08-6.34,4.49-6.34,7.17.81-.35,2.24-.5,3.77-.42-.85.57-1.43,1.12-1.21,1.63.26.54,1.59-.19,3.58-.92l1.38,5.41,1.01-1.81,13.34,6.1c11.09-2.73,21.38-8.07,37.72-6.62-4.72,2.72-2.12,5.66-3.25,9.85-3.37-5.43-12.73-.77-20.78-3.47,4.2,1.41,2.81,3.22,1.57,3.69l15.59-.89c-1.08,3.39,2.56,3.28,6.09,5.54-1.42-7.48,11.95-2.18,18.39-2.98-.13,2.38-2.07,4.42-9.25,2.28,6.96,6.9,12.1-5.78,19.17.31-1.82-.33-2.71-.89-3.68.13,4.61-1.11,14.7,2.56,11.87,4.09l-1.84-.31c6,1.61,15.44,3.31,23.85,3.4,4.18.11,8.11-.3,11.06-.97,2.98-.79,4.99-1.89,5.49-3.36.13.77-1.85,7.12-2.72,8.29,8.1-6.38,15.48-13.31,21.15-20.97-.53,2.64,1.37,6.76,2.37,10.71.97,3.95.91,7.77-4.65,9.92,1.67.16,3.56.32,5.87.1,1.15-.1,2.42-.44,3.81-.86,1.38-.46,2.89-.97,4.5-1.86-1.21-.03-2.99-1.63-4.05-3.25-1.07-1.64-1.46-3.38-.11-3.88,2.24,1.06,3.78,1.48,4.98,1.82,1.2.32,2.05.45,2.96.54.45.04.92.07,1.46.12.54,0,1.14.02,1.86.03,1.45.02,3.41.14,6.39.28-1.85.15-2.56-2.05-2.28-4.4.28-2.43,1.4-5.1,3.69-6.04-.19,1.42,3.99,6.87,2.52,8.48.75-1.1,1.52-2.11,2.19-3.27.67-1.14,1.32-2.28,1.94-3.4.62-1.12,1.22-2.23,1.78-3.33.53-1.16,1.03-2.31,1.52-3.44-.88,1.47-.08,2.95,1.45,4.04,1.51,1.08,3.86,1.81,5.74,1.72-.52-.09-.18-.58.66-1.32.42-.37.96-.8,1.58-1.28.6-.49,1.26-1.03,1.96-1.59,2.83-2.23,5.91-5.03,6.83-6.58-.87.47-1.73.93-2.6,1.38l-2.67,1.29c1.46-1.18,2.6-2.36,3.41-3.56.83-1.19,1.44-2.35,1.8-3.52.38-1.16.59-2.3.71-3.42.1-1.13.1-2.25.09-3.36-.04-4.46-.41-8.77,3.5-13.99.43,2.19,5.87,9.11,10.64,3.93-.76-2.46-2.86-8.02-4.46-14.29-1.58-6.27-2.61-13.32-.72-19.09l3.15-.62c.92-2.99,1.88-5.99,2.93-9.01.81,4.12,1.74,11.14,2.6,18.29.84,7.15,1.42,14.55,1.12,19.55,4.25-3.21,3.08.27,6.89-6.09,3.22-1.04.62,5.14-.51,7.11,3.58-4.69,6.98-9.25,10.33-13.53-2.17-.99-1.46-4.25-.62-7.4.83-3.17,1.81-6.16.05-7.09-2.06,5.63-3.91,11.45-5.82,17.45-2.18-.95-3.58-4.99-3.5-9.95.07-4.94,1.7-10.89,5.6-15.32,1.66-.6,2.96,1.14,4.06,3.06,1.11,1.95,2.03,4.1,2.73,4.47-.11-.52.07-1.44.44-2.5.38-1.03.93-2.24,1.57-3.36.65-1.09,1.34-2.14,1.99-2.88.66-.72,1.23-1.18,1.61-1.16l-.56,2.49-.49,2.53c.64-.42,1.14-.9,1.54-1.44.41-.52.73-1.08.99-1.69.51-1.24.84-2.55,1.29-3.86.42-1.35,1.02-2.53,1.98-3.56.48-.52,1.08-.89,1.79-1.21.71-.31,1.54-.55,2.53-.55.49-.27,1.3-.35,2.18-.33.9.05,1.88.22,2.73.33.85.1,1.59.21,2.06.14.46-.08.65-.37.39-1.02-1.35-.77-3-2.24-4.7-3.95-1.71-1.72-3.5-3.78-5.11-5.92-3.23-4.26-5.63-8.85-5.18-11.54.29-.07,1.54-.35,3.27-.7.43-.08.89-.17,1.38-.27.5-.06,1.02-.13,1.56-.2,1.08-.12,2.21-.28,3.38-.34,4.69-.31,9.53.34,11.4,1.27,2.76,1.55,1.45,4.37.5,7.14-1.03,2.72-1.68,5.5.3,6.74-.26-1.28,1.37-3.31,2.15-4.03,1.33.31,1.26,1.34,1.51,2.09.12.38.32.69.79.81.23.06.53.07.92.03.4-.02.89-.1,1.51-.26.1-2.45,2.86-2.61,4.44-2.48.79.06,1.28.12,1.06-.08-.11-.1-.41-.28-.95-.56-.54-.29-1.33-.68-2.44-1.13,1.32-.47,2.38-.56,3.29-.56.9-.02,1.67.2,2.45.41.39.11.79.22,1.21.34.43.14.88.27,1.39.4.51.13,1.06.22,1.69.33.63.12,1.34.22,2.16.29-.83-1.65.91-4.12,3.94-6.05,3-1.92,7.3-3.27,10.57-3.05-.68,1.08.29,2.95.73,3.85,6.07,1.98,10.45,4.27,14.69,6.53,4.24,2.27,8.34,4.55,13.82,6.87.56,1.49,5.34,5,2.28,5.95,1.91-.12,3.99-.99,7.47.31,5.11,6.55-7.92-2.56-4.73,4.11,1.47-2.38,10.4.16,16.05.35-.04-2.29-2.83-3.54-6.3-4.33-3.47-.78-7.62-1.1-10.39-1.32,1.12-2.73,4.41-4.63,8.93-5.62,4.53-1,10.29-1.09,16.34-.44,4.68.8,5.35,1.93,5.11,2.96-.25,1-1.46,1.79-.55,1.63,2.1.76,3.96,1.19,5.62,1.41,1.67.18,3.12.2,4.42.04,2.61-.33,4.57-1.13,6.42-1.93.92-.39,1.8-.76,2.72-1.05.92-.31,1.87-.53,2.92-.6,1.04-.06,2.19-.01,3.52.25,1.32.27,2.82.73,4.59,1.43,2.7,2.17,2.66,4,1.99,5.7-.66,1.7-1.91,3.19-1.36,4.61-4.06.33-7.07-.62-9.67-1.75-1.3-.58-2.51-1.17-3.72-1.68-1.2-.53-2.41-.95-3.73-1.15,2.05.96,4.12,1.95,6.23,2.83-2.69.93-8.18.87-10.81-.81,2.13,2.19,9.89,3.94,18.89,4.93,9,1.08,19.18,1.5,26.37,3.17,2.59-1.22,6.99-2.5,4.92-4.03l-4.54.48c-4.1-3.08,8.54-4.1,2.85-5.58,6.05-2.07,12.81-5.45,21.41-3.76l1.62,4.29c-.19-1.25-5.61-2.54-8.02-1.23,3.57-1.91,13.17,5.78,17.07.15l-6.02-2.96c6.11-2.17,13.66-6.75,21.27-5.41-3.47-4.23-1.75.49-7.17-4.46,4.7,6.16-19.45-.21-11.91,6.26-5.55-5.74-9.62-2.41-16.84-7.31.23,1.41,2.53,2.71-3.77,2.01-.28.41-.96.94-1.38,1.25-.19-.04-.26-.06-.42-.11.13.05.22.12.35.17-.27.21-.3.26.13.06,1.5.62,2.71,1.36,3.21,2.15-3.16,3.27-13.13,3.11-16.49,4.68-3.67-.76,1.58-1.59-.39-3.14l-5.04,2.36c-.41-3.16-9.32-5.65-.81-7.11-2.53-.15-5.02-.34-7.51-.55-4.28-2.05-9.98-3.36-13.69-2.56-.81-.29-1.77-.3-2.71-.18-.94.11-1.84.32-2.56.53-1.43.41-2.05.73-.39-.23-1.9.03-3.75-.08-5.65-.12-1.85-.13-3.75-.18-5.59-.39l.11-.79c-10.13-3.08-23.85-2.86-34.92-13.65-4.25-.9-8.67-1.72-15.33-5.18-.13-1.02-.29-2.04-.44-3.06-2.88-.57-6.88-2.65-10.76-4.28-3.85-1.64-7.64-2.74-9.29-1.66-2.5-4.3-10.55-6.48-20.02-6.3-4.7.09-9.65.69-14.18,1.65-4.53.95-8.62,2.04-11.86,2.76l.61,3.53c-2.1.56-4.09,1.43-6.08,2.3-1,.42-1.94.99-2.91,1.51-.95.55-1.94,1.07-2.86,1.7-3.76,2.46-7.35,5.5-10.9,9.14l2.42,2.11c-2.49,3.58-6.71,6.57-11.2,10.19-4.48,3.59-9.2,7.74-12.54,12.68-.53-1.35,1.57-3.65,3.47-4.94-3.61,1.81-6.28,4.52-8.27,7.57-2.03,3.06-3.38,6.44-4.64,9.79-2.46,6.66-4.44,13.17-9.76,16.51-.62,2.99-2.09,4.48-3.85,5.59.14-.21.23-.43.26-.65-.19.21-.44.55-.68.9-1.14.69-2.37,1.32-3.56,2.07,1.28-.45,2.43-.94,3.22-1.57-1.17,1.78-2.73,4.52-4,7.41-1.15-.36-2.29-.75-3.43-1.14-.12.21-.24.35-.36.58-1.39.71-1.45,1.4-.81,1.98.64.59,2,1.08,3.48,1.28-.54,1.55-.98,2.97-1.1,4.35-1.4-.45-2.36-.31-3.09.21-.73.51-1.25,1.39-1.83,2.2-1.12,1.7-2.53,3.36-5.5,2.09.09.82-.46,1.86-1.31,3.08-.44.57-.97,1.16-1.52,1.8-.54.66-1.17,1.25-1.8,1.87-.62.63-1.23,1.28-1.8,1.96-.28.34-.55.69-.81,1.03-.27.32-.53.64-.76.97-.92,1.32-1.47,2.77-1.24,4.31-.41-.66-1.35-.63.09-1.36l-1.22.3c-.4.11-.81.21-1.23.27-.83.16-1.63.34-2.39.6-.76.26-1.49.58-2.18,1-.71.36-1.38.82-2,1.43-.85-1.25-1.67-2.5-2.47-3.77-.44.62-.89,1.25-1.36,1.87l-1.48,1.75c-1.01,1.17-2.06,2.37-3.16,3.55-5.07-2-6.8-3.3-2.96-7.11-1.19.79-2.24,1.43-3.16,1.97-.94.48-1.76.84-2.47,1.13-1.44.58-2.47.92-3.47,1.18-1.01.25-1.97.49-3.28,1-.65.25-1.39.57-2.28.99-.89.37-1.93.84-3.17,1.42l.56-2.75c-.85,0-1.85.21-2.89.5-1.05.29-2.16.58-3.23.83-2.13.5-4.11.71-5.05-.57-3.63-2.98-13.09-4.39-24.34-6.82-5.61-1.18-11.66-2.57-17.61-4.21-5.92-1.64-11.63-3.53-16.52-5.84,2.26,8.84-8.8-5.65-10.96.35-.79-2.14-3.43-3.83.26-4.75-10.92-.43-15.15-6.42-23.54-2.79-.79-2.16,2.85-2.28,2.02-3.63-.93.22-3.7.91-4.55-.45-.83-1.36,1.88-1.25,3.73-1.71-10.81-2.02-13.16,3.56-15.13,8.84-4.88-3.76-7.68-3.99-12.39-1.27-1.51-2.2-4.26-4.75,2.55-3.94-3.7-1.08-22.37-7.6-23.7-3.31-.94-1.36-5.18-1.46-6.28-1.17-8.37-2.09-9.02-2.65-17.39-4.03l2.14,1.21c-4.41,4.56-7.13-.32-13.94-1.13l.31-.5c-14.47-7.13-7,.39-21.14-7.23l.11,3.46c-2.94,6.75-12.46-7.07-21.81-6.27l2.75,2.56c-5.31,1.38-11.28-12.5-15.89-14.43-.91-.84,1.87-.63,3.43-.76-11.67-6.89-2.56,3.94-12.15,2.91-1.23-2.69,3.51-5.41-2.71-7.21-2.73-2.56-19.93,3.55-27.57-2.76,1.51,2.2,3,4.39-1.64,4.79-6.81-.81-16.57-10.67-23.82-6.35-.74-.67-.96-1.21-.9-1.66-5.42.35-17.1-1.19-20.83,1.2-2.25-12.36-32.9-1.38-30.51-11.8l-15.81-2.85.64-.98c-9.88-2.87-13.96-1.14-18.03.61-2.16-1.22-.26-1.82.05-2.33-14.19-5.29-15.74-5.16-29.16-2.62l-.54-3.67c-3.76,1.25-20.02-9.92-35.25-9.09.22-.35.66-.95,1.91-1.18-17.03.47-36.66-17.81-45.26-6.75l-11.33.73c13.59,3.96-3.22,4.91,2.01,8.2-5.58-.45-13.22-6.77-6.42-5.96l.91.84c3.85-5.9-16.65-6.01-15.33-10.31-27.24-5.57-52.89-14.92-78.36-20.68l1.87,5.64-8.84-2.19c-2.09-1.66-2.31-4.59,4.01-3.03-2.74-3.55-11.16.11-11.57,1.17-12.04-4.63,6.1-4.83,2.3-5.74l-5.27-.71,1.05.83c-4.64,1.17-5.46,3.25-13.06,1.43-4.64-1.99-1.85-3.6-3.72-4.19.08-.35-.53-.65-2.9-.74l-11.2-2.69,3.73,4.86c-5.39.96-10.56-2.31-6.25,3.21-3.13-4.22-13.54-6.9-23.73-8.79-10.19-1.9-20.14-3.02-22.32-4.48-7.54,1.7-14.49.55-23.09-1.13,2.03,1.15,2.62,5.83-4.73,4.19,2.05-4.44-1.22-5.95-5.65-7.29-4.44-1.3-10.02-2.41-12.63-6.17,4.87,5.09-21.56-1.5-13.76,5.83-6.18-1.44.02-3.53-4.51-6.24-7.69.96-15.88-.42-24.55-2.03-8.67-1.6-17.83-3.42-27.24-3.22-.34,1.22,2.69,3.23-1.39,4.89-3.19-2.18-6.39-4.43-9.65-6.53-3.75.51-3.59,7.02-10.25,2.58.94,1.06,2.33,2.66-.15,2.99-18.26-3.27-37.14-1.55-55.87.53-18.8,2.08-37.38,4.47-57.03,2.59,5.49,1.38,2.17,2.25-1.63,3.07,2.6.08.54,2.99,1.36,4.53-2.71-.3-5.41-.44-8.14-.64l-8.2-.54c-.86,2.61-4.92,3.71-8.84,4.76-.98.26-1.95.52-2.86.8-.91.29-1.74.62-2.47.98-1.45.72-2.43,1.58-2.52,2.76l4.55-2.13c-2.48,3.45.52,5.54,4.17,7.8,3.66,2.26,7.94,4.55,8.29,7.92,1.36-1.86,3.3-2.6,5.61-2.7,2.31-.09,4.96.37,7.7.72,1.37.18,2.77.33,4.17.37,1.41.07,2.82.05,4.21-.17,2.78-.44,5.47-1.65,7.95-4.28,1.38.47.94,1.09.35,1.75-.58.67-1.3,1.42-.5,2.05,2.37-3.33,5.81-4.48,12.49-4.27l-.63.82c4.53-.83,8.46-1.29,12.11-1.6,3.66-.25,7.05-.23,10.5-.19,3.45,0,7,.31,10.95.47,3.95.14,8.35.45,13.52.61l-1.71-3.22c4.47.16,5.46,1.16,7.58,1.92,2.45-2.6-.68-2.59-3.88-2.55-3.19.06-6.45.05-4.28-2.86,3.16,3.14,11,2.84,18.64,2.75,3.82.01,7.58.05,10.63.57,3.05.54,5.4,1.6,6.39,3.51,6.84.08-1.99-3.85,4.87-3.77l1.79,2.08,1.78-2.64c4.51.56,6.71,3.21,6.82,4.97-1.08-.24-3.1.41-4.27.54,2.88,1.31,6.96,1.15,10.59.91,3.63-.26,6.8-.74,7.78-.3l-6.52-1.57c4.69-.28,9.64-.29,14.7-.02,2.53.12,5.09.25,7.66.42,2.57.19,5.16.38,7.74.57,5.16.32,10.31.76,15.32.84,5.02.13,9.9.07,14.56-.5l-1.2-1.71c14.22-1.21,10.89,3,26.26,3.74l-.6.29c3.26-1.12,7.44-1.28,11.57-.5-4.1,1.23,6.68,4.61,1.35,5.85,15.44-.69,7.76-1.29,18.61-5.37l1.86,2.94c3.77-1.74,4.26-2.95,11.98-2.26-6.61,1.09,4.15,4.75-3.32,6.42,7.44,4.18,13.56,3.85,18.59,3.67,5.02-.21,8.91-.22,11.76,4.55,8.65-5.65-12.98-6.56-8.61-7.28-2.99-2.96,7.03-4.13,11.89-2.45,5.06,1.15,6.86,10.69,19.61,13.14-1.26-.29-1.45.22-2.71-.06,4.39,2.77,9.83-.53,15.07,3.61,4.16-3.57,7.53,1.82,9.62-3.39l-11.95-1.19c6.91-.04,14.48-5.08,24.75.33-1.09.91-4.64,1.66-7.04,1.99,2.85,2.27,6.37.25,9.33,2.6-2.1,5.22-14.46-1.86-22.42.8,2.94,2.99,14.24-1.09,9.44,4.02,6.71-6.39,12.33,3.61,22.19-.23l-1.27,3.12c1.48-.22,4.64-1.14,7.13-.51l-5.46,3.22c7.76-2.08,12.79,6.06,19.92,5.56-14.07-2.95-2.3-4.6-7.73-8.25,18.27-.58,8.12,10.66,27.85,13.31-2.73-.11-9.44-4.09-5-4.7,3.55,1.47,8.15,3.78,10.05,5.97,13,2.12-1.25-3.77,4.66-4.57,3.52,4.91,6.66-.24,12.57-.28l-.68,3.31c14.19,5.3,5.38-6.03,18.01-.61l-6.57,3.37,7.13.31-2.23,3.45c8.08-1.16,10.25.07,17.35,2.71-1.2-2.69,2.26-5.78,8.77-4.47,4,2.92-3.16,2.6,6.14,4.12-2.52,1.61-5.36,3.71-8.7-.2-.64.99-2.5,1.63-3.15,2.6,4.28,3.29,11.86,3.11,15.2,3.81-1.26-.4-2.75-.91-3.43-1.55l14.32-1.68c1.83,1.7-.05,2.33-1.91,2.95,2.78.23,4.98-.88,9.01-.3-1.61,2.46-1.97,5.28-7.86,5.32l13.35-.22c.6,1.35,5.82,4.62,3.96,5.25,6.7,3.11,18.4-1.45,27.28,2.66.6-.42,1.68-.7,3.75-.65,8.64,2.51,15.7,7.49,26.9,6.07l4.85,6.09c8.38.68-6.67-7.79,7.28-6.66,9.93.55,2.69,4.88,5.77,6.95,5.3-1.39,14.67-4.52,22.64,1.31-3.12.27-5.25-.94-8.06-1.17ZM728.67,138.07c-2.1.27-6.44,1.56-7.44-.69,3.04-3.3,4.36-1.12,7.44.69ZM883.07,163.3c-1.68.78-3.8-.25-6.06-2.05,1.89.13,3.94.7,6.06,2.05ZM1269.29,86.18c-.08.05-.14.08-.21.14-3.95-1.71-2.55-1.05.21-.14ZM1277.8,88.29c.9-.42.87-.89.52-1.38-.65.81-2.62.78-4.8.36.54.94,1.63,1.63,4.28,1.02ZM353.49,27.36l1.59,1.23c-4.18.14-2.89-.49-1.59-1.23Z"/>
      <path class="cls-1" d="M864.78,164.05c-.43-.68-.45-1.32-.44-1.97-.89.39-1.04,1.03.44,1.97Z"/>
      <path class="cls-1" d="M564.93,106.54c-.1-.05-.2-.06-.3-.1-.21.16-.34.34-.44.53l.73-.43Z"/>
      <path class="cls-1" d="M1142.28,84.74c-1.49-.12-2.45-.54-3.16-1,.15.8,1,1.32,3.16,1Z"/>
      <path class="cls-1" d="M1325.76,83.1l-5.91.89c2.86-.17,3.88.56,5.32,1.09-.13-.79-1.26-1.93.58-1.99Z"/>
      <path class="cls-1" d="M1377.1,103.86c.86-.42,1.83-.05,2.68-.47l-.24-1.57c-3.68.11-6.25,1.38-2.44,2.04Z"/>
      <path class="cls-1" d="M1331.26,94.31c.48,2.84,4.18,1.87,8.32,1.33-.25.01-.48.04-.73,0,1.21-3.98-3.2-2.65-7.59-1.33Z"/>
      <path class="cls-1" d="M1340.53,95.54c1.28-.14,2.58-.21,3.83-.08.48-1.59-1.55-.33-3.83.08Z"/>
      <path class="cls-1" d="M1289.03,86.85c1.88.77,1.26-3.61,2.3-2.43,1.08-1.79-2.07-.75-4.2.5-2.13,1.24-3.28,2.74,1.9,1.93Z"/>
      <polygon class="cls-1" points="1334.63 103.66 1333.14 100.15 1330.83 102.99 1334.63 103.66"/>
      <path class="cls-1" d="M1301.95,101.15l6.61.97c-.1-.59.74-.93,1.77-1.2-4.08-.1-8.53-.81-8.37.23Z"/>
      <path class="cls-1" d="M1310.33,100.92c2.12.06,4.14-.02,5.32-.59-1.15.04-3.62.16-5.32.59Z"/>
      <polygon class="cls-1" points="1325.59 104.73 1323.64 104.01 1318.96 103.76 1325.59 104.73"/>
      <path class="cls-1" d="M1232.77,91.94c-2.34-.44-4.69-.93-7.04-1.45-1.11.86.47,2.26,3.15,2.71,1.9-.2,4.55.19,3.89-1.26Z"/>
      <path class="cls-1" d="M1251.75,106.67c-1.87-1.06-1.85-1.86-2.74-3.22l-1.07,4.22c1.28-.3,2.55-.64,3.81-.99Z"/>
      <path class="cls-1" d="M1230.15,102.26c-.55.47-3.42.4-5.01.55-1.6.15-1.93.57,2.67,2.04,1.14-.86,8.65.5,2.34-2.58Z"/>
      <path class="cls-1" d="M1129.49,76.44c.52-.28,1.08-.48,1.62-.72l-2.93-6.51c.37,2.44.79,4.81,1.31,7.23Z"/>
      <path class="cls-1" d="M1082.11,158.68c3.69-3.28,3.15-4.42,2.58-5.4-.58-.99-1.15-1.84,2.17-4.62-.08-1.37-1.37-.23-2.73.9-1.34,1.14-2.65,2.27-2.57.94-1.95,5.54-4.82,7.3.56,8.18Z"/>
      <path class="cls-1" d="M1081.56,150.5c.31-.89.59-1.85.81-2.92-.59,1.55-.77,2.37-.81,2.92Z"/>
      <path class="cls-1" d="M13.78,14.16c-1.98-.03-3.95.02-5.92.07,1.4.43,2.8.85,4.19,1.31l1.73-1.38Z"/>
      <path class="cls-1" d="M4.67,22.19l-2.56-3.99-2.11,4.88c1.17-.55,3.45-1.61,4.67-.89Z"/>
      <path class="cls-1" d="M741.65,150.26l.64-.98c-.58-1.34-1.82-1.7-4.3-2.42l3.66,3.4Z"/>
      <polygon class="cls-1" points="669.48 131.1 670.71 131.46 669.24 126.94 669.48 131.1"/>
      <path class="cls-1" d="M607.19,122.93c2.46.71,5.59.45,8.06,1.17-5.6-.46-7.65-6.32-8.06-1.17Z"/>
    </g>
  </g>
</svg>