<?xml version="1.0" encoding="UTF-8"?>
<svg id="Capa_2" data-name="Capa 2" xmlns="http://www.w3.org/2000/svg" viewBox="0 0 1532.4 118.88">
  <defs>
    <style>
      .cls-1 {
        fill: #e3f35e;
      }
    </style>
  </defs>
  <g id="Capa_1-2" data-name="Capa 1">
    <g>
      <path class="cls-1" d="M1531.09,8.13c2.41.03.72-4.78.92-5.73-3.72,1.77-.6,7-.92,5.73Z"/>
      <polygon class="cls-1" points="1494.49 25.87 1494.84 23.73 1489.98 29.62 1494.49 25.87"/>
      <path class="cls-1" d="M1458.58,31.3c2.3,4.01,5.52,3.2,8.99,1.62,3.48-1.58,7.22-3.86,10.65-2.86l1.36,1.76,1.82-7.27c-3.8,1.17-8.04,3.24-12.07,4.83-4.03,1.6-7.85,2.73-10.75,1.92Z"/>
      <path class="cls-1" d="M1437.15,15.5c1.58,3.16-3.7,3.37,4.51.48-.47-.31-.62-.5-.9-.74-.75.14-1.8.27-3.61.26Z"/>
      <path class="cls-1" d="M1440.76,15.24c3.68-.71-2.79-2.47,0,0h0Z"/>
      <path class="cls-1" d="M1423.87,19.22l4.53-3.51c-1.25-1.84-5.62-1.79-4.17-3.4-4.78,2.18-3.56,4.01-.35,6.9Z"/>
      <path class="cls-1" d="M1419.92,25.96l2.41-1.54c-.54-.77-1.24-.98-2.41,1.54Z"/>
      <path class="cls-1" d="M1427.4,21.17l-5.08,3.25c.86,1.29,1.25,4.04,2.37-1.23-.16,2.57.64.03,2.71-2.02Z"/>
      <path class="cls-1" d="M1430.6,22.12c2.97,1.51,6.7,2.21,2.11,5.79,9.3-2.38,7.12-8.16-2.11-5.79Z"/>
      <path class="cls-1" d="M1457.99,40.33l4.11,1.96,2.83-3.32c-1.42,1.67-7.56-1.27-6.95,1.36Z"/>
      <path class="cls-1" d="M1393.24,17.7c-.16,1.84,2,4.72,2.55,7.01l3.42-2.37c-1.95-1.1-5.52-1.97-5.97-4.64Z"/>
      <path class="cls-1" d="M1395.79,24.71l-5.15,3.55c4.85-.01,5.62-1.57,5.15-3.55Z"/>
      <polygon class="cls-1" points="1420.06 35.52 1428.3 27.97 1418.33 35.8 1420.06 35.52"/>
      <path class="cls-1" d="M1372.96,18.76l2.79-4.37c-1.67,2.24-3.34,4.43-5.03,6.61l2.24-2.24Z"/>
      <path class="cls-1" d="M1359.62,19.98c2.11-3.53-3.14-5.87-.88-8.05-3.54.66-6.55,3.7-9.31,6.43,2.94-1.54,6.05-1.19,10.19,1.62Z"/>
      <path class="cls-1" d="M1344.77,22.32c1.47-.79,3.01-2.35,4.66-3.96-1.56.81-3.1,2.04-4.66,3.96Z"/>
      <path class="cls-1" d="M1381.4,27.94c-.48-1.08-1.45-3.91-4.5-4.95l2.38,4.99c.65-.01,1.38-.03,2.12-.05Z"/>
      <path class="cls-1" d="M1379.37,28.15l-.08-.16c-2.3.02-3.9,0-4.58-.02.59.01,1.99.06,4.67.18Z"/>
      <path class="cls-1" d="M1381.94,27.93c-.2,0-.34,0-.53,0,.23.49.37.65.53,0Z"/>
      <path class="cls-1" d="M1405.28,32.32c-2.92,3.18-9.41,6.72-2.52,10.58,2.01-3.7-1.92-5.83,2.52-10.58Z"/>
      <path class="cls-1" d="M1384.97,34.18c1.95.27,3.9.57,5.85.79-.21-1.34-1.39-3.23.09-4.77-1.97,1.37-3.95,2.67-5.94,3.98Z"/>
      <polygon class="cls-1" points="1382.24 35.97 1384.97 34.18 1382.81 33.87 1382.24 35.97"/>
      <path class="cls-1" d="M1354.43,27.03c-2.41,2.26-5.1,2.48-8.13,2.88,3.25.97,6.63,1.47,9.83,1.42.43-1.62,1.76-4.52-1.7-4.3Z"/>
      <path class="cls-1" d="M1366.53,28.15c-.17.12-.38.19-.54.31.35.42.63.55.54-.31Z"/>
      <path class="cls-1" d="M1316.66,28.99c.15.29.27.65.42.97.05-.3.1-.58.16-.88l-.58-.09Z"/>
      <path class="cls-1" d="M1356.7,32.28c2.47.97,3.92-.31,5.27-1.96-1.82.61-3.75.94-5.84,1.01-.19.73-.22,1.21.56.95Z"/>
      <path class="cls-1" d="M1336.55,24.6c1.23,1.09,2.65,2.02,4.14,2.88-1.22-1.64-3.67-4.21-4.14-2.88Z"/>
      <path class="cls-1" d="M1365.12,27.08c.12-.09.23-.18.36-.24-.84-1.07-.72-.54-.36.24Z"/>
      <path class="cls-1" d="M1365.12,27.08c-1.23.78-2.18,2.09-3.15,3.25,1.48-.46,2.85-1.06,4.02-1.86-.32-.35-.64-.89-.87-1.39Z"/>
      <path class="cls-1" d="M1305.11,61.15c.42-2.35,2.4-4.5,4.93-5.37,1.27-.44,2.67-.55,4.11-.22,1.43.35,2.9,1.12,4.29,2.44,5.92-3.33,2.79-19.07-1.37-28.04-.3,2.06-.38,3.97-6.2,6.36.89,1.37,3.92,3.11,6.13,5.01,2.21,1.84,3.6,3.83,1.05,5.88-7.79,1.96-6.16-2.12-9.64-4.87,1.34,3.07-1.22,5.04-4.07,7.34-2.84,2.34-5.95,4.82-5.51,9.26,2.38-.76,4.75-1.64,7.11-2.49.03,1.36-2.64,3.33-.83,4.7Z"/>
      <path class="cls-1" d="M1327.67,30.92l2.32-.49c-2.58-.94-4.4-2.92-7.62-6.77-3.88,2.17-4.78,3.88-5.13,5.43,3.74.42,7.49.77,11.25,1.16l-.81.68Z"/>
      <path class="cls-1" d="M1340.33,30.6c-1.84,5.15-7.54,7.27-4.19,12.91,6.94-.26,4.91-4.25,9.01-6.44-11.04,1.12,3.17-2.84-4.74-5.88,2.16-.85,4.08-1.08,5.9-1.29-1.96-.64-3.85-1.46-5.61-2.43.1.12.17.21.25.33l.05-.02s0,.06-.01.08c.46.65.61,1.05.09.66-.04.06-.17.09-.23.1-.08.72-.29,1.34-.51,1.94-3.14-1.11-.48-1.35.51-1.94.04-.25.13-.5.14-.77-.01-.03-.02-.05-.04-.07-3.63.87-7.3,1.84-10.95,2.62,2.27.86,5.2.68,10.34.18Z"/>
      <path class="cls-1" d="M1397.61,54.46c-.39-.43-.4-.8-.46-1.17-.69.69-.94,1.14.46,1.17Z"/>
      <path class="cls-1" d="M1392.67,51.72c.78-.78,1.31-2.9,4.04-2.58,2.46,1.36.18,2.47.44,4.16,1.53-1.5,5.38-4.14.1-6.25l-.75.76c-2.36-.71-5.11-2.55-7.17-4.32-2.06-1.81-3.42-3.52-3.05-3.9,1.62,4.56,3.01,7.83,6.39,12.13Z"/>
      <path class="cls-1" d="M1365.7,43.04l-4.65,1.44c-1.55.47-3.1.89-4.66,1.34,1.62,1.46,3.25,2.96,4.9,4.4l-.31-2.68c5.39.86,4.13-2.41,4.73-4.5Z"/>
      <path class="cls-1" d="M1315.79,26.35l1.51-5.36c-1.85,2.44-3.74,4.88-5.65,7.32l4.14-1.95Z"/>
      <path class="cls-1" d="M1304.11,26.16l.85-4.7c-1.1.87-2.21,1.7-3.32,2.55l2.48,2.15Z"/>
      <path class="cls-1" d="M645.39,89.41l-3.39.38c1.54.03,2.58-.12,3.39-.38Z"/>
      <path class="cls-1" d="M666.92,95.68l1.07-2.16c-1.29,1.04-1.93,1.87-1.07,2.16Z"/>
      <path class="cls-1" d="M1003.2,42.32c-1.21-2.34-2.21-5.32-2.9-7.06-.69-1.74-1.18-2.21-1.52.44-.07,1.76-.1,3.5-.11,5.26,2.01-.59,3.36.12,4.53,1.36Z"/>
      <path class="cls-1" d="M840.06,78.95c.43.49.88.99,1.32,1.5.88-1.83,1.68-3.57,2.37-5.19-1.08,1.19-2.34,2.41-3.69,3.69Z"/>
      <path class="cls-1" d="M838.25,100.64c-2.03-1.03-4.06-2.04-5.99-3.12,1.31,1.15,3.25,2.18,5.99,3.12Z"/>
      <path class="cls-1" d="M544.92,58.51c-.98,1.67-1.94,3.26-2.8,4.99,3.31.39,2.22-2.43,2.8-4.99Z"/>
      <path class="cls-1" d="M1176.05,12.78c-1.87-1.1-3.57-1.9-5.13-2.46-1.57-.57-3-.92-4.38-1.03,4.65,3.07,8.08,7.79,9.51,3.5Z"/>
      <path class="cls-1" d="M668.82,38.78c-1.75.45-2.69,1.28-2.97,2.4,1.8-.38,2.94-1.08,2.97-2.4Z"/>
      <path class="cls-1" d="M1155.22,9.24c.7.52,1.38.79,2.08,1.23,2.85-.86,5.75-1.55,9.25-1.19-3.43-2.25-7.52-3.65-11.33-.05Z"/>
      <path class="cls-1" d="M145.72,71.3c-.21-.3-.51-.49-.68-.82-.26.66.11.79.68.82Z"/>
      <path class="cls-1" d="M34.35,13.13c1.16-.42,3.1-.57,4.92-.78-.92-.29-2.42-.14-4.92.78Z"/>
      <path class="cls-1" d="M1256.42,17.84c2.66.05.5-.51,0,0h0Z"/>
      <path class="cls-1" d="M1266.09,40.05c-.63.5-1.16,1.18-1.39,2.36.39-1.21.86-1.95,1.39-2.36Z"/>
      <path class="cls-1" d="M1129.49,43.41c-.08,0-.14,0-.23.01.9.9.74.73.23-.01Z"/>
      <path class="cls-1" d="M1259.97,20.75c-.88-.77-1.91-1.46-3.08-2.01.49.48,1.41,1.12,3.08,2.01Z"/>
      <path class="cls-1" d="M1259.8,18.24c.85.36,1.53.59,2.18.82.45-.81.24-1.39-2.18-.82Z"/>
      <path class="cls-1" d="M1252.74,17.58c1.51.14,2.87.59,4.15,1.16-.46-.42-.63-.75-.47-.9-.78-.03-1.88-.09-3.68-.26Z"/>
      <path class="cls-1" d="M361.85,51.07c-.14-.19-.32-.32-.47-.57-2.84,1.79-1.69,1.59.47.57Z"/>
      <path class="cls-1" d="M922.7,46.26c.11.14.28.19.41.32-.03-.19-.05-.44-.05-.6l-.36.28Z"/>
      <path class="cls-1" d="M916.17,39.93c.39-.11.76-.21,1.11-.29.35-.06.69-.08,1.01-.1.62-.07,1.19.03,1.66.12.47.08.89.3,1.22.48.34.2.62.48.83.74.89,1.16.88,2.8,1.07,5.11,4.08-3.28,8.39-6.09,12.72-8.82-6.77.18-13.55.46-19.61,2.76Z"/>
      <path class="cls-1" d="M596.39,71.63l4.2,6.97c-2.62.94-4.85,1.35-6.68,1.57-1.81.22-3.17.28-4.15.46-1.94.37-2.23,1.32-.8,5.54.93-1.82,1.99-3.05,3.16-3.84,1.18-.78,2.49-1.11,3.87-1.14,1.38-.03,2.82.23,4.33.65,1.53.43,3.11,1.01,4.68,1.58,1.55.57,3.21,1.16,4.78,1.6,1.59.43,3.08.72,4.58.69,2.96-.04,5.51-1.31,7.27-4.99,1,1.66,2.11,3.3,3.21,4.96-1.24-.65-1.8.16-3.03-.5,1.49,2.68,2.95,3.5,4.41,3.32,1.46-.17,2.96-1.38,4.59-2.74,3.27-2.7,6.95-5.98,12.22-2.91,3.56,2.44,5.71,5.53,2.38,6.55,3.41-.37,6.78-.75,10.12-1.17,2.52.97,1.15,3.56-1.39,2.55,4.71.79,9.41,1.6,14.09,2.27l-.21.44c2.57-2.05,7.82-4.95,10.28-6.13,2.96,3.04-2.08,1.32-1.62,3.5,1.39-.37,2.78-.73,4.16-1.13l4.12-1.25c1.13,2.35-.02,4.26-2.15,5.37-1.06.55-2.36.93-3.71,1.03-1.36.08-2.77-.08-4.06-.52.93,4.37,1.9,6.4,2.98,7.17,1.08.74,2.3.22,3.8-.45,1.5-.68,3.29-1.51,5.56-1.43,1.14.04,2.39.32,3.81.97,1.41.6,2.98,1.57,4.74,3.03-2.54.3-5.08.67-7.65.87,1.6,5.02,4.02,6.82,6.97,8.33,2.96,1.49,6.44,2.67,10.3,6-.41-.81-1.55-2.24-2.88-3.98-1.33-1.74-2.86-3.86-4.02-5.93-2.34-4.15-3.23-8.23,1.2-9.61,1.08.78,2.37,1.44,4.01,1.56,1.63.09,3.61-.35,6.03-1.71-.33,2.88.64,4.1,2.39,4.64,1.75.55,4.27.41,7,.48l-1.14,7.6c6.2-1.64,6.08-5.58,9.83-8.69,6.45,1.24,7.39,7.25,8.63,12.37,5.29.98,3.58-1.53,2.18-4.35-1.42-2.84-2.51-5.92,3.7-6.28,4.23,1.68,7.95,1.86,11.87,1.01,3.91-.87,8.07-2.61,13.21-4.81,5.9,2.76-1.15,4.67.94,6.91l5.42-6.02c1.29.17.84,2.04.61,2.99,4.49-2.29.5-7.64,7.45-9.66.97-4.23,4.48-1.09,8.86,1.87,4.36,2.94,9.62,5.76,13.84.92,2.11,2.17-.99,4.71-.33,7.68,11.66-6.37,9.98-4.65,19.43-13.22,2.76,1.64,5.6,3.29,8.52,4.88-3.24-2.79-2.83-5.95-.86-9.13,1.96-3.18,5.51-6.4,8.66-9.43-2.3-2.62-4.18-5-5.41-6.1,1.7-.76,3.39-1.52,5.04-2.33,1.66-.78,3.28-1.62,4.86-2.46,1.32,1.14.63,3.85-.8,7.21.65-.7,1.26-1.38,1.72-2.01,1.99,1.25,2.66,2.94,2.53,4.99-.13,2.04-1.08,4.33-2.3,6.59-1.5-1.38-2.95-2.85-4.33-4.39-2.31,4.85-4.68,10.13-3.88,14.58.69-.91,2.08-1.75,3.63-2.29-.65,1.31-1.07,2.47-.67,3.21.44.78,1.56-.99,3.28-3.08,1.11,2.76,2.26,5.52,3.46,8.27l.34-3.45c5.43,1.23,11.12,2.3,17.36,2.69,5.31-5.63,9.5-12.5,13.41-19.44.93-1.69,1.89-3.44,2.9-5.26.46-.87.93-1.76,1.42-2.66.47-.88.97-1.7,1.41-2.62.88-1.82,1.91-3.44,2.79-5.27.46-.89.95-1.76,1.47-2.61.46-.92.93-1.83,1.44-2.72.98,3.59,2.56,5.65,4.72,7.3,2.14,1.67,4.85,2.93,7.48,5.56-1.23-.11-2.27,0-3.19.33-.96.27-1.79.74-2.56,1.38-.77.63-1.45,1.43-2.14,2.34-.72.86-1.44,1.83-2.17,2.88-1.43,2.15-3.21,4.3-5.26,6.36-1.03.98-2.17,1.82-3.34,2.57-.59.37-1.21.71-1.84,1.01-.63.27-1.28.47-1.95.64.7-.18,1.31-.27,1.86-.31.55-.05,1.02-.06,1.43,0,.82.12,1.38.47,1.73.93.71.92.58,2.32.12,3.24,1.35-1.33,2.7-2.65,4.01-4.02,1.31-1.46,2.56-2.92,3.76-4.37,2.32-3.03,4.43-6.06,6.11-9.29,1.78,2.29,3.33,2.48,5.15,1.76,1.73-.8,3.62-2.51,6.25-3.95.25-.14.51-.29.77-.44-3.02-1.02-4.23-2.72-4.46-4.65-.1-.97.02-2.02.3-3.14.14-.56.33-1.12.53-1.71.2-.59.47-1.26.7-1.83,1.85-4.66,4.34-9.46,4.03-12.88,1.87.77,3.59,1.89,4.27,3.67.34.88.43,1.91.11,3.19-.14.62-.41,1.33-.8,2.1-.37.75-.89,1.6-1.56,2.52.79-.26,1.47-.56,2.04-.9.55-.32.99-.67,1.33-1.05.71-.78.97-1.59,1.01-2.5.05-1.78-.96-3.78-2.04-5.73-.53-.99-1.09-1.95-1.54-2.87-.44-.93-.78-1.83-.89-2.61-.11-.81,0-1.53.46-2.08.45-.58,1.25-.98,2.47-1.15-.63,1.24-1.58,1.69-.06,3.18-.73-2.43.6-5.02,2.27-6.07.42-.25.85-.45,1.28-.56.38,0,.73.08,1.08.22.69.28,1.31.83,1.86,1.54-.04.07-.08.14-.12.21l-.07.1s-.05.06-.1.15c.09-.09.13-.09.19-.12l.15-.07c.1-.05.19-.11.27-.17.25-.11.44-.27.68-.43.27-.14.47-.35.76-.51.14-.08.26-.19.39-.29.14-.08.28-.16.41-.26.13-.11.26-.19.39-.27.13-.08.25-.19.37-.28.23-.11.47-.37.63-.48.08-.06.19-.2.24-.25.06-.06.11-.13.17-.23.07-.12.05-.12.08-.22l.03-.14s.01-.06,0-.07v-.02s-.02-.17-.02-.17c-.04-.47-.04-.96,0-1.46,0-.42,0-.76.06-1.16.03-.19.06-.39.1-.59l.05-.38c.04-.25.11-.51.21-.78.04-.15.06-.23.11-.36.04-.1.16-.33.11-.24-.01.02-.02.02-.01.01v-.02s-.11.18-.11.18c-.08.11-.15.2-.22.27l-.1.1s-.04.04-.03.03l.09-.09c.31-.31.7-.61,1.13-.86.87-.54,1.94-1.02,3.04-1.66-.52.4-3.18,1.98-5.69,3.92l-.24.18-.11.09.03-.02.12-.09.23-.19c.11-.09.23-.18.33-.26.21-.17.4-.35.54-.49-.17.17-.35.33-.53.48l-.65.53c-.27.21-.54.41-.81.6-.12.07-.32.23-.51.36l-.57.39-.14.09c-.05.03-.12.08-.05.03l.23-.15c.15-.1.31-.2.46-.27.32-.16.64-.31.97-.46.66-.3,1.37-.46,2.09-.65,2.91-.61,6.13-.32,9.38.22,3.25.55,6.57,1.38,9.85,1.9,3.31.5,6.52.69,9.69.54-2.1.7-4.7,2.09-7.48,3.83-2.79,1.73-5.75,3.81-8.7,5.65-2.96,1.83-5.91,3.4-8.84,3.81-2.93.41-5.89-.37-8.46-3.3.13,1.09.28,2.25.55,3.49.28,1.24.73,2.53,1.37,3.9.65,1.36,1.57,2.75,2.76,4.17,1.25,1.37,2.75,2.81,4.71,4.07-.18-.76.1-1.95.72-3.26.62-1.32,1.57-2.73,2.63-3.95,2.12-2.43,4.68-4.1,5.88-3.03-.42,1.61-.62,2.92-.8,4.08-.16,1.15-.26,2.12-.27,2.93-.04,1.62.08,2.72.31,3.83.25,1.09.58,2.21,1.05,3.98.5,1.73,1.1,4.12,2.19,7.74-.97-2.07,1.77-4.87,5.08-6.79,1.65-.95,3.45-1.73,5.05-2.09.8-.17,1.55-.23,2.23-.14.68.07,1.28.29,1.78.71-.92.61-2.79,3.44-4.72,6.13-1.93,2.69-3.95,5.23-5.32,5.13,6.91-.53,13.29-2.05,19.11-4.22-1.97.41-3.44,2.82-4.22,5.85-.77,3.02-.75,6.56.02,9.04-.09-.77.61-.78,1.76-.43,1.15.37,2.77,1.13,4.55,1.91,3.55,1.58,7.79,3.27,9.82,3.08-1.71-1.51-3.35-3.12-4.93-4.73,3.66,1.72,6.82,1.6,9.53.49,2.71-1.07,5-3.11,7.17-5.22,1.08-1.07,2.14-2.15,3.2-3.16,1.07-1.03,2.14-1.98,3.28-2.76,2.28-1.61,4.75-2.53,7.97-2.25-.82,1.36-2.05,5.61-2.23,9.75-.18,4.13.83,8.26,4.77,9.16,1.84-3.41,5.71-11.78,9.32-20.23,1.83-4.21,3.56-8.49,5.41-12.15,1.84-3.59,3.74-6.72,5.89-8.47.9,1.14,1.81,2.28,2.74,3.42,2.23-2.01,4.41-4.15,6.53-6.26-.49,2.81-1.37,6.49-2.62,10.56-1.26,4.01-2.88,8.54-4.87,12.86-1.96,4.41-4.3,8.65-6.74,12.46-2.5,3.79-5.3,7.02-7.7,9.29,3.06,1.38,3.61,2.46,4.47,3.13.44.33.96.53,1.95.56.49.02,1.11-.01,1.88-.09.77-.08,1.59-.23,2.66-.43,1.77,1.61.83,3.17-.94,4.41-.83.63-2.1,1.13-3.21,1.53-1.13.41-2.18.65-2.89.76,1.88.06,3.8.02,5.68,0l5.23-.18c1.77-.05,3.45-.19,5.17-.31,1.71-.13,3.45-.24,5.1-.43-1.3-3.87,2-6.62,5.03-9.33,1.52-1.36,3.05-2.66,4-4.04.94-1.39,1.35-2.82.72-4.39-5.53,4.45-11.44,8.85-18.08,12.85-1.14-3.91.94-10.04,4.36-15.46,3.49-5.39,8.25-10.15,14.23-11.2,1.93,1.08,2.45,4.68,2.57,8.33.13,3.66-.21,7.34.3,8.6.44-1.55,2.9-3.72,5.47-5.28,2.53-1.58,5.13-2.6,5.99-1.84l-3.65,5.74c7.65.7,7.19-13.69,17.17-9.03,2.77-.43,10.96,7.17,9.82,2.51-7.06-7.28-17.39-33.84-16.84-41.36.55.13,4.69,1.02,9.26,2.32,4.58,1.3,9.51,3.06,11.67,4.79,3.2,2.79,2.82,7.41,2.44,11.89-.38,4.48-.79,8.88,1.87,11.27-.53-2.14.87-5.42,1.56-6.55,1.56.5,1.79,2.22,2.28,3.47.5,1.25,1.26,2.05,3.83.8-1.28-8.23,11.3-2.24.76-7.4,2.43-1.81,3.99-1.86,5.73-1.5,1.74.32,3.62.87,6.78.03-1.53-2.38-1-7.08.8-11.68,1.8-4.52,4.94-8.71,7.87-10.33-.08,2.11,1.64,4.6,2.43,5.73,1.54-.16,3-.14,4.4-.08,1.4.05,2.72.14,4,.25s2.51.25,3.71.4c.6.08,1.19.15,1.78.23.59.11,1.17.22,1.75.32,2.33.43,4.61.83,7.02,1.11,1.2.15,2.44.22,3.73.33,1.29.12,2.64.19,4.06.21,1.07,1.99,6.42,4.41,4.07,7.92,1.61-1.44,3.15-4.23,6.64-4.25,6.39,7.36-7.71.76-2.89,9.48.28-2.37,2.52-3.91,5.36-5.2,2.84-1.29,6.26-2.37,8.84-3.62-.26-1.86-1.1-2.93-2.31-3.46-1.21-.52-2.77-.41-4.45-.03-3.36.82-7.18,2.79-9.65,4.28.05-2.53.63-5.09,1.7-7.57,1.07-2.45,2.62-4.8,4.59-6.97,1.97-2.17,4.35-4.15,7.06-5.84,2.71-1.69,5.7-2.95,8.91-3.9,5.07-.89,6,.85,5.88,2.62-.11,1.77-1.24,3.57-.33,2.94,4.53.9,7.87.36,10.59-.84,2.72-1.19,4.79-2.95,6.78-4.6,3.94-3.27,7.55-5.93,14.61-1.26,5.1,7.21-1.48,12.75-.78,17.54-4.05.69-6.89-.76-9.4-2.37-2.52-1.61-4.71-3.46-7.38-3.66l6.16,3.83c-2.76,1.83-8.12,2.8-10.74.63,1.08,1.56,3.5,2.68,6.72,3.52,3.22.84,7.26,1.47,11.56,2.19,4.31.69,8.89,1.43,13.21,2.47,4.32,1.03,8.37,2.34,11.62,4.18,2.76-1.78,7.31-3.37,5.69-6.23l-4.49.25c-3.25-5.74,9.24-5.91,4.08-9.13,3.2-1.37,6.61-3.26,10.2-4.28,1.79-.51,3.63-.81,5.5-.72,1.86.07,3.75.52,5.68,1.52l.55,7.5c.1-2.16-4.73-5.06-7.33-3.16,1.93-1.37,4.7,1.51,7.65,3.62,1.47,1.05,2.99,1.91,4.44,1.94,1.45,0,2.85-.81,4.07-3.09l-5.04-5.77c3.14-1.42,6.69-3.94,10.29-5.62,1.8-.86,3.63-1.5,5.4-1.78,1.77-.29,3.51-.17,5.2.59-2.42-7.55-1.72.68-5.71-8.3,3.13,11.04-17.87-2.63-12.3,9.26-3.94-10.51-8.4-5.33-14.09-14.66-.13,2.43,1.77,4.94-4.09,2.89-.37.66-1.15,1.46-1.63,1.93-.18-.09-.23-.14-.38-.24.11.11.18.23.29.33-.31.32-.35.39.11.12,1.29,1.26,2.27,2.69,2.55,4.1-3.77,5.1-13.47,3.49-17.19,5.85-3.46-1.68,1.92-2.53.32-5.38l-5.57,3.55c.3-5.41-8.49-10.27.64-12.15l-7.78-1.37c-4.23-3.63-10.51-5.72-14.83-3.97-3.68-1.62-10.32,4.75-6.51.96-4.32.56-8.74,1.26-13.11,1.93v-1.35c-1.56-.24-3.16-.33-4.78-.31-1.65.05-3.31.21-4.99.41-3.35.44-6.76.88-10.22,1.34-3.48.4-6.98.51-10.54-.12-3.59-.53-7.26-1.76-11.07-4.21-2.22.63-4.51,1.5-7.17,1.99-2.66.51-5.68.61-9.51.07l-1.82-4.52c-2.91,1.07-7.46.3-11.61-.08-4.18-.18-7.93,0-8.85,2.59-1.05-1.43-2.31-2.48-3.74-3.21-.72-.36-1.47-.67-2.27-.86-.79-.18-1.63-.29-2.48-.34-3.44-.19-7.33.6-11.25,1.74-1.95.6-3.88,1.37-5.79,2.11-1.92.74-3.67,1.55-5.43,2.25-1.77.7-3.36,1.37-4.89,1.87-1.52.51-2.99.85-4.24.98l1.51,5.91c-6.65,1.78-12.06,5.53-18.59,10.42l2.24,4.91c-2.44,3.2-6.78,3.71-11.62,3.83-4.8.07-10.08-.21-14.51,1.3.07-2.17,2.47-2.27,4.51-1.61-7.27-4.14-11.93-.61-16.72,3.03-1.18.87-2.39,1.86-3.58,2.61-1.19.76-2.43,1.45-3.63,1.9-2.2.82-4.58.63-6.72-1.52-2.03,2.03-3.65,1.31-5.03-.1.19,0,.37-.1.52-.26-.21-.07-.52-.1-.84-.1-.86-.98-1.71-2.1-2.59-3.06.7,1.39,1.45,2.49,2.14,3.05-1.6.02-4.03.48-6.61,1.45-.05-1.96-.06-3.91-.05-5.86-.19.05-.33.01-.53.08-1.65-2.49-2.3,2.34-1.87,6.86-1.38.71-2.74,1.58-3.94,2.72.11-4.77-1.5-4.37-3.29-4.19-.89.11-1.78.12-2.41-.47-.59-.64-.91-1.91-.5-4.43-1.56,1.97-4.49,1.74-7.6,1.75-3.13.05-6.56.26-10.31,3.78.76-1.1.59-2.02,1.68-1.28l-.53-.95c-.16-.32-.32-.64-.5-.94-.17-.3-.35-.58-.54-.84-.18-.27-.37-.53-.58-.76-.21-.23-.44-.43-.7-.6-.24-.18-.51-.34-.81-.46-.62-.24-1.36-.35-2.27-.34,1.63-1.87,3.3-3.68,5.02-5.43-3.48.89-7.2,1.31-11.07,1.16.57-1.36,1.12-2.45,1.76-3.35.66-.91,1.36-1.6,2.17-2.13,1.64-1.06,3.74-1.34,6.78-1.54-1.3-.14-2.31-.38-3.22-.68-.22-.09-.43-.19-.64-.27-.21-.11-.41-.24-.6-.35-.37-.21-.74-.52-1.06-.76-1.3-1.09-2.13-2.23-2.99-3.34-.86-1.11-1.78-2.33-3.45-3.89-.42-.39-.89-.8-1.44-1.26-.53-.44-1.16-.92-1.87-1.42-1.41-.99-3.19-2.1-5.53-3.09,1.38-.83,2.78-1.63,4.22-2.38-1.23-1.41-3.14-2.74-5.35-3.73-2.13-1.05-4.63-1.65-6.83-2.1-1.1-.17-2.18-.33-3.21-.49-1-.15-1.92-.21-2.76-.39-1.7-.39-2.97-.77-3.94-1.87-.91-.66-1.96-1.15-3.21-1.56-.62-.2-1.32-.4-2.02-.53-.68-.12-1.41-.21-2.18-.28-1.58-.16-3.12-.07-4.86.09-.87.08-1.67.25-2.55.42-.86.18-1.77.37-2.62.65-3.55,1-7.06,2.7-10.54,4.99-3.45,2.3-6.87,5.26-9.95,9.04-2.58,3.16-4.73,6.44-6.59,9.5-1.86,3.06-3.46,5.9-5,8.34-1.54,2.44-3.02,4.47-4.51,5.93-.37.34-.74.7-1.11.99-.4.32-.65.4-1,.6-.35.17-.7.33-1.05.48-.37.13-.74.24-1.11.34-.27.07-.56.1-.84.13,2.98,1.95,4.03,2.81,3.9,3.28-.11.46-1.3.46-2.52.37-1.33-.18-2.63-.42-3.21-.11-.64.24-.56,1.15.94,3.42-1.25-1.14-2.38-1.85-3.26-2.81-.44-.47-.8-.96-1.07-1.52-.28-.57-.46-1.19-.63-2-.07.35-.21.59-.37.81-.15.22-.32.42-.5.59-.19.16-.34.33-.57.43-.24.1-.48.18-.72.24-.53.13-.97.24-1.53.26-.56.02-1.08.03-1.57.08-.46.07-.99.12-1.46.28-.47.16-.9.42-1.3.84-.86.8-1.6,2.22-2.32,4.77-.81-1.53-.66-2.79-.54-3.9.12-1.12.26-2.06-.3-2.92-.25.85-1.56,3.27-2.66,1.51-1.07-1.78.46-2.95,1.16-4.55-.81.23-1.5.61-2.09,1.1-.59.49-1.19,1.04-1.64,1.73-.46.68-.84,1.45-1.16,2.31-.32.85-.6,1.77-.8,2.75-.82,3.95-.66,8.91-.45,13.71-5.33-4-7.47-3.22-10.9,3.22-1.95-3.04-4.89-6.19,1.13-7.59-1.73-.14-6.95-1.07-12.05-1.16-5.24-.08-10.08.85-10.23,4.69-1.19-1.93-5.18-.53-6.15.36-8.32-.4-9.03-1.1-17.16-.37l2.25,1.25c-3.24,9.27-6.77,2.04-13.32,3.1l.2-.95c-7.45-3.43-9.04-2.7-10.65-2.04-1.6.66-3.21,1.2-10.39-2.87l.59,5.78c-.9,6.14-4.15,4.27-8.18,1.25-4.04-2.99-8.81-6.95-13.17-4.93l2.84,3.5c-2.46,1.95-5.44-2.49-8.24-7.63-2.8-5.19-5.38-11.13-7.53-12.11-.86-1.16,1.7-1.58,3.13-2.24-5.44-4.18-5.98-2.33-6.32.66-.33,3-.39,7.17-4.87,7.51-1.11-4.23,3.23-10.03-2.41-11.47-.6-.92-2.06-.63-3.98.05-1.92.68-4.35,1.84-6.95,2.84-1.3.49-2.64.97-3.96,1.27-1.31.29-2.62.47-3.87.44-2.49-.05-4.75-.89-6.29-3.17,1.07,3.39,2.24,6.81-2.22,8.33-3.15-.14-6.67-3.87-10.15-6.64-1.74-1.42-3.5-2.55-5.32-2.83-1.82-.28-3.73.35-5.71,2.29-.51-1.05-.56-1.92-.37-2.68-1.29.28-2.91.39-4.7.48-1.78.07-3.76.2-5.65.23-3.81.15-7.58.7-9.88,2.74.68-4.99-.84-7.66-3.46-9-2.64-1.41-6.4-1.58-10.16-1.79-7.48-.37-14.75-.56-10.98-8.91-4.85-1.8-9.87-3.65-14.95-5.47l1.12-1.55c-4.57-2.59-8.2-3.22-11.33-2.82-1.55.2-2.96.64-4.29,1.2-1.34.58-2.62,1.29-3.87,2-1.88-2.01.38-3.01.91-3.84-6.76-4.44-11-6.43-15.26-6.73-2.11-.19-4.34.18-6.92.88-1.3.37-2.67.78-4.23,1.39-1.56.6-3.25,1.31-5.11,2.12-.11-2.04-.25-4.08-.4-6.13-2.19,1.43-7.75-1.86-15.73-4.18-3.95-1-8.48-1.97-12.91-1.81-1.12.01-2.24.07-3.35.19-1.09.14-2.17.37-3.24.63-1.07.27-2.12.6-3.14,1-.51.2-1.02.42-1.52.65-.49.25-.96.52-1.43.81.07-.69.23-1.89,1.43-2.89-2.19,1.18-4.48,1.94-6.91,2.37-2.4.46-4.83.69-7.36.71-4.97.11-10.09-.37-14.65-.43-9.13-.1-16.07,1.31-16.08,12.49l-8.7,7.72c6.66-.8,6.78,1.59,5.97,4.47-.81,2.87-2.58,6.23.58,7.29-2.45,1.29-6.23.5-8.56-.95-2.34-1.44-3.26-3.52-.25-4.78l1.23.83c-.07-2.88-1.17-4.33-2.78-5.01-.8-.34-1.74-.49-2.74-.52-1-.04-2.05,0-3.11.07-4.28.38-8.57.91-9.01-2.89-1.49.32-2.94.48-4.4.66-1.45.16-2.93.38-4.34.39-1.43.05-2.85.09-4.27.12-1.42-.03-2.84-.14-4.25-.22-2.78-.1-5.71-.64-8.53-1.02-1.42-.22-2.89-.56-4.33-.84-1.45-.31-2.85-.55-4.33-.94-11.64-2.73-23.44-6.59-36.32-8.89.55,3.04,1.06,6.09,1.55,9.14l-8.83-1.9c-1.03-1.19-1.61-2.99-1.09-4.35.26-.68.79-1.24,1.67-1.56.86-.31,2.05-.36,3.65-.01-.66-1.36-1.71-1.89-2.91-1.89-1.21,0-2.63.56-3.94,1.34-2.63,1.56-4.92,4.03-5.13,4.96-6.3-2.52-4.82-4.91-2.08-6.77,2.76-1.88,6.5-3.05,4.51-3.44-1.82-.05-3.79-.02-5.68-.02l1.15,1.16c-2.49,1.52-3.9,3.23-5.71,4.38-1.83,1.18-4.09,1.86-8.21,1.33-2.6-1.03-3.27-2.36-3.51-3.56-.24-1.18-.07-2.18-1.16-2.38.04-.62-.7-.94-3.35-.36-1.06-.11-2.18-.15-3.29-.19l-3.33-.12-3.33-.11c-1.12-.01-2.27.04-3.41.07.99,1.08,1.96,2.16,2.91,3.24.94,1.1,1.84,2.26,2.74,3.38-.69.44-1.39.77-2.08,1.03-.69.28-1.38.51-2.02.68-1.29.35-2.42.54-3.17.84-1.53.6-1.46,1.61,1.71,5.28-1.16-1.42-2.78-2.49-4.77-3.27-1.99-.7-4.35-1.03-6.94-1.15-2.59-.17-5.37.16-8.21.59-1.39.26-2.79.55-4.2.88-1.4.33-2.74.74-4.11,1.13-5.38,1.64-10.29,3.67-14.13,5.14-3.85,1.47-6.72,2.36-8.13,1.9-4.56,7.18-10.73,9.56-18.13,11.21,1.1.41,2.54,2.39,2.86,4.39.16,1,.03,2.01-.58,2.85-.6.83-1.69,1.52-3.4,1.72-1-8.09-4.38-8.87-8.12-9.27-3.71-.37-8.15-.49-10.75-6.07,1.13,1.87.77,2.96-.4,3.72-.58.38-1.35.68-2.22.96-.43.13-.89.27-1.35.41-.48.1-.97.2-1.45.3-1.94.39-3.81,1-4.89,1.99-1.05,1.04-1.26,2.71.45,5.56-2.67-.83-2.64-2.33-2.44-4.14.21-1.8.53-3.92-1.19-5.92-1.52.71-3.16.96-4.79,1.13-1.62.17-3.32-.01-5.02-.3-.85-.15-1.69-.32-2.55-.55-.87-.25-1.74-.53-2.61-.83-.87-.3-1.74-.62-2.61-.96-.88-.36-1.78-.76-2.67-1.15-7.13-3.14-14.61-7.29-23.46-8.65-.83,1.96,1.19,5.87-3.33,7.87-2.06-4.22-4.24-8.46-6.42-12.71-1.91.03-3.53,2.76-5.21,4.38-1.7,1.63-3.42,2.14-5.86-2.23.52,1.96,1.24,4.89-1.33,4.95-2.06-1.18-4.18-2.24-6.39-3.16-1.1-.47-2.21-.91-3.33-1.33-1.12-.41-2.27-.77-3.42-1.12-2.3-.68-4.63-1.35-6.97-1.84-2.35-.47-4.71-.88-7.09-1.24-9.51-1.29-19.14-1.35-28.63-1.3-9.49.11-18.87.29-28.22-.6-9.36-.88-18.7-2.78-28.23-6.94,5.25,3.71,1.97,4.35-1.78,4.8,2.52.79.34,5.2,1.04,8.02-5.24-2.27-10.49-4.46-15.75-6.65-2.02,8.15-16.01,2.08-16.79,9.79l4.57-1.83c-5.35,9.53,10.7,18.94,10.84,30.5,2.97-5.4,7.9-2.07,13.23.72,5.35,2.79,11.03,5.03,16.15-2.58,2.61,2.18-1.87,3.83-.39,6.41,2.5-5.11,5.9-6.31,12.28-4.39l-.66,1.24c4.38-.45,8.16-.52,11.62-.2,3.48.26,6.64.88,9.85,1.64,3.22.71,6.43,1.77,10.04,2.75,1.79.53,3.66,1.11,5.67,1.66,1.99.55,4.12,1.13,6.42,1.76l-.91-5.78c4.02,1.12,4.71,2.93,6.41,4.58,1.38-2.01,1.38-3.12.67-3.81-.71-.69-2.14-.95-3.6-1.18-2.9-.48-5.88-1.09-3.34-5.64,1.15,3.02,3.53,4.63,6.44,5.73,2.9,1.13,6.42,1.54,9.81,2.24,1.7.33,3.39.63,4.96,1.09,1.56.48,3.01,1.04,4.26,1.77,2.5,1.42,4.2,3.63,4.34,7.03,2.95.69,2.9-1,2.83-2.7-.06-1.68-.18-3.44,2.91-2.65l.79,3.86,2.67-4.06c3.92,1.77,4.89,6.66,4.25,9.59-.9-.61-3.03.07-4.15.05,1.06,1.36,2.53,2.2,4.17,2.72,1.66.53,3.55.78,5.32.89,3.57.24,6.93.07,7.69.99l-5.7-3.85c9.24.82,19.44,4.09,30.44,6.41,1.38.28,2.76.55,4.13.83,1.42.24,2.83.46,4.24.66,2.79.44,5.71.65,8.56.78,1.41.08,2.86.07,4.3,0,1.44-.05,2.86-.14,4.27-.27,2.83-.29,5.66-.89,8.31-1.61l-1.46-2.78c1.99-.46,3.71-.9,5.18-1.14,1.47-.25,2.71-.35,3.82-.34,2.22-.04,3.9.28,5.65.73.88.22,1.77.47,2.77.65,1,.15,2.1.26,3.36.28,1.27.02,2.71-.06,4.38-.29,1.66-.31,3.57-.77,5.72-1.5-.17.26-.33.51-.51.76,1.48-1.7,3.27-3.13,5.23-4.27,1.92-1.18,4.09-2.01,6.29-2.56-1.56,2.12.76,3.01,3.03,3.95,1.14.48,2.21.95,2.75,1.63.53.68.55,1.57-.55,2.83,1.82-1.3,3.23-2.38,4.4-3.3,1.12-.92,1.95-1.69,2.61-2.35,1.31-1.32,1.83-2.23,2.13-3.21.59-1.97.48-4.25,3.29-10.7l3.73,3.32c1.64-4.95,1.15-7.08,7.6-10.73-2.14,2.84-.44,4.01,1.2,5.38,1.64,1.36,3.21,2.91,1.06,6.41,8.65,1.94,12.35-1.81,15.72-4.68.82-.69,1.63-1.39,2.42-1.85.78-.45,1.57-.75,2.38-.77,1.62-.02,3.37,1.25,5.23,4.54.9-3.26.76-5.23-.13-6.36-.87-1.14-2.44-1.45-4.06-1.46-.81-.03-1.62.11-2.36.25-.74.14-1.41.27-1.94.37-1.06.19-1.56.19-.87-.68-1.91-1.56-1.25-4.19.65-6.25,1.86-2.18,5.03-3.55,7.37-3.32.58-.05,1.16.11,1.77.5.61.4,1.22.98,1.86,1.67,1.27,1.39,2.59,3.24,4.04,5.05,1.43,1.77,3.07,3.74,4.92,5.1.93.7,1.92,1.24,3.01,1.64,1.12.44,2.33.7,3.68.71-1.07-.09-1.17.84-2.22.75.98.82,1.95.98,2.95.84,1-.15,2.02-.59,3.13-.9,1.1-.32,2.23-.59,3.38-.42,1.14.15,2.31.74,3.49,2.17,1.84-3.54,3.57-3.24,5.04-3.23,1.48.02,2.76-.19,3.83-4.84l-2.81.17-2.76.25c-1.82.18-3.68.28-5.45.54,1.53-.54,3.17-1.46,4.87-2.6,1.71-1.11,3.5-2.42,5.45-3.35,1.94-.95,4-1.64,6.18-1.66,2.19,0,4.51.69,6.93,2.43-1.13,1.76-4.64,3.77-6.98,4.83,2.64,3.25,6.13-.95,8.92,2.44-.61,2.31-1.81,3.45-3.35,3.96-1.53.52-3.42.42-5.48.22-2.09-.23-4.22-.44-6.37-.27-1.06.1-2.14.27-3.14.67-1,.4-1.95.98-2.84,1.79.65,1.08,1.75,1.27,2.99,1.12,1.28-.12,2.7-.6,3.9-.9,2.41-.61,3.89-.56,1.53,4.31,1.61-3.09,3.21-4.38,4.76-4.76,1.56-.38,3.09.16,4.73.83,3.34,1.36,6.99,3.16,12.13-1.06l-1.48,5.53c1.51-.66,4.73-2.85,7.3-2.32l-5.78,6.56c1.97-1.27,3.83-1.43,5.55-1,1.73.43,3.31,1.48,4.95,2.59,1.66,1.1,3.31,2.29,5.03,3.06.87.38,1.73.66,2.65.75.94.09,1.89,0,2.88-.32-3.98-.36-5.93-1.11-6.98-1.94-1.03-.85-1.04-1.85-.77-2.95.56-2.2,2.22-4.8-.6-7.28,2.4-.63,4.31-.86,5.88-.77,1.56.1,2.86.45,3.89,1.08,2.08,1.23,3.29,3.39,4.58,5.71,1.34,2.28,2.79,4.71,5.35,6.51,2.5,1.85,6.38,2.84,12.25,2.3-1.59.36-4.57-.57-6.46-1.92-1.9-1.34-2.71-3.09-.25-4.33,2.14.65,4.63,1.57,6.96,2.68,2.39,1.02,4.63,2.26,6.1,3.71,4.01-.36,5.81-1.12,6.38-1.81.57-.71-.08-1.46-1-2.27-1.86-1.59-4.71-3.51-1.58-5.44,2.8,3.26,4.71,2.39,6.57.38,1.85-2.04,3.6-5.33,6.57-6.83l.88,5.72c8.54.52,9.06-2.7,9.31-5.73.27-3.06.38-5.88,7.62-5.2-1.28,3.06-2.69,6.08-4.15,9.11l3.48-1.78,3.34-1.84-.02,6.76c1.71-1.65,3.14-2.84,4.46-3.7,1.28-.87,2.46-1.42,3.68-1.76,1.22-.34,2.51-.47,3.94-.53,1.42-.06,3.01-.03,4.93-.05-2.7-3.51-1.67-10.42,4.44-12.21,5.04,2.25-.91,5.91,7.46,2.91-.52,2-1.03,4.24-2.02,5.45-.5.6-1.12.95-1.94.88-.84-.06-1.87-.53-3.16-1.57.09,1.93-1.03,4.03-.96,5.93,2.76,1.32,5.71.78,8.17-.13,1.26-.46,2.44-1.04,3.5-1.55,1.03-.49,1.93-.91,2.67-1.1-1.19.07-2.6.08-3.54-.53l5.03-5.35,5.03-5.22c2.3,1.72,1.17,3.76.1,5.74,2.23-1.16,3.25-4,6.59-5.15-.06,4.8.96,9.55-3.13,12.58l4.66-3.54c1.55-1.16,3.06-2.22,4.63-3.35.24.48.73,1.01,1.29,1.59.55.6,1.19,1.23,1.75,1.86,1.13,1.26,1.97,2.5,1.47,3.43.66.28,1.33.32,2.01.19.68-.12,1.32-.34,2.01-.72,1.37-.73,2.89-1.99,4.38-3,1.52-1.06,3.18-2.18,4.84-2.54.83-.22,1.67-.31,2.48-.23.82.09,1.64.47,2.39,1.02.46-.86,1.26-1.63,2.8-2.12,1.57.57,3.04,1.43,4.46,2.29,1.45.95,2.88,1.95,4.38,2.69,1.53.81,3.17,1.47,5.03,1.63,1.9.25,4.05.06,6.66-.77.66,3.24,1.26,6.45,1.8,9.63,3.59.37,2.98-2.72,2.88-5.78-.06-3.03.37-6.08,6.69-5.3,9.23.86.32,7.91,2.25,11.24,5.66-2.24,16.42-6.97,21.76,2.92-3.31.27-4.89-1.79-7.6-2.31ZM699.64,99.22c-2.2.9-6.9,3.98-7.85.38,3.4-6.19,4.64-2.8,7.85-.38ZM856.65,88.24c-.62,1.07-1.61,1.48-2.8,1.4-1.19-.09-2.59-.73-4.07-1.64.95-.36,1.98-.55,3.11-.52,1.14.01,2.38.23,3.76.75ZM1226.77,18.33c-.1.08-.16.14-.25.25-4.08-2.83-2.64-1.74.25-.25ZM1235.45,22.08c1.01-.67,1.07-1.47.8-2.33-.84,1.36-2.85,1.16-5.1.44.44,1.59,1.44,2.79,4.3,1.89ZM336.71,9.55l1.94,1.58c-4.51,1.53-3.23.06-1.94-1.58Z"/>
      <path class="cls-1" d="M838.55,98.13c-.64-.95-.86-2.02-1.05-3.1-.76,1.01-.74,2.13,1.05,3.1Z"/>
      <path class="cls-1" d="M545.47,57.6c-.07-.06-.14-.05-.21-.09-.16.33-.27.67-.35,1.01l.55-.91Z"/>
      <path class="cls-1" d="M1101.47,72.71c-1.86-.3-3.09-1.03-4.03-1.88.34,1.38,1.45,2.29,4.03,1.88Z"/>
      <path class="cls-1" d="M1283.22,18.93c-1.85.29-3.77.52-5.67.77,2.69.07,3.49,1.48,4.7,2.54.05-1.36-.73-3.42.97-3.31Z"/>
      <path class="cls-1" d="M1328.29,58.57c.86-.67,1.78,0,2.62-.69l-.15-2.7c-3.54.03-6.12,2.09-2.47,3.39Z"/>
      <path class="cls-1" d="M1285.94,38.64c-.14,4.86,3.58,3.73,7.56,3.19-.24,0-.46.01-.69-.07.94-3.33.31-4.54-1.08-4.69-1.4-.16-3.59.69-5.79,1.56Z"/>
      <path class="cls-1" d="M1294.42,41.76c1.22-.11,2.46-.11,3.61.24.72-2.67-1.39-.71-3.61-.24Z"/>
      <path class="cls-1" d="M1247.25,20.53c1.7,1.52,2.09-5.99,2.86-3.87,3.02-5.82-13.67,5.57-2.86,3.87Z"/>
      <polygon class="cls-1" points="1287.26 54.96 1286.53 48.82 1283.74 53.36 1287.26 54.96"/>
      <path class="cls-1" d="M1256.49,46.4l6.1,2.56c.05-1.01.93-1.48,1.99-1.79-3.87-.76-7.98-2.56-8.08-.78Z"/>
      <path class="cls-1" d="M1264.58,47.18c2.02.41,3.97.53,5.23-.29-1.11-.09-3.49-.2-5.23.29Z"/>
      <path class="cls-1" d="M1278.33,55.7l-1.72-1.48-4.43-1.05c2.05.84,4.09,1.72,6.15,2.52Z"/>
      <path class="cls-1" d="M1187.94,36.49l-7.18,1.18c-.84,2,.98,3.41,3.64,2.78,1.78-1.31,4.46-1.9,3.54-3.97Z"/>
      <path class="cls-1" d="M1207.26,54.99c-1.7-1.46-1.67-2.81-2.5-4.91l-1.06,7.38,3.56-2.47Z"/>
      <path class="cls-1" d="M1187.22,54.69c-.87,2.01-10.18,5.18-1.67,5.36.82-1.99,7.74-3.19,1.67-5.36Z"/>
      <polygon class="cls-1" points="1085.29 56.47 1086.94 55.81 1082.82 44.3 1085.29 56.47"/>
      <path class="cls-1" d="M988.98,103.28c5.36,2.3,6.28.42,6.97-1.3.35-.87.67-1.71,1.47-2.06.81-.33,2.08-.19,4.46.87,1.34-1.36-.6-2.23-2.47-3.06-1.88-.86-3.7-1.71-2.33-2.82-3.27,1.2-5.74,1.16-7.14,1.89-1.4.74-1.84,2.27-.95,6.48Z"/>
      <path class="cls-1" d="M997.08,94.91c1.04-.38,2.14-.84,3.31-1.57-1.83.64-2.73,1.1-3.31,1.57Z"/>
      <polygon class="cls-1" points="13.9 8.41 8.27 6.4 12.15 10.15 13.9 8.41"/>
      <path class="cls-1" d="M4.53,18.45l-2.04-7.62-2.48,7.34c1.17-.47,3.43-1.37,4.53.28Z"/>
      <path class="cls-1" d="M713.56,116.82l.64-1.81c-.68-2.12-2.01-2.43-4.67-3.07l4.03,4.89Z"/>
      <path class="cls-1" d="M635.87,94.32l1.29.62c-.09-2.52-.16-5.03-.2-7.53l-1.08,6.92Z"/>
      <path class="cls-1" d="M574.47,78.66c1.94,1.13,4.86.61,6.91,1.83-1.29-.21-2.17-.95-2.81-1.78-.65-.85-1.1-1.83-1.47-2.54-.76-1.41-1.25-1.69-2.62,2.49Z"/>
    </g>
  </g>
</svg>