<?xml version="1.0" encoding="UTF-8"?>
<svg id="Capa_2" data-name="Capa 2" xmlns="http://www.w3.org/2000/svg" viewBox="0 0 1571.49 91.23">
  <defs>
    <style>
      .cls-1 {
        fill: #e3f35e;
      }
    </style>
  </defs>
  <g id="Capa_1-2" data-name="Capa 1">
    <g>
      <path class="cls-1" d="M1567.9,78.68c2.11,1.17,2.95-3.85,3.59-4.59-4.16-.21-3.92,5.86-3.59,4.59Z"/>
      <polygon class="cls-1" points="1527.19 77.53 1528.45 75.77 1521.52 78.91 1527.19 77.53"/>
      <path class="cls-1" d="M1492.32,67.43c1.06,9.18,13.03,2.17,18.45,6.84l.49,2.16,4.73-5.83c-7.92-1.08-18.96.62-23.66-3.17Z"/>
      <path class="cls-1" d="M1478.05,44.65c.37,3.53-4.81,1.75,4.19,2.13-.34-.46-.41-.7-.6-1.02-.78-.15-1.84-.42-3.59-1.11Z"/>
      <path class="cls-1" d="M1481.65,45.76c3.83.71-1.78-3.33,0,0h0Z"/>
      <path class="cls-1" d="M1463.8,43.32c1.89-.59,3.78-1.19,5.66-1.72-.57-2.21-4.92-3.64-2.94-4.65-5.51.42-4.88,2.57-2.72,6.37Z"/>
      <path class="cls-1" d="M1457.68,48.34l2.85-.65c-.26-.91-.88-1.34-2.85.65Z"/>
      <path class="cls-1" d="M1466.59,46.35l-6.06,1.34c.4,1.51-.16,4.23,2.72-.37-1.03,2.37.61.23,3.34-.98Z"/>
      <path class="cls-1" d="M1469.36,48.39c2.33,2.51,5.61,4.54-.03,6.18,9.67,1.21,9.77-4.97.03-6.18Z"/>
      <path class="cls-1" d="M1488.26,75.5l2.96,3.42,3.87-1.91c-1.93.94-6.36-4.17-6.83-1.51Z"/>
      <path class="cls-1" d="M1433.7,32.13c-.68,1.72.69,5.1.58,7.45l4.11-1.3c-1.63-1.61-4.99-3.46-4.7-6.16Z"/>
      <path class="cls-1" d="M1434.28,39.59l-6.13,1.95c4.83,1.36,6.03.08,6.13-1.95Z"/>
      <polygon class="cls-1" points="1454.66 57.41 1465.09 53.05 1452.92 57.11 1454.66 57.41"/>
      <path class="cls-1" d="M1412.59,27.66l3.94-3.55c-2.27,1.71-4.54,3.48-6.8,5.22l2.86-1.67Z"/>
      <path class="cls-1" d="M1398.4,25.84c2.95-3.01-2.16-6.4.69-8.07-3.95-.08-7.75,2.27-11.14,4.42,3.38-.94,6.65.06,10.45,3.65Z"/>
      <path class="cls-1" d="M1382.35,25.27c1.7-.58,3.56-1.8,5.59-3.08-1.8.53-3.62,1.41-5.59,3.08Z"/>
      <path class="cls-1" d="M1418.97,38.75c-.21-1.17-.47-4.16-3.34-5.99l1.19,5.47c.66.16,1.4.33,2.15.51Z"/>
      <path class="cls-1" d="M1416.86,38.41l-.04-.18c-2.32-.61-3.93-1.03-4.62-1.21.59.14,2,.57,4.66,1.39Z"/>
      <path class="cls-1" d="M1419.51,38.88c-.2-.05-.34-.09-.54-.13.11.54.2.73.54.13Z"/>
      <path class="cls-1" d="M1441.43,49.66c-3.81,2.02-11.1,3.74-5.58,9.31,3.02-2.92-.14-6.18,5.58-9.31Z"/>
      <path class="cls-1" d="M1420.93,45.71l5.57,2.33c.16-1.35-.5-3.5,1.38-4.57l-6.95,2.24Z"/>
      <polygon class="cls-1" points="1417.78 46.73 1420.93 45.71 1418.87 44.85 1417.78 46.73"/>
      <path class="cls-1" d="M1391.62,31.71c-2.91,1.74-5.71,1.42-8.9,1.29,3.19,1.5,6.55,2.69,9.83,3.27.74-1.5,2.69-4.09-.93-4.56Z"/>
      <path class="cls-1" d="M1403.82,35.37c-.2.08-.43.1-.62.19.27.49.52.68.62-.19Z"/>
      <path class="cls-1" d="M1351.9,28.18c.13.3.23.67.36.99.08-.29.15-.57.24-.86l-.6-.13Z"/>
      <path class="cls-1" d="M1392.95,37.31c2.34,1.43,4.05.47,5.77-.83-1.97.17-4.02.14-6.16-.21-.33.68-.46,1.14.4,1.04Z"/>
      <path class="cls-1" d="M1373.33,26.25c1.15,1.27,2.5,2.41,3.93,3.49-1.02-1.81-3.25-4.73-3.93-3.49Z"/>
      <path class="cls-1" d="M1402.61,34.01c.14-.06.27-.13.42-.16-.63-1.23-.62-.68-.42.16Z"/>
      <path class="cls-1" d="M1402.61,34.01c-1.43.49-2.67,1.55-3.9,2.47,1.6-.12,3.12-.4,4.49-.92-.25-.41-.46-1.01-.59-1.55Z"/>
      <path class="cls-1" d="M1338.05,59.47c1.07-4.65,8.23-8.08,13.11-2.24,6.05-2.75,4.78-18.71,1.1-28.06-.47,2.03-.76,3.92-6.92,5.89,1.67,2.86,11.91,7.81,6.44,11.38-7.94,1.35-5.98-2.54-9.33-5.55,2.31,6.31-10.83,7.18-10.32,16.04l7.02-2.11c-.06,1.36-2.75,3.16-1.09,4.65Z"/>
      <path class="cls-1" d="M1363.24,31.28l2.47-.2c-2.59-1.23-4.24-3.48-7.3-7.65-4.33,1.73-5.4,3.36-5.91,4.89,3.89.77,7.78,1.52,11.65,2.4l-.92.57Z"/>
      <path class="cls-1" d="M1376.41,32.77c-2.7,4.81-8.72,6.07-6.13,12.15,6.98.76,5.55-3.48,10.07-5.03-11.45-.54,3.71-2.32-3.95-6.52,2.36-.51,4.4-.46,6.32-.37-1.93-.94-3.76-2.03-5.46-3.27.08.13.14.23.21.36h.06s-.02.04-.02.07c.38.71.48,1.13,0,.67-.05.06-.19.06-.25.07-.19.7-.5,1.28-.82,1.84-3.1-1.58-.3-1.41.82-1.84.08-.24.21-.47.26-.74,0-.03-.02-.05-.03-.07l-11.76.98c2.28,1.1,5.29,1.43,10.7,1.7Z"/>
      <path class="cls-1" d="M1427.64,68.65c-.25-.52-.16-.87-.11-1.25-.84.48-1.2.84.11,1.25Z"/>
      <path class="cls-1" d="M1423.74,64.67c.95-.54,2.04-2.43,4.54-1.38,1.95,1.98-.52,2.42-.75,4.11,1.84-1.02,6.27-2.51,1.85-5.97l-.93.53c-4.08-2.64-8.56-10.14-7.64-10.67.39,4.83.89,8.31,2.93,13.39Z"/>
      <path class="cls-1" d="M1399.79,49.73l-9.74.81,3.93,5.26.24-2.69c5.08,1.99,4.54-1.47,5.57-3.39Z"/>
      <polygon class="cls-1" points="1351.19 25.48 1353.23 20.25 1346.67 27.12 1351.19 25.48"/>
      <polygon class="cls-1" points="1338.82 24.4 1339.91 19.75 1336.28 22.14 1338.82 24.4"/>
      <path class="cls-1" d="M650.6,73.66l-2.76,1.34c1.31-.42,2.15-.87,2.76-1.34Z"/>
      <path class="cls-1" d="M670.56,74.01l.48-2.34c-.92,1.29-1.3,2.24-.48,2.34Z"/>
      <path class="cls-1" d="M1037.22,8.65c-4.04-4.41-8.59-11.25-8.07-5.91l1.27,5.19c2.81-.95,4.97-.39,6.8.72Z"/>
      <path class="cls-1" d="M833.3,43.76c.39.5.8,1.03,1.21,1.55.93-1.82,1.8-3.52,2.57-5.05-1.14,1.1-2.43,2.27-3.78,3.5Z"/>
      <path class="cls-1" d="M831.02,65.37l-5.36-3.22c1.21,1.14,2.94,2.22,5.36,3.22Z"/>
      <path class="cls-1" d="M541.62,78.24l-3.3,5.26c5.03.04,2.86-2.66,3.3-5.26Z"/>
      <path class="cls-1" d="M1212.75,14.3c-3.37-2.24-6.11-3.26-8.54-3.66,4.05,3.24,7.17,7.92,8.54,3.66Z"/>
      <path class="cls-1" d="M658.45,18.42c-1.67.94-2.39,2-2.34,3.16,1.72-.89,2.69-1.88,2.34-3.16Z"/>
      <path class="cls-1" d="M1194.11,10.12c.59.55,1.18.84,1.78,1.31,2.6-.76,5.21-1.33,8.32-.79-2.99-2.43-6.49-3.97-10.1-.52Z"/>
      <path class="cls-1" d="M148.72,67.74c-.28-.23-.63-.35-.89-.62-.09.7.31.74.89.62Z"/>
      <path class="cls-1" d="M33.46,16.71c1.13-.36,2.98-.41,4.72-.53-.86-.33-2.29-.26-4.72.53Z"/>
      <path class="cls-1" d="M1289.6,16.29c2.65-.06.47-.53,0,0h0Z"/>
      <path class="cls-1" d="M1300.04,38.09c-.61.52-1.11,1.22-1.31,2.41.35-1.22.8-1.98,1.31-2.41Z"/>
      <path class="cls-1" d="M1166.86,41.32c-.08,0-.14-.02-.22-.03.72,1.05.6.85.22.03Z"/>
      <path class="cls-1" d="M1293.28,19.06c-.91-.74-1.99-1.39-3.18-1.89.5.46,1.46,1.07,3.18,1.89Z"/>
      <path class="cls-1" d="M1293.01,16.55c.88.33,1.57.53,2.23.74.42-.83.19-1.4-2.23-.74Z"/>
      <path class="cls-1" d="M1285.93,16.19c1.5.08,2.87.47,4.17.98-.48-.4-.66-.72-.51-.88-.77,0-1.87,0-3.67-.1Z"/>
      <path class="cls-1" d="M359.18,56.36c-.17-.17-.36-.28-.54-.5-2.64,2.11-1.49,1.79.54.5Z"/>
      <path class="cls-1" d="M970.8,63.5c.12-.05.18-.19.29-.26-.12-.05-.27-.12-.38-.18l.09.43Z"/>
      <path class="cls-1" d="M961.66,67.54c3.8-6.55,6.05-5.79,9.04-4.47l-3.32-14.96-5.72,19.43Z"/>
      <path class="cls-1" d="M602.82,74.93l6.48,4.73c-7.93,7.64-13.62,4.94-7.54,11.57,1.05-16.29,25.4-1.47,26.39-17.75l4.29,3.44c-1.23-.16-1.43.8-2.65.64,8.34,7.81,6.26-11.78,17.02-9.44,3.75,1.25,6.37,3.62,3.81,5.55l8.37-4.02c2.43.32,1.84,3.15-.58,2.84l12.76-1.29-.09.48c1.81-2.55,5.93-6.53,7.93-8.22,3.25,2.31-1.62,1.74-.78,3.77l7.04-4c2.9,4.2-2.94,8.34-7.82,7.77,6.67,16.22,5.84-4.14,20.15,5.26l-6.67,2.11c4.37,9.22,9.57,5.83,17.19,11.54-1.84-3-15.26-14.42-7.61-18.53,2.17,1.21,5.03,1.78,9.14-1.53.09,5.79,4.13,4.34,9.18,3.98l-.26,7.68c5.45-2.28,4.97-6.19,8.14-9.69,6.1.67,7.45,6.6,8.96,11.59,9.79,1.08-6.88-9.44,4.65-11.05,8.16,2.83,13.8-.44,23.41-5.2,5.72,2.54-.9,4.71,1.18,6.87l4.91-6.22c1.23.12.87,2.01.69,2.96,4.19-2.45.2-7.67,6.8-9.9,1.61-8.49,13.92,12.06,21.93,2.27,2.08,2.13-.87,4.73-.18,7.68,11.14-6.57,9.57-4.81,18.62-13.51l8.01,4.85c-5.94-5.62,1.3-12.62,7.63-18.39-2.12-2.73-3.94-5.12-5.15-6.25l10.23-4.38c1.28,1.23.31,3.89-1.31,7.14.69-.65,1.34-1.29,1.85-1.89,3.77,2.74,1.97,7.22-.57,11.57-1.3-1.48-2.59-3.06-3.85-4.64-2.44,4.73-4.7,9.95-4.05,14.43.65-.9,1.93-1.7,3.34-2.16-.64,1.28-1.03,2.42-.71,3.18.37.8,1.41-.93,3.05-2.93l2.57,8.49.48-3.41,13.67,5.01c9.45-8.86,17.55-21.76,32.82-25.68-3.65,6.37-.56,10.27-.58,17.7-4.39-7.76-11.81,3.65-19.81,2.26,4.18.72,3.35,4.28,2.33,5.55l14.01-7.52c-.16,6.09,3.13,4.48,6.9,6.9-3.11-11.94,10.37-8.27,16.06-12.1.46,4.03-.82,8.18-7.89,7.39,7.99,8.85,9.69-14.37,17.51-6.86-1.72.14-2.66-.46-3.29,1.61,3.93-3.68,13.82-1.07,11.59,2.5l-1.71.12c11.45,1.13,34.71-.66,36.22-10.91.14,1.32-1.25,12.33-1.9,14.41l19.74-34.71c-1.64,8.8,5.58,29.55-3.78,34.67,2.73,1.2,6.11,2.6,11.78-.59-1.87-1.22-4.82-12.59-2.3-13.44,7.1,9.64,4.91,5.14,13.58,13.34-2.8-1.84.09-15.63,4.49-15.25-.66,2.07.54,13.56-1.04,15.01l10.75-13.63c-2.7,2.47-.35,11.44,2.12,15.23-1.16-2.65,9.41.17,12.3-1.19l-4.64-3.09c12.31,1.96,12.03-19.09,24.29-18.42-1.48,2.79-3.59,17.16,2.62,18.85,2.8-6.9,12.57-33.28,23.51-38.56l2.07,3.96,8.39-4.44c-2.64,5.18-7.64,13.22-12.93,21.02-5.3,7.83-10.9,15.44-14.84,19.7,4.6,3.13,1.28,4.66,8.16,4.3,2.42,3.7-3.75,5.62-5.77,5.84,5.33.8,10.66,1.56,15.97,2.41-.68-8.08,12.26-8.01,11.7-14.73l-17.43,8.25c-.7-8.08,10.15-22.84,21.56-21.34,2.87,3.23-2.29,14.34-2.07,17.04,1.49-2.77,10.82-5.23,11.84-3.22l-4.86,4.25c6.26,3.11,10.44-10.54,17.92-2.73,2.61.56,7.62,10.51,8.16,5.74-4.07-9.27-4.43-37.76-1.42-44.62.93.6,13.74,9.11,16.63,13.73,4.15,7.32-6.93,17.03-3.39,23.32.21-2.2,2.66-4.86,3.68-5.71,2.7,1.95-1.31,6.8,4.69,5.95,1.22-8.15,12.14,1,3.02-6.84,5.93-2.2,6.17,1.85,13.05,1.74-2.02-5.36,6.79-17.76,12.81-19.88-.43,2.07.79,4.82,1.38,6.08,12.04,1.2,18.32,5.3,29.53,5.87.93,2,6.2,4.74,3.7,8.12,1.68-1.35,3.32-4.03,6.78-4.02,6.25,7.46-7.74.64-3.15,9.43.7-4.72,9.27-6.01,14.38-8.68-1.05-7.42-11.29-2.09-16.36.57.53-10.11,9.74-20.18,21.9-24.14,9.58-1.87,3.63,6.82,5.36,5.49,8.74,1.54,12.81-2.59,16.5-6.06,3.68-3.46,6.96-6.3,14.01-1.98,5.27,6.95-.84,12.81.05,17.56-3.9.89-6.73-.42-9.24-1.91-2.51-1.49-4.7-3.22-7.29-3.29l6.12,3.52c-2.59,1.96-7.79,3.21-10.41,1.14,1.1,1.53,3.5,2.51,6.67,3.21,1.59.35,3.37.63,5.28.87,1.91.27,3.96.51,6.07.76,4.22.49,8.72.99,12.97,1.77,4.25.78,8.25,1.84,11.48,3.55,2.6-1.9,6.96-3.69,5.27-6.48l-4.36.45c-3.42-5.59,8.78-6.31,3.6-9.3,6.12-3.02,13.24-8.08,21.06-4.26l.68,7.5c.04-1.08-1.16-2.33-2.69-3.06-1.53-.71-3.38-.91-4.65.09,3.78-2.93,11.26,11.34,16.09,2.22l-5.08-5.76c6.21-2.96,14.4-9.83,21.36-6.64-2.37-7.61-1.77.62-5.86-8.45,3.15,11.04-18.54-2.72-12.68,9.2-2.06-5.22-4.23-6.54-6.63-7.71-2.4-1.14-5.02-2.09-8.04-6.64-.05,2.43,1.96,4.87-4.03,3.04-.35.68-1.1,1.5-1.57,1.99-.18-.08-.24-.13-.39-.22.11.11.19.22.31.32-.3.33-.33.41.11.11,1.34,1.21,2.38,2.6,2.72,4-3.62,5.22-13.24,4.03-16.78,6.56-3.49-1.5,1.78-2.62.06-5.4l-5.29,3.86c.04-5.41-8.78-9.77.04-12.16l-7.67-.92c-4.26-3.41-10.41-5.19-14.43-3.23-3.54-1.43-9.62,5.27-6.14,1.29l-12.29,2.44-.02-1.35c-5.92-.81-12.18,1.05-18.57,1.78-6.39.74-12.9.24-19.43-4.92-4.07,1.17-8.28,2.63-14.89.79l-1.1-4.72c-5.21,1.34-15.26-5.29-17.65-.52-2.54-6.37-8.78-7.28-15.48-6.91-6.7.43-13.86,2.15-18.35.92l-.48,6.08c-3.1-.25-6.15.01-9.39.64-3.24.64-6.67,1.63-10.53,2.8l.38,5.39c-6.68,4.32-16.97-4.12-27.45-3.6.73-2.05,3.38-1.49,5.25-.24-6.2-6.12-12.84-3.95-19.3-1.38-6.46,2.61-12.75,5.66-18.42,1.23-2.82,1.96-4.87,1.29-6.85-.06.26-.01.5-.11.7-.28-.29-.06-.72-.08-1.16-.06-1.25-.92-2.54-2-3.94-2.85,1.19,1.3,2.33,2.37,3.31,2.87-2.18.1-5.48.81-8.7,2.18l-1.41-5.77c-.26.08-.47.07-.75.17-3.19-2.11-2.54,2.75-.81,7.09-1.62.96-3.11,2.11-4.25,3.52-2.65-9.31-8.45,3.2-12.06-6.72-2.13,4.87-16.21,3.86-17.78,14.08-.13-1.33-1.09-1.95.65-2.05-3.61-1.12-7.22-2.23-10.4.69l-1.64-7.32-7.69,10.02c-4.84-4.39-6.87-6.96-2.23-12.7-11.28,8.9-9.23,3.42-18.78,12.24l.38-4.76c-3.47.25-8.89,6.73-11.06,2.85-7.97-8.88-38.45-.39-58.57-8.26,4.22,13.88-9.42-6.04-9.93,4.82-1.24-3.27-4.07-5.07-.92-8.03-10.07,3.51-15.4-4.85-22.17,4.47-1.25-3.29,2.05-4.91.96-6.84-.8.74-3.15,2.96-4.26,1.01-1.08-1.94,1.41-2.81,2.98-4.3-10.35.82-11.14,11.04-11.65,20.63-5.37-4.39-7.97-3.69-11.61,2.68-1.91-3.08-5.04-6.28,1.37-7.57-3.64-.36-22.23-4.05-22.42,3.63-1.18-1.92-5.08-.45-6.01.46-8.14-.26-8.86-.95-16.83-.05l2.24,1.21c-2.95,9.32-6.59,2.21-13,3.46l.16-.95c-14.88-6.38-6.31,3.32-20.99-4.02l.89,5.74c-1.14,12.41-13.02-7.06-21.37-2.22l3.09,3.24c-4.56,4.3-13.11-16.65-17.73-18.13-1.02-1.07,1.57-1.75,2.96-2.57-12.16-7.17-1.48,7.56-10.47,9.39-1.7-4.05,2.03-10.36-4.03-11.07-3.03-3.27-17.47,13.33-25.79,5.59,1.83,3.12,3.66,6.24-.52,8.62-6.42,1.2-17.38-11.82-23.16-1.94-.82-.86-1.12-1.68-1.16-2.46-4.91,2.54-15.95,4.22-18.93,9.57-4.44-19.83-30.62,9.47-30.39-8.85l-15.11.86.41-1.87c-9.64-1.28-13.11,3.04-16.56,7.4-2.22-1.28-.57-2.97-.37-3.92-14.08-3.89-15.48-3.12-27.46,5.85l-1.14-5.96c-3.26,3.44-20.27-9.65-34.24-2.96.15-.67.46-1.82,1.57-2.64-15.72,6.73-37-17.19-43.14,4.35l-10.4,5.13c13.29,1.95-2.18,9.36,3.23,13.06-5.27,1.17-13.42-6.8-6.95-7.79l.99,1.1c2.6-11.24-16.47-4.34-15.96-12.02-26.23,0-51.66-6.8-76.24-7.8l2.65,8.84-8.56-.69c-2.21-2.09-2.88-6.93,3.23-6.44-3.11-5.05-10.35,3.96-10.56,5.86-11.91-3.79,4.89-10.14,1.22-10.43l-5.01.56,1.1,1.05c-4.12,3.5-4.55,7.3-11.9,6.72-4.62-1.85-2.28-5.46-4.11-5.84.02-.62-.59-.93-2.81-.31l-10.8-.96,4.19,7.02c-4.86,3.32-10.15-.56-5.32,7.38-7.09-12.25-40.25-5.04-44.69-8.87-6.79,4.93-13.42,4.78-21.62,4.06,2.02,1.47,3.14,9.27-3.92,8.23,2.79-16.04-12.87-7.14-18.48-18.78,5.04,7.7-20.18,1.7-12.25,12.67-5.9-1.34-.3-6.02-4.76-9.84-14.13,6.15-31.01-4.34-48.47-2.19-.27,2.11,2.64,5.34-1.1,8.48l-9.19-10.55c-3.45,1.04-3.16,12.18-9.45,4.86.89,1.78,2.22,4.45-.08,5.13-8.53-2.6-17.16-3.27-25.85-3.19-8.68.08-17.41.92-26.16,1.48-8.75.59-17.51.99-26.29.01-8.77-.94-17.55-3.32-26.36-7.89,4.81,3.95,1.68,4.45-1.91,4.7,2.36.91.08,5.21.61,8.06l-14.74-7.52c-2.42,8.01-15.57.99-16.84,8.62l4.55-1.5c-5.81,9.13,9.16,19.65,8.6,31.17,3.24-5.19,7.84-1.55,12.94,1.53,5.1,3.09,10.7,5.55,16.11-1.82,2.51,2.3-2.01,3.74-.64,6.38,2.71-4.98,6.1-6.06,12.47-3.97l-.69,1.23c8.86-.76,15.22.04,21.85,1.39,6.63,1.32,13.54,3.29,23.51,4.84l-1.53-5.67c4.29.73,5.21,2.5,7.23,3.91,4.84-8.66-12.04-.39-7.65-9.93,5.79,11.53,30.25-.09,34.15,13.06,6.59.07-1.95-6.58,4.64-6.5l1.76,3.56,1.66-4.58c4.33.76,6.51,5.2,6.67,8.22-1.05-.36-2.98.84-4.1,1.1,5.6,4.19,15.79-1.43,17.71-.06l-6.33-2.19c17.99-3.39,39.94,1.5,57.4-5.61l-1.3-2.69c13.34-4.87,10.62,3.05,25.24.92l-.54.63c2.95-2.63,6.88-3.93,10.87-3.58-3.73,3.09,6.86,6.19,1.97,9.61,14.49-5.14,7.18-4.1,16.86-13.93l2.13,4.48c3.31-3.97,3.62-6.09,10.94-7.12-6.05,3.72,4.55,6.86-2.24,11.79,15.14,9.99,22.91-9.44,29.68,4.91,7.26-12.2-13.13-7.06-9.14-9.63-3.23-4.08,5.97-9.1,10.76-7.79,4.89.36,8.03,15.91,20.34,15.92-1.22-.08-1.32.85-2.55.77,4.54,3.23,9.11-4.07,14.66,1.14,3.32-7.38,7.33.57,8.43-8.91l-11.34,1.97c6.45-2.35,12.68-13.36,23.13-7.74-.86,1.9-4.06,4.35-6.24,5.71,3.03,2.87,5.98-1.73,9.12,1.21-1.11,9.49-13.78,1.78-20.78,8.89,3.23,4.08,13.11-6.63,9.45,3.6,5.23-12.99,12.1,1.91,20.65-7.91l-.67,5.68c1.34-.87,4.13-3.5,6.56-3.3l-4.55,7.29c6.89-6.15,12.9,5.78,19.45,2.49-13.56-.11-2.9-6.92-8.54-11.2,16.89-7.26,9.29,15.1,28.1,12.77-2.56.75-9.45-3.62-5.43-6.18,3.54,1.25,8.21,3.53,10.33,6.57,12.44-.92-1.78-5.9,3.58-9.28,4.08,7.03,6.16-2.69,11.65-4.8l-.08,5.79c14.07,4.01,4-11.97,16.65-7.23l-5.55,7.92,6.69-1.94-1.51,6.56c7.33-4.74,9.56-3.43,16.61-1.44-1.57-4.11,1.14-10.49,7.41-10.54,4.21,3.52-2.5,5.45,6.4,4.8-2.08,3.58-4.37,8.08-8.13,2.67-.43,1.88-2.05,3.59-2.5,5.45,4.53,4.05,11.56,1.13,14.78,1.15-1.24-.24-2.71-.58-3.46-1.42l13.05-7.77c1.99,2.21.35,3.93-1.28,5.61,2.63-.58,4.48-3.21,8.33-3.64-1.08,4.69-.93,9.55-6.41,11.67l12.39-5.01c.78,2.06,6.21,5.73,4.59,7.43,6.78,2.88,16.88-8.82,25.86-5.04.48-.91,1.44-1.77,3.37-2.42,8.48,1.18,15.95,7.05,26.11.73l5.62,8.51c7.92-1.81-7.62-10.73,5.56-13.74,9.33-2.6,3.4,7.23,6.64,9.61,4.68-4.22,12.8-12.81,21.29-5.87-2.84,1.57-5.05.3-7.7.91ZM700.3,71.26c-1.88,1.23-5.62,5-7.03,1.6,2.11-6.65,3.79-3.48,7.03-1.6ZM847.87,54.52c-1.35,1.95-3.54,1.06-6.03-1.07,1.76-.52,3.77-.35,6.03,1.07ZM1260.56,18.28c-.09.09-.15.15-.23.26-4.06-2.63-2.62-1.6.23-.26ZM1269.15,21.57c.96-.73.97-1.53.67-2.37-.75,1.4-2.73,1.33-4.95.72.49,1.57,1.54,2.71,4.28,1.65ZM332.47,16.86l1.67,1.55c-3.86,1.59-2.76.11-1.67-1.55Z"/>
      <path class="cls-1" d="M831.34,62.87c-.56-.96-.73-2.04-.88-3.12-.71.99-.7,2.12.88,3.12Z"/>
      <path class="cls-1" d="M542.23,77.27c-.1-.05-.2-.03-.3-.07-.17.34-.26.69-.31,1.04l.61-.97Z"/>
      <path class="cls-1" d="M1131.58,63.05c-1.75-.88-2.72-1.96-3.35-3.07-.13,1.41.65,2.63,3.35,3.07Z"/>
      <path class="cls-1" d="M1316.94,16.7l-5.84.8c2.77.05,3.6,1.43,4.87,2.51.04-1.36-.81-3.44.97-3.31Z"/>
      <path class="cls-1" d="M1360.62,58.81c.91-.57,1.72.2,2.62-.39l.2-2.69c-3.47-.38-6.19,1.38-2.82,3.08Z"/>
      <path class="cls-1" d="M1319.83,36.43c-.15,4.89,3.55,3.68,7.58,3.26-.24-.01-.47,0-.69-.08,2.03-6.62-2.45-4.89-6.89-3.18Z"/>
      <path class="cls-1" d="M1328.34,39.64c1.24-.07,2.49-.06,3.63.33.82-2.65-1.39-.76-3.63-.33Z"/>
      <path class="cls-1" d="M1280.62,19.36c1.75,1.45,1.79-6.07,2.66-3.99,1.36-2.96-1.97-1.46-4.29.59-2.32,2.05-3.65,4.54,1.64,3.39Z"/>
      <polygon class="cls-1" points="1321 52.74 1320.36 46.61 1317.58 51.15 1321 52.74"/>
      <path class="cls-1" d="M1290.82,44.83l6.05,2.31c.02-1.01.87-1.52,1.89-1.86-3.81-.6-7.9-2.23-7.94-.45Z"/>
      <path class="cls-1" d="M1298.75,45.27c1.99.33,3.9.4,5.12-.46-1.09-.05-3.44-.1-5.12.46Z"/>
      <polygon class="cls-1" points="1312.32 53.5 1310.63 52.03 1306.31 51.05 1312.32 53.5"/>
      <path class="cls-1" d="M1223.86,37.91l-6.93,1.31c-.82,2.02.95,3.39,3.54,2.72,1.72-1.34,4.3-1.98,3.39-4.03Z"/>
      <path class="cls-1" d="M1243.2,55.84c-1.73-1.38-1.75-2.73-2.63-4.78l-.77,7.42,3.4-2.64Z"/>
      <path class="cls-1" d="M1223.38,56.12c-.82,2.02-10.18,5.33-1.6,5.38.82-2.03,7.69-3.23,1.6-5.38Z"/>
      <polygon class="cls-1" points="1121.58 42.35 1123.31 42.3 1123.33 30.08 1121.58 42.35"/>
      <path class="cls-1" d="M1031.35,71c8.03,2.88,1.87-7.57,9.13-3.94,1.87-2.9-5.94-2.96-4.02-5.46-4.83,3.08-7.38,1.38-5.11,9.4Z"/>
      <path class="cls-1" d="M1036.46,61.6c.77-.49,1.59-1.08,2.47-1.88-1.4.77-2.06,1.36-2.47,1.88Z"/>
      <polygon class="cls-1" points="14.12 10.7 8.81 8.31 12.32 12.32 14.12 10.7"/>
      <path class="cls-1" d="M4.39,20.05l-1.49-7.75-2.89,7.14c1.17-.38,3.43-1.12,4.39.61Z"/>
      <path class="cls-1" d="M714.96,86.85l.38-1.88c-.83-2.02-2.06-2.16-4.51-2.46l4.14,4.34Z"/>
      <polygon class="cls-1" points="644.01 81.28 645.23 81.44 642.97 74.39 644.01 81.28"/>
      <path class="cls-1" d="M584.51,89.9c2.42.31,5.29-1.24,7.73-.92-5.3,1.23-8.29-7.87-7.73.92Z"/>
    </g>
  </g>
</svg>