<svg width="375" height="150" viewBox="0 0 375 150" fill="none" xmlns="http://www.w3.org/2000/svg">
<path d="M1.94904 61.1257L25.2205 0H35.9611L59.3198 61.1257H47.1384L42.292 48.202H18.9332L14.1742 61.1257H1.94904ZM22.6008 37.8543H38.5371L32.4245 21.4813C32.2208 20.9865 32.0025 20.4334 31.7696 19.8222C31.5368 19.2109 31.3185 18.5997 31.1147 17.9884C30.911 17.3481 30.7363 16.795 30.5908 16.3293C30.4452 16.795 30.2706 17.3481 30.0668 17.9884C29.8631 18.5997 29.6448 19.2109 29.4119 19.8222C29.1791 20.4334 28.9608 20.9865 28.757 21.4813L22.6008 37.8543Z" fill="black"/>
<path d="M64.8621 61.1257L88.1335 0H98.8742L122.233 61.1257H110.051L105.205 48.202H81.8463L77.0872 61.1257H64.8621ZM85.5138 37.8543H101.45L95.3376 21.4813C95.1338 20.9865 94.9155 20.4334 94.6827 19.8222C94.4498 19.2109 94.2315 18.5997 94.0278 17.9884C93.824 17.3481 93.6494 16.795 93.5038 16.3293C93.3583 16.795 93.1836 17.3481 92.9799 17.9884C92.7761 18.5997 92.5578 19.2109 92.325 19.8222C92.0921 20.4334 91.8738 20.9865 91.6701 21.4813L85.5138 37.8543Z" fill="black"/>
<path d="M0 97.114L5.95748 81.4658H8.70709L14.6869 97.114H11.5685L10.3278 93.8055H4.34796L3.12963 97.114H0ZM5.28685 91.1565H9.36655L7.80173 86.965C7.74957 86.8383 7.69368 86.6967 7.63407 86.5403C7.57446 86.3838 7.51857 86.2273 7.46641 86.0708C7.41425 85.9069 7.36954 85.7653 7.33229 85.6461C7.29503 85.7653 7.25032 85.9069 7.19816 86.0708C7.146 86.2273 7.09011 86.3838 7.0305 86.5403C6.97089 86.6967 6.915 86.8383 6.86284 86.965L5.28685 91.1565Z" fill="black"/>
<path d="M16.7666 97.114V81.4658H23.5177C24.7919 81.4658 25.7978 81.6707 26.5355 82.0805C27.2732 82.4829 27.7986 83.0082 28.1115 83.6565C28.4245 84.2974 28.581 84.968 28.581 85.6684C28.581 86.3689 28.4282 87.0097 28.1227 87.5909C27.8172 88.1647 27.3179 88.6081 26.6249 88.921C27.1913 89.1222 27.657 89.4128 28.0221 89.7928C28.3947 90.1654 28.6667 90.5902 28.838 91.0671C29.0169 91.5365 29.1063 92.0134 29.1063 92.4977C29.1063 93.0492 29.0132 93.6006 28.8269 94.152C28.648 94.6959 28.3537 95.1915 27.9439 95.6386C27.534 96.0856 26.9901 96.4433 26.312 96.7116C25.6413 96.9798 24.8142 97.114 23.8306 97.114H16.7666ZM19.6615 94.3979H24.0206C24.5795 94.3979 25.0154 94.301 25.3284 94.1073C25.6488 93.9135 25.8723 93.6714 25.999 93.3808C26.1331 93.0827 26.2002 92.7884 26.2002 92.4977C26.2002 92.1401 26.122 91.801 25.9655 91.4806C25.8165 91.1527 25.537 90.8845 25.1272 90.6758C24.7248 90.4672 24.1399 90.3629 23.3724 90.3629H19.6615V94.3979ZM19.6615 87.7586H23.16C24.0095 87.7586 24.6354 87.5947 25.0378 87.2668C25.4476 86.9315 25.6525 86.4881 25.6525 85.9367C25.6525 85.6535 25.6004 85.3778 25.496 85.1096C25.3917 84.8339 25.1905 84.6066 24.8925 84.4278C24.5944 84.2489 24.1548 84.1595 23.5736 84.1595H19.6615V87.7586Z" fill="black"/>
<path d="M37.6946 97.3599C36.48 97.3599 35.4517 97.1251 34.6097 96.6557C33.7751 96.1862 33.1008 95.564 32.5866 94.7891C32.0799 94.0067 31.7111 93.1386 31.4801 92.1848C31.2491 91.231 31.1336 90.266 31.1336 89.2899C31.1336 88.3659 31.2491 87.4307 31.4801 86.4844C31.7185 85.5306 32.0948 84.655 32.609 83.8577C33.1306 83.053 33.8087 82.4084 34.6432 81.924C35.4778 81.4397 36.4949 81.1975 37.6946 81.1975C38.6857 81.1975 39.5463 81.3652 40.2766 81.7005C41.0068 82.0284 41.6104 82.4568 42.0873 82.9859C42.5716 83.5075 42.9405 84.0552 43.1938 84.629L40.6007 85.8361C40.3474 85.4486 40.0866 85.117 39.8183 84.8413C39.5501 84.5582 39.2445 84.3421 38.9018 84.193C38.5665 84.0366 38.1641 83.9583 37.6946 83.9583C37.024 83.9583 36.4614 84.1222 36.0069 84.4501C35.5523 84.7705 35.1872 85.1953 34.9115 85.7243C34.6358 86.2534 34.4383 86.8309 34.3191 87.4568C34.1999 88.0827 34.1403 88.6938 34.1403 89.2899C34.1403 89.9232 34.2073 90.5529 34.3414 91.1788C34.4756 91.8048 34.6879 92.3748 34.9786 92.8889C35.2692 93.4031 35.638 93.8167 36.0851 94.1296C36.5322 94.4351 37.0687 94.5879 37.6946 94.5879C38.3653 94.5879 38.9279 94.4016 39.3824 94.029C39.8444 93.649 40.2542 93.1647 40.6119 92.576L43.2609 93.5708C42.9256 94.2936 42.5046 94.9418 41.9979 95.5156C41.4912 96.0894 40.8839 96.5402 40.176 96.8681C39.4681 97.1959 38.641 97.3599 37.6946 97.3599Z" fill="black"/>
<path d="M45.5943 97.114V81.4658H50.87C52.2262 81.4658 53.3812 81.6893 54.335 82.1364C55.2888 82.5761 56.06 83.1722 56.6487 83.9248C57.2448 84.6699 57.677 85.5082 57.9452 86.4397C58.2209 87.3637 58.3588 88.3137 58.3588 89.2899C58.3588 90.1841 58.2284 91.0894 57.9676 92.0059C57.7142 92.9225 57.2969 93.7682 56.7157 94.5432C56.1345 95.3107 55.3558 95.9329 54.3797 96.4098C53.411 96.8792 52.2113 97.114 50.7806 97.114H45.5943ZM48.4892 94.3643H51.0824C51.8797 94.3643 52.5503 94.2153 53.0943 93.9173C53.6382 93.6117 54.0742 93.2131 54.402 92.7213C54.7373 92.222 54.9795 91.6744 55.1285 91.0782C55.285 90.4747 55.3633 89.8785 55.3633 89.2899C55.3633 88.6639 55.285 88.0492 55.1285 87.4456C54.9721 86.8421 54.7299 86.2944 54.402 85.8026C54.0742 85.3108 53.6569 84.9196 53.1502 84.629C52.6435 84.3383 52.0362 84.193 51.3283 84.193H48.4892V94.3643Z" fill="black"/>
<path d="M61.1543 97.114V81.4658H71.728V84.2154H64.0492V87.658H68.5984V90.4076H64.0492V94.342H72.1974V97.114H61.1543Z" fill="black"/>
<path d="M74.7932 97.114V81.4658H85.1992V84.2154H77.6881V87.658H82.4943V90.4076H77.6881V97.114H74.7932Z" fill="black"/>
<path d="M93.1622 97.3822C91.9625 97.3822 90.9304 97.1587 90.066 96.7116C89.2017 96.257 88.4975 95.646 87.9535 94.8785C87.4096 94.1035 87.0035 93.2354 86.7352 92.2742C86.4744 91.3055 86.344 90.3107 86.344 89.2899C86.344 88.3137 86.4781 87.3488 86.7464 86.395C87.0221 85.4412 87.4357 84.5731 87.9871 83.7907C88.5459 83.0082 89.2538 82.3823 90.1108 81.9129C90.9677 81.436 91.9848 81.1975 93.1622 81.1975C94.1607 81.1975 95.0027 81.354 95.6882 81.667C96.3812 81.9799 96.9624 82.3898 97.4319 82.8965C97.9088 83.3957 98.3223 83.9248 98.6725 84.4837L96.1241 85.9367C95.7814 85.4076 95.3753 84.9456 94.9058 84.5507C94.4438 84.1558 93.8626 83.9583 93.1622 83.9583C92.4319 83.9583 91.8209 84.1222 91.3291 84.4501C90.8447 84.778 90.4573 85.2064 90.1666 85.7355C89.876 86.2646 89.6674 86.8421 89.5407 87.468C89.414 88.0865 89.3507 88.6938 89.3507 89.2899C89.3507 89.968 89.4215 90.6237 89.5631 91.2571C89.7047 91.8905 89.9282 92.4605 90.2337 92.9672C90.5392 93.4739 90.9341 93.8763 91.4185 94.1743C91.9028 94.4649 92.4841 94.6103 93.1622 94.6103C93.6763 94.6103 94.142 94.4948 94.5593 94.2638C94.984 94.0328 95.3194 93.7235 95.5653 93.336C95.8112 92.9411 95.9341 92.4977 95.9341 92.0059V91.7153H93.2739V88.9769H98.9184V91.2347C98.9184 92.5611 98.6614 93.6825 98.1472 94.5991C97.6405 95.5082 96.9512 96.2012 96.0794 96.678C95.215 97.1475 94.2426 97.3822 93.1622 97.3822Z" fill="black"/>
<path d="M101.962 97.114V81.4658H104.857V87.6692H111.474V81.4658H114.369V97.114H111.474V90.43H104.857V97.114H101.962Z" fill="black"/>
<path d="M117.806 97.114V81.4658H120.7V97.114H117.806Z" fill="black"/>
<path d="M127.533 97.3822C126.416 97.3822 125.41 97.0804 124.515 96.4769C123.621 95.8733 122.936 95.035 122.459 93.962L124.963 92.7884C125.275 93.3621 125.629 93.8092 126.024 94.1296C126.419 94.4426 126.926 94.5991 127.544 94.5991C127.85 94.5991 128.141 94.5544 128.416 94.4649C128.692 94.3755 128.942 94.2228 129.165 94.0067C129.396 93.7906 129.575 93.4888 129.702 93.1013C129.836 92.7064 129.903 92.2034 129.903 91.5924V81.4658H132.809V91.7153C132.809 92.8256 132.649 93.7496 132.328 94.4873C132.008 95.2175 131.583 95.795 131.054 96.2198C130.533 96.6371 129.962 96.9351 129.344 97.114C128.733 97.2928 128.129 97.3822 127.533 97.3822Z" fill="black"/>
<path d="M136.198 97.114V81.4658H139.093V88.9546L145.04 81.4658H148.46L143.922 87.0544L149.455 97.114H146.068L141.955 89.4911L139.093 93.0454V97.114H136.198Z" fill="black"/>
<path d="M151.78 97.114V81.4658H154.675V94.3085H162.242V97.114H151.78Z" fill="black"/>
<path d="M171.416 97.3822L167.415 88.6639C167.363 88.5522 167.307 88.4218 167.247 88.2727C167.188 88.1237 167.136 87.9747 167.091 87.8256C167.098 87.9449 167.102 88.0864 167.102 88.2504C167.109 88.4143 167.113 88.5596 167.113 88.6863V97.114H164.218V81.4658H167.113L171.081 90.3405C171.156 90.5045 171.223 90.6684 171.282 90.8323C171.349 90.9888 171.413 91.1528 171.472 91.3241C171.532 91.1528 171.592 90.9851 171.651 90.8212C171.711 90.6572 171.774 90.497 171.841 90.3405L175.887 81.4658H178.603V97.114H175.709V88.6639C175.709 88.5298 175.709 88.3808 175.709 88.2169C175.716 88.0529 175.72 87.9188 175.72 87.8145C175.675 87.9486 175.619 88.0939 175.552 88.2504C175.492 88.3994 175.433 88.5373 175.373 88.6639L171.416 97.3822Z" fill="black"/>
<path d="M182.049 97.114V81.4658H184.754L190.923 90.6758C191.005 90.81 191.11 90.9925 191.236 91.2235C191.37 91.4471 191.482 91.652 191.572 91.8383C191.549 91.6744 191.531 91.4769 191.516 91.2459C191.508 91.0074 191.505 90.8174 191.505 90.6758V81.4658H194.388V97.114H191.806L185.514 87.8368C185.432 87.7101 185.324 87.5313 185.189 87.3003C185.063 87.0693 184.955 86.8607 184.865 86.6744C184.888 86.8607 184.903 87.0619 184.91 87.278C184.917 87.4941 184.921 87.6803 184.921 87.8368V97.114H182.049ZM190.163 79.7892C189.746 79.7892 189.362 79.7259 189.012 79.5992C188.662 79.4725 188.334 79.3421 188.028 79.208C187.76 79.0888 187.499 78.9844 187.246 78.895C187 78.7981 186.743 78.7497 186.475 78.7497C186.199 78.7497 185.957 78.8205 185.748 78.9621C185.54 79.1037 185.432 79.3496 185.424 79.6998H184.094C184.094 79.1186 184.176 78.6007 184.34 78.1461C184.504 77.6916 184.772 77.3376 185.145 77.0843C185.517 76.8235 186.013 76.6931 186.631 76.6931C187.056 76.6931 187.44 76.7527 187.783 76.8719C188.133 76.9911 188.461 77.1216 188.766 77.2631C189.027 77.3898 189.284 77.5016 189.537 77.5984C189.798 77.6879 190.059 77.7326 190.32 77.7326C190.603 77.7326 190.845 77.6618 191.046 77.5202C191.255 77.3786 191.363 77.1327 191.37 76.7825H192.689C192.689 77.3563 192.607 77.8704 192.444 78.325C192.28 78.7721 192.011 79.1297 191.639 79.398C191.274 79.6588 190.782 79.7892 190.163 79.7892Z" fill="black"/>
<path d="M204.009 97.3822C202.757 97.3822 201.695 97.1475 200.824 96.678C199.952 96.2012 199.248 95.5715 198.711 94.7891C198.182 93.9992 197.794 93.1274 197.549 92.1736C197.303 91.2198 197.18 90.2586 197.18 89.2899C197.18 88.3212 197.303 87.3599 197.549 86.4061C197.794 85.4523 198.182 84.5842 198.711 83.8018C199.248 83.012 199.952 82.3823 200.824 81.9129C201.695 81.436 202.757 81.1975 204.009 81.1975C205.261 81.1975 206.319 81.436 207.183 81.9129C208.055 82.3823 208.756 83.012 209.285 83.8018C209.821 84.5842 210.209 85.4523 210.447 86.4061C210.693 87.3599 210.816 88.3212 210.816 89.2899C210.816 90.2586 210.693 91.2198 210.447 92.1736C210.209 93.1274 209.821 93.9992 209.285 94.7891C208.756 95.5715 208.055 96.2012 207.183 96.678C206.319 97.1475 205.261 97.3822 204.009 97.3822ZM204.009 94.5991C204.709 94.5991 205.302 94.4351 205.786 94.1073C206.278 93.7794 206.673 93.3509 206.971 92.8219C207.269 92.2928 207.485 91.7191 207.619 91.1006C207.753 90.4747 207.82 89.8711 207.82 89.2899C207.82 88.6639 207.753 88.038 207.619 87.4121C207.493 86.7787 207.28 86.2049 206.982 85.6908C206.692 85.1692 206.3 84.7519 205.809 84.4389C205.324 84.1185 204.724 83.9583 204.009 83.9583C203.286 83.9583 202.679 84.1222 202.187 84.4501C201.703 84.778 201.312 85.2102 201.014 85.7467C200.723 86.2757 200.511 86.8532 200.376 87.4792C200.25 88.0976 200.186 88.7012 200.186 89.2899C200.186 89.9083 200.25 90.5305 200.376 91.1565C200.511 91.7824 200.727 92.3562 201.025 92.8778C201.33 93.3994 201.725 93.8167 202.209 94.1296C202.701 94.4426 203.301 94.5991 204.009 94.5991Z" fill="black"/>
<path d="M213.605 97.114V81.4658H220.211C221.53 81.4658 222.577 81.708 223.352 82.1923C224.127 82.6692 224.682 83.284 225.017 84.0366C225.353 84.7817 225.52 85.5604 225.52 86.3726C225.52 86.9389 225.42 87.5127 225.218 88.0939C225.025 88.6677 224.715 89.1967 224.291 89.6811C223.873 90.158 223.326 90.5455 222.648 90.8435C221.977 91.1341 221.165 91.2794 220.211 91.2794H216.5V97.114H213.605ZM216.5 88.5522H220.345C220.882 88.5522 221.31 88.4441 221.63 88.228C221.958 88.0045 222.193 87.7251 222.335 87.3897C222.476 87.0544 222.547 86.7154 222.547 86.3726C222.547 86.0596 222.48 85.7355 222.346 85.4002C222.219 85.0574 221.996 84.7705 221.675 84.5395C221.355 84.3085 220.911 84.193 220.345 84.193H216.5V88.5522Z" fill="black"/>
<path d="M237.299 98.8129L236.059 96.991C235.701 97.1102 235.325 97.2034 234.93 97.2704C234.542 97.345 234.118 97.3822 233.656 97.3822C232.404 97.3822 231.342 97.1475 230.47 96.678C229.598 96.2012 228.894 95.5715 228.358 94.7891C227.821 93.9992 227.43 93.1274 227.184 92.1736C226.938 91.2198 226.815 90.2586 226.815 89.2899C226.815 88.3212 226.938 87.3599 227.184 86.4061C227.43 85.4523 227.821 84.5842 228.358 83.8018C228.894 83.012 229.598 82.3823 230.47 81.9129C231.342 81.436 232.404 81.1975 233.656 81.1975C234.908 81.1975 235.966 81.436 236.83 81.9129C237.702 82.3823 238.406 83.012 238.943 83.8018C239.479 84.5842 239.867 85.4523 240.105 86.4061C240.351 87.3599 240.474 88.3212 240.474 89.2899C240.474 90.0723 240.396 90.851 240.239 91.6259C240.09 92.3934 239.848 93.1237 239.513 93.8167C239.185 94.5022 238.752 95.1132 238.216 95.6497L239.423 97.4046L237.299 98.8129ZM233.644 94.5991C233.786 94.5991 233.916 94.5879 234.036 94.5655C234.155 94.5357 234.267 94.4985 234.371 94.4538L233.164 92.6654L235.321 91.2571L236.495 93.0343C236.845 92.535 237.095 91.9426 237.244 91.2571C237.393 90.5641 237.467 89.9083 237.467 89.2899C237.467 88.6639 237.4 88.038 237.266 87.4121C237.139 86.7787 236.927 86.2049 236.629 85.6908C236.338 85.1692 235.947 84.7519 235.455 84.4389C234.971 84.1185 234.371 83.9583 233.656 83.9583C232.933 83.9583 232.326 84.1222 231.834 84.4501C231.342 84.778 230.947 85.2102 230.649 85.7467C230.358 86.2757 230.146 86.8532 230.012 87.4792C229.885 88.0976 229.822 88.7012 229.822 89.2899C229.822 89.9083 229.885 90.5305 230.012 91.1565C230.146 91.7824 230.362 92.3562 230.66 92.8778C230.966 93.3994 231.361 93.8167 231.845 94.1296C232.337 94.4426 232.937 94.5991 233.644 94.5991Z" fill="black"/>
<path d="M243.263 97.114V81.4658H250.382C251.686 81.4658 252.715 81.6931 253.467 82.1476C254.227 82.5947 254.768 83.1871 255.088 83.9248C255.416 84.6625 255.58 85.4561 255.58 86.3055C255.58 86.8942 255.464 87.4903 255.233 88.0939C255.01 88.6975 254.667 89.2414 254.205 89.7258C253.743 90.2101 253.162 90.5678 252.461 90.7988L255.546 97.114H252.294L249.332 91.19H246.157V97.114H243.263ZM246.157 88.4628H250.427C250.971 88.4628 251.4 88.3622 251.713 88.161C252.033 87.9523 252.26 87.6841 252.394 87.3562C252.528 87.0283 252.596 86.6818 252.596 86.3167C252.596 85.9889 252.532 85.661 252.406 85.3331C252.279 85.0053 252.059 84.7333 251.746 84.5172C251.433 84.3011 250.993 84.193 250.427 84.193H246.157V88.4628Z" fill="black"/>
<path d="M263.155 97.3822C262.179 97.3822 261.292 97.2108 260.495 96.8681C259.698 96.5253 259.012 96.0409 258.438 95.415C257.872 94.7816 257.447 94.0365 257.164 93.1796L259.791 92.2071C260.126 92.9225 260.592 93.5112 261.188 93.9731C261.792 94.4277 262.47 94.655 263.222 94.655C264.02 94.655 264.653 94.4873 265.122 94.152C265.599 93.8167 265.838 93.3286 265.838 92.6878C265.838 92.2481 265.696 91.883 265.413 91.5924C265.137 91.2943 264.761 91.041 264.284 90.8323C263.815 90.6162 263.282 90.4076 262.686 90.2064C262.112 90.0127 261.535 89.7966 260.953 89.5581C260.372 89.3197 259.839 89.0291 259.355 88.6863C258.871 88.3361 258.479 87.8964 258.181 87.3674C257.891 86.8383 257.745 86.19 257.745 85.4225C257.745 84.655 257.95 83.9509 258.36 83.31C258.77 82.6692 259.362 82.1588 260.137 81.7787C260.92 81.3913 261.866 81.1975 262.976 81.1975C263.885 81.1975 264.69 81.354 265.391 81.667C266.099 81.9725 266.684 82.3898 267.146 82.9188C267.608 83.4479 267.928 84.0477 268.107 84.7184L265.514 85.579C265.305 85.1096 264.985 84.7184 264.552 84.4054C264.128 84.085 263.55 83.9248 262.82 83.9248C262.134 83.9248 261.602 84.0589 261.222 84.3272C260.842 84.5954 260.652 84.9754 260.652 85.4672C260.652 85.8026 260.778 86.0894 261.032 86.3279C261.292 86.5589 261.639 86.7675 262.071 86.9538C262.511 87.1401 263.006 87.3301 263.558 87.5239C264.176 87.7325 264.791 87.9709 265.402 88.2392C266.02 88.5 266.579 88.8204 267.078 89.2005C267.585 89.5805 267.991 90.0537 268.297 90.62C268.602 91.1788 268.755 91.8644 268.755 92.6766C268.755 93.6751 268.505 94.5246 268.006 95.225C267.514 95.9254 266.847 96.462 266.005 96.8345C265.163 97.1997 264.213 97.3822 263.155 97.3822Z" fill="black"/>
<path d="M274.528 97.114V84.2489H270.091V81.4658H281.883V84.2489H277.423V97.114H274.528Z" fill="black"/>
<path d="M290.435 97.3822C289.123 97.3822 288.002 97.14 287.07 96.6557C286.146 96.1639 285.439 95.4523 284.947 94.5208C284.462 93.5894 284.22 92.4642 284.22 91.1453V81.4658H287.115V91.1453C287.115 92.3301 287.38 93.2019 287.909 93.7608C288.438 94.3196 289.28 94.5991 290.435 94.5991C291.165 94.5991 291.776 94.4836 292.268 94.2526C292.76 94.0216 293.128 93.6527 293.374 93.146C293.62 92.6319 293.743 91.965 293.743 91.1453V81.4658H296.649V91.1453C296.649 92.2481 296.485 93.1945 296.158 93.9843C295.837 94.7742 295.39 95.4225 294.816 95.9292C294.25 96.4284 293.59 96.7973 292.838 97.0357C292.085 97.2667 291.284 97.3822 290.435 97.3822Z" fill="black"/>
<path d="M304.46 97.114L298.905 81.4658H302.035L305.533 91.8271C305.586 91.9836 305.638 92.1475 305.69 92.3189C305.749 92.4828 305.798 92.6356 305.835 92.7772C305.857 92.6505 305.891 92.5052 305.936 92.3413C305.988 92.1699 306.044 91.9985 306.103 91.8271L309.58 81.4658H312.676L307.143 97.114H304.46Z" fill="black"/>
<path d="M317.295 97.114L314.009 81.4658H317.004L318.703 90.2735C318.748 90.5119 318.785 90.7243 318.815 90.9106C318.845 91.0969 318.871 91.3018 318.893 91.5253C318.923 91.3167 318.96 91.1118 319.005 90.9106C319.05 90.7019 319.102 90.4896 319.162 90.2735L321.386 81.4658H323.867L326.103 90.2623C326.162 90.4709 326.211 90.6759 326.248 90.877C326.285 91.0782 326.319 91.2831 326.349 91.4918C326.378 91.2906 326.408 91.0969 326.438 90.9106C326.475 90.7168 326.512 90.5194 326.55 90.3182L328.327 81.4658H331.311L327.925 97.114H325.298L322.817 87.7251C322.764 87.5462 322.72 87.3748 322.682 87.2109C322.653 87.047 322.623 86.857 322.593 86.6409C322.556 86.8644 322.518 87.0544 322.481 87.2109C322.451 87.3674 322.414 87.535 322.369 87.7139L319.944 97.114H317.295Z" fill="black"/>
<path d="M332.692 97.114L337.721 89.044L333.005 81.4658H336.369L339.398 86.3726L342.405 81.4658H345.769L341.063 88.9993L346.104 97.114H342.729L339.376 91.6818L336.056 97.114H332.692Z" fill="black"/>
<path d="M352.525 97.114V91.0112L346.791 81.4658H350.055L353.955 87.9933L357.867 81.4658H361.109L355.397 90.9888V97.114H352.525Z" fill="black"/>
<path d="M362.441 97.114V94.9456L370.589 84.2042H362.933V81.4658H374.423V83.6342L366.219 94.3755H374.423V97.114H362.441Z" fill="black"/>
<path d="M6.68401 119.382C5.56628 119.382 4.63857 119.147 3.90087 118.678C3.16317 118.201 2.57822 117.568 2.14603 116.778C1.71385 115.988 1.40461 115.116 1.21832 114.162C1.03949 113.209 0.950068 112.251 0.950068 111.29C0.950068 110.53 1.00595 109.766 1.11773 108.999C1.2295 108.224 1.41206 107.49 1.66541 106.797C1.92622 106.104 2.27644 105.489 2.71608 104.952C3.15571 104.408 3.69968 103.98 4.34796 103.667C5.00369 103.354 5.78237 103.198 6.68401 103.198C7.79428 103.198 8.71827 103.432 9.45597 103.902C10.2011 104.371 10.7861 104.997 11.2108 105.779C11.643 106.562 11.9485 107.434 12.1273 108.395C12.3136 109.349 12.4068 110.314 12.4068 111.29C12.4068 112.05 12.3509 112.814 12.2391 113.581C12.1273 114.349 11.941 115.079 11.6802 115.772C11.4194 116.465 11.0692 117.083 10.6296 117.627C10.1899 118.171 9.64598 118.6 8.9977 118.913C8.34942 119.226 7.57819 119.382 6.68401 119.382ZM6.68401 116.655C7.23542 116.655 7.68996 116.502 8.04763 116.197C8.41276 115.884 8.69964 115.47 8.90828 114.956C9.12438 114.442 9.27713 113.868 9.36655 113.235C9.45597 112.601 9.50068 111.953 9.50068 111.29C9.50068 110.619 9.45224 109.967 9.35537 109.334C9.26595 108.7 9.11692 108.127 8.90828 107.613C8.69964 107.091 8.41276 106.681 8.04763 106.383C7.68996 106.078 7.23542 105.925 6.68401 105.925C6.12514 105.925 5.66315 106.078 5.29802 106.383C4.9329 106.689 4.64229 107.102 4.4262 107.624C4.2101 108.138 4.05735 108.712 3.96793 109.345C3.87851 109.978 3.8338 110.627 3.8338 111.29C3.8338 111.953 3.87851 112.605 3.96793 113.246C4.05735 113.879 4.2101 114.453 4.4262 114.967C4.64229 115.481 4.9329 115.891 5.29802 116.197C5.6706 116.502 6.13259 116.655 6.68401 116.655Z" fill="black"/>
<path d="M16.9722 119.114V107.434H14.569V105.165C15.0683 105.165 15.5191 105.113 15.9215 105.008C16.3239 104.904 16.6629 104.729 16.9386 104.483C17.2218 104.237 17.4341 103.898 17.5757 103.466H19.8671V119.114H16.9722Z" fill="black"/>
<path d="M23.9667 119.114C23.9667 117.966 24.1045 116.96 24.3802 116.096C24.6559 115.224 25.036 114.457 25.5203 113.794C26.0047 113.13 26.5635 112.545 27.1969 112.039C27.8377 111.532 28.5158 111.077 29.2312 110.675C29.6559 110.437 30.0546 110.183 30.4271 109.915C30.7997 109.647 31.1015 109.345 31.3325 109.01C31.5635 108.674 31.679 108.287 31.679 107.847C31.679 107.259 31.4815 106.793 31.0866 106.45C30.6991 106.1 30.1775 105.925 29.5218 105.925C28.8362 105.925 28.2699 106.089 27.8228 106.417C27.3832 106.737 27.0404 107.184 26.7945 107.758L24.2126 106.584C24.6299 105.556 25.3154 104.736 26.2692 104.125C27.2304 103.507 28.3035 103.198 29.4882 103.198C30.5613 103.198 31.4741 103.402 32.2267 103.812C32.9867 104.215 33.5642 104.762 33.9592 105.455C34.3615 106.141 34.5627 106.916 34.5627 107.78C34.5627 108.689 34.3988 109.449 34.0709 110.06C33.7505 110.671 33.3109 111.2 32.752 111.648C32.2006 112.095 31.5821 112.519 30.8966 112.922C30.2185 113.324 29.641 113.697 29.1641 114.039C28.6947 114.375 28.3109 114.725 28.0128 115.09C27.7148 115.448 27.4912 115.861 27.3422 116.331H34.6968V119.114H23.9667Z" fill="black"/>
<path d="M42.5842 119.382C41.2652 119.382 40.1252 119.066 39.1639 118.432C38.2101 117.791 37.5022 116.879 37.0402 115.694L39.6334 114.643C40.2965 115.977 41.2801 116.644 42.5842 116.644C43.3442 116.644 43.9403 116.457 44.3725 116.085C44.8122 115.712 45.032 115.202 45.032 114.554C45.032 113.943 44.8084 113.458 44.3613 113.101C43.9143 112.735 43.3144 112.553 42.5618 112.553H41.0529V109.792H42.5171C43.1281 109.792 43.6087 109.617 43.959 109.267C44.3166 108.909 44.4955 108.432 44.4955 107.836C44.4955 107.27 44.3129 106.812 43.9478 106.461C43.5827 106.104 43.1058 105.925 42.5171 105.925C42.0104 105.925 41.5521 106.059 41.1423 106.327C40.7399 106.588 40.4009 106.972 40.1252 107.478L37.5097 106.461C37.994 105.426 38.6721 104.624 39.5439 104.058C40.4232 103.484 41.4217 103.198 42.5394 103.198C43.4932 103.198 44.3353 103.384 45.0655 103.756C45.7958 104.122 46.3658 104.636 46.7756 105.299C47.1855 105.955 47.3904 106.711 47.3904 107.568C47.3904 108.291 47.2227 108.954 46.8874 109.557C46.5595 110.154 46.0975 110.638 45.5014 111.01C46.254 111.308 46.8464 111.8 47.2786 112.486C47.7108 113.171 47.9269 113.961 47.9269 114.855C47.9269 115.735 47.6996 116.517 47.2451 117.203C46.7905 117.881 46.1572 118.414 45.3449 118.801C44.5402 119.188 43.6199 119.382 42.5842 119.382Z" fill="black"/>
<path d="M57.5083 119.114V115.873H49.5165V114.062L57.5641 103.466H60.3361V113.201H62.3145V115.873H60.3361V119.114H57.5083ZM53.2721 113.201H57.5083V107.478L53.2721 113.201Z" fill="black"/>
<path d="M69.5814 119.382C68.7916 119.382 68.08 119.3 67.4466 119.136C66.8132 118.98 66.2618 118.779 65.7924 118.533C65.3229 118.279 64.9392 118.026 64.6411 117.773L66.1947 115.504C66.463 115.705 66.761 115.895 67.0889 116.074C67.4242 116.245 67.7931 116.387 68.1955 116.498C68.6053 116.61 69.0636 116.666 69.5703 116.666C70.1738 116.666 70.7029 116.554 71.1574 116.331C71.6194 116.107 71.9808 115.791 72.2416 115.381C72.5024 114.971 72.6328 114.487 72.6328 113.928C72.6328 113.443 72.5397 113.019 72.3534 112.653C72.1746 112.281 71.9138 111.99 71.571 111.782C71.2357 111.566 70.8221 111.458 70.3303 111.458C69.7118 111.458 69.194 111.569 68.7767 111.793C68.3594 112.009 67.998 112.292 67.6925 112.642L65.1217 111.402L65.6582 103.466H74.533V106.227H68.2961L68.0166 109.311C68.3743 109.133 68.7506 108.991 69.1455 108.887C69.5405 108.775 69.9615 108.719 70.4086 108.719C71.5039 108.719 72.4316 108.95 73.1917 109.412C73.9592 109.874 74.5404 110.496 74.9354 111.279C75.3377 112.061 75.5389 112.933 75.5389 113.894C75.5389 114.982 75.2818 115.94 74.7677 116.767C74.261 117.586 73.5605 118.227 72.6664 118.689C71.7722 119.151 70.7439 119.382 69.5814 119.382Z" fill="black"/>
<path d="M83.7951 119.382C82.8711 119.382 82.0552 119.233 81.3473 118.935C80.6394 118.63 80.047 118.205 79.5701 117.661C79.0932 117.109 78.7318 116.469 78.4859 115.738C78.2474 115.001 78.1282 114.203 78.1282 113.346C78.1282 111.715 78.4524 110.194 79.1006 108.786C79.7489 107.378 80.7437 106.182 82.085 105.198C83.4262 104.215 85.1326 103.548 87.2041 103.198V105.88C86.4217 106.029 85.6542 106.282 84.9016 106.64C84.149 106.998 83.4784 107.46 82.8897 108.026C82.3011 108.592 81.8689 109.263 81.5932 110.038C81.8838 109.792 82.2526 109.595 82.6997 109.446C83.1468 109.289 83.6535 109.211 84.2198 109.211C85.196 109.211 86.0641 109.431 86.8241 109.87C87.5916 110.31 88.1952 110.91 88.6348 111.67C89.0819 112.43 89.3055 113.294 89.3055 114.263C89.3055 115.269 89.067 116.156 88.5901 116.923C88.1132 117.691 87.4575 118.294 86.6229 118.734C85.7958 119.166 84.8532 119.382 83.7951 119.382ZM83.7839 116.655C84.2981 116.655 84.7563 116.558 85.1587 116.364C85.5611 116.171 85.8741 115.902 86.0976 115.56C86.3211 115.209 86.4329 114.792 86.4329 114.308C86.4329 113.585 86.1833 113.011 85.684 112.586C85.1922 112.154 84.5589 111.938 83.7839 111.938C83.2623 111.938 82.7966 112.039 82.3867 112.24C81.9844 112.434 81.6677 112.709 81.4367 113.067C81.2057 113.425 81.0902 113.838 81.0902 114.308C81.0902 114.792 81.2057 115.209 81.4367 115.56C81.6751 115.902 81.9955 116.171 82.3979 116.364C82.8078 116.558 83.2698 116.655 83.7839 116.655Z" fill="black"/>
<path d="M93.9488 119.114C93.9562 117.43 94.1015 115.854 94.3847 114.386C94.6753 112.911 95.1186 111.502 95.7148 110.161C96.3183 108.82 97.0933 107.505 98.0396 106.215H90.875V103.466H101.415V105.824C100.558 106.793 99.8354 107.866 99.2468 109.043C98.6656 110.221 98.1961 111.424 97.8384 112.653C97.4882 113.876 97.2349 115.045 97.0784 116.163C96.9219 117.281 96.8437 118.264 96.8437 119.114H93.9488Z" fill="black"/>
<path d="M108.387 119.382C107.254 119.382 106.27 119.174 105.436 118.756C104.601 118.339 103.953 117.758 103.491 117.013C103.036 116.267 102.809 115.403 102.809 114.42C102.809 113.51 103.044 112.724 103.513 112.061C103.99 111.39 104.627 110.88 105.425 110.53C105.089 110.358 104.769 110.124 104.463 109.826C104.158 109.528 103.908 109.17 103.715 108.753C103.528 108.328 103.435 107.851 103.435 107.322C103.435 106.517 103.633 105.806 104.028 105.187C104.43 104.569 105 104.084 105.738 103.734C106.483 103.376 107.366 103.198 108.387 103.198C109.415 103.198 110.298 103.376 111.036 103.734C111.781 104.084 112.355 104.569 112.757 105.187C113.159 105.806 113.361 106.517 113.361 107.322C113.361 107.836 113.264 108.306 113.07 108.73C112.876 109.148 112.627 109.509 112.321 109.814C112.016 110.113 111.691 110.344 111.349 110.507C112.131 110.85 112.768 111.364 113.26 112.05C113.752 112.735 113.998 113.525 113.998 114.42C113.998 115.403 113.77 116.267 113.316 117.013C112.861 117.758 112.213 118.339 111.371 118.756C110.529 119.174 109.534 119.382 108.387 119.382ZM108.387 116.789C108.908 116.789 109.374 116.688 109.784 116.487C110.194 116.279 110.514 115.992 110.745 115.627C110.983 115.254 111.103 114.826 111.103 114.341C111.103 113.872 110.987 113.455 110.756 113.089C110.525 112.717 110.205 112.426 109.795 112.218C109.385 112.009 108.916 111.905 108.387 111.905C107.85 111.905 107.377 112.009 106.967 112.218C106.565 112.426 106.252 112.717 106.028 113.089C105.805 113.455 105.693 113.872 105.693 114.341C105.693 114.826 105.805 115.254 106.028 115.627C106.259 115.992 106.576 116.279 106.978 116.487C107.388 116.688 107.858 116.789 108.387 116.789ZM108.387 109.345C109.02 109.345 109.527 109.174 109.907 108.831C110.294 108.488 110.488 108.06 110.488 107.545C110.488 107.009 110.29 106.573 109.896 106.238C109.508 105.902 109.005 105.735 108.387 105.735C107.746 105.735 107.239 105.902 106.867 106.238C106.494 106.573 106.308 107.009 106.308 107.545C106.308 108.06 106.49 108.488 106.855 108.831C107.22 109.174 107.731 109.345 108.387 109.345Z" fill="black"/>
<path d="M118.802 119.382V116.711C119.585 116.644 120.345 116.454 121.082 116.141C121.82 115.828 122.468 115.362 123.027 114.744C123.594 114.125 124.007 113.328 124.268 112.352C123.955 112.627 123.564 112.851 123.094 113.022C122.632 113.186 122.103 113.268 121.507 113.268C120.509 113.268 119.618 113.067 118.836 112.665C118.053 112.255 117.435 111.677 116.98 110.932C116.533 110.18 116.31 109.285 116.31 108.25C116.31 107.236 116.548 106.353 117.025 105.601C117.509 104.841 118.173 104.252 119.015 103.835C119.864 103.41 120.833 103.198 121.921 103.198C123.217 103.198 124.283 103.462 125.117 103.991C125.959 104.513 126.582 105.232 126.984 106.148C127.386 107.057 127.588 108.093 127.588 109.256C127.588 111.178 127.26 112.881 126.604 114.364C125.956 115.839 124.98 117.016 123.676 117.896C122.379 118.767 120.755 119.263 118.802 119.382ZM121.887 110.597C122.394 110.597 122.841 110.504 123.228 110.317C123.623 110.131 123.929 109.859 124.145 109.502C124.369 109.144 124.48 108.712 124.48 108.205C124.48 107.743 124.369 107.333 124.145 106.975C123.921 106.618 123.616 106.338 123.228 106.137C122.841 105.936 122.398 105.835 121.898 105.835C121.332 105.835 120.844 105.936 120.434 106.137C120.024 106.338 119.708 106.618 119.484 106.975C119.268 107.333 119.16 107.739 119.16 108.194C119.16 108.7 119.268 109.133 119.484 109.49C119.708 109.848 120.021 110.124 120.423 110.317C120.833 110.504 121.321 110.597 121.887 110.597Z" fill="black"/>
<path d="M1.90014 136.8L1.28539 130.227V125.198H4.06852V130.227L3.4426 136.8H1.90014ZM2.66019 141.393C2.11623 141.393 1.66541 141.211 1.30774 140.846C0.957519 140.473 0.782409 140.033 0.782409 139.527C0.782409 138.998 0.957519 138.551 1.30774 138.186C1.66541 137.813 2.11623 137.627 2.66019 137.627C3.20415 137.627 3.65869 137.813 4.02382 138.186C4.39639 138.551 4.58268 138.998 4.58268 139.527C4.58268 140.033 4.39639 140.473 4.02382 140.846C3.65869 141.211 3.20415 141.393 2.66019 141.393Z" fill="black"/>
<path d="M13.1401 131.669L11.9777 130.831C12.1118 130.712 12.2757 130.537 12.4695 130.306C12.6632 130.067 12.842 129.81 13.006 129.534C13.1774 129.251 13.304 128.983 13.386 128.73C13.0134 128.603 12.7042 128.398 12.4583 128.115C12.2124 127.832 12.0894 127.463 12.0894 127.008C12.0894 126.457 12.2757 126.017 12.6483 125.689C13.0209 125.361 13.4456 125.198 13.9225 125.198C14.4441 125.198 14.8838 125.38 15.2414 125.745C15.6065 126.103 15.7891 126.628 15.7891 127.321C15.7891 127.895 15.6662 128.461 15.4203 129.02C15.1744 129.579 14.8502 130.093 14.4478 130.563C14.0455 131.025 13.6095 131.393 13.1401 131.669ZM7.88678 131.669L6.73553 130.831C6.86965 130.712 7.02986 130.537 7.21615 130.306C7.40989 130.067 7.59245 129.81 7.76383 129.534C7.94267 129.251 8.06935 128.983 8.14386 128.73C7.77129 128.603 7.46205 128.398 7.21615 128.115C6.97025 127.832 6.8473 127.463 6.8473 127.008C6.8473 126.457 7.02986 126.017 7.39498 125.689C7.76756 125.361 8.19602 125.198 8.68037 125.198C9.19452 125.198 9.63416 125.38 9.99929 125.745C10.3719 126.103 10.5581 126.628 10.5581 127.321C10.5581 127.895 10.4315 128.461 10.1781 129.02C9.93222 129.572 9.60436 130.078 9.19452 130.54C8.79214 131.002 8.35623 131.379 7.88678 131.669Z" fill="black"/>
<path d="M19.0953 135.112C18.5737 135.112 18.1378 134.933 17.7876 134.575C17.4373 134.218 17.2622 133.797 17.2622 133.312C17.2622 132.82 17.4373 132.396 17.7876 132.038C18.1378 131.673 18.5737 131.49 19.0953 131.49C19.6169 131.49 20.0566 131.673 20.4142 132.038C20.7719 132.396 20.9507 132.82 20.9507 133.312C20.9507 133.797 20.7719 134.218 20.4142 134.575C20.0566 134.933 19.6169 135.112 19.0953 135.112Z" fill="black"/>
<path d="M21.4761 143.171V141.181C20.4478 140.928 19.5871 140.454 18.8941 139.762C18.2086 139.069 17.6944 138.226 17.3517 137.235L19.9895 136.274C20.295 136.96 20.716 137.526 21.2525 137.973C21.7965 138.42 22.4038 138.644 23.0744 138.644C23.7525 138.644 24.289 138.476 24.6839 138.141C25.0863 137.798 25.2875 137.314 25.2875 136.688C25.2875 136.233 25.1571 135.853 24.8963 135.548C24.643 135.235 24.2927 134.966 23.8456 134.743C23.406 134.512 22.9179 134.292 22.3814 134.083C21.8524 133.875 21.327 133.648 20.8054 133.402C20.2838 133.156 19.8069 132.861 19.3747 132.519C18.95 132.168 18.6072 131.736 18.3464 131.222C18.0856 130.708 17.9552 130.078 17.9552 129.333C17.9552 128.394 18.257 127.548 18.8606 126.796C19.4716 126.043 20.3434 125.559 21.4761 125.343V123.566H24.3039V125.365C25.2055 125.589 25.9321 125.999 26.4835 126.595C27.0423 127.191 27.441 127.888 27.6794 128.685L25.0863 129.545C24.9 129.106 24.6132 128.726 24.2257 128.405C23.8382 128.085 23.3352 127.925 22.7167 127.925C22.1504 127.925 21.7108 128.048 21.3978 128.294C21.0849 128.532 20.9284 128.879 20.9284 129.333C20.9284 129.691 21.0513 129.996 21.2972 130.25C21.5506 130.496 21.8822 130.715 22.292 130.909C22.7018 131.103 23.1527 131.293 23.6445 131.479C24.1586 131.673 24.6839 131.896 25.2205 132.15C25.757 132.403 26.2562 132.724 26.7182 133.111C27.1802 133.491 27.5528 133.968 27.8359 134.542C28.1191 135.115 28.2607 135.82 28.2607 136.654C28.2607 137.511 28.0856 138.26 27.7353 138.901C27.3926 139.542 26.9194 140.063 26.3158 140.466C25.7197 140.861 25.0491 141.125 24.3039 141.259V143.171H21.4761Z" fill="black"/>
<path d="M32.2066 141.382L42.8697 125.198H45.6976L35.0344 141.382H32.2066ZM34.2856 133.379C33.369 133.379 32.6313 133.171 32.0725 132.753C31.5211 132.336 31.1224 131.814 30.8765 131.189C30.6306 130.555 30.5076 129.926 30.5076 129.3C30.5076 128.86 30.5747 128.402 30.7088 127.925C30.843 127.448 31.0553 127.005 31.3459 126.595C31.644 126.177 32.0352 125.842 32.5196 125.589C33.0039 125.328 33.5926 125.198 34.2856 125.198C34.9786 125.198 35.5635 125.32 36.0404 125.566C36.5173 125.805 36.901 126.125 37.1917 126.528C37.4897 126.93 37.7058 127.373 37.8399 127.858C37.9815 128.335 38.0523 128.815 38.0523 129.3C38.0523 129.739 37.9852 130.197 37.8511 130.674C37.7244 131.151 37.5158 131.595 37.2252 132.004C36.9346 132.414 36.5471 132.746 36.0627 132.999C35.5859 133.253 34.9935 133.379 34.2856 133.379ZM34.2856 131.032C34.5836 131.032 34.8295 130.954 35.0233 130.797C35.217 130.633 35.3623 130.421 35.4592 130.16C35.556 129.892 35.6045 129.605 35.6045 129.3C35.6045 128.949 35.556 128.644 35.4592 128.383C35.3623 128.122 35.2133 127.917 35.0121 127.768C34.8183 127.619 34.5762 127.545 34.2856 127.545C33.98 127.545 33.7267 127.627 33.5255 127.791C33.3318 127.947 33.1865 128.16 33.0896 128.428C33.0002 128.696 32.9555 128.987 32.9555 129.3C32.9555 129.635 33.0039 129.933 33.1008 130.194C33.1976 130.455 33.3429 130.659 33.5367 130.809C33.7379 130.958 33.9875 131.032 34.2856 131.032ZM43.6074 141.382C42.6909 141.382 41.9569 141.174 41.4055 140.756C40.8541 140.339 40.4554 139.817 40.2095 139.191C39.9711 138.566 39.8518 137.928 39.8518 137.28C39.8518 136.841 39.9152 136.382 40.0419 135.905C40.176 135.428 40.3921 134.985 40.6901 134.575C40.9882 134.158 41.3757 133.823 41.8526 133.569C42.3369 133.309 42.9219 133.178 43.6074 133.178C44.3004 133.178 44.8891 133.301 45.3734 133.547C45.8578 133.785 46.2452 134.106 46.5358 134.508C46.8339 134.911 47.05 135.354 47.1841 135.838C47.3257 136.323 47.3965 136.803 47.3965 137.28C47.3965 137.735 47.3294 138.2 47.1953 138.677C47.0686 139.154 46.8563 139.598 46.5582 140.007C46.2676 140.417 45.8801 140.749 45.3958 141.002C44.9189 141.256 44.3227 141.382 43.6074 141.382ZM43.6074 139.035C43.9129 139.035 44.1625 138.953 44.3563 138.789C44.5575 138.625 44.7065 138.409 44.8034 138.141C44.9002 137.873 44.9487 137.586 44.9487 137.28C44.9487 136.937 44.8965 136.636 44.7922 136.375C44.6953 136.114 44.5463 135.909 44.3451 135.76C44.1514 135.604 43.9055 135.525 43.6074 135.525C43.3093 135.525 43.0634 135.607 42.8697 135.771C42.676 135.935 42.5307 136.151 42.4338 136.42C42.3369 136.688 42.2885 136.975 42.2885 137.28C42.2885 137.623 42.3369 137.925 42.4338 138.186C42.5307 138.446 42.676 138.655 42.8697 138.811C43.0634 138.96 43.3093 139.035 43.6074 139.035Z" fill="black"/>
<path d="M54.2384 141.382C53.2846 141.382 52.4537 141.2 51.7458 140.835C51.0454 140.462 50.5014 139.94 50.114 139.27C49.7265 138.599 49.5327 137.805 49.5327 136.889C49.5327 136.144 49.6818 135.492 49.9798 134.933C50.2854 134.374 50.6915 133.882 51.1982 133.458C51.7123 133.033 52.2861 132.656 52.9195 132.329C52.3382 131.665 51.9321 131.066 51.7011 130.529C51.4776 129.985 51.3658 129.411 51.3658 128.808C51.3658 128.048 51.5409 127.399 51.8912 126.863C52.2414 126.326 52.7108 125.917 53.2995 125.633C53.8882 125.343 54.5402 125.198 55.2555 125.198C56.0305 125.198 56.7123 125.343 57.3009 125.633C57.8896 125.924 58.3479 126.338 58.6758 126.874C59.0111 127.403 59.1787 128.033 59.1787 128.763C59.1787 129.695 58.9328 130.469 58.441 131.088C57.9567 131.706 57.3494 132.258 56.6191 132.742L58.4857 134.978C58.5677 134.709 58.6273 134.437 58.6646 134.162C58.7093 133.879 58.7354 133.614 58.7428 133.368H61.4701C61.4626 134.061 61.3657 134.765 61.1795 135.481C61.0006 136.196 60.751 136.796 60.4306 137.28L63.5602 141.114H60.0394L58.7652 139.538C58.184 140.149 57.5133 140.611 56.7533 140.924C56.0007 141.229 55.1624 141.382 54.2384 141.382ZM54.5513 138.711C55.0357 138.711 55.4977 138.618 55.9373 138.431C56.3844 138.238 56.8017 137.966 57.1892 137.615L54.3725 134.184C53.6795 134.579 53.1728 134.985 52.8524 135.402C52.532 135.812 52.3718 136.282 52.3718 136.811C52.3718 137.37 52.5655 137.828 52.953 138.186C53.3479 138.536 53.8807 138.711 54.5513 138.711ZM55.1549 130.976C55.6095 130.715 55.9597 130.406 56.2056 130.048C56.4515 129.691 56.5744 129.285 56.5744 128.83C56.5744 128.316 56.4403 127.936 56.172 127.69C55.9112 127.437 55.6057 127.31 55.2555 127.31C54.8978 127.31 54.5923 127.429 54.339 127.668C54.0931 127.906 53.9701 128.23 53.9701 128.64C53.9701 129.005 54.0707 129.374 54.2719 129.747C54.4731 130.119 54.7674 130.529 55.1549 130.976Z" fill="black"/>
<path d="M63.6482 144.02L72.4336 125.198H75.2949L66.5096 144.02H63.6482Z" fill="black"/>
<path d="M79.7315 144.02C79.2769 143.424 78.841 142.686 78.4237 141.807C78.0064 140.928 77.6637 139.903 77.3954 138.733C77.1346 137.563 77.0042 136.248 77.0042 134.788C77.0042 133.335 77.1458 131.997 77.4289 130.775C77.7195 129.545 78.0921 128.461 78.5467 127.522C79.0012 126.576 79.4781 125.801 79.9773 125.198H82.727C82.496 125.488 82.2165 125.928 81.8887 126.516C81.5608 127.098 81.2367 127.806 80.9162 128.64C80.5958 129.475 80.3276 130.41 80.1115 131.446C79.9028 132.481 79.7985 133.595 79.7985 134.788C79.7985 135.965 79.8991 137.057 80.1003 138.063C80.3015 139.061 80.5474 139.959 80.838 140.756C81.1361 141.546 81.4341 142.217 81.7322 142.768C82.0377 143.32 82.2873 143.737 82.4811 144.02H79.7315Z" fill="black"/>
<path d="M84.6734 144.02C84.8746 143.737 85.1242 143.32 85.4222 142.768C85.7203 142.217 86.0184 141.546 86.3164 140.756C86.6145 139.959 86.8604 139.061 87.0541 138.063C87.2553 137.064 87.3559 135.972 87.3559 134.788C87.3559 133.595 87.2516 132.481 87.043 131.446C86.8343 130.41 86.5698 129.475 86.2494 128.64C85.929 127.806 85.6048 127.098 85.2769 126.516C84.9491 125.928 84.6659 125.488 84.4275 125.198H87.1771C87.6763 125.801 88.1532 126.576 88.6078 127.522C89.0623 128.461 89.4312 129.545 89.7143 130.775C90.0049 131.997 90.1502 133.335 90.1502 134.788C90.1502 136.248 90.0161 137.563 89.7478 138.733C89.487 139.903 89.148 140.928 88.7307 141.807C88.3134 142.686 87.8775 143.424 87.423 144.02H84.6734Z" fill="black"/>
<path d="M93.4156 132.373V129.68H103.922V132.373H93.4156ZM93.4156 137.213V134.519H103.922V137.213H93.4156Z" fill="black"/>
<path d="M109.673 136.978V136.14C109.673 135.35 109.784 134.694 110.008 134.173C110.232 133.651 110.515 133.215 110.858 132.865C111.2 132.507 111.543 132.187 111.886 131.904C112.273 131.583 112.609 131.259 112.892 130.931C113.175 130.596 113.317 130.175 113.317 129.668C113.317 129.154 113.141 128.726 112.791 128.383C112.441 128.04 111.934 127.869 111.271 127.869C110.489 127.869 109.893 128.104 109.483 128.573C109.08 129.035 108.879 129.676 108.879 130.496H106.107C106.107 129.378 106.323 128.424 106.755 127.634C107.188 126.837 107.791 126.233 108.566 125.823C109.341 125.406 110.243 125.198 111.271 125.198C112.314 125.198 113.194 125.395 113.909 125.79C114.632 126.185 115.176 126.721 115.541 127.399C115.913 128.078 116.1 128.838 116.1 129.68C116.1 130.335 115.999 130.887 115.798 131.334C115.604 131.781 115.355 132.165 115.049 132.485C114.743 132.806 114.431 133.104 114.11 133.379C113.827 133.625 113.559 133.875 113.305 134.128C113.052 134.382 112.847 134.672 112.691 135C112.534 135.328 112.456 135.715 112.456 136.162V136.978H109.673ZM111.081 141.393C110.559 141.393 110.12 141.222 109.762 140.879C109.412 140.529 109.237 140.101 109.237 139.594C109.237 139.095 109.412 138.666 109.762 138.308C110.12 137.943 110.559 137.761 111.081 137.761C111.603 137.761 112.042 137.943 112.4 138.308C112.758 138.666 112.936 139.095 112.936 139.594C112.936 140.101 112.758 140.529 112.4 140.879C112.042 141.222 111.603 141.393 111.081 141.393Z" fill="black"/>
<path d="M122.431 145.585C121.388 145.585 120.509 145.387 119.794 144.992C119.078 144.598 118.534 144.061 118.162 143.383C117.797 142.705 117.614 141.934 117.614 141.069C117.614 140.428 117.711 139.888 117.905 139.449C118.098 139.009 118.344 138.633 118.642 138.32C118.948 137.999 119.261 137.701 119.581 137.425C119.872 137.18 120.144 136.93 120.397 136.677C120.65 136.416 120.855 136.121 121.012 135.794C121.176 135.458 121.258 135.063 121.258 134.609V133.804H124.041V134.631C124.041 135.421 123.929 136.077 123.706 136.598C123.482 137.112 123.199 137.545 122.856 137.895C122.513 138.238 122.171 138.551 121.828 138.834C121.44 139.147 121.101 139.471 120.811 139.806C120.528 140.134 120.386 140.555 120.386 141.069C120.386 141.606 120.561 142.049 120.911 142.399C121.269 142.75 121.776 142.925 122.431 142.925C123.229 142.925 123.829 142.682 124.231 142.198C124.641 141.721 124.846 141.054 124.846 140.197H127.651C127.651 141.345 127.428 142.321 126.981 143.126C126.541 143.931 125.926 144.542 125.136 144.959C124.354 145.376 123.452 145.585 122.431 145.585ZM122.621 133.044C122.092 133.044 121.649 132.869 121.291 132.519C120.941 132.161 120.766 131.733 120.766 131.233C120.766 130.727 120.941 130.298 121.291 129.948C121.649 129.598 122.092 129.423 122.621 129.423C123.143 129.423 123.583 129.598 123.94 129.948C124.298 130.298 124.477 130.727 124.477 131.233C124.477 131.733 124.298 132.161 123.94 132.519C123.583 132.869 123.143 133.044 122.621 133.044Z" fill="black"/>
<path d="M129.903 149.564V117.373H132.698V149.564H129.903Z" fill="black"/>
<path d="M143.903 141.382C142.294 141.382 140.874 141.077 139.645 140.466C138.415 139.855 137.454 138.968 136.761 137.805C136.076 136.643 135.733 135.227 135.733 133.558C135.733 132.336 135.949 131.215 136.381 130.194C136.821 129.173 137.424 128.29 138.192 127.545C138.959 126.8 139.85 126.222 140.863 125.812C141.884 125.402 142.976 125.198 144.138 125.198C145.681 125.198 147.026 125.496 148.173 126.092C149.321 126.68 150.207 127.481 150.833 128.495C151.467 129.508 151.783 130.641 151.783 131.893C151.783 132.996 151.579 133.975 151.169 134.832C150.766 135.689 150.211 136.364 149.503 136.855C148.803 137.347 148.005 137.593 147.111 137.593C146.865 137.593 146.608 137.552 146.34 137.47C146.079 137.381 145.845 137.247 145.636 137.068C145.427 136.881 145.278 136.643 145.189 136.352C145.017 136.658 144.816 136.904 144.585 137.09C144.362 137.269 144.108 137.399 143.825 137.481C143.549 137.563 143.255 137.604 142.942 137.604C142.316 137.604 141.761 137.448 141.277 137.135C140.792 136.814 140.409 136.371 140.126 135.805C139.85 135.231 139.712 134.557 139.712 133.782C139.712 133.037 139.883 132.31 140.226 131.602C140.576 130.894 141.064 130.309 141.69 129.847C142.316 129.385 143.058 129.154 143.915 129.154C144.392 129.154 144.79 129.259 145.111 129.467C145.438 129.676 145.658 129.929 145.77 130.227L145.915 129.445H148.017L147.245 133.703C147.193 134.009 147.141 134.314 147.089 134.62C147.037 134.918 147.011 135.101 147.011 135.168C147.011 135.309 147.052 135.428 147.134 135.525C147.223 135.615 147.35 135.659 147.514 135.659C147.894 135.659 148.248 135.514 148.576 135.224C148.903 134.925 149.168 134.497 149.369 133.938C149.578 133.379 149.682 132.705 149.682 131.915C149.682 131.036 149.481 130.25 149.079 129.557C148.676 128.864 148.073 128.32 147.268 127.925C146.463 127.522 145.457 127.321 144.25 127.321C143.304 127.321 142.443 127.474 141.668 127.779C140.9 128.085 140.237 128.517 139.678 129.076C139.127 129.635 138.702 130.298 138.404 131.066C138.106 131.826 137.957 132.664 137.957 133.58C137.957 134.78 138.203 135.805 138.695 136.654C139.194 137.496 139.895 138.141 140.796 138.588C141.698 139.035 142.763 139.259 143.993 139.259C144.477 139.259 144.988 139.218 145.524 139.136C146.061 139.054 146.605 138.942 147.156 138.8L146.53 141.159C146.083 141.226 145.64 141.278 145.2 141.315C144.768 141.36 144.336 141.382 143.903 141.382ZM143.233 135.525C143.65 135.525 144.008 135.395 144.306 135.134C144.604 134.873 144.831 134.545 144.988 134.151C145.152 133.748 145.234 133.338 145.234 132.921C145.234 132.407 145.118 132.001 144.887 131.703C144.656 131.405 144.339 131.256 143.937 131.256C143.527 131.256 143.169 131.375 142.864 131.613C142.566 131.844 142.335 132.157 142.171 132.552C142.007 132.94 141.925 133.368 141.925 133.838C141.925 134.344 142.041 134.754 142.272 135.067C142.51 135.373 142.83 135.525 143.233 135.525Z" fill="black"/>
<path d="M155.662 141.114L156.265 137.124H153.862L154.22 134.698H156.634L157.103 131.502H154.745L155.08 129.098H157.495L158.02 125.466H160.501L159.965 129.098H162.659L163.229 125.466H165.688L165.14 129.098H167.543L167.208 131.502H164.771L164.302 134.698H166.671L166.302 137.124H163.933L163.329 141.114H160.837L161.44 137.124H158.758L158.132 141.114H155.662ZM159.115 134.698H161.809L162.29 131.502H159.596L159.115 134.698Z" fill="black"/>
<path d="M170.162 135.402C170.162 134.717 170.266 134.072 170.475 133.469C170.691 132.865 171.026 132.381 171.481 132.016C171.943 131.643 172.546 131.457 173.291 131.457C173.828 131.457 174.301 131.535 174.711 131.692C175.121 131.841 175.497 132.001 175.84 132.172C176.116 132.306 176.384 132.425 176.645 132.53C176.905 132.634 177.166 132.686 177.427 132.686C177.8 132.686 178.068 132.575 178.232 132.351C178.403 132.12 178.504 131.822 178.534 131.457H180.713C180.713 132.15 180.609 132.798 180.4 133.402C180.199 133.998 179.867 134.482 179.405 134.855C178.951 135.22 178.34 135.402 177.572 135.402C177.051 135.402 176.578 135.328 176.153 135.179C175.728 135.022 175.341 134.862 174.99 134.698C174.715 134.557 174.446 134.437 174.186 134.341C173.925 134.236 173.668 134.184 173.414 134.184C173.057 134.184 172.796 134.3 172.632 134.531C172.476 134.754 172.375 135.045 172.33 135.402H170.162Z" fill="black"/>
<path d="M190.778 141.382C189.653 141.382 188.71 141.159 187.95 140.712C187.19 140.264 186.59 139.653 186.151 138.879C185.719 138.096 185.413 137.202 185.234 136.196H183.211L184.116 134.173H184.955C184.947 134.016 184.94 133.875 184.932 133.748C184.932 133.614 184.932 133.495 184.932 133.39C184.932 133.309 184.932 133.219 184.932 133.122C184.94 133.018 184.947 132.88 184.955 132.709H183.211L184.116 130.663H185.234C185.383 129.918 185.603 129.218 185.894 128.562C186.192 127.906 186.572 127.325 187.034 126.818C187.503 126.312 188.066 125.917 188.721 125.633C189.385 125.343 190.148 125.198 191.013 125.198C191.691 125.198 192.376 125.309 193.069 125.533C193.77 125.756 194.482 126.125 195.204 126.639L194.187 129.143C193.762 128.771 193.297 128.465 192.79 128.227C192.291 127.981 191.695 127.858 191.002 127.858C190.48 127.858 190.033 127.981 189.66 128.227C189.288 128.465 188.982 128.793 188.744 129.21C188.505 129.627 188.319 130.104 188.185 130.641H193.595L192.756 132.709H187.861C187.846 132.858 187.835 132.988 187.827 133.1C187.827 133.212 187.827 133.323 187.827 133.435C187.827 133.554 187.827 133.677 187.827 133.804C187.835 133.923 187.846 134.046 187.861 134.173H192.175L191.348 136.229H188.219C188.338 136.736 188.513 137.176 188.744 137.548C188.975 137.914 189.258 138.2 189.593 138.409C189.936 138.61 190.327 138.711 190.767 138.711C191.326 138.711 191.818 138.573 192.242 138.297C192.675 138.022 193.066 137.63 193.416 137.124L195.618 138.476C195.119 139.318 194.459 140.015 193.639 140.566C192.82 141.11 191.866 141.382 190.778 141.382Z" fill="black"/>
<path d="M205.862 137.481V133.111H198.139V130.428H208.645V137.481H205.862Z" fill="black"/>
</svg>
