<svg width="351" height="150" viewBox="0 0 351 150" fill="none" xmlns="http://www.w3.org/2000/svg">
<path d="M1.49426 61.1257L21.4911 0H31.2712L51.268 61.1257H40.0908L27.8656 20.0842C27.7201 19.6184 27.5454 18.9926 27.3417 18.2067C27.167 17.4208 26.9924 16.5913 26.8178 15.718C26.6431 14.8448 26.4976 14.0298 26.3811 13.273C26.2356 14.0298 26.0755 14.8448 25.9009 15.718C25.7262 16.5913 25.5516 17.4208 25.3769 18.2067C25.2023 18.9926 25.0422 19.6184 24.8967 20.0842L12.6715 61.1257H1.49426ZM14.418 47.678L17.2123 38.2472H35.55L38.3443 47.678H14.418Z" fill="black"/>
<path d="M54.43 61.1257L74.4269 0H84.207L104.204 61.1257H93.0265L80.8014 20.0842C80.6559 19.6184 80.4812 18.9926 80.2775 18.2067C80.1028 17.4208 79.9282 16.5913 79.7535 15.718C79.5789 14.8448 79.4334 14.0298 79.3169 13.273C79.1714 14.0298 79.0113 14.8448 78.8367 15.718C78.662 16.5913 78.4874 17.4208 78.3127 18.2067C78.1381 18.9926 77.978 19.6184 77.8325 20.0842L65.6073 61.1257H54.43ZM67.3538 47.678L70.1481 38.2472H88.4858L91.2801 47.678H67.3538Z" fill="black"/>
<path d="M0 97.114L5.11919 81.4658H7.6229L12.7421 97.114H9.8807L6.75107 86.6073C6.71381 86.4881 6.6691 86.3279 6.61694 86.1267C6.57223 85.9255 6.52752 85.7131 6.48281 85.4896C6.4381 85.2661 6.40085 85.0574 6.37104 84.8637C6.33378 85.0574 6.2928 85.2661 6.24809 85.4896C6.20338 85.7131 6.15867 85.9255 6.11396 86.1267C6.06926 86.3279 6.02827 86.4881 5.99101 86.6073L2.86138 97.114H0ZM3.30847 93.6714L4.02382 91.2571H8.71827L9.43361 93.6714H3.30847Z" fill="black"/>
<path d="M14.7364 97.114V81.4658H20.012C21.2788 81.4658 22.2773 81.6707 23.0075 82.0805C23.7378 82.4829 24.2557 83.0045 24.5612 83.6454C24.8667 84.2787 25.0194 84.9456 25.0194 85.6461C25.0194 86.3391 24.8518 86.9725 24.5165 87.5462C24.1886 88.1125 23.6782 88.5522 22.9852 88.8651C23.857 89.1557 24.5016 89.6438 24.9188 90.3294C25.3436 91.0149 25.5559 91.7489 25.5559 92.5313C25.5559 93.0752 25.4665 93.6192 25.2877 94.1632C25.1089 94.7071 24.8145 95.2026 24.4047 95.6497C24.0023 96.0894 23.4695 96.4433 22.8063 96.7116C22.1432 96.9798 21.3235 97.114 20.3473 97.114H14.7364ZM17.3965 94.655H20.5262C21.1446 94.655 21.6253 94.5506 21.968 94.342C22.3108 94.1259 22.5493 93.8576 22.6834 93.5372C22.825 93.2094 22.8958 92.8815 22.8958 92.5536C22.8958 92.1662 22.8138 91.7973 22.6499 91.4471C22.4934 91.0894 22.1953 90.7988 21.7557 90.5753C21.3235 90.3443 20.6976 90.2288 19.8779 90.2288H17.3965V94.655ZM17.3965 87.7921H19.6543C20.5709 87.7921 21.249 87.6133 21.6886 87.2556C22.1357 86.8905 22.3592 86.4136 22.3592 85.8249C22.3592 85.5194 22.2996 85.2213 22.1804 84.9307C22.0686 84.6401 21.8488 84.4017 21.521 84.2154C21.1931 84.0217 20.7125 83.9248 20.0791 83.9248H17.3965V87.7921Z" fill="black"/>
<path d="M33.7424 97.3599C32.6098 97.3599 31.6485 97.1289 30.8587 96.6669C30.0688 96.1974 29.4317 95.5752 28.9474 94.8003C28.463 94.0179 28.1091 93.1498 27.8855 92.196C27.662 91.2347 27.5502 90.266 27.5502 89.2899C27.5502 88.351 27.662 87.4084 27.8855 86.462C28.1165 85.5082 28.4779 84.6364 28.9697 83.8465C29.4615 83.0567 30.0986 82.4233 30.881 81.9464C31.6709 81.4621 32.6247 81.2199 33.7424 81.2199C34.6217 81.2199 35.3817 81.3801 36.0226 81.7005C36.6709 82.0135 37.2074 82.4196 37.6321 82.9188C38.0568 83.4181 38.3773 83.9397 38.5933 84.4837L36.2238 85.6237C35.9257 85.0425 35.5867 84.5842 35.2066 84.2489C34.8341 83.9136 34.346 83.7459 33.7424 83.7459C33.109 83.7459 32.5725 83.9136 32.1329 84.2489C31.6933 84.5842 31.3356 85.0276 31.0599 85.579C30.7916 86.1304 30.5979 86.7303 30.4787 87.3786C30.3594 88.0268 30.2998 88.6639 30.2998 89.2899C30.2998 89.9531 30.3669 90.6125 30.501 91.2682C30.6426 91.924 30.8512 92.5201 31.1269 93.0566C31.4101 93.5931 31.7678 94.0253 32.2 94.3532C32.6396 94.6736 33.1538 94.8338 33.7424 94.8338C34.346 94.8338 34.8452 94.6475 35.2402 94.2749C35.6351 93.8949 35.9704 93.4106 36.2461 92.8219L38.6604 93.7384C38.3773 94.4314 38.0121 95.0536 37.565 95.605C37.1254 96.149 36.5889 96.5774 35.9555 96.8904C35.3221 97.2034 34.5844 97.3599 33.7424 97.3599Z" fill="black"/>
<path d="M41.8395 97.114V81.4658H45.7739C47.0853 81.4658 48.1956 81.6893 49.1047 82.1364C50.0212 82.5761 50.7627 83.1722 51.329 83.9248C51.9027 84.6699 52.32 85.5082 52.5808 86.4397C52.8416 87.3637 52.972 88.3137 52.972 89.2899C52.972 90.1841 52.8491 91.0894 52.6032 92.0059C52.3573 92.9225 51.9512 93.7682 51.3849 94.5432C50.826 95.3181 50.0808 95.9403 49.1494 96.4098C48.218 96.8792 47.063 97.114 45.6845 97.114H41.8395ZM44.4997 94.6103H45.9527C46.75 94.6103 47.4207 94.4538 47.9646 94.1408C48.5086 93.8204 48.9445 93.3994 49.2724 92.8778C49.6002 92.3562 49.8349 91.7824 49.9765 91.1565C50.1256 90.5305 50.2001 89.9083 50.2001 89.2899C50.2001 88.6267 50.1218 87.9821 49.9653 87.3562C49.8163 86.7228 49.5816 86.1528 49.2612 85.6461C48.9408 85.1319 48.5272 84.7258 48.0205 84.4278C47.5138 84.1222 46.9065 83.9695 46.1986 83.9695H44.4997V94.6103Z" fill="black"/>
<path d="M55.391 97.114V81.4658H65.4282V83.9918H58.0512V87.7698H62.8574V90.2958H58.0512V94.5879H65.8977V97.114H55.391Z" fill="black"/>
<path d="M68.9426 97.114V81.4658H79.4939V83.9918H71.6028V87.7698H77.3479V90.2958H71.6028V97.114H68.9426Z" fill="black"/>
<path d="M87.9263 97.3822C86.8682 97.3822 85.9479 97.1587 85.1655 96.7116C84.3906 96.257 83.7497 95.646 83.243 94.8785C82.7438 94.1035 82.3712 93.2354 82.1253 92.2742C81.8794 91.3055 81.7565 90.3107 81.7565 89.2899C81.7565 88.3137 81.8831 87.3488 82.1365 86.395C82.3898 85.4337 82.7736 84.5619 83.2877 83.7795C83.8019 82.9971 84.4427 82.3711 85.2102 81.9017C85.9852 81.4323 86.8905 81.1975 87.9263 81.1975C88.813 81.1975 89.5582 81.3503 90.1618 81.6558C90.7728 81.9539 91.2832 82.3451 91.693 82.8294C92.1029 83.3063 92.4568 83.813 92.7549 84.3495L90.4077 85.6908C90.132 85.1617 89.7966 84.7035 89.4017 84.316C89.0142 83.9211 88.5224 83.7236 87.9263 83.7236C87.3004 83.7236 86.7713 83.895 86.3391 84.2377C85.9069 84.5731 85.5567 85.0202 85.2885 85.579C85.0202 86.1304 84.8265 86.734 84.7073 87.3897C84.588 88.038 84.5284 88.6714 84.5284 89.2899C84.5284 89.9978 84.5955 90.6833 84.7296 91.3465C84.8712 92.0097 85.0798 92.6058 85.3555 93.1348C85.6312 93.6639 85.9815 94.0849 86.4062 94.3979C86.8384 94.7034 87.3451 94.8561 87.9263 94.8561C88.7534 94.8561 89.3719 94.5804 89.7817 94.029C90.199 93.4702 90.4077 92.7772 90.4077 91.9501V91.6147H87.6804V89.111H93.1349V91.2794C93.1349 92.5983 92.9039 93.7123 92.4419 94.6214C91.9874 95.5305 91.3652 96.2198 90.5753 96.6892C89.7929 97.1512 88.9099 97.3822 87.9263 97.3822Z" fill="black"/>
<path d="M96.0457 97.114V81.4658H98.7059V87.7921H103.758V81.4658H106.418V97.114H103.758V90.2958H98.7059V97.114H96.0457Z" fill="black"/>
<path d="M113.442 97.114V81.4658H116.102V97.114H113.442ZM110.178 97.114V94.7667H119.389V97.114H110.178ZM110.178 83.813V81.4658H119.389V83.813H110.178Z" fill="black"/>
<path d="M128.268 97.3822C127.143 97.3822 126.144 97.0991 125.273 96.5327C124.408 95.9664 123.745 95.1691 123.283 94.1408L125.563 93.0454C125.764 93.4329 125.988 93.7608 126.234 94.029C126.487 94.2973 126.778 94.5022 127.106 94.6438C127.441 94.7854 127.836 94.8561 128.29 94.8561C128.715 94.8561 129.121 94.7705 129.509 94.5991C129.904 94.4202 130.224 94.0998 130.47 93.6378C130.716 93.1758 130.839 92.5164 130.839 91.6595V81.4658H133.477V91.7936C133.477 92.8964 133.316 93.8129 132.996 94.5432C132.676 95.266 132.258 95.836 131.744 96.2533C131.23 96.6631 130.667 96.9538 130.056 97.1251C129.445 97.2965 128.849 97.3822 128.268 97.3822Z" fill="black"/>
<path d="M139.137 91.3688V87.658L144.01 81.4658H147.118L139.137 91.3688ZM136.7 97.114V81.4658H139.361V97.114H136.7ZM145.016 97.114L140.657 88.9546L142.446 86.7191L148.124 97.114H145.016Z" fill="black"/>
<path d="M150.252 97.114V81.4658H152.912V94.5655H160.133V97.114H150.252Z" fill="black"/>
<path d="M163.804 97.114V81.4658H166.397L168.654 90.0499C168.714 90.2735 168.785 90.538 168.867 90.8435C168.949 91.1416 169.005 91.3912 169.034 91.5924C169.072 91.3912 169.128 91.1416 169.202 90.8435C169.284 90.538 169.355 90.2735 169.415 90.0499L171.739 81.4658H174.176V97.114H171.874V88.6192C171.874 88.4478 171.874 88.228 171.874 87.9598C171.881 87.6915 171.896 87.4792 171.918 87.3227C171.851 87.509 171.777 87.7176 171.695 87.9486C171.62 88.1796 171.553 88.4031 171.493 88.6192L169.102 97.114H168.878L166.486 88.6192C166.426 88.4031 166.356 88.1796 166.274 87.9486C166.199 87.7102 166.128 87.5015 166.061 87.3227C166.076 87.4792 166.087 87.6915 166.095 87.9598C166.102 88.228 166.106 88.4478 166.106 88.6192V97.114H163.804Z" fill="black"/>
<path d="M177.355 97.114V81.4658H179.881L184.754 91.1229C184.821 91.2422 184.915 91.4136 185.034 91.6371C185.153 91.8606 185.246 92.0469 185.313 92.196C185.306 92.0022 185.295 91.8085 185.28 91.6147C185.272 91.421 185.269 91.2571 185.269 91.1229V81.4658H187.728V97.114H185.313L180.351 87.4121C180.284 87.2854 180.19 87.1103 180.071 86.8868C179.952 86.6632 179.851 86.4807 179.769 86.3391C179.807 86.503 179.825 86.6856 179.825 86.8868C179.833 87.0879 179.836 87.2631 179.836 87.4121V97.114H177.355ZM184.307 79.7445C183.883 79.7445 183.495 79.6849 183.145 79.5657C182.802 79.439 182.474 79.3048 182.161 79.1633C181.893 79.0366 181.632 78.9285 181.379 78.8391C181.133 78.7423 180.88 78.6938 180.619 78.6938C180.343 78.6938 180.101 78.7683 179.892 78.9174C179.691 79.0589 179.583 79.3048 179.568 79.6551H178.339C178.339 78.7907 178.521 78.0865 178.886 77.5426C179.251 76.9986 179.881 76.7266 180.775 76.7266C181.2 76.7266 181.588 76.7862 181.938 76.9055C182.288 77.0247 182.616 77.1588 182.921 77.3078C183.175 77.4271 183.428 77.5351 183.681 77.632C183.935 77.7288 184.196 77.7773 184.464 77.7773C184.747 77.7773 184.989 77.7028 185.19 77.5537C185.399 77.4047 185.507 77.1588 185.514 76.816H186.744C186.744 77.673 186.561 78.3771 186.196 78.9285C185.831 79.4725 185.202 79.7445 184.307 79.7445Z" fill="black"/>
<path d="M196.093 97.3822C195.042 97.3822 194.141 97.1624 193.388 96.7228C192.643 96.2757 192.032 95.6721 191.555 94.912C191.078 94.152 190.728 93.2876 190.504 92.3189C190.281 91.3502 190.169 90.3405 190.169 89.2899C190.169 88.2392 190.281 87.2295 190.504 86.2608C190.728 85.2921 191.078 84.4278 191.555 83.6677C192.032 82.9077 192.643 82.3078 193.388 81.8682C194.141 81.4211 195.042 81.1975 196.093 81.1975C197.144 81.1975 198.045 81.4211 198.798 81.8682C199.55 82.3078 200.165 82.9077 200.642 83.6677C201.119 84.4278 201.469 85.2921 201.693 86.2608C201.924 87.2295 202.039 88.2392 202.039 89.2899C202.039 90.3405 201.924 91.3502 201.693 92.3189C201.469 93.2876 201.119 94.152 200.642 94.912C200.165 95.6721 199.55 96.2757 198.798 96.7228C198.045 97.1624 197.144 97.3822 196.093 97.3822ZM196.093 94.8561C196.644 94.8561 197.121 94.6997 197.524 94.3867C197.926 94.0737 198.254 93.6527 198.507 93.1237C198.768 92.5946 198.958 91.9985 199.077 91.3353C199.204 90.6721 199.267 89.9903 199.267 89.2899C199.267 88.5447 199.204 87.8406 199.077 87.1774C198.958 86.5067 198.772 85.9143 198.518 85.4002C198.265 84.8786 197.937 84.4687 197.535 84.1707C197.132 83.8726 196.652 83.7236 196.093 83.7236C195.534 83.7236 195.053 83.8801 194.651 84.193C194.249 84.4986 193.921 84.9158 193.667 85.4449C193.414 85.9739 193.224 86.5701 193.097 87.2333C192.978 87.8964 192.919 88.582 192.919 89.2899C192.919 90.0276 192.978 90.7317 193.097 91.4024C193.224 92.0656 193.414 92.658 193.667 93.1796C193.921 93.7012 194.249 94.111 194.651 94.4091C195.053 94.7071 195.534 94.8561 196.093 94.8561Z" fill="black"/>
<path d="M204.458 97.114V81.4658H209.98C211.276 81.4658 212.305 81.7042 213.065 82.1811C213.832 82.658 214.38 83.269 214.708 84.0142C215.043 84.7519 215.211 85.5194 215.211 86.3167C215.211 86.8756 215.114 87.4419 214.92 88.0157C214.726 88.582 214.421 89.1036 214.004 89.5805C213.586 90.0574 213.046 90.4411 212.383 90.7317C211.72 91.0223 210.919 91.1676 209.98 91.1676H207.118V97.114H204.458ZM207.118 88.6639H210.114C210.695 88.6639 211.161 88.5484 211.511 88.3175C211.861 88.079 212.115 87.7809 212.271 87.4233C212.428 87.0581 212.506 86.6893 212.506 86.3167C212.506 85.9814 212.435 85.6349 212.293 85.2772C212.152 84.9121 211.906 84.6029 211.556 84.3495C211.213 84.0962 210.732 83.9695 210.114 83.9695H207.118V88.6639Z" fill="black"/>
<path d="M226.124 98.88L222.324 93.2243L224.314 91.9277L228.069 97.5834L226.124 98.88ZM223.196 97.3822C222.145 97.3822 221.244 97.1624 220.491 96.7228C219.746 96.2757 219.135 95.6721 218.658 94.912C218.181 94.152 217.831 93.2876 217.607 92.3189C217.384 91.3502 217.272 90.3405 217.272 89.2899C217.272 88.2392 217.384 87.2295 217.607 86.2608C217.831 85.2921 218.181 84.4278 218.658 83.6677C219.135 82.9077 219.746 82.3078 220.491 81.8682C221.244 81.4211 222.145 81.1975 223.196 81.1975C224.247 81.1975 225.148 81.4211 225.901 81.8682C226.654 82.3078 227.268 82.9077 227.745 83.6677C228.222 84.4278 228.572 85.2921 228.796 86.2608C229.027 87.2295 229.142 88.2392 229.142 89.2899C229.142 90.3405 229.027 91.3502 228.796 92.3189C228.572 93.2876 228.222 94.152 227.745 94.912C227.268 95.6721 226.654 96.2757 225.901 96.7228C225.148 97.1624 224.247 97.3822 223.196 97.3822ZM223.196 94.8561C223.747 94.8561 224.224 94.6997 224.627 94.3867C225.029 94.0737 225.357 93.6527 225.61 93.1237C225.871 92.5946 226.061 91.9985 226.18 91.3353C226.307 90.6721 226.37 89.9903 226.37 89.2899C226.37 88.5447 226.307 87.8406 226.18 87.1774C226.061 86.5067 225.875 85.9143 225.621 85.4002C225.368 84.8786 225.04 84.4687 224.638 84.1707C224.236 83.8726 223.755 83.7236 223.196 83.7236C222.637 83.7236 222.157 83.8801 221.754 84.193C221.352 84.4986 221.024 84.9158 220.771 85.4449C220.517 85.9739 220.327 86.5701 220.201 87.2333C220.081 87.8964 220.022 88.582 220.022 89.2899C220.022 90.0276 220.081 90.7317 220.201 91.4024C220.327 92.0656 220.517 92.658 220.771 93.1796C221.024 93.7012 221.352 94.111 221.754 94.4091C222.157 94.7071 222.637 94.8561 223.196 94.8561Z" fill="black"/>
<path d="M231.561 97.114V81.4658H236.971C238.26 81.4658 239.277 81.6893 240.023 82.1364C240.768 82.5835 241.297 83.1685 241.61 83.8913C241.93 84.614 242.09 85.3853 242.09 86.2049C242.09 86.7862 241.993 87.3525 241.8 87.9039C241.606 88.4479 241.315 88.9434 240.928 89.3905C240.54 89.8301 240.052 90.1915 239.464 90.4747C238.882 90.7578 238.201 90.9292 237.418 90.9888H234.222V97.114H231.561ZM239.117 97.114L235.92 90.6758L238.759 90.3852L242.068 97.114H239.117ZM234.222 88.4851H237.016C237.612 88.4851 238.081 88.3771 238.424 88.161C238.767 87.9449 239.009 87.6654 239.151 87.3227C239.292 86.9799 239.363 86.6148 239.363 86.2273C239.363 85.8771 239.296 85.5306 239.162 85.1878C239.028 84.8376 238.789 84.547 238.447 84.316C238.111 84.085 237.634 83.9695 237.016 83.9695H234.222V88.4851Z" fill="black"/>
<path d="M250.478 97.3822C249.629 97.3822 248.831 97.2183 248.086 96.8904C247.348 96.5551 246.704 96.0857 246.152 95.4821C245.601 94.8785 245.187 94.1706 244.912 93.3584L247.326 92.4642C247.661 93.1796 248.131 93.7608 248.734 94.2079C249.345 94.655 250.001 94.8785 250.702 94.8785C251.372 94.8785 251.92 94.7071 252.345 94.3643C252.769 94.0216 252.982 93.5223 252.982 92.8666C252.982 92.4419 252.833 92.0656 252.535 91.7377C252.237 91.4024 251.842 91.0969 251.35 90.8212C250.865 90.5455 250.336 90.2809 249.763 90.0276C249.263 89.8115 248.76 89.5693 248.254 89.301C247.754 89.0328 247.292 88.7161 246.868 88.351C246.45 87.9859 246.111 87.5574 245.851 87.0656C245.597 86.5738 245.471 85.9963 245.471 85.3331C245.471 84.5805 245.668 83.8913 246.063 83.2653C246.458 82.6394 247.017 82.1401 247.74 81.7676C248.462 81.3875 249.316 81.1975 250.299 81.1975C251.476 81.1975 252.486 81.5142 253.328 82.1476C254.178 82.781 254.74 83.5746 255.016 84.5284L252.624 85.3331C252.4 84.8711 252.08 84.4836 251.663 84.1707C251.245 83.8577 250.739 83.7012 250.143 83.7012C249.584 83.7012 249.111 83.8428 248.723 84.126C248.343 84.4091 248.153 84.7966 248.153 85.2884C248.153 85.6312 248.261 85.9292 248.477 86.1826C248.701 86.4359 249.025 86.6818 249.45 86.9203C249.882 87.1587 250.411 87.427 251.037 87.7251C251.544 87.9635 252.065 88.2318 252.602 88.5298C253.138 88.8204 253.637 89.1595 254.099 89.547C254.569 89.9344 254.945 90.389 255.228 90.9106C255.519 91.4322 255.664 92.0395 255.664 92.7325C255.664 93.7235 255.422 94.5655 254.938 95.2585C254.461 95.9515 253.827 96.4806 253.038 96.8457C252.255 97.2034 251.402 97.3822 250.478 97.3822Z" fill="black"/>
<path d="M262.509 97.114V84.0142H257.971V81.4658H269.73V84.0142H265.17V97.114H262.509Z" fill="black"/>
<path d="M277.402 97.3822C276.463 97.3822 275.592 97.1847 274.787 96.7898C273.989 96.3949 273.345 95.7429 272.853 94.8338C272.369 93.9247 272.127 92.6952 272.127 91.1453V81.4658H274.764V91.1453C274.764 92.1065 274.876 92.8554 275.1 93.3919C275.331 93.9284 275.644 94.3085 276.039 94.532C276.441 94.7481 276.896 94.8561 277.402 94.8561C277.902 94.8561 278.349 94.7481 278.744 94.532C279.146 94.3085 279.463 93.9284 279.694 93.3919C279.925 92.8554 280.04 92.1065 280.04 91.1453V81.4658H282.7V91.1453C282.7 92.6729 282.458 93.8949 281.974 94.8114C281.489 95.7205 280.845 96.3763 280.04 96.7786C279.235 97.181 278.356 97.3822 277.402 97.3822Z" fill="black"/>
<path d="M289.68 97.114L284.583 81.4658H287.534L290.641 92.1289C290.7 92.3152 290.76 92.5499 290.82 92.8331C290.879 93.1162 290.924 93.3658 290.954 93.5819C290.991 93.3658 291.036 93.1199 291.088 92.8442C291.14 92.5685 291.192 92.3375 291.244 92.1513L294.396 81.4658H297.325L292.228 97.114H289.68Z" fill="black"/>
<path d="M300.213 97.114L297.911 81.4658H300.303L301.532 90.7876C301.547 90.8994 301.573 91.0782 301.61 91.3241C301.648 91.5626 301.674 91.7489 301.689 91.883C301.711 91.7489 301.745 91.57 301.789 91.3465C301.841 91.1155 301.882 90.9217 301.912 90.7653L303.79 81.4658H305.221L307.121 90.7206C307.166 90.9292 307.207 91.1229 307.244 91.3018C307.281 91.4732 307.315 91.6445 307.344 91.8159C307.382 91.5998 307.411 91.4136 307.434 91.2571C307.456 91.0931 307.479 90.9217 307.501 90.7429L308.529 81.4658H311.1L308.775 97.114H306.674L304.684 87.5462C304.639 87.3301 304.599 87.1327 304.561 86.9538C304.531 86.7675 304.505 86.585 304.483 86.4061C304.461 86.585 304.431 86.7638 304.394 86.9426C304.364 87.114 304.327 87.3078 304.282 87.5239L302.315 97.114H300.213Z" fill="black"/>
<path d="M321.075 97.114L317.386 90.3405L312.289 81.4658H315.352L318.75 87.7474L324.137 97.114H321.075ZM311.977 97.114L317.342 87.7921L320.74 81.4658H323.802L318.705 90.2958L315.039 97.114H311.977Z" fill="black"/>
<path d="M330.29 97.114V90.9888L325.685 81.4658H328.635L332.145 89.3346H331.072L334.604 81.4658H337.532L332.927 90.9888V97.114H330.29Z" fill="black"/>
<path d="M339.884 97.114V95.1021L347.664 82.8741L348.267 83.9695H340.376V81.4658H350.458V83.4777L342.612 95.6833L342.03 94.5879H350.436V97.114H339.884Z" fill="black"/>
<path d="M6.37104 119.382C5.27567 119.382 4.36286 119.147 3.63261 118.678C2.90236 118.201 2.32487 117.571 1.90014 116.789C1.4754 115.999 1.16989 115.127 0.983599 114.174C0.804763 113.22 0.715345 112.259 0.715345 111.29C0.715345 110.545 0.767506 109.792 0.871827 109.032C0.983599 108.265 1.16616 107.534 1.41951 106.841C1.68032 106.148 2.02681 105.526 2.459 104.975C2.89119 104.423 3.42769 103.991 4.06852 103.678C4.71681 103.358 5.48431 103.198 6.37104 103.198C7.47387 103.198 8.3904 103.432 9.12065 103.902C9.8509 104.371 10.4284 105.001 10.8531 105.791C11.2853 106.573 11.5908 107.441 11.7697 108.395C11.9559 109.349 12.0491 110.314 12.0491 111.29C12.0491 112.035 11.9932 112.791 11.8814 113.559C11.7697 114.319 11.5834 115.045 11.3226 115.738C11.0692 116.431 10.7227 117.054 10.2831 117.605C9.8509 118.156 9.31066 118.592 8.66238 118.913C8.02155 119.226 7.25777 119.382 6.37104 119.382ZM6.37104 116.879C6.96716 116.879 7.45896 116.718 7.84644 116.398C8.23392 116.07 8.53571 115.634 8.7518 115.09C8.97534 114.546 9.13183 113.946 9.22124 113.291C9.31811 112.627 9.36655 111.961 9.36655 111.29C9.36655 110.597 9.31811 109.919 9.22124 109.256C9.12437 108.592 8.96417 107.993 8.74062 107.456C8.51708 106.92 8.21156 106.495 7.82409 106.182C7.43661 105.861 6.95226 105.701 6.37104 105.701C5.78237 105.701 5.29057 105.865 4.89564 106.193C4.50816 106.513 4.20265 106.946 3.97911 107.49C3.76301 108.034 3.60653 108.637 3.50966 109.3C3.42024 109.956 3.37553 110.619 3.37553 111.29C3.37553 111.983 3.42024 112.661 3.50966 113.324C3.60653 113.987 3.76674 114.587 3.99028 115.124C4.21383 115.66 4.51934 116.089 4.90682 116.409C5.2943 116.722 5.78237 116.879 6.37104 116.879ZM6.37104 112.877C5.92395 112.877 5.55138 112.724 5.25331 112.419C4.95525 112.113 4.80622 111.737 4.80622 111.29C4.80622 110.85 4.95525 110.481 5.25331 110.183C5.55138 109.878 5.92395 109.725 6.37104 109.725C6.81813 109.725 7.19443 109.878 7.49995 110.183C7.80546 110.481 7.95821 110.85 7.95821 111.29C7.95821 111.737 7.80546 112.113 7.49995 112.419C7.19443 112.724 6.81813 112.877 6.37104 112.877Z" fill="black"/>
<path d="M18.626 119.114V106.841L15.2282 107.758V105.254L21.2862 103.443V119.114H18.626ZM14.7364 119.114V116.566H25.1089V119.114H14.7364Z" fill="black"/>
<path d="M28.2208 119.114C28.2208 117.989 28.3587 117.001 28.6344 116.152C28.9101 115.295 29.2864 114.546 29.7633 113.905C30.2477 113.257 30.7991 112.687 31.4175 112.195C32.0435 111.703 32.6992 111.26 33.3847 110.865C33.8244 110.612 34.2342 110.34 34.6142 110.049C34.9943 109.759 35.2998 109.434 35.5308 109.077C35.7692 108.712 35.8885 108.294 35.8885 107.825C35.8885 107.177 35.6873 106.662 35.2849 106.282C34.8825 105.895 34.3385 105.701 33.653 105.701C32.9302 105.701 32.3304 105.876 31.8535 106.227C31.384 106.577 31.0301 107.05 30.7916 107.646L28.422 106.573C28.6828 105.902 29.0666 105.314 29.5733 104.807C30.08 104.3 30.6761 103.905 31.3617 103.622C32.0547 103.339 32.8035 103.198 33.6083 103.198C34.6515 103.198 35.542 103.399 36.2797 103.801C37.0248 104.196 37.5911 104.74 37.9786 105.433C38.3735 106.119 38.571 106.893 38.571 107.758C38.571 108.712 38.3922 109.505 38.0345 110.139C37.6768 110.765 37.1925 111.308 36.5814 111.77C35.9704 112.232 35.2849 112.683 34.5248 113.123C33.9809 113.436 33.4891 113.768 33.0494 114.118C32.6098 114.468 32.2409 114.848 31.9429 115.258C31.6448 115.66 31.4399 116.096 31.3281 116.566H38.7051V119.114H28.2208Z" fill="black"/>
<path d="M47.0257 119.382C46.1241 119.382 45.3231 119.229 44.6226 118.924C43.9296 118.618 43.3372 118.19 42.8454 117.639C42.3536 117.087 41.9661 116.446 41.683 115.716L44.0749 114.732C44.4326 115.493 44.8648 116.04 45.3715 116.376C45.8856 116.711 46.4594 116.879 47.0928 116.879C47.5846 116.879 48.028 116.793 48.4229 116.621C48.8178 116.443 49.1308 116.186 49.3618 115.85C49.5928 115.507 49.7083 115.09 49.7083 114.598C49.7083 113.928 49.4884 113.369 49.0488 112.922C48.6166 112.475 47.9423 112.251 47.0257 112.251H45.6174V109.725H46.9587C47.6218 109.725 48.1509 109.542 48.5458 109.177C48.9482 108.812 49.1494 108.324 49.1494 107.713C49.1494 107.117 48.9594 106.633 48.5794 106.26C48.1993 105.888 47.6889 105.701 47.0481 105.701C46.6233 105.701 46.2545 105.779 45.9415 105.936C45.6286 106.092 45.3603 106.297 45.1368 106.551C44.9132 106.804 44.7232 107.08 44.5667 107.378L42.1748 106.461C42.443 105.835 42.8044 105.276 43.259 104.785C43.721 104.293 44.2687 103.905 44.902 103.622C45.5354 103.339 46.2508 103.198 47.0481 103.198C47.9795 103.198 48.8029 103.384 49.5183 103.756C50.2336 104.122 50.7925 104.624 51.1948 105.265C51.6047 105.906 51.8096 106.633 51.8096 107.445C51.8096 108.183 51.6382 108.842 51.2954 109.423C50.9527 110.004 50.4832 110.47 49.8871 110.82C50.6024 111.096 51.1986 111.558 51.6755 112.206C52.1524 112.855 52.3908 113.645 52.3908 114.576C52.3908 115.574 52.1598 116.435 51.6978 117.158C51.2433 117.873 50.6099 118.425 49.7977 118.812C48.9929 119.192 48.0689 119.382 47.0257 119.382Z" fill="black"/>
<path d="M62.075 119.114V115.716H54.5863V114.062L62.075 103.466H64.6682V113.279H66.6577V115.716H64.6682V119.114H62.075ZM58.0289 113.279H62.075V107.177L58.0289 113.279Z" fill="black"/>
<path d="M73.6147 119.382C72.8397 119.382 72.143 119.3 71.5245 119.136C70.9135 118.972 70.3807 118.767 69.9262 118.522C69.4791 118.268 69.114 118.011 68.8308 117.75L70.2839 115.694C70.6862 115.992 71.1408 116.264 71.6475 116.51C72.1542 116.756 72.8099 116.879 73.6147 116.879C74.2332 116.879 74.7771 116.759 75.2466 116.521C75.716 116.275 76.0811 115.932 76.3419 115.493C76.6102 115.045 76.7443 114.524 76.7443 113.928C76.7443 113.406 76.6512 112.948 76.4649 112.553C76.2786 112.158 76.0029 111.849 75.6378 111.625C75.2801 111.402 74.8442 111.29 74.33 111.29C73.7414 111.29 73.2421 111.405 72.8323 111.636C72.4225 111.86 72.0648 112.139 71.7593 112.475L69.3226 111.402L69.9485 103.466H78.488V105.992H72.3628L72.0052 109.479C72.3405 109.263 72.7168 109.092 73.1341 108.965C73.5514 108.831 74.0096 108.764 74.5089 108.764C75.567 108.764 76.4612 108.995 77.1914 109.457C77.9217 109.919 78.4768 110.541 78.8568 111.323C79.2369 112.098 79.4269 112.959 79.4269 113.905C79.4269 114.71 79.2853 115.448 79.0021 116.118C78.719 116.789 78.3166 117.367 77.795 117.851C77.2808 118.335 76.6698 118.712 75.9619 118.98C75.254 119.248 74.4716 119.382 73.6147 119.382Z" fill="black"/>
<path d="M87.7251 119.382C86.4807 119.382 85.4375 119.118 84.5955 118.589C83.7609 118.052 83.1313 117.329 82.7065 116.42C82.2818 115.511 82.0694 114.487 82.0694 113.346C82.0694 112.117 82.252 110.951 82.6171 109.848C82.9822 108.738 83.5336 107.732 84.2713 106.83C85.0165 105.921 85.9517 105.154 87.0768 104.528C88.202 103.902 89.5209 103.458 91.0336 103.198V105.657C90.2288 105.813 89.4427 106.089 88.6752 106.484C87.9151 106.879 87.2445 107.389 86.6633 108.015C86.0821 108.633 85.661 109.36 85.4002 110.194C85.7058 109.911 86.0895 109.68 86.5515 109.502C87.0209 109.323 87.5612 109.233 88.1722 109.233C89.1633 109.233 90.0425 109.453 90.81 109.893C91.585 110.332 92.1923 110.936 92.6319 111.703C93.0716 112.463 93.2914 113.324 93.2914 114.285C93.2914 115.284 93.0492 116.167 92.5649 116.934C92.088 117.702 91.4285 118.302 90.5865 118.734C89.7519 119.166 88.7981 119.382 87.7251 119.382ZM87.7251 116.879C88.2914 116.879 88.7944 116.774 89.234 116.566C89.6737 116.357 90.0202 116.063 90.2735 115.683C90.5269 115.303 90.6536 114.852 90.6536 114.33C90.6536 113.533 90.3816 112.899 89.8376 112.43C89.2937 111.953 88.5895 111.715 87.7251 111.715C87.1513 111.715 86.6409 111.826 86.1938 112.05C85.7542 112.266 85.4077 112.572 85.1543 112.966C84.901 113.354 84.7743 113.808 84.7743 114.33C84.7743 114.852 84.901 115.303 85.1543 115.683C85.4151 116.063 85.7654 116.357 86.205 116.566C86.6521 116.774 87.1588 116.879 87.7251 116.879Z" fill="black"/>
<path d="M99.153 119.114C99.153 117.326 99.3207 115.645 99.656 114.073C99.9913 112.501 100.52 110.992 101.243 109.546C101.973 108.093 102.931 106.655 104.116 105.232L104.809 105.969H95.9116V103.466H106.552V105.724C105.636 106.73 104.868 107.829 104.25 109.021C103.639 110.206 103.154 111.413 102.797 112.642C102.439 113.864 102.182 115.034 102.026 116.152C101.869 117.262 101.791 118.25 101.791 119.114H99.153Z" fill="black"/>
<path d="M114.761 119.382C113.621 119.382 112.626 119.174 111.777 118.756C110.935 118.339 110.279 117.762 109.81 117.024C109.34 116.286 109.105 115.433 109.105 114.464C109.105 113.548 109.359 112.75 109.866 112.072C110.372 111.387 111.05 110.873 111.9 110.53C111.319 110.247 110.816 109.833 110.391 109.289C109.966 108.738 109.754 108.078 109.754 107.311C109.754 106.521 109.959 105.817 110.369 105.198C110.778 104.58 111.356 104.092 112.101 103.734C112.854 103.376 113.74 103.198 114.761 103.198C115.789 103.198 116.68 103.376 117.433 103.734C118.193 104.092 118.778 104.58 119.187 105.198C119.605 105.817 119.813 106.521 119.813 107.311C119.813 108.071 119.597 108.727 119.165 109.278C118.74 109.829 118.226 110.239 117.623 110.507C118.465 110.85 119.146 111.368 119.668 112.061C120.197 112.754 120.462 113.555 120.462 114.464C120.462 115.433 120.227 116.286 119.757 117.024C119.288 117.762 118.625 118.339 117.768 118.756C116.918 119.174 115.916 119.382 114.761 119.382ZM114.761 116.99C115.633 116.99 116.352 116.752 116.918 116.275C117.492 115.791 117.779 115.157 117.779 114.375C117.779 113.883 117.649 113.443 117.388 113.056C117.134 112.661 116.781 112.352 116.326 112.128C115.871 111.897 115.35 111.782 114.761 111.782C114.165 111.782 113.64 111.897 113.185 112.128C112.738 112.352 112.388 112.661 112.135 113.056C111.889 113.443 111.766 113.883 111.766 114.375C111.766 115.157 112.045 115.791 112.604 116.275C113.163 116.752 113.882 116.99 114.761 116.99ZM114.761 109.434C115.491 109.434 116.076 109.252 116.516 108.887C116.956 108.514 117.175 108.056 117.175 107.512C117.175 106.931 116.948 106.461 116.494 106.104C116.047 105.746 115.469 105.567 114.761 105.567C114.046 105.567 113.472 105.746 113.04 106.104C112.608 106.461 112.392 106.931 112.392 107.512C112.392 108.056 112.604 108.514 113.029 108.887C113.461 109.252 114.038 109.434 114.761 109.434Z" fill="black"/>
<path d="M125.362 119.382V116.923C126.174 116.834 126.953 116.614 127.698 116.264C128.443 115.906 129.091 115.399 129.643 114.744C130.202 114.08 130.6 113.242 130.839 112.229C130.541 112.527 130.142 112.773 129.643 112.966C129.151 113.16 128.581 113.257 127.933 113.257C126.949 113.257 126.07 113.052 125.295 112.642C124.527 112.225 123.92 111.644 123.473 110.899C123.033 110.154 122.814 109.278 122.814 108.272C122.814 107.259 123.052 106.372 123.529 105.612C124.006 104.852 124.661 104.259 125.496 103.835C126.331 103.41 127.284 103.198 128.357 103.198C129.617 103.198 130.649 103.462 131.454 103.991C132.266 104.52 132.866 105.243 133.253 106.16C133.641 107.069 133.834 108.101 133.834 109.256C133.834 110.664 133.655 111.964 133.298 113.156C132.94 114.341 132.407 115.381 131.699 116.275C130.992 117.169 130.109 117.884 129.05 118.421C127.992 118.957 126.763 119.278 125.362 119.382ZM128.313 110.798C128.894 110.798 129.401 110.694 129.833 110.485C130.265 110.276 130.6 109.978 130.839 109.591C131.077 109.203 131.196 108.741 131.196 108.205C131.196 107.706 131.074 107.266 130.828 106.886C130.589 106.499 130.254 106.197 129.822 105.981C129.397 105.765 128.901 105.657 128.335 105.657C127.746 105.657 127.236 105.765 126.804 105.981C126.372 106.197 126.036 106.499 125.798 106.886C125.567 107.266 125.451 107.706 125.451 108.205C125.451 109.01 125.708 109.643 126.223 110.105C126.737 110.567 127.433 110.798 128.313 110.798Z" fill="black"/>
<path d="M5.63334 136.8L5.07448 130.205V125.198H7.6676V130.205L7.10874 136.8H5.63334ZM6.34869 141.405C5.83453 141.405 5.40607 141.226 5.0633 140.868C4.72798 140.51 4.56032 140.093 4.56032 139.616C4.56032 139.124 4.72798 138.703 5.0633 138.353C5.40607 138.003 5.83453 137.828 6.34869 137.828C6.86284 137.828 7.29503 138.003 7.64525 138.353C8.00292 138.703 8.18176 139.124 8.18176 139.616C8.18176 140.093 8.00292 140.51 7.64525 140.868C7.29503 141.226 6.86284 141.405 6.34869 141.405Z" fill="black"/>
<path d="M21.778 131.524L20.6379 130.786C20.8988 130.503 21.1856 130.082 21.4986 129.523C21.8116 128.964 22.0016 128.327 22.0686 127.612C21.6812 127.522 21.3645 127.34 21.1186 127.064C20.8727 126.788 20.7497 126.427 20.7497 125.98C20.7497 125.429 20.9248 124.993 21.2751 124.672C21.6327 124.352 22.0388 124.192 22.4934 124.192C23.0001 124.192 23.4323 124.37 23.7899 124.728C24.1476 125.086 24.3264 125.63 24.3264 126.36C24.3264 127.157 24.1923 127.899 23.9241 128.584C23.6558 129.27 23.3242 129.866 22.9293 130.373C22.5344 130.879 22.1506 131.263 21.778 131.524ZM16.6812 131.524L15.5411 130.786C15.8019 130.503 16.0888 130.082 16.4018 129.523C16.7147 128.964 16.9047 128.327 16.9718 127.612C16.5843 127.522 16.2676 127.34 16.0217 127.064C15.7758 126.788 15.6529 126.427 15.6529 125.98C15.6529 125.429 15.828 124.993 16.1782 124.672C16.5359 124.352 16.942 124.192 17.3965 124.192C17.9032 124.192 18.3354 124.37 18.6931 124.728C19.0508 125.086 19.2296 125.63 19.2296 126.36C19.2296 127.157 19.0955 127.899 18.8272 128.584C18.559 129.27 18.2274 129.866 17.8325 130.373C17.4375 130.879 17.0538 131.263 16.6812 131.524Z" fill="black"/>
<path d="M33.463 135.034C32.9563 135.034 32.5353 134.866 32.2 134.531C31.8721 134.188 31.7082 133.782 31.7082 133.312C31.7082 132.843 31.8721 132.437 32.2 132.094C32.5353 131.744 32.9526 131.569 33.4518 131.569C33.9585 131.569 34.3832 131.744 34.726 132.094C35.0688 132.437 35.2402 132.843 35.2402 133.312C35.2402 133.782 35.0688 134.188 34.726 134.531C34.3832 134.866 33.9622 135.034 33.463 135.034Z" fill="black"/>
<path d="M45.7962 143.215V141.226C44.7828 140.987 43.9259 140.533 43.2255 139.862C42.525 139.191 42.0109 138.372 41.683 137.403L44.1196 136.509C44.4251 137.202 44.8499 137.772 45.3938 138.219C45.9453 138.659 46.5712 138.879 47.2716 138.879C47.987 138.879 48.5607 138.696 48.9929 138.331C49.4251 137.958 49.6412 137.425 49.6412 136.732C49.6412 136.233 49.4996 135.816 49.2165 135.481C48.9333 135.145 48.5607 134.858 48.0987 134.62C47.6442 134.382 47.1524 134.162 46.6233 133.961C46.1092 133.767 45.595 133.551 45.0809 133.312C44.5667 133.066 44.0973 132.772 43.6725 132.429C43.2478 132.079 42.905 131.651 42.6442 131.144C42.3909 130.63 42.2642 130.004 42.2642 129.266C42.2642 128.327 42.566 127.489 43.1696 126.751C43.7806 126.006 44.6561 125.533 45.7962 125.332V123.543H48.3894V125.354C49.2835 125.555 50.0101 125.943 50.5689 126.516C51.1278 127.083 51.519 127.746 51.7425 128.506L49.3506 129.311C49.1718 128.871 48.8811 128.495 48.4788 128.182C48.0764 127.861 47.5548 127.701 46.914 127.701C46.3104 127.701 45.8335 127.839 45.4833 128.115C45.1405 128.39 44.9691 128.774 44.9691 129.266C44.9691 129.661 45.0958 129.993 45.3491 130.261C45.6025 130.529 45.9415 130.764 46.3663 130.965C46.791 131.166 47.2567 131.36 47.7634 131.546C48.2925 131.74 48.8253 131.967 49.3618 132.228C49.9057 132.481 50.4013 132.802 50.8484 133.189C51.3029 133.569 51.668 134.046 51.9437 134.62C52.2269 135.194 52.3685 135.89 52.3685 136.71C52.3685 137.567 52.1933 138.316 51.8431 138.957C51.4929 139.59 51.016 140.104 50.4124 140.499C49.8163 140.887 49.142 141.144 48.3894 141.27V143.215H45.7962Z" fill="black"/>
<path d="M54.1392 141.382L64.8023 125.198H66.9707L56.3076 141.382H54.1392ZM57.1123 132.418C56.3299 132.418 55.704 132.239 55.2346 131.882C54.7726 131.516 54.4372 131.058 54.2286 130.507C54.02 129.948 53.9156 129.378 53.9156 128.797C53.9156 128.275 54.02 127.738 54.2286 127.187C54.4372 126.628 54.7726 126.159 55.2346 125.779C55.704 125.391 56.3299 125.198 57.1123 125.198C57.8873 125.198 58.5058 125.38 58.9678 125.745C59.4372 126.103 59.7725 126.557 59.9737 127.109C60.1824 127.66 60.2867 128.223 60.2867 128.797C60.2867 129.348 60.1861 129.903 59.9849 130.462C59.7837 131.021 59.4521 131.487 58.9901 131.859C58.5281 132.232 57.9022 132.418 57.1123 132.418ZM57.1123 130.853C57.5818 130.853 57.9432 130.652 58.1965 130.25C58.4573 129.847 58.5877 129.363 58.5877 128.797C58.5877 128.178 58.4573 127.686 58.1965 127.321C57.9357 126.949 57.5743 126.762 57.1123 126.762C56.6354 126.762 56.2666 126.964 56.0058 127.366C55.745 127.761 55.6146 128.238 55.6146 128.797C55.6146 129.408 55.745 129.903 56.0058 130.283C56.2666 130.663 56.6354 130.853 57.1123 130.853ZM64.0646 141.382C63.2822 141.382 62.6563 141.203 62.1868 140.846C61.7248 140.481 61.3895 140.022 61.1809 139.471C60.9722 138.912 60.8679 138.342 60.8679 137.761C60.8679 137.239 60.9722 136.703 61.1809 136.151C61.3895 135.592 61.7248 135.123 62.1868 134.743C62.6563 134.355 63.2822 134.162 64.0646 134.162C64.8395 134.162 65.458 134.344 65.92 134.709C66.3895 135.067 66.7248 135.522 66.926 136.073C67.1346 136.624 67.2389 137.187 67.2389 137.761C67.2389 138.312 67.1383 138.867 66.9371 139.426C66.736 139.985 66.4044 140.451 65.9424 140.823C65.4804 141.196 64.8545 141.382 64.0646 141.382ZM64.0646 139.817C64.534 139.817 64.8954 139.616 65.1488 139.214C65.4096 138.811 65.54 138.327 65.54 137.761C65.54 137.142 65.4096 136.651 65.1488 136.285C64.888 135.913 64.5266 135.727 64.0646 135.727C63.5877 135.727 63.2188 135.928 62.958 136.33C62.6972 136.725 62.5668 137.202 62.5668 137.761C62.5668 138.372 62.6972 138.867 62.958 139.247C63.2188 139.627 63.5877 139.817 64.0646 139.817Z" fill="black"/>
<path d="M72.1169 141.382C70.6788 141.382 69.535 140.984 68.6855 140.186C67.8435 139.389 67.4225 138.327 67.4225 137.001C67.4225 136.293 67.5454 135.678 67.7913 135.156C68.0447 134.627 68.3763 134.165 68.7861 133.77C69.2034 133.376 69.6579 133.025 70.1497 132.72C70.649 132.407 71.1408 132.12 71.6251 131.859C72.1393 131.583 72.6199 131.3 73.067 131.01C73.5141 130.712 73.8718 130.384 74.14 130.026C74.4157 129.661 74.5536 129.244 74.5536 128.774C74.5536 128.268 74.4046 127.88 74.1065 127.612C73.8159 127.344 73.4731 127.209 73.0782 127.209C72.6684 127.209 72.3293 127.34 72.0611 127.601C71.8002 127.854 71.6698 128.2 71.6698 128.64C71.6698 128.916 71.7295 129.192 71.8487 129.467C71.9679 129.743 72.1654 130.075 72.4411 130.462C72.7168 130.842 73.0931 131.33 73.57 131.926L80.8576 141.114H77.5267L71.6028 133.424C71.1855 132.88 70.798 132.355 70.4403 131.848C70.0827 131.334 69.7958 130.82 69.5797 130.306C69.3636 129.784 69.2556 129.244 69.2556 128.685C69.2556 127.94 69.4269 127.31 69.7697 126.796C70.1199 126.274 70.5894 125.879 71.178 125.611C71.7667 125.335 72.4225 125.198 73.1452 125.198C73.8829 125.198 74.5387 125.347 75.1124 125.645C75.6862 125.935 76.137 126.349 76.4649 126.885C76.8002 127.422 76.9679 128.051 76.9679 128.774C76.9679 129.549 76.789 130.212 76.4314 130.764C76.0811 131.308 75.608 131.796 75.0118 132.228C74.4232 132.66 73.7712 133.089 73.0558 133.513C72.3628 133.923 71.7928 134.3 71.3457 134.642C70.9061 134.985 70.5782 135.332 70.3621 135.682C70.146 136.032 70.038 136.42 70.038 136.844C70.038 137.47 70.2541 137.973 70.6862 138.353C71.1184 138.733 71.7071 138.923 72.4523 138.923C73.19 138.923 73.8271 138.737 74.3636 138.364C74.9075 137.992 75.3546 137.522 75.7048 136.956C76.0625 136.382 76.3308 135.782 76.5096 135.156C76.6959 134.531 76.7965 133.968 76.8114 133.469H79.3151C79.3002 134.475 79.1139 135.451 78.7562 136.397C78.406 137.336 77.9105 138.182 77.2697 138.934C76.6363 139.687 75.8837 140.283 75.0118 140.723C74.14 141.162 73.1751 141.382 72.1169 141.382Z" fill="black"/>
<path d="M81.9576 144.02L90.743 125.198H93.3808L84.5955 144.02H81.9576Z" fill="black"/>
<path d="M102.439 144.02C101.776 143.424 101.143 142.686 100.539 141.807C99.9354 140.935 99.4399 139.918 99.0524 138.756C98.6724 137.586 98.4824 136.263 98.4824 134.788C98.4824 133.312 98.6836 131.964 99.0859 130.741C99.4958 129.519 100.021 128.443 100.662 127.511C101.303 126.572 101.977 125.801 102.685 125.198H105.211C104.891 125.473 104.496 125.902 104.026 126.483C103.564 127.064 103.106 127.772 102.651 128.607C102.197 129.441 101.817 130.38 101.511 131.423C101.206 132.466 101.053 133.588 101.053 134.788C101.053 135.98 101.198 137.079 101.489 138.085C101.787 139.091 102.152 139.989 102.584 140.779C103.024 141.569 103.46 142.235 103.892 142.779C104.332 143.331 104.689 143.744 104.965 144.02H102.439Z" fill="black"/>
<path d="M111.05 144.02C111.333 143.737 111.691 143.323 112.123 142.779C112.556 142.235 112.988 141.569 113.42 140.779C113.86 139.989 114.225 139.091 114.515 138.085C114.813 137.079 114.962 135.98 114.962 134.788C114.962 133.588 114.81 132.466 114.504 131.423C114.199 130.38 113.819 129.441 113.364 128.607C112.917 127.772 112.459 127.064 111.989 126.483C111.527 125.902 111.132 125.473 110.804 125.198H113.33C114.038 125.801 114.713 126.572 115.354 127.511C115.994 128.443 116.516 129.519 116.918 130.741C117.328 131.964 117.533 133.312 117.533 134.788C117.533 136.263 117.339 137.586 116.952 138.756C116.572 139.918 116.08 140.935 115.477 141.807C114.873 142.686 114.24 143.424 113.576 144.02H111.05Z" fill="black"/>
<path d="M123.082 132.06V129.49H133.588V132.06H123.082ZM123.082 137.403V134.855H133.588V137.403H123.082Z" fill="black"/>
<path d="M140.545 137.001V136.263C140.545 135.496 140.653 134.855 140.87 134.341C141.093 133.826 141.369 133.39 141.697 133.033C142.032 132.675 142.371 132.351 142.714 132.06C143.131 131.71 143.496 131.356 143.809 130.999C144.122 130.641 144.279 130.183 144.279 129.624C144.279 129.065 144.089 128.599 143.709 128.227C143.329 127.847 142.773 127.657 142.043 127.657C141.209 127.657 140.568 127.902 140.121 128.394C139.674 128.879 139.45 129.542 139.45 130.384H136.902C136.902 129.303 137.118 128.376 137.55 127.601C137.982 126.826 138.582 126.233 139.349 125.823C140.124 125.406 141.022 125.198 142.043 125.198C143.086 125.198 143.966 125.395 144.681 125.79C145.404 126.177 145.948 126.706 146.313 127.377C146.685 128.048 146.872 128.797 146.872 129.624C146.872 130.272 146.775 130.82 146.581 131.267C146.387 131.706 146.141 132.086 145.843 132.407C145.545 132.72 145.232 133.014 144.905 133.29C144.599 133.551 144.308 133.819 144.033 134.095C143.757 134.363 143.533 134.672 143.362 135.022C143.198 135.373 143.116 135.794 143.116 136.285V137.001H140.545ZM141.842 141.405C141.343 141.405 140.922 141.233 140.579 140.89C140.244 140.548 140.076 140.138 140.076 139.661C140.076 139.191 140.244 138.785 140.579 138.443C140.922 138.092 141.343 137.917 141.842 137.917C142.349 137.917 142.77 138.092 143.105 138.443C143.44 138.785 143.608 139.191 143.608 139.661C143.608 140.138 143.44 140.548 143.105 140.89C142.77 141.233 142.349 141.405 141.842 141.405Z" fill="black"/>
<path d="M155.237 145.585C154.194 145.585 153.315 145.387 152.599 144.992C151.884 144.605 151.344 144.072 150.978 143.394C150.613 142.723 150.431 141.963 150.431 141.114C150.431 140.481 150.528 139.948 150.721 139.516C150.915 139.083 151.161 138.711 151.459 138.398C151.765 138.077 152.078 137.783 152.398 137.515C152.711 137.254 153.002 136.99 153.27 136.721C153.546 136.446 153.765 136.133 153.929 135.782C154.101 135.425 154.186 134.996 154.186 134.497V133.782H156.757V134.519C156.757 135.302 156.645 135.95 156.422 136.464C156.198 136.978 155.915 137.411 155.572 137.761C155.237 138.104 154.894 138.417 154.544 138.7C154.134 139.028 153.773 139.37 153.46 139.728C153.154 140.078 153.002 140.54 153.002 141.114C153.002 141.695 153.192 142.18 153.572 142.567C153.959 142.954 154.514 143.148 155.237 143.148C156.086 143.148 156.735 142.895 157.182 142.388C157.629 141.889 157.852 141.181 157.852 140.264H160.446C160.446 141.39 160.222 142.347 159.775 143.137C159.335 143.934 158.724 144.542 157.942 144.959C157.16 145.376 156.258 145.585 155.237 145.585ZM155.461 132.887C154.961 132.887 154.54 132.716 154.198 132.373C153.862 132.023 153.695 131.613 153.695 131.144C153.695 130.682 153.862 130.279 154.198 129.937C154.54 129.594 154.961 129.423 155.461 129.423C155.975 129.423 156.399 129.594 156.735 129.937C157.078 130.279 157.249 130.682 157.249 131.144C157.249 131.613 157.078 132.023 156.735 132.373C156.399 132.716 155.975 132.887 155.461 132.887Z" fill="black"/>
<path d="M167.716 149.564V117.373H170.286V149.564H167.716Z" fill="black"/>
<path d="M182.631 141.382C181.394 141.382 180.298 141.08 179.345 140.477C178.398 139.866 177.653 138.979 177.109 137.817C176.573 136.654 176.304 135.242 176.304 133.58C176.304 132.351 176.472 131.226 176.807 130.205C177.15 129.177 177.62 128.29 178.216 127.545C178.819 126.8 179.512 126.222 180.295 125.812C181.085 125.402 181.93 125.198 182.832 125.198C184.032 125.198 185.075 125.496 185.962 126.092C186.848 126.68 187.534 127.481 188.018 128.495C188.51 129.508 188.756 130.645 188.756 131.904C188.756 132.999 188.599 133.972 188.286 134.821C187.981 135.671 187.564 136.341 187.035 136.833C186.513 137.317 185.924 137.56 185.269 137.56C184.956 137.56 184.654 137.455 184.363 137.247C184.073 137.038 183.875 136.71 183.771 136.263C183.562 136.74 183.298 137.086 182.977 137.303C182.664 137.519 182.31 137.627 181.915 137.627C181.424 137.627 180.988 137.466 180.608 137.146C180.228 136.826 179.93 136.379 179.713 135.805C179.497 135.231 179.389 134.564 179.389 133.804C179.389 133.059 179.523 132.332 179.792 131.624C180.06 130.917 180.436 130.332 180.921 129.87C181.405 129.408 181.975 129.177 182.631 129.177C183.033 129.177 183.368 129.288 183.637 129.512C183.912 129.735 184.106 130.026 184.218 130.384L184.352 129.467H185.917L185.291 133.737C185.239 134.08 185.198 134.385 185.168 134.654C185.146 134.922 185.134 135.101 185.134 135.19C185.134 135.369 185.168 135.507 185.235 135.604C185.302 135.7 185.403 135.749 185.537 135.749C185.835 135.749 186.111 135.592 186.364 135.279C186.625 134.966 186.833 134.523 186.99 133.949C187.154 133.376 187.236 132.694 187.236 131.904C187.236 130.913 187.064 130.034 186.722 129.266C186.386 128.491 185.895 127.884 185.246 127.444C184.598 127.005 183.816 126.785 182.899 126.785C181.923 126.785 181.062 127.079 180.317 127.668C179.572 128.249 178.987 129.054 178.562 130.082C178.145 131.11 177.936 132.284 177.936 133.603C177.936 134.87 178.13 135.961 178.518 136.878C178.912 137.787 179.464 138.487 180.172 138.979C180.887 139.463 181.729 139.706 182.698 139.706C183.093 139.706 183.495 139.668 183.905 139.594C184.315 139.519 184.725 139.415 185.134 139.281L184.687 141.159C184.352 141.233 184.013 141.289 183.67 141.326C183.327 141.364 182.981 141.382 182.631 141.382ZM182.161 135.838C182.497 135.838 182.787 135.697 183.033 135.414C183.279 135.123 183.465 134.758 183.592 134.318C183.726 133.871 183.793 133.409 183.793 132.932C183.793 132.329 183.693 131.852 183.491 131.502C183.298 131.144 183.033 130.965 182.698 130.965C182.355 130.965 182.061 131.095 181.815 131.356C181.569 131.617 181.379 131.967 181.245 132.407C181.111 132.839 181.044 133.312 181.044 133.826C181.044 134.437 181.144 134.925 181.345 135.291C181.547 135.656 181.819 135.838 182.161 135.838Z" fill="black"/>
<path d="M191.175 141.114L191.801 137.023H189.342L189.677 134.788H192.136L192.628 131.434H190.214L190.549 129.221H192.986L193.544 125.466H195.825L195.266 129.221H198.082L198.686 125.466H200.944L200.385 129.221H202.844L202.531 131.434H200.05L199.536 134.788H201.972L201.637 137.023H199.2L198.574 141.114H196.294L196.92 137.023H194.081L193.455 141.114H191.175ZM194.416 134.788H197.255L197.747 131.434H194.93L194.416 134.788Z" fill="black"/>
<path d="M211.835 135.324C211.314 135.324 210.837 135.246 210.405 135.089C209.972 134.933 209.577 134.773 209.22 134.609C208.922 134.46 208.631 134.333 208.348 134.229C208.065 134.124 207.789 134.072 207.521 134.072C207.141 134.072 206.854 134.188 206.66 134.419C206.474 134.65 206.358 134.952 206.314 135.324H204.369C204.369 134.668 204.473 134.057 204.682 133.491C204.89 132.917 205.218 132.455 205.665 132.105C206.12 131.747 206.716 131.569 207.454 131.569C207.983 131.569 208.46 131.647 208.884 131.803C209.309 131.96 209.704 132.127 210.069 132.306C210.36 132.44 210.643 132.56 210.919 132.664C211.194 132.768 211.47 132.82 211.746 132.82C212.126 132.82 212.413 132.705 212.606 132.474C212.808 132.235 212.923 131.934 212.953 131.569H214.898C214.898 132.224 214.797 132.839 214.596 133.413C214.395 133.979 214.071 134.441 213.624 134.799C213.176 135.149 212.58 135.324 211.835 135.324Z" fill="black"/>
<path d="M224.582 141.382C223.442 141.382 222.492 141.159 221.732 140.712C220.979 140.257 220.383 139.639 219.943 138.856C219.504 138.066 219.195 137.172 219.016 136.174H217.049L217.898 134.251H218.77C218.762 134.095 218.751 133.923 218.736 133.737C218.729 133.551 218.725 133.402 218.725 133.29C218.725 133.208 218.725 133.115 218.725 133.01C218.733 132.906 218.74 132.783 218.747 132.642H217.049L217.898 130.697H219.016C219.209 129.713 219.537 128.804 219.999 127.969C220.469 127.135 221.095 126.464 221.877 125.958C222.667 125.451 223.643 125.198 224.806 125.198C225.491 125.198 226.177 125.306 226.862 125.522C227.548 125.738 228.241 126.092 228.941 126.584L227.98 128.908C227.57 128.558 227.112 128.264 226.605 128.025C226.098 127.779 225.499 127.657 224.806 127.657C224.224 127.657 223.729 127.791 223.319 128.059C222.917 128.327 222.585 128.689 222.324 129.143C222.071 129.598 221.877 130.108 221.743 130.674H227.265L226.46 132.642H221.452C221.43 132.806 221.415 132.947 221.408 133.066C221.408 133.186 221.408 133.297 221.408 133.402C221.408 133.476 221.408 133.603 221.408 133.782C221.415 133.961 221.43 134.117 221.452 134.251H225.834L225.029 136.218H221.788C221.907 136.74 222.089 137.206 222.335 137.615C222.581 138.018 222.891 138.338 223.263 138.577C223.636 138.808 224.075 138.923 224.582 138.923C225.156 138.923 225.662 138.782 226.102 138.498C226.549 138.215 226.944 137.828 227.287 137.336L229.344 138.588C229.023 139.124 228.628 139.605 228.159 140.03C227.697 140.447 227.164 140.779 226.56 141.025C225.964 141.263 225.305 141.382 224.582 141.382Z" fill="black"/>
<path d="M239.43 137.425V132.955H231.494V130.473H242.001V137.425H239.43Z" fill="black"/>
</svg>
