<svg width="381" height="145" viewBox="0 0 381 145" fill="none" xmlns="http://www.w3.org/2000/svg">
<path d="M1.94904 60.2525C3.87013 55.246 5.76211 50.2395 7.62499 45.233C9.54608 40.1683 11.4672 35.1327 13.3883 30.1262C15.3094 25.1197 17.2305 20.1133 19.1515 15.1068C21.0726 10.0421 22.9646 5.00648 24.8275 0C26.1082 0 27.3599 0 28.5824 0C29.8049 0 31.0565 0 32.3372 0C33.6762 0 34.986 0 36.2667 0C37.6057 0 38.9155 0 40.1962 0C40.4291 0.582152 40.6329 1.1352 40.8075 1.65913C40.9821 2.18306 41.1859 2.7361 41.4188 3.31825C43.8056 9.66368 46.1633 16.0091 48.4919 22.3545C50.8787 28.7 53.2364 35.0163 55.565 41.3035C57.9518 47.5907 60.3386 53.907 62.7254 60.2525C61.9104 60.2525 61.0663 60.2525 60.1931 60.2525C59.3198 60.2525 58.4757 60.2525 57.6607 60.2525C56.8457 60.2525 56.0307 60.2525 55.2157 60.2525C53.9932 60.2525 52.7416 60.2525 51.4608 60.2525C50.2383 60.2525 49.0158 60.2525 47.7933 60.2525C44.0093 58.3896 40.1962 56.5267 36.3541 54.6638C32.5119 52.8009 28.6988 50.9381 24.9148 49.0752C21.0726 47.2123 17.2305 45.3785 13.3883 43.5739C9.6043 41.711 5.79122 39.8481 1.94904 37.9852V22.2672C5.15086 23.8972 8.32357 25.5272 11.4672 27.1573C14.669 28.7291 17.8708 30.33 21.0726 31.96C25.2641 34.1722 31.6095 37.4322 40.1089 41.7401C39.2357 39.2951 38.3625 36.8501 37.4892 34.405C36.6742 31.96 35.801 29.515 34.8696 27.0699C33.9964 24.6249 33.1231 22.1799 32.2499 19.7349C31.0856 23.1113 29.9213 26.4878 28.757 29.8643C27.6509 33.2407 26.5157 36.6172 25.3514 39.9937C24.1871 43.3701 23.0228 46.7466 21.8585 50.1231C20.6942 53.4995 19.5299 56.876 18.3656 60.2525H1.94904Z" fill="black"/>
<path d="M64.4357 60.2525C66.3568 55.246 68.2488 50.2395 70.1117 45.233C72.0328 40.1683 73.9539 35.1327 75.8749 30.1262C77.796 25.1197 79.7171 20.1133 81.6382 15.1068C83.5593 10.0421 85.4513 5.00648 87.3142 0C88.5949 0 89.8465 0 91.069 0C92.2916 0 93.5432 0 94.8239 0C96.1628 0 97.4727 0 98.7534 0C100.092 0 101.402 0 102.683 0C102.916 0.582152 103.12 1.1352 103.294 1.65913C103.469 2.18306 103.673 2.7361 103.905 3.31825C106.292 9.66368 108.65 16.0091 110.979 22.3545C113.365 28.7 115.723 35.0163 118.052 41.3035C120.438 47.5907 122.825 53.907 125.212 60.2525C124.397 60.2525 123.553 60.2525 122.68 60.2525C121.807 60.2525 120.962 60.2525 120.147 60.2525C119.332 60.2525 118.517 60.2525 117.702 60.2525C116.48 60.2525 115.228 60.2525 113.948 60.2525C112.725 60.2525 111.502 60.2525 110.28 60.2525C106.496 58.3896 102.683 56.5267 98.8407 54.6638C94.9986 52.8009 91.1855 50.9381 87.4015 49.0752C83.5593 47.2123 79.7171 45.3785 75.8749 43.5739C72.091 41.711 68.2779 39.8481 64.4357 37.9852V22.2672C67.6375 23.8972 70.8102 25.5272 73.9538 27.1573C77.1557 28.7291 80.3575 30.33 83.5593 31.96C87.7508 34.1722 94.0962 37.4322 102.596 41.7401C101.722 39.2951 100.849 36.8501 99.9759 34.405C99.1609 31.96 98.2877 29.515 97.3563 27.0699C96.483 24.6249 95.6098 22.1799 94.7366 19.7349C93.5723 23.1113 92.408 26.4878 91.2437 29.8643C90.1376 33.2407 89.0024 36.6172 87.8381 39.9937C86.6738 43.3701 85.5095 46.7466 84.3452 50.1231C83.1809 53.4995 82.0166 56.876 80.8523 60.2525H64.4357Z" fill="black"/>
<path d="M0 98.2524C0.4918 96.9708 0.976148 95.6891 1.45304 94.4075C1.94484 93.1109 2.43664 91.8218 2.92844 90.5401C3.42024 89.2585 3.91204 87.9768 4.40384 86.6952C4.89564 85.3986 5.37999 84.1095 5.85689 82.8278C6.18475 82.8278 6.50517 82.8278 6.81813 82.8278C7.1311 82.8278 7.45151 82.8278 7.77938 82.8278C8.12215 82.8278 8.45746 82.8278 8.78533 82.8278C9.1281 82.8278 9.46342 82.8278 9.79128 82.8278C9.8509 82.9769 9.90306 83.1184 9.94777 83.2526C9.99248 83.3867 10.0446 83.5283 10.1042 83.6773C10.7153 85.3017 11.3188 86.9262 11.915 88.5506C12.526 90.175 13.1296 91.792 13.7257 93.4015C14.3367 95.011 14.9477 96.628 15.5588 98.2524C15.3501 98.2524 15.134 98.2524 14.9105 98.2524C14.6869 98.2524 14.4708 98.2524 14.2622 98.2524C14.0535 98.2524 13.8449 98.2524 13.6363 98.2524C13.3233 98.2524 13.0029 98.2524 12.675 98.2524C12.3621 98.2524 12.0491 98.2524 11.7361 98.2524C10.7674 97.7756 9.79128 97.2987 8.80769 96.8218C7.82409 96.3449 6.84794 95.868 5.87924 95.3911C4.89564 94.9142 3.91204 94.4447 2.92844 93.9827C1.95975 93.5058 0.983599 93.0289 0 92.552V88.5282C0.819666 88.9455 1.63188 89.3628 2.43664 89.7801C3.25631 90.1825 4.07598 90.5923 4.89564 91.0096C5.96866 91.5759 7.59309 92.4105 9.76893 93.5133C9.54538 92.8874 9.32184 92.2614 9.09829 91.6355C8.88965 91.0096 8.66611 90.3837 8.42766 89.7577C8.20411 89.1318 7.98057 88.5059 7.75702 87.88C7.45896 88.7443 7.1609 89.6087 6.86284 90.4731C6.57968 91.3375 6.28908 92.2018 5.99101 93.0662C5.69295 93.9306 5.39489 94.7949 5.09683 95.6593C4.79877 96.5237 4.50071 97.3881 4.20265 98.2524H0Z" fill="black"/>
<path d="M17.1143 82.8278C17.6955 82.8278 18.2767 82.8278 18.858 82.8278C19.4392 82.8278 20.0204 82.8278 20.6016 82.8278C21.1828 82.8278 21.7641 82.8278 22.3453 82.8278C23.6418 82.8278 24.7521 83.029 25.6761 83.4314C26.6001 83.8338 27.3005 84.3926 27.7774 85.108C28.2692 85.8233 28.5151 86.643 28.5151 87.567C28.5151 88.3419 28.2692 89.0573 27.7774 89.713C27.3005 90.3539 26.6001 90.868 25.6761 91.2555C24.7521 91.6281 23.6716 91.8143 22.4347 91.8143C22.4347 91.4716 22.4347 91.1214 22.4347 90.7637C22.4347 90.406 22.4347 90.0558 22.4347 89.713C22.4347 89.4001 22.4347 89.0796 22.4347 88.7518C22.4347 88.4239 22.4347 88.1035 22.4347 87.7905C23.9399 87.7905 25.2439 88.0066 26.3467 88.4388C27.4645 88.8561 28.3139 89.4373 28.8952 90.1825C29.4764 90.9127 29.767 91.7398 29.767 92.6638C29.767 93.707 29.4764 94.6534 28.8952 95.5028C28.3288 96.3523 27.5166 97.023 26.4585 97.5148C25.4004 98.0066 24.1783 98.2524 22.7924 98.2524C22.1515 98.2524 21.5107 98.2524 20.8699 98.2524C20.2439 98.2524 19.618 98.2524 18.9921 98.2524C18.3811 98.2524 17.7551 98.2524 17.1143 98.2524V82.8278ZM21.2723 94.4522C21.4362 94.4522 21.5927 94.4522 21.7417 94.4522C21.9056 94.4522 22.0621 94.4522 22.2111 94.4522C22.3751 94.4522 22.539 94.4522 22.7029 94.4522C23.2395 94.4522 23.7089 94.3553 24.1113 94.1616C24.5286 93.9678 24.849 93.6921 25.0725 93.3345C25.311 92.9768 25.4302 92.5595 25.4302 92.0826C25.4302 91.7547 25.3706 91.4418 25.2514 91.1437C25.147 90.8308 24.998 90.555 24.8043 90.3166C24.6254 90.0781 24.4168 89.877 24.1783 89.713C24.2678 89.564 24.3423 89.4001 24.4019 89.2212C24.4764 89.0275 24.5286 88.8263 24.5584 88.6177C24.6031 88.3941 24.6254 88.1631 24.6254 87.9247C24.6254 87.3434 24.4168 86.8815 23.9995 86.5387C23.5822 86.181 23.001 86.0022 22.2559 86.0022C22.1515 86.0022 22.0398 86.0022 21.9205 86.0022C21.8162 86.0022 21.7044 86.0022 21.5852 86.0022C21.4809 86.0022 21.3766 86.0022 21.2723 86.0022V94.4522Z" fill="black"/>
<path d="M38.8167 98.5654C37.3115 98.5654 35.9628 98.2152 34.7705 97.5148C33.5932 96.7994 32.6692 95.8233 31.9986 94.5863C31.3429 93.3494 31.015 91.9634 31.015 90.4284C31.015 88.9381 31.3503 87.5968 32.0209 86.4045C32.6916 85.1974 33.623 84.2511 34.8153 83.5655C36.0224 82.8651 37.4009 82.5149 38.9508 82.5149C39.6066 82.5149 40.2772 82.5894 40.9628 82.7384C41.6483 82.8874 42.2817 83.0886 42.8629 83.342V87.5893C42.3115 87.2913 41.7228 87.0603 41.0969 86.8963C40.4859 86.7175 39.9046 86.6281 39.3532 86.6281C38.5783 86.6281 37.9002 86.792 37.319 87.1199C36.7377 87.4478 36.2832 87.9023 35.9553 88.4835C35.6424 89.0498 35.4859 89.6981 35.4859 90.4284C35.4859 91.2033 35.6424 91.8963 35.9553 92.5073C36.2683 93.1184 36.7079 93.5953 37.2743 93.938C37.8406 94.2808 38.4889 94.4522 39.2191 94.4522C39.8003 94.4522 40.4113 94.3702 41.0522 94.2063C41.7079 94.0424 42.3115 93.8039 42.8629 93.4909V97.7383C42.3115 97.9916 41.6707 98.1928 40.9404 98.3419C40.2102 98.4909 39.5023 98.5654 38.8167 98.5654Z" fill="black"/>
<path d="M45.6364 82.8278C46.2027 82.8278 46.7691 82.8278 47.3354 82.8278C47.9166 82.8278 48.4904 82.8278 49.0567 82.8278C49.6379 82.8278 50.2117 82.8278 50.778 82.8278C52.4322 82.8278 53.8852 83.1408 55.1371 83.7667C56.389 84.3926 57.3502 85.2794 58.0208 86.4269C58.7064 87.5744 59.0491 88.8934 59.0491 90.3837C59.0491 91.9932 58.6915 93.3941 57.9761 94.5863C57.2757 95.7636 56.2921 96.6727 55.0253 97.3136C53.7586 97.9395 52.313 98.2524 50.6885 98.2524C50.1371 98.2524 49.5708 98.2524 48.9896 98.2524C48.4233 98.2524 47.857 98.2524 47.2907 98.2524C46.7392 98.2524 46.1878 98.2524 45.6364 98.2524V82.8278ZM49.8838 94.2286C49.9583 94.2286 50.0328 94.2286 50.1073 94.2286C50.1967 94.2286 50.2787 94.2286 50.3532 94.2286C50.4277 94.2286 50.4948 94.2286 50.5544 94.2286C51.3294 94.2286 52.0224 94.0796 52.6334 93.7815C53.2444 93.4835 53.7213 93.0513 54.0641 92.485C54.4069 91.9038 54.5782 91.2033 54.5782 90.3837C54.5782 89.6832 54.4218 89.0722 54.1088 88.5506C53.7958 88.0141 53.3413 87.5968 52.7452 87.2987C52.149 87.0007 51.4486 86.8516 50.6438 86.8516C50.5693 86.8516 50.4874 86.8516 50.3979 86.8516C50.3085 86.8516 50.2191 86.8516 50.1297 86.8516C50.0552 86.8516 49.9732 86.8516 49.8838 86.8516V94.2286Z" fill="black"/>
<path d="M61.4584 98.2524C61.4584 97.3881 61.4584 96.5237 61.4584 95.6593C61.4584 94.7949 61.4584 93.9306 61.4584 93.0662C61.4584 92.1869 61.4584 91.3151 61.4584 90.4507C61.4584 89.6012 61.4584 88.7592 61.4584 87.9247C61.4584 87.0752 61.4584 86.2257 61.4584 85.3762C61.4584 84.5268 61.4584 83.6773 61.4584 82.8278C63.0828 82.8278 64.7072 82.8278 66.3317 82.8278C67.9561 82.8278 69.5805 82.8278 71.2049 82.8278V86.6281C70.2959 86.6281 69.3793 86.6281 68.4553 86.6281C67.5314 86.6281 66.5999 86.6281 65.661 86.6281C65.661 87.0603 65.661 87.4925 65.661 87.9247C65.661 88.3419 65.661 88.7667 65.661 89.1989C65.661 89.6162 65.661 90.0334 65.661 90.4507C65.661 90.8978 65.661 91.3449 65.661 91.792C65.661 92.2391 65.661 92.6862 65.661 93.1333C65.661 93.5655 65.661 94.0051 65.661 94.4522C66.5999 94.4522 67.5314 94.4522 68.4553 94.4522C69.3793 94.4522 70.2959 94.4522 71.2049 94.4522V98.2524C69.5805 98.2524 67.9561 98.2524 66.3317 98.2524C64.7072 98.2524 63.0828 98.2524 61.4584 98.2524ZM63.4479 88.4388C64.044 88.4388 64.6327 88.4388 65.2139 88.4388C65.81 88.4388 66.4136 88.4388 67.0246 88.4388C67.6208 88.4388 68.2094 88.4388 68.7907 88.4388C69.3868 88.4388 69.9829 88.4388 70.579 88.4388V92.2391C69.9829 92.2391 69.3868 92.2391 68.7907 92.2391C68.2094 92.2391 67.6208 92.2391 67.0246 92.2391C66.4285 92.2391 65.8324 92.2391 65.2363 92.2391C64.6402 92.2391 64.044 92.2391 63.4479 92.2391V88.4388Z" fill="black"/>
<path d="M76.5089 88.8188C77.0752 88.8188 77.6341 88.8188 78.1855 88.8188C78.7518 88.8188 79.3181 88.8188 79.8844 88.8188C80.4359 88.8188 80.9798 88.8188 81.5163 88.8188C82.0528 88.8188 82.5968 88.8188 83.1482 88.8188V92.7532C82.5968 92.7532 82.0528 92.7532 81.5163 92.7532C80.9798 92.7532 80.4359 92.7532 79.8844 92.7532C79.3181 92.7532 78.7518 92.7532 78.1855 92.7532C77.6341 92.7532 77.0752 92.7532 76.5089 92.7532V88.8188ZM74.0276 98.2524C74.0276 96.8814 74.0276 95.5103 74.0276 94.1392C74.0276 92.7532 74.0276 91.3747 74.0276 90.0036C74.0276 89.1989 74.0276 88.4016 74.0276 87.6117C74.0276 86.8218 74.0276 86.0245 74.0276 85.2198C74.0276 84.415 74.0276 83.6177 74.0276 82.8278C75.652 82.8278 77.2764 82.8278 78.9008 82.8278C80.5402 82.8278 82.1646 82.8278 83.7741 82.8278V86.7622C82.865 86.7622 81.9485 86.7622 81.0245 86.7622C80.1154 86.7622 79.1989 86.7622 78.2749 86.7622C78.2749 87.1199 78.2749 87.485 78.2749 87.8576C78.2749 88.2153 78.2749 88.5729 78.2749 88.9306C78.2749 89.2883 78.2749 89.646 78.2749 90.0036C78.2749 91.3747 78.2749 92.7532 78.2749 94.1392C78.2749 95.5103 78.2749 96.8814 78.2749 98.2524H74.0276Z" fill="black"/>
<path d="M98.1416 87.9247C97.4859 87.5223 96.7705 87.2093 95.9956 86.9858C95.2206 86.7473 94.4531 86.6281 93.6931 86.6281C92.8734 86.6281 92.1655 86.792 91.5694 87.1199C90.9733 87.4478 90.5113 87.9023 90.1834 88.4835C89.8704 89.0498 89.714 89.6981 89.714 90.4284C89.714 91.248 89.863 91.9708 90.1611 92.5968C90.474 93.2078 90.8913 93.6772 91.4129 94.0051C91.9345 94.333 92.5008 94.4969 93.1119 94.4969C93.6335 94.4969 94.1253 94.3926 94.5873 94.1839C95.0642 93.9753 95.4814 93.6772 95.8391 93.2897C96.1968 92.9023 96.4874 92.4552 96.7109 91.9485C97.0984 92.4701 97.4784 92.9991 97.851 93.5356C98.2385 94.0573 98.6185 94.5789 98.9911 95.1005C99.3786 95.6221 99.7586 96.1511 100.131 96.6876C100.519 97.2092 100.899 97.7308 101.271 98.2524H97.471C96.9792 97.5371 96.4874 96.8292 95.9956 96.1288C95.5038 95.4134 95.012 94.6981 94.5202 93.9827C94.0284 93.2823 93.5366 92.5744 93.0448 91.8591C92.553 91.1437 92.0612 90.4358 91.5694 89.7354C92.0612 89.7354 92.553 89.7354 93.0448 89.7354C93.5366 89.7354 94.0209 89.7354 94.4978 89.7354C94.9747 89.7354 95.4591 89.7354 95.9509 89.7354C96.4427 89.7354 96.927 89.7354 97.4039 89.7354C97.8957 89.7354 98.3801 89.7354 98.857 89.7354C99.3488 89.7354 99.8406 89.7354 100.332 89.7354C100.332 91.4492 100.005 92.9768 99.3488 94.3181C98.7079 95.6444 97.8063 96.6876 96.6439 97.4477C95.4963 98.1928 94.1849 98.5654 92.7095 98.5654C91.3235 98.5654 90.0567 98.2152 88.9092 97.5148C87.7766 96.8143 86.8824 95.8456 86.2267 94.6087C85.5709 93.3717 85.2431 91.9783 85.2431 90.4284C85.2431 88.9679 85.5784 87.634 86.249 86.4269C86.9197 85.2198 87.866 84.266 89.088 83.5655C90.325 82.8651 91.7408 82.5149 93.3354 82.5149C94.1849 82.5149 95.0194 82.6192 95.8391 82.8278C96.6737 83.0365 97.4412 83.3196 98.1416 83.6773V87.9247Z" fill="black"/>
<path d="M102.833 98.2524C102.833 96.9708 102.833 95.6891 102.833 94.4075C102.833 93.1109 102.833 91.8218 102.833 90.5401C102.833 89.2585 102.833 87.9768 102.833 86.6952C102.833 85.3986 102.833 84.1095 102.833 82.8278H107.148C107.148 84.1095 107.148 85.3986 107.148 86.6952C107.148 87.9768 107.148 89.2585 107.148 90.5401C107.148 91.8218 107.148 93.1109 107.148 94.4075C107.148 95.6891 107.148 96.9708 107.148 98.2524H102.833ZM111.842 98.2524C111.842 96.9708 111.842 95.6891 111.842 94.4075C111.842 93.1109 111.842 91.8218 111.842 90.5401C111.842 89.2585 111.842 87.9768 111.842 86.6952C111.842 85.3986 111.842 84.1095 111.842 82.8278H116.157C116.157 84.1095 116.157 85.3986 116.157 86.6952C116.157 87.9768 116.157 89.2585 116.157 90.5401C116.157 91.8218 116.157 93.1109 116.157 94.4075C116.157 95.6891 116.157 96.9708 116.157 98.2524H111.842ZM104.644 88.1929C105.449 88.1929 106.254 88.1929 107.058 88.1929C107.878 88.1929 108.69 88.1929 109.495 88.1929C110.3 88.1929 111.105 88.1929 111.909 88.1929C112.729 88.1929 113.541 88.1929 114.346 88.1929V92.2167C113.541 92.2167 112.729 92.2167 111.909 92.2167C111.105 92.2167 110.3 92.2167 109.495 92.2167C108.69 92.2167 107.878 92.2167 107.058 92.2167C106.254 92.2167 105.449 92.2167 104.644 92.2167V88.1929Z" fill="black"/>
<path d="M119.507 98.2524C119.507 96.9708 119.507 95.6891 119.507 94.4075C119.507 93.1109 119.507 91.8218 119.507 90.5401C119.507 89.2585 119.507 87.9768 119.507 86.6952C119.507 85.3986 119.507 84.1095 119.507 82.8278H123.754C123.754 84.1095 123.754 85.3986 123.754 86.6952C123.754 87.9768 123.754 89.2585 123.754 90.5401C123.754 91.8218 123.754 93.1109 123.754 94.4075C123.754 95.6891 123.754 96.9708 123.754 98.2524H119.507Z" fill="black"/>
<path d="M132.218 82.8278C132.218 84.5119 132.218 86.1959 132.218 87.88C132.218 89.5491 132.218 91.2257 132.218 92.9097C132.218 93.9976 132.218 95.093 132.218 96.1958C132.218 97.2838 132.218 98.3717 132.218 99.4596C132.218 100.548 132.218 101.635 132.218 102.723C131.622 102.694 131.026 102.656 130.429 102.612C129.848 102.582 129.26 102.545 128.663 102.5C128.067 102.47 127.471 102.433 126.875 102.388C126.279 102.343 125.683 102.306 125.087 102.276V98.5654C125.325 98.5803 125.564 98.5952 125.802 98.6101C126.055 98.625 126.301 98.6399 126.54 98.6548C126.778 98.6697 127.017 98.6846 127.255 98.6995C127.494 98.7144 127.732 98.7294 127.97 98.7443C127.97 98.1034 127.97 97.4551 127.97 96.7994C127.97 96.1437 127.97 95.4954 127.97 94.8546C127.97 94.1988 127.97 93.5506 127.97 92.9097C127.97 91.2257 127.97 89.5491 127.97 87.88C127.97 86.1959 127.97 84.5119 127.97 82.8278H132.218Z" fill="black"/>
<path d="M144.304 98.2524C143.827 97.5818 143.35 96.9186 142.874 96.2629C142.412 95.5923 141.942 94.9216 141.465 94.251C141.003 93.5804 140.534 92.9097 140.057 92.2391C139.58 91.5684 139.103 90.9053 138.626 90.2495C139.088 89.6236 139.55 89.0051 140.012 88.3941C140.474 87.7682 140.936 87.1497 141.398 86.5387C141.86 85.9277 142.322 85.3092 142.784 84.6833C143.246 84.0573 143.708 83.4389 144.17 82.8278H149.267C148.805 83.4389 148.343 84.0573 147.881 84.6833C147.419 85.2943 146.957 85.9053 146.495 86.5163C146.033 87.1274 145.571 87.7458 145.109 88.3717C144.647 88.9828 144.185 89.5938 143.723 90.2048C144.215 90.8755 144.707 91.5461 145.198 92.2167C145.69 92.8874 146.182 93.558 146.674 94.2286C147.166 94.8993 147.657 95.5699 148.149 96.2405C148.641 96.9112 149.133 97.5818 149.625 98.2524H144.304ZM135.564 98.2524C135.564 96.9708 135.564 95.6891 135.564 94.4075C135.564 93.1109 135.564 91.8218 135.564 90.5401C135.564 89.2585 135.564 87.9768 135.564 86.6952C135.564 85.3986 135.564 84.1095 135.564 82.8278H139.811C139.811 84.1095 139.811 85.3986 139.811 86.6952C139.811 87.9768 139.811 89.2585 139.811 90.5401C139.811 91.8218 139.811 93.1109 139.811 94.4075C139.811 95.6891 139.811 96.9708 139.811 98.2524H135.564Z" fill="black"/>
<path d="M151.189 98.2524C151.189 97.3881 151.189 96.5237 151.189 95.6593C151.189 94.7949 151.189 93.9306 151.189 93.0662C151.189 92.1869 151.189 91.3151 151.189 90.4507C151.189 89.184 151.189 87.9172 151.189 86.6505C151.189 85.3688 151.189 84.0946 151.189 82.8278H155.436C155.436 84.0946 155.436 85.3688 155.436 86.6505C155.436 87.9172 155.436 89.184 155.436 90.4507C155.436 90.868 155.436 91.2927 155.436 91.7249C155.436 92.1422 155.436 92.5595 155.436 92.9768C155.436 93.3941 155.436 93.8114 155.436 94.2286C156.405 94.2286 157.374 94.2286 158.343 94.2286C159.311 94.2286 160.28 94.2286 161.249 94.2286V98.2524C159.58 98.2524 157.903 98.2524 156.219 98.2524C154.55 98.2524 152.873 98.2524 151.189 98.2524Z" fill="black"/>
<path d="M163.133 98.2524C163.282 96.9708 163.424 95.6891 163.558 94.4075C163.707 93.1109 163.856 91.8218 164.005 90.5401C164.393 87.1124 164.676 84.5417 164.855 82.8278C165.227 82.8278 165.6 82.8278 165.972 82.8278C166.36 82.8278 166.74 82.8278 167.113 82.8278C167.515 82.8278 167.917 82.8278 168.32 82.8278C168.737 82.8278 169.147 82.8278 169.549 82.8278C169.758 83.3792 169.966 83.9307 170.175 84.4821C170.384 85.0335 170.592 85.5923 170.801 86.1587C171.01 86.7101 171.218 87.2689 171.427 87.8352C171.636 88.3867 171.844 88.9381 172.053 89.4895C172.261 88.9381 172.463 88.3867 172.656 87.8352C172.865 87.2689 173.074 86.7101 173.282 86.1587C173.491 85.6072 173.692 85.0558 173.886 84.5044C174.095 83.9381 174.303 83.3792 174.512 82.8278C174.914 82.8278 175.302 82.8278 175.674 82.8278C176.062 82.8278 176.442 82.8278 176.814 82.8278C177.217 82.8278 177.619 82.8278 178.022 82.8278C178.439 82.8278 178.849 82.8278 179.251 82.8278C179.4 84.1095 179.542 85.3986 179.676 86.6952C179.825 87.9768 179.974 89.2585 180.123 90.5401C180.51 93.9678 180.793 96.5386 180.972 98.2524H176.949C176.859 97.4179 176.762 96.5833 176.658 95.7487C176.568 94.8993 176.479 94.0573 176.39 93.2227C176.136 90.868 175.95 89.1989 175.831 88.2153C175.682 88.5878 175.533 88.9679 175.384 89.3553C175.25 89.7279 175.108 90.1005 174.959 90.4731C174.81 90.8457 174.661 91.2257 174.512 91.6132C174.378 91.9857 174.236 92.3658 174.087 92.7532V96.33H169.929V92.9321C169.795 92.5297 169.653 92.1348 169.504 91.7473C169.355 91.3449 169.206 90.95 169.057 90.5625C168.908 90.175 168.759 89.7875 168.61 89.4001C168.476 88.9977 168.335 88.6027 168.186 88.2153C168.096 89.0498 167.999 89.8844 167.895 90.719C167.805 91.5535 167.716 92.3881 167.627 93.2227C167.537 94.0573 167.448 94.8993 167.358 95.7487C167.269 96.5833 167.172 97.4179 167.068 98.2524H163.133Z" fill="black"/>
<path d="M197.789 82.8278C197.789 83.8561 197.789 84.8844 197.789 85.9128C197.789 86.9411 197.789 87.9694 197.789 88.9977C197.789 89.7726 197.789 90.5476 197.789 91.3225C197.789 92.0826 197.789 92.8501 197.789 93.6251C197.774 94.4 197.766 95.175 197.766 95.9499C197.766 96.71 197.766 97.4775 197.766 98.2524C197.319 98.2524 196.865 98.2524 196.403 98.2524C195.941 98.2524 195.471 98.2524 194.994 98.2524C194.547 98.2524 194.093 98.2524 193.631 98.2524C193.183 98.2524 192.729 98.2524 192.267 98.2524L187.729 88.1482C187.729 88.8039 187.729 89.4597 187.729 90.1154C187.729 90.7711 187.729 91.4269 187.729 92.0826C187.729 93.1109 187.729 94.1392 187.729 95.1675C187.729 96.1958 187.729 97.2241 187.729 98.2524H183.75C183.75 97.2241 183.75 96.1958 183.75 95.1675C183.75 94.1392 183.75 93.1109 183.75 92.0826C183.75 90.5327 183.75 88.9902 183.75 87.4552C183.75 85.9053 183.75 84.3628 183.75 82.8278C184.212 82.8278 184.666 82.8278 185.113 82.8278C185.575 82.8278 186.045 82.8278 186.522 82.8278C186.954 82.8278 187.394 82.8278 187.841 82.8278C188.303 82.8278 188.772 82.8278 189.249 82.8278L193.809 92.7309C193.809 92.105 193.809 91.4865 193.809 90.8755C193.809 90.2495 193.809 89.6236 193.809 88.9977C193.809 87.9694 193.809 86.9411 193.809 85.9128C193.809 84.8844 193.809 83.8561 193.809 82.8278H197.789ZM186.142 78.3122C186.902 78.3122 187.662 78.3122 188.422 78.3122C189.197 78.3122 189.964 78.3122 190.724 78.3122C191.485 78.3122 192.245 78.3122 193.005 78.3122C193.78 78.3122 194.547 78.3122 195.307 78.3122V81.3971C194.547 81.3971 193.78 81.3971 193.005 81.3971C192.245 81.3971 191.485 81.3971 190.724 81.3971C189.964 81.3971 189.197 81.3971 188.422 81.3971C187.662 81.3971 186.902 81.3971 186.142 81.3971V78.3122Z" fill="black"/>
<path d="M208.275 98.7443C206.755 98.7443 205.376 98.3866 204.139 97.6712C202.917 96.9559 201.956 95.9648 201.255 94.6981C200.555 93.4313 200.205 92.0081 200.205 90.4284C200.205 88.8785 200.547 87.4925 201.233 86.2704C201.919 85.0335 202.872 84.0722 204.094 83.3867C205.316 82.6862 206.71 82.336 208.275 82.336C209.84 82.336 211.233 82.6862 212.455 83.3867C213.677 84.0722 214.631 85.0335 215.316 86.2704C216.002 87.4925 216.345 88.8785 216.345 90.4284C216.345 92.0081 215.994 93.4313 215.294 94.6981C214.594 95.9648 213.625 96.9559 212.388 97.6712C211.166 98.3866 209.795 98.7443 208.275 98.7443ZM208.275 94.5863C208.93 94.5863 209.534 94.4149 210.085 94.0722C210.637 93.7145 211.069 93.2227 211.382 92.5968C211.71 91.9559 211.874 91.2331 211.874 90.4284C211.874 89.6683 211.717 88.9902 211.404 88.3941C211.106 87.798 210.682 87.336 210.13 87.0081C209.594 86.6654 208.975 86.494 208.275 86.494C207.589 86.494 206.971 86.6654 206.419 87.0081C205.868 87.336 205.436 87.798 205.123 88.3941C204.825 88.9902 204.676 89.6683 204.676 90.4284C204.676 91.2331 204.832 91.9559 205.145 92.5968C205.473 93.2227 205.913 93.7145 206.464 94.0722C207.015 94.4149 207.619 94.5863 208.275 94.5863Z" fill="black"/>
<path d="M218.756 98.2524C218.756 95.6742 218.756 93.1035 218.756 90.5401C218.756 87.9619 218.756 85.3911 218.756 82.8278C219.322 82.8278 219.881 82.8278 220.432 82.8278C220.999 82.8278 221.557 82.8278 222.109 82.8278C222.66 82.8278 223.219 82.8278 223.785 82.8278C225.052 82.8278 226.17 83.0588 227.139 83.5208C228.107 83.9679 228.852 84.5938 229.374 85.3986C229.911 86.2034 230.179 87.1199 230.179 88.1482C230.179 89.2808 229.918 90.2793 229.396 91.1437C228.875 92.0081 228.13 92.6787 227.161 93.1556C226.192 93.6176 225.067 93.8486 223.785 93.8486C223.383 93.8486 222.988 93.8486 222.601 93.8486C222.228 93.8486 221.848 93.8486 221.461 93.8486V89.9589C221.818 89.9589 222.168 89.9589 222.511 89.9589C222.854 89.9589 223.204 89.9589 223.562 89.9589C224.009 89.9589 224.404 89.8844 224.747 89.7354C225.104 89.5863 225.373 89.3777 225.551 89.1095C225.745 88.8263 225.842 88.5059 225.842 88.1482C225.842 87.8352 225.76 87.5521 225.596 87.2987C225.432 87.0454 225.194 86.8516 224.881 86.7175C224.568 86.5685 224.203 86.494 223.785 86.494C223.696 86.494 223.607 86.494 223.517 86.494C223.443 86.494 223.361 86.494 223.271 86.494C223.182 86.494 223.092 86.494 223.003 86.494C223.003 88.491 223.003 90.4731 223.003 92.4403C223.003 94.3926 223.003 96.33 223.003 98.2524H218.756Z" fill="black"/>
<path d="M243.554 99.5937C243.107 98.9529 242.653 98.3195 242.191 97.6936C241.743 97.0528 241.296 96.4119 240.849 95.7711C240.462 95.2197 240.074 94.6757 239.687 94.1392C239.299 93.5878 238.912 93.0364 238.524 92.485H242.727C243.115 93.0364 243.502 93.5878 243.889 94.1392C244.277 94.6757 244.664 95.2197 245.052 95.7711C245.499 96.4119 245.946 97.0528 246.393 97.6936C246.855 98.3195 247.31 98.9529 247.757 99.5937H243.554ZM239.329 98.7443C237.809 98.7443 236.431 98.3866 235.194 97.6712C233.972 96.9559 233.01 95.9648 232.31 94.6981C231.609 93.4313 231.259 92.0081 231.259 90.4284C231.259 88.8785 231.602 87.4925 232.287 86.2704C232.973 85.0335 233.927 84.0722 235.149 83.3867C236.371 82.6862 237.764 82.336 239.329 82.336C240.894 82.336 242.287 82.6862 243.509 83.3867C244.732 84.0722 245.685 85.0335 246.371 86.2704C247.056 87.4925 247.399 88.8785 247.399 90.4284C247.399 92.0081 247.049 93.4313 246.348 94.6981C245.648 95.9648 244.679 96.9559 243.442 97.6712C242.22 98.3866 240.849 98.7443 239.329 98.7443ZM239.329 94.5863C239.985 94.5863 240.588 94.4149 241.14 94.0722C241.691 93.7145 242.123 93.2227 242.436 92.5968C242.764 91.9559 242.928 91.2331 242.928 90.4284C242.928 89.6683 242.772 88.9902 242.459 88.3941C242.161 87.798 241.736 87.336 241.185 87.0081C240.648 86.6654 240.03 86.494 239.329 86.494C238.644 86.494 238.025 86.6654 237.474 87.0081C236.922 87.336 236.49 87.798 236.177 88.3941C235.879 88.9902 235.73 89.6683 235.73 90.4284C235.73 91.2331 235.887 91.9559 236.2 92.5968C236.527 93.2227 236.967 93.7145 237.518 94.0722C238.07 94.4149 238.673 94.5863 239.329 94.5863Z" fill="black"/>
<path d="M249.677 98.2524C249.677 96.8963 249.677 95.5401 249.677 94.1839C249.677 92.8129 249.677 91.4418 249.677 90.0707C250.139 90.0707 250.601 90.0707 251.063 90.0707C251.54 90.0707 252.009 90.0707 252.471 90.0707C252.933 90.0707 253.395 90.0707 253.857 90.0707C254.334 90.0707 254.804 90.0707 255.266 90.0707C255.743 90.0707 256.16 89.9887 256.518 89.8248C256.875 89.6609 257.143 89.4299 257.322 89.1318C257.516 88.8337 257.613 88.4761 257.613 88.0588C257.613 87.7011 257.524 87.3882 257.345 87.1199C257.166 86.8367 256.912 86.6206 256.585 86.4716C256.257 86.3077 255.884 86.2257 255.467 86.2257C255.407 86.2257 255.34 86.2257 255.266 86.2257C255.191 86.2257 255.117 86.2257 255.042 86.2257C254.983 86.2257 254.915 86.2257 254.841 86.2257C255.228 86.9262 255.616 87.6266 256.003 88.327C256.391 89.0126 256.778 89.7056 257.166 90.406C257.911 91.7175 258.649 93.0289 259.379 94.3404C260.109 95.637 260.832 96.941 261.547 98.2524H257.076C256.391 96.9708 255.705 95.6891 255.02 94.4075C254.349 93.1109 253.671 91.8218 252.986 90.5401C252.3 89.2585 251.614 87.9768 250.929 86.6952C250.243 85.3986 249.558 84.1095 248.872 82.8278C249.603 82.8278 250.333 82.8278 251.063 82.8278C251.793 82.8278 252.524 82.8278 253.254 82.8278C253.999 82.8278 254.737 82.8278 255.467 82.8278C256.808 82.8278 257.963 83.0439 258.932 83.4761C259.915 83.9083 260.661 84.5193 261.167 85.3092C261.689 86.099 261.95 87.0156 261.95 88.0588C261.95 89.102 261.696 90.0334 261.19 90.8531C260.683 91.6579 259.968 92.2912 259.044 92.7532C258.135 93.2003 257.084 93.4239 255.892 93.4239C255.698 93.4239 255.504 93.4239 255.31 93.4239C255.132 93.4239 254.945 93.4239 254.752 93.4239C254.558 93.4239 254.364 93.4239 254.17 93.4239C253.991 93.4239 253.805 93.4239 253.611 93.4239C253.611 94.2286 253.611 95.0334 253.611 95.8382C253.611 96.6429 253.611 97.4477 253.611 98.2524H249.677Z" fill="black"/>
<path d="M268.708 98.6548C267.739 98.6548 266.852 98.5654 266.048 98.3866C265.243 98.2077 264.535 97.9618 263.924 97.6489V93.5356C264.595 93.9231 265.28 94.2435 265.981 94.4969C266.696 94.7353 267.396 94.8546 268.082 94.8546C268.469 94.8546 268.797 94.8173 269.066 94.7428C269.334 94.6534 269.535 94.5416 269.669 94.4075C269.818 94.2584 269.893 94.102 269.893 93.938C269.893 93.7294 269.826 93.5431 269.692 93.3792C269.557 93.2152 269.282 93.0364 268.864 92.8427C268.462 92.634 267.851 92.3732 267.031 92.0602C266.212 91.7324 265.504 91.3524 264.908 90.9202C264.326 90.488 263.864 89.9813 263.522 89.4001C263.194 88.8188 263.03 88.1482 263.03 87.3882C263.03 86.3747 263.268 85.4955 263.745 84.7503C264.237 83.9903 264.915 83.409 265.779 83.0067C266.659 82.5894 267.672 82.3807 268.82 82.3807C269.833 82.3807 270.787 82.5 271.681 82.7384C272.59 82.9769 273.395 83.3047 274.095 83.722V87.9247C273.365 87.4478 272.56 87.0603 271.681 86.7622C270.817 86.4642 269.997 86.3151 269.222 86.3151C268.76 86.3151 268.38 86.3598 268.082 86.4493C267.799 86.5238 267.59 86.6281 267.456 86.7622C267.337 86.8963 267.277 87.0305 267.277 87.1646C267.277 87.3434 267.344 87.5074 267.478 87.6564C267.627 87.8054 267.873 87.9619 268.216 88.1258C268.559 88.2898 269.066 88.491 269.736 88.7294C270.884 89.1467 271.785 89.5863 272.441 90.0483C273.097 90.5103 273.566 91.0245 273.849 91.5908C274.133 92.1422 274.274 92.8054 274.274 93.5804C274.274 94.5938 274.028 95.4879 273.536 96.2629C273.06 97.023 272.396 97.6116 271.547 98.0289C270.712 98.4462 269.766 98.6548 268.708 98.6548Z" fill="black"/>
<path d="M279.535 98.2524C279.535 96.9857 279.535 95.7264 279.535 94.4745C279.535 93.2078 279.535 91.941 279.535 90.6743C279.535 89.4075 279.535 88.1407 279.535 86.874C279.535 85.5923 279.535 84.3181 279.535 83.0514H283.849C283.849 84.3181 283.849 85.5923 283.849 86.874C283.849 88.1407 283.849 89.4075 283.849 90.6743C283.849 91.941 283.849 93.2078 283.849 94.4745C283.849 95.7264 283.849 96.9857 283.849 98.2524H279.535ZM275.399 82.8278C276.443 82.8278 277.486 82.8278 278.529 82.8278C279.587 82.8278 280.638 82.8278 281.681 82.8278C282.724 82.8278 283.767 82.8278 284.811 82.8278C285.869 82.8278 286.919 82.8278 287.963 82.8278V86.8516C286.919 86.8516 285.869 86.8516 284.811 86.8516C283.767 86.8516 282.724 86.8516 281.681 86.8516C280.638 86.8516 279.587 86.8516 278.529 86.8516C277.486 86.8516 276.443 86.8516 275.399 86.8516V82.8278Z" fill="black"/>
<path d="M296.286 98.7443C295.094 98.7443 294.036 98.5207 293.112 98.0736C292.203 97.6116 291.48 96.9633 290.944 96.1288C290.422 95.2793 290.124 94.2882 290.049 93.1556C289.99 92.2912 289.93 91.4343 289.871 90.5848C289.826 89.7205 289.781 88.8561 289.737 87.9917C289.677 87.1273 289.617 86.2704 289.558 85.421C289.513 84.5566 289.461 83.6922 289.401 82.8278H293.693C293.723 83.3792 293.753 83.9381 293.783 84.5044C293.827 85.0707 293.865 85.637 293.894 86.2034C293.954 87.2913 294.014 88.3718 294.073 89.4448C294.148 90.5029 294.222 91.5237 294.297 92.5073C294.327 92.9395 294.424 93.3121 294.587 93.6251C294.766 93.938 294.997 94.1765 295.28 94.3404C295.579 94.5043 295.914 94.5863 296.286 94.5863C296.659 94.5863 296.987 94.5043 297.27 94.3404C297.568 94.1765 297.799 93.938 297.963 93.6251C298.142 93.3121 298.246 92.9395 298.276 92.5073C298.35 91.5237 298.418 90.5029 298.477 89.4448C298.552 88.3718 298.619 87.2913 298.678 86.2034C298.708 85.637 298.738 85.0707 298.768 84.5044C298.812 83.9381 298.85 83.3792 298.88 82.8278H303.172C303.112 83.6922 303.052 84.5566 302.993 85.421C302.948 86.2704 302.903 87.1273 302.859 87.9917C302.799 88.8561 302.739 89.7205 302.68 90.5848C302.635 91.4343 302.583 92.2912 302.523 93.1556C302.404 94.8844 301.786 96.248 300.668 97.2465C299.55 98.245 298.09 98.7443 296.286 98.7443Z" fill="black"/>
<path d="M311.707 98.2524C311.364 98.2524 311.014 98.2524 310.656 98.2524C310.314 98.2524 309.971 98.2524 309.628 98.2524C309.181 96.9708 308.726 95.6891 308.264 94.4075C307.817 93.1109 307.37 91.8218 306.923 90.5401C306.461 89.2585 306.007 87.9768 305.56 86.6952C305.112 85.3986 304.658 84.1095 304.196 82.8278H308.89C308.98 83.1259 309.069 83.4314 309.159 83.7444C309.248 84.0424 309.337 84.3479 309.427 84.6609C309.74 85.7488 310.083 86.9336 310.455 88.2153C310.843 89.4969 311.275 90.9276 311.752 92.5073C311.931 91.8963 312.43 90.2346 313.25 87.5223C313.89 85.421 314.36 83.8561 314.658 82.8278H319.218C318.309 85.3911 317.4 87.9619 316.491 90.5401C315.597 93.1184 314.695 95.6891 313.786 98.2524C313.443 98.2524 313.093 98.2524 312.735 98.2524C312.393 98.2524 312.05 98.2524 311.707 98.2524Z" fill="black"/>
<path d="M323.814 82.8278C324.008 83.9605 324.298 85.6743 324.686 87.9694C324.835 88.8337 324.977 89.6981 325.111 90.5625C325.26 91.412 325.409 92.2689 325.558 93.1333C325.707 92.6713 325.848 92.2093 325.982 91.7473C326.132 91.2853 326.273 90.8233 326.407 90.3613C326.556 89.8993 326.698 89.4448 326.832 88.9977C326.966 88.5357 327.108 88.0737 327.257 87.6117V84.2138H331.415V87.4329C331.549 87.88 331.824 88.8263 332.242 90.2719C332.376 90.7488 332.51 91.2257 332.644 91.7026C332.793 92.1795 332.935 92.6564 333.069 93.1333C333.278 91.9857 333.576 90.2644 333.963 87.9694C334.112 87.105 334.261 86.2481 334.41 85.3986C334.559 84.5342 334.708 83.6773 334.857 82.8278H338.926C338.27 86.2555 337.771 88.8263 337.428 90.5401C337.175 91.8218 336.921 93.1109 336.668 94.4075C336.43 95.6891 336.184 96.9708 335.93 98.2524C335.558 98.2524 335.178 98.2524 334.79 98.2524C334.418 98.2524 334.038 98.2524 333.65 98.2524C333.278 98.2524 332.897 98.2524 332.51 98.2524C332.123 98.2524 331.728 98.2524 331.325 98.2524C331.161 97.6563 330.99 97.0677 330.811 96.4864C330.647 95.9052 330.483 95.3166 330.319 94.7204C330.155 94.169 329.813 92.9991 329.291 91.2108C329.127 91.792 328.956 92.3807 328.777 92.9768C328.613 93.558 328.449 94.1392 328.285 94.7204C327.972 95.7338 327.629 96.9112 327.257 98.2524C326.854 98.2524 326.459 98.2524 326.072 98.2524C325.684 98.2524 325.304 98.2524 324.932 98.2524C324.544 98.2524 324.157 98.2524 323.769 98.2524C323.397 98.2524 323.024 98.2524 322.652 98.2524C322.413 96.9708 322.167 95.6891 321.914 94.4075C321.661 93.1109 321.407 91.8218 321.154 90.5401C320.901 89.2585 320.647 87.9768 320.394 86.6952C320.155 85.3986 319.91 84.1095 319.656 82.8278H323.814Z" fill="black"/>
<path d="M339.376 98.2524C340.092 97.2539 340.807 96.2554 341.522 95.2569C342.253 94.2584 342.975 93.2599 343.691 92.2614C344.421 91.2629 345.144 90.2644 345.859 89.2659C346.575 88.2674 347.29 87.2689 348.005 86.2704C347.737 86.2704 347.469 86.2704 347.2 86.2704C346.932 86.2704 346.664 86.2704 346.396 86.2704C346.262 86.2704 346.12 86.2704 345.971 86.2704C345.837 86.2704 345.703 86.2704 345.569 86.2704C345.434 86.2704 345.3 86.2704 345.166 86.2704C345.032 86.2704 344.89 86.2704 344.741 86.2704C345.442 87.2689 346.142 88.2674 346.843 89.2659C347.558 90.2644 348.266 91.2629 348.966 92.2614C349.667 93.2599 350.367 94.2584 351.068 95.2569C351.783 96.2554 352.491 97.2539 353.191 98.2524H348.452C347.752 97.239 347.051 96.2256 346.351 95.2122C345.651 94.1988 344.95 93.1854 344.25 92.172C343.549 91.1586 342.849 90.1452 342.148 89.1318C341.448 88.1184 340.747 87.105 340.047 86.0916C340.047 85.5551 340.047 85.0111 340.047 84.4597C340.047 83.9083 340.047 83.3643 340.047 82.8278C340.703 82.8278 341.366 82.8278 342.037 82.8278C342.707 82.8278 343.4 82.8278 344.115 82.8278C344.846 82.8278 345.606 82.8278 346.396 82.8278C347.156 82.8278 347.886 82.8278 348.586 82.8278C349.287 82.8278 349.957 82.8278 350.598 82.8278C351.254 82.8278 351.895 82.8278 352.521 82.8278C352.521 83.3643 352.521 83.9083 352.521 84.4597C352.521 85.0111 352.521 85.5551 352.521 86.0916C351.82 87.105 351.112 88.1184 350.397 89.1318C349.682 90.1452 348.974 91.1586 348.273 92.172C347.573 93.1854 346.865 94.1988 346.15 95.2122C345.449 96.2256 344.741 97.239 344.026 98.2524H339.376Z" fill="black"/>
<path d="M358.112 98.2524C358.112 97.0602 358.112 95.8754 358.112 94.6981C358.112 93.5058 358.112 92.3136 358.112 91.1214C358.544 90.4358 358.969 89.7503 359.386 89.0647C359.804 88.3643 360.221 87.6639 360.638 86.9634C361.055 86.2779 361.473 85.5923 361.89 84.9068C362.322 84.2064 362.747 83.5134 363.164 82.8278H368.037C367.575 83.573 367.106 84.3181 366.629 85.0633C366.152 85.8084 365.675 86.5536 365.198 87.2987C364.722 88.0439 364.245 88.7965 363.768 89.5565C363.306 90.3017 362.836 91.0468 362.359 91.792C362.359 92.865 362.359 93.9455 362.359 95.0334C362.359 96.1064 362.359 97.1794 362.359 98.2524H358.112ZM358.313 92.105C357.836 91.33 357.352 90.555 356.86 89.7801C356.368 89.0051 355.877 88.2302 355.385 87.4552C354.893 86.6803 354.401 85.9127 353.909 85.1527C353.418 84.3777 352.926 83.6028 352.434 82.8278H357.397C358.47 84.5864 359.274 85.8978 359.811 86.7622C360.213 87.418 360.616 88.0811 361.018 88.7518C361.421 89.4075 361.823 90.0632 362.225 90.719L358.313 92.105Z" fill="black"/>
<path d="M369.11 98.2524C369.11 97.6563 369.11 97.0602 369.11 96.4641C369.11 95.868 369.11 95.2718 369.11 94.6757L375.481 86.6281C375.287 86.6281 375.086 86.6281 374.877 86.6281C374.684 86.6281 374.482 86.6281 374.274 86.6281C373.26 86.6281 372.254 86.6281 371.256 86.6281C370.257 86.6281 369.259 86.6281 368.26 86.6281V82.8278C369.259 82.8278 370.265 82.8278 371.278 82.8278C372.292 82.8278 373.305 82.8278 374.318 82.8278C375.019 82.8278 375.712 82.8278 376.397 82.8278C377.083 82.8278 377.761 82.8278 378.432 82.8278C379.117 82.8278 379.795 82.8278 380.466 82.8278C380.466 83.4239 380.466 84.0201 380.466 84.6162C380.466 85.2123 380.466 85.8084 380.466 86.4045L374.095 94.4522C374.259 94.4522 374.423 94.4522 374.587 94.4522C374.765 94.4522 374.929 94.4522 375.078 94.4522C375.868 94.4522 376.651 94.4522 377.426 94.4522C378.201 94.4522 378.976 94.4522 379.751 94.4522V98.2524C378.827 98.2524 377.895 98.2524 376.956 98.2524C376.032 98.2524 375.093 98.2524 374.14 98.2524C373.573 98.2524 373.007 98.2524 372.441 98.2524C371.889 98.2524 371.33 98.2524 370.764 98.2524C370.213 98.2524 369.661 98.2524 369.11 98.2524Z" fill="black"/>
<path d="M8.33824 120.744C6.80323 120.744 5.4098 120.379 4.15794 119.649C2.92099 118.919 1.94484 117.92 1.2295 116.653C0.529057 115.372 0.178836 113.963 0.178836 112.428C0.178836 110.923 0.529057 109.552 1.2295 108.315C1.92994 107.078 2.89864 106.109 4.13559 105.409C5.38744 104.694 6.78833 104.336 8.33824 104.336C9.88815 104.336 11.2816 104.694 12.5185 105.409C13.7704 106.109 14.7465 107.078 15.447 108.315C16.1474 109.552 16.4976 110.923 16.4976 112.428C16.4976 113.963 16.14 115.372 15.4246 116.653C14.7242 117.92 13.748 118.919 12.4962 119.649C11.2592 120.379 9.87325 120.744 8.33824 120.744ZM8.33824 116.407C8.99397 116.407 9.59009 116.229 10.1266 115.871C10.678 115.513 11.1102 115.036 11.4232 114.44C11.7361 113.829 11.8926 113.159 11.8926 112.428C11.8926 111.728 11.7436 111.095 11.4455 110.528C11.1475 109.947 10.7227 109.492 10.1713 109.165C9.6348 108.837 9.02378 108.673 8.33824 108.673C7.6527 108.673 7.04168 108.844 6.50517 109.187C5.96866 109.515 5.54392 109.962 5.23096 110.528C4.9329 111.095 4.78387 111.728 4.78387 112.428C4.78387 113.159 4.94035 113.829 5.25331 114.44C5.56628 115.036 5.99101 115.513 6.52752 115.871C7.07894 116.229 7.68251 116.407 8.33824 116.407Z" fill="black"/>
<path d="M21.0505 120.252C21.0505 119.06 21.0505 117.853 21.0505 116.631C21.0505 115.409 21.0505 114.187 21.0505 112.965C21.0505 112.309 21.0505 111.624 21.0505 110.908C21.0505 110.193 21.0505 109.485 21.0505 108.785C21.0505 108.069 21.0505 107.384 21.0505 106.728C21.6019 106.862 22.1458 107.004 22.6823 107.153C23.2188 107.287 23.7554 107.421 24.2919 107.555C24.8284 107.704 25.3649 107.846 25.9014 107.98C26.4528 108.114 26.9968 108.256 27.5333 108.405V112.205C26.6242 111.966 25.7151 111.72 24.806 111.467C23.9118 111.214 23.0102 110.96 22.1011 110.707C21.192 110.469 20.283 110.223 19.3739 109.969C18.4797 109.716 17.5781 109.47 16.669 109.232C17.0863 108.859 17.5035 108.494 17.9208 108.136C18.353 107.764 18.7777 107.391 19.195 107.019C19.6272 106.661 20.052 106.303 20.4692 105.946C20.8865 105.573 21.3038 105.2 21.7211 104.828H25.2978C25.2978 105.737 25.2978 106.646 25.2978 107.555C25.2978 108.449 25.2978 109.351 25.2978 110.26C25.2978 111.154 25.2978 112.056 25.2978 112.965C25.2978 114.187 25.2978 115.402 25.2978 116.609C25.2978 117.816 25.2978 119.03 25.2978 120.252H21.0505Z" fill="black"/>
<path d="M29.3866 120.252C29.3866 119.641 29.3866 119.016 29.3866 118.375C29.3866 117.734 29.3866 117.108 29.3866 116.497L30.3478 115.692C31.5848 114.649 32.546 113.822 33.2316 113.211C33.9171 112.585 34.4685 111.996 34.8858 111.445C35.318 110.893 35.5341 110.416 35.5341 110.014C35.5341 109.686 35.4521 109.403 35.2882 109.165C35.1243 108.926 34.8933 108.74 34.5952 108.606C34.2971 108.472 33.9469 108.405 33.5445 108.405C32.8143 108.405 32.0393 108.598 31.2197 108.986C30.4 109.373 29.6176 109.865 28.8724 110.461V106.169C29.558 105.618 30.3478 105.185 31.242 104.873C32.1362 104.545 33.0975 104.381 34.1258 104.381C35.2584 104.381 36.2643 104.619 37.1436 105.096C38.0378 105.573 38.7308 106.229 39.2226 107.063C39.7144 107.883 39.9603 108.799 39.9603 109.813C39.9603 110.394 39.8783 110.938 39.7144 111.445C39.5505 111.937 39.3195 112.391 39.0214 112.808C38.7383 113.226 38.4029 113.621 38.0155 113.993C37.5982 114.396 37.1287 114.798 36.6071 115.2C36.0855 115.603 35.4968 116.035 34.8411 116.497C34.8113 116.512 34.774 116.534 34.7293 116.564C34.6995 116.579 34.6697 116.601 34.6399 116.631C35.0572 116.631 35.4745 116.631 35.8918 116.631C36.3091 116.631 36.7263 116.631 37.1436 116.631C37.5311 116.631 37.9111 116.631 38.2837 116.631C38.6563 116.631 39.0363 116.631 39.4238 116.631C39.4387 116.631 39.4536 116.631 39.4685 116.631C39.4834 116.631 39.4983 116.631 39.5132 116.631V120.252C38.7233 120.252 37.926 120.252 37.1213 120.252C36.3165 120.252 35.5192 120.252 34.7293 120.252C34.1481 120.252 33.5595 120.252 32.9633 120.252C32.3672 120.252 31.7711 120.252 31.175 120.252C30.5788 120.252 29.9827 120.252 29.3866 120.252Z" fill="black"/>
<path d="M41.7556 117.056C42.2027 116.907 42.6424 116.765 43.0746 116.631C43.5217 116.482 43.9687 116.333 44.4158 116.184C44.848 116.035 45.2877 115.893 45.7348 115.759C46.1818 115.61 46.6215 115.461 47.0537 115.312C46.6513 115.074 46.2415 114.843 45.8242 114.619C45.4218 114.396 45.012 114.165 44.5947 113.926C44.1774 113.703 43.7601 113.479 43.3428 113.255C42.9404 113.017 42.5306 112.786 42.1133 112.562C42.5306 112.324 42.9404 112.093 43.3428 111.869C43.7601 111.646 44.1774 111.415 44.5947 111.177C45.012 110.953 45.4218 110.729 45.8242 110.506C46.2415 110.267 46.6513 110.036 47.0537 109.813C46.6215 109.664 46.1818 109.522 45.7348 109.388C45.2877 109.239 44.848 109.09 44.4158 108.941C43.9687 108.792 43.5217 108.65 43.0746 108.516C42.6424 108.367 42.2027 108.218 41.7556 108.069V104.112C42.5753 104.396 43.395 104.679 44.2146 104.962C45.0343 105.23 45.854 105.498 46.6736 105.767C47.4933 106.05 48.3055 106.333 49.1103 106.616C49.93 106.884 50.7496 107.16 51.5693 107.443C51.5693 107.831 51.5693 108.218 51.5693 108.606C51.5693 108.978 51.5693 109.358 51.5693 109.746C51.5693 110.118 51.5693 110.498 51.5693 110.886C51.3308 111.02 51.0924 111.162 50.8539 111.311C50.6155 111.445 50.3696 111.579 50.1162 111.713C49.8778 111.847 49.6319 111.981 49.3785 112.115C49.1401 112.25 48.9016 112.391 48.6632 112.54C48.9016 112.674 49.1401 112.816 49.3785 112.965C49.6319 113.099 49.8778 113.241 50.1162 113.39C50.3547 113.539 50.5931 113.68 50.8316 113.814C51.0849 113.948 51.3308 114.09 51.5693 114.239C51.5693 114.627 51.5693 115.014 51.5693 115.402C51.5693 115.789 51.5693 116.169 51.5693 116.542C51.5693 116.914 51.5693 117.294 51.5693 117.682C50.7496 117.965 49.93 118.248 49.1103 118.531C48.3055 118.799 47.4933 119.068 46.6736 119.336C45.854 119.619 45.0343 119.902 44.2146 120.185C43.395 120.454 42.5753 120.729 41.7556 121.013V117.056Z" fill="black"/>
<path d="M60.4475 120.252C60.4475 119.373 60.4475 118.501 60.4475 117.637C60.4475 116.758 60.4475 115.878 60.4475 114.999C60.4475 114.448 60.4475 113.896 60.4475 113.345C60.4475 112.793 60.4475 112.25 60.4475 111.713C60.4475 111.162 60.4475 110.61 60.4475 110.059C60.1793 110.342 59.911 110.625 59.6428 110.908C59.3745 111.191 59.1137 111.482 58.8604 111.78C58.5921 112.063 58.3238 112.354 58.0556 112.652C57.7873 112.935 57.5191 113.218 57.2508 113.501C57.8022 113.501 58.3537 113.501 58.9051 113.501C59.4565 113.501 60.0153 113.501 60.5817 113.501C61.148 113.501 61.7068 113.501 62.2582 113.501C63.1375 113.501 64.0019 113.501 64.8514 113.501C65.7157 113.501 66.5652 113.501 67.3998 113.501V117.212C66.1926 117.212 64.978 117.212 63.756 117.212C62.5489 117.212 61.3417 117.212 60.1346 117.212C59.3298 117.212 58.525 117.212 57.7203 117.212C56.9304 117.212 56.1331 117.212 55.3283 117.212C54.5385 117.212 53.7486 117.212 52.9588 117.212C52.9588 116.542 52.9588 115.871 52.9588 115.2C52.9588 114.53 52.9588 113.859 52.9588 113.188C53.5996 112.488 54.2404 111.788 54.8812 111.087C55.537 110.387 56.1853 109.694 56.8261 109.008C57.4669 108.308 58.1078 107.615 58.7486 106.929C59.3894 106.229 60.0302 105.528 60.6711 104.828C61.3268 104.828 61.9751 104.828 62.6159 104.828C63.2716 104.828 63.9199 104.828 64.5608 104.828C64.5608 105.662 64.5608 106.504 64.5608 107.354C64.5608 108.203 64.5608 109.045 64.5608 109.88C64.5608 110.715 64.5608 111.549 64.5608 112.384C64.5608 113.695 64.5608 115.007 64.5608 116.318C64.5608 117.63 64.5608 118.941 64.5608 120.252H60.4475Z" fill="black"/>
<path d="M69.2851 115.916C69.8663 116.214 70.4848 116.452 71.1405 116.631C71.8111 116.81 72.4594 116.899 73.0853 116.899C73.5771 116.899 74.0019 116.84 74.3596 116.72C74.7172 116.586 74.9855 116.407 75.1643 116.184C75.3581 115.945 75.4549 115.677 75.4549 115.379C75.4549 115.111 75.3581 114.88 75.1643 114.686C74.9855 114.478 74.7247 114.321 74.3819 114.217C74.0391 114.098 73.6368 114.038 73.1748 114.038C72.832 114.038 72.4669 114.068 72.0794 114.127C71.6919 114.172 71.3044 114.247 70.917 114.351C70.3059 114.485 69.762 114.664 69.2851 114.887C69.2851 113.874 69.2851 112.779 69.2851 111.601C69.2851 110.424 69.2851 109.254 69.2851 108.092C69.2851 106.929 69.2851 105.841 69.2851 104.828C69.8216 104.828 70.3879 104.828 70.984 104.828C71.595 104.828 72.1986 104.828 72.7947 104.828C73.4058 104.828 73.9795 104.828 74.516 104.828C75.3208 104.828 76.1926 104.828 77.1315 104.828C78.0704 104.828 78.9422 104.828 79.747 104.828V108.628C79.1807 108.628 78.6144 108.628 78.048 108.628C77.4817 108.628 76.9154 108.628 76.3491 108.628C75.9914 108.628 75.6263 108.628 75.2537 108.628C74.8812 108.628 74.516 108.628 74.1584 108.628C73.8007 108.628 73.443 108.628 73.0853 108.628C73.0853 108.911 73.0853 109.202 73.0853 109.5C73.0853 109.783 73.0853 110.074 73.0853 110.372C73.1599 110.357 73.2344 110.349 73.3089 110.349C73.3834 110.349 73.4579 110.342 73.5324 110.327C73.6815 110.312 73.8305 110.305 73.9795 110.305C74.1435 110.29 74.3074 110.282 74.4713 110.282C75.4847 110.282 76.3789 110.498 77.1539 110.931C77.9437 111.348 78.5473 111.944 78.9646 112.719C79.3968 113.494 79.6129 114.381 79.6129 115.379C79.6129 116.437 79.367 117.369 78.8752 118.173C78.3983 118.963 77.7053 119.574 76.7962 120.007C75.8871 120.439 74.8141 120.655 73.5771 120.655C72.7873 120.655 72.0272 120.58 71.297 120.431C70.5816 120.282 69.911 120.074 69.2851 119.805V115.916Z" fill="black"/>
<path d="M87.1938 120.744C86.0165 120.744 84.9807 120.476 84.0866 119.939C83.2073 119.403 82.5217 118.68 82.0299 117.771C81.553 116.862 81.3146 115.871 81.3146 114.798C81.3146 113.889 81.4785 112.972 81.8064 112.048C82.1492 111.124 82.7453 110.081 83.5948 108.919C84.4442 107.741 85.629 106.378 87.1491 104.828H92.0224C90.3086 106.557 88.9748 108.039 88.021 109.276C87.0821 110.513 86.4263 111.579 86.0538 112.473C85.6961 113.352 85.5173 114.187 85.5173 114.977C85.5173 115.364 85.5843 115.707 85.7184 116.005C85.8675 116.303 86.0687 116.534 86.322 116.698C86.5754 116.862 86.866 116.944 87.1938 116.944C87.5217 116.944 87.8123 116.869 88.0657 116.72C88.319 116.557 88.5128 116.348 88.6469 116.095C88.7959 115.826 88.8704 115.528 88.8704 115.2C88.8704 114.872 88.7959 114.589 88.6469 114.351C88.5128 114.098 88.319 113.904 88.0657 113.77C87.8272 113.621 87.5515 113.546 87.2386 113.546C86.8213 113.546 86.4263 113.688 86.0538 113.971C85.6961 114.239 85.4204 114.582 85.2266 114.999L82.9688 114.016C83.4308 112.928 84.1164 112.011 85.0255 111.266C85.9494 110.506 86.8734 110.126 87.7974 110.126C88.8257 110.126 89.7348 110.342 90.5247 110.774C91.3145 111.191 91.9256 111.788 92.3577 112.562C92.8048 113.323 93.0284 114.202 93.0284 115.2C93.0284 116.184 92.7825 117.1 92.2907 117.95C91.8138 118.799 91.1357 119.477 90.2564 119.984C89.3771 120.491 88.3563 120.744 87.1938 120.744Z" fill="black"/>
<path d="M95.1854 120.252C95.6474 119.299 96.102 118.352 96.549 117.413C96.9961 116.46 97.4507 115.506 97.9127 114.552C98.3747 113.598 98.8292 112.652 99.2763 111.713C99.7383 110.759 100.193 109.805 100.64 108.852C100.297 108.852 99.9544 108.852 99.6116 108.852C99.2837 108.852 98.941 108.852 98.5833 108.852C98.2405 108.852 97.8978 108.852 97.555 108.852C97.0036 108.852 96.4522 108.852 95.9008 108.852C95.3494 108.852 94.7979 108.852 94.2465 108.852V104.828C95.096 104.828 95.9827 104.828 96.9067 104.828C97.8307 104.828 98.7174 104.828 99.5669 104.828C100.297 104.828 101.102 104.828 101.981 104.828C102.875 104.828 103.762 104.828 104.641 104.828C105.521 104.828 106.325 104.828 107.056 104.828C106.445 106.109 105.834 107.399 105.223 108.695C104.612 109.977 104.001 111.258 103.39 112.54C102.779 113.822 102.16 115.111 101.534 116.407C100.923 117.689 100.312 118.971 99.701 120.252H95.1854Z" fill="black"/>
<path d="M113 114.172C112.016 114.172 111.1 113.948 110.25 113.501C109.416 113.039 108.745 112.428 108.239 111.668C107.747 110.908 107.501 110.089 107.501 109.209C107.501 108.33 107.739 107.525 108.216 106.795C108.708 106.05 109.371 105.461 110.206 105.029C111.055 104.597 111.987 104.381 113 104.381C114.013 104.381 114.937 104.597 115.772 105.029C116.621 105.461 117.285 106.05 117.762 106.795C118.253 107.525 118.499 108.33 118.499 109.209C118.499 110.089 118.246 110.908 117.739 111.668C117.247 112.428 116.577 113.039 115.727 113.501C114.893 113.948 113.984 114.172 113 114.172ZM113 120.722C112.016 120.722 111.122 120.513 110.318 120.096C109.513 119.679 108.879 119.105 108.417 118.375C107.955 117.644 107.724 116.84 107.724 115.96C107.724 115.111 107.963 114.329 108.44 113.613C108.917 112.883 109.557 112.309 110.362 111.892C111.182 111.46 112.061 111.244 113 111.244C113.939 111.244 114.811 111.46 115.616 111.892C116.435 112.309 117.083 112.883 117.56 113.613C118.037 114.329 118.276 115.111 118.276 115.96C118.276 116.84 118.045 117.644 117.583 118.375C117.121 119.105 116.487 119.679 115.683 120.096C114.878 120.513 113.984 120.722 113 120.722ZM113 117.279C113.268 117.279 113.514 117.22 113.738 117.1C113.961 116.966 114.14 116.788 114.274 116.564C114.408 116.34 114.475 116.095 114.475 115.826C114.475 115.543 114.408 115.297 114.274 115.089C114.155 114.865 113.976 114.694 113.738 114.574C113.514 114.44 113.268 114.373 113 114.373C112.732 114.373 112.478 114.44 112.24 114.574C112.016 114.694 111.838 114.865 111.703 115.089C111.584 115.297 111.525 115.543 111.525 115.826C111.525 116.095 111.592 116.34 111.726 116.564C111.86 116.788 112.039 116.966 112.262 117.1C112.486 117.22 112.732 117.279 113 117.279ZM113 111.087C113.298 111.087 113.566 111.02 113.805 110.886C114.058 110.737 114.252 110.536 114.386 110.282C114.535 110.029 114.61 109.753 114.61 109.455C114.61 109.172 114.535 108.919 114.386 108.695C114.252 108.457 114.058 108.27 113.805 108.136C113.566 107.987 113.298 107.913 113 107.913C112.702 107.913 112.426 107.987 112.173 108.136C111.934 108.27 111.741 108.457 111.592 108.695C111.458 108.919 111.391 109.172 111.391 109.455C111.391 109.768 111.458 110.051 111.592 110.305C111.741 110.543 111.934 110.737 112.173 110.886C112.426 111.02 112.702 111.087 113 111.087Z" fill="black"/>
<path d="M121.769 120.252C123.423 118.509 124.705 117.018 125.614 115.782C126.538 114.545 127.171 113.509 127.514 112.674C127.872 111.84 128.051 111.08 128.051 110.394C128.051 109.992 127.969 109.634 127.805 109.321C127.641 109.008 127.417 108.762 127.134 108.583C126.851 108.405 126.53 108.315 126.173 108.315C125.83 108.315 125.517 108.397 125.234 108.561C124.951 108.725 124.727 108.949 124.563 109.232C124.399 109.515 124.317 109.835 124.317 110.193C124.317 110.536 124.392 110.849 124.541 111.132C124.705 111.415 124.928 111.639 125.212 111.802C125.495 111.966 125.823 112.048 126.195 112.048C126.598 112.048 126.97 111.944 127.313 111.735C127.671 111.512 127.939 111.206 128.118 110.819L130.443 111.937C130.204 112.697 129.832 113.367 129.325 113.948C128.818 114.53 128.229 114.984 127.559 115.312C126.903 115.64 126.21 115.804 125.48 115.804C124.452 115.804 123.528 115.558 122.708 115.066C121.888 114.559 121.24 113.881 120.763 113.032C120.301 112.168 120.07 111.214 120.07 110.171C120.07 109.127 120.316 108.159 120.808 107.264C121.314 106.37 122.03 105.662 122.954 105.141C123.893 104.604 124.966 104.336 126.173 104.336C127.395 104.336 128.475 104.604 129.414 105.141C130.353 105.677 131.076 106.415 131.583 107.354C132.089 108.278 132.343 109.306 132.343 110.439C132.343 111.378 132.179 112.279 131.851 113.144C131.523 114.008 130.949 114.999 130.13 116.117C129.325 117.22 128.162 118.598 126.642 120.252H121.769Z" fill="black"/>
<path d="M0.961245 136.664C0.961245 135.844 0.961245 135.024 0.961245 134.205C0.961245 133.37 0.961245 132.543 0.961245 131.723C0.961245 130.904 0.961245 130.092 0.961245 129.287C0.961245 128.467 0.961245 127.647 0.961245 126.828H5.20861C5.20861 127.647 5.20861 128.467 5.20861 129.287C5.20861 130.092 5.20861 130.904 5.20861 131.723C5.20861 132.543 5.20861 133.37 5.20861 134.205C5.20861 135.024 5.20861 135.844 5.20861 136.664H0.961245ZM3.21905 142.7C2.56332 142.714 1.98955 142.476 1.49775 141.984C1.00595 141.492 0.760054 140.919 0.760054 140.263C0.760054 139.592 1.00595 139.018 1.49775 138.542C1.98955 138.065 2.56332 137.834 3.21905 137.849C3.65124 137.834 4.05362 137.945 4.4262 138.184C4.79877 138.407 5.09683 138.706 5.32038 139.078C5.54392 139.451 5.64825 139.846 5.63334 140.263C5.64825 140.919 5.41725 141.492 4.94035 141.984C4.46345 142.476 3.88969 142.714 3.21905 142.7Z" fill="black"/>
<path d="M12.0419 124.369C11.8333 125.099 11.5203 126.18 11.103 127.61C10.9391 128.147 10.7826 128.691 10.6336 129.242C10.4846 129.779 10.3281 130.315 10.1642 130.852H7.30277C7.39219 130.315 7.48161 129.779 7.57103 129.242C7.67535 128.691 7.77967 128.147 7.88399 127.61C7.98831 127.074 8.08518 126.537 8.1746 126.001C8.26402 125.464 8.36089 124.92 8.46521 124.369H12.0419ZM16.8258 124.369C16.5277 125.099 16.0956 126.18 15.5292 127.61C15.3206 128.147 15.1045 128.691 14.881 129.242C14.6574 129.779 14.4413 130.315 14.2327 130.852H11.3713C11.5352 130.315 11.6917 129.779 11.8407 129.242C11.9898 128.691 12.1463 128.147 12.3102 127.61C12.4741 127.074 12.6306 126.537 12.7796 126.001C12.9436 125.464 13.1 124.92 13.2491 124.369H16.8258Z" fill="black"/>
<path d="M19.6771 136.753C19.23 136.753 18.8052 136.634 18.4028 136.396C18.0005 136.157 17.68 135.837 17.4416 135.434C17.2032 135.032 17.0839 134.607 17.0839 134.16C17.0839 133.46 17.3373 132.864 17.844 132.372C18.3656 131.865 18.9766 131.612 19.6771 131.612C20.1092 131.612 20.5191 131.731 20.9066 131.969C21.3089 132.208 21.6293 132.528 21.8678 132.931C22.1062 133.318 22.2255 133.728 22.2255 134.16C22.2255 134.861 21.9721 135.472 21.4654 135.993C20.9736 136.5 20.3775 136.753 19.6771 136.753Z" fill="black"/>
<path d="M27.3211 129.51C27.3211 128.661 27.3211 127.804 27.3211 126.94C27.3211 126.075 27.3211 125.218 27.3211 124.369H31.1213C31.1213 125.218 31.1213 126.075 31.1213 126.94C31.1213 127.804 31.1213 128.661 31.1213 129.51H27.3211ZM27.3211 144.935C27.3211 144.086 27.3211 143.229 27.3211 142.364C27.3211 141.5 27.3211 140.643 27.3211 139.793H31.1213C31.1213 140.643 31.1213 141.5 31.1213 142.364C31.1213 143.229 31.1213 144.086 31.1213 144.935H27.3211ZM29.0647 142.655C28.096 142.655 27.2093 142.565 26.4045 142.387C25.5998 142.208 24.8919 141.962 24.2809 141.649V137.536C24.9515 137.923 25.637 138.244 26.3375 138.497C27.0528 138.735 27.7533 138.855 28.4388 138.855C28.8263 138.855 29.1541 138.817 29.4224 138.743C29.6907 138.653 29.8918 138.542 30.026 138.407C30.175 138.258 30.2495 138.102 30.2495 137.938C30.2495 137.729 30.1825 137.543 30.0483 137.379C29.9142 137.215 29.6385 137.036 29.2212 136.843C28.8188 136.634 28.2078 136.373 27.3881 136.06C26.5685 135.732 25.8606 135.352 25.2645 134.92C24.6832 134.488 24.2213 133.981 23.8785 133.4C23.5506 132.819 23.3867 132.148 23.3867 131.388C23.3867 130.375 23.6251 129.495 24.102 128.75C24.5938 127.99 25.2719 127.409 26.1363 127.007C27.0156 126.589 28.029 126.381 29.1765 126.381C30.1899 126.381 31.1437 126.5 32.0379 126.738C32.947 126.977 33.7517 127.305 34.4522 127.722V131.925C33.7219 131.448 32.9172 131.06 32.0379 130.762C31.1735 130.464 30.3538 130.315 29.5789 130.315C29.1169 130.315 28.7369 130.36 28.4388 130.449C28.1556 130.524 27.947 130.628 27.8129 130.762C27.6937 130.896 27.634 131.03 27.634 131.165C27.634 131.343 27.7011 131.507 27.8352 131.656C27.9843 131.805 28.2302 131.962 28.5729 132.126C28.9157 132.29 29.4224 132.491 30.093 132.729C31.2406 133.147 32.1422 133.586 32.7979 134.048C33.4537 134.51 33.9231 135.024 34.2063 135.591C34.4894 136.142 34.631 136.805 34.631 137.58C34.631 138.594 34.3851 139.488 33.8933 140.263C33.4164 141.023 32.7532 141.612 31.9038 142.029C31.0692 142.446 30.1228 142.655 29.0647 142.655Z" fill="black"/>
<path d="M38.1705 142.252C39.8397 138.825 41.0841 136.254 41.9037 134.54C42.5297 133.258 43.1481 131.977 43.7592 130.695C44.3851 129.399 45.011 128.109 45.6369 126.828H48.9901C48.3642 128.109 47.7383 129.399 47.1123 130.695C46.5013 131.977 45.8829 133.258 45.2569 134.54C44.4373 136.254 43.1929 138.825 41.5237 142.252H38.1705ZM47.8277 142.677C47.1571 142.677 46.5386 142.521 45.9723 142.208C45.4209 141.88 44.9812 141.44 44.6534 140.889C44.3255 140.337 44.1615 139.741 44.1615 139.1C44.1615 138.445 44.3255 137.849 44.6534 137.312C44.9812 136.761 45.4209 136.328 45.9723 136.016C46.5386 135.688 47.1571 135.524 47.8277 135.524C48.4983 135.524 49.1094 135.688 49.6608 136.016C50.2271 136.328 50.6742 136.761 51.002 137.312C51.3299 137.849 51.4938 138.445 51.4938 139.1C51.4938 139.741 51.3299 140.337 51.002 140.889C50.6742 141.44 50.2271 141.88 49.6608 142.208C49.1094 142.521 48.4983 142.677 47.8277 142.677ZM47.8277 140.106C48.1258 140.106 48.3642 140.01 48.543 139.816C48.7368 139.622 48.8336 139.384 48.8336 139.1C48.8336 138.802 48.7368 138.564 48.543 138.385C48.3642 138.191 48.1258 138.095 47.8277 138.095C47.5445 138.095 47.3061 138.191 47.1123 138.385C46.9186 138.579 46.8217 138.817 46.8217 139.1C46.8217 139.384 46.9186 139.622 47.1123 139.816C47.3061 140.01 47.5445 140.106 47.8277 140.106ZM39.333 133.579C38.6623 133.579 38.0439 133.422 37.4775 133.109C36.9261 132.782 36.4865 132.342 36.1586 131.791C35.8308 131.239 35.6668 130.643 35.6668 130.002C35.6668 129.346 35.8308 128.75 36.1586 128.214C36.4865 127.662 36.9261 127.23 37.4775 126.917C38.0439 126.589 38.6623 126.425 39.333 126.425C40.0036 126.425 40.6146 126.589 41.166 126.917C41.7324 127.23 42.1794 127.662 42.5073 128.214C42.8352 128.75 42.9991 129.346 42.9991 130.002C42.9991 130.643 42.8352 131.239 42.5073 131.791C42.1794 132.342 41.7324 132.782 41.166 133.109C40.6146 133.422 40.0036 133.579 39.333 133.579ZM39.333 131.008C39.631 131.008 39.8695 130.911 40.0483 130.718C40.2421 130.524 40.3389 130.285 40.3389 130.002C40.3389 129.704 40.2421 129.466 40.0483 129.287C39.8695 129.093 39.631 128.996 39.333 128.996C39.0498 128.996 38.8114 129.093 38.6176 129.287C38.4239 129.481 38.327 129.719 38.327 130.002C38.327 130.285 38.4239 130.524 38.6176 130.718C38.8114 130.911 39.0498 131.008 39.333 131.008Z" fill="black"/>
<path d="M61.8897 142.252C61.5768 141.731 61.2638 141.209 60.9509 140.688C60.6528 140.166 60.3547 139.644 60.0567 139.123C59.6543 138.437 59.2445 137.744 58.8272 137.044C58.4248 136.329 58.0075 135.606 57.5753 134.875C57.1878 134.22 56.7706 133.519 56.3235 132.774C55.8913 132.029 55.4293 131.247 54.9375 130.427C53.7452 128.4 53.0373 127.2 52.8138 126.828C53.4397 126.828 54.0731 126.828 54.7139 126.828C55.3548 126.828 55.9881 126.828 56.6141 126.828C57.2549 126.828 57.8883 126.828 58.5142 126.828C59.155 126.828 59.7959 126.828 60.4367 126.828C61.0775 126.828 61.7184 126.828 62.3592 126.828C63 126.828 63.6408 126.828 64.2817 126.828C63.9836 127.186 63.6781 127.558 63.3651 127.946C63.0522 128.318 62.7392 128.691 62.4263 129.063C61.8003 129.823 61.1893 130.561 60.5932 131.276C60.012 131.992 59.4531 132.677 58.9166 133.333C57.9926 134.466 57.3667 135.323 57.0388 135.904C56.7109 136.485 56.547 137.007 56.547 137.469C56.547 137.752 56.6141 138.013 56.7482 138.251C56.8972 138.489 57.0984 138.683 57.3518 138.832C57.6051 138.966 57.8957 139.033 58.2236 139.033C58.924 139.033 59.8629 138.564 61.0403 137.625C62.2176 136.671 63.7303 135.136 65.5782 133.02V138.251C64.8629 139.145 64.0805 139.928 63.231 140.598C62.3964 141.254 61.5246 141.768 60.6155 142.141C59.7064 142.513 58.8048 142.7 57.9106 142.7C56.8227 142.7 55.8615 142.476 55.0269 142.029C54.2072 141.567 53.5739 140.963 53.1268 140.218C52.6946 139.458 52.4785 138.638 52.4785 137.759C52.4785 137.148 52.5977 136.515 52.8362 135.859C53.0746 135.203 53.4621 134.503 53.9986 133.758C54.55 133.013 55.2728 132.2 56.167 131.321C56.3607 131.127 56.5694 130.919 56.7929 130.695C57.0314 130.472 57.2624 130.248 57.4859 130.025C57.62 129.89 57.7467 129.764 57.8659 129.645C58.0001 129.525 58.1118 129.421 58.2012 129.332C58.4397 129.704 58.693 130.121 58.9613 130.583C59.2445 131.03 59.5276 131.492 59.8108 131.969C60.0492 132.357 60.2802 132.737 60.5038 133.109C60.7273 133.467 60.9285 133.795 61.1073 134.093C61.4203 134.63 61.696 135.099 61.9344 135.501C62.1729 135.889 62.4113 136.276 62.6498 136.664C62.9777 137.215 63.4098 137.931 63.9464 138.81C64.4829 139.689 65.1684 140.837 66.003 142.252H61.8897Z" fill="black"/>
<path d="M66.3179 144.264C67.3015 140.419 68.136 137.215 68.8216 134.652C69.2388 133.057 69.6487 131.455 70.0511 129.846C70.4683 128.236 70.8856 126.634 71.3029 125.039H75.5503C75.133 126.634 74.7157 128.236 74.2984 129.846C73.896 131.455 73.4862 133.057 73.0689 134.652C72.3834 137.215 71.5488 140.419 70.5652 144.264H66.3179Z" fill="black"/>
<path d="M78.9724 143.594C78.2571 141.597 77.728 140.099 77.3853 139.1C77.117 138.355 76.8488 137.61 76.5805 136.865C76.3123 136.12 76.044 135.375 75.7757 134.63C76.044 133.884 76.3123 133.139 76.5805 132.394C76.8488 131.649 77.117 130.904 77.3853 130.159C77.8473 128.817 78.3763 127.335 78.9724 125.71H83.2198C82.6237 127.335 82.0946 128.817 81.6326 130.159C81.3644 130.904 81.0961 131.649 80.8279 132.394C80.5596 133.139 80.2914 133.884 80.0231 134.63C80.2914 135.375 80.5596 136.12 80.8279 136.865C81.0961 137.61 81.3644 138.355 81.6326 139.1C81.9754 140.099 82.5045 141.597 83.2198 143.594H78.9724Z" fill="black"/>
<path d="M87.2333 125.71C87.9487 127.707 88.4777 129.205 88.8205 130.203C89.0887 130.949 89.357 131.694 89.6253 132.439C89.8935 133.184 90.1618 133.929 90.43 134.674C90.1618 135.419 89.8935 136.165 89.6253 136.91C89.357 137.655 89.0887 138.4 88.8205 139.145C88.3585 140.486 87.8294 141.969 87.2333 143.594H82.986C83.5821 141.969 84.1111 140.486 84.5731 139.145C84.8414 138.4 85.1096 137.655 85.3779 136.91C85.6461 136.165 85.9144 135.419 86.1827 134.674C85.9144 133.929 85.6461 133.184 85.3779 132.439C85.1096 131.694 84.8414 130.949 84.5731 130.203C84.2304 129.205 83.7013 127.707 82.986 125.71H87.2333Z" fill="black"/>
<path d="M92.0739 129.108C92.8787 129.108 93.676 129.108 94.4659 129.108C95.2706 129.108 96.0754 129.108 96.8802 129.108C97.6849 129.108 98.4822 129.108 99.2721 129.108C100.077 129.108 100.882 129.108 101.686 129.108V132.864C100.882 132.864 100.077 132.864 99.2721 132.864C98.4822 132.864 97.6849 132.864 96.8802 132.864C96.0754 132.864 95.2706 132.864 94.4659 132.864C93.676 132.864 92.8787 132.864 92.0739 132.864V129.108ZM92.0739 134.384C92.8787 134.384 93.676 134.384 94.4659 134.384C95.2706 134.384 96.0754 134.384 96.8802 134.384C97.6849 134.384 98.4822 134.384 99.2721 134.384C100.077 134.384 100.882 134.384 101.686 134.384V138.139C100.882 138.139 100.077 138.139 99.2721 138.139C98.4822 138.139 97.6849 138.139 96.8802 138.139C96.0754 138.139 95.2706 138.139 94.4659 138.139C93.676 138.139 92.8787 138.139 92.0739 138.139V134.384Z" fill="black"/>
<path d="M105.925 133.355C106.298 133.296 106.641 133.221 106.954 133.132C107.281 133.027 107.572 132.908 107.825 132.774C108.183 132.58 108.459 132.372 108.652 132.148C108.861 131.925 108.965 131.701 108.965 131.478C108.965 131.269 108.906 131.083 108.787 130.919C108.667 130.74 108.489 130.606 108.25 130.516C108.012 130.412 107.728 130.36 107.401 130.36C106.819 130.36 106.156 130.509 105.411 130.807C104.666 131.09 103.973 131.455 103.332 131.902V127.834C103.943 127.431 104.651 127.104 105.456 126.85C106.261 126.597 107.058 126.47 107.848 126.47C108.906 126.47 109.86 126.686 110.709 127.118C111.559 127.536 112.214 128.102 112.676 128.817C113.153 129.533 113.392 130.308 113.392 131.142C113.392 131.515 113.325 131.895 113.19 132.282C113.071 132.67 112.892 133.042 112.654 133.4C112.415 133.758 112.14 134.086 111.827 134.384C111.588 134.607 111.328 134.808 111.044 134.987C110.761 135.166 110.471 135.315 110.173 135.434V136.664H105.925V133.355ZM108.205 142.7C107.55 142.714 106.976 142.476 106.484 141.984C105.992 141.492 105.746 140.919 105.746 140.263C105.746 139.592 105.992 139.018 106.484 138.542C106.976 138.065 107.55 137.834 108.205 137.849C108.638 137.834 109.04 137.945 109.413 138.184C109.785 138.407 110.083 138.706 110.307 139.078C110.53 139.451 110.635 139.846 110.62 140.263C110.635 140.919 110.404 141.492 109.927 141.984C109.45 142.476 108.876 142.714 108.205 142.7Z" fill="black"/>
<path d="M121.534 135.926C121.161 135.986 120.811 136.068 120.483 136.172C120.17 136.261 119.887 136.373 119.634 136.507C119.276 136.701 118.993 136.91 118.784 137.133C118.591 137.357 118.494 137.58 118.494 137.804C118.494 138.013 118.553 138.206 118.673 138.385C118.792 138.549 118.971 138.683 119.209 138.788C119.447 138.877 119.731 138.922 120.059 138.922C120.64 138.922 121.303 138.78 122.048 138.497C122.793 138.199 123.486 137.826 124.127 137.379V141.448C123.516 141.85 122.808 142.178 122.003 142.431C121.199 142.685 120.401 142.811 119.611 142.811C118.553 142.811 117.6 142.603 116.75 142.185C115.901 141.753 115.237 141.179 114.76 140.464C114.298 139.749 114.067 138.974 114.067 138.139C114.067 137.767 114.127 137.387 114.246 136.999C114.38 136.612 114.567 136.239 114.805 135.881C115.044 135.524 115.319 135.196 115.632 134.898C115.871 134.674 116.132 134.473 116.415 134.294C116.698 134.115 116.988 133.966 117.287 133.847V132.618H121.534V135.926ZM119.254 126.582C119.909 126.567 120.483 126.805 120.975 127.297C121.467 127.789 121.713 128.363 121.713 129.019C121.713 129.689 121.467 130.263 120.975 130.74C120.483 131.217 119.909 131.448 119.254 131.433C118.822 131.448 118.419 131.343 118.047 131.12C117.674 130.881 117.376 130.576 117.152 130.203C116.929 129.831 116.825 129.436 116.839 129.019C116.825 128.363 117.056 127.789 117.532 127.297C118.009 126.805 118.583 126.567 119.254 126.582ZM119.276 128.996C119.276 128.996 119.269 128.996 119.254 128.996C119.254 128.996 119.254 129.004 119.254 129.019C119.269 129.019 119.276 129.019 119.276 129.019C119.276 129.004 119.276 128.996 119.276 128.996Z" fill="black"/>
<path d="M126.144 144.264C126.144 142.67 126.144 141.068 126.144 139.458C126.144 137.849 126.144 136.247 126.144 134.652C126.144 133.057 126.144 131.455 126.144 129.846C126.144 128.236 126.144 126.634 126.144 125.039H130.168C130.168 126.634 130.168 128.236 130.168 129.846C130.168 131.455 130.168 133.057 130.168 134.652C130.168 136.247 130.168 137.849 130.168 139.458C130.168 141.068 130.168 142.67 130.168 144.264H126.144Z" fill="black"/>
<path d="M141.029 142.744C139.389 142.744 137.929 142.387 136.647 141.671C135.366 140.956 134.367 139.972 133.652 138.72C132.936 137.454 132.579 136.023 132.579 134.428C132.579 132.938 132.929 131.582 133.629 130.36C134.33 129.123 135.291 128.154 136.513 127.454C137.75 126.738 139.114 126.381 140.604 126.381C141.99 126.381 143.227 126.679 144.315 127.275C145.403 127.856 146.245 128.653 146.841 129.667C147.452 130.68 147.758 131.798 147.758 133.02C147.758 134.257 147.467 135.382 146.886 136.396C146.304 137.394 145.515 138.184 144.516 138.765C143.532 139.331 142.445 139.615 141.252 139.615C140.179 139.615 139.226 139.399 138.391 138.966C137.571 138.519 136.93 137.908 136.468 137.133C136.006 136.358 135.775 135.494 135.775 134.54C135.775 133.467 136.074 132.528 136.67 131.723C137.266 130.919 138.13 130.337 139.263 129.98C140.395 129.607 141.722 129.533 143.242 129.756C143.242 130.129 143.242 130.501 143.242 130.874C143.242 131.247 143.242 131.619 143.242 131.992C143.242 132.349 143.242 132.715 143.242 133.087C143.242 133.609 143.242 134.13 143.242 134.652C143.242 135.174 143.242 135.695 143.242 136.217H140.425C140.425 135.889 140.425 135.568 140.425 135.255C140.425 134.943 140.425 134.652 140.425 134.384C140.425 134.16 140.425 133.944 140.425 133.735C140.425 133.512 140.425 133.296 140.425 133.087C140.425 132.864 140.425 132.647 140.425 132.439C140.068 132.484 139.762 132.603 139.509 132.796C139.255 132.975 139.062 133.214 138.927 133.512C138.793 133.81 138.726 134.153 138.726 134.54C138.726 135.047 138.831 135.501 139.039 135.904C139.263 136.291 139.583 136.597 140 136.82C140.418 137.044 140.924 137.156 141.521 137.156C142.325 137.156 143.048 136.977 143.689 136.619C144.33 136.261 144.829 135.77 145.187 135.144C145.559 134.503 145.746 133.795 145.746 133.02C145.746 132.141 145.53 131.351 145.097 130.65C144.665 129.95 144.062 129.399 143.287 128.996C142.512 128.594 141.617 128.393 140.604 128.393C139.486 128.393 138.465 128.661 137.541 129.197C136.632 129.719 135.91 130.442 135.373 131.366C134.852 132.29 134.591 133.311 134.591 134.428C134.591 135.65 134.859 136.738 135.395 137.692C135.932 138.646 136.685 139.391 137.653 139.928C138.622 140.464 139.747 140.732 141.029 140.732C141.834 140.732 142.676 140.606 143.555 140.352C144.434 140.084 145.209 139.719 145.88 139.257V141.403C145.224 141.85 144.464 142.185 143.6 142.409C142.735 142.632 141.878 142.744 141.029 142.744Z" fill="black"/>
<path d="M155.579 142.252C155.862 140.971 156.138 139.689 156.406 138.407C156.674 137.111 156.95 135.822 157.233 134.54C157.516 133.258 157.792 131.977 158.06 130.695C158.343 129.399 158.619 128.109 158.887 126.828H162.196C162.017 127.692 161.831 128.549 161.637 129.399C161.458 130.248 161.279 131.105 161.101 131.969C160.221 136.053 159.491 139.48 158.91 142.252H155.579ZM148.828 135.546C149.961 135.546 151.093 135.546 152.226 135.546C153.358 135.546 154.499 135.546 155.646 135.546C156.779 135.546 157.911 135.546 159.044 135.546C160.177 135.546 161.317 135.546 162.464 135.546V138.676C161.317 138.676 160.177 138.676 159.044 138.676C157.911 138.676 156.779 138.676 155.646 138.676C154.499 138.676 153.358 138.676 152.226 138.676C151.093 138.676 149.961 138.676 148.828 138.676V135.546ZM150.169 142.252C150.542 140.539 151.086 137.968 151.801 134.54C152.084 133.258 152.36 131.977 152.628 130.695C152.896 129.399 153.165 128.109 153.433 126.828H156.741C156.473 128.109 156.197 129.399 155.914 130.695C155.646 131.977 155.378 133.258 155.11 134.54C154.826 135.822 154.551 137.111 154.282 138.407C154.014 139.689 153.738 140.971 153.455 142.252H150.169ZM149.901 130.405C151.048 130.405 152.189 130.405 153.321 130.405C154.454 130.405 155.586 130.405 156.719 130.405C157.867 130.405 159.007 130.405 160.139 130.405C161.272 130.405 162.405 130.405 163.537 130.405V133.534C162.405 133.534 161.272 133.534 160.139 133.534C159.007 133.534 157.867 133.534 156.719 133.534C155.586 133.534 154.454 133.534 153.321 133.534C152.189 133.534 151.048 133.534 149.901 133.534V130.405Z" fill="black"/>
<path d="M169.891 135.792C169.34 135.554 168.856 135.397 168.438 135.323C168.036 135.233 167.663 135.188 167.321 135.188C166.888 135.188 166.449 135.315 166.002 135.568C165.569 135.822 165.16 136.135 164.772 136.507V133.445C165.16 133.057 165.584 132.767 166.046 132.573C166.523 132.364 167.06 132.26 167.656 132.26C168.088 132.26 168.52 132.305 168.952 132.394C169.399 132.469 169.988 132.655 170.718 132.953C171.27 133.191 171.754 133.355 172.171 133.445C172.604 133.519 172.984 133.557 173.312 133.557C173.729 133.557 174.161 133.43 174.608 133.177C175.055 132.923 175.465 132.61 175.838 132.238V135.3C175.465 135.688 175.04 135.986 174.563 136.194C174.086 136.388 173.55 136.485 172.954 136.485C172.522 136.485 172.082 136.44 171.635 136.351C171.203 136.261 170.622 136.075 169.891 135.792Z" fill="black"/>
<path d="M177.177 131.858C178.146 131.858 179.115 131.858 180.084 131.858C181.067 131.858 182.043 131.858 183.012 131.858C183.981 131.858 184.949 131.858 185.918 131.858C186.902 131.858 187.878 131.858 188.847 131.858V134.093C187.878 134.093 186.902 134.093 185.918 134.093C184.949 134.093 183.981 134.093 183.012 134.093C182.043 134.093 181.067 134.093 180.084 134.093C179.115 134.093 178.146 134.093 177.177 134.093V131.858ZM177.177 134.898C178.072 134.898 178.966 134.898 179.86 134.898C180.754 134.898 181.648 134.898 182.543 134.898C183.452 134.898 184.353 134.898 185.247 134.898C186.142 134.898 187.043 134.898 187.952 134.898V137.133C187.043 137.133 186.142 137.133 185.247 137.133C184.353 137.133 183.452 137.133 182.543 137.133C181.648 137.133 180.754 137.133 179.86 137.133C178.966 137.133 178.072 137.133 177.177 137.133V134.898ZM186.611 142.565C185.106 142.565 183.757 142.215 182.565 141.515C181.388 140.799 180.464 139.823 179.793 138.586C179.137 137.349 178.809 135.963 178.809 134.428C178.809 132.938 179.145 131.597 179.815 130.405C180.486 129.197 181.417 128.251 182.61 127.566C183.817 126.865 185.195 126.515 186.745 126.515C187.401 126.515 188.072 126.589 188.757 126.738C189.443 126.887 190.076 127.089 190.657 127.342V131.589C190.106 131.291 189.517 131.06 188.891 130.896C188.28 130.718 187.699 130.628 187.148 130.628C186.373 130.628 185.695 130.792 185.113 131.12C184.532 131.448 184.078 131.902 183.75 132.484C183.437 133.05 183.28 133.698 183.28 134.428C183.28 135.203 183.437 135.896 183.75 136.507C184.063 137.118 184.502 137.595 185.069 137.938C185.635 138.281 186.283 138.452 187.013 138.452C187.595 138.452 188.206 138.37 188.847 138.206C189.502 138.042 190.106 137.804 190.657 137.491V141.738C190.106 141.992 189.465 142.193 188.735 142.342C188.005 142.491 187.297 142.565 186.611 142.565Z" fill="black"/>
<path d="M203.705 132.908V139.659H200.754V135.837H192.639V132.908H203.705Z" fill="black"/>
</svg>
