<svg width="805" height="529" viewBox="0 0 805 529" fill="none" xmlns="http://www.w3.org/2000/svg">
<path d="M0 301C0 287.745 10.7452 277 24 277H228C241.255 277 252 287.745 252 301V505C252 518.255 241.255 529 228 529H24C10.7452 529 0 518.255 0 505V301Z" fill="#F9F9F9"/>
<path d="M228 527V529H24L24 527H228ZM250 505V301C250 288.85 240.15 279 228 279H24C11.8497 279 2 288.85 2 301V505C2 517.15 11.8497 527 24 527L24 529L23.3809 528.992C10.4122 528.664 0 518.048 0 505V301C0 287.745 10.7452 277 24 277H228C241.255 277 252 287.745 252 301V505C252 518.255 241.255 529 228 529V527C240.15 527 250 517.15 250 505Z" fill="#A189FA"/>
<path d="M0 24C0 10.7452 10.7452 0 24 0H228C241.255 0 252 10.7452 252 24V228C252 241.255 241.255 252 228 252H24C10.7452 252 0 241.255 0 228V24Z" fill="#623BF6"/>
<path d="M278 24C278 10.7452 288.745 0 302 0H506C519.255 0 530 10.7452 530 24V228C530 241.255 519.255 252 506 252H302C288.745 252 278 241.255 278 228V24Z" fill="#DFF249"/>
<path d="M278 301C278 287.745 288.745 277 302 277H506C519.255 277 530 287.745 530 301V505C530 518.255 519.255 529 506 529H302C288.745 529 278 518.255 278 505V301Z" fill="#DFF249"/>
<path d="M553 24C553 10.7452 563.745 0 577 0H781C794.255 0 805 10.7452 805 24V228C805 241.255 794.255 252 781 252H577C563.745 252 553 241.255 553 228V24Z" fill="#F472F0"/>
<path d="M553 301C553 287.745 563.745 277 577 277H781C794.255 277 805 287.745 805 301V505C805 518.255 794.255 529 781 529H577C563.745 529 553 518.255 553 505V301Z" fill="#F472F0"/>
<path d="M53.1236 122.791C51.7681 122.791 50.6174 122.583 49.6744 122.165C48.7284 121.747 47.944 121.196 47.3182 120.512V122.254H42.1789V92.3677L47.3153 90V101.213C47.9411 100.512 48.8005 99.9497 49.8964 99.5258C50.9924 99.1018 52.0969 98.8884 53.213 98.8884C55.0905 98.8884 56.7545 99.37 58.2052 100.33C59.6587 101.291 60.795 102.661 61.6227 104.44C62.4504 106.219 62.8628 108.345 62.8628 110.817C62.8628 114.672 61.9861 117.634 60.2384 119.696C58.4878 121.758 56.1172 122.791 53.1236 122.791ZM52.319 117.877C54.1359 117.877 55.4827 117.239 56.3623 115.967C57.239 114.695 57.6803 112.977 57.6803 110.819C57.6803 108.541 57.2304 106.796 56.3277 105.582C55.4279 104.368 54.0897 103.762 52.319 103.762C51.4999 103.762 50.7588 103.881 50.0954 104.12C49.4321 104.359 48.8669 104.653 48.3968 105.002C47.9267 105.351 47.5662 105.697 47.3124 106.041V115.644C47.8488 116.36 48.5381 116.91 49.3773 117.297C50.2195 117.683 51.1971 117.877 52.3161 117.877H52.319Z" fill="#DFF249"/>
<path d="M75.3705 122.79C73.7756 122.79 72.3423 122.507 71.0705 121.942C69.7958 121.377 68.7893 120.532 68.0423 119.407C67.2982 118.282 66.9262 116.881 66.9262 115.196C66.9262 113.512 67.3732 112.007 68.2673 110.896C69.1613 109.786 70.3033 108.967 71.6963 108.439C73.0893 107.912 74.537 107.646 76.0425 107.646C77.2047 107.646 78.24 107.747 79.1485 107.949C80.057 108.151 80.9135 108.451 81.7181 108.855V107.514C81.7181 106.501 81.5393 105.694 81.1817 105.091C80.8241 104.488 80.3079 104.056 79.6301 103.796C78.9524 103.537 78.1449 103.404 77.2076 103.404C75.9415 103.404 74.687 103.612 73.444 104.03C72.201 104.448 71.0416 105.013 69.9717 105.728L68.4086 101.529C69.5102 100.828 70.8657 100.214 72.475 99.6864C74.0842 99.1586 75.8117 98.8933 77.6575 98.8933C78.6698 98.8933 79.708 98.9943 80.7751 99.1932C81.8392 99.3951 82.8227 99.7902 83.7225 100.379C84.6223 100.967 85.349 101.829 85.8999 102.968C86.4507 104.108 86.7276 105.607 86.7276 107.47V122.256H81.7239V120.468C81.0981 121.065 80.2761 121.599 79.2552 122.078C78.2343 122.553 76.9423 122.793 75.3791 122.793L75.3705 122.79ZM76.3107 118.279C77.5623 118.279 78.6294 118.049 79.5148 117.587C80.4001 117.126 81.1356 116.598 81.7152 116.001V113.054C81.0894 112.742 80.3569 112.491 79.5148 112.307C78.6726 112.122 77.7844 112.027 76.8442 112.027C75.5349 112.027 74.3784 112.278 73.3834 112.774C72.3856 113.273 71.8866 114.08 71.8866 115.196C71.8866 116.105 72.2731 116.846 73.0489 117.42C73.8218 117.994 74.909 118.279 76.3107 118.279Z" fill="#DFF249"/>
<path d="M92.2157 122.253V99.4264H97.3521V104.831L96.683 103.311C96.683 102.642 97.0031 101.967 97.6434 101.289C98.2836 100.612 99.1431 100.044 100.225 99.5792C101.303 99.1178 102.506 98.8871 103.832 98.8871C105.352 98.8871 106.751 99.1841 108.031 99.7811C109.312 100.378 110.339 101.364 111.114 102.74C111.887 104.119 112.277 105.976 112.277 108.315V122.253H107.14V109.388C107.14 107.288 106.676 105.826 105.744 104.998C104.813 104.171 103.7 103.758 102.405 103.758C101.496 103.758 100.66 103.925 99.8929 104.26C99.1258 104.594 98.5115 105.165 98.05 105.97C97.5886 106.775 97.3579 107.885 97.3579 109.298V122.253H92.2157Z" fill="#DFF249"/>
<path d="M126.524 122.791C124.453 122.791 122.665 122.321 121.162 121.383C119.657 120.446 118.501 119.082 117.69 117.297C116.88 115.509 116.473 113.352 116.473 110.819C116.473 108.287 116.897 106.222 117.748 104.443C118.596 102.664 119.767 101.294 121.255 100.333C122.743 99.3729 124.456 98.8913 126.391 98.8913C127.672 98.8913 128.799 99.1047 129.774 99.5287C130.749 99.9526 131.513 100.472 132.064 101.08V92.3677L137.2 90V122.254H132.064V120.512C131.646 121.063 130.951 121.582 129.976 122.064C129.001 122.549 127.85 122.791 126.524 122.791ZM127.239 117.877C128.444 117.877 129.428 117.686 130.186 117.305C130.945 116.925 131.571 116.371 132.064 115.641V105.992C131.706 105.501 131.141 105.005 130.365 104.506C129.589 104.007 128.519 103.759 127.15 103.759C125.393 103.759 124.038 104.365 123.083 105.579C122.131 106.793 121.653 108.538 121.653 110.817C121.653 112.215 121.869 113.444 122.302 114.502C122.734 115.561 123.363 116.385 124.188 116.982C125.015 117.579 126.031 117.877 127.236 117.877H127.239Z" fill="#DFF249"/>
<path d="M52.4544 153.603C49.2676 153.603 46.7268 152.553 44.8378 150.453C42.9459 148.354 42 145.427 42 141.675C42 139.189 42.4384 137.052 43.318 135.264C44.1976 133.475 45.4262 132.103 47.0037 131.142C48.5812 130.182 50.4299 129.7 52.5438 129.7C54.9116 129.7 56.89 130.202 58.4733 131.209C60.0595 132.215 61.2102 133.781 61.9254 135.91L57.0572 137.562C56.7285 136.682 56.2036 135.964 55.4826 135.408C54.7616 134.851 53.7955 134.571 52.59 134.571C50.8769 134.571 49.556 135.22 48.6245 136.515C47.693 137.81 47.2286 139.532 47.2286 141.675C47.2286 143.817 47.693 145.542 48.6245 146.802C49.556 148.06 50.848 148.688 52.5006 148.688C53.7378 148.688 54.7385 148.397 55.5057 147.817C56.2728 147.238 56.8352 146.41 57.1928 145.337L62.0609 146.857C61.3919 149.06 60.2585 150.736 58.6665 151.884C57.0717 153.032 55.0038 153.603 52.4573 153.603H52.4544Z" fill="#DFF249"/>
<path d="M75.3705 153.602C73.7756 153.602 72.3423 153.319 71.0705 152.754C69.7958 152.189 68.7893 151.344 68.0423 150.219C67.2982 149.094 66.9262 147.692 66.9262 146.008C66.9262 144.324 67.3732 142.818 68.2673 141.708C69.1613 140.598 70.3033 139.779 71.6963 139.251C73.0893 138.723 74.537 138.458 76.0425 138.458C77.2047 138.458 78.24 138.559 79.1485 138.761C80.057 138.963 80.9135 139.263 81.7181 139.666V138.325C81.7181 137.313 81.5393 136.505 81.1817 135.903C80.8241 135.3 80.3079 134.867 79.6301 134.608C78.9524 134.348 78.1449 134.216 77.2076 134.216C75.9415 134.216 74.687 134.423 73.444 134.841C72.201 135.26 71.0416 135.825 69.9717 136.54L68.4086 132.341C69.5102 131.64 70.8657 131.026 72.475 130.498C74.0842 129.97 75.8117 129.705 77.6575 129.705C78.6698 129.705 79.708 129.806 80.7751 130.005C81.8392 130.207 82.8227 130.602 83.7225 131.19C84.6223 131.779 85.349 132.641 85.8999 133.78C86.4507 134.919 86.7276 136.419 86.7276 138.282V153.068H81.7239V151.28C81.0981 151.877 80.2761 152.411 79.2552 152.889C78.2343 153.365 76.9423 153.605 75.3791 153.605L75.3705 153.602ZM76.3107 149.088C77.5623 149.088 78.6294 148.858 79.5148 148.396C80.4001 147.935 81.1356 147.407 81.7152 146.81V143.862C81.0894 143.551 80.3569 143.3 79.5148 143.116C78.6726 142.931 77.7844 142.836 76.8442 142.836C75.5349 142.836 74.3784 143.087 73.3834 143.583C72.3856 144.082 71.8866 144.889 71.8866 146.005C71.8866 146.914 72.2731 147.655 73.0489 148.229C73.8218 148.803 74.909 149.088 76.3107 149.088Z" fill="#DFF249"/>
<path d="M90.4276 153.066V130.237H95.117V135.866L94.3123 135.419C94.5344 133.631 95.0766 132.232 95.9331 131.22C96.7897 130.208 97.874 129.7 99.1834 129.7C100.346 129.7 101.268 130.049 101.952 130.75C102.638 131.451 103.114 132.204 103.382 133.005C103.904 132.172 104.585 131.413 105.427 130.727C106.269 130.044 107.313 129.7 108.565 129.7C110.353 129.7 111.706 130.341 112.631 131.621C113.554 132.902 114.016 135.151 114.016 138.367V153.063H109.323V139.125C109.323 137.562 109.182 136.42 108.899 135.696C108.617 134.975 108.057 134.612 107.224 134.612C106.702 134.612 106.252 134.791 105.871 135.148C105.491 135.506 105.196 136.022 104.989 136.7C104.781 137.377 104.677 138.199 104.677 139.168V153.063H99.988V138.99C99.988 138.067 99.913 137.277 99.7631 136.622C99.6131 135.967 99.3824 135.468 99.0709 135.125C98.7594 134.782 98.347 134.612 97.8423 134.612C97.2915 134.612 96.8099 134.791 96.4003 135.148C95.9908 135.506 95.6736 136.022 95.4515 136.7C95.2294 137.377 95.117 138.199 95.117 139.168V153.063H90.4276V153.066Z" fill="#DFF249"/>
<path d="M117.499 162.046V130.238H122.636V131.98C123.247 131.326 123.994 130.781 124.88 130.351C125.765 129.918 126.878 129.702 128.219 129.702C130.244 129.702 132.006 130.172 133.503 131.109C134.999 132.047 136.162 133.411 136.986 135.196C137.814 136.984 138.227 139.141 138.227 141.673C138.227 144.205 137.794 146.316 136.932 148.096C136.066 149.875 134.884 151.239 133.381 152.182C131.876 153.128 130.172 153.601 128.265 153.601C126.881 153.601 125.742 153.374 124.848 152.921C123.954 152.468 123.218 151.906 122.636 151.234V159.678L117.499 162.046ZM127.507 148.687C129.278 148.687 130.645 148.081 131.605 146.867C132.565 145.653 133.047 143.923 133.047 141.673C133.047 139.424 132.571 137.809 131.616 136.514C130.662 135.219 129.278 134.57 127.461 134.57C126.33 134.57 125.364 134.775 124.568 135.184C123.772 135.594 123.126 136.148 122.636 136.848V146.409C123.068 147.006 123.694 147.534 124.513 147.995C125.332 148.456 126.33 148.687 127.507 148.687Z" fill="#DFF249"/>
<path d="M206.87 153.384H155.369C152.75 153.384 150.617 151.255 150.617 148.633V97.1348C150.617 94.5156 152.747 92.3831 155.369 92.3831H206.87C209.489 92.3831 211.622 94.5156 211.622 97.1348V148.636C211.622 151.255 209.492 153.387 206.87 153.387V153.384ZM157.044 148.232H205.195C205.899 148.232 206.469 147.662 206.469 146.958V98.8093C206.469 98.1051 205.899 97.5355 205.195 97.5355H157.044C156.34 97.5355 155.77 98.1051 155.77 98.8093V146.958C155.77 147.662 156.34 148.232 157.044 148.232Z" fill="#DFF249"/>
<path d="M53.1236 399.791C51.7681 399.791 50.6174 399.583 49.6744 399.165C48.7284 398.747 47.944 398.196 47.3182 397.512V399.254H42.1789V369.368L47.3153 367V378.213C47.9411 377.512 48.8005 376.95 49.8964 376.526C50.9924 376.102 52.0969 375.888 53.213 375.888C55.0905 375.888 56.7545 376.37 58.2052 377.33C59.6587 378.291 60.795 379.661 61.6227 381.44C62.4504 383.219 62.8628 385.345 62.8628 387.817C62.8628 391.672 61.9861 394.634 60.2384 396.696C58.4878 398.758 56.1172 399.791 53.1236 399.791ZM52.319 394.876C54.1359 394.876 55.4827 394.239 56.3623 392.967C57.239 391.695 57.6803 389.977 57.6803 387.819C57.6803 385.541 57.2304 383.796 56.3277 382.582C55.4279 381.368 54.0897 380.762 52.319 380.762C51.4999 380.762 50.7588 380.881 50.0954 381.12C49.4321 381.359 48.8669 381.653 48.3968 382.002C47.9267 382.351 47.5662 382.697 47.3124 383.041V392.644C47.8488 393.36 48.5381 393.91 49.3773 394.297C50.2195 394.683 51.1971 394.876 52.3161 394.876H52.319Z" fill="#0A0A0A"/>
<path d="M75.3705 399.79C73.7756 399.79 72.3423 399.507 71.0705 398.942C69.7958 398.377 68.7893 397.532 68.0423 396.407C67.2982 395.282 66.9262 393.881 66.9262 392.196C66.9262 390.512 67.3732 389.007 68.2673 387.896C69.1613 386.786 70.3033 385.967 71.6963 385.439C73.0893 384.912 74.537 384.646 76.0425 384.646C77.2047 384.646 78.24 384.747 79.1485 384.949C80.057 385.151 80.9135 385.451 81.7181 385.855V384.514C81.7181 383.501 81.5393 382.694 81.1817 382.091C80.8241 381.488 80.3079 381.056 79.6301 380.796C78.9524 380.537 78.1449 380.404 77.2076 380.404C75.9415 380.404 74.687 380.611 73.444 381.03C72.201 381.448 71.0416 382.013 69.9717 382.728L68.4086 378.529C69.5102 377.828 70.8657 377.214 72.475 376.686C74.0842 376.159 75.8117 375.893 77.6575 375.893C78.6698 375.893 79.708 375.994 80.7751 376.193C81.8392 376.395 82.8227 376.79 83.7225 377.379C84.6223 377.967 85.349 378.829 85.8999 379.968C86.4507 381.108 86.7276 382.607 86.7276 384.47V399.256H81.7239V397.468C81.0981 398.065 80.2761 398.599 79.2552 399.078C78.2343 399.553 76.9423 399.793 75.3791 399.793L75.3705 399.79ZM76.3107 395.279C77.5623 395.279 78.6294 395.049 79.5148 394.587C80.4001 394.126 81.1356 393.598 81.7152 393.001V390.054C81.0894 389.742 80.3569 389.491 79.5148 389.307C78.6726 389.122 77.7844 389.027 76.8442 389.027C75.5349 389.027 74.3784 389.278 73.3834 389.774C72.3856 390.273 71.8866 391.08 71.8866 392.196C71.8866 393.105 72.2731 393.846 73.0489 394.42C73.8218 394.994 74.909 395.279 76.3107 395.279Z" fill="#0A0A0A"/>
<path d="M92.2157 399.253V376.426H97.3521V381.831L96.683 380.311C96.683 379.642 97.0031 378.967 97.6434 378.289C98.2836 377.612 99.1431 377.044 100.225 376.579C101.303 376.118 102.506 375.887 103.832 375.887C105.352 375.887 106.751 376.184 108.031 376.781C109.312 377.378 110.339 378.364 111.114 379.74C111.887 381.119 112.277 382.976 112.277 385.315V399.253H107.14V386.388C107.14 384.288 106.676 382.826 105.744 381.998C104.813 381.17 103.7 380.758 102.405 380.758C101.496 380.758 100.66 380.925 99.8929 381.26C99.1258 381.594 98.5115 382.165 98.05 382.97C97.5886 383.775 97.3579 384.885 97.3579 386.298V399.253H92.2157Z" fill="#0A0A0A"/>
<path d="M126.524 399.791C124.453 399.791 122.665 399.321 121.162 398.383C119.657 397.446 118.501 396.082 117.69 394.297C116.88 392.509 116.473 390.352 116.473 387.819C116.473 385.287 116.897 383.222 117.748 381.443C118.596 379.664 119.767 378.294 121.255 377.333C122.743 376.373 124.456 375.891 126.391 375.891C127.672 375.891 128.799 376.105 129.774 376.529C130.749 376.953 131.513 377.472 132.064 378.08V369.368L137.2 367V399.254H132.064V397.512C131.646 398.063 130.951 398.582 129.976 399.064C129.001 399.549 127.85 399.791 126.524 399.791ZM127.239 394.876C128.444 394.876 129.428 394.686 130.186 394.305C130.945 393.925 131.571 393.371 132.064 392.641V382.992C131.706 382.501 131.141 382.005 130.365 381.506C129.589 381.007 128.519 380.759 127.15 380.759C125.393 380.759 124.038 381.365 123.083 382.579C122.131 383.793 121.653 385.538 121.653 387.817C121.653 389.215 121.869 390.444 122.302 391.502C122.734 392.561 123.363 393.386 124.188 393.982C125.015 394.579 126.031 394.876 127.236 394.876H127.239Z" fill="#0A0A0A"/>
<path d="M52.4544 430.603C49.2676 430.603 46.7268 429.553 44.8378 427.453C42.9459 425.354 42 422.427 42 418.675C42 416.189 42.4384 414.052 43.318 412.264C44.1976 410.475 45.4262 409.103 47.0037 408.142C48.5812 407.182 50.4299 406.7 52.5438 406.7C54.9116 406.7 56.89 407.202 58.4733 408.209C60.0595 409.215 61.2102 410.781 61.9254 412.91L57.0572 414.562C56.7285 413.682 56.2036 412.964 55.4826 412.408C54.7616 411.851 53.7955 411.571 52.59 411.571C50.8769 411.571 49.556 412.22 48.6245 413.515C47.693 414.81 47.2286 416.532 47.2286 418.675C47.2286 420.817 47.693 422.542 48.6245 423.802C49.556 425.06 50.848 425.688 52.5006 425.688C53.7378 425.688 54.7385 425.397 55.5057 424.817C56.2728 424.238 56.8352 423.41 57.1928 422.337L62.0609 423.857C61.3919 426.06 60.2585 427.736 58.6665 428.884C57.0717 430.032 55.0038 430.603 52.4573 430.603H52.4544Z" fill="#0A0A0A"/>
<path d="M75.3705 430.602C73.7756 430.602 72.3423 430.319 71.0705 429.754C69.7958 429.188 68.7893 428.344 68.0423 427.219C67.2982 426.094 66.9262 424.692 66.9262 423.008C66.9262 421.324 67.3732 419.818 68.2673 418.708C69.1613 417.598 70.3033 416.779 71.6963 416.251C73.0893 415.723 74.537 415.458 76.0425 415.458C77.2047 415.458 78.24 415.559 79.1485 415.761C80.057 415.963 80.9135 416.263 81.7181 416.666V415.325C81.7181 414.313 81.5393 413.505 81.1817 412.903C80.8241 412.3 80.3079 411.867 79.6301 411.608C78.9524 411.348 78.1449 411.216 77.2076 411.216C75.9415 411.216 74.687 411.423 73.444 411.841C72.201 412.26 71.0416 412.825 69.9717 413.54L68.4086 409.341C69.5102 408.64 70.8657 408.026 72.475 407.498C74.0842 406.97 75.8117 406.705 77.6575 406.705C78.6698 406.705 79.708 406.806 80.7751 407.005C81.8392 407.207 82.8227 407.602 83.7225 408.19C84.6223 408.779 85.349 409.641 85.8999 410.78C86.4507 411.919 86.7276 413.419 86.7276 415.282V430.068H81.7239V428.28C81.0981 428.877 80.2761 429.411 79.2552 429.889C78.2343 430.365 76.9423 430.605 75.3791 430.605L75.3705 430.602ZM76.3107 426.088C77.5623 426.088 78.6294 425.858 79.5148 425.396C80.4001 424.935 81.1356 424.407 81.7152 423.81V420.862C81.0894 420.551 80.3569 420.3 79.5148 420.116C78.6726 419.931 77.7844 419.836 76.8442 419.836C75.5349 419.836 74.3784 420.087 73.3834 420.583C72.3856 421.082 71.8866 421.889 71.8866 423.005C71.8866 423.914 72.2731 424.655 73.0489 425.229C73.8218 425.803 74.909 426.088 76.3107 426.088Z" fill="#0A0A0A"/>
<path d="M90.4276 430.066V407.237H95.117V412.866L94.3123 412.419C94.5344 410.631 95.0766 409.232 95.9331 408.22C96.7897 407.208 97.874 406.7 99.1834 406.7C100.346 406.7 101.268 407.049 101.952 407.75C102.638 408.451 103.114 409.204 103.382 410.005C103.904 409.172 104.585 408.413 105.427 407.727C106.269 407.044 107.313 406.7 108.565 406.7C110.353 406.7 111.706 407.341 112.631 408.621C113.554 409.902 114.016 412.151 114.016 415.367V430.063H109.323V416.125C109.323 414.562 109.182 413.42 108.899 412.696C108.617 411.975 108.057 411.612 107.224 411.612C106.702 411.612 106.252 411.791 105.871 412.148C105.491 412.506 105.196 413.022 104.989 413.7C104.781 414.377 104.677 415.199 104.677 416.168V430.063H99.988V415.99C99.988 415.067 99.913 414.277 99.7631 413.622C99.6131 412.967 99.3824 412.468 99.0709 412.125C98.7594 411.782 98.347 411.612 97.8423 411.612C97.2915 411.612 96.8099 411.791 96.4003 412.148C95.9908 412.506 95.6736 413.022 95.4515 413.7C95.2294 414.377 95.117 415.199 95.117 416.168V430.063H90.4276V430.066Z" fill="#0A0A0A"/>
<path d="M117.499 439.046V407.238H122.636V408.98C123.247 408.326 123.994 407.781 124.88 407.351C125.765 406.918 126.878 406.702 128.219 406.702C130.244 406.702 132.006 407.172 133.503 408.109C134.999 409.047 136.162 410.411 136.986 412.196C137.814 413.984 138.227 416.141 138.227 418.673C138.227 421.205 137.794 423.317 136.932 425.096C136.066 426.875 134.884 428.239 133.381 429.182C131.876 430.128 130.172 430.601 128.265 430.601C126.881 430.601 125.742 430.374 124.848 429.921C123.954 429.468 123.218 428.906 122.636 428.234V436.678L117.499 439.046ZM127.507 425.687C129.278 425.687 130.645 425.081 131.605 423.867C132.565 422.653 133.047 420.923 133.047 418.673C133.047 416.424 132.571 414.809 131.616 413.514C130.662 412.219 129.278 411.57 127.461 411.57C126.33 411.57 125.364 411.775 124.568 412.184C123.772 412.594 123.126 413.148 122.636 413.848V423.409C123.068 424.006 123.694 424.534 124.513 424.995C125.332 425.456 126.33 425.687 127.507 425.687Z" fill="#0A0A0A"/>
<path d="M206.87 430.384H155.369C152.75 430.384 150.617 428.255 150.617 425.633V374.135C150.617 371.516 152.747 369.383 155.369 369.383H206.87C209.489 369.383 211.622 371.516 211.622 374.135V425.636C211.622 428.255 209.492 430.387 206.87 430.387V430.384ZM157.044 425.232H205.195C205.899 425.232 206.469 424.662 206.469 423.958V375.809C206.469 375.105 205.899 374.535 205.195 374.535H157.044C156.34 374.535 155.77 375.105 155.77 375.809V423.958C155.77 424.662 156.34 425.232 157.044 425.232Z" fill="#623BF6"/>
<path d="M331.124 122.791C329.768 122.791 328.617 122.583 327.674 122.165C326.728 121.747 325.944 121.196 325.318 120.512V122.254H320.179V92.3677L325.315 90V101.213C325.941 100.512 326.801 99.9497 327.896 99.5258C328.992 99.1018 330.097 98.8884 331.213 98.8884C333.09 98.8884 334.755 99.37 336.205 100.33C337.659 101.291 338.795 102.661 339.623 104.44C340.45 106.219 340.863 108.345 340.863 110.817C340.863 114.672 339.986 117.634 338.238 119.696C336.488 121.758 334.117 122.791 331.124 122.791ZM330.319 117.877C332.136 117.877 333.483 117.239 334.362 115.967C335.239 114.695 335.68 112.977 335.68 110.819C335.68 108.541 335.23 106.796 334.328 105.582C333.428 104.368 332.09 103.762 330.319 103.762C329.5 103.762 328.759 103.881 328.095 104.12C327.432 104.359 326.867 104.653 326.397 105.002C325.927 105.351 325.566 105.697 325.312 106.041V115.644C325.849 116.36 326.538 116.91 327.377 117.297C328.219 117.683 329.197 117.877 330.316 117.877H330.319Z" fill="#623BF6"/>
<path d="M353.37 122.79C351.776 122.79 350.342 122.507 349.07 121.942C347.796 121.377 346.789 120.532 346.042 119.407C345.298 118.282 344.926 116.881 344.926 115.196C344.926 113.512 345.373 112.007 346.267 110.896C347.161 109.786 348.303 108.967 349.696 108.439C351.089 107.912 352.537 107.646 354.042 107.646C355.205 107.646 356.24 107.747 357.148 107.949C358.057 108.151 358.913 108.451 359.718 108.855V107.514C359.718 106.501 359.539 105.694 359.182 105.091C358.824 104.488 358.308 104.056 357.63 103.796C356.952 103.537 356.145 103.404 355.208 103.404C353.942 103.404 352.687 103.612 351.444 104.03C350.201 104.448 349.042 105.013 347.972 105.728L346.409 101.529C347.51 100.828 348.866 100.214 350.475 99.6864C352.084 99.1586 353.812 98.8933 355.657 98.8933C356.67 98.8933 357.708 98.9943 358.775 99.1932C359.839 99.3951 360.823 99.7902 361.722 100.379C362.622 100.967 363.349 101.829 363.9 102.968C364.451 104.108 364.728 105.607 364.728 107.47V122.256H359.724V120.468C359.098 121.065 358.276 121.599 357.255 122.078C356.234 122.553 354.942 122.793 353.379 122.793L353.37 122.79ZM354.311 118.279C355.562 118.279 356.629 118.049 357.515 117.587C358.4 117.126 359.136 116.598 359.715 116.001V113.054C359.089 112.742 358.357 112.491 357.515 112.307C356.673 112.122 355.784 112.027 354.844 112.027C353.535 112.027 352.378 112.278 351.383 112.774C350.386 113.273 349.887 114.08 349.887 115.196C349.887 116.105 350.273 116.846 351.049 117.42C351.822 117.994 352.909 118.279 354.311 118.279Z" fill="#623BF6"/>
<path d="M370.216 122.253V99.4264H375.352V104.831L374.683 103.311C374.683 102.642 375.003 101.967 375.643 101.289C376.284 100.612 377.143 100.044 378.225 99.5792C379.303 99.1178 380.506 98.8871 381.832 98.8871C383.352 98.8871 384.751 99.1841 386.031 99.7811C387.312 100.378 388.339 101.364 389.114 102.74C389.887 104.119 390.277 105.976 390.277 108.315V122.253H385.14V109.388C385.14 107.288 384.676 105.826 383.744 104.998C382.813 104.171 381.7 103.758 380.405 103.758C379.496 103.758 378.66 103.925 377.893 104.26C377.126 104.594 376.511 105.165 376.05 105.97C375.589 106.775 375.358 107.885 375.358 109.298V122.253H370.216Z" fill="#623BF6"/>
<path d="M404.524 122.791C402.453 122.791 400.665 122.321 399.162 121.383C397.657 120.446 396.501 119.082 395.69 117.297C394.88 115.509 394.473 113.352 394.473 110.819C394.473 108.287 394.897 106.222 395.748 104.443C396.596 102.664 397.767 101.294 399.255 100.333C400.743 99.3729 402.456 98.8913 404.391 98.8913C405.672 98.8913 406.799 99.1047 407.774 99.5287C408.749 99.9526 409.513 100.472 410.064 101.08V92.3677L415.2 90V122.254H410.064V120.512C409.646 121.063 408.951 121.582 407.976 122.064C407.001 122.549 405.85 122.791 404.524 122.791ZM405.239 117.877C406.444 117.877 407.428 117.686 408.186 117.305C408.945 116.925 409.571 116.371 410.064 115.641V105.992C409.706 105.501 409.141 105.005 408.365 104.506C407.589 104.007 406.519 103.759 405.15 103.759C403.393 103.759 402.038 104.365 401.083 105.579C400.131 106.793 399.653 108.538 399.653 110.817C399.653 112.215 399.869 113.444 400.302 114.502C400.734 115.561 401.363 116.385 402.188 116.982C403.015 117.579 404.031 117.877 405.236 117.877H405.239Z" fill="#623BF6"/>
<path d="M330.454 153.603C327.268 153.603 324.727 152.553 322.838 150.453C320.946 148.354 320 145.427 320 141.675C320 139.189 320.438 137.052 321.318 135.264C322.198 133.475 323.426 132.103 325.004 131.142C326.581 130.182 328.43 129.7 330.544 129.7C332.912 129.7 334.89 130.202 336.473 131.209C338.059 132.215 339.21 133.781 339.925 135.91L335.057 137.562C334.728 136.682 334.204 135.964 333.483 135.408C332.762 134.851 331.795 134.571 330.59 134.571C328.877 134.571 327.556 135.22 326.624 136.515C325.693 137.81 325.229 139.532 325.229 141.675C325.229 143.817 325.693 145.542 326.624 146.802C327.556 148.06 328.848 148.688 330.501 148.688C331.738 148.688 332.739 148.397 333.506 147.817C334.273 147.238 334.835 146.41 335.193 145.337L340.061 146.857C339.392 149.06 338.258 150.736 336.667 151.884C335.072 153.032 333.004 153.603 330.457 153.603H330.454Z" fill="#623BF6"/>
<path d="M353.37 153.602C351.776 153.602 350.342 153.319 349.07 152.754C347.796 152.189 346.789 151.344 346.042 150.219C345.298 149.094 344.926 147.692 344.926 146.008C344.926 144.324 345.373 142.818 346.267 141.708C347.161 140.598 348.303 139.779 349.696 139.251C351.089 138.723 352.537 138.458 354.042 138.458C355.205 138.458 356.24 138.559 357.148 138.761C358.057 138.963 358.913 139.263 359.718 139.666V138.325C359.718 137.313 359.539 136.505 359.182 135.903C358.824 135.3 358.308 134.867 357.63 134.608C356.952 134.348 356.145 134.216 355.208 134.216C353.942 134.216 352.687 134.423 351.444 134.841C350.201 135.26 349.042 135.825 347.972 136.54L346.409 132.341C347.51 131.64 348.866 131.026 350.475 130.498C352.084 129.97 353.812 129.705 355.657 129.705C356.67 129.705 357.708 129.806 358.775 130.005C359.839 130.207 360.823 130.602 361.722 131.19C362.622 131.779 363.349 132.641 363.9 133.78C364.451 134.919 364.728 136.419 364.728 138.282V153.068H359.724V151.28C359.098 151.877 358.276 152.411 357.255 152.889C356.234 153.365 354.942 153.605 353.379 153.605L353.37 153.602ZM354.311 149.088C355.562 149.088 356.629 148.858 357.515 148.396C358.4 147.935 359.136 147.407 359.715 146.81V143.862C359.089 143.551 358.357 143.3 357.515 143.116C356.673 142.931 355.784 142.836 354.844 142.836C353.535 142.836 352.378 143.087 351.383 143.583C350.386 144.082 349.887 144.889 349.887 146.005C349.887 146.914 350.273 147.655 351.049 148.229C351.822 148.803 352.909 149.088 354.311 149.088Z" fill="#623BF6"/>
<path d="M368.428 153.066V130.237H373.117V135.866L372.312 135.419C372.534 133.631 373.077 132.232 373.933 131.22C374.79 130.208 375.874 129.7 377.183 129.7C378.346 129.7 379.268 130.049 379.952 130.75C380.638 131.451 381.114 132.204 381.382 133.005C381.904 132.172 382.585 131.413 383.427 130.727C384.269 130.044 385.313 129.7 386.565 129.7C388.353 129.7 389.706 130.341 390.631 131.621C391.554 132.902 392.016 135.151 392.016 138.367V153.063H387.323V139.125C387.323 137.562 387.182 136.42 386.899 135.696C386.617 134.975 386.057 134.612 385.224 134.612C384.702 134.612 384.252 134.791 383.871 135.148C383.491 135.506 383.196 136.022 382.989 136.7C382.781 137.377 382.677 138.199 382.677 139.168V153.063H377.988V138.99C377.988 138.067 377.913 137.277 377.763 136.622C377.613 135.967 377.382 135.468 377.071 135.125C376.759 134.782 376.347 134.612 375.842 134.612C375.291 134.612 374.81 134.791 374.4 135.148C373.991 135.506 373.674 136.022 373.452 136.7C373.229 137.377 373.117 138.199 373.117 139.168V153.063H368.428V153.066Z" fill="#623BF6"/>
<path d="M395.499 162.046V130.238H400.636V131.98C401.247 131.326 401.994 130.781 402.88 130.351C403.765 129.918 404.878 129.702 406.219 129.702C408.244 129.702 410.006 130.172 411.503 131.109C412.999 132.047 414.162 133.411 414.986 135.196C415.814 136.984 416.227 139.141 416.227 141.673C416.227 144.205 415.794 146.316 414.932 148.096C414.066 149.875 412.884 151.239 411.381 152.182C409.876 153.128 408.172 153.601 406.265 153.601C404.881 153.601 403.742 153.374 402.848 152.921C401.954 152.468 401.218 151.906 400.636 151.234V159.678L395.499 162.046ZM405.507 148.687C407.278 148.687 408.645 148.081 409.605 146.867C410.565 145.653 411.047 143.923 411.047 141.673C411.047 139.424 410.571 137.809 409.616 136.514C408.662 135.219 407.278 134.57 405.461 134.57C404.33 134.57 403.364 134.775 402.568 135.184C401.772 135.594 401.126 136.148 400.636 136.848V146.409C401.068 147.006 401.694 147.534 402.513 147.995C403.332 148.456 404.33 148.687 405.507 148.687Z" fill="#623BF6"/>
<path d="M484.87 153.384H433.369C430.75 153.384 428.617 151.255 428.617 148.633V97.1348C428.617 94.5156 430.747 92.3831 433.369 92.3831H484.87C487.489 92.3831 489.622 94.5156 489.622 97.1348V148.636C489.622 151.255 487.492 153.387 484.87 153.387V153.384ZM435.044 148.232H483.195C483.899 148.232 484.469 147.662 484.469 146.958V98.8093C484.469 98.1051 483.899 97.5355 483.195 97.5355H435.044C434.34 97.5355 433.77 98.1051 433.77 98.8093V146.958C433.77 147.662 434.34 148.232 435.044 148.232Z" fill="#623BF6"/>
<path d="M331.124 399.791C329.768 399.791 328.617 399.583 327.674 399.165C326.728 398.747 325.944 398.196 325.318 397.512V399.254H320.179V369.368L325.315 367V378.213C325.941 377.512 326.801 376.95 327.896 376.526C328.992 376.102 330.097 375.888 331.213 375.888C333.09 375.888 334.755 376.37 336.205 377.33C337.659 378.291 338.795 379.661 339.623 381.44C340.45 383.219 340.863 385.345 340.863 387.817C340.863 391.672 339.986 394.634 338.238 396.696C336.488 398.758 334.117 399.791 331.124 399.791ZM330.319 394.876C332.136 394.876 333.483 394.239 334.362 392.967C335.239 391.695 335.68 389.977 335.68 387.819C335.68 385.541 335.23 383.796 334.328 382.582C333.428 381.368 332.09 380.762 330.319 380.762C329.5 380.762 328.759 380.881 328.095 381.12C327.432 381.359 326.867 381.653 326.397 382.002C325.927 382.351 325.566 382.697 325.312 383.041V392.644C325.849 393.36 326.538 393.91 327.377 394.297C328.219 394.683 329.197 394.876 330.316 394.876H330.319Z" fill="#0A0A0A"/>
<path d="M353.37 399.79C351.776 399.79 350.342 399.507 349.07 398.942C347.796 398.377 346.789 397.532 346.042 396.407C345.298 395.282 344.926 393.881 344.926 392.196C344.926 390.512 345.373 389.007 346.267 387.896C347.161 386.786 348.303 385.967 349.696 385.439C351.089 384.912 352.537 384.646 354.042 384.646C355.205 384.646 356.24 384.747 357.148 384.949C358.057 385.151 358.913 385.451 359.718 385.855V384.514C359.718 383.501 359.539 382.694 359.182 382.091C358.824 381.488 358.308 381.056 357.63 380.796C356.952 380.537 356.145 380.404 355.208 380.404C353.942 380.404 352.687 380.611 351.444 381.03C350.201 381.448 349.042 382.013 347.972 382.728L346.409 378.529C347.51 377.828 348.866 377.214 350.475 376.686C352.084 376.159 353.812 375.893 355.657 375.893C356.67 375.893 357.708 375.994 358.775 376.193C359.839 376.395 360.823 376.79 361.722 377.379C362.622 377.967 363.349 378.829 363.9 379.968C364.451 381.108 364.728 382.607 364.728 384.47V399.256H359.724V397.468C359.098 398.065 358.276 398.599 357.255 399.078C356.234 399.553 354.942 399.793 353.379 399.793L353.37 399.79ZM354.311 395.279C355.562 395.279 356.629 395.049 357.515 394.587C358.4 394.126 359.136 393.598 359.715 393.001V390.054C359.089 389.742 358.357 389.491 357.515 389.307C356.673 389.122 355.784 389.027 354.844 389.027C353.535 389.027 352.378 389.278 351.383 389.774C350.386 390.273 349.887 391.08 349.887 392.196C349.887 393.105 350.273 393.846 351.049 394.42C351.822 394.994 352.909 395.279 354.311 395.279Z" fill="#0A0A0A"/>
<path d="M370.216 399.253V376.426H375.352V381.831L374.683 380.311C374.683 379.642 375.003 378.967 375.643 378.289C376.284 377.612 377.143 377.044 378.225 376.579C379.303 376.118 380.506 375.887 381.832 375.887C383.352 375.887 384.751 376.184 386.031 376.781C387.312 377.378 388.339 378.364 389.114 379.74C389.887 381.119 390.277 382.976 390.277 385.315V399.253H385.14V386.388C385.14 384.288 384.676 382.826 383.744 381.998C382.813 381.17 381.7 380.758 380.405 380.758C379.496 380.758 378.66 380.925 377.893 381.26C377.126 381.594 376.511 382.165 376.05 382.97C375.589 383.775 375.358 384.885 375.358 386.298V399.253H370.216Z" fill="#0A0A0A"/>
<path d="M404.524 399.791C402.453 399.791 400.665 399.321 399.162 398.383C397.657 397.446 396.501 396.082 395.69 394.297C394.88 392.509 394.473 390.352 394.473 387.819C394.473 385.287 394.897 383.222 395.748 381.443C396.596 379.664 397.767 378.294 399.255 377.333C400.743 376.373 402.456 375.891 404.391 375.891C405.672 375.891 406.799 376.105 407.774 376.529C408.749 376.953 409.513 377.472 410.064 378.08V369.368L415.2 367V399.254H410.064V397.512C409.646 398.063 408.951 398.582 407.976 399.064C407.001 399.549 405.85 399.791 404.524 399.791ZM405.239 394.876C406.444 394.876 407.428 394.686 408.186 394.305C408.945 393.925 409.571 393.371 410.064 392.641V382.992C409.706 382.501 409.141 382.005 408.365 381.506C407.589 381.007 406.519 380.759 405.15 380.759C403.393 380.759 402.038 381.365 401.083 382.579C400.131 383.793 399.653 385.538 399.653 387.817C399.653 389.215 399.869 390.444 400.302 391.502C400.734 392.561 401.363 393.386 402.188 393.982C403.015 394.579 404.031 394.876 405.236 394.876H405.239Z" fill="#0A0A0A"/>
<path d="M330.454 430.603C327.268 430.603 324.727 429.553 322.838 427.453C320.946 425.354 320 422.427 320 418.675C320 416.189 320.438 414.052 321.318 412.264C322.198 410.475 323.426 409.103 325.004 408.142C326.581 407.182 328.43 406.7 330.544 406.7C332.912 406.7 334.89 407.202 336.473 408.209C338.059 409.215 339.21 410.781 339.925 412.91L335.057 414.562C334.728 413.682 334.204 412.964 333.483 412.408C332.762 411.851 331.795 411.571 330.59 411.571C328.877 411.571 327.556 412.22 326.624 413.515C325.693 414.81 325.229 416.532 325.229 418.675C325.229 420.817 325.693 422.542 326.624 423.802C327.556 425.06 328.848 425.688 330.501 425.688C331.738 425.688 332.739 425.397 333.506 424.817C334.273 424.238 334.835 423.41 335.193 422.337L340.061 423.857C339.392 426.06 338.258 427.736 336.667 428.884C335.072 430.032 333.004 430.603 330.457 430.603H330.454Z" fill="#0A0A0A"/>
<path d="M353.37 430.602C351.776 430.602 350.342 430.319 349.07 429.754C347.796 429.188 346.789 428.344 346.042 427.219C345.298 426.094 344.926 424.692 344.926 423.008C344.926 421.324 345.373 419.818 346.267 418.708C347.161 417.598 348.303 416.779 349.696 416.251C351.089 415.723 352.537 415.458 354.042 415.458C355.205 415.458 356.24 415.559 357.148 415.761C358.057 415.963 358.913 416.263 359.718 416.666V415.325C359.718 414.313 359.539 413.505 359.182 412.903C358.824 412.3 358.308 411.867 357.63 411.608C356.952 411.348 356.145 411.216 355.208 411.216C353.942 411.216 352.687 411.423 351.444 411.841C350.201 412.26 349.042 412.825 347.972 413.54L346.409 409.341C347.51 408.64 348.866 408.026 350.475 407.498C352.084 406.97 353.812 406.705 355.657 406.705C356.67 406.705 357.708 406.806 358.775 407.005C359.839 407.207 360.823 407.602 361.722 408.19C362.622 408.779 363.349 409.641 363.9 410.78C364.451 411.919 364.728 413.419 364.728 415.282V430.068H359.724V428.28C359.098 428.877 358.276 429.411 357.255 429.889C356.234 430.365 354.942 430.605 353.379 430.605L353.37 430.602ZM354.311 426.088C355.562 426.088 356.629 425.858 357.515 425.396C358.4 424.935 359.136 424.407 359.715 423.81V420.862C359.089 420.551 358.357 420.3 357.515 420.116C356.673 419.931 355.784 419.836 354.844 419.836C353.535 419.836 352.378 420.087 351.383 420.583C350.386 421.082 349.887 421.889 349.887 423.005C349.887 423.914 350.273 424.655 351.049 425.229C351.822 425.803 352.909 426.088 354.311 426.088Z" fill="#0A0A0A"/>
<path d="M368.428 430.066V407.237H373.117V412.866L372.312 412.419C372.534 410.631 373.077 409.232 373.933 408.22C374.79 407.208 375.874 406.7 377.183 406.7C378.346 406.7 379.268 407.049 379.952 407.75C380.638 408.451 381.114 409.204 381.382 410.005C381.904 409.172 382.585 408.413 383.427 407.727C384.269 407.044 385.313 406.7 386.565 406.7C388.353 406.7 389.706 407.341 390.631 408.621C391.554 409.902 392.016 412.151 392.016 415.367V430.063H387.323V416.125C387.323 414.562 387.182 413.42 386.899 412.696C386.617 411.975 386.057 411.612 385.224 411.612C384.702 411.612 384.252 411.791 383.871 412.148C383.491 412.506 383.196 413.022 382.989 413.7C382.781 414.377 382.677 415.199 382.677 416.168V430.063H377.988V415.99C377.988 415.067 377.913 414.277 377.763 413.622C377.613 412.967 377.382 412.468 377.071 412.125C376.759 411.782 376.347 411.612 375.842 411.612C375.291 411.612 374.81 411.791 374.4 412.148C373.991 412.506 373.674 413.022 373.452 413.7C373.229 414.377 373.117 415.199 373.117 416.168V430.063H368.428V430.066Z" fill="#0A0A0A"/>
<path d="M395.499 439.046V407.238H400.636V408.98C401.247 408.326 401.994 407.781 402.88 407.351C403.765 406.918 404.878 406.702 406.219 406.702C408.244 406.702 410.006 407.172 411.503 408.109C412.999 409.047 414.162 410.411 414.986 412.196C415.814 413.984 416.227 416.141 416.227 418.673C416.227 421.205 415.794 423.317 414.932 425.096C414.066 426.875 412.884 428.239 411.381 429.182C409.876 430.128 408.172 430.601 406.265 430.601C404.881 430.601 403.742 430.374 402.848 429.921C401.954 429.468 401.218 428.906 400.636 428.234V436.678L395.499 439.046ZM405.507 425.687C407.278 425.687 408.645 425.081 409.605 423.867C410.565 422.653 411.047 420.923 411.047 418.673C411.047 416.424 410.571 414.809 409.616 413.514C408.662 412.219 407.278 411.57 405.461 411.57C404.33 411.57 403.364 411.775 402.568 412.184C401.772 412.594 401.126 413.148 400.636 413.848V423.409C401.068 424.006 401.694 424.534 402.513 424.995C403.332 425.456 404.33 425.687 405.507 425.687Z" fill="#0A0A0A"/>
<path d="M484.87 430.384H433.369C430.75 430.384 428.617 428.255 428.617 425.633V374.135C428.617 371.516 430.747 369.383 433.369 369.383H484.87C487.489 369.383 489.622 371.516 489.622 374.135V425.636C489.622 428.255 487.492 430.387 484.87 430.387V430.384ZM435.044 425.232H483.195C483.899 425.232 484.469 424.662 484.469 423.958V375.809C484.469 375.105 483.899 374.535 483.195 374.535H435.044C434.34 374.535 433.77 375.105 433.77 375.809V423.958C433.77 424.662 434.34 425.232 435.044 425.232Z" fill="#623BF6"/>
<path d="M606.124 122.791C604.768 122.791 603.617 122.583 602.674 122.165C601.728 121.747 600.944 121.196 600.318 120.512V122.254H595.179V92.3677L600.315 90V101.213C600.941 100.512 601.801 99.9497 602.896 99.5258C603.992 99.1018 605.097 98.8884 606.213 98.8884C608.09 98.8884 609.755 99.37 611.205 100.33C612.659 101.291 613.795 102.661 614.623 104.44C615.45 106.219 615.863 108.345 615.863 110.817C615.863 114.672 614.986 117.634 613.238 119.696C611.488 121.758 609.117 122.791 606.124 122.791ZM605.319 117.877C607.136 117.877 608.483 117.239 609.362 115.967C610.239 114.695 610.68 112.977 610.68 110.819C610.68 108.541 610.23 106.796 609.328 105.582C608.428 104.368 607.09 103.762 605.319 103.762C604.5 103.762 603.759 103.881 603.095 104.12C602.432 104.359 601.867 104.653 601.397 105.002C600.927 105.351 600.566 105.697 600.312 106.041V115.644C600.849 116.36 601.538 116.91 602.377 117.297C603.219 117.683 604.197 117.877 605.316 117.877H605.319Z" fill="#DFF249"/>
<path d="M628.37 122.79C626.776 122.79 625.342 122.507 624.07 121.942C622.796 121.377 621.789 120.532 621.042 119.407C620.298 118.282 619.926 116.881 619.926 115.196C619.926 113.512 620.373 112.007 621.267 110.896C622.161 109.786 623.303 108.967 624.696 108.439C626.089 107.912 627.537 107.646 629.042 107.646C630.205 107.646 631.24 107.747 632.148 107.949C633.057 108.151 633.914 108.451 634.718 108.855V107.514C634.718 106.501 634.539 105.694 634.182 105.091C633.824 104.488 633.308 104.056 632.63 103.796C631.952 103.537 631.145 103.404 630.208 103.404C628.942 103.404 627.687 103.612 626.444 104.03C625.201 104.448 624.042 105.013 622.972 105.728L621.409 101.529C622.51 100.828 623.866 100.214 625.475 99.6864C627.084 99.1586 628.812 98.8933 630.657 98.8933C631.67 98.8933 632.708 98.9943 633.775 99.1932C634.839 99.3951 635.823 99.7902 636.722 100.379C637.622 100.967 638.349 101.829 638.9 102.968C639.451 104.108 639.728 105.607 639.728 107.47V122.256H634.724V120.468C634.098 121.065 633.276 121.599 632.255 122.078C631.234 122.553 629.942 122.793 628.379 122.793L628.37 122.79ZM629.311 118.279C630.562 118.279 631.629 118.049 632.515 117.587C633.4 117.126 634.136 116.598 634.715 116.001V113.054C634.089 112.742 633.357 112.491 632.515 112.307C631.673 112.122 630.784 112.027 629.844 112.027C628.535 112.027 627.378 112.278 626.383 112.774C625.386 113.273 624.887 114.08 624.887 115.196C624.887 116.105 625.273 116.846 626.049 117.42C626.822 117.994 627.909 118.279 629.311 118.279Z" fill="#DFF249"/>
<path d="M645.216 122.253V99.4264H650.352V104.831L649.683 103.311C649.683 102.642 650.003 101.967 650.643 101.289C651.284 100.612 652.143 100.044 653.225 99.5792C654.303 99.1178 655.506 98.8871 656.832 98.8871C658.352 98.8871 659.751 99.1841 661.031 99.7811C662.312 100.378 663.339 101.364 664.114 102.74C664.887 104.119 665.277 105.976 665.277 108.315V122.253H660.14V109.388C660.14 107.288 659.676 105.826 658.744 104.998C657.813 104.171 656.7 103.758 655.405 103.758C654.496 103.758 653.66 103.925 652.893 104.26C652.126 104.594 651.511 105.165 651.05 105.97C650.589 106.775 650.358 107.885 650.358 109.298V122.253H645.216Z" fill="#DFF249"/>
<path d="M679.524 122.791C677.453 122.791 675.665 122.321 674.162 121.383C672.657 120.446 671.501 119.082 670.69 117.297C669.88 115.509 669.473 113.352 669.473 110.819C669.473 108.287 669.897 106.222 670.748 104.443C671.596 102.664 672.767 101.294 674.255 100.333C675.743 99.3729 677.456 98.8913 679.391 98.8913C680.672 98.8913 681.799 99.1047 682.774 99.5287C683.749 99.9526 684.513 100.472 685.064 101.08V92.3677L690.2 90V122.254H685.064V120.512C684.646 121.063 683.951 121.582 682.976 122.064C682.001 122.549 680.85 122.791 679.524 122.791ZM680.239 117.877C681.445 117.877 682.428 117.686 683.186 117.305C683.945 116.925 684.571 116.371 685.064 115.641V105.992C684.706 105.501 684.141 105.005 683.365 104.506C682.589 104.007 681.519 103.759 680.15 103.759C678.393 103.759 677.038 104.365 676.083 105.579C675.131 106.793 674.653 108.538 674.653 110.817C674.653 112.215 674.869 113.444 675.302 114.502C675.734 115.561 676.363 116.385 677.188 116.982C678.015 117.579 679.031 117.877 680.236 117.877H680.239Z" fill="#DFF249"/>
<path d="M605.454 153.603C602.268 153.603 599.727 152.553 597.838 150.453C595.946 148.354 595 145.427 595 141.675C595 139.189 595.438 137.052 596.318 135.264C597.198 133.475 598.426 132.103 600.004 131.142C601.581 130.182 603.43 129.7 605.544 129.7C607.912 129.7 609.89 130.202 611.473 131.209C613.059 132.215 614.21 133.781 614.925 135.91L610.057 137.562C609.728 136.682 609.204 135.964 608.483 135.408C607.762 134.851 606.795 134.571 605.59 134.571C603.877 134.571 602.556 135.22 601.625 136.515C600.693 137.81 600.229 139.532 600.229 141.675C600.229 143.817 600.693 145.542 601.625 146.802C602.556 148.06 603.848 148.688 605.501 148.688C606.738 148.688 607.739 148.397 608.506 147.817C609.273 147.238 609.835 146.41 610.193 145.337L615.061 146.857C614.392 149.06 613.258 150.736 611.667 151.884C610.072 153.032 608.004 153.603 605.457 153.603H605.454Z" fill="#DFF249"/>
<path d="M628.37 153.602C626.776 153.602 625.342 153.319 624.07 152.754C622.796 152.189 621.789 151.344 621.042 150.219C620.298 149.094 619.926 147.692 619.926 146.008C619.926 144.324 620.373 142.818 621.267 141.708C622.161 140.598 623.303 139.779 624.696 139.251C626.089 138.723 627.537 138.458 629.042 138.458C630.205 138.458 631.24 138.559 632.148 138.761C633.057 138.963 633.914 139.263 634.718 139.666V138.325C634.718 137.313 634.539 136.505 634.182 135.903C633.824 135.3 633.308 134.867 632.63 134.608C631.952 134.348 631.145 134.216 630.208 134.216C628.942 134.216 627.687 134.423 626.444 134.841C625.201 135.26 624.042 135.825 622.972 136.54L621.409 132.341C622.51 131.64 623.866 131.026 625.475 130.498C627.084 129.97 628.812 129.705 630.657 129.705C631.67 129.705 632.708 129.806 633.775 130.005C634.839 130.207 635.823 130.602 636.722 131.19C637.622 131.779 638.349 132.641 638.9 133.78C639.451 134.919 639.728 136.419 639.728 138.282V153.068H634.724V151.28C634.098 151.877 633.276 152.411 632.255 152.889C631.234 153.365 629.942 153.605 628.379 153.605L628.37 153.602ZM629.311 149.088C630.562 149.088 631.629 148.858 632.515 148.396C633.4 147.935 634.136 147.407 634.715 146.81V143.862C634.089 143.551 633.357 143.3 632.515 143.116C631.673 142.931 630.784 142.836 629.844 142.836C628.535 142.836 627.378 143.087 626.383 143.583C625.386 144.082 624.887 144.889 624.887 146.005C624.887 146.914 625.273 147.655 626.049 148.229C626.822 148.803 627.909 149.088 629.311 149.088Z" fill="#DFF249"/>
<path d="M643.428 153.066V130.237H648.117V135.866L647.312 135.419C647.534 133.631 648.077 132.232 648.933 131.22C649.79 130.208 650.874 129.7 652.183 129.7C653.346 129.7 654.268 130.049 654.952 130.75C655.638 131.451 656.114 132.204 656.382 133.005C656.904 132.172 657.585 131.413 658.427 130.727C659.269 130.044 660.313 129.7 661.565 129.7C663.353 129.7 664.706 130.341 665.631 131.621C666.554 132.902 667.016 135.151 667.016 138.367V153.063H662.323V139.125C662.323 137.562 662.182 136.42 661.899 135.696C661.617 134.975 661.057 134.612 660.224 134.612C659.702 134.612 659.252 134.791 658.871 135.148C658.491 135.506 658.196 136.022 657.989 136.7C657.781 137.377 657.677 138.199 657.677 139.168V153.063H652.988V138.99C652.988 138.067 652.913 137.277 652.763 136.622C652.613 135.967 652.382 135.468 652.071 135.125C651.759 134.782 651.347 134.612 650.842 134.612C650.292 134.612 649.81 134.791 649.4 135.148C648.991 135.506 648.674 136.022 648.452 136.7C648.229 137.377 648.117 138.199 648.117 139.168V153.063H643.428V153.066Z" fill="#DFF249"/>
<path d="M670.499 162.046V130.238H675.636V131.98C676.247 131.326 676.994 130.781 677.88 130.351C678.765 129.918 679.878 129.702 681.219 129.702C683.244 129.702 685.006 130.172 686.503 131.109C687.999 132.047 689.162 133.411 689.986 135.196C690.814 136.984 691.227 139.141 691.227 141.673C691.227 144.205 690.794 146.316 689.932 148.096C689.066 149.875 687.884 151.239 686.381 152.182C684.876 153.128 683.172 153.601 681.265 153.601C679.881 153.601 678.742 153.374 677.848 152.921C676.954 152.468 676.218 151.906 675.636 151.234V159.678L670.499 162.046ZM680.507 148.687C682.278 148.687 683.645 148.081 684.605 146.867C685.565 145.653 686.047 143.923 686.047 141.673C686.047 139.424 685.571 137.809 684.616 136.514C683.662 135.219 682.278 134.57 680.461 134.57C679.33 134.57 678.364 134.775 677.568 135.184C676.772 135.594 676.126 136.148 675.636 136.848V146.409C676.068 147.006 676.694 147.534 677.513 147.995C678.332 148.456 679.33 148.687 680.507 148.687Z" fill="#DFF249"/>
<path d="M759.87 153.384H708.369C705.75 153.384 703.617 151.255 703.617 148.633V97.1348C703.617 94.5156 705.747 92.3831 708.369 92.3831H759.87C762.489 92.3831 764.622 94.5156 764.622 97.1348V148.636C764.622 151.255 762.492 153.387 759.87 153.387V153.384ZM710.044 148.232H758.195C758.899 148.232 759.469 147.662 759.469 146.958V98.8093C759.469 98.1051 758.899 97.5355 758.195 97.5355H710.044C709.34 97.5355 708.77 98.1051 708.77 98.8093V146.958C708.77 147.662 709.34 148.232 710.044 148.232Z" fill="#DFF249"/>
<path d="M607.124 399.791C605.768 399.791 604.617 399.583 603.674 399.165C602.728 398.747 601.944 398.196 601.318 397.512V399.254H596.179V369.368L601.315 367V378.213C601.941 377.512 602.801 376.95 603.896 376.526C604.992 376.102 606.097 375.888 607.213 375.888C609.09 375.888 610.755 376.37 612.205 377.33C613.659 378.291 614.795 379.661 615.623 381.44C616.45 383.219 616.863 385.345 616.863 387.817C616.863 391.672 615.986 394.634 614.238 396.696C612.488 398.758 610.117 399.791 607.124 399.791ZM606.319 394.876C608.136 394.876 609.483 394.239 610.362 392.967C611.239 391.695 611.68 389.977 611.68 387.819C611.68 385.541 611.23 383.796 610.328 382.582C609.428 381.368 608.09 380.762 606.319 380.762C605.5 380.762 604.759 380.881 604.095 381.12C603.432 381.359 602.867 381.653 602.397 382.002C601.927 382.351 601.566 382.697 601.312 383.041V392.644C601.849 393.36 602.538 393.91 603.377 394.297C604.219 394.683 605.197 394.876 606.316 394.876H606.319Z" fill="#F9F9F9"/>
<path d="M629.37 399.79C627.776 399.79 626.342 399.507 625.07 398.942C623.796 398.377 622.789 397.532 622.042 396.407C621.298 395.282 620.926 393.881 620.926 392.196C620.926 390.512 621.373 389.007 622.267 387.896C623.161 386.786 624.303 385.967 625.696 385.439C627.089 384.912 628.537 384.646 630.042 384.646C631.205 384.646 632.24 384.747 633.148 384.949C634.057 385.151 634.914 385.451 635.718 385.855V384.514C635.718 383.501 635.539 382.694 635.182 382.091C634.824 381.488 634.308 381.056 633.63 380.796C632.952 380.537 632.145 380.404 631.208 380.404C629.942 380.404 628.687 380.611 627.444 381.03C626.201 381.448 625.042 382.013 623.972 382.728L622.409 378.529C623.51 377.828 624.866 377.214 626.475 376.686C628.084 376.159 629.812 375.893 631.657 375.893C632.67 375.893 633.708 375.994 634.775 376.193C635.839 376.395 636.823 376.79 637.722 377.379C638.622 377.967 639.349 378.829 639.9 379.968C640.451 381.108 640.728 382.607 640.728 384.47V399.256H635.724V397.468C635.098 398.065 634.276 398.599 633.255 399.078C632.234 399.553 630.942 399.793 629.379 399.793L629.37 399.79ZM630.311 395.279C631.562 395.279 632.629 395.049 633.515 394.587C634.4 394.126 635.136 393.598 635.715 393.001V390.054C635.089 389.742 634.357 389.491 633.515 389.307C632.673 389.122 631.784 389.027 630.844 389.027C629.535 389.027 628.378 389.278 627.383 389.774C626.386 390.273 625.887 391.08 625.887 392.196C625.887 393.105 626.273 393.846 627.049 394.42C627.822 394.994 628.909 395.279 630.311 395.279Z" fill="#F9F9F9"/>
<path d="M646.216 399.253V376.426H651.352V381.831L650.683 380.311C650.683 379.642 651.003 378.967 651.643 378.289C652.284 377.612 653.143 377.044 654.225 376.579C655.303 376.118 656.506 375.887 657.832 375.887C659.352 375.887 660.751 376.184 662.031 376.781C663.312 377.378 664.339 378.364 665.114 379.74C665.887 381.119 666.277 382.976 666.277 385.315V399.253H661.14V386.388C661.14 384.288 660.676 382.826 659.744 381.998C658.813 381.17 657.7 380.758 656.405 380.758C655.496 380.758 654.66 380.925 653.893 381.26C653.126 381.594 652.511 382.165 652.05 382.97C651.589 383.775 651.358 384.885 651.358 386.298V399.253H646.216Z" fill="#F9F9F9"/>
<path d="M680.524 399.791C678.453 399.791 676.665 399.321 675.162 398.383C673.657 397.446 672.501 396.082 671.69 394.297C670.88 392.509 670.473 390.352 670.473 387.819C670.473 385.287 670.897 383.222 671.748 381.443C672.596 379.664 673.767 378.294 675.255 377.333C676.743 376.373 678.456 375.891 680.391 375.891C681.672 375.891 682.799 376.105 683.774 376.529C684.749 376.953 685.513 377.472 686.064 378.08V369.368L691.2 367V399.254H686.064V397.512C685.646 398.063 684.951 398.582 683.976 399.064C683.001 399.549 681.85 399.791 680.524 399.791ZM681.239 394.876C682.445 394.876 683.428 394.686 684.186 394.305C684.945 393.925 685.571 393.371 686.064 392.641V382.992C685.706 382.501 685.141 382.005 684.365 381.506C683.589 381.007 682.519 380.759 681.15 380.759C679.393 380.759 678.038 381.365 677.083 382.579C676.131 383.793 675.653 385.538 675.653 387.817C675.653 389.215 675.869 390.444 676.302 391.502C676.734 392.561 677.363 393.386 678.188 393.982C679.015 394.579 680.031 394.876 681.236 394.876H681.239Z" fill="#F9F9F9"/>
<path d="M606.454 430.603C603.268 430.603 600.727 429.553 598.838 427.453C596.946 425.354 596 422.427 596 418.675C596 416.189 596.438 414.052 597.318 412.264C598.198 410.475 599.426 409.103 601.004 408.142C602.581 407.182 604.43 406.7 606.544 406.7C608.912 406.7 610.89 407.202 612.473 408.209C614.059 409.215 615.21 410.781 615.925 412.91L611.057 414.562C610.728 413.682 610.204 412.964 609.483 412.408C608.762 411.851 607.795 411.571 606.59 411.571C604.877 411.571 603.556 412.22 602.625 413.515C601.693 414.81 601.229 416.532 601.229 418.675C601.229 420.817 601.693 422.542 602.625 423.802C603.556 425.06 604.848 425.688 606.501 425.688C607.738 425.688 608.739 425.397 609.506 424.817C610.273 424.238 610.835 423.41 611.193 422.337L616.061 423.857C615.392 426.06 614.258 427.736 612.667 428.884C611.072 430.032 609.004 430.603 606.457 430.603H606.454Z" fill="#F9F9F9"/>
<path d="M629.37 430.602C627.776 430.602 626.342 430.319 625.07 429.754C623.796 429.188 622.789 428.344 622.042 427.219C621.298 426.094 620.926 424.692 620.926 423.008C620.926 421.324 621.373 419.818 622.267 418.708C623.161 417.598 624.303 416.779 625.696 416.251C627.089 415.723 628.537 415.458 630.042 415.458C631.205 415.458 632.24 415.559 633.148 415.761C634.057 415.963 634.914 416.263 635.718 416.666V415.325C635.718 414.313 635.539 413.505 635.182 412.903C634.824 412.3 634.308 411.867 633.63 411.608C632.952 411.348 632.145 411.216 631.208 411.216C629.942 411.216 628.687 411.423 627.444 411.841C626.201 412.26 625.042 412.825 623.972 413.54L622.409 409.341C623.51 408.64 624.866 408.026 626.475 407.498C628.084 406.97 629.812 406.705 631.657 406.705C632.67 406.705 633.708 406.806 634.775 407.005C635.839 407.207 636.823 407.602 637.722 408.19C638.622 408.779 639.349 409.641 639.9 410.78C640.451 411.919 640.728 413.419 640.728 415.282V430.068H635.724V428.28C635.098 428.877 634.276 429.411 633.255 429.889C632.234 430.365 630.942 430.605 629.379 430.605L629.37 430.602ZM630.311 426.088C631.562 426.088 632.629 425.858 633.515 425.396C634.4 424.935 635.136 424.407 635.715 423.81V420.862C635.089 420.551 634.357 420.3 633.515 420.116C632.673 419.931 631.784 419.836 630.844 419.836C629.535 419.836 628.378 420.087 627.383 420.583C626.386 421.082 625.887 421.889 625.887 423.005C625.887 423.914 626.273 424.655 627.049 425.229C627.822 425.803 628.909 426.088 630.311 426.088Z" fill="#F9F9F9"/>
<path d="M644.428 430.066V407.237H649.117V412.866L648.312 412.419C648.534 410.631 649.077 409.232 649.933 408.22C650.79 407.208 651.874 406.7 653.183 406.7C654.346 406.7 655.268 407.049 655.952 407.75C656.638 408.451 657.114 409.204 657.382 410.005C657.904 409.172 658.585 408.413 659.427 407.727C660.269 407.044 661.313 406.7 662.565 406.7C664.353 406.7 665.706 407.341 666.631 408.621C667.554 409.902 668.016 412.151 668.016 415.367V430.063H663.323V416.125C663.323 414.562 663.182 413.42 662.899 412.696C662.617 411.975 662.057 411.612 661.224 411.612C660.702 411.612 660.252 411.791 659.871 412.148C659.491 412.506 659.196 413.022 658.989 413.7C658.781 414.377 658.677 415.199 658.677 416.168V430.063H653.988V415.99C653.988 415.067 653.913 414.277 653.763 413.622C653.613 412.967 653.382 412.468 653.071 412.125C652.759 411.782 652.347 411.612 651.842 411.612C651.292 411.612 650.81 411.791 650.4 412.148C649.991 412.506 649.674 413.022 649.452 413.7C649.229 414.377 649.117 415.199 649.117 416.168V430.063H644.428V430.066Z" fill="#F9F9F9"/>
<path d="M671.499 439.046V407.238H676.636V408.98C677.247 408.326 677.994 407.781 678.88 407.351C679.765 406.918 680.878 406.702 682.219 406.702C684.244 406.702 686.006 407.172 687.503 408.109C688.999 409.047 690.162 410.411 690.986 412.196C691.814 413.984 692.227 416.141 692.227 418.673C692.227 421.205 691.794 423.317 690.932 425.096C690.066 426.875 688.884 428.239 687.381 429.182C685.876 430.128 684.172 430.601 682.265 430.601C680.881 430.601 679.742 430.374 678.848 429.921C677.954 429.468 677.218 428.906 676.636 428.234V436.678L671.499 439.046ZM681.507 425.687C683.278 425.687 684.645 425.081 685.605 423.867C686.565 422.653 687.047 420.923 687.047 418.673C687.047 416.424 686.571 414.809 685.616 413.514C684.662 412.219 683.278 411.57 681.461 411.57C680.33 411.57 679.364 411.775 678.568 412.184C677.772 412.594 677.126 413.148 676.636 413.848V423.409C677.068 424.006 677.694 424.534 678.513 424.995C679.332 425.456 680.33 425.687 681.507 425.687Z" fill="#F9F9F9"/>
<path d="M760.87 430.384H709.369C706.75 430.384 704.617 428.255 704.617 425.633V374.135C704.617 371.516 706.747 369.383 709.369 369.383H760.87C763.489 369.383 765.622 371.516 765.622 374.135V425.636C765.622 428.255 763.492 430.387 760.87 430.387V430.384ZM711.044 425.232H759.195C759.899 425.232 760.469 424.662 760.469 423.958V375.809C760.469 375.105 759.899 374.535 759.195 374.535H711.044C710.34 374.535 709.77 375.105 709.77 375.809V423.958C709.77 424.662 710.34 425.232 711.044 425.232Z" fill="#DFF249"/>
</svg>
